<?xml version="1.0" encoding="utf-8"?>
<svg xmlns="http://www.w3.org/2000/svg" xmlns:xlink="http://www.w3.org/1999/xlink" width="600" height="400" viewBox="0 0 2400 1600">
<defs>
  <clipPath id="clip980">
    <rect x="0" y="0" width="2400" height="1600"/>
  </clipPath>
</defs>
<path clip-path="url(#clip980)" d="M0 1600 L2400 1600 L2400 0 L0 0  Z" fill="#ffffff" fill-rule="evenodd" fill-opacity="1"/>
<defs>
  <clipPath id="clip981">
    <rect x="480" y="0" width="1681" height="1600"/>
  </clipPath>
</defs>
<path clip-path="url(#clip980)" d="M250.028 1423.18 L2352.76 1423.18 L2352.76 123.472 L250.028 123.472  Z" fill="#ffffff" fill-rule="evenodd" fill-opacity="1"/>
<defs>
  <clipPath id="clip982">
    <rect x="250" y="123" width="2104" height="1301"/>
  </clipPath>
</defs>
<polyline clip-path="url(#clip982)" style="stroke:#000000; stroke-linecap:round; stroke-linejoin:round; stroke-width:2; stroke-opacity:0.1; fill:none" points="522.079,1423.18 522.079,123.472 "/>
<polyline clip-path="url(#clip982)" style="stroke:#000000; stroke-linecap:round; stroke-linejoin:round; stroke-width:2; stroke-opacity:0.1; fill:none" points="876.312,1423.18 876.312,123.472 "/>
<polyline clip-path="url(#clip982)" style="stroke:#000000; stroke-linecap:round; stroke-linejoin:round; stroke-width:2; stroke-opacity:0.1; fill:none" points="1230.55,1423.18 1230.55,123.472 "/>
<polyline clip-path="url(#clip982)" style="stroke:#000000; stroke-linecap:round; stroke-linejoin:round; stroke-width:2; stroke-opacity:0.1; fill:none" points="1584.78,1423.18 1584.78,123.472 "/>
<polyline clip-path="url(#clip982)" style="stroke:#000000; stroke-linecap:round; stroke-linejoin:round; stroke-width:2; stroke-opacity:0.1; fill:none" points="1939.01,1423.18 1939.01,123.472 "/>
<polyline clip-path="url(#clip982)" style="stroke:#000000; stroke-linecap:round; stroke-linejoin:round; stroke-width:2; stroke-opacity:0.1; fill:none" points="2293.24,1423.18 2293.24,123.472 "/>
<polyline clip-path="url(#clip982)" style="stroke:#000000; stroke-linecap:round; stroke-linejoin:round; stroke-width:2; stroke-opacity:0.1; fill:none" points="250.028,1386.4 2352.76,1386.4 "/>
<polyline clip-path="url(#clip982)" style="stroke:#000000; stroke-linecap:round; stroke-linejoin:round; stroke-width:2; stroke-opacity:0.1; fill:none" points="250.028,1098.12 2352.76,1098.12 "/>
<polyline clip-path="url(#clip982)" style="stroke:#000000; stroke-linecap:round; stroke-linejoin:round; stroke-width:2; stroke-opacity:0.1; fill:none" points="250.028,809.842 2352.76,809.842 "/>
<polyline clip-path="url(#clip982)" style="stroke:#000000; stroke-linecap:round; stroke-linejoin:round; stroke-width:2; stroke-opacity:0.1; fill:none" points="250.028,521.565 2352.76,521.565 "/>
<polyline clip-path="url(#clip982)" style="stroke:#000000; stroke-linecap:round; stroke-linejoin:round; stroke-width:2; stroke-opacity:0.1; fill:none" points="250.028,233.288 2352.76,233.288 "/>
<polyline clip-path="url(#clip980)" style="stroke:#000000; stroke-linecap:round; stroke-linejoin:round; stroke-width:4; stroke-opacity:1; fill:none" points="250.028,1423.18 2352.76,1423.18 "/>
<polyline clip-path="url(#clip980)" style="stroke:#000000; stroke-linecap:round; stroke-linejoin:round; stroke-width:4; stroke-opacity:1; fill:none" points="522.079,1423.18 522.079,1404.28 "/>
<polyline clip-path="url(#clip980)" style="stroke:#000000; stroke-linecap:round; stroke-linejoin:round; stroke-width:4; stroke-opacity:1; fill:none" points="876.312,1423.18 876.312,1404.28 "/>
<polyline clip-path="url(#clip980)" style="stroke:#000000; stroke-linecap:round; stroke-linejoin:round; stroke-width:4; stroke-opacity:1; fill:none" points="1230.55,1423.18 1230.55,1404.28 "/>
<polyline clip-path="url(#clip980)" style="stroke:#000000; stroke-linecap:round; stroke-linejoin:round; stroke-width:4; stroke-opacity:1; fill:none" points="1584.78,1423.18 1584.78,1404.28 "/>
<polyline clip-path="url(#clip980)" style="stroke:#000000; stroke-linecap:round; stroke-linejoin:round; stroke-width:4; stroke-opacity:1; fill:none" points="1939.01,1423.18 1939.01,1404.28 "/>
<polyline clip-path="url(#clip980)" style="stroke:#000000; stroke-linecap:round; stroke-linejoin:round; stroke-width:4; stroke-opacity:1; fill:none" points="2293.24,1423.18 2293.24,1404.28 "/>
<path clip-path="url(#clip980)" d="M496.778 1451.02 L515.135 1451.02 L515.135 1454.96 L501.061 1454.96 L501.061 1463.43 Q502.079 1463.08 503.098 1462.92 Q504.116 1462.73 505.135 1462.73 Q510.922 1462.73 514.301 1465.9 Q517.681 1469.08 517.681 1474.49 Q517.681 1480.07 514.209 1483.17 Q510.737 1486.25 504.417 1486.25 Q502.241 1486.25 499.973 1485.88 Q497.727 1485.51 495.32 1484.77 L495.32 1480.07 Q497.403 1481.2 499.626 1481.76 Q501.848 1482.32 504.325 1482.32 Q508.329 1482.32 510.667 1480.21 Q513.005 1478.1 513.005 1474.49 Q513.005 1470.88 510.667 1468.77 Q508.329 1466.67 504.325 1466.67 Q502.45 1466.67 500.575 1467.08 Q498.723 1467.5 496.778 1468.38 L496.778 1451.02 Z" fill="#000000" fill-rule="nonzero" fill-opacity="1" /><path clip-path="url(#clip980)" d="M536.894 1454.1 Q533.283 1454.1 531.454 1457.66 Q529.649 1461.2 529.649 1468.33 Q529.649 1475.44 531.454 1479.01 Q533.283 1482.55 536.894 1482.55 Q540.528 1482.55 542.334 1479.01 Q544.162 1475.44 544.162 1468.33 Q544.162 1461.2 542.334 1457.66 Q540.528 1454.1 536.894 1454.1 M536.894 1450.39 Q542.704 1450.39 545.76 1455 Q548.838 1459.58 548.838 1468.33 Q548.838 1477.06 545.76 1481.67 Q542.704 1486.25 536.894 1486.25 Q531.084 1486.25 528.005 1481.67 Q524.95 1477.06 524.95 1468.33 Q524.95 1459.58 528.005 1455 Q531.084 1450.39 536.894 1450.39 Z" fill="#000000" fill-rule="nonzero" fill-opacity="1" /><path clip-path="url(#clip980)" d="M835.919 1481.64 L843.558 1481.64 L843.558 1455.28 L835.248 1456.95 L835.248 1452.69 L843.512 1451.02 L848.187 1451.02 L848.187 1481.64 L855.826 1481.64 L855.826 1485.58 L835.919 1485.58 L835.919 1481.64 Z" fill="#000000" fill-rule="nonzero" fill-opacity="1" /><path clip-path="url(#clip980)" d="M875.271 1454.1 Q871.66 1454.1 869.831 1457.66 Q868.025 1461.2 868.025 1468.33 Q868.025 1475.44 869.831 1479.01 Q871.66 1482.55 875.271 1482.55 Q878.905 1482.55 880.71 1479.01 Q882.539 1475.44 882.539 1468.33 Q882.539 1461.2 880.71 1457.66 Q878.905 1454.1 875.271 1454.1 M875.271 1450.39 Q881.081 1450.39 884.136 1455 Q887.215 1459.58 887.215 1468.33 Q887.215 1477.06 884.136 1481.67 Q881.081 1486.25 875.271 1486.25 Q869.46 1486.25 866.382 1481.67 Q863.326 1477.06 863.326 1468.33 Q863.326 1459.58 866.382 1455 Q869.46 1450.39 875.271 1450.39 Z" fill="#000000" fill-rule="nonzero" fill-opacity="1" /><path clip-path="url(#clip980)" d="M905.433 1454.1 Q901.821 1454.1 899.993 1457.66 Q898.187 1461.2 898.187 1468.33 Q898.187 1475.44 899.993 1479.01 Q901.821 1482.55 905.433 1482.55 Q909.067 1482.55 910.872 1479.01 Q912.701 1475.44 912.701 1468.33 Q912.701 1461.2 910.872 1457.66 Q909.067 1454.1 905.433 1454.1 M905.433 1450.39 Q911.243 1450.39 914.298 1455 Q917.377 1459.58 917.377 1468.33 Q917.377 1477.06 914.298 1481.67 Q911.243 1486.25 905.433 1486.25 Q899.622 1486.25 896.544 1481.67 Q893.488 1477.06 893.488 1468.33 Q893.488 1459.58 896.544 1455 Q899.622 1450.39 905.433 1450.39 Z" fill="#000000" fill-rule="nonzero" fill-opacity="1" /><path clip-path="url(#clip980)" d="M1190.15 1481.64 L1197.79 1481.64 L1197.79 1455.28 L1189.48 1456.95 L1189.48 1452.69 L1197.74 1451.02 L1202.42 1451.02 L1202.42 1481.64 L1210.06 1481.64 L1210.06 1485.58 L1190.15 1485.58 L1190.15 1481.64 Z" fill="#000000" fill-rule="nonzero" fill-opacity="1" /><path clip-path="url(#clip980)" d="M1219.55 1451.02 L1237.91 1451.02 L1237.91 1454.96 L1223.83 1454.96 L1223.83 1463.43 Q1224.85 1463.08 1225.87 1462.92 Q1226.89 1462.73 1227.91 1462.73 Q1233.69 1462.73 1237.07 1465.9 Q1240.45 1469.08 1240.45 1474.49 Q1240.45 1480.07 1236.98 1483.17 Q1233.51 1486.25 1227.19 1486.25 Q1225.01 1486.25 1222.74 1485.88 Q1220.5 1485.51 1218.09 1484.77 L1218.09 1480.07 Q1220.18 1481.2 1222.4 1481.76 Q1224.62 1482.32 1227.1 1482.32 Q1231.1 1482.32 1233.44 1480.21 Q1235.78 1478.1 1235.78 1474.49 Q1235.78 1470.88 1233.44 1468.77 Q1231.1 1466.67 1227.1 1466.67 Q1225.22 1466.67 1223.35 1467.08 Q1221.49 1467.5 1219.55 1468.38 L1219.55 1451.02 Z" fill="#000000" fill-rule="nonzero" fill-opacity="1" /><path clip-path="url(#clip980)" d="M1259.67 1454.1 Q1256.05 1454.1 1254.23 1457.66 Q1252.42 1461.2 1252.42 1468.33 Q1252.42 1475.44 1254.23 1479.01 Q1256.05 1482.55 1259.67 1482.55 Q1263.3 1482.55 1265.11 1479.01 Q1266.93 1475.44 1266.93 1468.33 Q1266.93 1461.2 1265.11 1457.66 Q1263.3 1454.1 1259.67 1454.1 M1259.67 1450.39 Q1265.48 1450.39 1268.53 1455 Q1271.61 1459.58 1271.61 1468.33 Q1271.61 1477.06 1268.53 1481.67 Q1265.48 1486.25 1259.67 1486.25 Q1253.86 1486.25 1250.78 1481.67 Q1247.72 1477.06 1247.72 1468.33 Q1247.72 1459.58 1250.78 1455 Q1253.86 1450.39 1259.67 1450.39 Z" fill="#000000" fill-rule="nonzero" fill-opacity="1" /><path clip-path="url(#clip980)" d="M1548.47 1481.64 L1564.79 1481.64 L1564.79 1485.58 L1542.85 1485.58 L1542.85 1481.64 Q1545.51 1478.89 1550.09 1474.26 Q1554.7 1469.61 1555.88 1468.27 Q1558.12 1465.74 1559 1464.01 Q1559.91 1462.25 1559.91 1460.56 Q1559.91 1457.8 1557.96 1456.07 Q1556.04 1454.33 1552.94 1454.33 Q1550.74 1454.33 1548.29 1455.09 Q1545.86 1455.86 1543.08 1457.41 L1543.08 1452.69 Q1545.9 1451.55 1548.36 1450.97 Q1550.81 1450.39 1552.85 1450.39 Q1558.22 1450.39 1561.41 1453.08 Q1564.61 1455.77 1564.61 1460.26 Q1564.61 1462.39 1563.79 1464.31 Q1563.01 1466.2 1560.9 1468.8 Q1560.32 1469.47 1557.22 1472.69 Q1554.12 1475.88 1548.47 1481.64 Z" fill="#000000" fill-rule="nonzero" fill-opacity="1" /><path clip-path="url(#clip980)" d="M1584.6 1454.1 Q1580.99 1454.1 1579.17 1457.66 Q1577.36 1461.2 1577.36 1468.33 Q1577.36 1475.44 1579.17 1479.01 Q1580.99 1482.55 1584.6 1482.55 Q1588.24 1482.55 1590.04 1479.01 Q1591.87 1475.44 1591.87 1468.33 Q1591.87 1461.2 1590.04 1457.66 Q1588.24 1454.1 1584.6 1454.1 M1584.6 1450.39 Q1590.42 1450.39 1593.47 1455 Q1596.55 1459.58 1596.55 1468.33 Q1596.55 1477.06 1593.47 1481.67 Q1590.42 1486.25 1584.6 1486.25 Q1578.79 1486.25 1575.72 1481.67 Q1572.66 1477.06 1572.66 1468.33 Q1572.66 1459.58 1575.72 1455 Q1578.79 1450.39 1584.6 1450.39 Z" fill="#000000" fill-rule="nonzero" fill-opacity="1" /><path clip-path="url(#clip980)" d="M1614.77 1454.1 Q1611.16 1454.1 1609.33 1457.66 Q1607.52 1461.2 1607.52 1468.33 Q1607.52 1475.44 1609.33 1479.01 Q1611.16 1482.55 1614.77 1482.55 Q1618.4 1482.55 1620.21 1479.01 Q1622.04 1475.44 1622.04 1468.33 Q1622.04 1461.2 1620.21 1457.66 Q1618.4 1454.1 1614.77 1454.1 M1614.77 1450.39 Q1620.58 1450.39 1623.63 1455 Q1626.71 1459.58 1626.71 1468.33 Q1626.71 1477.06 1623.63 1481.67 Q1620.58 1486.25 1614.77 1486.25 Q1608.96 1486.25 1605.88 1481.67 Q1602.82 1477.06 1602.82 1468.33 Q1602.82 1459.58 1605.88 1455 Q1608.96 1450.39 1614.77 1450.39 Z" fill="#000000" fill-rule="nonzero" fill-opacity="1" /><path clip-path="url(#clip980)" d="M1902.7 1481.64 L1919.02 1481.64 L1919.02 1485.58 L1897.08 1485.58 L1897.08 1481.64 Q1899.74 1478.89 1904.32 1474.26 Q1908.93 1469.61 1910.11 1468.27 Q1912.36 1465.74 1913.24 1464.01 Q1914.14 1462.25 1914.14 1460.56 Q1914.14 1457.8 1912.19 1456.07 Q1910.27 1454.33 1907.17 1454.33 Q1904.97 1454.33 1902.52 1455.09 Q1900.09 1455.86 1897.31 1457.41 L1897.31 1452.69 Q1900.13 1451.55 1902.59 1450.97 Q1905.04 1450.39 1907.08 1450.39 Q1912.45 1450.39 1915.64 1453.08 Q1918.84 1455.77 1918.84 1460.26 Q1918.84 1462.39 1918.03 1464.31 Q1917.24 1466.2 1915.13 1468.8 Q1914.56 1469.47 1911.45 1472.69 Q1908.35 1475.88 1902.7 1481.64 Z" fill="#000000" fill-rule="nonzero" fill-opacity="1" /><path clip-path="url(#clip980)" d="M1928.88 1451.02 L1947.24 1451.02 L1947.24 1454.96 L1933.17 1454.96 L1933.17 1463.43 Q1934.19 1463.08 1935.2 1462.92 Q1936.22 1462.73 1937.24 1462.73 Q1943.03 1462.73 1946.41 1465.9 Q1949.79 1469.08 1949.79 1474.49 Q1949.79 1480.07 1946.31 1483.17 Q1942.84 1486.25 1936.52 1486.25 Q1934.35 1486.25 1932.08 1485.88 Q1929.83 1485.51 1927.43 1484.77 L1927.43 1480.07 Q1929.51 1481.2 1931.73 1481.76 Q1933.95 1482.32 1936.43 1482.32 Q1940.44 1482.32 1942.77 1480.21 Q1945.11 1478.1 1945.11 1474.49 Q1945.11 1470.88 1942.77 1468.77 Q1940.44 1466.67 1936.43 1466.67 Q1934.56 1466.67 1932.68 1467.08 Q1930.83 1467.5 1928.88 1468.38 L1928.88 1451.02 Z" fill="#000000" fill-rule="nonzero" fill-opacity="1" /><path clip-path="url(#clip980)" d="M1969 1454.1 Q1965.39 1454.1 1963.56 1457.66 Q1961.75 1461.2 1961.75 1468.33 Q1961.75 1475.44 1963.56 1479.01 Q1965.39 1482.55 1969 1482.55 Q1972.63 1482.55 1974.44 1479.01 Q1976.27 1475.44 1976.27 1468.33 Q1976.27 1461.2 1974.44 1457.66 Q1972.63 1454.1 1969 1454.1 M1969 1450.39 Q1974.81 1450.39 1977.87 1455 Q1980.94 1459.58 1980.94 1468.33 Q1980.94 1477.06 1977.87 1481.67 Q1974.81 1486.25 1969 1486.25 Q1963.19 1486.25 1960.11 1481.67 Q1957.06 1477.06 1957.06 1468.33 Q1957.06 1459.58 1960.11 1455 Q1963.19 1450.39 1969 1450.39 Z" fill="#000000" fill-rule="nonzero" fill-opacity="1" /><path clip-path="url(#clip980)" d="M2267.01 1466.95 Q2270.36 1467.66 2272.24 1469.93 Q2274.14 1472.2 2274.14 1475.53 Q2274.14 1480.65 2270.62 1483.45 Q2267.1 1486.25 2260.62 1486.25 Q2258.44 1486.25 2256.13 1485.81 Q2253.84 1485.39 2251.38 1484.54 L2251.38 1480.02 Q2253.33 1481.16 2255.64 1481.74 Q2257.96 1482.32 2260.48 1482.32 Q2264.88 1482.32 2267.17 1480.58 Q2269.48 1478.84 2269.48 1475.53 Q2269.48 1472.48 2267.33 1470.77 Q2265.2 1469.03 2261.38 1469.03 L2257.35 1469.03 L2257.35 1465.19 L2261.57 1465.19 Q2265.02 1465.19 2266.84 1463.82 Q2268.67 1462.43 2268.67 1459.84 Q2268.67 1457.18 2266.77 1455.77 Q2264.9 1454.33 2261.38 1454.33 Q2259.46 1454.33 2257.26 1454.75 Q2255.06 1455.16 2252.42 1456.04 L2252.42 1451.88 Q2255.09 1451.14 2257.4 1450.77 Q2259.74 1450.39 2261.8 1450.39 Q2267.12 1450.39 2270.22 1452.83 Q2273.33 1455.23 2273.33 1459.35 Q2273.33 1462.22 2271.68 1464.21 Q2270.04 1466.18 2267.01 1466.95 Z" fill="#000000" fill-rule="nonzero" fill-opacity="1" /><path clip-path="url(#clip980)" d="M2293 1454.1 Q2289.39 1454.1 2287.56 1457.66 Q2285.76 1461.2 2285.76 1468.33 Q2285.76 1475.44 2287.56 1479.01 Q2289.39 1482.55 2293 1482.55 Q2296.64 1482.55 2298.44 1479.01 Q2300.27 1475.44 2300.27 1468.33 Q2300.27 1461.2 2298.44 1457.66 Q2296.64 1454.1 2293 1454.1 M2293 1450.39 Q2298.81 1450.39 2301.87 1455 Q2304.95 1459.58 2304.95 1468.33 Q2304.95 1477.06 2301.87 1481.67 Q2298.81 1486.25 2293 1486.25 Q2287.19 1486.25 2284.11 1481.67 Q2281.06 1477.06 2281.06 1468.33 Q2281.06 1459.58 2284.11 1455 Q2287.19 1450.39 2293 1450.39 Z" fill="#000000" fill-rule="nonzero" fill-opacity="1" /><path clip-path="url(#clip980)" d="M2323.16 1454.1 Q2319.55 1454.1 2317.72 1457.66 Q2315.92 1461.2 2315.92 1468.33 Q2315.92 1475.44 2317.72 1479.01 Q2319.55 1482.55 2323.16 1482.55 Q2326.8 1482.55 2328.6 1479.01 Q2330.43 1475.44 2330.43 1468.33 Q2330.43 1461.2 2328.6 1457.66 Q2326.8 1454.1 2323.16 1454.1 M2323.16 1450.39 Q2328.97 1450.39 2332.03 1455 Q2335.11 1459.58 2335.11 1468.33 Q2335.11 1477.06 2332.03 1481.67 Q2328.97 1486.25 2323.16 1486.25 Q2317.35 1486.25 2314.27 1481.67 Q2311.22 1477.06 2311.22 1468.33 Q2311.22 1459.58 2314.27 1455 Q2317.35 1450.39 2323.16 1450.39 Z" fill="#000000" fill-rule="nonzero" fill-opacity="1" /><path clip-path="url(#clip980)" d="M1177.93 1520.52 L1218.13 1520.52 L1218.13 1525.93 L1201.26 1525.93 L1201.26 1568.04 L1194.8 1568.04 L1194.8 1525.93 L1177.93 1525.93 L1177.93 1520.52 Z" fill="#000000" fill-rule="nonzero" fill-opacity="1" /><path clip-path="url(#clip980)" d="M1244.26 1518.52 L1257.76 1518.52 L1257.76 1523.07 L1250.12 1523.07 L1250.12 1572.09 L1257.76 1572.09 L1257.76 1576.64 L1244.26 1576.64 L1244.26 1518.52 Z" fill="#000000" fill-rule="nonzero" fill-opacity="1" /><path clip-path="url(#clip980)" d="M1270.49 1520.52 L1280.07 1520.52 L1292.19 1552.86 L1304.38 1520.52 L1313.96 1520.52 L1313.96 1568.04 L1307.69 1568.04 L1307.69 1526.32 L1295.44 1558.91 L1288.98 1558.91 L1276.72 1526.32 L1276.72 1568.04 L1270.49 1568.04 L1270.49 1520.52 Z" fill="#000000" fill-rule="nonzero" fill-opacity="1" /><path clip-path="url(#clip980)" d="M1356.96 1548.76 L1356.96 1551.62 L1330.04 1551.62 Q1330.42 1557.67 1333.67 1560.85 Q1336.94 1564 1342.77 1564 Q1346.14 1564 1349.29 1563.17 Q1352.48 1562.35 1355.6 1560.69 L1355.6 1566.23 Q1352.44 1567.57 1349.13 1568.27 Q1345.82 1568.97 1342.42 1568.97 Q1333.89 1568.97 1328.89 1564 Q1323.93 1559.04 1323.93 1550.57 Q1323.93 1541.82 1328.64 1536.69 Q1333.38 1531.54 1341.4 1531.54 Q1348.59 1531.54 1352.76 1536.18 Q1356.96 1540.8 1356.96 1548.76 M1351.11 1547.04 Q1351.04 1542.23 1348.4 1539.37 Q1345.79 1536.5 1341.46 1536.5 Q1336.56 1536.5 1333.6 1539.27 Q1330.67 1542.04 1330.23 1547.07 L1351.11 1547.04 Z" fill="#000000" fill-rule="nonzero" fill-opacity="1" /><path clip-path="url(#clip980)" d="M1379.09 1568.04 L1360.94 1520.52 L1367.66 1520.52 L1382.71 1560.53 L1397.8 1520.52 L1404.48 1520.52 L1386.37 1568.04 L1379.09 1568.04 Z" fill="#000000" fill-rule="nonzero" fill-opacity="1" /><path clip-path="url(#clip980)" d="M1424.85 1518.52 L1424.85 1576.64 L1411.36 1576.64 L1411.36 1572.09 L1418.97 1572.09 L1418.97 1523.07 L1411.36 1523.07 L1411.36 1518.52 L1424.85 1518.52 Z" fill="#000000" fill-rule="nonzero" fill-opacity="1" /><polyline clip-path="url(#clip980)" style="stroke:#000000; stroke-linecap:round; stroke-linejoin:round; stroke-width:4; stroke-opacity:1; fill:none" points="250.028,1423.18 250.028,123.472 "/>
<polyline clip-path="url(#clip980)" style="stroke:#000000; stroke-linecap:round; stroke-linejoin:round; stroke-width:4; stroke-opacity:1; fill:none" points="250.028,1386.4 268.926,1386.4 "/>
<polyline clip-path="url(#clip980)" style="stroke:#000000; stroke-linecap:round; stroke-linejoin:round; stroke-width:4; stroke-opacity:1; fill:none" points="250.028,1098.12 268.926,1098.12 "/>
<polyline clip-path="url(#clip980)" style="stroke:#000000; stroke-linecap:round; stroke-linejoin:round; stroke-width:4; stroke-opacity:1; fill:none" points="250.028,809.842 268.926,809.842 "/>
<polyline clip-path="url(#clip980)" style="stroke:#000000; stroke-linecap:round; stroke-linejoin:round; stroke-width:4; stroke-opacity:1; fill:none" points="250.028,521.565 268.926,521.565 "/>
<polyline clip-path="url(#clip980)" style="stroke:#000000; stroke-linecap:round; stroke-linejoin:round; stroke-width:4; stroke-opacity:1; fill:none" points="250.028,233.288 268.926,233.288 "/>
<path clip-path="url(#clip980)" d="M126.691 1372.19 Q123.08 1372.19 121.251 1375.76 Q119.445 1379.3 119.445 1386.43 Q119.445 1393.54 121.251 1397.1 Q123.08 1400.64 126.691 1400.64 Q130.325 1400.64 132.13 1397.1 Q133.959 1393.54 133.959 1386.43 Q133.959 1379.3 132.13 1375.76 Q130.325 1372.19 126.691 1372.19 M126.691 1368.49 Q132.501 1368.49 135.556 1373.1 Q138.635 1377.68 138.635 1386.43 Q138.635 1395.16 135.556 1399.76 Q132.501 1404.35 126.691 1404.35 Q120.88 1404.35 117.802 1399.76 Q114.746 1395.16 114.746 1386.43 Q114.746 1377.68 117.802 1373.1 Q120.88 1368.49 126.691 1368.49 Z" fill="#000000" fill-rule="nonzero" fill-opacity="1" /><path clip-path="url(#clip980)" d="M146.853 1397.8 L151.737 1397.8 L151.737 1403.68 L146.853 1403.68 L146.853 1397.8 Z" fill="#000000" fill-rule="nonzero" fill-opacity="1" /><path clip-path="url(#clip980)" d="M171.922 1372.19 Q168.311 1372.19 166.482 1375.76 Q164.677 1379.3 164.677 1386.43 Q164.677 1393.54 166.482 1397.1 Q168.311 1400.64 171.922 1400.64 Q175.556 1400.64 177.362 1397.1 Q179.19 1393.54 179.19 1386.43 Q179.19 1379.3 177.362 1375.76 Q175.556 1372.19 171.922 1372.19 M171.922 1368.49 Q177.732 1368.49 180.788 1373.1 Q183.866 1377.68 183.866 1386.43 Q183.866 1395.16 180.788 1399.76 Q177.732 1404.35 171.922 1404.35 Q166.112 1404.35 163.033 1399.76 Q159.978 1395.16 159.978 1386.43 Q159.978 1377.68 163.033 1373.1 Q166.112 1368.49 171.922 1368.49 Z" fill="#000000" fill-rule="nonzero" fill-opacity="1" /><path clip-path="url(#clip980)" d="M202.084 1372.19 Q198.473 1372.19 196.644 1375.76 Q194.838 1379.3 194.838 1386.43 Q194.838 1393.54 196.644 1397.1 Q198.473 1400.64 202.084 1400.64 Q205.718 1400.64 207.524 1397.1 Q209.352 1393.54 209.352 1386.43 Q209.352 1379.3 207.524 1375.76 Q205.718 1372.19 202.084 1372.19 M202.084 1368.49 Q207.894 1368.49 210.949 1373.1 Q214.028 1377.68 214.028 1386.43 Q214.028 1395.16 210.949 1399.76 Q207.894 1404.35 202.084 1404.35 Q196.274 1404.35 193.195 1399.76 Q190.139 1395.16 190.139 1386.43 Q190.139 1377.68 193.195 1373.1 Q196.274 1368.49 202.084 1368.49 Z" fill="#000000" fill-rule="nonzero" fill-opacity="1" /><path clip-path="url(#clip980)" d="M128.288 1083.92 Q124.677 1083.92 122.848 1087.48 Q121.043 1091.02 121.043 1098.15 Q121.043 1105.26 122.848 1108.82 Q124.677 1112.37 128.288 1112.37 Q131.922 1112.37 133.728 1108.82 Q135.556 1105.26 135.556 1098.15 Q135.556 1091.02 133.728 1087.48 Q131.922 1083.92 128.288 1083.92 M128.288 1080.21 Q134.098 1080.21 137.154 1084.82 Q140.232 1089.4 140.232 1098.15 Q140.232 1106.88 137.154 1111.49 Q134.098 1116.07 128.288 1116.07 Q122.478 1116.07 119.399 1111.49 Q116.343 1106.88 116.343 1098.15 Q116.343 1089.4 119.399 1084.82 Q122.478 1080.21 128.288 1080.21 Z" fill="#000000" fill-rule="nonzero" fill-opacity="1" /><path clip-path="url(#clip980)" d="M148.45 1109.52 L153.334 1109.52 L153.334 1115.4 L148.45 1115.4 L148.45 1109.52 Z" fill="#000000" fill-rule="nonzero" fill-opacity="1" /><path clip-path="url(#clip980)" d="M173.519 1083.92 Q169.908 1083.92 168.079 1087.48 Q166.274 1091.02 166.274 1098.15 Q166.274 1105.26 168.079 1108.82 Q169.908 1112.37 173.519 1112.37 Q177.153 1112.37 178.959 1108.82 Q180.788 1105.26 180.788 1098.15 Q180.788 1091.02 178.959 1087.48 Q177.153 1083.92 173.519 1083.92 M173.519 1080.21 Q179.329 1080.21 182.385 1084.82 Q185.463 1089.4 185.463 1098.15 Q185.463 1106.88 182.385 1111.49 Q179.329 1116.07 173.519 1116.07 Q167.709 1116.07 164.63 1111.49 Q161.575 1106.88 161.575 1098.15 Q161.575 1089.4 164.63 1084.82 Q167.709 1080.21 173.519 1080.21 Z" fill="#000000" fill-rule="nonzero" fill-opacity="1" /><path clip-path="url(#clip980)" d="M197.709 1111.46 L214.028 1111.46 L214.028 1115.4 L192.084 1115.4 L192.084 1111.46 Q194.746 1108.71 199.329 1104.08 Q203.936 1099.43 205.116 1098.08 Q207.362 1095.56 208.241 1093.82 Q209.144 1092.07 209.144 1090.38 Q209.144 1087.62 207.199 1085.88 Q205.278 1084.15 202.176 1084.15 Q199.977 1084.15 197.524 1084.91 Q195.093 1085.68 192.315 1087.23 L192.315 1082.51 Q195.139 1081.37 197.593 1080.79 Q200.047 1080.21 202.084 1080.21 Q207.454 1080.21 210.649 1082.9 Q213.843 1085.58 213.843 1090.07 Q213.843 1092.2 213.033 1094.13 Q212.246 1096.02 210.139 1098.62 Q209.561 1099.29 206.459 1102.51 Q203.357 1105.7 197.709 1111.46 Z" fill="#000000" fill-rule="nonzero" fill-opacity="1" /><path clip-path="url(#clip980)" d="M126.205 795.64 Q122.593 795.64 120.765 799.205 Q118.959 802.747 118.959 809.876 Q118.959 816.983 120.765 820.548 Q122.593 824.089 126.205 824.089 Q129.839 824.089 131.644 820.548 Q133.473 816.983 133.473 809.876 Q133.473 802.747 131.644 799.205 Q129.839 795.64 126.205 795.64 M126.205 791.937 Q132.015 791.937 135.07 796.543 Q138.149 801.127 138.149 809.876 Q138.149 818.603 135.07 823.21 Q132.015 827.793 126.205 827.793 Q120.394 827.793 117.316 823.21 Q114.26 818.603 114.26 809.876 Q114.26 801.127 117.316 796.543 Q120.394 791.937 126.205 791.937 Z" fill="#000000" fill-rule="nonzero" fill-opacity="1" /><path clip-path="url(#clip980)" d="M146.366 821.242 L151.251 821.242 L151.251 827.122 L146.366 827.122 L146.366 821.242 Z" fill="#000000" fill-rule="nonzero" fill-opacity="1" /><path clip-path="url(#clip980)" d="M171.436 795.64 Q167.825 795.64 165.996 799.205 Q164.19 802.747 164.19 809.876 Q164.19 816.983 165.996 820.548 Q167.825 824.089 171.436 824.089 Q175.07 824.089 176.876 820.548 Q178.704 816.983 178.704 809.876 Q178.704 802.747 176.876 799.205 Q175.07 795.64 171.436 795.64 M171.436 791.937 Q177.246 791.937 180.301 796.543 Q183.38 801.127 183.38 809.876 Q183.38 818.603 180.301 823.21 Q177.246 827.793 171.436 827.793 Q165.626 827.793 162.547 823.21 Q159.491 818.603 159.491 809.876 Q159.491 801.127 162.547 796.543 Q165.626 791.937 171.436 791.937 Z" fill="#000000" fill-rule="nonzero" fill-opacity="1" /><path clip-path="url(#clip980)" d="M204.445 796.636 L192.639 815.085 L204.445 815.085 L204.445 796.636 M203.218 792.562 L209.098 792.562 L209.098 815.085 L214.028 815.085 L214.028 818.974 L209.098 818.974 L209.098 827.122 L204.445 827.122 L204.445 818.974 L188.843 818.974 L188.843 814.46 L203.218 792.562 Z" fill="#000000" fill-rule="nonzero" fill-opacity="1" /><path clip-path="url(#clip980)" d="M126.529 507.363 Q122.918 507.363 121.089 510.928 Q119.283 514.47 119.283 521.6 Q119.283 528.706 121.089 532.271 Q122.918 535.812 126.529 535.812 Q130.163 535.812 131.968 532.271 Q133.797 528.706 133.797 521.6 Q133.797 514.47 131.968 510.928 Q130.163 507.363 126.529 507.363 M126.529 503.66 Q132.339 503.66 135.394 508.266 Q138.473 512.85 138.473 521.6 Q138.473 530.326 135.394 534.933 Q132.339 539.516 126.529 539.516 Q120.718 539.516 117.64 534.933 Q114.584 530.326 114.584 521.6 Q114.584 512.85 117.64 508.266 Q120.718 503.66 126.529 503.66 Z" fill="#000000" fill-rule="nonzero" fill-opacity="1" /><path clip-path="url(#clip980)" d="M146.691 532.965 L151.575 532.965 L151.575 538.845 L146.691 538.845 L146.691 532.965 Z" fill="#000000" fill-rule="nonzero" fill-opacity="1" /><path clip-path="url(#clip980)" d="M171.76 507.363 Q168.149 507.363 166.32 510.928 Q164.515 514.47 164.515 521.6 Q164.515 528.706 166.32 532.271 Q168.149 535.812 171.76 535.812 Q175.394 535.812 177.2 532.271 Q179.028 528.706 179.028 521.6 Q179.028 514.47 177.2 510.928 Q175.394 507.363 171.76 507.363 M171.76 503.66 Q177.57 503.66 180.626 508.266 Q183.704 512.85 183.704 521.6 Q183.704 530.326 180.626 534.933 Q177.57 539.516 171.76 539.516 Q165.95 539.516 162.871 534.933 Q159.815 530.326 159.815 521.6 Q159.815 512.85 162.871 508.266 Q165.95 503.66 171.76 503.66 Z" fill="#000000" fill-rule="nonzero" fill-opacity="1" /><path clip-path="url(#clip980)" d="M202.5 519.701 Q199.352 519.701 197.5 521.854 Q195.672 524.007 195.672 527.757 Q195.672 531.484 197.5 533.66 Q199.352 535.812 202.5 535.812 Q205.649 535.812 207.477 533.66 Q209.329 531.484 209.329 527.757 Q209.329 524.007 207.477 521.854 Q205.649 519.701 202.5 519.701 M211.783 505.049 L211.783 509.308 Q210.024 508.475 208.218 508.035 Q206.436 507.595 204.676 507.595 Q200.047 507.595 197.593 510.72 Q195.163 513.845 194.815 520.164 Q196.181 518.15 198.241 517.086 Q200.301 515.998 202.778 515.998 Q207.987 515.998 210.996 519.169 Q214.028 522.317 214.028 527.757 Q214.028 533.081 210.88 536.298 Q207.732 539.516 202.5 539.516 Q196.505 539.516 193.334 534.933 Q190.163 530.326 190.163 521.6 Q190.163 513.405 194.051 508.544 Q197.94 503.66 204.491 503.66 Q206.25 503.66 208.033 504.007 Q209.838 504.354 211.783 505.049 Z" fill="#000000" fill-rule="nonzero" fill-opacity="1" /><path clip-path="url(#clip980)" d="M126.783 219.087 Q123.172 219.087 121.343 222.651 Q119.538 226.193 119.538 233.323 Q119.538 240.429 121.343 243.994 Q123.172 247.535 126.783 247.535 Q130.417 247.535 132.223 243.994 Q134.052 240.429 134.052 233.323 Q134.052 226.193 132.223 222.651 Q130.417 219.087 126.783 219.087 M126.783 215.383 Q132.593 215.383 135.649 219.989 Q138.728 224.573 138.728 233.323 Q138.728 242.049 135.649 246.656 Q132.593 251.239 126.783 251.239 Q120.973 251.239 117.894 246.656 Q114.839 242.049 114.839 233.323 Q114.839 224.573 117.894 219.989 Q120.973 215.383 126.783 215.383 Z" fill="#000000" fill-rule="nonzero" fill-opacity="1" /><path clip-path="url(#clip980)" d="M146.945 244.688 L151.829 244.688 L151.829 250.568 L146.945 250.568 L146.945 244.688 Z" fill="#000000" fill-rule="nonzero" fill-opacity="1" /><path clip-path="url(#clip980)" d="M172.014 219.087 Q168.403 219.087 166.575 222.651 Q164.769 226.193 164.769 233.323 Q164.769 240.429 166.575 243.994 Q168.403 247.535 172.014 247.535 Q175.649 247.535 177.454 243.994 Q179.283 240.429 179.283 233.323 Q179.283 226.193 177.454 222.651 Q175.649 219.087 172.014 219.087 M172.014 215.383 Q177.825 215.383 180.88 219.989 Q183.959 224.573 183.959 233.323 Q183.959 242.049 180.88 246.656 Q177.825 251.239 172.014 251.239 Q166.204 251.239 163.126 246.656 Q160.07 242.049 160.07 233.323 Q160.07 224.573 163.126 219.989 Q166.204 215.383 172.014 215.383 Z" fill="#000000" fill-rule="nonzero" fill-opacity="1" /><path clip-path="url(#clip980)" d="M202.176 234.156 Q198.843 234.156 196.922 235.938 Q195.024 237.721 195.024 240.846 Q195.024 243.971 196.922 245.753 Q198.843 247.535 202.176 247.535 Q205.51 247.535 207.431 245.753 Q209.352 243.947 209.352 240.846 Q209.352 237.721 207.431 235.938 Q205.533 234.156 202.176 234.156 M197.5 232.165 Q194.491 231.424 192.801 229.364 Q191.135 227.304 191.135 224.341 Q191.135 220.198 194.075 217.79 Q197.037 215.383 202.176 215.383 Q207.338 215.383 210.278 217.79 Q213.218 220.198 213.218 224.341 Q213.218 227.304 211.528 229.364 Q209.861 231.424 206.875 232.165 Q210.255 232.952 212.13 235.244 Q214.028 237.535 214.028 240.846 Q214.028 245.869 210.949 248.554 Q207.894 251.239 202.176 251.239 Q196.459 251.239 193.38 248.554 Q190.325 245.869 190.325 240.846 Q190.325 237.535 192.223 235.244 Q194.121 232.952 197.5 232.165 M195.787 224.781 Q195.787 227.466 197.454 228.971 Q199.144 230.475 202.176 230.475 Q205.186 230.475 206.875 228.971 Q208.588 227.466 208.588 224.781 Q208.588 222.096 206.875 220.591 Q205.186 219.087 202.176 219.087 Q199.144 219.087 197.454 220.591 Q195.787 222.096 195.787 224.781 Z" fill="#000000" fill-rule="nonzero" fill-opacity="1" /><path clip-path="url(#clip980)" d="M29.4065 993.309 L34.9447 993.309 Q33.6716 995.792 33.035 998.465 Q32.3984 1001.14 32.3984 1004 Q32.3984 1008.36 33.7352 1010.56 Q35.072 1012.72 37.7456 1012.72 Q39.7826 1012.72 40.9603 1011.16 Q42.1061 1009.61 43.1565 1004.89 L43.6021 1002.89 Q44.9389 996.651 47.3897 994.041 Q49.8086 991.399 54.1691 991.399 Q59.1344 991.399 62.0308 995.346 Q64.9272 999.261 64.9272 1006.14 Q64.9272 1009 64.3543 1012.12 Q63.8132 1015.21 62.6992 1018.64 L56.6518 1018.64 Q58.3387 1015.4 59.198 1012.25 Q60.0256 1009.1 60.0256 1006.01 Q60.0256 1001.87 58.6251 999.643 Q57.1929 997.415 54.6147 997.415 Q52.2276 997.415 50.9545 999.038 Q49.6813 1000.63 48.5037 1006.07 L48.0262 1008.11 Q46.8804 1013.55 44.5251 1015.97 Q42.138 1018.39 38.0002 1018.39 Q32.9713 1018.39 30.2341 1014.82 Q27.4968 1011.26 27.4968 1004.7 Q27.4968 1001.46 27.9743 998.592 Q28.4517 995.728 29.4065 993.309 Z" fill="#000000" fill-rule="nonzero" fill-opacity="1" /><path clip-path="url(#clip980)" d="M28.3562 982.073 L28.3562 976.217 L64.0042 976.217 L64.0042 982.073 L28.3562 982.073 M14.479 982.073 L14.479 976.217 L21.895 976.217 L21.895 982.073 L14.479 982.073 Z" fill="#000000" fill-rule="nonzero" fill-opacity="1" /><path clip-path="url(#clip980)" d="M45.7664 940.505 Q39.4007 940.505 35.8996 943.147 Q32.3984 945.757 32.3984 950.5 Q32.3984 955.21 35.8996 957.852 Q39.4007 960.462 45.7664 960.462 Q52.1003 960.462 55.6014 957.852 Q59.1026 955.21 59.1026 950.5 Q59.1026 945.757 55.6014 943.147 Q52.1003 940.505 45.7664 940.505 M59.58 934.649 Q68.683 934.649 73.1071 938.691 Q77.5631 942.733 77.5631 951.072 Q77.5631 954.16 77.0857 956.897 Q76.6401 959.634 75.6852 962.212 L69.9879 962.212 Q71.3884 959.634 72.0568 957.12 Q72.7252 954.605 72.7252 951.995 Q72.7252 946.234 69.7015 943.37 Q66.7096 940.505 60.6303 940.505 L57.7339 940.505 Q60.885 942.32 62.4446 945.152 Q64.0042 947.985 64.0042 951.932 Q64.0042 958.488 59.0071 962.499 Q54.01 966.509 45.7664 966.509 Q37.491 966.509 32.4939 962.499 Q27.4968 958.488 27.4968 951.932 Q27.4968 947.985 29.0564 945.152 Q30.616 942.32 33.7671 940.505 L28.3562 940.505 L28.3562 934.649 L59.58 934.649 Z" fill="#000000" fill-rule="nonzero" fill-opacity="1" /><path clip-path="url(#clip980)" d="M35.1993 894.831 Q31.2526 892.635 29.3747 889.58 Q27.4968 886.524 27.4968 882.386 Q27.4968 876.816 31.4117 873.793 Q35.2948 870.769 42.4881 870.769 L64.0042 870.769 L64.0042 876.657 L42.679 876.657 Q37.5546 876.657 35.072 878.472 Q32.5894 880.286 32.5894 884.01 Q32.5894 888.561 35.6131 891.203 Q38.6368 893.845 43.8567 893.845 L64.0042 893.845 L64.0042 899.733 L42.679 899.733 Q37.5228 899.733 35.072 901.547 Q32.5894 903.361 32.5894 907.149 Q32.5894 911.637 35.6449 914.279 Q38.6686 916.92 43.8567 916.92 L64.0042 916.92 L64.0042 922.809 L28.3562 922.809 L28.3562 916.92 L33.8944 916.92 Q30.616 914.915 29.0564 912.114 Q27.4968 909.313 27.4968 905.462 Q27.4968 901.579 29.4702 898.874 Q31.4436 896.136 35.1993 894.831 Z" fill="#000000" fill-rule="nonzero" fill-opacity="1" /><path clip-path="url(#clip980)" d="M46.0847 842.887 Q46.0847 849.985 47.7079 852.722 Q49.3312 855.46 53.2461 855.46 Q56.3653 855.46 58.2114 853.422 Q60.0256 851.354 60.0256 847.821 Q60.0256 842.951 56.5881 840.023 Q53.1188 837.063 47.3897 837.063 L46.0847 837.063 L46.0847 842.887 M43.6657 831.206 L64.0042 831.206 L64.0042 837.063 L58.5933 837.063 Q61.8398 839.068 63.3994 842.06 Q64.9272 845.052 64.9272 849.38 Q64.9272 854.855 61.8716 858.101 Q58.7843 861.316 53.6281 861.316 Q47.6125 861.316 44.5569 857.306 Q41.5014 853.263 41.5014 845.274 L41.5014 837.063 L40.9285 837.063 Q36.8862 837.063 34.6901 839.736 Q32.4621 842.378 32.4621 847.184 Q32.4621 850.24 33.1941 853.136 Q33.9262 856.032 35.3903 858.706 L29.9795 858.706 Q28.7381 855.491 28.1334 852.468 Q27.4968 849.444 27.4968 846.579 Q27.4968 838.845 31.5072 835.026 Q35.5176 831.206 43.6657 831.206 Z" fill="#000000" fill-rule="nonzero" fill-opacity="1" /><path clip-path="url(#clip980)" d="M14.479 798.964 L14.479 785.469 L19.0304 785.469 L19.0304 793.107 L68.0464 793.107 L68.0464 785.469 L72.5979 785.469 L72.5979 798.964 L14.479 798.964 Z" fill="#000000" fill-rule="nonzero" fill-opacity="1" /><path clip-path="url(#clip980)" d="M57.2247 740.336 L44.4614 740.336 L44.4614 750.839 L39.1779 750.839 L39.1779 733.97 L59.58 733.97 Q62.2218 737.694 63.5904 742.182 Q64.9272 746.67 64.9272 751.762 Q64.9272 762.902 58.4342 769.204 Q51.9093 775.474 40.2919 775.474 Q28.6427 775.474 22.1496 769.204 Q15.6248 762.902 15.6248 751.762 Q15.6248 747.115 16.7706 742.946 Q17.9164 738.744 20.1444 735.211 L26.9876 735.211 Q23.9639 738.776 22.4361 742.787 Q20.9083 746.797 20.9083 751.221 Q20.9083 759.942 25.7781 764.334 Q30.6479 768.695 40.2919 768.695 Q49.9041 768.695 54.7739 764.334 Q59.6436 759.942 59.6436 751.221 Q59.6436 747.815 59.0707 745.142 Q58.466 742.468 57.2247 740.336 Z" fill="#000000" fill-rule="nonzero" fill-opacity="1" /><path clip-path="url(#clip980)" d="M44.7161 691.988 L47.5806 691.988 L47.5806 718.915 Q53.6281 718.533 56.8109 715.287 Q59.9619 712.008 59.9619 706.184 Q59.9619 702.81 59.1344 699.659 Q58.3069 696.476 56.6518 693.357 L62.1899 693.357 Q63.5267 696.508 64.227 699.818 Q64.9272 703.128 64.9272 706.534 Q64.9272 715.064 59.9619 720.061 Q54.9967 725.026 46.5303 725.026 Q37.7774 725.026 32.6531 720.316 Q27.4968 715.573 27.4968 707.552 Q27.4968 700.359 32.1438 696.19 Q36.7589 691.988 44.7161 691.988 M42.9973 697.845 Q38.1912 697.908 35.3266 700.55 Q32.4621 703.16 32.4621 707.489 Q32.4621 712.39 35.2312 715.35 Q38.0002 718.279 43.0292 718.724 L42.9973 697.845 Z" fill="#000000" fill-rule="nonzero" fill-opacity="1" /><path clip-path="url(#clip980)" d="M64.0042 669.867 L16.4842 688.01 L16.4842 681.294 L56.4926 666.239 L16.4842 651.152 L16.4842 644.468 L64.0042 662.579 L64.0042 669.867 Z" fill="#000000" fill-rule="nonzero" fill-opacity="1" /><path clip-path="url(#clip980)" d="M16.4842 613.499 L34.2127 596.216 L34.2127 602.614 L21.6404 616.618 L34.2127 630.623 L34.2127 637.02 L16.4842 619.737 L16.4842 613.499 Z" fill="#000000" fill-rule="nonzero" fill-opacity="1" /><path clip-path="url(#clip980)" d="M38.3822 562.86 Q39.3689 558.245 42.4881 555.667 Q45.6073 553.057 50.1906 553.057 Q57.2247 553.057 61.0759 557.895 Q64.9272 562.732 64.9272 571.644 Q64.9272 574.636 64.3224 577.819 Q63.7495 580.97 62.5719 584.344 L56.3653 584.344 Q57.9249 581.67 58.7206 578.488 Q59.5163 575.305 59.5163 571.835 Q59.5163 565.788 57.1292 562.637 Q54.7421 559.454 50.1906 559.454 Q45.9892 559.454 43.6339 562.414 Q41.2468 565.342 41.2468 570.594 L41.2468 576.132 L35.9632 576.132 L35.9632 570.34 Q35.9632 565.597 34.0853 563.083 Q32.1756 560.568 28.6108 560.568 Q24.9505 560.568 23.009 563.178 Q21.0356 565.756 21.0356 570.594 Q21.0356 573.236 21.6086 576.26 Q22.1815 579.283 23.3909 582.912 L17.6618 582.912 Q16.6433 579.252 16.134 576.069 Q15.6248 572.854 15.6248 570.021 Q15.6248 562.701 18.9668 558.436 Q22.277 554.171 27.9424 554.171 Q31.8892 554.171 34.6264 556.43 Q37.3318 558.69 38.3822 562.86 Z" fill="#000000" fill-rule="nonzero" fill-opacity="1" /><path clip-path="url(#clip980)" d="M14.479 528.008 L72.5979 528.008 L72.5979 541.503 L68.0464 541.503 L68.0464 533.896 L19.0304 533.896 L19.0304 541.503 L14.479 541.503 L14.479 528.008 Z" fill="#000000" fill-rule="nonzero" fill-opacity="1" /><path clip-path="url(#clip980)" d="M336.203 12.096 L370.96 12.096 L370.96 18.9825 L344.386 18.9825 L344.386 36.8065 L368.368 36.8065 L368.368 43.6931 L344.386 43.6931 L344.386 72.576 L336.203 72.576 L336.203 12.096 Z" fill="#000000" fill-rule="nonzero" fill-opacity="1" /><path clip-path="url(#clip980)" d="M377.563 27.2059 L385.017 27.2059 L385.017 72.576 L377.563 72.576 L377.563 27.2059 M377.563 9.54393 L385.017 9.54393 L385.017 18.9825 L377.563 18.9825 L377.563 9.54393 Z" fill="#000000" fill-rule="nonzero" fill-opacity="1" /><path clip-path="url(#clip980)" d="M430.468 49.3643 Q430.468 41.2625 427.106 36.8065 Q423.784 32.3505 417.748 32.3505 Q411.753 32.3505 408.39 36.8065 Q405.069 41.2625 405.069 49.3643 Q405.069 57.4256 408.39 61.8816 Q411.753 66.3376 417.748 66.3376 Q423.784 66.3376 427.106 61.8816 Q430.468 57.4256 430.468 49.3643 M437.922 66.9452 Q437.922 78.5308 432.777 84.1616 Q427.632 89.8329 417.019 89.8329 Q413.089 89.8329 409.606 89.2252 Q406.122 88.6581 402.841 87.4428 L402.841 80.1917 Q406.122 81.9741 409.322 82.8248 Q412.522 83.6755 415.844 83.6755 Q423.176 83.6755 426.822 79.8271 Q430.468 76.0193 430.468 68.282 L430.468 64.5957 Q428.159 68.6061 424.554 70.5911 Q420.948 72.576 415.925 72.576 Q407.58 72.576 402.476 66.2161 Q397.372 59.8562 397.372 49.3643 Q397.372 38.832 402.476 32.472 Q407.58 26.1121 415.925 26.1121 Q420.948 26.1121 424.554 28.0971 Q428.159 30.082 430.468 34.0924 L430.468 27.2059 L437.922 27.2059 L437.922 66.9452 Z" fill="#000000" fill-rule="nonzero" fill-opacity="1" /><path clip-path="url(#clip980)" d="M454.328 62.2867 L462.875 62.2867 L462.875 72.576 L454.328 72.576 L454.328 62.2867 Z" fill="#000000" fill-rule="nonzero" fill-opacity="1" /><path clip-path="url(#clip980)" d="M514.119 65.6895 L542.678 65.6895 L542.678 72.576 L504.275 72.576 L504.275 65.6895 Q508.934 60.8689 516.955 52.7671 Q525.016 44.6248 527.082 42.2752 Q531.011 37.8598 532.551 34.8216 Q534.131 31.7429 534.131 28.7857 Q534.131 23.9651 530.728 20.927 Q527.365 17.8888 521.937 17.8888 Q518.089 17.8888 513.795 19.2256 Q509.542 20.5624 504.68 23.2765 L504.68 15.0127 Q509.623 13.0277 513.916 12.015 Q518.21 11.0023 521.775 11.0023 Q531.173 11.0023 536.764 15.7013 Q542.354 20.4004 542.354 28.2591 Q542.354 31.9859 540.936 35.3482 Q539.559 38.6699 535.872 43.2069 Q534.86 44.3817 529.431 50.0125 Q524.003 55.6027 514.119 65.6895 Z" fill="#000000" fill-rule="nonzero" fill-opacity="1" /><path clip-path="url(#clip980)" d="M620.496 35.9153 Q623.291 30.8922 627.18 28.5022 Q631.069 26.1121 636.335 26.1121 Q643.424 26.1121 647.272 31.0947 Q651.121 36.0368 651.121 45.1919 L651.121 72.576 L643.626 72.576 L643.626 45.4349 Q643.626 38.913 641.317 35.7533 Q639.008 32.5936 634.269 32.5936 Q628.476 32.5936 625.114 36.4419 Q621.752 40.2903 621.752 46.9338 L621.752 72.576 L614.257 72.576 L614.257 45.4349 Q614.257 38.8725 611.948 35.7533 Q609.639 32.5936 604.819 32.5936 Q599.107 32.5936 595.745 36.4824 Q592.383 40.3308 592.383 46.9338 L592.383 72.576 L584.888 72.576 L584.888 27.2059 L592.383 27.2059 L592.383 34.2544 Q594.935 30.082 598.499 28.0971 Q602.064 26.1121 606.966 26.1121 Q611.908 26.1121 615.351 28.6237 Q618.835 31.1352 620.496 35.9153 Z" fill="#000000" fill-rule="nonzero" fill-opacity="1" /><path clip-path="url(#clip980)" d="M670.443 49.9314 Q670.443 58.1548 673.806 62.8538 Q677.208 67.5124 683.123 67.5124 Q689.037 67.5124 692.44 62.8538 Q695.843 58.1548 695.843 49.9314 Q695.843 41.7081 692.44 37.0496 Q689.037 32.3505 683.123 32.3505 Q677.208 32.3505 673.806 37.0496 Q670.443 41.7081 670.443 49.9314 M695.843 65.7705 Q693.493 69.8214 689.888 71.8063 Q686.323 73.7508 681.3 73.7508 Q673.077 73.7508 667.891 67.1883 Q662.747 60.6258 662.747 49.9314 Q662.747 39.2371 667.891 32.6746 Q673.077 26.1121 681.3 26.1121 Q686.323 26.1121 689.888 28.0971 Q693.493 30.0415 695.843 34.0924 L695.843 27.2059 L703.296 27.2059 L703.296 89.8329 L695.843 89.8329 L695.843 65.7705 Z" fill="#000000" fill-rule="nonzero" fill-opacity="1" /><path clip-path="url(#clip980)" d="M745.993 34.9026 L797.925 34.9026 L797.925 41.7081 L745.993 41.7081 L745.993 34.9026 M745.993 51.4303 L797.925 51.4303 L797.925 58.3168 L745.993 58.3168 L745.993 51.4303 Z" fill="#000000" fill-rule="nonzero" fill-opacity="1" /><path clip-path="url(#clip980)" d="M859.459 17.4837 Q853.139 17.4837 849.939 23.7221 Q846.779 29.92 846.779 42.3968 Q846.779 54.833 849.939 61.0714 Q853.139 67.2693 859.459 67.2693 Q865.819 67.2693 868.978 61.0714 Q872.178 54.833 872.178 42.3968 Q872.178 29.92 868.978 23.7221 Q865.819 17.4837 859.459 17.4837 M859.459 11.0023 Q869.626 11.0023 874.974 19.0636 Q880.361 27.0843 880.361 42.3968 Q880.361 57.6687 874.974 65.73 Q869.626 73.7508 859.459 73.7508 Q849.291 73.7508 843.903 65.73 Q838.556 57.6687 838.556 42.3968 Q838.556 27.0843 843.903 19.0636 Q849.291 11.0023 859.459 11.0023 Z" fill="#000000" fill-rule="nonzero" fill-opacity="1" /><path clip-path="url(#clip980)" d="M948.984 28.5427 L948.984 35.5912 Q945.824 33.9709 942.421 33.1607 Q939.018 32.3505 935.373 32.3505 Q929.823 32.3505 927.028 34.0519 Q924.273 35.7533 924.273 39.156 Q924.273 41.7486 926.258 43.2475 Q928.243 44.7058 934.238 46.0426 L936.79 46.6097 Q944.73 48.3111 948.052 51.4303 Q951.414 54.509 951.414 60.0587 Q951.414 66.3781 946.391 70.0644 Q941.408 73.7508 932.658 73.7508 Q929.013 73.7508 925.043 73.0216 Q921.113 72.3329 916.738 70.9151 L916.738 63.2184 Q920.87 65.3654 924.881 66.4591 Q928.891 67.5124 932.821 67.5124 Q938.087 67.5124 940.922 65.73 Q943.758 63.9071 943.758 60.6258 Q943.758 57.5877 941.692 55.9673 Q939.667 54.3469 932.739 52.8481 L930.147 52.2405 Q923.22 50.7821 920.141 47.7845 Q917.062 44.7463 917.062 39.4801 Q917.062 33.0797 921.599 29.5959 Q926.137 26.1121 934.481 26.1121 Q938.613 26.1121 942.259 26.7198 Q945.905 27.3274 948.984 28.5427 Z" fill="#000000" fill-rule="nonzero" fill-opacity="1" /><path clip-path="url(#clip980)" d="M963.283 27.2059 L970.737 27.2059 L970.737 72.576 L963.283 72.576 L963.283 27.2059 M963.283 9.54393 L970.737 9.54393 L970.737 18.9825 L963.283 18.9825 L963.283 9.54393 Z" fill="#000000" fill-rule="nonzero" fill-opacity="1" /><path clip-path="url(#clip980)" d="M1016.19 49.3643 Q1016.19 41.2625 1012.83 36.8065 Q1009.5 32.3505 1003.47 32.3505 Q997.473 32.3505 994.111 36.8065 Q990.789 41.2625 990.789 49.3643 Q990.789 57.4256 994.111 61.8816 Q997.473 66.3376 1003.47 66.3376 Q1009.5 66.3376 1012.83 61.8816 Q1016.19 57.4256 1016.19 49.3643 M1023.64 66.9452 Q1023.64 78.5308 1018.5 84.1616 Q1013.35 89.8329 1002.74 89.8329 Q998.81 89.8329 995.326 89.2252 Q991.842 88.6581 988.561 87.4428 L988.561 80.1917 Q991.842 81.9741 995.042 82.8248 Q998.243 83.6755 1001.56 83.6755 Q1008.9 83.6755 1012.54 79.8271 Q1016.19 76.0193 1016.19 68.282 L1016.19 64.5957 Q1013.88 68.6061 1010.27 70.5911 Q1006.67 72.576 1001.65 72.576 Q993.301 72.576 988.196 66.2161 Q983.092 59.8562 983.092 49.3643 Q983.092 38.832 988.196 32.472 Q993.301 26.1121 1001.65 26.1121 Q1006.67 26.1121 1010.27 28.0971 Q1013.88 30.082 1016.19 34.0924 L1016.19 27.2059 L1023.64 27.2059 L1023.64 66.9452 Z" fill="#000000" fill-rule="nonzero" fill-opacity="1" /><path clip-path="url(#clip980)" d="M1074.32 35.9153 Q1077.11 30.8922 1081 28.5022 Q1084.89 26.1121 1090.16 26.1121 Q1097.25 26.1121 1101.1 31.0947 Q1104.94 36.0368 1104.94 45.1919 L1104.94 72.576 L1097.45 72.576 L1097.45 45.4349 Q1097.45 38.913 1095.14 35.7533 Q1092.83 32.5936 1088.09 32.5936 Q1082.3 32.5936 1078.94 36.4419 Q1075.57 40.2903 1075.57 46.9338 L1075.57 72.576 L1068.08 72.576 L1068.08 45.4349 Q1068.08 38.8725 1065.77 35.7533 Q1063.46 32.5936 1058.64 32.5936 Q1052.93 32.5936 1049.57 36.4824 Q1046.21 40.3308 1046.21 46.9338 L1046.21 72.576 L1038.71 72.576 L1038.71 27.2059 L1046.21 27.2059 L1046.21 34.2544 Q1048.76 30.082 1052.32 28.0971 Q1055.89 26.1121 1060.79 26.1121 Q1065.73 26.1121 1069.17 28.6237 Q1072.66 31.1352 1074.32 35.9153 Z" fill="#000000" fill-rule="nonzero" fill-opacity="1" /><path clip-path="url(#clip980)" d="M1140.43 49.7694 Q1131.4 49.7694 1127.91 51.8354 Q1124.43 53.9013 1124.43 58.8839 Q1124.43 62.8538 1127.02 65.2034 Q1129.65 67.5124 1134.15 67.5124 Q1140.35 67.5124 1144.08 63.1374 Q1147.84 58.7219 1147.84 51.4303 L1147.84 49.7694 L1140.43 49.7694 M1155.3 46.6907 L1155.3 72.576 L1147.84 72.576 L1147.84 65.6895 Q1145.29 69.8214 1141.48 71.8063 Q1137.67 73.7508 1132.17 73.7508 Q1125.2 73.7508 1121.07 69.8619 Q1116.97 65.9325 1116.97 59.3701 Q1116.97 51.7138 1122.08 47.825 Q1127.22 43.9361 1137.39 43.9361 L1147.84 43.9361 L1147.84 43.2069 Q1147.84 38.0623 1144.44 35.2672 Q1141.08 32.4315 1134.96 32.4315 Q1131.07 32.4315 1127.39 33.3632 Q1123.7 34.295 1120.3 36.1584 L1120.3 29.2718 Q1124.39 27.692 1128.24 26.9223 Q1132.08 26.1121 1135.73 26.1121 Q1145.57 26.1121 1150.44 31.2163 Q1155.3 36.3204 1155.3 46.6907 Z" fill="#000000" fill-rule="nonzero" fill-opacity="1" /><path clip-path="url(#clip980)" d="M1166.88 46.5287 L1188.72 46.5287 L1188.72 53.1722 L1166.88 53.1722 L1166.88 46.5287 Z" fill="#000000" fill-rule="nonzero" fill-opacity="1" /><path clip-path="url(#clip980)" d="M1233.24 28.9478 L1233.24 35.9153 Q1230.08 34.1734 1226.88 33.3227 Q1223.72 32.4315 1220.48 32.4315 Q1213.22 32.4315 1209.21 37.0496 Q1205.2 41.6271 1205.2 49.9314 Q1205.2 58.2358 1209.21 62.8538 Q1213.22 67.4314 1220.48 67.4314 Q1223.72 67.4314 1226.88 66.5807 Q1230.08 65.6895 1233.24 63.9476 L1233.24 70.8341 Q1230.12 72.2924 1226.75 73.0216 Q1223.43 73.7508 1219.67 73.7508 Q1209.42 73.7508 1203.38 67.3098 Q1197.34 60.8689 1197.34 49.9314 Q1197.34 38.832 1203.42 32.472 Q1209.54 26.1121 1220.15 26.1121 Q1223.59 26.1121 1226.88 26.8413 Q1230.16 27.5299 1233.24 28.9478 Z" fill="#000000" fill-rule="nonzero" fill-opacity="1" /><path clip-path="url(#clip980)" d="M1263.78 32.4315 Q1257.78 32.4315 1254.3 37.1306 Q1250.82 41.7891 1250.82 49.9314 Q1250.82 58.0738 1254.26 62.7728 Q1257.74 67.4314 1263.78 67.4314 Q1269.73 67.4314 1273.22 62.7323 Q1276.7 58.0333 1276.7 49.9314 Q1276.7 41.8701 1273.22 37.1711 Q1269.73 32.4315 1263.78 32.4315 M1263.78 26.1121 Q1273.5 26.1121 1279.05 32.4315 Q1284.6 38.7509 1284.6 49.9314 Q1284.6 61.0714 1279.05 67.4314 Q1273.5 73.7508 1263.78 73.7508 Q1254.02 73.7508 1248.47 67.4314 Q1242.96 61.0714 1242.96 49.9314 Q1242.96 38.7509 1248.47 32.4315 Q1254.02 26.1121 1263.78 26.1121 Z" fill="#000000" fill-rule="nonzero" fill-opacity="1" /><path clip-path="url(#clip980)" d="M1334.67 45.1919 L1334.67 72.576 L1327.22 72.576 L1327.22 45.4349 Q1327.22 38.994 1324.7 35.7938 Q1322.19 32.5936 1317.17 32.5936 Q1311.13 32.5936 1307.65 36.4419 Q1304.17 40.2903 1304.17 46.9338 L1304.17 72.576 L1296.67 72.576 L1296.67 27.2059 L1304.17 27.2059 L1304.17 34.2544 Q1306.84 30.163 1310.45 28.1376 Q1314.09 26.1121 1318.83 26.1121 Q1326.65 26.1121 1330.66 30.9732 Q1334.67 35.7938 1334.67 45.1919 Z" fill="#000000" fill-rule="nonzero" fill-opacity="1" /><path clip-path="url(#clip980)" d="M1356.91 14.324 L1356.91 27.2059 L1372.26 27.2059 L1372.26 32.9987 L1356.91 32.9987 L1356.91 57.6282 Q1356.91 63.1779 1358.41 64.7578 Q1359.95 66.3376 1364.61 66.3376 L1372.26 66.3376 L1372.26 72.576 L1364.61 72.576 Q1355.98 72.576 1352.7 69.3758 Q1349.42 66.1351 1349.42 57.6282 L1349.42 32.9987 L1343.95 32.9987 L1343.95 27.2059 L1349.42 27.2059 L1349.42 14.324 L1356.91 14.324 Z" fill="#000000" fill-rule="nonzero" fill-opacity="1" /><path clip-path="url(#clip980)" d="M1408.36 34.1734 Q1407.1 33.4443 1405.6 33.1202 Q1404.14 32.7556 1402.36 32.7556 Q1396.04 32.7556 1392.64 36.8875 Q1389.28 40.9789 1389.28 48.6757 L1389.28 72.576 L1381.78 72.576 L1381.78 27.2059 L1389.28 27.2059 L1389.28 34.2544 Q1391.63 30.1225 1395.39 28.1376 Q1399.16 26.1121 1404.55 26.1121 Q1405.32 26.1121 1406.25 26.2337 Q1407.18 26.3147 1408.32 26.5172 L1408.36 34.1734 Z" fill="#000000" fill-rule="nonzero" fill-opacity="1" /><path clip-path="url(#clip980)" d="M1431.93 32.4315 Q1425.94 32.4315 1422.45 37.1306 Q1418.97 41.7891 1418.97 49.9314 Q1418.97 58.0738 1422.41 62.7728 Q1425.9 67.4314 1431.93 67.4314 Q1437.89 67.4314 1441.37 62.7323 Q1444.85 58.0333 1444.85 49.9314 Q1444.85 41.8701 1441.37 37.1711 Q1437.89 32.4315 1431.93 32.4315 M1431.93 26.1121 Q1441.65 26.1121 1447.2 32.4315 Q1452.75 38.7509 1452.75 49.9314 Q1452.75 61.0714 1447.2 67.4314 Q1441.65 73.7508 1431.93 73.7508 Q1422.17 73.7508 1416.62 67.4314 Q1411.11 61.0714 1411.11 49.9314 Q1411.11 38.7509 1416.62 32.4315 Q1422.17 26.1121 1431.93 26.1121 Z" fill="#000000" fill-rule="nonzero" fill-opacity="1" /><path clip-path="url(#clip980)" d="M1465.11 9.54393 L1472.56 9.54393 L1472.56 72.576 L1465.11 72.576 L1465.11 9.54393 Z" fill="#000000" fill-rule="nonzero" fill-opacity="1" /><path clip-path="url(#clip980)" d="M1488.16 9.54393 L1495.61 9.54393 L1495.61 72.576 L1488.16 72.576 L1488.16 9.54393 Z" fill="#000000" fill-rule="nonzero" fill-opacity="1" /><path clip-path="url(#clip980)" d="M1550.02 48.0275 L1550.02 51.6733 L1515.75 51.6733 Q1516.23 59.3701 1520.36 63.421 Q1524.54 67.4314 1531.95 67.4314 Q1536.24 67.4314 1540.25 66.3781 Q1544.3 65.3249 1548.27 63.2184 L1548.27 70.267 Q1544.26 71.9684 1540.05 72.8596 Q1535.84 73.7508 1531.5 73.7508 Q1520.65 73.7508 1514.29 67.4314 Q1507.97 61.1119 1507.97 50.3365 Q1507.97 39.1965 1513.96 32.6746 Q1520 26.1121 1530.21 26.1121 Q1539.36 26.1121 1544.67 32.0264 Q1550.02 37.9003 1550.02 48.0275 M1542.56 45.84 Q1542.48 39.7232 1539.12 36.0774 Q1535.8 32.4315 1530.29 32.4315 Q1524.05 32.4315 1520.28 35.9558 Q1516.56 39.4801 1515.99 45.8805 L1542.56 45.84 Z" fill="#000000" fill-rule="nonzero" fill-opacity="1" /><path clip-path="url(#clip980)" d="M1592.11 34.0924 L1592.11 9.54393 L1599.56 9.54393 L1599.56 72.576 L1592.11 72.576 L1592.11 65.7705 Q1589.76 69.8214 1586.15 71.8063 Q1582.59 73.7508 1577.56 73.7508 Q1569.34 73.7508 1564.15 67.1883 Q1559.01 60.6258 1559.01 49.9314 Q1559.01 39.2371 1564.15 32.6746 Q1569.34 26.1121 1577.56 26.1121 Q1582.59 26.1121 1586.15 28.0971 Q1589.76 30.0415 1592.11 34.0924 M1566.71 49.9314 Q1566.71 58.1548 1570.07 62.8538 Q1573.47 67.5124 1579.39 67.5124 Q1585.3 67.5124 1588.7 62.8538 Q1592.11 58.1548 1592.11 49.9314 Q1592.11 41.7081 1588.7 37.0496 Q1585.3 32.3505 1579.39 32.3505 Q1573.47 32.3505 1570.07 37.0496 Q1566.71 41.7081 1566.71 49.9314 Z" fill="#000000" fill-rule="nonzero" fill-opacity="1" /><path clip-path="url(#clip980)" d="M1648.49 65.7705 L1648.49 89.8329 L1641 89.8329 L1641 27.2059 L1648.49 27.2059 L1648.49 34.0924 Q1650.84 30.0415 1654.41 28.0971 Q1658.01 26.1121 1663 26.1121 Q1671.26 26.1121 1676.4 32.6746 Q1681.59 39.2371 1681.59 49.9314 Q1681.59 60.6258 1676.4 67.1883 Q1671.26 73.7508 1663 73.7508 Q1658.01 73.7508 1654.41 71.8063 Q1650.84 69.8214 1648.49 65.7705 M1673.85 49.9314 Q1673.85 41.7081 1670.45 37.0496 Q1667.09 32.3505 1661.17 32.3505 Q1655.26 32.3505 1651.86 37.0496 Q1648.49 41.7081 1648.49 49.9314 Q1648.49 58.1548 1651.86 62.8538 Q1655.26 67.5124 1661.17 67.5124 Q1667.09 67.5124 1670.45 62.8538 Q1673.85 58.1548 1673.85 49.9314 Z" fill="#000000" fill-rule="nonzero" fill-opacity="1" /><path clip-path="url(#clip980)" d="M1711.53 32.4315 Q1705.53 32.4315 1702.05 37.1306 Q1698.56 41.7891 1698.56 49.9314 Q1698.56 58.0738 1702.01 62.7728 Q1705.49 67.4314 1711.53 67.4314 Q1717.48 67.4314 1720.96 62.7323 Q1724.45 58.0333 1724.45 49.9314 Q1724.45 41.8701 1720.96 37.1711 Q1717.48 32.4315 1711.53 32.4315 M1711.53 26.1121 Q1721.25 26.1121 1726.8 32.4315 Q1732.35 38.7509 1732.35 49.9314 Q1732.35 61.0714 1726.8 67.4314 Q1721.25 73.7508 1711.53 73.7508 Q1701.76 73.7508 1696.21 67.4314 Q1690.7 61.0714 1690.7 49.9314 Q1690.7 38.7509 1696.21 32.4315 Q1701.76 26.1121 1711.53 26.1121 Z" fill="#000000" fill-rule="nonzero" fill-opacity="1" /><path clip-path="url(#clip980)" d="M1773.63 28.5427 L1773.63 35.5912 Q1770.47 33.9709 1767.06 33.1607 Q1763.66 32.3505 1760.02 32.3505 Q1754.47 32.3505 1751.67 34.0519 Q1748.92 35.7533 1748.92 39.156 Q1748.92 41.7486 1750.9 43.2475 Q1752.89 44.7058 1758.88 46.0426 L1761.43 46.6097 Q1769.37 48.3111 1772.69 51.4303 Q1776.06 54.509 1776.06 60.0587 Q1776.06 66.3781 1771.03 70.0644 Q1766.05 73.7508 1757.3 73.7508 Q1753.66 73.7508 1749.69 73.0216 Q1745.76 72.3329 1741.38 70.9151 L1741.38 63.2184 Q1745.51 65.3654 1749.52 66.4591 Q1753.53 67.5124 1757.46 67.5124 Q1762.73 67.5124 1765.56 65.73 Q1768.4 63.9071 1768.4 60.6258 Q1768.4 57.5877 1766.33 55.9673 Q1764.31 54.3469 1757.38 52.8481 L1754.79 52.2405 Q1747.86 50.7821 1744.78 47.7845 Q1741.71 44.7463 1741.71 39.4801 Q1741.71 33.0797 1746.24 29.5959 Q1750.78 26.1121 1759.12 26.1121 Q1763.26 26.1121 1766.9 26.7198 Q1770.55 27.3274 1773.63 28.5427 Z" fill="#000000" fill-rule="nonzero" fill-opacity="1" /><path clip-path="url(#clip980)" d="M1787.93 27.2059 L1795.38 27.2059 L1795.38 72.576 L1787.93 72.576 L1787.93 27.2059 M1787.93 9.54393 L1795.38 9.54393 L1795.38 18.9825 L1787.93 18.9825 L1787.93 9.54393 Z" fill="#000000" fill-rule="nonzero" fill-opacity="1" /><path clip-path="url(#clip980)" d="M1818.35 14.324 L1818.35 27.2059 L1833.7 27.2059 L1833.7 32.9987 L1818.35 32.9987 L1818.35 57.6282 Q1818.35 63.1779 1819.85 64.7578 Q1821.39 66.3376 1826.04 66.3376 L1833.7 66.3376 L1833.7 72.576 L1826.04 72.576 Q1817.42 72.576 1814.14 69.3758 Q1810.85 66.1351 1810.85 57.6282 L1810.85 32.9987 L1805.39 32.9987 L1805.39 27.2059 L1810.85 27.2059 L1810.85 14.324 L1818.35 14.324 Z" fill="#000000" fill-rule="nonzero" fill-opacity="1" /><path clip-path="url(#clip980)" d="M1843.5 27.2059 L1850.96 27.2059 L1850.96 72.576 L1843.5 72.576 L1843.5 27.2059 M1843.5 9.54393 L1850.96 9.54393 L1850.96 18.9825 L1843.5 18.9825 L1843.5 9.54393 Z" fill="#000000" fill-rule="nonzero" fill-opacity="1" /><path clip-path="url(#clip980)" d="M1861.21 27.2059 L1869.11 27.2059 L1883.28 65.2844 L1897.46 27.2059 L1905.36 27.2059 L1888.35 72.576 L1878.22 72.576 L1861.21 27.2059 Z" fill="#000000" fill-rule="nonzero" fill-opacity="1" /><path clip-path="url(#clip980)" d="M1954.46 48.0275 L1954.46 51.6733 L1920.19 51.6733 Q1920.67 59.3701 1924.81 63.421 Q1928.98 67.4314 1936.39 67.4314 Q1940.69 67.4314 1944.7 66.3781 Q1948.75 65.3249 1952.72 63.2184 L1952.72 70.267 Q1948.71 71.9684 1944.49 72.8596 Q1940.28 73.7508 1935.95 73.7508 Q1925.09 73.7508 1918.73 67.4314 Q1912.41 61.1119 1912.41 50.3365 Q1912.41 39.1965 1918.41 32.6746 Q1924.44 26.1121 1934.65 26.1121 Q1943.8 26.1121 1949.11 32.0264 Q1954.46 37.9003 1954.46 48.0275 M1947 45.84 Q1946.92 39.7232 1943.56 36.0774 Q1940.24 32.4315 1934.73 32.4315 Q1928.49 32.4315 1924.72 35.9558 Q1921 39.4801 1920.43 45.8805 L1947 45.84 Z" fill="#000000" fill-rule="nonzero" fill-opacity="1" /><path clip-path="url(#clip980)" d="M2025.63 49.9314 Q2025.63 41.7081 2022.23 37.0496 Q2018.87 32.3505 2012.95 32.3505 Q2007.04 32.3505 2003.64 37.0496 Q2000.27 41.7081 2000.27 49.9314 Q2000.27 58.1548 2003.64 62.8538 Q2007.04 67.5124 2012.95 67.5124 Q2018.87 67.5124 2022.23 62.8538 Q2025.63 58.1548 2025.63 49.9314 M2000.27 34.0924 Q2002.62 30.0415 2006.19 28.0971 Q2009.79 26.1121 2014.78 26.1121 Q2023.04 26.1121 2028.19 32.6746 Q2033.37 39.2371 2033.37 49.9314 Q2033.37 60.6258 2028.19 67.1883 Q2023.04 73.7508 2014.78 73.7508 Q2009.79 73.7508 2006.19 71.8063 Q2002.62 69.8214 2000.27 65.7705 L2000.27 72.576 L1992.78 72.576 L1992.78 9.54393 L2000.27 9.54393 L2000.27 34.0924 Z" fill="#000000" fill-rule="nonzero" fill-opacity="1" /><path clip-path="url(#clip980)" d="M2072.02 34.1734 Q2070.76 33.4443 2069.26 33.1202 Q2067.8 32.7556 2066.02 32.7556 Q2059.7 32.7556 2056.3 36.8875 Q2052.94 40.9789 2052.94 48.6757 L2052.94 72.576 L2045.44 72.576 L2045.44 27.2059 L2052.94 27.2059 L2052.94 34.2544 Q2055.29 30.1225 2059.05 28.1376 Q2062.82 26.1121 2068.21 26.1121 Q2068.98 26.1121 2069.91 26.2337 Q2070.84 26.3147 2071.98 26.5172 L2072.02 34.1734 Z" fill="#000000" fill-rule="nonzero" fill-opacity="1" /><path clip-path="url(#clip980)" d="M2100.45 49.7694 Q2091.42 49.7694 2087.94 51.8354 Q2084.45 53.9013 2084.45 58.8839 Q2084.45 62.8538 2087.04 65.2034 Q2089.68 67.5124 2094.17 67.5124 Q2100.37 67.5124 2104.1 63.1374 Q2107.87 58.7219 2107.87 51.4303 L2107.87 49.7694 L2100.45 49.7694 M2115.32 46.6907 L2115.32 72.576 L2107.87 72.576 L2107.87 65.6895 Q2105.31 69.8214 2101.51 71.8063 Q2097.7 73.7508 2092.19 73.7508 Q2085.22 73.7508 2081.09 69.8619 Q2077 65.9325 2077 59.3701 Q2077 51.7138 2082.1 47.825 Q2087.25 43.9361 2097.41 43.9361 L2107.87 43.9361 L2107.87 43.2069 Q2107.87 38.0623 2104.46 35.2672 Q2101.1 32.4315 2094.98 32.4315 Q2091.1 32.4315 2087.41 33.3632 Q2083.72 34.295 2080.32 36.1584 L2080.32 29.2718 Q2084.41 27.692 2088.26 26.9223 Q2092.11 26.1121 2095.75 26.1121 Q2105.6 26.1121 2110.46 31.2163 Q2115.32 36.3204 2115.32 46.6907 Z" fill="#000000" fill-rule="nonzero" fill-opacity="1" /><path clip-path="url(#clip980)" d="M2168.39 45.1919 L2168.39 72.576 L2160.93 72.576 L2160.93 45.4349 Q2160.93 38.994 2158.42 35.7938 Q2155.91 32.5936 2150.89 32.5936 Q2144.85 32.5936 2141.37 36.4419 Q2137.88 40.2903 2137.88 46.9338 L2137.88 72.576 L2130.39 72.576 L2130.39 27.2059 L2137.88 27.2059 L2137.88 34.2544 Q2140.56 30.163 2144.16 28.1376 Q2147.81 26.1121 2152.55 26.1121 Q2160.37 26.1121 2164.38 30.9732 Q2168.39 35.7938 2168.39 45.1919 Z" fill="#000000" fill-rule="nonzero" fill-opacity="1" /><path clip-path="url(#clip980)" d="M2215.9 28.9478 L2215.9 35.9153 Q2212.74 34.1734 2209.54 33.3227 Q2206.38 32.4315 2203.14 32.4315 Q2195.89 32.4315 2191.88 37.0496 Q2187.87 41.6271 2187.87 49.9314 Q2187.87 58.2358 2191.88 62.8538 Q2195.89 67.4314 2203.14 67.4314 Q2206.38 67.4314 2209.54 66.5807 Q2212.74 65.6895 2215.9 63.9476 L2215.9 70.8341 Q2212.78 72.2924 2209.42 73.0216 Q2206.1 73.7508 2202.33 73.7508 Q2192.08 73.7508 2186.05 67.3098 Q2180.01 60.8689 2180.01 49.9314 Q2180.01 38.832 2186.09 32.472 Q2192.21 26.1121 2202.82 26.1121 Q2206.26 26.1121 2209.54 26.8413 Q2212.83 27.5299 2215.9 28.9478 Z" fill="#000000" fill-rule="nonzero" fill-opacity="1" /><path clip-path="url(#clip980)" d="M2266.58 45.1919 L2266.58 72.576 L2259.13 72.576 L2259.13 45.4349 Q2259.13 38.994 2256.62 35.7938 Q2254.1 32.5936 2249.08 32.5936 Q2243.04 32.5936 2239.56 36.4419 Q2236.08 40.2903 2236.08 46.9338 L2236.08 72.576 L2228.58 72.576 L2228.58 9.54393 L2236.08 9.54393 L2236.08 34.2544 Q2238.75 30.163 2242.36 28.1376 Q2246 26.1121 2250.74 26.1121 Q2258.56 26.1121 2262.57 30.9732 Q2266.58 35.7938 2266.58 45.1919 Z" fill="#000000" fill-rule="nonzero" fill-opacity="1" /><polyline clip-path="url(#clip982)" style="stroke:#009af9; stroke-linecap:round; stroke-linejoin:round; stroke-width:10; stroke-opacity:1; fill:none" points="1159.7,160.256 1165.82,165.365 1171.78,170.474 1177.59,175.583 1183.26,180.692 1188.78,185.801 1194.18,190.91 1199.44,196.019 1204.58,201.128 1209.6,206.237 1214.5,211.345 1219.3,216.454 1223.99,221.563 1228.58,226.672 1233.06,231.781 1237.45,236.89 1241.75,241.999 1245.95,247.108 1250.07,252.217 1254.11,257.326 1258.06,262.435 1261.93,267.544 1265.72,272.652 1269.44,277.761 1273.08,282.87 1276.65,287.979 1280.15,293.088 1283.59,298.197 1286.95,303.306 1290.25,308.415 1293.49,313.524 1296.67,318.633 1299.78,323.742 1302.84,328.85 1305.84,333.959 1308.78,339.068 1311.66,344.177 1314.5,349.286 1317.28,354.395 1320,359.504 1322.68,364.613 1325.3,369.722 1327.88,374.831 1330.41,379.94 1332.89,385.049 1335.32,390.157 1337.71,395.266 1340.06,400.375 1342.36,405.484 1344.61,410.593 1346.83,415.702 1349,420.811 1351.13,425.92 1353.22,431.029 1355.28,436.138 1357.29,441.247 1359.26,446.355 1361.19,451.464 1363.09,456.573 1364.95,461.682 1366.78,466.791 1368.56,471.9 1370.31,477.009 1372.03,482.118 1373.71,487.227 1375.36,492.336 1376.98,497.445 1378.56,502.554 1380.1,507.662 1381.62,512.771 1383.1,517.88 1384.55,522.989 1385.97,528.098 1387.36,533.207 1388.72,538.316 1390.05,543.425 1391.34,548.534 1392.61,553.643 1393.85,558.752 1395.06,563.861 1396.24,568.969 1397.39,574.078 1398.51,579.187 1399.6,584.296 1400.67,589.405 1401.71,594.514 1402.72,599.623 1403.7,604.732 1404.66,609.841 1405.59,614.95 1406.49,620.059 1407.37,625.167 1408.22,630.276 1409.04,635.385 1409.84,640.494 1410.61,645.603 1411.35,650.712 1412.08,655.821 1412.77,660.93 1413.44,666.039 1414.09,671.148 1414.71,676.257 1415.3,681.366 1415.87,686.474 1416.42,691.583 1416.94,696.692 1417.44,701.801 1417.91,706.91 1418.36,712.019 1418.79,717.128 1419.19,722.237 1419.57,727.346 1419.92,732.455 1420.25,737.564 1420.56,742.673 1420.84,747.781 1421.1,752.89 1421.34,757.999 1421.55,763.108 1421.74,768.217 1421.91,773.326 1422.05,778.435 1422.17,783.544 1422.27,788.653 1422.34,793.762 1422.4,798.871 1422.42,803.979 1422.43,809.088 1422.41,814.197 1422.37,819.306 1422.31,824.415 1422.22,829.524 1422.11,834.633 1421.97,839.742 1421.82,844.851 1421.64,849.96 1421.44,855.069 1421.21,860.178 1420.96,865.286 1420.69,870.395 1420.4,875.504 1420.08,880.613 1419.74,885.722 1419.37,890.831 1418.99,895.94 1418.57,901.049 1418.14,906.158 1417.68,911.267 1417.2,916.376 1416.69,921.484 1416.16,926.593 1415.61,931.702 1415.03,936.811 1414.43,941.92 1413.81,947.029 1413.16,952.138 1412.48,957.247 1411.79,962.356 1411.06,967.465 1410.32,972.574 1409.54,977.683 1408.75,982.791 1407.93,987.9 1407.08,993.009 1406.21,998.118 1405.31,1003.23 1404.38,1008.34 1403.43,1013.44 1402.46,1018.55 1401.46,1023.66 1400.43,1028.77 1399.37,1033.88 1398.29,1038.99 1397.18,1044.1 1396.05,1049.21 1394.89,1054.32 1393.69,1059.43 1392.48,1064.53 1391.23,1069.64 1389.96,1074.75 1388.65,1079.86 1387.32,1084.97 1385.96,1090.08 1384.57,1095.19 1383.15,1100.3 1381.7,1105.41 1380.22,1110.51 1378.71,1115.62 1377.16,1120.73 1375.59,1125.84 1373.98,1130.95 1372.35,1136.06 1370.68,1141.17 1368.98,1146.28 1367.24,1151.39 1365.47,1156.49 1363.67,1161.6 1361.83,1166.71 1359.96,1171.82 1358.05,1176.93 1356.11,1182.04 1354.13,1187.15 1352.11,1192.26 1350.06,1197.37 1347.97,1202.47 1345.84,1207.58 1343.67,1212.69 1341.46,1217.8 1339.21,1222.91 1336.92,1228.02 1334.59,1233.13 1332.21,1238.24 1329.8,1243.35 1327.34,1248.45 1324.83,1253.56 1322.28,1258.67 1319.69,1263.78 1317.04,1268.89 1314.35,1274 1311.61,1279.11 1308.82,1284.22 1305.98,1289.33 1303.09,1294.44 1300.14,1299.54 1297.14,1304.65 1294.09,1309.76 1290.98,1314.87 1287.81,1319.98 1284.58,1325.09 1281.3,1330.2 1277.95,1335.31 1274.54,1340.42 1271.06,1345.52 1267.52,1350.63 1263.9,1355.74 1260.22,1360.85 1256.47,1365.96 1252.65,1371.07 1248.74,1376.18 1244.76,1381.29 1240.72,1386.4 "/>
<polyline clip-path="url(#clip982)" style="stroke:#000000; stroke-linecap:round; stroke-linejoin:round; stroke-width:6; stroke-opacity:1; fill:none" stroke-dasharray="24, 15" points="309.539,1386.4 316.624,1386.4 323.709,1386.4 330.793,1386.4 337.878,1386.4 344.963,1386.4 352.047,1386.4 359.132,1386.4 366.217,1386.4 373.301,1386.4 380.386,1386.4 387.471,1386.4 394.555,1386.4 401.64,1386.4 408.725,1386.4 415.809,1386.4 422.894,1386.4 429.979,1386.4 437.063,1386.4 444.148,1386.4 451.233,1386.4 458.317,1386.4 465.402,1386.4 472.487,1386.4 479.571,1386.4 486.656,1386.4 493.741,1386.4 500.825,1386.4 507.91,1386.4 514.995,1386.4 522.079,1386.4 529.164,1386.4 536.248,1386.4 543.333,1386.4 550.418,1386.4 557.502,1386.4 564.587,1386.4 571.672,1386.4 578.756,1386.4 585.841,1386.4 592.926,1386.4 600.01,1386.4 607.095,1386.4 614.18,1386.4 621.264,1386.4 628.349,1386.4 635.434,1386.4 642.518,1386.4 649.603,1386.4 656.688,1386.4 663.772,1386.4 670.857,1386.4 677.942,1386.4 685.026,1386.4 692.111,1386.4 699.196,1386.4 706.28,1386.4 713.365,1386.4 720.45,1386.4 727.534,1386.4 734.619,1386.4 741.704,1386.4 748.788,1386.4 755.873,1386.4 762.958,1386.4 770.042,1386.4 777.127,1386.4 784.212,1386.4 791.296,1386.4 798.381,1386.4 805.466,1386.4 812.55,1386.4 819.635,1386.4 826.72,1386.4 833.804,1386.4 840.889,1386.4 847.974,1386.4 855.058,1386.4 862.143,1386.4 869.228,1386.4 876.312,1386.4 883.397,1386.4 890.482,1386.4 897.566,1386.4 904.651,1386.4 911.736,1386.4 918.82,1386.4 925.905,1386.4 932.99,1386.4 940.074,1386.4 947.159,1386.4 954.244,1386.4 961.328,1386.4 968.413,1386.4 975.498,1386.4 982.582,1386.4 989.667,1386.4 996.752,1386.4 1003.84,1386.4 1010.92,1386.4 1018.01,1386.4 1025.09,1386.4 1032.17,1386.4 1039.26,1386.4 1046.34,1386.4 1053.43,1386.4 1060.51,1386.4 1067.6,1386.4 1074.68,1386.4 1081.77,1386.4 1088.85,1386.4 1095.94,1386.4 1103.02,1386.4 1110.11,1386.4 1117.19,1386.4 1124.28,1386.4 1131.36,1386.4 1138.44,1386.4 1145.53,1386.4 1152.61,1386.4 1159.7,1386.4 1166.78,1386.4 1173.87,1386.4 1180.95,1386.4 1188.04,1386.4 1195.12,1386.4 1202.21,1386.4 1209.29,1386.4 1216.38,1386.4 1223.46,1386.4 1230.55,1386.4 1237.63,1386.4 1244.71,1386.4 1251.8,1386.4 1258.88,1386.4 1265.97,1386.4 1273.05,1386.4 1280.14,1386.4 1287.22,1386.4 1294.31,1386.4 1301.39,1386.4 1308.48,1386.4 1315.56,1386.4 1322.65,1386.4 1329.73,1386.4 1336.82,1386.4 1343.9,1386.4 1350.98,1386.4 1358.07,1386.4 1365.15,1386.4 1372.24,1386.4 1379.32,1386.4 1386.41,1386.4 1393.49,1386.4 1400.58,1386.4 1407.66,1386.4 1414.75,1386.4 1421.83,1386.4 1428.92,1386.4 1436,1386.4 1443.09,1386.4 1450.17,1386.4 1457.25,1386.4 1464.34,1386.4 1471.42,1386.4 1478.51,1386.4 1485.59,1386.4 1492.68,1386.4 1499.76,1386.4 1506.85,1386.4 1513.93,1386.4 1521.02,1386.4 1528.1,1386.4 1535.19,1386.4 1542.27,1386.4 1549.36,1386.4 1556.44,1386.4 1563.52,1386.4 1570.61,1386.4 1577.69,1386.4 1584.78,1386.4 1591.86,1386.4 1598.95,1386.4 1606.03,1386.4 1613.12,1386.4 1620.2,1386.4 1627.29,1386.4 1634.37,1386.4 1641.46,1386.4 1648.54,1386.4 1655.63,1386.4 1662.71,1386.4 1669.79,1386.4 1676.88,1386.4 1683.96,1386.4 1691.05,1386.4 1698.13,1386.4 1705.22,1386.4 1712.3,1386.4 1719.39,1386.4 1726.47,1386.4 1733.56,1386.4 1740.64,1386.4 1747.73,1386.4 1754.81,1386.4 1761.9,1386.4 1768.98,1386.4 1776.06,1386.4 1783.15,1386.4 1790.23,1386.4 1797.32,1386.4 1804.4,1386.4 1811.49,1386.4 1818.57,1386.4 1825.66,1386.4 1832.74,1386.4 1839.83,1386.4 1846.91,1386.4 1854,1386.4 1861.08,1386.4 1868.17,1386.4 1875.25,1386.4 1882.33,1386.4 1889.42,1386.4 1896.5,1386.4 1903.59,1386.4 1910.67,1386.4 1917.76,1386.4 1924.84,1386.4 1931.93,1386.4 1939.01,1386.4 1946.1,1386.4 1953.18,1386.4 1960.27,1386.4 1967.35,1386.4 1974.43,1386.4 1981.52,1386.4 1988.6,1386.4 1995.69,1386.4 2002.77,1386.4 2009.86,1386.4 2016.94,1386.4 2024.03,1386.4 2031.11,1386.4 2038.2,1386.4 2045.28,1386.4 2052.37,1386.4 2059.45,1386.4 2066.54,1386.4 2073.62,1386.4 2080.7,1386.4 2087.79,1386.4 2094.87,1386.4 2101.96,1386.4 2109.04,1386.4 2116.13,1386.4 2123.21,1386.4 2130.3,1386.4 2137.38,1386.4 2144.47,1386.4 2151.55,1386.4 2158.64,1386.4 2165.72,1386.4 2172.81,1386.4 2179.89,1386.4 2186.97,1386.4 2194.06,1386.4 2201.14,1386.4 2208.23,1386.4 2215.31,1386.4 2222.4,1386.4 2229.48,1386.4 2236.57,1386.4 2243.65,1386.4 2250.74,1386.4 2257.82,1386.4 2264.91,1386.4 2271.99,1386.4 2279.08,1386.4 2286.16,1386.4 2293.24,1386.4 "/>
<path clip-path="url(#clip980)" d="M1795.17 322.316 L2282.66 322.316 L2282.66 166.796 L1795.17 166.796  Z" fill="#ffffff" fill-rule="evenodd" fill-opacity="1"/>
<polyline clip-path="url(#clip980)" style="stroke:#000000; stroke-linecap:round; stroke-linejoin:round; stroke-width:4; stroke-opacity:1; fill:none" points="1795.17,322.316 2282.66,322.316 2282.66,166.796 1795.17,166.796 1795.17,322.316 "/>
<polyline clip-path="url(#clip980)" style="stroke:#009af9; stroke-linecap:round; stroke-linejoin:round; stroke-width:10; stroke-opacity:1; fill:none" points="1818.54,218.636 1958.72,218.636 "/>
<path clip-path="url(#clip980)" d="M2000.51 210.754 L2000.51 214.782 Q1998.7 213.856 1996.76 213.393 Q1994.81 212.93 1992.73 212.93 Q1989.56 212.93 1987.96 213.902 Q1986.39 214.874 1986.39 216.819 Q1986.39 218.3 1987.52 219.157 Q1988.65 219.99 1992.08 220.754 L1993.54 221.078 Q1998.08 222.05 1999.97 223.832 Q2001.9 225.592 2001.9 228.763 Q2001.9 232.374 1999.02 234.481 Q1996.18 236.587 1991.18 236.587 Q1989.09 236.587 1986.83 236.17 Q1984.58 235.777 1982.08 234.967 L1982.08 230.569 Q1984.44 231.795 1986.73 232.42 Q1989.03 233.022 1991.27 233.022 Q1994.28 233.022 1995.9 232.004 Q1997.52 230.962 1997.52 229.087 Q1997.52 227.351 1996.34 226.425 Q1995.18 225.499 1991.22 224.643 L1989.74 224.295 Q1985.78 223.462 1984.03 221.749 Q1982.27 220.013 1982.27 217.004 Q1982.27 213.346 1984.86 211.356 Q1987.45 209.365 1992.22 209.365 Q1994.58 209.365 1996.66 209.712 Q1998.75 210.059 2000.51 210.754 Z" fill="#000000" fill-rule="nonzero" fill-opacity="1" /><path clip-path="url(#clip980)" d="M2008.68 209.99 L2012.94 209.99 L2012.94 235.916 L2008.68 235.916 L2008.68 209.99 M2008.68 199.897 L2012.94 199.897 L2012.94 205.291 L2008.68 205.291 L2008.68 199.897 Z" fill="#000000" fill-rule="nonzero" fill-opacity="1" /><path clip-path="url(#clip980)" d="M2038.91 222.652 Q2038.91 218.022 2036.99 215.476 Q2035.09 212.93 2031.64 212.93 Q2028.21 212.93 2026.29 215.476 Q2024.4 218.022 2024.4 222.652 Q2024.4 227.258 2026.29 229.805 Q2028.21 232.351 2031.64 232.351 Q2035.09 232.351 2036.99 229.805 Q2038.91 227.258 2038.91 222.652 M2043.17 232.698 Q2043.17 239.318 2040.23 242.536 Q2037.29 245.777 2031.22 245.777 Q2028.98 245.777 2026.99 245.43 Q2025 245.105 2023.12 244.411 L2023.12 240.268 Q2025 241.286 2026.83 241.772 Q2028.65 242.258 2030.55 242.258 Q2034.74 242.258 2036.83 240.059 Q2038.91 237.883 2038.91 233.462 L2038.91 231.356 Q2037.59 233.647 2035.53 234.781 Q2033.47 235.916 2030.6 235.916 Q2025.83 235.916 2022.91 232.281 Q2020 228.647 2020 222.652 Q2020 216.633 2022.91 212.999 Q2025.83 209.365 2030.6 209.365 Q2033.47 209.365 2035.53 210.499 Q2037.59 211.633 2038.91 213.925 L2038.91 209.99 L2043.17 209.99 L2043.17 232.698 Z" fill="#000000" fill-rule="nonzero" fill-opacity="1" /><path clip-path="url(#clip980)" d="M2072.13 214.967 Q2073.72 212.096 2075.95 210.731 Q2078.17 209.365 2081.18 209.365 Q2085.23 209.365 2087.43 212.212 Q2089.63 215.036 2089.63 220.268 L2089.63 235.916 L2085.34 235.916 L2085.34 220.407 Q2085.34 216.68 2084.02 214.874 Q2082.71 213.069 2080 213.069 Q2076.69 213.069 2074.77 215.268 Q2072.84 217.467 2072.84 221.263 L2072.84 235.916 L2068.56 235.916 L2068.56 220.407 Q2068.56 216.657 2067.24 214.874 Q2065.92 213.069 2063.17 213.069 Q2059.9 213.069 2057.98 215.291 Q2056.06 217.49 2056.06 221.263 L2056.06 235.916 L2051.78 235.916 L2051.78 209.99 L2056.06 209.99 L2056.06 214.018 Q2057.52 211.633 2059.56 210.499 Q2061.59 209.365 2064.39 209.365 Q2067.22 209.365 2069.19 210.8 Q2071.18 212.235 2072.13 214.967 Z" fill="#000000" fill-rule="nonzero" fill-opacity="1" /><path clip-path="url(#clip980)" d="M2109.9 222.883 Q2104.74 222.883 2102.75 224.064 Q2100.76 225.244 2100.76 228.092 Q2100.76 230.36 2102.24 231.703 Q2103.75 233.022 2106.32 233.022 Q2109.86 233.022 2111.99 230.522 Q2114.14 227.999 2114.14 223.832 L2114.14 222.883 L2109.9 222.883 M2118.4 221.124 L2118.4 235.916 L2114.14 235.916 L2114.14 231.981 Q2112.68 234.342 2110.51 235.476 Q2108.33 236.587 2105.18 236.587 Q2101.2 236.587 2098.84 234.365 Q2096.5 232.119 2096.5 228.369 Q2096.5 223.994 2099.42 221.772 Q2102.36 219.55 2108.17 219.55 L2114.14 219.55 L2114.14 219.133 Q2114.14 216.194 2112.2 214.596 Q2110.27 212.976 2106.78 212.976 Q2104.56 212.976 2102.45 213.508 Q2100.34 214.041 2098.4 215.106 L2098.4 211.17 Q2100.74 210.268 2102.94 209.828 Q2105.14 209.365 2107.22 209.365 Q2112.84 209.365 2115.62 212.282 Q2118.4 215.198 2118.4 221.124 Z" fill="#000000" fill-rule="nonzero" fill-opacity="1" /><path clip-path="url(#clip980)" d="M2142.8 212.583 L2142.8 208.37 L2172.47 219.133 L2172.47 222.976 L2142.8 233.74 L2142.8 229.527 L2166.64 221.078 L2142.8 212.583 Z" fill="#000000" fill-rule="nonzero" fill-opacity="1" /><path clip-path="url(#clip980)" d="M2182.52 214.388 L2212.2 214.388 L2212.2 218.277 L2182.52 218.277 L2182.52 214.388 M2182.52 223.832 L2212.2 223.832 L2212.2 227.768 L2182.52 227.768 L2182.52 223.832 Z" fill="#000000" fill-rule="nonzero" fill-opacity="1" /><path clip-path="url(#clip980)" d="M2247.36 204.434 Q2243.75 204.434 2241.92 207.999 Q2240.11 211.541 2240.11 218.67 Q2240.11 225.777 2241.92 229.342 Q2243.75 232.883 2247.36 232.883 Q2250.99 232.883 2252.8 229.342 Q2254.63 225.777 2254.63 218.67 Q2254.63 211.541 2252.8 207.999 Q2250.99 204.434 2247.36 204.434 M2247.36 200.731 Q2253.17 200.731 2256.22 205.337 Q2259.3 209.92 2259.3 218.67 Q2259.3 227.397 2256.22 232.004 Q2253.17 236.587 2247.36 236.587 Q2241.55 236.587 2238.47 232.004 Q2235.41 227.397 2235.41 218.67 Q2235.41 209.92 2238.47 205.337 Q2241.55 200.731 2247.36 200.731 Z" fill="#000000" fill-rule="nonzero" fill-opacity="1" /><polyline clip-path="url(#clip980)" style="stroke:#000000; stroke-linecap:round; stroke-linejoin:round; stroke-width:6; stroke-opacity:1; fill:none" stroke-dasharray="24, 15" points="1818.54,270.476 1958.72,270.476 "/>
<path clip-path="url(#clip980)" d="M2000.51 262.594 L2000.51 266.622 Q1998.7 265.696 1996.76 265.233 Q1994.81 264.77 1992.73 264.77 Q1989.56 264.77 1987.96 265.742 Q1986.39 266.714 1986.39 268.659 Q1986.39 270.14 1987.52 270.997 Q1988.65 271.83 1992.08 272.594 L1993.54 272.918 Q1998.08 273.89 1999.97 275.672 Q2001.9 277.432 2001.9 280.603 Q2001.9 284.214 1999.02 286.321 Q1996.18 288.427 1991.18 288.427 Q1989.09 288.427 1986.83 288.01 Q1984.58 287.617 1982.08 286.807 L1982.08 282.409 Q1984.44 283.635 1986.73 284.26 Q1989.03 284.862 1991.27 284.862 Q1994.28 284.862 1995.9 283.844 Q1997.52 282.802 1997.52 280.927 Q1997.52 279.191 1996.34 278.265 Q1995.18 277.339 1991.22 276.483 L1989.74 276.135 Q1985.78 275.302 1984.03 273.589 Q1982.27 271.853 1982.27 268.844 Q1982.27 265.186 1984.86 263.196 Q1987.45 261.205 1992.22 261.205 Q1994.58 261.205 1996.66 261.552 Q1998.75 261.899 2000.51 262.594 Z" fill="#000000" fill-rule="nonzero" fill-opacity="1" /><path clip-path="url(#clip980)" d="M2008.68 261.83 L2012.94 261.83 L2012.94 287.756 L2008.68 287.756 L2008.68 261.83 M2008.68 251.737 L2012.94 251.737 L2012.94 257.131 L2008.68 257.131 L2008.68 251.737 Z" fill="#000000" fill-rule="nonzero" fill-opacity="1" /><path clip-path="url(#clip980)" d="M2038.91 274.492 Q2038.91 269.862 2036.99 267.316 Q2035.09 264.77 2031.64 264.77 Q2028.21 264.77 2026.29 267.316 Q2024.4 269.862 2024.4 274.492 Q2024.4 279.098 2026.29 281.645 Q2028.21 284.191 2031.64 284.191 Q2035.09 284.191 2036.99 281.645 Q2038.91 279.098 2038.91 274.492 M2043.17 284.538 Q2043.17 291.158 2040.23 294.376 Q2037.29 297.617 2031.22 297.617 Q2028.98 297.617 2026.99 297.27 Q2025 296.945 2023.12 296.251 L2023.12 292.108 Q2025 293.126 2026.83 293.612 Q2028.65 294.098 2030.55 294.098 Q2034.74 294.098 2036.83 291.899 Q2038.91 289.723 2038.91 285.302 L2038.91 283.196 Q2037.59 285.487 2035.53 286.621 Q2033.47 287.756 2030.6 287.756 Q2025.83 287.756 2022.91 284.121 Q2020 280.487 2020 274.492 Q2020 268.473 2022.91 264.839 Q2025.83 261.205 2030.6 261.205 Q2033.47 261.205 2035.53 262.339 Q2037.59 263.473 2038.91 265.765 L2038.91 261.83 L2043.17 261.83 L2043.17 284.538 Z" fill="#000000" fill-rule="nonzero" fill-opacity="1" /><path clip-path="url(#clip980)" d="M2072.13 266.807 Q2073.72 263.936 2075.95 262.571 Q2078.17 261.205 2081.18 261.205 Q2085.23 261.205 2087.43 264.052 Q2089.63 266.876 2089.63 272.108 L2089.63 287.756 L2085.34 287.756 L2085.34 272.247 Q2085.34 268.52 2084.02 266.714 Q2082.71 264.909 2080 264.909 Q2076.69 264.909 2074.77 267.108 Q2072.84 269.307 2072.84 273.103 L2072.84 287.756 L2068.56 287.756 L2068.56 272.247 Q2068.56 268.497 2067.24 266.714 Q2065.92 264.909 2063.17 264.909 Q2059.9 264.909 2057.98 267.131 Q2056.06 269.33 2056.06 273.103 L2056.06 287.756 L2051.78 287.756 L2051.78 261.83 L2056.06 261.83 L2056.06 265.858 Q2057.52 263.473 2059.56 262.339 Q2061.59 261.205 2064.39 261.205 Q2067.22 261.205 2069.19 262.64 Q2071.18 264.075 2072.13 266.807 Z" fill="#000000" fill-rule="nonzero" fill-opacity="1" /><path clip-path="url(#clip980)" d="M2109.9 274.723 Q2104.74 274.723 2102.75 275.904 Q2100.76 277.084 2100.76 279.932 Q2100.76 282.2 2102.24 283.543 Q2103.75 284.862 2106.32 284.862 Q2109.86 284.862 2111.99 282.362 Q2114.14 279.839 2114.14 275.672 L2114.14 274.723 L2109.9 274.723 M2118.4 272.964 L2118.4 287.756 L2114.14 287.756 L2114.14 283.821 Q2112.68 286.182 2110.51 287.316 Q2108.33 288.427 2105.18 288.427 Q2101.2 288.427 2098.84 286.205 Q2096.5 283.959 2096.5 280.209 Q2096.5 275.834 2099.42 273.612 Q2102.36 271.39 2108.17 271.39 L2114.14 271.39 L2114.14 270.973 Q2114.14 268.034 2112.2 266.436 Q2110.27 264.816 2106.78 264.816 Q2104.56 264.816 2102.45 265.348 Q2100.34 265.881 2098.4 266.946 L2098.4 263.01 Q2100.74 262.108 2102.94 261.668 Q2105.14 261.205 2107.22 261.205 Q2112.84 261.205 2115.62 264.122 Q2118.4 267.038 2118.4 272.964 Z" fill="#000000" fill-rule="nonzero" fill-opacity="1" /><path clip-path="url(#clip980)" d="M2142.8 266.228 L2172.47 266.228 L2172.47 270.117 L2142.8 270.117 L2142.8 266.228 M2142.8 275.672 L2172.47 275.672 L2172.47 279.608 L2142.8 279.608 L2142.8 275.672 Z" fill="#000000" fill-rule="nonzero" fill-opacity="1" /><path clip-path="url(#clip980)" d="M2207.63 256.274 Q2204.02 256.274 2202.2 259.839 Q2200.39 263.381 2200.39 270.51 Q2200.39 277.617 2202.2 281.182 Q2204.02 284.723 2207.63 284.723 Q2211.27 284.723 2213.07 281.182 Q2214.9 277.617 2214.9 270.51 Q2214.9 263.381 2213.07 259.839 Q2211.27 256.274 2207.63 256.274 M2207.63 252.571 Q2213.45 252.571 2216.5 257.177 Q2219.58 261.76 2219.58 270.51 Q2219.58 279.237 2216.5 283.844 Q2213.45 288.427 2207.63 288.427 Q2201.82 288.427 2198.75 283.844 Q2195.69 279.237 2195.69 270.51 Q2195.69 261.76 2198.75 257.177 Q2201.82 252.571 2207.63 252.571 Z" fill="#000000" fill-rule="nonzero" fill-opacity="1" /></svg>
