<?xml version="1.0" encoding="utf-8"?>
<svg xmlns="http://www.w3.org/2000/svg" xmlns:xlink="http://www.w3.org/1999/xlink" width="600" height="400" viewBox="0 0 2400 1600">
<defs>
  <clipPath id="clip480">
    <rect x="0" y="0" width="2400" height="1600"/>
  </clipPath>
</defs>
<path clip-path="url(#clip480)" d="M0 1600 L2400 1600 L2400 0 L0 0  Z" fill="#ffffff" fill-rule="evenodd" fill-opacity="1"/>
<defs>
  <clipPath id="clip481">
    <rect x="249" y="123" width="2104" height="1301"/>
  </clipPath>
</defs>
<path clip-path="url(#clip480)" d="M279.704 1423.18 L2352.76 1423.18 L2352.76 123.472 L279.704 123.472  Z" fill="#ffffff" fill-rule="evenodd" fill-opacity="1"/>
<defs>
  <clipPath id="clip482">
    <rect x="279" y="123" width="2074" height="1301"/>
  </clipPath>
</defs>
<polyline clip-path="url(#clip482)" style="stroke:#000000; stroke-linecap:round; stroke-linejoin:round; stroke-width:2; stroke-opacity:0.1; fill:none" points="547.915,1423.18 547.915,123.472 "/>
<polyline clip-path="url(#clip482)" style="stroke:#000000; stroke-linecap:round; stroke-linejoin:round; stroke-width:2; stroke-opacity:0.1; fill:none" points="897.149,1423.18 897.149,123.472 "/>
<polyline clip-path="url(#clip482)" style="stroke:#000000; stroke-linecap:round; stroke-linejoin:round; stroke-width:2; stroke-opacity:0.1; fill:none" points="1246.38,1423.18 1246.38,123.472 "/>
<polyline clip-path="url(#clip482)" style="stroke:#000000; stroke-linecap:round; stroke-linejoin:round; stroke-width:2; stroke-opacity:0.1; fill:none" points="1595.62,1423.18 1595.62,123.472 "/>
<polyline clip-path="url(#clip482)" style="stroke:#000000; stroke-linecap:round; stroke-linejoin:round; stroke-width:2; stroke-opacity:0.1; fill:none" points="1944.85,1423.18 1944.85,123.472 "/>
<polyline clip-path="url(#clip482)" style="stroke:#000000; stroke-linecap:round; stroke-linejoin:round; stroke-width:2; stroke-opacity:0.1; fill:none" points="2294.08,1423.18 2294.08,123.472 "/>
<polyline clip-path="url(#clip482)" style="stroke:#000000; stroke-linecap:round; stroke-linejoin:round; stroke-width:2; stroke-opacity:0.1; fill:none" points="279.704,1294.53 2352.76,1294.53 "/>
<polyline clip-path="url(#clip482)" style="stroke:#000000; stroke-linecap:round; stroke-linejoin:round; stroke-width:2; stroke-opacity:0.1; fill:none" points="279.704,1115.69 2352.76,1115.69 "/>
<polyline clip-path="url(#clip482)" style="stroke:#000000; stroke-linecap:round; stroke-linejoin:round; stroke-width:2; stroke-opacity:0.1; fill:none" points="279.704,936.852 2352.76,936.852 "/>
<polyline clip-path="url(#clip482)" style="stroke:#000000; stroke-linecap:round; stroke-linejoin:round; stroke-width:2; stroke-opacity:0.1; fill:none" points="279.704,758.014 2352.76,758.014 "/>
<polyline clip-path="url(#clip482)" style="stroke:#000000; stroke-linecap:round; stroke-linejoin:round; stroke-width:2; stroke-opacity:0.1; fill:none" points="279.704,579.175 2352.76,579.175 "/>
<polyline clip-path="url(#clip482)" style="stroke:#000000; stroke-linecap:round; stroke-linejoin:round; stroke-width:2; stroke-opacity:0.1; fill:none" points="279.704,400.336 2352.76,400.336 "/>
<polyline clip-path="url(#clip482)" style="stroke:#000000; stroke-linecap:round; stroke-linejoin:round; stroke-width:2; stroke-opacity:0.1; fill:none" points="279.704,221.498 2352.76,221.498 "/>
<polyline clip-path="url(#clip480)" style="stroke:#000000; stroke-linecap:round; stroke-linejoin:round; stroke-width:4; stroke-opacity:1; fill:none" points="279.704,1423.18 2352.76,1423.18 "/>
<polyline clip-path="url(#clip480)" style="stroke:#000000; stroke-linecap:round; stroke-linejoin:round; stroke-width:4; stroke-opacity:1; fill:none" points="547.915,1423.18 547.915,1404.28 "/>
<polyline clip-path="url(#clip480)" style="stroke:#000000; stroke-linecap:round; stroke-linejoin:round; stroke-width:4; stroke-opacity:1; fill:none" points="897.149,1423.18 897.149,1404.28 "/>
<polyline clip-path="url(#clip480)" style="stroke:#000000; stroke-linecap:round; stroke-linejoin:round; stroke-width:4; stroke-opacity:1; fill:none" points="1246.38,1423.18 1246.38,1404.28 "/>
<polyline clip-path="url(#clip480)" style="stroke:#000000; stroke-linecap:round; stroke-linejoin:round; stroke-width:4; stroke-opacity:1; fill:none" points="1595.62,1423.18 1595.62,1404.28 "/>
<polyline clip-path="url(#clip480)" style="stroke:#000000; stroke-linecap:round; stroke-linejoin:round; stroke-width:4; stroke-opacity:1; fill:none" points="1944.85,1423.18 1944.85,1404.28 "/>
<polyline clip-path="url(#clip480)" style="stroke:#000000; stroke-linecap:round; stroke-linejoin:round; stroke-width:4; stroke-opacity:1; fill:none" points="2294.08,1423.18 2294.08,1404.28 "/>
<path clip-path="url(#clip480)" d="M522.615 1451.02 L540.971 1451.02 L540.971 1454.96 L526.897 1454.96 L526.897 1463.43 Q527.916 1463.08 528.934 1462.92 Q529.953 1462.73 530.971 1462.73 Q536.758 1462.73 540.138 1465.9 Q543.517 1469.08 543.517 1474.49 Q543.517 1480.07 540.045 1483.17 Q536.573 1486.25 530.254 1486.25 Q528.078 1486.25 525.809 1485.88 Q523.564 1485.51 521.156 1484.77 L521.156 1480.07 Q523.24 1481.2 525.462 1481.76 Q527.684 1482.32 530.161 1482.32 Q534.166 1482.32 536.504 1480.21 Q538.841 1478.1 538.841 1474.49 Q538.841 1470.88 536.504 1468.77 Q534.166 1466.67 530.161 1466.67 Q528.286 1466.67 526.411 1467.08 Q524.559 1467.5 522.615 1468.38 L522.615 1451.02 Z" fill="#000000" fill-rule="nonzero" fill-opacity="1" /><path clip-path="url(#clip480)" d="M562.73 1454.1 Q559.119 1454.1 557.29 1457.66 Q555.485 1461.2 555.485 1468.33 Q555.485 1475.44 557.29 1479.01 Q559.119 1482.55 562.73 1482.55 Q566.364 1482.55 568.17 1479.01 Q569.999 1475.44 569.999 1468.33 Q569.999 1461.2 568.17 1457.66 Q566.364 1454.1 562.73 1454.1 M562.73 1450.39 Q568.54 1450.39 571.596 1455 Q574.675 1459.58 574.675 1468.33 Q574.675 1477.06 571.596 1481.67 Q568.54 1486.25 562.73 1486.25 Q556.92 1486.25 553.841 1481.67 Q550.786 1477.06 550.786 1468.33 Q550.786 1459.58 553.841 1455 Q556.92 1450.39 562.73 1450.39 Z" fill="#000000" fill-rule="nonzero" fill-opacity="1" /><path clip-path="url(#clip480)" d="M856.756 1481.64 L864.395 1481.64 L864.395 1455.28 L856.085 1456.95 L856.085 1452.69 L864.349 1451.02 L869.024 1451.02 L869.024 1481.64 L876.663 1481.64 L876.663 1485.58 L856.756 1485.58 L856.756 1481.64 Z" fill="#000000" fill-rule="nonzero" fill-opacity="1" /><path clip-path="url(#clip480)" d="M896.108 1454.1 Q892.497 1454.1 890.668 1457.66 Q888.862 1461.2 888.862 1468.33 Q888.862 1475.44 890.668 1479.01 Q892.497 1482.55 896.108 1482.55 Q899.742 1482.55 901.547 1479.01 Q903.376 1475.44 903.376 1468.33 Q903.376 1461.2 901.547 1457.66 Q899.742 1454.1 896.108 1454.1 M896.108 1450.39 Q901.918 1450.39 904.973 1455 Q908.052 1459.58 908.052 1468.33 Q908.052 1477.06 904.973 1481.67 Q901.918 1486.25 896.108 1486.25 Q890.297 1486.25 887.219 1481.67 Q884.163 1477.06 884.163 1468.33 Q884.163 1459.58 887.219 1455 Q890.297 1450.39 896.108 1450.39 Z" fill="#000000" fill-rule="nonzero" fill-opacity="1" /><path clip-path="url(#clip480)" d="M926.27 1454.1 Q922.658 1454.1 920.83 1457.66 Q919.024 1461.2 919.024 1468.33 Q919.024 1475.44 920.83 1479.01 Q922.658 1482.55 926.27 1482.55 Q929.904 1482.55 931.709 1479.01 Q933.538 1475.44 933.538 1468.33 Q933.538 1461.2 931.709 1457.66 Q929.904 1454.1 926.27 1454.1 M926.27 1450.39 Q932.08 1450.39 935.135 1455 Q938.214 1459.58 938.214 1468.33 Q938.214 1477.06 935.135 1481.67 Q932.08 1486.25 926.27 1486.25 Q920.459 1486.25 917.381 1481.67 Q914.325 1477.06 914.325 1468.33 Q914.325 1459.58 917.381 1455 Q920.459 1450.39 926.27 1450.39 Z" fill="#000000" fill-rule="nonzero" fill-opacity="1" /><path clip-path="url(#clip480)" d="M1205.99 1481.64 L1213.63 1481.64 L1213.63 1455.28 L1205.32 1456.95 L1205.32 1452.69 L1213.58 1451.02 L1218.26 1451.02 L1218.26 1481.64 L1225.9 1481.64 L1225.9 1485.58 L1205.99 1485.58 L1205.99 1481.64 Z" fill="#000000" fill-rule="nonzero" fill-opacity="1" /><path clip-path="url(#clip480)" d="M1235.39 1451.02 L1253.74 1451.02 L1253.74 1454.96 L1239.67 1454.96 L1239.67 1463.43 Q1240.69 1463.08 1241.71 1462.92 Q1242.73 1462.73 1243.74 1462.73 Q1249.53 1462.73 1252.91 1465.9 Q1256.29 1469.08 1256.29 1474.49 Q1256.29 1480.07 1252.82 1483.17 Q1249.35 1486.25 1243.03 1486.25 Q1240.85 1486.25 1238.58 1485.88 Q1236.34 1485.51 1233.93 1484.77 L1233.93 1480.07 Q1236.01 1481.2 1238.24 1481.76 Q1240.46 1482.32 1242.93 1482.32 Q1246.94 1482.32 1249.28 1480.21 Q1251.61 1478.1 1251.61 1474.49 Q1251.61 1470.88 1249.28 1468.77 Q1246.94 1466.67 1242.93 1466.67 Q1241.06 1466.67 1239.18 1467.08 Q1237.33 1467.5 1235.39 1468.38 L1235.39 1451.02 Z" fill="#000000" fill-rule="nonzero" fill-opacity="1" /><path clip-path="url(#clip480)" d="M1275.5 1454.1 Q1271.89 1454.1 1270.06 1457.66 Q1268.26 1461.2 1268.26 1468.33 Q1268.26 1475.44 1270.06 1479.01 Q1271.89 1482.55 1275.5 1482.55 Q1279.14 1482.55 1280.94 1479.01 Q1282.77 1475.44 1282.77 1468.33 Q1282.77 1461.2 1280.94 1457.66 Q1279.14 1454.1 1275.5 1454.1 M1275.5 1450.39 Q1281.31 1450.39 1284.37 1455 Q1287.45 1459.58 1287.45 1468.33 Q1287.45 1477.06 1284.37 1481.67 Q1281.31 1486.25 1275.5 1486.25 Q1269.69 1486.25 1266.61 1481.67 Q1263.56 1477.06 1263.56 1468.33 Q1263.56 1459.58 1266.61 1455 Q1269.69 1450.39 1275.5 1450.39 Z" fill="#000000" fill-rule="nonzero" fill-opacity="1" /><path clip-path="url(#clip480)" d="M1559.31 1481.64 L1575.63 1481.64 L1575.63 1485.58 L1553.68 1485.58 L1553.68 1481.64 Q1556.35 1478.89 1560.93 1474.26 Q1565.54 1469.61 1566.72 1468.27 Q1568.96 1465.74 1569.84 1464.01 Q1570.74 1462.25 1570.74 1460.56 Q1570.74 1457.8 1568.8 1456.07 Q1566.88 1454.33 1563.78 1454.33 Q1561.58 1454.33 1559.12 1455.09 Q1556.69 1455.86 1553.92 1457.41 L1553.92 1452.69 Q1556.74 1451.55 1559.19 1450.97 Q1561.65 1450.39 1563.68 1450.39 Q1569.05 1450.39 1572.25 1453.08 Q1575.44 1455.77 1575.44 1460.26 Q1575.44 1462.39 1574.63 1464.31 Q1573.85 1466.2 1571.74 1468.8 Q1571.16 1469.47 1568.06 1472.69 Q1564.96 1475.88 1559.31 1481.64 Z" fill="#000000" fill-rule="nonzero" fill-opacity="1" /><path clip-path="url(#clip480)" d="M1595.44 1454.1 Q1591.83 1454.1 1590 1457.66 Q1588.2 1461.2 1588.2 1468.33 Q1588.2 1475.44 1590 1479.01 Q1591.83 1482.55 1595.44 1482.55 Q1599.08 1482.55 1600.88 1479.01 Q1602.71 1475.44 1602.71 1468.33 Q1602.71 1461.2 1600.88 1457.66 Q1599.08 1454.1 1595.44 1454.1 M1595.44 1450.39 Q1601.25 1450.39 1604.31 1455 Q1607.39 1459.58 1607.39 1468.33 Q1607.39 1477.06 1604.31 1481.67 Q1601.25 1486.25 1595.44 1486.25 Q1589.63 1486.25 1586.55 1481.67 Q1583.5 1477.06 1583.5 1468.33 Q1583.5 1459.58 1586.55 1455 Q1589.63 1450.39 1595.44 1450.39 Z" fill="#000000" fill-rule="nonzero" fill-opacity="1" /><path clip-path="url(#clip480)" d="M1625.61 1454.1 Q1621.99 1454.1 1620.17 1457.66 Q1618.36 1461.2 1618.36 1468.33 Q1618.36 1475.44 1620.17 1479.01 Q1621.99 1482.55 1625.61 1482.55 Q1629.24 1482.55 1631.05 1479.01 Q1632.87 1475.44 1632.87 1468.33 Q1632.87 1461.2 1631.05 1457.66 Q1629.24 1454.1 1625.61 1454.1 M1625.61 1450.39 Q1631.42 1450.39 1634.47 1455 Q1637.55 1459.58 1637.55 1468.33 Q1637.55 1477.06 1634.47 1481.67 Q1631.42 1486.25 1625.61 1486.25 Q1619.8 1486.25 1616.72 1481.67 Q1613.66 1477.06 1613.66 1468.33 Q1613.66 1459.58 1616.72 1455 Q1619.8 1450.39 1625.61 1450.39 Z" fill="#000000" fill-rule="nonzero" fill-opacity="1" /><path clip-path="url(#clip480)" d="M1908.54 1481.64 L1924.86 1481.64 L1924.86 1485.58 L1902.92 1485.58 L1902.92 1481.64 Q1905.58 1478.89 1910.16 1474.26 Q1914.77 1469.61 1915.95 1468.27 Q1918.2 1465.74 1919.08 1464.01 Q1919.98 1462.25 1919.98 1460.56 Q1919.98 1457.8 1918.03 1456.07 Q1916.11 1454.33 1913.01 1454.33 Q1910.81 1454.33 1908.36 1455.09 Q1905.93 1455.86 1903.15 1457.41 L1903.15 1452.69 Q1905.97 1451.55 1908.43 1450.97 Q1910.88 1450.39 1912.92 1450.39 Q1918.29 1450.39 1921.48 1453.08 Q1924.68 1455.77 1924.68 1460.26 Q1924.68 1462.39 1923.87 1464.31 Q1923.08 1466.2 1920.97 1468.8 Q1920.39 1469.47 1917.29 1472.69 Q1914.19 1475.88 1908.54 1481.64 Z" fill="#000000" fill-rule="nonzero" fill-opacity="1" /><path clip-path="url(#clip480)" d="M1934.72 1451.02 L1953.08 1451.02 L1953.08 1454.96 L1939.01 1454.96 L1939.01 1463.43 Q1940.02 1463.08 1941.04 1462.92 Q1942.06 1462.73 1943.08 1462.73 Q1948.87 1462.73 1952.25 1465.9 Q1955.63 1469.08 1955.63 1474.49 Q1955.63 1480.07 1952.15 1483.17 Q1948.68 1486.25 1942.36 1486.25 Q1940.19 1486.25 1937.92 1485.88 Q1935.67 1485.51 1933.27 1484.77 L1933.27 1480.07 Q1935.35 1481.2 1937.57 1481.76 Q1939.79 1482.32 1942.27 1482.32 Q1946.27 1482.32 1948.61 1480.21 Q1950.95 1478.1 1950.95 1474.49 Q1950.95 1470.88 1948.61 1468.77 Q1946.27 1466.67 1942.27 1466.67 Q1940.39 1466.67 1938.52 1467.08 Q1936.67 1467.5 1934.72 1468.38 L1934.72 1451.02 Z" fill="#000000" fill-rule="nonzero" fill-opacity="1" /><path clip-path="url(#clip480)" d="M1974.84 1454.1 Q1971.23 1454.1 1969.4 1457.66 Q1967.59 1461.2 1967.59 1468.33 Q1967.59 1475.44 1969.4 1479.01 Q1971.23 1482.55 1974.84 1482.55 Q1978.47 1482.55 1980.28 1479.01 Q1982.11 1475.44 1982.11 1468.33 Q1982.11 1461.2 1980.28 1457.66 Q1978.47 1454.1 1974.84 1454.1 M1974.84 1450.39 Q1980.65 1450.39 1983.7 1455 Q1986.78 1459.58 1986.78 1468.33 Q1986.78 1477.06 1983.7 1481.67 Q1980.65 1486.25 1974.84 1486.25 Q1969.03 1486.25 1965.95 1481.67 Q1962.89 1477.06 1962.89 1468.33 Q1962.89 1459.58 1965.95 1455 Q1969.03 1450.39 1974.84 1450.39 Z" fill="#000000" fill-rule="nonzero" fill-opacity="1" /><path clip-path="url(#clip480)" d="M2267.85 1466.95 Q2271.2 1467.66 2273.08 1469.93 Q2274.98 1472.2 2274.98 1475.53 Q2274.98 1480.65 2271.46 1483.45 Q2267.94 1486.25 2261.46 1486.25 Q2259.28 1486.25 2256.97 1485.81 Q2254.68 1485.39 2252.22 1484.54 L2252.22 1480.02 Q2254.17 1481.16 2256.48 1481.74 Q2258.8 1482.32 2261.32 1482.32 Q2265.72 1482.32 2268.01 1480.58 Q2270.32 1478.84 2270.32 1475.53 Q2270.32 1472.48 2268.17 1470.77 Q2266.04 1469.03 2262.22 1469.03 L2258.19 1469.03 L2258.19 1465.19 L2262.41 1465.19 Q2265.86 1465.19 2267.68 1463.82 Q2269.51 1462.43 2269.51 1459.84 Q2269.51 1457.18 2267.61 1455.77 Q2265.74 1454.33 2262.22 1454.33 Q2260.3 1454.33 2258.1 1454.75 Q2255.9 1455.16 2253.26 1456.04 L2253.26 1451.88 Q2255.93 1451.14 2258.24 1450.77 Q2260.58 1450.39 2262.64 1450.39 Q2267.96 1450.39 2271.06 1452.83 Q2274.17 1455.23 2274.17 1459.35 Q2274.17 1462.22 2272.52 1464.21 Q2270.88 1466.18 2267.85 1466.95 Z" fill="#000000" fill-rule="nonzero" fill-opacity="1" /><path clip-path="url(#clip480)" d="M2293.84 1454.1 Q2290.23 1454.1 2288.4 1457.66 Q2286.6 1461.2 2286.6 1468.33 Q2286.6 1475.44 2288.4 1479.01 Q2290.23 1482.55 2293.84 1482.55 Q2297.48 1482.55 2299.28 1479.01 Q2301.11 1475.44 2301.11 1468.33 Q2301.11 1461.2 2299.28 1457.66 Q2297.48 1454.1 2293.84 1454.1 M2293.84 1450.39 Q2299.65 1450.39 2302.71 1455 Q2305.79 1459.58 2305.79 1468.33 Q2305.79 1477.06 2302.71 1481.67 Q2299.65 1486.25 2293.84 1486.25 Q2288.03 1486.25 2284.95 1481.67 Q2281.9 1477.06 2281.9 1468.33 Q2281.9 1459.58 2284.95 1455 Q2288.03 1450.39 2293.84 1450.39 Z" fill="#000000" fill-rule="nonzero" fill-opacity="1" /><path clip-path="url(#clip480)" d="M2324 1454.1 Q2320.39 1454.1 2318.56 1457.66 Q2316.76 1461.2 2316.76 1468.33 Q2316.76 1475.44 2318.56 1479.01 Q2320.39 1482.55 2324 1482.55 Q2327.64 1482.55 2329.44 1479.01 Q2331.27 1475.44 2331.27 1468.33 Q2331.27 1461.2 2329.44 1457.66 Q2327.64 1454.1 2324 1454.1 M2324 1450.39 Q2329.81 1450.39 2332.87 1455 Q2335.95 1459.58 2335.95 1468.33 Q2335.95 1477.06 2332.87 1481.67 Q2329.81 1486.25 2324 1486.25 Q2318.19 1486.25 2315.11 1481.67 Q2312.06 1477.06 2312.06 1468.33 Q2312.06 1459.58 2315.11 1455 Q2318.19 1450.39 2324 1450.39 Z" fill="#000000" fill-rule="nonzero" fill-opacity="1" /><path clip-path="url(#clip480)" d="M1192.77 1520.52 L1232.97 1520.52 L1232.97 1525.93 L1216.1 1525.93 L1216.1 1568.04 L1209.64 1568.04 L1209.64 1525.93 L1192.77 1525.93 L1192.77 1520.52 Z" fill="#000000" fill-rule="nonzero" fill-opacity="1" /><path clip-path="url(#clip480)" d="M1259.1 1518.52 L1272.59 1518.52 L1272.59 1523.07 L1264.95 1523.07 L1264.95 1572.09 L1272.59 1572.09 L1272.59 1576.64 L1259.1 1576.64 L1259.1 1518.52 Z" fill="#000000" fill-rule="nonzero" fill-opacity="1" /><path clip-path="url(#clip480)" d="M1285.32 1520.52 L1294.9 1520.52 L1307.03 1552.86 L1319.22 1520.52 L1328.8 1520.52 L1328.8 1568.04 L1322.53 1568.04 L1322.53 1526.32 L1310.28 1558.91 L1303.82 1558.91 L1291.56 1526.32 L1291.56 1568.04 L1285.32 1568.04 L1285.32 1520.52 Z" fill="#000000" fill-rule="nonzero" fill-opacity="1" /><path clip-path="url(#clip480)" d="M1371.8 1548.76 L1371.8 1551.62 L1344.88 1551.62 Q1345.26 1557.67 1348.5 1560.85 Q1351.78 1564 1357.61 1564 Q1360.98 1564 1364.13 1563.17 Q1367.31 1562.35 1370.43 1560.69 L1370.43 1566.23 Q1367.28 1567.57 1363.97 1568.27 Q1360.66 1568.97 1357.26 1568.97 Q1348.73 1568.97 1343.73 1564 Q1338.76 1559.04 1338.76 1550.57 Q1338.76 1541.82 1343.48 1536.69 Q1348.22 1531.54 1356.24 1531.54 Q1363.43 1531.54 1367.6 1536.18 Q1371.8 1540.8 1371.8 1548.76 M1365.95 1547.04 Q1365.88 1542.23 1363.24 1539.37 Q1360.63 1536.5 1356.3 1536.5 Q1351.4 1536.5 1348.44 1539.27 Q1345.51 1542.04 1345.07 1547.07 L1365.95 1547.04 Z" fill="#000000" fill-rule="nonzero" fill-opacity="1" /><path clip-path="url(#clip480)" d="M1393.92 1568.04 L1375.78 1520.52 L1382.5 1520.52 L1397.55 1560.53 L1412.64 1520.52 L1419.32 1520.52 L1401.21 1568.04 L1393.92 1568.04 Z" fill="#000000" fill-rule="nonzero" fill-opacity="1" /><path clip-path="url(#clip480)" d="M1439.69 1518.52 L1439.69 1576.64 L1426.2 1576.64 L1426.2 1572.09 L1433.8 1572.09 L1433.8 1523.07 L1426.2 1523.07 L1426.2 1518.52 L1439.69 1518.52 Z" fill="#000000" fill-rule="nonzero" fill-opacity="1" /><polyline clip-path="url(#clip480)" style="stroke:#000000; stroke-linecap:round; stroke-linejoin:round; stroke-width:4; stroke-opacity:1; fill:none" points="279.704,1423.18 279.704,123.472 "/>
<polyline clip-path="url(#clip480)" style="stroke:#000000; stroke-linecap:round; stroke-linejoin:round; stroke-width:4; stroke-opacity:1; fill:none" points="279.704,1294.53 298.602,1294.53 "/>
<polyline clip-path="url(#clip480)" style="stroke:#000000; stroke-linecap:round; stroke-linejoin:round; stroke-width:4; stroke-opacity:1; fill:none" points="279.704,1115.69 298.602,1115.69 "/>
<polyline clip-path="url(#clip480)" style="stroke:#000000; stroke-linecap:round; stroke-linejoin:round; stroke-width:4; stroke-opacity:1; fill:none" points="279.704,936.852 298.602,936.852 "/>
<polyline clip-path="url(#clip480)" style="stroke:#000000; stroke-linecap:round; stroke-linejoin:round; stroke-width:4; stroke-opacity:1; fill:none" points="279.704,758.014 298.602,758.014 "/>
<polyline clip-path="url(#clip480)" style="stroke:#000000; stroke-linecap:round; stroke-linejoin:round; stroke-width:4; stroke-opacity:1; fill:none" points="279.704,579.175 298.602,579.175 "/>
<polyline clip-path="url(#clip480)" style="stroke:#000000; stroke-linecap:round; stroke-linejoin:round; stroke-width:4; stroke-opacity:1; fill:none" points="279.704,400.336 298.602,400.336 "/>
<polyline clip-path="url(#clip480)" style="stroke:#000000; stroke-linecap:round; stroke-linejoin:round; stroke-width:4; stroke-opacity:1; fill:none" points="279.704,221.498 298.602,221.498 "/>
<path clip-path="url(#clip480)" d="M127.2 1280.33 Q123.589 1280.33 121.76 1283.89 Q119.955 1287.43 119.955 1294.56 Q119.955 1301.67 121.76 1305.24 Q123.589 1308.78 127.2 1308.78 Q130.834 1308.78 132.64 1305.24 Q134.468 1301.67 134.468 1294.56 Q134.468 1287.43 132.64 1283.89 Q130.834 1280.33 127.2 1280.33 M127.2 1276.62 Q133.01 1276.62 136.066 1281.23 Q139.144 1285.81 139.144 1294.56 Q139.144 1303.29 136.066 1307.9 Q133.01 1312.48 127.2 1312.48 Q121.39 1312.48 118.311 1307.9 Q115.256 1303.29 115.256 1294.56 Q115.256 1285.81 118.311 1281.23 Q121.39 1276.62 127.2 1276.62 Z" fill="#000000" fill-rule="nonzero" fill-opacity="1" /><path clip-path="url(#clip480)" d="M147.362 1305.93 L152.246 1305.93 L152.246 1311.81 L147.362 1311.81 L147.362 1305.93 Z" fill="#000000" fill-rule="nonzero" fill-opacity="1" /><path clip-path="url(#clip480)" d="M172.431 1280.33 Q168.82 1280.33 166.991 1283.89 Q165.186 1287.43 165.186 1294.56 Q165.186 1301.67 166.991 1305.24 Q168.82 1308.78 172.431 1308.78 Q176.065 1308.78 177.871 1305.24 Q179.7 1301.67 179.7 1294.56 Q179.7 1287.43 177.871 1283.89 Q176.065 1280.33 172.431 1280.33 M172.431 1276.62 Q178.241 1276.62 181.297 1281.23 Q184.376 1285.81 184.376 1294.56 Q184.376 1303.29 181.297 1307.9 Q178.241 1312.48 172.431 1312.48 Q166.621 1312.48 163.542 1307.9 Q160.487 1303.29 160.487 1294.56 Q160.487 1285.81 163.542 1281.23 Q166.621 1276.62 172.431 1276.62 Z" fill="#000000" fill-rule="nonzero" fill-opacity="1" /><path clip-path="url(#clip480)" d="M202.593 1280.33 Q198.982 1280.33 197.153 1283.89 Q195.348 1287.43 195.348 1294.56 Q195.348 1301.67 197.153 1305.24 Q198.982 1308.78 202.593 1308.78 Q206.227 1308.78 208.033 1305.24 Q209.861 1301.67 209.861 1294.56 Q209.861 1287.43 208.033 1283.89 Q206.227 1280.33 202.593 1280.33 M202.593 1276.62 Q208.403 1276.62 211.459 1281.23 Q214.537 1285.81 214.537 1294.56 Q214.537 1303.29 211.459 1307.9 Q208.403 1312.48 202.593 1312.48 Q196.783 1312.48 193.704 1307.9 Q190.649 1303.29 190.649 1294.56 Q190.649 1285.81 193.704 1281.23 Q196.783 1276.62 202.593 1276.62 Z" fill="#000000" fill-rule="nonzero" fill-opacity="1" /><path clip-path="url(#clip480)" d="M222.801 1277.25 L241.158 1277.25 L241.158 1281.18 L227.084 1281.18 L227.084 1289.66 Q228.102 1289.31 229.121 1289.15 Q230.139 1288.96 231.158 1288.96 Q236.945 1288.96 240.324 1292.13 Q243.704 1295.3 243.704 1300.72 Q243.704 1306.3 240.232 1309.4 Q236.76 1312.48 230.44 1312.48 Q228.264 1312.48 225.996 1312.11 Q223.75 1311.74 221.343 1311 L221.343 1306.3 Q223.426 1307.43 225.648 1307.99 Q227.871 1308.55 230.347 1308.55 Q234.352 1308.55 236.69 1306.44 Q239.028 1304.33 239.028 1300.72 Q239.028 1297.11 236.69 1295 Q234.352 1292.9 230.347 1292.9 Q228.473 1292.9 226.598 1293.31 Q224.746 1293.73 222.801 1294.61 L222.801 1277.25 Z" fill="#000000" fill-rule="nonzero" fill-opacity="1" /><path clip-path="url(#clip480)" d="M126.205 1101.49 Q122.593 1101.49 120.765 1105.05 Q118.959 1108.6 118.959 1115.73 Q118.959 1122.83 120.765 1126.4 Q122.593 1129.94 126.205 1129.94 Q129.839 1129.94 131.644 1126.4 Q133.473 1122.83 133.473 1115.73 Q133.473 1108.6 131.644 1105.05 Q129.839 1101.49 126.205 1101.49 M126.205 1097.79 Q132.015 1097.79 135.07 1102.39 Q138.149 1106.98 138.149 1115.73 Q138.149 1124.45 135.07 1129.06 Q132.015 1133.64 126.205 1133.64 Q120.394 1133.64 117.316 1129.06 Q114.26 1124.45 114.26 1115.73 Q114.26 1106.98 117.316 1102.39 Q120.394 1097.79 126.205 1097.79 Z" fill="#000000" fill-rule="nonzero" fill-opacity="1" /><path clip-path="url(#clip480)" d="M146.366 1127.09 L151.251 1127.09 L151.251 1132.97 L146.366 1132.97 L146.366 1127.09 Z" fill="#000000" fill-rule="nonzero" fill-opacity="1" /><path clip-path="url(#clip480)" d="M171.436 1101.49 Q167.825 1101.49 165.996 1105.05 Q164.19 1108.6 164.19 1115.73 Q164.19 1122.83 165.996 1126.4 Q167.825 1129.94 171.436 1129.94 Q175.07 1129.94 176.876 1126.4 Q178.704 1122.83 178.704 1115.73 Q178.704 1108.6 176.876 1105.05 Q175.07 1101.49 171.436 1101.49 M171.436 1097.79 Q177.246 1097.79 180.301 1102.39 Q183.38 1106.98 183.38 1115.73 Q183.38 1124.45 180.301 1129.06 Q177.246 1133.64 171.436 1133.64 Q165.626 1133.64 162.547 1129.06 Q159.491 1124.45 159.491 1115.73 Q159.491 1106.98 162.547 1102.39 Q165.626 1097.79 171.436 1097.79 Z" fill="#000000" fill-rule="nonzero" fill-opacity="1" /><path clip-path="url(#clip480)" d="M192.408 1129.04 L200.047 1129.04 L200.047 1102.67 L191.737 1104.34 L191.737 1100.08 L200 1098.41 L204.676 1098.41 L204.676 1129.04 L212.315 1129.04 L212.315 1132.97 L192.408 1132.97 L192.408 1129.04 Z" fill="#000000" fill-rule="nonzero" fill-opacity="1" /><path clip-path="url(#clip480)" d="M231.76 1101.49 Q228.148 1101.49 226.32 1105.05 Q224.514 1108.6 224.514 1115.73 Q224.514 1122.83 226.32 1126.4 Q228.148 1129.94 231.76 1129.94 Q235.394 1129.94 237.199 1126.4 Q239.028 1122.83 239.028 1115.73 Q239.028 1108.6 237.199 1105.05 Q235.394 1101.49 231.76 1101.49 M231.76 1097.79 Q237.57 1097.79 240.625 1102.39 Q243.704 1106.98 243.704 1115.73 Q243.704 1124.45 240.625 1129.06 Q237.57 1133.64 231.76 1133.64 Q225.949 1133.64 222.871 1129.06 Q219.815 1124.45 219.815 1115.73 Q219.815 1106.98 222.871 1102.39 Q225.949 1097.79 231.76 1097.79 Z" fill="#000000" fill-rule="nonzero" fill-opacity="1" /><path clip-path="url(#clip480)" d="M127.2 922.651 Q123.589 922.651 121.76 926.216 Q119.955 929.757 119.955 936.887 Q119.955 943.993 121.76 947.558 Q123.589 951.1 127.2 951.1 Q130.834 951.1 132.64 947.558 Q134.468 943.993 134.468 936.887 Q134.468 929.757 132.64 926.216 Q130.834 922.651 127.2 922.651 M127.2 918.947 Q133.01 918.947 136.066 923.554 Q139.144 928.137 139.144 936.887 Q139.144 945.614 136.066 950.22 Q133.01 954.803 127.2 954.803 Q121.39 954.803 118.311 950.22 Q115.256 945.614 115.256 936.887 Q115.256 928.137 118.311 923.554 Q121.39 918.947 127.2 918.947 Z" fill="#000000" fill-rule="nonzero" fill-opacity="1" /><path clip-path="url(#clip480)" d="M147.362 948.253 L152.246 948.253 L152.246 954.132 L147.362 954.132 L147.362 948.253 Z" fill="#000000" fill-rule="nonzero" fill-opacity="1" /><path clip-path="url(#clip480)" d="M172.431 922.651 Q168.82 922.651 166.991 926.216 Q165.186 929.757 165.186 936.887 Q165.186 943.993 166.991 947.558 Q168.82 951.1 172.431 951.1 Q176.065 951.1 177.871 947.558 Q179.7 943.993 179.7 936.887 Q179.7 929.757 177.871 926.216 Q176.065 922.651 172.431 922.651 M172.431 918.947 Q178.241 918.947 181.297 923.554 Q184.376 928.137 184.376 936.887 Q184.376 945.614 181.297 950.22 Q178.241 954.803 172.431 954.803 Q166.621 954.803 163.542 950.22 Q160.487 945.614 160.487 936.887 Q160.487 928.137 163.542 923.554 Q166.621 918.947 172.431 918.947 Z" fill="#000000" fill-rule="nonzero" fill-opacity="1" /><path clip-path="url(#clip480)" d="M193.403 950.197 L201.042 950.197 L201.042 923.831 L192.732 925.498 L192.732 921.239 L200.996 919.572 L205.672 919.572 L205.672 950.197 L213.311 950.197 L213.311 954.132 L193.403 954.132 L193.403 950.197 Z" fill="#000000" fill-rule="nonzero" fill-opacity="1" /><path clip-path="url(#clip480)" d="M222.801 919.572 L241.158 919.572 L241.158 923.507 L227.084 923.507 L227.084 931.98 Q228.102 931.632 229.121 931.47 Q230.139 931.285 231.158 931.285 Q236.945 931.285 240.324 934.456 Q243.704 937.628 243.704 943.044 Q243.704 948.623 240.232 951.725 Q236.76 954.803 230.44 954.803 Q228.264 954.803 225.996 954.433 Q223.75 954.063 221.343 953.322 L221.343 948.623 Q223.426 949.757 225.648 950.313 Q227.871 950.868 230.347 950.868 Q234.352 950.868 236.69 948.762 Q239.028 946.655 239.028 943.044 Q239.028 939.433 236.69 937.327 Q234.352 935.22 230.347 935.22 Q228.473 935.22 226.598 935.637 Q224.746 936.054 222.801 936.933 L222.801 919.572 Z" fill="#000000" fill-rule="nonzero" fill-opacity="1" /><path clip-path="url(#clip480)" d="M126.205 743.812 Q122.593 743.812 120.765 747.377 Q118.959 750.919 118.959 758.048 Q118.959 765.155 120.765 768.72 Q122.593 772.261 126.205 772.261 Q129.839 772.261 131.644 768.72 Q133.473 765.155 133.473 758.048 Q133.473 750.919 131.644 747.377 Q129.839 743.812 126.205 743.812 M126.205 740.109 Q132.015 740.109 135.07 744.715 Q138.149 749.298 138.149 758.048 Q138.149 766.775 135.07 771.382 Q132.015 775.965 126.205 775.965 Q120.394 775.965 117.316 771.382 Q114.26 766.775 114.26 758.048 Q114.26 749.298 117.316 744.715 Q120.394 740.109 126.205 740.109 Z" fill="#000000" fill-rule="nonzero" fill-opacity="1" /><path clip-path="url(#clip480)" d="M146.366 769.414 L151.251 769.414 L151.251 775.294 L146.366 775.294 L146.366 769.414 Z" fill="#000000" fill-rule="nonzero" fill-opacity="1" /><path clip-path="url(#clip480)" d="M171.436 743.812 Q167.825 743.812 165.996 747.377 Q164.19 750.919 164.19 758.048 Q164.19 765.155 165.996 768.72 Q167.825 772.261 171.436 772.261 Q175.07 772.261 176.876 768.72 Q178.704 765.155 178.704 758.048 Q178.704 750.919 176.876 747.377 Q175.07 743.812 171.436 743.812 M171.436 740.109 Q177.246 740.109 180.301 744.715 Q183.38 749.298 183.38 758.048 Q183.38 766.775 180.301 771.382 Q177.246 775.965 171.436 775.965 Q165.626 775.965 162.547 771.382 Q159.491 766.775 159.491 758.048 Q159.491 749.298 162.547 744.715 Q165.626 740.109 171.436 740.109 Z" fill="#000000" fill-rule="nonzero" fill-opacity="1" /><path clip-path="url(#clip480)" d="M195.625 771.358 L211.945 771.358 L211.945 775.294 L190 775.294 L190 771.358 Q192.663 768.604 197.246 763.974 Q201.852 759.321 203.033 757.979 Q205.278 755.456 206.158 753.72 Q207.061 751.96 207.061 750.271 Q207.061 747.516 205.116 745.78 Q203.195 744.044 200.093 744.044 Q197.894 744.044 195.44 744.808 Q193.01 745.572 190.232 747.122 L190.232 742.4 Q193.056 741.266 195.51 740.687 Q197.963 740.109 200 740.109 Q205.371 740.109 208.565 742.794 Q211.76 745.479 211.76 749.97 Q211.76 752.099 210.949 754.021 Q210.162 755.919 208.056 758.511 Q207.477 759.183 204.375 762.4 Q201.274 765.595 195.625 771.358 Z" fill="#000000" fill-rule="nonzero" fill-opacity="1" /><path clip-path="url(#clip480)" d="M231.76 743.812 Q228.148 743.812 226.32 747.377 Q224.514 750.919 224.514 758.048 Q224.514 765.155 226.32 768.72 Q228.148 772.261 231.76 772.261 Q235.394 772.261 237.199 768.72 Q239.028 765.155 239.028 758.048 Q239.028 750.919 237.199 747.377 Q235.394 743.812 231.76 743.812 M231.76 740.109 Q237.57 740.109 240.625 744.715 Q243.704 749.298 243.704 758.048 Q243.704 766.775 240.625 771.382 Q237.57 775.965 231.76 775.965 Q225.949 775.965 222.871 771.382 Q219.815 766.775 219.815 758.048 Q219.815 749.298 222.871 744.715 Q225.949 740.109 231.76 740.109 Z" fill="#000000" fill-rule="nonzero" fill-opacity="1" /><path clip-path="url(#clip480)" d="M127.2 564.974 Q123.589 564.974 121.76 568.539 Q119.955 572.08 119.955 579.21 Q119.955 586.316 121.76 589.881 Q123.589 593.423 127.2 593.423 Q130.834 593.423 132.64 589.881 Q134.468 586.316 134.468 579.21 Q134.468 572.08 132.64 568.539 Q130.834 564.974 127.2 564.974 M127.2 561.27 Q133.01 561.27 136.066 565.876 Q139.144 570.46 139.144 579.21 Q139.144 587.937 136.066 592.543 Q133.01 597.126 127.2 597.126 Q121.39 597.126 118.311 592.543 Q115.256 587.937 115.256 579.21 Q115.256 570.46 118.311 565.876 Q121.39 561.27 127.2 561.27 Z" fill="#000000" fill-rule="nonzero" fill-opacity="1" /><path clip-path="url(#clip480)" d="M147.362 590.575 L152.246 590.575 L152.246 596.455 L147.362 596.455 L147.362 590.575 Z" fill="#000000" fill-rule="nonzero" fill-opacity="1" /><path clip-path="url(#clip480)" d="M172.431 564.974 Q168.82 564.974 166.991 568.539 Q165.186 572.08 165.186 579.21 Q165.186 586.316 166.991 589.881 Q168.82 593.423 172.431 593.423 Q176.065 593.423 177.871 589.881 Q179.7 586.316 179.7 579.21 Q179.7 572.08 177.871 568.539 Q176.065 564.974 172.431 564.974 M172.431 561.27 Q178.241 561.27 181.297 565.876 Q184.376 570.46 184.376 579.21 Q184.376 587.937 181.297 592.543 Q178.241 597.126 172.431 597.126 Q166.621 597.126 163.542 592.543 Q160.487 587.937 160.487 579.21 Q160.487 570.46 163.542 565.876 Q166.621 561.27 172.431 561.27 Z" fill="#000000" fill-rule="nonzero" fill-opacity="1" /><path clip-path="url(#clip480)" d="M196.621 592.52 L212.94 592.52 L212.94 596.455 L190.996 596.455 L190.996 592.52 Q193.658 589.765 198.241 585.136 Q202.848 580.483 204.028 579.14 Q206.274 576.617 207.153 574.881 Q208.056 573.122 208.056 571.432 Q208.056 568.677 206.112 566.941 Q204.19 565.205 201.088 565.205 Q198.889 565.205 196.436 565.969 Q194.005 566.733 191.227 568.284 L191.227 563.562 Q194.051 562.427 196.505 561.849 Q198.959 561.27 200.996 561.27 Q206.366 561.27 209.561 563.955 Q212.755 566.64 212.755 571.131 Q212.755 573.261 211.945 575.182 Q211.158 577.08 209.051 579.673 Q208.473 580.344 205.371 583.562 Q202.269 586.756 196.621 592.52 Z" fill="#000000" fill-rule="nonzero" fill-opacity="1" /><path clip-path="url(#clip480)" d="M222.801 561.895 L241.158 561.895 L241.158 565.83 L227.084 565.83 L227.084 574.302 Q228.102 573.955 229.121 573.793 Q230.139 573.608 231.158 573.608 Q236.945 573.608 240.324 576.779 Q243.704 579.95 243.704 585.367 Q243.704 590.946 240.232 594.048 Q236.76 597.126 230.44 597.126 Q228.264 597.126 225.996 596.756 Q223.75 596.386 221.343 595.645 L221.343 590.946 Q223.426 592.08 225.648 592.636 Q227.871 593.191 230.347 593.191 Q234.352 593.191 236.69 591.085 Q239.028 588.978 239.028 585.367 Q239.028 581.756 236.69 579.65 Q234.352 577.543 230.347 577.543 Q228.473 577.543 226.598 577.96 Q224.746 578.376 222.801 579.256 L222.801 561.895 Z" fill="#000000" fill-rule="nonzero" fill-opacity="1" /><path clip-path="url(#clip480)" d="M126.205 386.135 Q122.593 386.135 120.765 389.7 Q118.959 393.242 118.959 400.371 Q118.959 407.478 120.765 411.042 Q122.593 414.584 126.205 414.584 Q129.839 414.584 131.644 411.042 Q133.473 407.478 133.473 400.371 Q133.473 393.242 131.644 389.7 Q129.839 386.135 126.205 386.135 M126.205 382.431 Q132.015 382.431 135.07 387.038 Q138.149 391.621 138.149 400.371 Q138.149 409.098 135.07 413.704 Q132.015 418.288 126.205 418.288 Q120.394 418.288 117.316 413.704 Q114.26 409.098 114.26 400.371 Q114.26 391.621 117.316 387.038 Q120.394 382.431 126.205 382.431 Z" fill="#000000" fill-rule="nonzero" fill-opacity="1" /><path clip-path="url(#clip480)" d="M146.366 411.737 L151.251 411.737 L151.251 417.616 L146.366 417.616 L146.366 411.737 Z" fill="#000000" fill-rule="nonzero" fill-opacity="1" /><path clip-path="url(#clip480)" d="M171.436 386.135 Q167.825 386.135 165.996 389.7 Q164.19 393.242 164.19 400.371 Q164.19 407.478 165.996 411.042 Q167.825 414.584 171.436 414.584 Q175.07 414.584 176.876 411.042 Q178.704 407.478 178.704 400.371 Q178.704 393.242 176.876 389.7 Q175.07 386.135 171.436 386.135 M171.436 382.431 Q177.246 382.431 180.301 387.038 Q183.38 391.621 183.38 400.371 Q183.38 409.098 180.301 413.704 Q177.246 418.288 171.436 418.288 Q165.626 418.288 162.547 413.704 Q159.491 409.098 159.491 400.371 Q159.491 391.621 162.547 387.038 Q165.626 382.431 171.436 382.431 Z" fill="#000000" fill-rule="nonzero" fill-opacity="1" /><path clip-path="url(#clip480)" d="M205.764 398.982 Q209.121 399.7 210.996 401.968 Q212.894 404.237 212.894 407.57 Q212.894 412.686 209.375 415.487 Q205.857 418.288 199.375 418.288 Q197.2 418.288 194.885 417.848 Q192.593 417.431 190.139 416.575 L190.139 412.061 Q192.084 413.195 194.399 413.774 Q196.713 414.353 199.237 414.353 Q203.635 414.353 205.926 412.616 Q208.241 410.88 208.241 407.57 Q208.241 404.515 206.088 402.802 Q203.959 401.066 200.139 401.066 L196.112 401.066 L196.112 397.223 L200.325 397.223 Q203.774 397.223 205.602 395.857 Q207.431 394.468 207.431 391.876 Q207.431 389.214 205.533 387.802 Q203.658 386.367 200.139 386.367 Q198.218 386.367 196.019 386.783 Q193.82 387.2 191.181 388.08 L191.181 383.913 Q193.843 383.172 196.158 382.802 Q198.496 382.431 200.556 382.431 Q205.88 382.431 208.982 384.862 Q212.084 387.269 212.084 391.39 Q212.084 394.26 210.44 396.251 Q208.797 398.218 205.764 398.982 Z" fill="#000000" fill-rule="nonzero" fill-opacity="1" /><path clip-path="url(#clip480)" d="M231.76 386.135 Q228.148 386.135 226.32 389.7 Q224.514 393.242 224.514 400.371 Q224.514 407.478 226.32 411.042 Q228.148 414.584 231.76 414.584 Q235.394 414.584 237.199 411.042 Q239.028 407.478 239.028 400.371 Q239.028 393.242 237.199 389.7 Q235.394 386.135 231.76 386.135 M231.76 382.431 Q237.57 382.431 240.625 387.038 Q243.704 391.621 243.704 400.371 Q243.704 409.098 240.625 413.704 Q237.57 418.288 231.76 418.288 Q225.949 418.288 222.871 413.704 Q219.815 409.098 219.815 400.371 Q219.815 391.621 222.871 387.038 Q225.949 382.431 231.76 382.431 Z" fill="#000000" fill-rule="nonzero" fill-opacity="1" /><path clip-path="url(#clip480)" d="M127.2 207.297 Q123.589 207.297 121.76 210.861 Q119.955 214.403 119.955 221.533 Q119.955 228.639 121.76 232.204 Q123.589 235.745 127.2 235.745 Q130.834 235.745 132.64 232.204 Q134.468 228.639 134.468 221.533 Q134.468 214.403 132.64 210.861 Q130.834 207.297 127.2 207.297 M127.2 203.593 Q133.01 203.593 136.066 208.199 Q139.144 212.783 139.144 221.533 Q139.144 230.259 136.066 234.866 Q133.01 239.449 127.2 239.449 Q121.39 239.449 118.311 234.866 Q115.256 230.259 115.256 221.533 Q115.256 212.783 118.311 208.199 Q121.39 203.593 127.2 203.593 Z" fill="#000000" fill-rule="nonzero" fill-opacity="1" /><path clip-path="url(#clip480)" d="M147.362 232.898 L152.246 232.898 L152.246 238.778 L147.362 238.778 L147.362 232.898 Z" fill="#000000" fill-rule="nonzero" fill-opacity="1" /><path clip-path="url(#clip480)" d="M172.431 207.297 Q168.82 207.297 166.991 210.861 Q165.186 214.403 165.186 221.533 Q165.186 228.639 166.991 232.204 Q168.82 235.745 172.431 235.745 Q176.065 235.745 177.871 232.204 Q179.7 228.639 179.7 221.533 Q179.7 214.403 177.871 210.861 Q176.065 207.297 172.431 207.297 M172.431 203.593 Q178.241 203.593 181.297 208.199 Q184.376 212.783 184.376 221.533 Q184.376 230.259 181.297 234.866 Q178.241 239.449 172.431 239.449 Q166.621 239.449 163.542 234.866 Q160.487 230.259 160.487 221.533 Q160.487 212.783 163.542 208.199 Q166.621 203.593 172.431 203.593 Z" fill="#000000" fill-rule="nonzero" fill-opacity="1" /><path clip-path="url(#clip480)" d="M206.76 220.144 Q210.116 220.861 211.991 223.13 Q213.889 225.398 213.889 228.732 Q213.889 233.847 210.371 236.648 Q206.852 239.449 200.371 239.449 Q198.195 239.449 195.88 239.009 Q193.588 238.593 191.135 237.736 L191.135 233.222 Q193.079 234.357 195.394 234.935 Q197.709 235.514 200.232 235.514 Q204.63 235.514 206.922 233.778 Q209.237 232.042 209.237 228.732 Q209.237 225.676 207.084 223.963 Q204.954 222.227 201.135 222.227 L197.107 222.227 L197.107 218.384 L201.32 218.384 Q204.769 218.384 206.598 217.019 Q208.426 215.63 208.426 213.037 Q208.426 210.375 206.528 208.963 Q204.653 207.528 201.135 207.528 Q199.213 207.528 197.014 207.945 Q194.815 208.361 192.176 209.241 L192.176 205.074 Q194.838 204.334 197.153 203.963 Q199.491 203.593 201.551 203.593 Q206.875 203.593 209.977 206.023 Q213.079 208.431 213.079 212.551 Q213.079 215.422 211.436 217.412 Q209.792 219.38 206.76 220.144 Z" fill="#000000" fill-rule="nonzero" fill-opacity="1" /><path clip-path="url(#clip480)" d="M222.801 204.218 L241.158 204.218 L241.158 208.153 L227.084 208.153 L227.084 216.625 Q228.102 216.278 229.121 216.116 Q230.139 215.931 231.158 215.931 Q236.945 215.931 240.324 219.102 Q243.704 222.273 243.704 227.69 Q243.704 233.269 240.232 236.37 Q236.76 239.449 230.44 239.449 Q228.264 239.449 225.996 239.079 Q223.75 238.708 221.343 237.968 L221.343 233.269 Q223.426 234.403 225.648 234.958 Q227.871 235.514 230.347 235.514 Q234.352 235.514 236.69 233.408 Q239.028 231.301 239.028 227.69 Q239.028 224.079 236.69 221.972 Q234.352 219.866 230.347 219.866 Q228.473 219.866 226.598 220.283 Q224.746 220.699 222.801 221.579 L222.801 204.218 Z" fill="#000000" fill-rule="nonzero" fill-opacity="1" /><path clip-path="url(#clip480)" d="M29.4065 993.309 L34.9447 993.309 Q33.6716 995.792 33.035 998.465 Q32.3984 1001.14 32.3984 1004 Q32.3984 1008.36 33.7352 1010.56 Q35.072 1012.72 37.7456 1012.72 Q39.7826 1012.72 40.9603 1011.16 Q42.1061 1009.61 43.1565 1004.89 L43.6021 1002.89 Q44.9389 996.651 47.3897 994.041 Q49.8086 991.399 54.1691 991.399 Q59.1344 991.399 62.0308 995.346 Q64.9272 999.261 64.9272 1006.14 Q64.9272 1009 64.3543 1012.12 Q63.8132 1015.21 62.6992 1018.64 L56.6518 1018.64 Q58.3387 1015.4 59.198 1012.25 Q60.0256 1009.1 60.0256 1006.01 Q60.0256 1001.87 58.6251 999.643 Q57.1929 997.415 54.6147 997.415 Q52.2276 997.415 50.9545 999.038 Q49.6813 1000.63 48.5037 1006.07 L48.0262 1008.11 Q46.8804 1013.55 44.5251 1015.97 Q42.138 1018.39 38.0002 1018.39 Q32.9713 1018.39 30.2341 1014.82 Q27.4968 1011.26 27.4968 1004.7 Q27.4968 1001.46 27.9743 998.592 Q28.4517 995.728 29.4065 993.309 Z" fill="#000000" fill-rule="nonzero" fill-opacity="1" /><path clip-path="url(#clip480)" d="M28.3562 982.073 L28.3562 976.217 L64.0042 976.217 L64.0042 982.073 L28.3562 982.073 M14.479 982.073 L14.479 976.217 L21.895 976.217 L21.895 982.073 L14.479 982.073 Z" fill="#000000" fill-rule="nonzero" fill-opacity="1" /><path clip-path="url(#clip480)" d="M45.7664 940.505 Q39.4007 940.505 35.8996 943.147 Q32.3984 945.757 32.3984 950.5 Q32.3984 955.21 35.8996 957.852 Q39.4007 960.462 45.7664 960.462 Q52.1003 960.462 55.6014 957.852 Q59.1026 955.21 59.1026 950.5 Q59.1026 945.757 55.6014 943.147 Q52.1003 940.505 45.7664 940.505 M59.58 934.649 Q68.683 934.649 73.1071 938.691 Q77.5631 942.733 77.5631 951.072 Q77.5631 954.16 77.0857 956.897 Q76.6401 959.634 75.6852 962.212 L69.9879 962.212 Q71.3884 959.634 72.0568 957.12 Q72.7252 954.605 72.7252 951.995 Q72.7252 946.234 69.7015 943.37 Q66.7096 940.505 60.6303 940.505 L57.7339 940.505 Q60.885 942.32 62.4446 945.152 Q64.0042 947.985 64.0042 951.932 Q64.0042 958.488 59.0071 962.499 Q54.01 966.509 45.7664 966.509 Q37.491 966.509 32.4939 962.499 Q27.4968 958.488 27.4968 951.932 Q27.4968 947.985 29.0564 945.152 Q30.616 942.32 33.7671 940.505 L28.3562 940.505 L28.3562 934.649 L59.58 934.649 Z" fill="#000000" fill-rule="nonzero" fill-opacity="1" /><path clip-path="url(#clip480)" d="M35.1993 894.831 Q31.2526 892.635 29.3747 889.58 Q27.4968 886.524 27.4968 882.386 Q27.4968 876.816 31.4117 873.793 Q35.2948 870.769 42.4881 870.769 L64.0042 870.769 L64.0042 876.657 L42.679 876.657 Q37.5546 876.657 35.072 878.472 Q32.5894 880.286 32.5894 884.01 Q32.5894 888.561 35.6131 891.203 Q38.6368 893.845 43.8567 893.845 L64.0042 893.845 L64.0042 899.733 L42.679 899.733 Q37.5228 899.733 35.072 901.547 Q32.5894 903.361 32.5894 907.149 Q32.5894 911.637 35.6449 914.279 Q38.6686 916.92 43.8567 916.92 L64.0042 916.92 L64.0042 922.809 L28.3562 922.809 L28.3562 916.92 L33.8944 916.92 Q30.616 914.915 29.0564 912.114 Q27.4968 909.313 27.4968 905.462 Q27.4968 901.579 29.4702 898.874 Q31.4436 896.136 35.1993 894.831 Z" fill="#000000" fill-rule="nonzero" fill-opacity="1" /><path clip-path="url(#clip480)" d="M46.0847 842.887 Q46.0847 849.985 47.7079 852.722 Q49.3312 855.46 53.2461 855.46 Q56.3653 855.46 58.2114 853.422 Q60.0256 851.354 60.0256 847.821 Q60.0256 842.951 56.5881 840.023 Q53.1188 837.063 47.3897 837.063 L46.0847 837.063 L46.0847 842.887 M43.6657 831.206 L64.0042 831.206 L64.0042 837.063 L58.5933 837.063 Q61.8398 839.068 63.3994 842.06 Q64.9272 845.052 64.9272 849.38 Q64.9272 854.855 61.8716 858.101 Q58.7843 861.316 53.6281 861.316 Q47.6125 861.316 44.5569 857.306 Q41.5014 853.263 41.5014 845.274 L41.5014 837.063 L40.9285 837.063 Q36.8862 837.063 34.6901 839.736 Q32.4621 842.378 32.4621 847.184 Q32.4621 850.24 33.1941 853.136 Q33.9262 856.032 35.3903 858.706 L29.9795 858.706 Q28.7381 855.491 28.1334 852.468 Q27.4968 849.444 27.4968 846.579 Q27.4968 838.845 31.5072 835.026 Q35.5176 831.206 43.6657 831.206 Z" fill="#000000" fill-rule="nonzero" fill-opacity="1" /><path clip-path="url(#clip480)" d="M14.479 798.964 L14.479 785.469 L19.0304 785.469 L19.0304 793.107 L68.0464 793.107 L68.0464 785.469 L72.5979 785.469 L72.5979 798.964 L14.479 798.964 Z" fill="#000000" fill-rule="nonzero" fill-opacity="1" /><path clip-path="url(#clip480)" d="M57.2247 740.336 L44.4614 740.336 L44.4614 750.839 L39.1779 750.839 L39.1779 733.97 L59.58 733.97 Q62.2218 737.694 63.5904 742.182 Q64.9272 746.67 64.9272 751.762 Q64.9272 762.902 58.4342 769.204 Q51.9093 775.474 40.2919 775.474 Q28.6427 775.474 22.1496 769.204 Q15.6248 762.902 15.6248 751.762 Q15.6248 747.115 16.7706 742.946 Q17.9164 738.744 20.1444 735.211 L26.9876 735.211 Q23.9639 738.776 22.4361 742.787 Q20.9083 746.797 20.9083 751.221 Q20.9083 759.942 25.7781 764.334 Q30.6479 768.695 40.2919 768.695 Q49.9041 768.695 54.7739 764.334 Q59.6436 759.942 59.6436 751.221 Q59.6436 747.815 59.0707 745.142 Q58.466 742.468 57.2247 740.336 Z" fill="#000000" fill-rule="nonzero" fill-opacity="1" /><path clip-path="url(#clip480)" d="M44.7161 691.988 L47.5806 691.988 L47.5806 718.915 Q53.6281 718.533 56.8109 715.287 Q59.9619 712.008 59.9619 706.184 Q59.9619 702.81 59.1344 699.659 Q58.3069 696.476 56.6518 693.357 L62.1899 693.357 Q63.5267 696.508 64.227 699.818 Q64.9272 703.128 64.9272 706.534 Q64.9272 715.064 59.9619 720.061 Q54.9967 725.026 46.5303 725.026 Q37.7774 725.026 32.6531 720.316 Q27.4968 715.573 27.4968 707.552 Q27.4968 700.359 32.1438 696.19 Q36.7589 691.988 44.7161 691.988 M42.9973 697.845 Q38.1912 697.908 35.3266 700.55 Q32.4621 703.16 32.4621 707.489 Q32.4621 712.39 35.2312 715.35 Q38.0002 718.279 43.0292 718.724 L42.9973 697.845 Z" fill="#000000" fill-rule="nonzero" fill-opacity="1" /><path clip-path="url(#clip480)" d="M64.0042 669.867 L16.4842 688.01 L16.4842 681.294 L56.4926 666.239 L16.4842 651.152 L16.4842 644.468 L64.0042 662.579 L64.0042 669.867 Z" fill="#000000" fill-rule="nonzero" fill-opacity="1" /><path clip-path="url(#clip480)" d="M16.4842 613.499 L34.2127 596.216 L34.2127 602.614 L21.6404 616.618 L34.2127 630.623 L34.2127 637.02 L16.4842 619.737 L16.4842 613.499 Z" fill="#000000" fill-rule="nonzero" fill-opacity="1" /><path clip-path="url(#clip480)" d="M38.3822 562.86 Q39.3689 558.245 42.4881 555.667 Q45.6073 553.057 50.1906 553.057 Q57.2247 553.057 61.0759 557.895 Q64.9272 562.732 64.9272 571.644 Q64.9272 574.636 64.3224 577.819 Q63.7495 580.97 62.5719 584.344 L56.3653 584.344 Q57.9249 581.67 58.7206 578.488 Q59.5163 575.305 59.5163 571.835 Q59.5163 565.788 57.1292 562.637 Q54.7421 559.454 50.1906 559.454 Q45.9892 559.454 43.6339 562.414 Q41.2468 565.342 41.2468 570.594 L41.2468 576.132 L35.9632 576.132 L35.9632 570.34 Q35.9632 565.597 34.0853 563.083 Q32.1756 560.568 28.6108 560.568 Q24.9505 560.568 23.009 563.178 Q21.0356 565.756 21.0356 570.594 Q21.0356 573.236 21.6086 576.26 Q22.1815 579.283 23.3909 582.912 L17.6618 582.912 Q16.6433 579.252 16.134 576.069 Q15.6248 572.854 15.6248 570.021 Q15.6248 562.701 18.9668 558.436 Q22.277 554.171 27.9424 554.171 Q31.8892 554.171 34.6264 556.43 Q37.3318 558.69 38.3822 562.86 Z" fill="#000000" fill-rule="nonzero" fill-opacity="1" /><path clip-path="url(#clip480)" d="M14.479 528.008 L72.5979 528.008 L72.5979 541.503 L68.0464 541.503 L68.0464 533.896 L19.0304 533.896 L19.0304 541.503 L14.479 541.503 L14.479 528.008 Z" fill="#000000" fill-rule="nonzero" fill-opacity="1" /><path clip-path="url(#clip480)" d="M694.76 14.0809 L694.76 22.0612 Q690.102 19.8332 685.97 18.7395 Q681.838 17.6457 677.99 17.6457 Q671.306 17.6457 667.66 20.2383 Q664.055 22.8309 664.055 27.611 Q664.055 31.6214 666.445 33.6873 Q668.875 35.7128 675.6 36.9686 L680.542 37.9813 Q689.697 39.7232 694.031 44.1387 Q698.406 48.5136 698.406 55.8863 Q698.406 64.6767 692.492 69.2137 Q686.618 73.7508 675.235 73.7508 Q670.941 73.7508 666.08 72.7785 Q661.259 71.8063 656.074 69.9024 L656.074 61.4765 Q661.057 64.2716 665.837 65.6895 Q670.617 67.1073 675.235 67.1073 Q682.243 67.1073 686.051 64.3527 Q689.859 61.598 689.859 56.4939 Q689.859 52.0379 687.104 49.5264 Q684.39 47.0148 678.152 45.759 L673.169 44.7868 Q664.014 42.9639 659.923 39.075 Q655.831 35.1862 655.831 28.2591 Q655.831 20.2383 661.462 15.6203 Q667.133 11.0023 677.058 11.0023 Q681.311 11.0023 685.727 11.7719 Q690.142 12.5416 694.76 14.0809 Z" fill="#000000" fill-rule="nonzero" fill-opacity="1" /><path clip-path="url(#clip480)" d="M748.556 45.1919 L748.556 72.576 L741.103 72.576 L741.103 45.4349 Q741.103 38.994 738.591 35.7938 Q736.08 32.5936 731.057 32.5936 Q725.021 32.5936 721.537 36.4419 Q718.053 40.2903 718.053 46.9338 L718.053 72.576 L710.559 72.576 L710.559 9.54393 L718.053 9.54393 L718.053 34.2544 Q720.727 30.163 724.332 28.1376 Q727.978 26.1121 732.717 26.1121 Q740.536 26.1121 744.546 30.9732 Q748.556 35.7938 748.556 45.1919 Z" fill="#000000" fill-rule="nonzero" fill-opacity="1" /><path clip-path="url(#clip480)" d="M781.004 32.4315 Q775.009 32.4315 771.525 37.1306 Q768.041 41.7891 768.041 49.9314 Q768.041 58.0738 771.485 62.7728 Q774.968 67.4314 781.004 67.4314 Q786.959 67.4314 790.443 62.7323 Q793.927 58.0333 793.927 49.9314 Q793.927 41.8701 790.443 37.1711 Q786.959 32.4315 781.004 32.4315 M781.004 26.1121 Q790.726 26.1121 796.276 32.4315 Q801.826 38.7509 801.826 49.9314 Q801.826 61.0714 796.276 67.4314 Q790.726 73.7508 781.004 73.7508 Q771.242 73.7508 765.692 67.4314 Q760.183 61.0714 760.183 49.9314 Q760.183 38.7509 765.692 32.4315 Q771.242 26.1121 781.004 26.1121 Z" fill="#000000" fill-rule="nonzero" fill-opacity="1" /><path clip-path="url(#clip480)" d="M831.762 32.4315 Q825.767 32.4315 822.283 37.1306 Q818.799 41.7891 818.799 49.9314 Q818.799 58.0738 822.242 62.7728 Q825.726 67.4314 831.762 67.4314 Q837.717 67.4314 841.201 62.7323 Q844.684 58.0333 844.684 49.9314 Q844.684 41.8701 841.201 37.1711 Q837.717 32.4315 831.762 32.4315 M831.762 26.1121 Q841.484 26.1121 847.034 32.4315 Q852.584 38.7509 852.584 49.9314 Q852.584 61.0714 847.034 67.4314 Q841.484 73.7508 831.762 73.7508 Q821.999 73.7508 816.45 67.4314 Q810.94 61.0714 810.94 49.9314 Q810.94 38.7509 816.45 32.4315 Q821.999 26.1121 831.762 26.1121 Z" fill="#000000" fill-rule="nonzero" fill-opacity="1" /><path clip-path="url(#clip480)" d="M872.312 14.324 L872.312 27.2059 L887.664 27.2059 L887.664 32.9987 L872.312 32.9987 L872.312 57.6282 Q872.312 63.1779 873.81 64.7578 Q875.35 66.3376 880.008 66.3376 L887.664 66.3376 L887.664 72.576 L880.008 72.576 Q871.38 72.576 868.099 69.3758 Q864.817 66.1351 864.817 57.6282 L864.817 32.9987 L859.349 32.9987 L859.349 27.2059 L864.817 27.2059 L864.817 14.324 L872.312 14.324 Z" fill="#000000" fill-rule="nonzero" fill-opacity="1" /><path clip-path="url(#clip480)" d="M897.468 27.2059 L904.921 27.2059 L904.921 72.576 L897.468 72.576 L897.468 27.2059 M897.468 9.54393 L904.921 9.54393 L904.921 18.9825 L897.468 18.9825 L897.468 9.54393 Z" fill="#000000" fill-rule="nonzero" fill-opacity="1" /><path clip-path="url(#clip480)" d="M958.231 45.1919 L958.231 72.576 L950.778 72.576 L950.778 45.4349 Q950.778 38.994 948.266 35.7938 Q945.754 32.5936 940.731 32.5936 Q934.695 32.5936 931.212 36.4419 Q927.728 40.2903 927.728 46.9338 L927.728 72.576 L920.234 72.576 L920.234 27.2059 L927.728 27.2059 L927.728 34.2544 Q930.402 30.163 934.007 28.1376 Q937.653 26.1121 942.392 26.1121 Q950.21 26.1121 954.221 30.9732 Q958.231 35.7938 958.231 45.1919 Z" fill="#000000" fill-rule="nonzero" fill-opacity="1" /><path clip-path="url(#clip480)" d="M1002.95 49.3643 Q1002.95 41.2625 999.591 36.8065 Q996.269 32.3505 990.233 32.3505 Q984.238 32.3505 980.876 36.8065 Q977.554 41.2625 977.554 49.3643 Q977.554 57.4256 980.876 61.8816 Q984.238 66.3376 990.233 66.3376 Q996.269 66.3376 999.591 61.8816 Q1002.95 57.4256 1002.95 49.3643 M1010.41 66.9452 Q1010.41 78.5308 1005.26 84.1616 Q1000.12 89.8329 989.504 89.8329 Q985.575 89.8329 982.091 89.2252 Q978.607 88.6581 975.326 87.4428 L975.326 80.1917 Q978.607 81.9741 981.808 82.8248 Q985.008 83.6755 988.329 83.6755 Q995.662 83.6755 999.307 79.8271 Q1002.95 76.0193 1002.95 68.282 L1002.95 64.5957 Q1000.64 68.6061 997.039 70.5911 Q993.434 72.576 988.41 72.576 Q980.066 72.576 974.961 66.2161 Q969.857 59.8562 969.857 49.3643 Q969.857 38.832 974.961 32.472 Q980.066 26.1121 988.41 26.1121 Q993.434 26.1121 997.039 28.0971 Q1000.64 30.082 1002.95 34.0924 L1002.95 27.2059 L1010.41 27.2059 L1010.41 66.9452 Z" fill="#000000" fill-rule="nonzero" fill-opacity="1" /><path clip-path="url(#clip480)" d="M1081.05 28.5427 L1081.05 35.5912 Q1077.89 33.9709 1074.49 33.1607 Q1071.09 32.3505 1067.44 32.3505 Q1061.89 32.3505 1059.1 34.0519 Q1056.34 35.7533 1056.34 39.156 Q1056.34 41.7486 1058.33 43.2475 Q1060.31 44.7058 1066.31 46.0426 L1068.86 46.6097 Q1076.8 48.3111 1080.12 51.4303 Q1083.49 54.509 1083.49 60.0587 Q1083.49 66.3781 1078.46 70.0644 Q1073.48 73.7508 1064.73 73.7508 Q1061.08 73.7508 1057.11 73.0216 Q1053.18 72.3329 1048.81 70.9151 L1048.81 63.2184 Q1052.94 65.3654 1056.95 66.4591 Q1060.96 67.5124 1064.89 67.5124 Q1070.16 67.5124 1072.99 65.73 Q1075.83 63.9071 1075.83 60.6258 Q1075.83 57.5877 1073.76 55.9673 Q1071.74 54.3469 1064.81 52.8481 L1062.22 52.2405 Q1055.29 50.7821 1052.21 47.7845 Q1049.13 44.7463 1049.13 39.4801 Q1049.13 33.0797 1053.67 29.5959 Q1058.21 26.1121 1066.55 26.1121 Q1070.68 26.1121 1074.33 26.7198 Q1077.98 27.3274 1081.05 28.5427 Z" fill="#000000" fill-rule="nonzero" fill-opacity="1" /><path clip-path="url(#clip480)" d="M1095.35 27.2059 L1102.81 27.2059 L1102.81 72.576 L1095.35 72.576 L1095.35 27.2059 M1095.35 9.54393 L1102.81 9.54393 L1102.81 18.9825 L1095.35 18.9825 L1095.35 9.54393 Z" fill="#000000" fill-rule="nonzero" fill-opacity="1" /><path clip-path="url(#clip480)" d="M1148.26 49.3643 Q1148.26 41.2625 1144.9 36.8065 Q1141.58 32.3505 1135.54 32.3505 Q1129.54 32.3505 1126.18 36.8065 Q1122.86 41.2625 1122.86 49.3643 Q1122.86 57.4256 1126.18 61.8816 Q1129.54 66.3376 1135.54 66.3376 Q1141.58 66.3376 1144.9 61.8816 Q1148.26 57.4256 1148.26 49.3643 M1155.71 66.9452 Q1155.71 78.5308 1150.57 84.1616 Q1145.42 89.8329 1134.81 89.8329 Q1130.88 89.8329 1127.4 89.2252 Q1123.91 88.6581 1120.63 87.4428 L1120.63 80.1917 Q1123.91 81.9741 1127.11 82.8248 Q1130.31 83.6755 1133.64 83.6755 Q1140.97 83.6755 1144.61 79.8271 Q1148.26 76.0193 1148.26 68.282 L1148.26 64.5957 Q1145.95 68.6061 1142.34 70.5911 Q1138.74 72.576 1133.72 72.576 Q1125.37 72.576 1120.27 66.2161 Q1115.16 59.8562 1115.16 49.3643 Q1115.16 38.832 1120.27 32.472 Q1125.37 26.1121 1133.72 26.1121 Q1138.74 26.1121 1142.34 28.0971 Q1145.95 30.082 1148.26 34.0924 L1148.26 27.2059 L1155.71 27.2059 L1155.71 66.9452 Z" fill="#000000" fill-rule="nonzero" fill-opacity="1" /><path clip-path="url(#clip480)" d="M1206.39 35.9153 Q1209.18 30.8922 1213.07 28.5022 Q1216.96 26.1121 1222.23 26.1121 Q1229.32 26.1121 1233.17 31.0947 Q1237.01 36.0368 1237.01 45.1919 L1237.01 72.576 L1229.52 72.576 L1229.52 45.4349 Q1229.52 38.913 1227.21 35.7533 Q1224.9 32.5936 1220.16 32.5936 Q1214.37 32.5936 1211.01 36.4419 Q1207.65 40.2903 1207.65 46.9338 L1207.65 72.576 L1200.15 72.576 L1200.15 45.4349 Q1200.15 38.8725 1197.84 35.7533 Q1195.53 32.5936 1190.71 32.5936 Q1185 32.5936 1181.64 36.4824 Q1178.28 40.3308 1178.28 46.9338 L1178.28 72.576 L1170.78 72.576 L1170.78 27.2059 L1178.28 27.2059 L1178.28 34.2544 Q1180.83 30.082 1184.39 28.0971 Q1187.96 26.1121 1192.86 26.1121 Q1197.8 26.1121 1201.24 28.6237 Q1204.73 31.1352 1206.39 35.9153 Z" fill="#000000" fill-rule="nonzero" fill-opacity="1" /><path clip-path="url(#clip480)" d="M1272.5 49.7694 Q1263.47 49.7694 1259.98 51.8354 Q1256.5 53.9013 1256.5 58.8839 Q1256.5 62.8538 1259.09 65.2034 Q1261.72 67.5124 1266.22 67.5124 Q1272.42 67.5124 1276.15 63.1374 Q1279.91 58.7219 1279.91 51.4303 L1279.91 49.7694 L1272.5 49.7694 M1287.37 46.6907 L1287.37 72.576 L1279.91 72.576 L1279.91 65.6895 Q1277.36 69.8214 1273.55 71.8063 Q1269.75 73.7508 1264.24 73.7508 Q1257.27 73.7508 1253.14 69.8619 Q1249.05 65.9325 1249.05 59.3701 Q1249.05 51.7138 1254.15 47.825 Q1259.29 43.9361 1269.46 43.9361 L1279.91 43.9361 L1279.91 43.2069 Q1279.91 38.0623 1276.51 35.2672 Q1273.15 32.4315 1267.03 32.4315 Q1263.14 32.4315 1259.46 33.3632 Q1255.77 34.295 1252.37 36.1584 L1252.37 29.2718 Q1256.46 27.692 1260.31 26.9223 Q1264.16 26.1121 1267.8 26.1121 Q1277.65 26.1121 1282.51 31.2163 Q1287.37 36.3204 1287.37 46.6907 Z" fill="#000000" fill-rule="nonzero" fill-opacity="1" /><path clip-path="url(#clip480)" d="M1320.63 9.62495 Q1315.2 18.942 1312.56 28.0566 Q1309.93 37.1711 1309.93 46.5287 Q1309.93 55.8863 1312.56 65.0818 Q1315.24 74.2369 1320.63 83.5134 L1314.14 83.5134 Q1308.07 73.9938 1305.03 64.7983 Q1302.03 55.6027 1302.03 46.5287 Q1302.03 37.4952 1305.03 28.3401 Q1308.03 19.1851 1314.14 9.62495 L1320.63 9.62495 Z" fill="#000000" fill-rule="nonzero" fill-opacity="1" /><path clip-path="url(#clip480)" d="M1327.03 12.096 L1378.19 12.096 L1378.19 18.9825 L1356.72 18.9825 L1356.72 72.576 L1348.5 72.576 L1348.5 18.9825 L1327.03 18.9825 L1327.03 12.096 Z" fill="#000000" fill-rule="nonzero" fill-opacity="1" /><path clip-path="url(#clip480)" d="M1384.59 9.62495 L1391.07 9.62495 Q1397.15 19.1851 1400.14 28.3401 Q1403.18 37.4952 1403.18 46.5287 Q1403.18 55.6027 1400.14 64.7983 Q1397.15 73.9938 1391.07 83.5134 L1384.59 83.5134 Q1389.98 74.2369 1392.61 65.0818 Q1395.28 55.8863 1395.28 46.5287 Q1395.28 37.1711 1392.61 28.0566 Q1389.98 18.942 1384.59 9.62495 Z" fill="#000000" fill-rule="nonzero" fill-opacity="1" /><path clip-path="url(#clip480)" d="M1420.03 62.2867 L1428.58 62.2867 L1428.58 69.2543 L1421.94 82.2172 L1416.71 82.2172 L1420.03 69.2543 L1420.03 62.2867 Z" fill="#000000" fill-rule="nonzero" fill-opacity="1" /><path clip-path="url(#clip480)" d="M1506.2 35.9153 Q1508.99 30.8922 1512.88 28.5022 Q1516.77 26.1121 1522.04 26.1121 Q1529.13 26.1121 1532.97 31.0947 Q1536.82 36.0368 1536.82 45.1919 L1536.82 72.576 L1529.33 72.576 L1529.33 45.4349 Q1529.33 38.913 1527.02 35.7533 Q1524.71 32.5936 1519.97 32.5936 Q1514.18 32.5936 1510.82 36.4419 Q1507.45 40.2903 1507.45 46.9338 L1507.45 72.576 L1499.96 72.576 L1499.96 45.4349 Q1499.96 38.8725 1497.65 35.7533 Q1495.34 32.5936 1490.52 32.5936 Q1484.81 32.5936 1481.45 36.4824 Q1478.08 40.3308 1478.08 46.9338 L1478.08 72.576 L1470.59 72.576 L1470.59 27.2059 L1478.08 27.2059 L1478.08 34.2544 Q1480.64 30.082 1484.2 28.0971 Q1487.77 26.1121 1492.67 26.1121 Q1497.61 26.1121 1501.05 28.6237 Q1504.54 31.1352 1506.2 35.9153 Z" fill="#000000" fill-rule="nonzero" fill-opacity="1" /><path clip-path="url(#clip480)" d="M1556.14 49.9314 Q1556.14 58.1548 1559.51 62.8538 Q1562.91 67.5124 1568.82 67.5124 Q1574.74 67.5124 1578.14 62.8538 Q1581.54 58.1548 1581.54 49.9314 Q1581.54 41.7081 1578.14 37.0496 Q1574.74 32.3505 1568.82 32.3505 Q1562.91 32.3505 1559.51 37.0496 Q1556.14 41.7081 1556.14 49.9314 M1581.54 65.7705 Q1579.19 69.8214 1575.59 71.8063 Q1572.02 73.7508 1567 73.7508 Q1558.78 73.7508 1553.59 67.1883 Q1548.45 60.6258 1548.45 49.9314 Q1548.45 39.2371 1553.59 32.6746 Q1558.78 26.1121 1567 26.1121 Q1572.02 26.1121 1575.59 28.0971 Q1579.19 30.0415 1581.54 34.0924 L1581.54 27.2059 L1589 27.2059 L1589 89.8329 L1581.54 89.8329 L1581.54 65.7705 Z" fill="#000000" fill-rule="nonzero" fill-opacity="1" /><path clip-path="url(#clip480)" d="M1631.69 34.9026 L1683.63 34.9026 L1683.63 41.7081 L1631.69 41.7081 L1631.69 34.9026 M1631.69 51.4303 L1683.63 51.4303 L1683.63 58.3168 L1631.69 58.3168 L1631.69 51.4303 Z" fill="#000000" fill-rule="nonzero" fill-opacity="1" /><path clip-path="url(#clip480)" d="M1725.59 12.096 L1764.48 12.096 L1764.48 15.5798 L1742.53 72.576 L1733.98 72.576 L1754.64 18.9825 L1725.59 18.9825 L1725.59 12.096 Z" fill="#000000" fill-rule="nonzero" fill-opacity="1" /><path clip-path="url(#clip480)" d="M1806.09 12.096 L1818.28 12.096 L1833.71 53.2532 L1849.23 12.096 L1861.42 12.096 L1861.42 72.576 L1853.44 72.576 L1853.44 19.4686 L1837.84 60.9499 L1829.62 60.9499 L1814.03 19.4686 L1814.03 72.576 L1806.09 72.576 L1806.09 12.096 Z" fill="#000000" fill-rule="nonzero" fill-opacity="1" /><path clip-path="url(#clip480)" d="M1916.15 48.0275 L1916.15 51.6733 L1881.88 51.6733 Q1882.36 59.3701 1886.5 63.421 Q1890.67 67.4314 1898.08 67.4314 Q1902.38 67.4314 1906.39 66.3781 Q1910.44 65.3249 1914.41 63.2184 L1914.41 70.267 Q1910.4 71.9684 1906.18 72.8596 Q1901.97 73.7508 1897.64 73.7508 Q1886.78 73.7508 1880.42 67.4314 Q1874.1 61.1119 1874.1 50.3365 Q1874.1 39.1965 1880.1 32.6746 Q1886.13 26.1121 1896.34 26.1121 Q1905.49 26.1121 1910.8 32.0264 Q1916.15 37.9003 1916.15 48.0275 M1908.69 45.84 Q1908.61 39.7232 1905.25 36.0774 Q1901.93 32.4315 1896.42 32.4315 Q1890.18 32.4315 1886.41 35.9558 Q1882.69 39.4801 1882.12 45.8805 L1908.69 45.84 Z" fill="#000000" fill-rule="nonzero" fill-opacity="1" /><path clip-path="url(#clip480)" d="M1944.3 72.576 L1921.21 12.096 L1929.76 12.096 L1948.92 63.0159 L1968.12 12.096 L1976.63 12.096 L1953.58 72.576 L1944.3 72.576 Z" fill="#000000" fill-rule="nonzero" fill-opacity="1" /><polyline clip-path="url(#clip482)" style="stroke:#009af9; stroke-linecap:round; stroke-linejoin:round; stroke-width:10; stroke-opacity:1; fill:none" points="338.375,167.238 373.299,165.339 408.222,163.645 443.145,162.248 478.069,161.191 512.992,160.511 547.915,160.256 582.839,160.5 617.762,161.376 652.686,163.152 687.609,166.288 722.532,171.343 757.456,178.862 792.379,189.326 827.303,203.182 862.226,220.885 897.149,242.932 932.073,269.903 966.996,302.487 1001.92,341.539 1036.84,388.187 1071.77,443.902 1106.69,510.688 1141.61,591.44 1176.54,690.535 1211.46,814.658 1246.38,971.576 1281.31,1143.31 1316.23,1251.29 1351.15,1299.57 1386.08,1324.06 1421,1338.53 1455.92,1348.11 1490.85,1354.85 1525.77,1359.83 1560.69,1363.76 1595.62,1366.82 1630.54,1369.37 1665.46,1371.47 1700.39,1373.34 1735.31,1374.89 1770.23,1376.21 1805.16,1377.39 1840.08,1378.46 1875,1379.43 1909.93,1380.28 1944.85,1381.02 1979.77,1381.72 2014.7,1382.41 2049.62,1383.04 2084.54,1383.55 2119.47,1384.13 2154.39,1384.63 2189.31,1385.09 2224.24,1385.54 2259.16,1385.98 2294.08,1386.4 "/>
<path clip-path="url(#clip480)" d="M1817.32 270.476 L2283.65 270.476 L2283.65 166.796 L1817.32 166.796  Z" fill="#ffffff" fill-rule="evenodd" fill-opacity="1"/>
<polyline clip-path="url(#clip480)" style="stroke:#000000; stroke-linecap:round; stroke-linejoin:round; stroke-width:4; stroke-opacity:1; fill:none" points="1817.32,270.476 2283.65,270.476 2283.65,166.796 1817.32,166.796 1817.32,270.476 "/>
<polyline clip-path="url(#clip480)" style="stroke:#009af9; stroke-linecap:round; stroke-linejoin:round; stroke-width:10; stroke-opacity:1; fill:none" points="1840.36,218.636 1978.56,218.636 "/>
<path clip-path="url(#clip480)" d="M2021.94 214.967 Q2023.54 212.096 2025.76 210.731 Q2027.98 209.365 2030.99 209.365 Q2035.04 209.365 2037.24 212.212 Q2039.44 215.036 2039.44 220.268 L2039.44 235.916 L2035.16 235.916 L2035.16 220.407 Q2035.16 216.68 2033.84 214.874 Q2032.52 213.069 2029.81 213.069 Q2026.5 213.069 2024.58 215.268 Q2022.66 217.467 2022.66 221.263 L2022.66 235.916 L2018.38 235.916 L2018.38 220.407 Q2018.38 216.657 2017.06 214.874 Q2015.74 213.069 2012.98 213.069 Q2009.72 213.069 2007.8 215.291 Q2005.88 217.49 2005.88 221.263 L2005.88 235.916 L2001.59 235.916 L2001.59 209.99 L2005.88 209.99 L2005.88 214.018 Q2007.33 211.633 2009.37 210.499 Q2011.41 209.365 2014.21 209.365 Q2017.03 209.365 2019 210.8 Q2020.99 212.235 2021.94 214.967 Z" fill="#000000" fill-rule="nonzero" fill-opacity="1" /><path clip-path="url(#clip480)" d="M2050.48 222.976 Q2050.48 227.675 2052.4 230.36 Q2054.35 233.022 2057.73 233.022 Q2061.11 233.022 2063.05 230.36 Q2065 227.675 2065 222.976 Q2065 218.277 2063.05 215.615 Q2061.11 212.93 2057.73 212.93 Q2054.35 212.93 2052.4 215.615 Q2050.48 218.277 2050.48 222.976 M2065 232.027 Q2063.65 234.342 2061.59 235.476 Q2059.56 236.587 2056.69 236.587 Q2051.99 236.587 2049.02 232.837 Q2046.08 229.087 2046.08 222.976 Q2046.08 216.865 2049.02 213.115 Q2051.99 209.365 2056.69 209.365 Q2059.56 209.365 2061.59 210.499 Q2063.65 211.61 2065 213.925 L2065 209.99 L2069.26 209.99 L2069.26 245.777 L2065 245.777 L2065 232.027 Z" fill="#000000" fill-rule="nonzero" fill-opacity="1" /><path clip-path="url(#clip480)" d="M2078.58 214.388 L2108.26 214.388 L2108.26 218.277 L2078.58 218.277 L2078.58 214.388 M2078.58 223.832 L2108.26 223.832 L2108.26 227.768 L2078.58 227.768 L2078.58 223.832 Z" fill="#000000" fill-rule="nonzero" fill-opacity="1" /><path clip-path="url(#clip480)" d="M2117.17 201.356 L2139.39 201.356 L2139.39 203.346 L2126.85 235.916 L2121.96 235.916 L2133.77 205.291 L2117.17 205.291 L2117.17 201.356 Z" fill="#000000" fill-rule="nonzero" fill-opacity="1" /><path clip-path="url(#clip480)" d="M2163.17 201.356 L2170.13 201.356 L2178.95 224.874 L2187.82 201.356 L2194.79 201.356 L2194.79 235.916 L2190.23 235.916 L2190.23 205.569 L2181.32 229.272 L2176.62 229.272 L2167.7 205.569 L2167.7 235.916 L2163.17 235.916 L2163.17 201.356 Z" fill="#000000" fill-rule="nonzero" fill-opacity="1" /><path clip-path="url(#clip480)" d="M2226.06 221.888 L2226.06 223.971 L2206.48 223.971 Q2206.75 228.369 2209.12 230.684 Q2211.5 232.976 2215.74 232.976 Q2218.19 232.976 2220.48 232.374 Q2222.8 231.772 2225.06 230.569 L2225.06 234.596 Q2222.77 235.568 2220.37 236.078 Q2217.96 236.587 2215.48 236.587 Q2209.28 236.587 2205.64 232.976 Q2202.03 229.365 2202.03 223.207 Q2202.03 216.842 2205.46 213.115 Q2208.91 209.365 2214.74 209.365 Q2219.97 209.365 2223 212.745 Q2226.06 216.101 2226.06 221.888 M2221.8 220.638 Q2221.75 217.143 2219.83 215.059 Q2217.94 212.976 2214.79 212.976 Q2211.22 212.976 2209.07 214.99 Q2206.94 217.004 2206.62 220.661 L2221.8 220.638 Z" fill="#000000" fill-rule="nonzero" fill-opacity="1" /><path clip-path="url(#clip480)" d="M2242.15 235.916 L2228.95 201.356 L2233.84 201.356 L2244.79 230.453 L2255.76 201.356 L2260.62 201.356 L2247.45 235.916 L2242.15 235.916 Z" fill="#000000" fill-rule="nonzero" fill-opacity="1" /></svg>
