<?xml version="1.0" encoding="utf-8"?>
<svg xmlns="http://www.w3.org/2000/svg" xmlns:xlink="http://www.w3.org/1999/xlink" width="600" height="400" viewBox="0 0 2400 1600">
<defs>
  <clipPath id="clip450">
    <rect x="0" y="0" width="2400" height="1600"/>
  </clipPath>
</defs>
<path clip-path="url(#clip450)" d="M0 1600 L2400 1600 L2400 0 L0 0  Z" fill="#ffffff" fill-rule="evenodd" fill-opacity="1"/>
<defs>
  <clipPath id="clip451">
    <rect x="1328" y="748" width="1049" height="781"/>
  </clipPath>
</defs>
<path clip-path="url(#clip450)" d="M249.542 1423.18 L2352.76 1423.18 L2352.76 123.472 L249.542 123.472  Z" fill="#ffffff" fill-rule="evenodd" fill-opacity="1"/>
<defs>
  <clipPath id="clip452">
    <rect x="249" y="123" width="2104" height="1301"/>
  </clipPath>
</defs>
<polyline clip-path="url(#clip452)" style="stroke:#000000; stroke-linecap:round; stroke-linejoin:round; stroke-width:2; stroke-opacity:0.1; fill:none" points="521.656,1423.18 521.656,123.472 "/>
<polyline clip-path="url(#clip452)" style="stroke:#000000; stroke-linecap:round; stroke-linejoin:round; stroke-width:2; stroke-opacity:0.1; fill:none" points="875.971,1423.18 875.971,123.472 "/>
<polyline clip-path="url(#clip452)" style="stroke:#000000; stroke-linecap:round; stroke-linejoin:round; stroke-width:2; stroke-opacity:0.1; fill:none" points="1230.29,1423.18 1230.29,123.472 "/>
<polyline clip-path="url(#clip452)" style="stroke:#000000; stroke-linecap:round; stroke-linejoin:round; stroke-width:2; stroke-opacity:0.1; fill:none" points="1584.6,1423.18 1584.6,123.472 "/>
<polyline clip-path="url(#clip452)" style="stroke:#000000; stroke-linecap:round; stroke-linejoin:round; stroke-width:2; stroke-opacity:0.1; fill:none" points="1938.92,1423.18 1938.92,123.472 "/>
<polyline clip-path="url(#clip452)" style="stroke:#000000; stroke-linecap:round; stroke-linejoin:round; stroke-width:2; stroke-opacity:0.1; fill:none" points="2293.23,1423.18 2293.23,123.472 "/>
<polyline clip-path="url(#clip452)" style="stroke:#000000; stroke-linecap:round; stroke-linejoin:round; stroke-width:2; stroke-opacity:0.1; fill:none" points="249.542,1386.38 2352.76,1386.38 "/>
<polyline clip-path="url(#clip452)" style="stroke:#000000; stroke-linecap:round; stroke-linejoin:round; stroke-width:2; stroke-opacity:0.1; fill:none" points="249.542,1038.99 2352.76,1038.99 "/>
<polyline clip-path="url(#clip452)" style="stroke:#000000; stroke-linecap:round; stroke-linejoin:round; stroke-width:2; stroke-opacity:0.1; fill:none" points="249.542,691.607 2352.76,691.607 "/>
<polyline clip-path="url(#clip452)" style="stroke:#000000; stroke-linecap:round; stroke-linejoin:round; stroke-width:2; stroke-opacity:0.1; fill:none" points="249.542,344.223 2352.76,344.223 "/>
<polyline clip-path="url(#clip450)" style="stroke:#000000; stroke-linecap:round; stroke-linejoin:round; stroke-width:4; stroke-opacity:1; fill:none" points="249.542,1423.18 2352.76,1423.18 "/>
<polyline clip-path="url(#clip450)" style="stroke:#000000; stroke-linecap:round; stroke-linejoin:round; stroke-width:4; stroke-opacity:1; fill:none" points="521.656,1423.18 521.656,1404.28 "/>
<polyline clip-path="url(#clip450)" style="stroke:#000000; stroke-linecap:round; stroke-linejoin:round; stroke-width:4; stroke-opacity:1; fill:none" points="875.971,1423.18 875.971,1404.28 "/>
<polyline clip-path="url(#clip450)" style="stroke:#000000; stroke-linecap:round; stroke-linejoin:round; stroke-width:4; stroke-opacity:1; fill:none" points="1230.29,1423.18 1230.29,1404.28 "/>
<polyline clip-path="url(#clip450)" style="stroke:#000000; stroke-linecap:round; stroke-linejoin:round; stroke-width:4; stroke-opacity:1; fill:none" points="1584.6,1423.18 1584.6,1404.28 "/>
<polyline clip-path="url(#clip450)" style="stroke:#000000; stroke-linecap:round; stroke-linejoin:round; stroke-width:4; stroke-opacity:1; fill:none" points="1938.92,1423.18 1938.92,1404.28 "/>
<polyline clip-path="url(#clip450)" style="stroke:#000000; stroke-linecap:round; stroke-linejoin:round; stroke-width:4; stroke-opacity:1; fill:none" points="2293.23,1423.18 2293.23,1404.28 "/>
<path clip-path="url(#clip450)" d="M496.355 1451.02 L514.712 1451.02 L514.712 1454.96 L500.638 1454.96 L500.638 1463.43 Q501.656 1463.08 502.675 1462.92 Q503.693 1462.73 504.712 1462.73 Q510.499 1462.73 513.878 1465.9 Q517.258 1469.08 517.258 1474.49 Q517.258 1480.07 513.786 1483.17 Q510.313 1486.25 503.994 1486.25 Q501.818 1486.25 499.55 1485.88 Q497.304 1485.51 494.897 1484.77 L494.897 1480.07 Q496.98 1481.2 499.202 1481.76 Q501.425 1482.32 503.901 1482.32 Q507.906 1482.32 510.244 1480.21 Q512.582 1478.1 512.582 1474.49 Q512.582 1470.88 510.244 1468.77 Q507.906 1466.67 503.901 1466.67 Q502.026 1466.67 500.151 1467.08 Q498.3 1467.5 496.355 1468.38 L496.355 1451.02 Z" fill="#000000" fill-rule="nonzero" fill-opacity="1" /><path clip-path="url(#clip450)" d="M536.471 1454.1 Q532.86 1454.1 531.031 1457.66 Q529.225 1461.2 529.225 1468.33 Q529.225 1475.44 531.031 1479.01 Q532.86 1482.55 536.471 1482.55 Q540.105 1482.55 541.91 1479.01 Q543.739 1475.44 543.739 1468.33 Q543.739 1461.2 541.91 1457.66 Q540.105 1454.1 536.471 1454.1 M536.471 1450.39 Q542.281 1450.39 545.336 1455 Q548.415 1459.58 548.415 1468.33 Q548.415 1477.06 545.336 1481.67 Q542.281 1486.25 536.471 1486.25 Q530.661 1486.25 527.582 1481.67 Q524.526 1477.06 524.526 1468.33 Q524.526 1459.58 527.582 1455 Q530.661 1450.39 536.471 1450.39 Z" fill="#000000" fill-rule="nonzero" fill-opacity="1" /><path clip-path="url(#clip450)" d="M835.578 1481.64 L843.217 1481.64 L843.217 1455.28 L834.906 1456.95 L834.906 1452.69 L843.17 1451.02 L847.846 1451.02 L847.846 1481.64 L855.485 1481.64 L855.485 1485.58 L835.578 1485.58 L835.578 1481.64 Z" fill="#000000" fill-rule="nonzero" fill-opacity="1" /><path clip-path="url(#clip450)" d="M874.929 1454.1 Q871.318 1454.1 869.49 1457.66 Q867.684 1461.2 867.684 1468.33 Q867.684 1475.44 869.49 1479.01 Q871.318 1482.55 874.929 1482.55 Q878.564 1482.55 880.369 1479.01 Q882.198 1475.44 882.198 1468.33 Q882.198 1461.2 880.369 1457.66 Q878.564 1454.1 874.929 1454.1 M874.929 1450.39 Q880.739 1450.39 883.795 1455 Q886.874 1459.58 886.874 1468.33 Q886.874 1477.06 883.795 1481.67 Q880.739 1486.25 874.929 1486.25 Q869.119 1486.25 866.04 1481.67 Q862.985 1477.06 862.985 1468.33 Q862.985 1459.58 866.04 1455 Q869.119 1450.39 874.929 1450.39 Z" fill="#000000" fill-rule="nonzero" fill-opacity="1" /><path clip-path="url(#clip450)" d="M905.091 1454.1 Q901.48 1454.1 899.651 1457.66 Q897.846 1461.2 897.846 1468.33 Q897.846 1475.44 899.651 1479.01 Q901.48 1482.55 905.091 1482.55 Q908.725 1482.55 910.531 1479.01 Q912.36 1475.44 912.36 1468.33 Q912.36 1461.2 910.531 1457.66 Q908.725 1454.1 905.091 1454.1 M905.091 1450.39 Q910.901 1450.39 913.957 1455 Q917.036 1459.58 917.036 1468.33 Q917.036 1477.06 913.957 1481.67 Q910.901 1486.25 905.091 1486.25 Q899.281 1486.25 896.202 1481.67 Q893.147 1477.06 893.147 1468.33 Q893.147 1459.58 896.202 1455 Q899.281 1450.39 905.091 1450.39 Z" fill="#000000" fill-rule="nonzero" fill-opacity="1" /><path clip-path="url(#clip450)" d="M1189.89 1481.64 L1197.53 1481.64 L1197.53 1455.28 L1189.22 1456.95 L1189.22 1452.69 L1197.49 1451.02 L1202.16 1451.02 L1202.16 1481.64 L1209.8 1481.64 L1209.8 1485.58 L1189.89 1485.58 L1189.89 1481.64 Z" fill="#000000" fill-rule="nonzero" fill-opacity="1" /><path clip-path="url(#clip450)" d="M1219.29 1451.02 L1237.65 1451.02 L1237.65 1454.96 L1223.57 1454.96 L1223.57 1463.43 Q1224.59 1463.08 1225.61 1462.92 Q1226.63 1462.73 1227.65 1462.73 Q1233.43 1462.73 1236.81 1465.9 Q1240.19 1469.08 1240.19 1474.49 Q1240.19 1480.07 1236.72 1483.17 Q1233.25 1486.25 1226.93 1486.25 Q1224.75 1486.25 1222.49 1485.88 Q1220.24 1485.51 1217.83 1484.77 L1217.83 1480.07 Q1219.92 1481.2 1222.14 1481.76 Q1224.36 1482.32 1226.84 1482.32 Q1230.84 1482.32 1233.18 1480.21 Q1235.52 1478.1 1235.52 1474.49 Q1235.52 1470.88 1233.18 1468.77 Q1230.84 1466.67 1226.84 1466.67 Q1224.96 1466.67 1223.09 1467.08 Q1221.24 1467.5 1219.29 1468.38 L1219.29 1451.02 Z" fill="#000000" fill-rule="nonzero" fill-opacity="1" /><path clip-path="url(#clip450)" d="M1259.41 1454.1 Q1255.8 1454.1 1253.97 1457.66 Q1252.16 1461.2 1252.16 1468.33 Q1252.16 1475.44 1253.97 1479.01 Q1255.8 1482.55 1259.41 1482.55 Q1263.04 1482.55 1264.85 1479.01 Q1266.67 1475.44 1266.67 1468.33 Q1266.67 1461.2 1264.85 1457.66 Q1263.04 1454.1 1259.41 1454.1 M1259.41 1450.39 Q1265.22 1450.39 1268.27 1455 Q1271.35 1459.58 1271.35 1468.33 Q1271.35 1477.06 1268.27 1481.67 Q1265.22 1486.25 1259.41 1486.25 Q1253.6 1486.25 1250.52 1481.67 Q1247.46 1477.06 1247.46 1468.33 Q1247.46 1459.58 1250.52 1455 Q1253.6 1450.39 1259.41 1450.39 Z" fill="#000000" fill-rule="nonzero" fill-opacity="1" /><path clip-path="url(#clip450)" d="M1548.29 1481.64 L1564.61 1481.64 L1564.61 1485.58 L1542.67 1485.58 L1542.67 1481.64 Q1545.33 1478.89 1549.91 1474.26 Q1554.52 1469.61 1555.7 1468.27 Q1557.95 1465.74 1558.83 1464.01 Q1559.73 1462.25 1559.73 1460.56 Q1559.73 1457.8 1557.78 1456.07 Q1555.86 1454.33 1552.76 1454.33 Q1550.56 1454.33 1548.11 1455.09 Q1545.68 1455.86 1542.9 1457.41 L1542.9 1452.69 Q1545.72 1451.55 1548.18 1450.97 Q1550.63 1450.39 1552.67 1450.39 Q1558.04 1450.39 1561.23 1453.08 Q1564.43 1455.77 1564.43 1460.26 Q1564.43 1462.39 1563.62 1464.31 Q1562.83 1466.2 1560.72 1468.8 Q1560.15 1469.47 1557.04 1472.69 Q1553.94 1475.88 1548.29 1481.64 Z" fill="#000000" fill-rule="nonzero" fill-opacity="1" /><path clip-path="url(#clip450)" d="M1584.43 1454.1 Q1580.82 1454.1 1578.99 1457.66 Q1577.18 1461.2 1577.18 1468.33 Q1577.18 1475.44 1578.99 1479.01 Q1580.82 1482.55 1584.43 1482.55 Q1588.06 1482.55 1589.87 1479.01 Q1591.7 1475.44 1591.7 1468.33 Q1591.7 1461.2 1589.87 1457.66 Q1588.06 1454.1 1584.43 1454.1 M1584.43 1450.39 Q1590.24 1450.39 1593.29 1455 Q1596.37 1459.58 1596.37 1468.33 Q1596.37 1477.06 1593.29 1481.67 Q1590.24 1486.25 1584.43 1486.25 Q1578.62 1486.25 1575.54 1481.67 Q1572.48 1477.06 1572.48 1468.33 Q1572.48 1459.58 1575.54 1455 Q1578.62 1450.39 1584.43 1450.39 Z" fill="#000000" fill-rule="nonzero" fill-opacity="1" /><path clip-path="url(#clip450)" d="M1614.59 1454.1 Q1610.98 1454.1 1609.15 1457.66 Q1607.34 1461.2 1607.34 1468.33 Q1607.34 1475.44 1609.15 1479.01 Q1610.98 1482.55 1614.59 1482.55 Q1618.22 1482.55 1620.03 1479.01 Q1621.86 1475.44 1621.86 1468.33 Q1621.86 1461.2 1620.03 1457.66 Q1618.22 1454.1 1614.59 1454.1 M1614.59 1450.39 Q1620.4 1450.39 1623.45 1455 Q1626.53 1459.58 1626.53 1468.33 Q1626.53 1477.06 1623.45 1481.67 Q1620.4 1486.25 1614.59 1486.25 Q1608.78 1486.25 1605.7 1481.67 Q1602.64 1477.06 1602.64 1468.33 Q1602.64 1459.58 1605.7 1455 Q1608.78 1450.39 1614.59 1450.39 Z" fill="#000000" fill-rule="nonzero" fill-opacity="1" /><path clip-path="url(#clip450)" d="M1902.61 1481.64 L1918.93 1481.64 L1918.93 1485.58 L1896.98 1485.58 L1896.98 1481.64 Q1899.65 1478.89 1904.23 1474.26 Q1908.84 1469.61 1910.02 1468.27 Q1912.26 1465.74 1913.14 1464.01 Q1914.04 1462.25 1914.04 1460.56 Q1914.04 1457.8 1912.1 1456.07 Q1910.18 1454.33 1907.08 1454.33 Q1904.88 1454.33 1902.42 1455.09 Q1899.99 1455.86 1897.21 1457.41 L1897.21 1452.69 Q1900.04 1451.55 1902.49 1450.97 Q1904.95 1450.39 1906.98 1450.39 Q1912.35 1450.39 1915.55 1453.08 Q1918.74 1455.77 1918.74 1460.26 Q1918.74 1462.39 1917.93 1464.31 Q1917.15 1466.2 1915.04 1468.8 Q1914.46 1469.47 1911.36 1472.69 Q1908.26 1475.88 1902.61 1481.64 Z" fill="#000000" fill-rule="nonzero" fill-opacity="1" /><path clip-path="url(#clip450)" d="M1928.79 1451.02 L1947.15 1451.02 L1947.15 1454.96 L1933.07 1454.96 L1933.07 1463.43 Q1934.09 1463.08 1935.11 1462.92 Q1936.13 1462.73 1937.15 1462.73 Q1942.93 1462.73 1946.31 1465.9 Q1949.69 1469.08 1949.69 1474.49 Q1949.69 1480.07 1946.22 1483.17 Q1942.75 1486.25 1936.43 1486.25 Q1934.25 1486.25 1931.98 1485.88 Q1929.74 1485.51 1927.33 1484.77 L1927.33 1480.07 Q1929.41 1481.2 1931.64 1481.76 Q1933.86 1482.32 1936.33 1482.32 Q1940.34 1482.32 1942.68 1480.21 Q1945.02 1478.1 1945.02 1474.49 Q1945.02 1470.88 1942.68 1468.77 Q1940.34 1466.67 1936.33 1466.67 Q1934.46 1466.67 1932.58 1467.08 Q1930.73 1467.5 1928.79 1468.38 L1928.79 1451.02 Z" fill="#000000" fill-rule="nonzero" fill-opacity="1" /><path clip-path="url(#clip450)" d="M1968.9 1454.1 Q1965.29 1454.1 1963.46 1457.66 Q1961.66 1461.2 1961.66 1468.33 Q1961.66 1475.44 1963.46 1479.01 Q1965.29 1482.55 1968.9 1482.55 Q1972.54 1482.55 1974.34 1479.01 Q1976.17 1475.44 1976.17 1468.33 Q1976.17 1461.2 1974.34 1457.66 Q1972.54 1454.1 1968.9 1454.1 M1968.9 1450.39 Q1974.71 1450.39 1977.77 1455 Q1980.85 1459.58 1980.85 1468.33 Q1980.85 1477.06 1977.77 1481.67 Q1974.71 1486.25 1968.9 1486.25 Q1963.09 1486.25 1960.02 1481.67 Q1956.96 1477.06 1956.96 1468.33 Q1956.96 1459.58 1960.02 1455 Q1963.09 1450.39 1968.9 1450.39 Z" fill="#000000" fill-rule="nonzero" fill-opacity="1" /><path clip-path="url(#clip450)" d="M2266.99 1466.95 Q2270.35 1467.66 2272.22 1469.93 Q2274.12 1472.2 2274.12 1475.53 Q2274.12 1480.65 2270.6 1483.45 Q2267.09 1486.25 2260.6 1486.25 Q2258.43 1486.25 2256.11 1485.81 Q2253.82 1485.39 2251.37 1484.54 L2251.37 1480.02 Q2253.31 1481.16 2255.63 1481.74 Q2257.94 1482.32 2260.46 1482.32 Q2264.86 1482.32 2267.15 1480.58 Q2269.47 1478.84 2269.47 1475.53 Q2269.47 1472.48 2267.32 1470.77 Q2265.19 1469.03 2261.37 1469.03 L2257.34 1469.03 L2257.34 1465.19 L2261.55 1465.19 Q2265 1465.19 2266.83 1463.82 Q2268.66 1462.43 2268.66 1459.84 Q2268.66 1457.18 2266.76 1455.77 Q2264.89 1454.33 2261.37 1454.33 Q2259.45 1454.33 2257.25 1454.75 Q2255.05 1455.16 2252.41 1456.04 L2252.41 1451.88 Q2255.07 1451.14 2257.39 1450.77 Q2259.72 1450.39 2261.78 1450.39 Q2267.11 1450.39 2270.21 1452.83 Q2273.31 1455.23 2273.31 1459.35 Q2273.31 1462.22 2271.67 1464.21 Q2270.03 1466.18 2266.99 1466.95 Z" fill="#000000" fill-rule="nonzero" fill-opacity="1" /><path clip-path="url(#clip450)" d="M2292.99 1454.1 Q2289.38 1454.1 2287.55 1457.66 Q2285.74 1461.2 2285.74 1468.33 Q2285.74 1475.44 2287.55 1479.01 Q2289.38 1482.55 2292.99 1482.55 Q2296.62 1482.55 2298.43 1479.01 Q2300.26 1475.44 2300.26 1468.33 Q2300.26 1461.2 2298.43 1457.66 Q2296.62 1454.1 2292.99 1454.1 M2292.99 1450.39 Q2298.8 1450.39 2301.85 1455 Q2304.93 1459.58 2304.93 1468.33 Q2304.93 1477.06 2301.85 1481.67 Q2298.8 1486.25 2292.99 1486.25 Q2287.18 1486.25 2284.1 1481.67 Q2281.04 1477.06 2281.04 1468.33 Q2281.04 1459.58 2284.1 1455 Q2287.18 1450.39 2292.99 1450.39 Z" fill="#000000" fill-rule="nonzero" fill-opacity="1" /><path clip-path="url(#clip450)" d="M2323.15 1454.1 Q2319.54 1454.1 2317.71 1457.66 Q2315.9 1461.2 2315.9 1468.33 Q2315.9 1475.44 2317.71 1479.01 Q2319.54 1482.55 2323.15 1482.55 Q2326.78 1482.55 2328.59 1479.01 Q2330.42 1475.44 2330.42 1468.33 Q2330.42 1461.2 2328.59 1457.66 Q2326.78 1454.1 2323.15 1454.1 M2323.15 1450.39 Q2328.96 1450.39 2332.02 1455 Q2335.09 1459.58 2335.09 1468.33 Q2335.09 1477.06 2332.02 1481.67 Q2328.96 1486.25 2323.15 1486.25 Q2317.34 1486.25 2314.26 1481.67 Q2311.21 1477.06 2311.21 1468.33 Q2311.21 1459.58 2314.26 1455 Q2317.34 1450.39 2323.15 1450.39 Z" fill="#000000" fill-rule="nonzero" fill-opacity="1" /><path clip-path="url(#clip450)" d="M1177.69 1520.52 L1217.89 1520.52 L1217.89 1525.93 L1201.02 1525.93 L1201.02 1568.04 L1194.56 1568.04 L1194.56 1525.93 L1177.69 1525.93 L1177.69 1520.52 Z" fill="#000000" fill-rule="nonzero" fill-opacity="1" /><path clip-path="url(#clip450)" d="M1244.02 1518.52 L1257.51 1518.52 L1257.51 1523.07 L1249.87 1523.07 L1249.87 1572.09 L1257.51 1572.09 L1257.51 1576.64 L1244.02 1576.64 L1244.02 1518.52 Z" fill="#000000" fill-rule="nonzero" fill-opacity="1" /><path clip-path="url(#clip450)" d="M1270.24 1520.52 L1279.82 1520.52 L1291.95 1552.86 L1304.14 1520.52 L1313.72 1520.52 L1313.72 1568.04 L1307.45 1568.04 L1307.45 1526.32 L1295.2 1558.91 L1288.74 1558.91 L1276.48 1526.32 L1276.48 1568.04 L1270.24 1568.04 L1270.24 1520.52 Z" fill="#000000" fill-rule="nonzero" fill-opacity="1" /><path clip-path="url(#clip450)" d="M1356.72 1548.76 L1356.72 1551.62 L1329.79 1551.62 Q1330.18 1557.67 1333.42 1560.85 Q1336.7 1564 1342.53 1564 Q1345.9 1564 1349.05 1563.17 Q1352.23 1562.35 1355.35 1560.69 L1355.35 1566.23 Q1352.2 1567.57 1348.89 1568.27 Q1345.58 1568.97 1342.18 1568.97 Q1333.65 1568.97 1328.65 1564 Q1323.68 1559.04 1323.68 1550.57 Q1323.68 1541.82 1328.39 1536.69 Q1333.14 1531.54 1341.16 1531.54 Q1348.35 1531.54 1352.52 1536.18 Q1356.72 1540.8 1356.72 1548.76 M1350.87 1547.04 Q1350.8 1542.23 1348.16 1539.37 Q1345.55 1536.5 1341.22 1536.5 Q1336.32 1536.5 1333.36 1539.27 Q1330.43 1542.04 1329.99 1547.07 L1350.87 1547.04 Z" fill="#000000" fill-rule="nonzero" fill-opacity="1" /><path clip-path="url(#clip450)" d="M1378.84 1568.04 L1360.7 1520.52 L1367.42 1520.52 L1382.47 1560.53 L1397.56 1520.52 L1404.24 1520.52 L1386.13 1568.04 L1378.84 1568.04 Z" fill="#000000" fill-rule="nonzero" fill-opacity="1" /><path clip-path="url(#clip450)" d="M1424.61 1518.52 L1424.61 1576.64 L1411.12 1576.64 L1411.12 1572.09 L1418.72 1572.09 L1418.72 1523.07 L1411.12 1523.07 L1411.12 1518.52 L1424.61 1518.52 Z" fill="#000000" fill-rule="nonzero" fill-opacity="1" /><polyline clip-path="url(#clip450)" style="stroke:#000000; stroke-linecap:round; stroke-linejoin:round; stroke-width:4; stroke-opacity:1; fill:none" points="249.542,1423.18 249.542,123.472 "/>
<polyline clip-path="url(#clip450)" style="stroke:#000000; stroke-linecap:round; stroke-linejoin:round; stroke-width:4; stroke-opacity:1; fill:none" points="249.542,1386.38 268.44,1386.38 "/>
<polyline clip-path="url(#clip450)" style="stroke:#000000; stroke-linecap:round; stroke-linejoin:round; stroke-width:4; stroke-opacity:1; fill:none" points="249.542,1038.99 268.44,1038.99 "/>
<polyline clip-path="url(#clip450)" style="stroke:#000000; stroke-linecap:round; stroke-linejoin:round; stroke-width:4; stroke-opacity:1; fill:none" points="249.542,691.607 268.44,691.607 "/>
<polyline clip-path="url(#clip450)" style="stroke:#000000; stroke-linecap:round; stroke-linejoin:round; stroke-width:4; stroke-opacity:1; fill:none" points="249.542,344.223 268.44,344.223 "/>
<path clip-path="url(#clip450)" d="M126.205 1372.18 Q122.593 1372.18 120.765 1375.74 Q118.959 1379.28 118.959 1386.41 Q118.959 1393.52 120.765 1397.08 Q122.593 1400.62 126.205 1400.62 Q129.839 1400.62 131.644 1397.08 Q133.473 1393.52 133.473 1386.41 Q133.473 1379.28 131.644 1375.74 Q129.839 1372.18 126.205 1372.18 M126.205 1368.47 Q132.015 1368.47 135.07 1373.08 Q138.149 1377.66 138.149 1386.41 Q138.149 1395.14 135.07 1399.74 Q132.015 1404.33 126.205 1404.33 Q120.394 1404.33 117.316 1399.74 Q114.26 1395.14 114.26 1386.41 Q114.26 1377.66 117.316 1373.08 Q120.394 1368.47 126.205 1368.47 Z" fill="#000000" fill-rule="nonzero" fill-opacity="1" /><path clip-path="url(#clip450)" d="M146.366 1397.78 L151.251 1397.78 L151.251 1403.66 L146.366 1403.66 L146.366 1397.78 Z" fill="#000000" fill-rule="nonzero" fill-opacity="1" /><path clip-path="url(#clip450)" d="M171.436 1372.18 Q167.825 1372.18 165.996 1375.74 Q164.19 1379.28 164.19 1386.41 Q164.19 1393.52 165.996 1397.08 Q167.825 1400.62 171.436 1400.62 Q175.07 1400.62 176.876 1397.08 Q178.704 1393.52 178.704 1386.41 Q178.704 1379.28 176.876 1375.74 Q175.07 1372.18 171.436 1372.18 M171.436 1368.47 Q177.246 1368.47 180.301 1373.08 Q183.38 1377.66 183.38 1386.41 Q183.38 1395.14 180.301 1399.74 Q177.246 1404.33 171.436 1404.33 Q165.626 1404.33 162.547 1399.74 Q159.491 1395.14 159.491 1386.41 Q159.491 1377.66 162.547 1373.08 Q165.626 1368.47 171.436 1368.47 Z" fill="#000000" fill-rule="nonzero" fill-opacity="1" /><path clip-path="url(#clip450)" d="M201.598 1372.18 Q197.987 1372.18 196.158 1375.74 Q194.352 1379.28 194.352 1386.41 Q194.352 1393.52 196.158 1397.08 Q197.987 1400.62 201.598 1400.62 Q205.232 1400.62 207.037 1397.08 Q208.866 1393.52 208.866 1386.41 Q208.866 1379.28 207.037 1375.74 Q205.232 1372.18 201.598 1372.18 M201.598 1368.47 Q207.408 1368.47 210.463 1373.08 Q213.542 1377.66 213.542 1386.41 Q213.542 1395.14 210.463 1399.74 Q207.408 1404.33 201.598 1404.33 Q195.787 1404.33 192.709 1399.74 Q189.653 1395.14 189.653 1386.41 Q189.653 1377.66 192.709 1373.08 Q195.787 1368.47 201.598 1368.47 Z" fill="#000000" fill-rule="nonzero" fill-opacity="1" /><path clip-path="url(#clip450)" d="M127.431 1024.79 Q123.82 1024.79 121.992 1028.36 Q120.186 1031.9 120.186 1039.03 Q120.186 1046.13 121.992 1049.7 Q123.82 1053.24 127.431 1053.24 Q131.066 1053.24 132.871 1049.7 Q134.7 1046.13 134.7 1039.03 Q134.7 1031.9 132.871 1028.36 Q131.066 1024.79 127.431 1024.79 M127.431 1021.09 Q133.242 1021.09 136.297 1025.69 Q139.376 1030.28 139.376 1039.03 Q139.376 1047.75 136.297 1052.36 Q133.242 1056.94 127.431 1056.94 Q121.621 1056.94 118.543 1052.36 Q115.487 1047.75 115.487 1039.03 Q115.487 1030.28 118.543 1025.69 Q121.621 1021.09 127.431 1021.09 Z" fill="#000000" fill-rule="nonzero" fill-opacity="1" /><path clip-path="url(#clip450)" d="M147.593 1050.39 L152.478 1050.39 L152.478 1056.27 L147.593 1056.27 L147.593 1050.39 Z" fill="#000000" fill-rule="nonzero" fill-opacity="1" /><path clip-path="url(#clip450)" d="M172.663 1024.79 Q169.052 1024.79 167.223 1028.36 Q165.417 1031.9 165.417 1039.03 Q165.417 1046.13 167.223 1049.7 Q169.052 1053.24 172.663 1053.24 Q176.297 1053.24 178.102 1049.7 Q179.931 1046.13 179.931 1039.03 Q179.931 1031.9 178.102 1028.36 Q176.297 1024.79 172.663 1024.79 M172.663 1021.09 Q178.473 1021.09 181.528 1025.69 Q184.607 1030.28 184.607 1039.03 Q184.607 1047.75 181.528 1052.36 Q178.473 1056.94 172.663 1056.94 Q166.852 1056.94 163.774 1052.36 Q160.718 1047.75 160.718 1039.03 Q160.718 1030.28 163.774 1025.69 Q166.852 1021.09 172.663 1021.09 Z" fill="#000000" fill-rule="nonzero" fill-opacity="1" /><path clip-path="url(#clip450)" d="M193.635 1052.34 L201.274 1052.34 L201.274 1025.97 L192.963 1027.64 L192.963 1023.38 L201.227 1021.71 L205.903 1021.71 L205.903 1052.34 L213.542 1052.34 L213.542 1056.27 L193.635 1056.27 L193.635 1052.34 Z" fill="#000000" fill-rule="nonzero" fill-opacity="1" /><path clip-path="url(#clip450)" d="M127.802 677.406 Q124.191 677.406 122.362 680.971 Q120.556 684.513 120.556 691.642 Q120.556 698.749 122.362 702.313 Q124.191 705.855 127.802 705.855 Q131.436 705.855 133.242 702.313 Q135.07 698.749 135.07 691.642 Q135.07 684.513 133.242 680.971 Q131.436 677.406 127.802 677.406 M127.802 673.702 Q133.612 673.702 136.667 678.309 Q139.746 682.892 139.746 691.642 Q139.746 700.369 136.667 704.975 Q133.612 709.559 127.802 709.559 Q121.992 709.559 118.913 704.975 Q115.857 700.369 115.857 691.642 Q115.857 682.892 118.913 678.309 Q121.992 673.702 127.802 673.702 Z" fill="#000000" fill-rule="nonzero" fill-opacity="1" /><path clip-path="url(#clip450)" d="M147.964 703.008 L152.848 703.008 L152.848 708.887 L147.964 708.887 L147.964 703.008 Z" fill="#000000" fill-rule="nonzero" fill-opacity="1" /><path clip-path="url(#clip450)" d="M173.033 677.406 Q169.422 677.406 167.593 680.971 Q165.788 684.513 165.788 691.642 Q165.788 698.749 167.593 702.313 Q169.422 705.855 173.033 705.855 Q176.667 705.855 178.473 702.313 Q180.301 698.749 180.301 691.642 Q180.301 684.513 178.473 680.971 Q176.667 677.406 173.033 677.406 M173.033 673.702 Q178.843 673.702 181.899 678.309 Q184.977 682.892 184.977 691.642 Q184.977 700.369 181.899 704.975 Q178.843 709.559 173.033 709.559 Q167.223 709.559 164.144 704.975 Q161.089 700.369 161.089 691.642 Q161.089 682.892 164.144 678.309 Q167.223 673.702 173.033 673.702 Z" fill="#000000" fill-rule="nonzero" fill-opacity="1" /><path clip-path="url(#clip450)" d="M197.223 704.952 L213.542 704.952 L213.542 708.887 L191.598 708.887 L191.598 704.952 Q194.26 702.198 198.843 697.568 Q203.449 692.915 204.63 691.573 Q206.875 689.05 207.755 687.313 Q208.658 685.554 208.658 683.864 Q208.658 681.11 206.713 679.374 Q204.792 677.638 201.69 677.638 Q199.491 677.638 197.037 678.401 Q194.607 679.165 191.829 680.716 L191.829 675.994 Q194.653 674.86 197.107 674.281 Q199.561 673.702 201.598 673.702 Q206.968 673.702 210.162 676.388 Q213.357 679.073 213.357 683.563 Q213.357 685.693 212.547 687.614 Q211.76 689.513 209.653 692.105 Q209.074 692.776 205.973 695.994 Q202.871 699.188 197.223 704.952 Z" fill="#000000" fill-rule="nonzero" fill-opacity="1" /><path clip-path="url(#clip450)" d="M126.853 330.022 Q123.242 330.022 121.413 333.586 Q119.607 337.128 119.607 344.258 Q119.607 351.364 121.413 354.929 Q123.242 358.47 126.853 358.47 Q130.487 358.47 132.292 354.929 Q134.121 351.364 134.121 344.258 Q134.121 337.128 132.292 333.586 Q130.487 330.022 126.853 330.022 M126.853 326.318 Q132.663 326.318 135.718 330.924 Q138.797 335.508 138.797 344.258 Q138.797 352.984 135.718 357.591 Q132.663 362.174 126.853 362.174 Q121.043 362.174 117.964 357.591 Q114.908 352.984 114.908 344.258 Q114.908 335.508 117.964 330.924 Q121.043 326.318 126.853 326.318 Z" fill="#000000" fill-rule="nonzero" fill-opacity="1" /><path clip-path="url(#clip450)" d="M147.015 355.623 L151.899 355.623 L151.899 361.503 L147.015 361.503 L147.015 355.623 Z" fill="#000000" fill-rule="nonzero" fill-opacity="1" /><path clip-path="url(#clip450)" d="M172.084 330.022 Q168.473 330.022 166.644 333.586 Q164.839 337.128 164.839 344.258 Q164.839 351.364 166.644 354.929 Q168.473 358.47 172.084 358.47 Q175.718 358.47 177.524 354.929 Q179.352 351.364 179.352 344.258 Q179.352 337.128 177.524 333.586 Q175.718 330.022 172.084 330.022 M172.084 326.318 Q177.894 326.318 180.95 330.924 Q184.028 335.508 184.028 344.258 Q184.028 352.984 180.95 357.591 Q177.894 362.174 172.084 362.174 Q166.274 362.174 163.195 357.591 Q160.14 352.984 160.14 344.258 Q160.14 335.508 163.195 330.924 Q166.274 326.318 172.084 326.318 Z" fill="#000000" fill-rule="nonzero" fill-opacity="1" /><path clip-path="url(#clip450)" d="M206.412 342.869 Q209.769 343.586 211.644 345.855 Q213.542 348.123 213.542 351.457 Q213.542 356.572 210.024 359.373 Q206.505 362.174 200.024 362.174 Q197.848 362.174 195.533 361.734 Q193.241 361.318 190.788 360.461 L190.788 355.947 Q192.732 357.082 195.047 357.66 Q197.362 358.239 199.885 358.239 Q204.283 358.239 206.574 356.503 Q208.889 354.767 208.889 351.457 Q208.889 348.401 206.737 346.688 Q204.607 344.952 200.787 344.952 L196.76 344.952 L196.76 341.109 L200.973 341.109 Q204.422 341.109 206.25 339.744 Q208.079 338.355 208.079 335.762 Q208.079 333.1 206.181 331.688 Q204.306 330.253 200.787 330.253 Q198.866 330.253 196.667 330.67 Q194.468 331.086 191.829 331.966 L191.829 327.799 Q194.491 327.059 196.806 326.688 Q199.144 326.318 201.204 326.318 Q206.528 326.318 209.63 328.748 Q212.732 331.156 212.732 335.276 Q212.732 338.147 211.088 340.137 Q209.445 342.105 206.412 342.869 Z" fill="#000000" fill-rule="nonzero" fill-opacity="1" /><path clip-path="url(#clip450)" d="M29.4065 993.309 L34.9447 993.309 Q33.6716 995.792 33.035 998.465 Q32.3984 1001.14 32.3984 1004 Q32.3984 1008.36 33.7352 1010.56 Q35.072 1012.72 37.7456 1012.72 Q39.7826 1012.72 40.9603 1011.16 Q42.1061 1009.61 43.1565 1004.89 L43.6021 1002.89 Q44.9389 996.651 47.3897 994.041 Q49.8086 991.399 54.1691 991.399 Q59.1344 991.399 62.0308 995.346 Q64.9272 999.261 64.9272 1006.14 Q64.9272 1009 64.3543 1012.12 Q63.8132 1015.21 62.6992 1018.64 L56.6518 1018.64 Q58.3387 1015.4 59.198 1012.25 Q60.0256 1009.1 60.0256 1006.01 Q60.0256 1001.87 58.6251 999.643 Q57.1929 997.415 54.6147 997.415 Q52.2276 997.415 50.9545 999.038 Q49.6813 1000.63 48.5037 1006.07 L48.0262 1008.11 Q46.8804 1013.55 44.5251 1015.97 Q42.138 1018.39 38.0002 1018.39 Q32.9713 1018.39 30.2341 1014.82 Q27.4968 1011.26 27.4968 1004.7 Q27.4968 1001.46 27.9743 998.592 Q28.4517 995.728 29.4065 993.309 Z" fill="#000000" fill-rule="nonzero" fill-opacity="1" /><path clip-path="url(#clip450)" d="M28.3562 982.073 L28.3562 976.217 L64.0042 976.217 L64.0042 982.073 L28.3562 982.073 M14.479 982.073 L14.479 976.217 L21.895 976.217 L21.895 982.073 L14.479 982.073 Z" fill="#000000" fill-rule="nonzero" fill-opacity="1" /><path clip-path="url(#clip450)" d="M45.7664 940.505 Q39.4007 940.505 35.8996 943.147 Q32.3984 945.757 32.3984 950.5 Q32.3984 955.21 35.8996 957.852 Q39.4007 960.462 45.7664 960.462 Q52.1003 960.462 55.6014 957.852 Q59.1026 955.21 59.1026 950.5 Q59.1026 945.757 55.6014 943.147 Q52.1003 940.505 45.7664 940.505 M59.58 934.649 Q68.683 934.649 73.1071 938.691 Q77.5631 942.733 77.5631 951.072 Q77.5631 954.16 77.0857 956.897 Q76.6401 959.634 75.6852 962.212 L69.9879 962.212 Q71.3884 959.634 72.0568 957.12 Q72.7252 954.605 72.7252 951.995 Q72.7252 946.234 69.7015 943.37 Q66.7096 940.505 60.6303 940.505 L57.7339 940.505 Q60.885 942.32 62.4446 945.152 Q64.0042 947.985 64.0042 951.932 Q64.0042 958.488 59.0071 962.499 Q54.01 966.509 45.7664 966.509 Q37.491 966.509 32.4939 962.499 Q27.4968 958.488 27.4968 951.932 Q27.4968 947.985 29.0564 945.152 Q30.616 942.32 33.7671 940.505 L28.3562 940.505 L28.3562 934.649 L59.58 934.649 Z" fill="#000000" fill-rule="nonzero" fill-opacity="1" /><path clip-path="url(#clip450)" d="M35.1993 894.831 Q31.2526 892.635 29.3747 889.58 Q27.4968 886.524 27.4968 882.386 Q27.4968 876.816 31.4117 873.793 Q35.2948 870.769 42.4881 870.769 L64.0042 870.769 L64.0042 876.657 L42.679 876.657 Q37.5546 876.657 35.072 878.472 Q32.5894 880.286 32.5894 884.01 Q32.5894 888.561 35.6131 891.203 Q38.6368 893.845 43.8567 893.845 L64.0042 893.845 L64.0042 899.733 L42.679 899.733 Q37.5228 899.733 35.072 901.547 Q32.5894 903.361 32.5894 907.149 Q32.5894 911.637 35.6449 914.279 Q38.6686 916.92 43.8567 916.92 L64.0042 916.92 L64.0042 922.809 L28.3562 922.809 L28.3562 916.92 L33.8944 916.92 Q30.616 914.915 29.0564 912.114 Q27.4968 909.313 27.4968 905.462 Q27.4968 901.579 29.4702 898.874 Q31.4436 896.136 35.1993 894.831 Z" fill="#000000" fill-rule="nonzero" fill-opacity="1" /><path clip-path="url(#clip450)" d="M46.0847 842.887 Q46.0847 849.985 47.7079 852.722 Q49.3312 855.46 53.2461 855.46 Q56.3653 855.46 58.2114 853.422 Q60.0256 851.354 60.0256 847.821 Q60.0256 842.951 56.5881 840.023 Q53.1188 837.063 47.3897 837.063 L46.0847 837.063 L46.0847 842.887 M43.6657 831.206 L64.0042 831.206 L64.0042 837.063 L58.5933 837.063 Q61.8398 839.068 63.3994 842.06 Q64.9272 845.052 64.9272 849.38 Q64.9272 854.855 61.8716 858.101 Q58.7843 861.316 53.6281 861.316 Q47.6125 861.316 44.5569 857.306 Q41.5014 853.263 41.5014 845.274 L41.5014 837.063 L40.9285 837.063 Q36.8862 837.063 34.6901 839.736 Q32.4621 842.378 32.4621 847.184 Q32.4621 850.24 33.1941 853.136 Q33.9262 856.032 35.3903 858.706 L29.9795 858.706 Q28.7381 855.491 28.1334 852.468 Q27.4968 849.444 27.4968 846.579 Q27.4968 838.845 31.5072 835.026 Q35.5176 831.206 43.6657 831.206 Z" fill="#000000" fill-rule="nonzero" fill-opacity="1" /><path clip-path="url(#clip450)" d="M14.479 798.964 L14.479 785.469 L19.0304 785.469 L19.0304 793.107 L68.0464 793.107 L68.0464 785.469 L72.5979 785.469 L72.5979 798.964 L14.479 798.964 Z" fill="#000000" fill-rule="nonzero" fill-opacity="1" /><path clip-path="url(#clip450)" d="M57.2247 740.336 L44.4614 740.336 L44.4614 750.839 L39.1779 750.839 L39.1779 733.97 L59.58 733.97 Q62.2218 737.694 63.5904 742.182 Q64.9272 746.67 64.9272 751.762 Q64.9272 762.902 58.4342 769.204 Q51.9093 775.474 40.2919 775.474 Q28.6427 775.474 22.1496 769.204 Q15.6248 762.902 15.6248 751.762 Q15.6248 747.115 16.7706 742.946 Q17.9164 738.744 20.1444 735.211 L26.9876 735.211 Q23.9639 738.776 22.4361 742.787 Q20.9083 746.797 20.9083 751.221 Q20.9083 759.942 25.7781 764.334 Q30.6479 768.695 40.2919 768.695 Q49.9041 768.695 54.7739 764.334 Q59.6436 759.942 59.6436 751.221 Q59.6436 747.815 59.0707 745.142 Q58.466 742.468 57.2247 740.336 Z" fill="#000000" fill-rule="nonzero" fill-opacity="1" /><path clip-path="url(#clip450)" d="M44.7161 691.988 L47.5806 691.988 L47.5806 718.915 Q53.6281 718.533 56.8109 715.287 Q59.9619 712.008 59.9619 706.184 Q59.9619 702.81 59.1344 699.659 Q58.3069 696.476 56.6518 693.357 L62.1899 693.357 Q63.5267 696.508 64.227 699.818 Q64.9272 703.128 64.9272 706.534 Q64.9272 715.064 59.9619 720.061 Q54.9967 725.026 46.5303 725.026 Q37.7774 725.026 32.6531 720.316 Q27.4968 715.573 27.4968 707.552 Q27.4968 700.359 32.1438 696.19 Q36.7589 691.988 44.7161 691.988 M42.9973 697.845 Q38.1912 697.908 35.3266 700.55 Q32.4621 703.16 32.4621 707.489 Q32.4621 712.39 35.2312 715.35 Q38.0002 718.279 43.0292 718.724 L42.9973 697.845 Z" fill="#000000" fill-rule="nonzero" fill-opacity="1" /><path clip-path="url(#clip450)" d="M64.0042 669.867 L16.4842 688.01 L16.4842 681.294 L56.4926 666.239 L16.4842 651.152 L16.4842 644.468 L64.0042 662.579 L64.0042 669.867 Z" fill="#000000" fill-rule="nonzero" fill-opacity="1" /><path clip-path="url(#clip450)" d="M16.4842 613.499 L34.2127 596.216 L34.2127 602.614 L21.6404 616.618 L34.2127 630.623 L34.2127 637.02 L16.4842 619.737 L16.4842 613.499 Z" fill="#000000" fill-rule="nonzero" fill-opacity="1" /><path clip-path="url(#clip450)" d="M38.3822 562.86 Q39.3689 558.245 42.4881 555.667 Q45.6073 553.057 50.1906 553.057 Q57.2247 553.057 61.0759 557.895 Q64.9272 562.732 64.9272 571.644 Q64.9272 574.636 64.3224 577.819 Q63.7495 580.97 62.5719 584.344 L56.3653 584.344 Q57.9249 581.67 58.7206 578.488 Q59.5163 575.305 59.5163 571.835 Q59.5163 565.788 57.1292 562.637 Q54.7421 559.454 50.1906 559.454 Q45.9892 559.454 43.6339 562.414 Q41.2468 565.342 41.2468 570.594 L41.2468 576.132 L35.9632 576.132 L35.9632 570.34 Q35.9632 565.597 34.0853 563.083 Q32.1756 560.568 28.6108 560.568 Q24.9505 560.568 23.009 563.178 Q21.0356 565.756 21.0356 570.594 Q21.0356 573.236 21.6086 576.26 Q22.1815 579.283 23.3909 582.912 L17.6618 582.912 Q16.6433 579.252 16.134 576.069 Q15.6248 572.854 15.6248 570.021 Q15.6248 562.701 18.9668 558.436 Q22.277 554.171 27.9424 554.171 Q31.8892 554.171 34.6264 556.43 Q37.3318 558.69 38.3822 562.86 Z" fill="#000000" fill-rule="nonzero" fill-opacity="1" /><path clip-path="url(#clip450)" d="M14.479 528.008 L72.5979 528.008 L72.5979 541.503 L68.0464 541.503 L68.0464 533.896 L19.0304 533.896 L19.0304 541.503 L14.479 541.503 L14.479 528.008 Z" fill="#000000" fill-rule="nonzero" fill-opacity="1" /><path clip-path="url(#clip450)" d="M784.962 14.0809 L784.962 22.0612 Q780.304 19.8332 776.172 18.7395 Q772.04 17.6457 768.192 17.6457 Q761.508 17.6457 757.862 20.2383 Q754.257 22.8309 754.257 27.611 Q754.257 31.6214 756.647 33.6873 Q759.077 35.7128 765.802 36.9686 L770.744 37.9813 Q779.899 39.7232 784.233 44.1387 Q788.608 48.5136 788.608 55.8863 Q788.608 64.6767 782.694 69.2137 Q776.82 73.7508 765.437 73.7508 Q761.143 73.7508 756.282 72.7785 Q751.462 71.8063 746.276 69.9024 L746.276 61.4765 Q751.259 64.2716 756.039 65.6895 Q760.819 67.1073 765.437 67.1073 Q772.445 67.1073 776.253 64.3527 Q780.061 61.598 780.061 56.4939 Q780.061 52.0379 777.306 49.5264 Q774.592 47.0148 768.354 45.759 L763.371 44.7868 Q754.216 42.9639 750.125 39.075 Q746.033 35.1862 746.033 28.2591 Q746.033 20.2383 751.664 15.6203 Q757.335 11.0023 767.26 11.0023 Q771.513 11.0023 775.929 11.7719 Q780.344 12.5416 784.962 14.0809 Z" fill="#000000" fill-rule="nonzero" fill-opacity="1" /><path clip-path="url(#clip450)" d="M838.759 45.1919 L838.759 72.576 L831.305 72.576 L831.305 45.4349 Q831.305 38.994 828.793 35.7938 Q826.282 32.5936 821.259 32.5936 Q815.223 32.5936 811.739 36.4419 Q808.255 40.2903 808.255 46.9338 L808.255 72.576 L800.761 72.576 L800.761 9.54393 L808.255 9.54393 L808.255 34.2544 Q810.929 30.163 814.534 28.1376 Q818.18 26.1121 822.919 26.1121 Q830.738 26.1121 834.748 30.9732 Q838.759 35.7938 838.759 45.1919 Z" fill="#000000" fill-rule="nonzero" fill-opacity="1" /><path clip-path="url(#clip450)" d="M871.206 32.4315 Q865.211 32.4315 861.727 37.1306 Q858.243 41.7891 858.243 49.9314 Q858.243 58.0738 861.687 62.7728 Q865.17 67.4314 871.206 67.4314 Q877.161 67.4314 880.645 62.7323 Q884.129 58.0333 884.129 49.9314 Q884.129 41.8701 880.645 37.1711 Q877.161 32.4315 871.206 32.4315 M871.206 26.1121 Q880.928 26.1121 886.478 32.4315 Q892.028 38.7509 892.028 49.9314 Q892.028 61.0714 886.478 67.4314 Q880.928 73.7508 871.206 73.7508 Q861.444 73.7508 855.894 67.4314 Q850.385 61.0714 850.385 49.9314 Q850.385 38.7509 855.894 32.4315 Q861.444 26.1121 871.206 26.1121 Z" fill="#000000" fill-rule="nonzero" fill-opacity="1" /><path clip-path="url(#clip450)" d="M921.964 32.4315 Q915.969 32.4315 912.485 37.1306 Q909.001 41.7891 909.001 49.9314 Q909.001 58.0738 912.444 62.7728 Q915.928 67.4314 921.964 67.4314 Q927.919 67.4314 931.403 62.7323 Q934.886 58.0333 934.886 49.9314 Q934.886 41.8701 931.403 37.1711 Q927.919 32.4315 921.964 32.4315 M921.964 26.1121 Q931.686 26.1121 937.236 32.4315 Q942.786 38.7509 942.786 49.9314 Q942.786 61.0714 937.236 67.4314 Q931.686 73.7508 921.964 73.7508 Q912.201 73.7508 906.652 67.4314 Q901.142 61.0714 901.142 49.9314 Q901.142 38.7509 906.652 32.4315 Q912.201 26.1121 921.964 26.1121 Z" fill="#000000" fill-rule="nonzero" fill-opacity="1" /><path clip-path="url(#clip450)" d="M962.514 14.324 L962.514 27.2059 L977.867 27.2059 L977.867 32.9987 L962.514 32.9987 L962.514 57.6282 Q962.514 63.1779 964.012 64.7578 Q965.552 66.3376 970.21 66.3376 L977.867 66.3376 L977.867 72.576 L970.21 72.576 Q961.582 72.576 958.301 69.3758 Q955.019 66.1351 955.019 57.6282 L955.019 32.9987 L949.551 32.9987 L949.551 27.2059 L955.019 27.2059 L955.019 14.324 L962.514 14.324 Z" fill="#000000" fill-rule="nonzero" fill-opacity="1" /><path clip-path="url(#clip450)" d="M987.67 27.2059 L995.123 27.2059 L995.123 72.576 L987.67 72.576 L987.67 27.2059 M987.67 9.54393 L995.123 9.54393 L995.123 18.9825 L987.67 18.9825 L987.67 9.54393 Z" fill="#000000" fill-rule="nonzero" fill-opacity="1" /><path clip-path="url(#clip450)" d="M1048.43 45.1919 L1048.43 72.576 L1040.98 72.576 L1040.98 45.4349 Q1040.98 38.994 1038.47 35.7938 Q1035.96 32.5936 1030.93 32.5936 Q1024.9 32.5936 1021.41 36.4419 Q1017.93 40.2903 1017.93 46.9338 L1017.93 72.576 L1010.44 72.576 L1010.44 27.2059 L1017.93 27.2059 L1017.93 34.2544 Q1020.6 30.163 1024.21 28.1376 Q1027.85 26.1121 1032.59 26.1121 Q1040.41 26.1121 1044.42 30.9732 Q1048.43 35.7938 1048.43 45.1919 Z" fill="#000000" fill-rule="nonzero" fill-opacity="1" /><path clip-path="url(#clip450)" d="M1093.16 49.3643 Q1093.16 41.2625 1089.79 36.8065 Q1086.47 32.3505 1080.44 32.3505 Q1074.44 32.3505 1071.08 36.8065 Q1067.76 41.2625 1067.76 49.3643 Q1067.76 57.4256 1071.08 61.8816 Q1074.44 66.3376 1080.44 66.3376 Q1086.47 66.3376 1089.79 61.8816 Q1093.16 57.4256 1093.16 49.3643 M1100.61 66.9452 Q1100.61 78.5308 1095.46 84.1616 Q1090.32 89.8329 1079.71 89.8329 Q1075.78 89.8329 1072.29 89.2252 Q1068.81 88.6581 1065.53 87.4428 L1065.53 80.1917 Q1068.81 81.9741 1072.01 82.8248 Q1075.21 83.6755 1078.53 83.6755 Q1085.86 83.6755 1089.51 79.8271 Q1093.16 76.0193 1093.16 68.282 L1093.16 64.5957 Q1090.85 68.6061 1087.24 70.5911 Q1083.64 72.576 1078.61 72.576 Q1070.27 72.576 1065.16 66.2161 Q1060.06 59.8562 1060.06 49.3643 Q1060.06 38.832 1065.16 32.472 Q1070.27 26.1121 1078.61 26.1121 Q1083.64 26.1121 1087.24 28.0971 Q1090.85 30.082 1093.16 34.0924 L1093.16 27.2059 L1100.61 27.2059 L1100.61 66.9452 Z" fill="#000000" fill-rule="nonzero" fill-opacity="1" /><path clip-path="url(#clip450)" d="M1171.26 28.5427 L1171.26 35.5912 Q1168.1 33.9709 1164.69 33.1607 Q1161.29 32.3505 1157.65 32.3505 Q1152.1 32.3505 1149.3 34.0519 Q1146.55 35.7533 1146.55 39.156 Q1146.55 41.7486 1148.53 43.2475 Q1150.52 44.7058 1156.51 46.0426 L1159.06 46.6097 Q1167 48.3111 1170.33 51.4303 Q1173.69 54.509 1173.69 60.0587 Q1173.69 66.3781 1168.66 70.0644 Q1163.68 73.7508 1154.93 73.7508 Q1151.29 73.7508 1147.32 73.0216 Q1143.39 72.3329 1139.01 70.9151 L1139.01 63.2184 Q1143.14 65.3654 1147.15 66.4591 Q1151.16 67.5124 1155.09 67.5124 Q1160.36 67.5124 1163.2 65.73 Q1166.03 63.9071 1166.03 60.6258 Q1166.03 57.5877 1163.97 55.9673 Q1161.94 54.3469 1155.01 52.8481 L1152.42 52.2405 Q1145.49 50.7821 1142.41 47.7845 Q1139.34 44.7463 1139.34 39.4801 Q1139.34 33.0797 1143.87 29.5959 Q1148.41 26.1121 1156.75 26.1121 Q1160.89 26.1121 1164.53 26.7198 Q1168.18 27.3274 1171.26 28.5427 Z" fill="#000000" fill-rule="nonzero" fill-opacity="1" /><path clip-path="url(#clip450)" d="M1185.56 27.2059 L1193.01 27.2059 L1193.01 72.576 L1185.56 72.576 L1185.56 27.2059 M1185.56 9.54393 L1193.01 9.54393 L1193.01 18.9825 L1185.56 18.9825 L1185.56 9.54393 Z" fill="#000000" fill-rule="nonzero" fill-opacity="1" /><path clip-path="url(#clip450)" d="M1238.46 49.3643 Q1238.46 41.2625 1235.1 36.8065 Q1231.78 32.3505 1225.74 32.3505 Q1219.75 32.3505 1216.38 36.8065 Q1213.06 41.2625 1213.06 49.3643 Q1213.06 57.4256 1216.38 61.8816 Q1219.75 66.3376 1225.74 66.3376 Q1231.78 66.3376 1235.1 61.8816 Q1238.46 57.4256 1238.46 49.3643 M1245.91 66.9452 Q1245.91 78.5308 1240.77 84.1616 Q1235.63 89.8329 1225.01 89.8329 Q1221.08 89.8329 1217.6 89.2252 Q1214.12 88.6581 1210.83 87.4428 L1210.83 80.1917 Q1214.12 81.9741 1217.32 82.8248 Q1220.52 83.6755 1223.84 83.6755 Q1231.17 83.6755 1234.82 79.8271 Q1238.46 76.0193 1238.46 68.282 L1238.46 64.5957 Q1236.15 68.6061 1232.55 70.5911 Q1228.94 72.576 1223.92 72.576 Q1215.57 72.576 1210.47 66.2161 Q1205.37 59.8562 1205.37 49.3643 Q1205.37 38.832 1210.47 32.472 Q1215.57 26.1121 1223.92 26.1121 Q1228.94 26.1121 1232.55 28.0971 Q1236.15 30.082 1238.46 34.0924 L1238.46 27.2059 L1245.91 27.2059 L1245.91 66.9452 Z" fill="#000000" fill-rule="nonzero" fill-opacity="1" /><path clip-path="url(#clip450)" d="M1296.59 35.9153 Q1299.39 30.8922 1303.28 28.5022 Q1307.16 26.1121 1312.43 26.1121 Q1319.52 26.1121 1323.37 31.0947 Q1327.22 36.0368 1327.22 45.1919 L1327.22 72.576 L1319.72 72.576 L1319.72 45.4349 Q1319.72 38.913 1317.41 35.7533 Q1315.1 32.5936 1310.36 32.5936 Q1304.57 32.5936 1301.21 36.4419 Q1297.85 40.2903 1297.85 46.9338 L1297.85 72.576 L1290.35 72.576 L1290.35 45.4349 Q1290.35 38.8725 1288.04 35.7533 Q1285.74 32.5936 1280.91 32.5936 Q1275.2 32.5936 1271.84 36.4824 Q1268.48 40.3308 1268.48 46.9338 L1268.48 72.576 L1260.98 72.576 L1260.98 27.2059 L1268.48 27.2059 L1268.48 34.2544 Q1271.03 30.082 1274.6 28.0971 Q1278.16 26.1121 1283.06 26.1121 Q1288 26.1121 1291.45 28.6237 Q1294.93 31.1352 1296.59 35.9153 Z" fill="#000000" fill-rule="nonzero" fill-opacity="1" /><path clip-path="url(#clip450)" d="M1362.7 49.7694 Q1353.67 49.7694 1350.19 51.8354 Q1346.7 53.9013 1346.7 58.8839 Q1346.7 62.8538 1349.29 65.2034 Q1351.93 67.5124 1356.42 67.5124 Q1362.62 67.5124 1366.35 63.1374 Q1370.12 58.7219 1370.12 51.4303 L1370.12 49.7694 L1362.7 49.7694 M1377.57 46.6907 L1377.57 72.576 L1370.12 72.576 L1370.12 65.6895 Q1367.56 69.8214 1363.76 71.8063 Q1359.95 73.7508 1354.44 73.7508 Q1347.47 73.7508 1343.34 69.8619 Q1339.25 65.9325 1339.25 59.3701 Q1339.25 51.7138 1344.35 47.825 Q1349.5 43.9361 1359.66 43.9361 L1370.12 43.9361 L1370.12 43.2069 Q1370.12 38.0623 1366.71 35.2672 Q1363.35 32.4315 1357.23 32.4315 Q1353.34 32.4315 1349.66 33.3632 Q1345.97 34.295 1342.57 36.1584 L1342.57 29.2718 Q1346.66 27.692 1350.51 26.9223 Q1354.36 26.1121 1358 26.1121 Q1367.85 26.1121 1372.71 31.2163 Q1377.57 36.3204 1377.57 46.6907 Z" fill="#000000" fill-rule="nonzero" fill-opacity="1" /><path clip-path="url(#clip450)" d="M1410.83 9.62495 Q1405.4 18.942 1402.77 28.0566 Q1400.13 37.1711 1400.13 46.5287 Q1400.13 55.8863 1402.77 65.0818 Q1405.44 74.2369 1410.83 83.5134 L1404.35 83.5134 Q1398.27 73.9938 1395.23 64.7983 Q1392.23 55.6027 1392.23 46.5287 Q1392.23 37.4952 1395.23 28.3401 Q1398.23 19.1851 1404.35 9.62495 L1410.83 9.62495 Z" fill="#000000" fill-rule="nonzero" fill-opacity="1" /><path clip-path="url(#clip450)" d="M1417.23 12.096 L1468.39 12.096 L1468.39 18.9825 L1446.92 18.9825 L1446.92 72.576 L1438.7 72.576 L1438.7 18.9825 L1417.23 18.9825 L1417.23 12.096 Z" fill="#000000" fill-rule="nonzero" fill-opacity="1" /><path clip-path="url(#clip450)" d="M1474.79 9.62495 L1481.27 9.62495 Q1487.35 19.1851 1490.35 28.3401 Q1493.38 37.4952 1493.38 46.5287 Q1493.38 55.6027 1490.35 64.7983 Q1487.35 73.9938 1481.27 83.5134 L1474.79 83.5134 Q1480.18 74.2369 1482.81 65.0818 Q1485.49 55.8863 1485.49 46.5287 Q1485.49 37.1711 1482.81 28.0566 Q1480.18 18.942 1474.79 9.62495 Z" fill="#000000" fill-rule="nonzero" fill-opacity="1" /><path clip-path="url(#clip450)" d="M1510.24 62.2867 L1518.78 62.2867 L1518.78 69.2543 L1512.14 82.2172 L1506.91 82.2172 L1510.24 69.2543 L1510.24 62.2867 Z" fill="#000000" fill-rule="nonzero" fill-opacity="1" /><path clip-path="url(#clip450)" d="M1596.4 35.9153 Q1599.19 30.8922 1603.08 28.5022 Q1606.97 26.1121 1612.24 26.1121 Q1619.33 26.1121 1623.18 31.0947 Q1627.02 36.0368 1627.02 45.1919 L1627.02 72.576 L1619.53 72.576 L1619.53 45.4349 Q1619.53 38.913 1617.22 35.7533 Q1614.91 32.5936 1610.17 32.5936 Q1604.38 32.5936 1601.02 36.4419 Q1597.65 40.2903 1597.65 46.9338 L1597.65 72.576 L1590.16 72.576 L1590.16 45.4349 Q1590.16 38.8725 1587.85 35.7533 Q1585.54 32.5936 1580.72 32.5936 Q1575.01 32.5936 1571.65 36.4824 Q1568.29 40.3308 1568.29 46.9338 L1568.29 72.576 L1560.79 72.576 L1560.79 27.2059 L1568.29 27.2059 L1568.29 34.2544 Q1570.84 30.082 1574.4 28.0971 Q1577.97 26.1121 1582.87 26.1121 Q1587.81 26.1121 1591.25 28.6237 Q1594.74 31.1352 1596.4 35.9153 Z" fill="#000000" fill-rule="nonzero" fill-opacity="1" /><path clip-path="url(#clip450)" d="M1646.35 49.9314 Q1646.35 58.1548 1649.71 62.8538 Q1653.11 67.5124 1659.03 67.5124 Q1664.94 67.5124 1668.34 62.8538 Q1671.75 58.1548 1671.75 49.9314 Q1671.75 41.7081 1668.34 37.0496 Q1664.94 32.3505 1659.03 32.3505 Q1653.11 32.3505 1649.71 37.0496 Q1646.35 41.7081 1646.35 49.9314 M1671.75 65.7705 Q1669.4 69.8214 1665.79 71.8063 Q1662.23 73.7508 1657.2 73.7508 Q1648.98 73.7508 1643.79 67.1883 Q1638.65 60.6258 1638.65 49.9314 Q1638.65 39.2371 1643.79 32.6746 Q1648.98 26.1121 1657.2 26.1121 Q1662.23 26.1121 1665.79 28.0971 Q1669.4 30.0415 1671.75 34.0924 L1671.75 27.2059 L1679.2 27.2059 L1679.2 89.8329 L1671.75 89.8329 L1671.75 65.7705 Z" fill="#000000" fill-rule="nonzero" fill-opacity="1" /><path clip-path="url(#clip450)" d="M1721.9 34.9026 L1773.83 34.9026 L1773.83 41.7081 L1721.9 41.7081 L1721.9 34.9026 M1721.9 51.4303 L1773.83 51.4303 L1773.83 58.3168 L1721.9 58.3168 L1721.9 51.4303 Z" fill="#000000" fill-rule="nonzero" fill-opacity="1" /><path clip-path="url(#clip450)" d="M1835.36 17.4837 Q1829.04 17.4837 1825.84 23.7221 Q1822.68 29.92 1822.68 42.3968 Q1822.68 54.833 1825.84 61.0714 Q1829.04 67.2693 1835.36 67.2693 Q1841.72 67.2693 1844.88 61.0714 Q1848.08 54.833 1848.08 42.3968 Q1848.08 29.92 1844.88 23.7221 Q1841.72 17.4837 1835.36 17.4837 M1835.36 11.0023 Q1845.53 11.0023 1850.88 19.0636 Q1856.26 27.0843 1856.26 42.3968 Q1856.26 57.6687 1850.88 65.73 Q1845.53 73.7508 1835.36 73.7508 Q1825.19 73.7508 1819.81 65.73 Q1814.46 57.6687 1814.46 42.3968 Q1814.46 27.0843 1819.81 19.0636 Q1825.19 11.0023 1835.36 11.0023 Z" fill="#000000" fill-rule="nonzero" fill-opacity="1" /><polyline clip-path="url(#clip452)" style="stroke:#009af9; stroke-linecap:round; stroke-linejoin:round; stroke-width:10; stroke-opacity:1; fill:none" points="309.067,160.256 344.498,161.243 379.93,161.914 415.361,162.521 450.793,163.199 486.224,164.048 521.656,165.159 557.087,166.635 592.519,168.63 627.95,171.429 663.382,175.51 698.813,181.444 734.245,189.78 769.676,201.022 805.108,215.626 840.539,234.065 875.971,256.857 911.402,284.645 946.834,318.148 982.265,358.347 1017.7,406.519 1053.13,464.441 1088.56,534.643 1123.99,621.262 1159.42,731.667 1194.85,882.548 1230.29,1142.36 1265.72,1386.38 1301.15,1386.37 1336.58,1386.38 1372.01,1386.39 1407.44,1386.38 1442.87,1386.38 1478.31,1386.38 1513.74,1386.38 1549.17,1386.38 1584.6,1386.38 1620.03,1386.4 1655.46,1386.38 1690.9,1386.38 1726.33,1386.38 1761.76,1386.39 1797.19,1386.34 1832.62,1386.38 1868.05,1386.38 1903.48,1386.38 1938.92,1386.38 1974.35,1386.31 2009.78,1386.28 2045.21,1386.38 2080.64,1386.37 2116.07,1386.38 2151.5,1386.37 2186.94,1386.37 2222.37,1386.36 2257.8,1386.33 2293.23,1386.37 "/>
<path clip-path="url(#clip450)" d="M1933.62 270.476 L2282.65 270.476 L2282.65 166.796 L1933.62 166.796  Z" fill="#ffffff" fill-rule="evenodd" fill-opacity="1"/>
<polyline clip-path="url(#clip450)" style="stroke:#000000; stroke-linecap:round; stroke-linejoin:round; stroke-width:4; stroke-opacity:1; fill:none" points="1933.62,270.476 2282.65,270.476 2282.65,166.796 1933.62,166.796 1933.62,270.476 "/>
<polyline clip-path="url(#clip450)" style="stroke:#009af9; stroke-linecap:round; stroke-linejoin:round; stroke-width:10; stroke-opacity:1; fill:none" points="1956.99,218.636 2097.21,218.636 "/>
<path clip-path="url(#clip450)" d="M2140.92 214.967 Q2142.52 212.096 2144.74 210.731 Q2146.97 209.365 2149.97 209.365 Q2154.03 209.365 2156.22 212.212 Q2158.42 215.036 2158.42 220.268 L2158.42 235.916 L2154.14 235.916 L2154.14 220.407 Q2154.14 216.68 2152.82 214.874 Q2151.5 213.069 2148.79 213.069 Q2145.48 213.069 2143.56 215.268 Q2141.64 217.467 2141.64 221.263 L2141.64 235.916 L2137.36 235.916 L2137.36 220.407 Q2137.36 216.657 2136.04 214.874 Q2134.72 213.069 2131.97 213.069 Q2128.7 213.069 2126.78 215.291 Q2124.86 217.49 2124.86 221.263 L2124.86 235.916 L2120.58 235.916 L2120.58 209.99 L2124.86 209.99 L2124.86 214.018 Q2126.32 211.633 2128.35 210.499 Q2130.39 209.365 2133.19 209.365 Q2136.02 209.365 2137.98 210.8 Q2139.97 212.235 2140.92 214.967 Z" fill="#000000" fill-rule="nonzero" fill-opacity="1" /><path clip-path="url(#clip450)" d="M2169.47 222.976 Q2169.47 227.675 2171.39 230.36 Q2173.33 233.022 2176.71 233.022 Q2180.09 233.022 2182.03 230.36 Q2183.98 227.675 2183.98 222.976 Q2183.98 218.277 2182.03 215.615 Q2180.09 212.93 2176.71 212.93 Q2173.33 212.93 2171.39 215.615 Q2169.47 218.277 2169.47 222.976 M2183.98 232.027 Q2182.64 234.342 2180.58 235.476 Q2178.54 236.587 2175.67 236.587 Q2170.97 236.587 2168.01 232.837 Q2165.07 229.087 2165.07 222.976 Q2165.07 216.865 2168.01 213.115 Q2170.97 209.365 2175.67 209.365 Q2178.54 209.365 2180.58 210.499 Q2182.64 211.61 2183.98 213.925 L2183.98 209.99 L2188.24 209.99 L2188.24 245.777 L2183.98 245.777 L2183.98 232.027 Z" fill="#000000" fill-rule="nonzero" fill-opacity="1" /><path clip-path="url(#clip450)" d="M2197.57 214.388 L2227.24 214.388 L2227.24 218.277 L2197.57 218.277 L2197.57 214.388 M2197.57 223.832 L2227.24 223.832 L2227.24 227.768 L2197.57 227.768 L2197.57 223.832 Z" fill="#000000" fill-rule="nonzero" fill-opacity="1" /><path clip-path="url(#clip450)" d="M2247.34 204.434 Q2243.72 204.434 2241.9 207.999 Q2240.09 211.541 2240.09 218.67 Q2240.09 225.777 2241.9 229.342 Q2243.72 232.883 2247.34 232.883 Q2250.97 232.883 2252.78 229.342 Q2254.6 225.777 2254.6 218.67 Q2254.6 211.541 2252.78 207.999 Q2250.97 204.434 2247.34 204.434 M2247.34 200.731 Q2253.15 200.731 2256.2 205.337 Q2259.28 209.92 2259.28 218.67 Q2259.28 227.397 2256.2 232.004 Q2253.15 236.587 2247.34 236.587 Q2241.53 236.587 2238.45 232.004 Q2235.39 227.397 2235.39 218.67 Q2235.39 209.92 2238.45 205.337 Q2241.53 200.731 2247.34 200.731 Z" fill="#000000" fill-rule="nonzero" fill-opacity="1" /></svg>
