<?xml version="1.0" encoding="utf-8"?>
<svg xmlns="http://www.w3.org/2000/svg" xmlns:xlink="http://www.w3.org/1999/xlink" width="600" height="400" viewBox="0 0 2400 1600">
<defs>
  <clipPath id="clip080">
    <rect x="0" y="0" width="2400" height="1600"/>
  </clipPath>
</defs>
<path clip-path="url(#clip080)" d="M0 1600 L2400 1600 L2400 0 L0 0  Z" fill="#ffffff" fill-rule="evenodd" fill-opacity="1"/>
<defs>
  <clipPath id="clip081">
    <rect x="1335" y="748" width="1042" height="781"/>
  </clipPath>
</defs>
<path clip-path="url(#clip080)" d="M279.704 1423.18 L2352.76 1423.18 L2352.76 123.472 L279.704 123.472  Z" fill="#ffffff" fill-rule="evenodd" fill-opacity="1"/>
<defs>
  <clipPath id="clip082">
    <rect x="279" y="123" width="2074" height="1301"/>
  </clipPath>
</defs>
<polyline clip-path="url(#clip082)" style="stroke:#000000; stroke-linecap:round; stroke-linejoin:round; stroke-width:2; stroke-opacity:0.1; fill:none" points="338.375,1423.18 338.375,123.472 "/>
<polyline clip-path="url(#clip082)" style="stroke:#000000; stroke-linecap:round; stroke-linejoin:round; stroke-width:2; stroke-opacity:0.1; fill:none" points="639.254,1423.18 639.254,123.472 "/>
<polyline clip-path="url(#clip082)" style="stroke:#000000; stroke-linecap:round; stroke-linejoin:round; stroke-width:2; stroke-opacity:0.1; fill:none" points="940.132,1423.18 940.132,123.472 "/>
<polyline clip-path="url(#clip082)" style="stroke:#000000; stroke-linecap:round; stroke-linejoin:round; stroke-width:2; stroke-opacity:0.1; fill:none" points="1241.01,1423.18 1241.01,123.472 "/>
<polyline clip-path="url(#clip082)" style="stroke:#000000; stroke-linecap:round; stroke-linejoin:round; stroke-width:2; stroke-opacity:0.1; fill:none" points="1541.89,1423.18 1541.89,123.472 "/>
<polyline clip-path="url(#clip082)" style="stroke:#000000; stroke-linecap:round; stroke-linejoin:round; stroke-width:2; stroke-opacity:0.1; fill:none" points="1842.77,1423.18 1842.77,123.472 "/>
<polyline clip-path="url(#clip082)" style="stroke:#000000; stroke-linecap:round; stroke-linejoin:round; stroke-width:2; stroke-opacity:0.1; fill:none" points="2143.65,1423.18 2143.65,123.472 "/>
<polyline clip-path="url(#clip082)" style="stroke:#000000; stroke-linecap:round; stroke-linejoin:round; stroke-width:2; stroke-opacity:0.1; fill:none" points="279.704,1257.34 2352.76,1257.34 "/>
<polyline clip-path="url(#clip082)" style="stroke:#000000; stroke-linecap:round; stroke-linejoin:round; stroke-width:2; stroke-opacity:0.1; fill:none" points="279.704,1040.49 2352.76,1040.49 "/>
<polyline clip-path="url(#clip082)" style="stroke:#000000; stroke-linecap:round; stroke-linejoin:round; stroke-width:2; stroke-opacity:0.1; fill:none" points="279.704,823.64 2352.76,823.64 "/>
<polyline clip-path="url(#clip082)" style="stroke:#000000; stroke-linecap:round; stroke-linejoin:round; stroke-width:2; stroke-opacity:0.1; fill:none" points="279.704,606.788 2352.76,606.788 "/>
<polyline clip-path="url(#clip082)" style="stroke:#000000; stroke-linecap:round; stroke-linejoin:round; stroke-width:2; stroke-opacity:0.1; fill:none" points="279.704,389.936 2352.76,389.936 "/>
<polyline clip-path="url(#clip082)" style="stroke:#000000; stroke-linecap:round; stroke-linejoin:round; stroke-width:2; stroke-opacity:0.1; fill:none" points="279.704,173.084 2352.76,173.084 "/>
<polyline clip-path="url(#clip080)" style="stroke:#000000; stroke-linecap:round; stroke-linejoin:round; stroke-width:4; stroke-opacity:1; fill:none" points="279.704,1423.18 2352.76,1423.18 "/>
<polyline clip-path="url(#clip080)" style="stroke:#000000; stroke-linecap:round; stroke-linejoin:round; stroke-width:4; stroke-opacity:1; fill:none" points="338.375,1423.18 338.375,1404.28 "/>
<polyline clip-path="url(#clip080)" style="stroke:#000000; stroke-linecap:round; stroke-linejoin:round; stroke-width:4; stroke-opacity:1; fill:none" points="639.254,1423.18 639.254,1404.28 "/>
<polyline clip-path="url(#clip080)" style="stroke:#000000; stroke-linecap:round; stroke-linejoin:round; stroke-width:4; stroke-opacity:1; fill:none" points="940.132,1423.18 940.132,1404.28 "/>
<polyline clip-path="url(#clip080)" style="stroke:#000000; stroke-linecap:round; stroke-linejoin:round; stroke-width:4; stroke-opacity:1; fill:none" points="1241.01,1423.18 1241.01,1404.28 "/>
<polyline clip-path="url(#clip080)" style="stroke:#000000; stroke-linecap:round; stroke-linejoin:round; stroke-width:4; stroke-opacity:1; fill:none" points="1541.89,1423.18 1541.89,1404.28 "/>
<polyline clip-path="url(#clip080)" style="stroke:#000000; stroke-linecap:round; stroke-linejoin:round; stroke-width:4; stroke-opacity:1; fill:none" points="1842.77,1423.18 1842.77,1404.28 "/>
<polyline clip-path="url(#clip080)" style="stroke:#000000; stroke-linecap:round; stroke-linejoin:round; stroke-width:4; stroke-opacity:1; fill:none" points="2143.65,1423.18 2143.65,1404.28 "/>
<path clip-path="url(#clip080)" d="M317.148 1481.64 L333.468 1481.64 L333.468 1485.58 L311.523 1485.58 L311.523 1481.64 Q314.186 1478.89 318.769 1474.26 Q323.375 1469.61 324.556 1468.27 Q326.801 1465.74 327.681 1464.01 Q328.584 1462.25 328.584 1460.56 Q328.584 1457.8 326.639 1456.07 Q324.718 1454.33 321.616 1454.33 Q319.417 1454.33 316.963 1455.09 Q314.533 1455.86 311.755 1457.41 L311.755 1452.69 Q314.579 1451.55 317.033 1450.97 Q319.486 1450.39 321.523 1450.39 Q326.894 1450.39 330.088 1453.08 Q333.283 1455.77 333.283 1460.26 Q333.283 1462.39 332.472 1464.31 Q331.685 1466.2 329.579 1468.8 Q329 1469.47 325.898 1472.69 Q322.797 1475.88 317.148 1481.64 Z" fill="#000000" fill-rule="nonzero" fill-opacity="1" /><path clip-path="url(#clip080)" d="M353.283 1454.1 Q349.671 1454.1 347.843 1457.66 Q346.037 1461.2 346.037 1468.33 Q346.037 1475.44 347.843 1479.01 Q349.671 1482.55 353.283 1482.55 Q356.917 1482.55 358.722 1479.01 Q360.551 1475.44 360.551 1468.33 Q360.551 1461.2 358.722 1457.66 Q356.917 1454.1 353.283 1454.1 M353.283 1450.39 Q359.093 1450.39 362.148 1455 Q365.227 1459.58 365.227 1468.33 Q365.227 1477.06 362.148 1481.67 Q359.093 1486.25 353.283 1486.25 Q347.472 1486.25 344.394 1481.67 Q341.338 1477.06 341.338 1468.33 Q341.338 1459.58 344.394 1455 Q347.472 1450.39 353.283 1450.39 Z" fill="#000000" fill-rule="nonzero" fill-opacity="1" /><path clip-path="url(#clip080)" d="M627.425 1455.09 L615.619 1473.54 L627.425 1473.54 L627.425 1455.09 M626.198 1451.02 L632.078 1451.02 L632.078 1473.54 L637.008 1473.54 L637.008 1477.43 L632.078 1477.43 L632.078 1485.58 L627.425 1485.58 L627.425 1477.43 L611.823 1477.43 L611.823 1472.92 L626.198 1451.02 Z" fill="#000000" fill-rule="nonzero" fill-opacity="1" /><path clip-path="url(#clip080)" d="M654.74 1454.1 Q651.129 1454.1 649.3 1457.66 Q647.494 1461.2 647.494 1468.33 Q647.494 1475.44 649.3 1479.01 Q651.129 1482.55 654.74 1482.55 Q658.374 1482.55 660.179 1479.01 Q662.008 1475.44 662.008 1468.33 Q662.008 1461.2 660.179 1457.66 Q658.374 1454.1 654.74 1454.1 M654.74 1450.39 Q660.55 1450.39 663.605 1455 Q666.684 1459.58 666.684 1468.33 Q666.684 1477.06 663.605 1481.67 Q660.55 1486.25 654.74 1486.25 Q648.929 1486.25 645.851 1481.67 Q642.795 1477.06 642.795 1468.33 Q642.795 1459.58 645.851 1455 Q648.929 1450.39 654.74 1450.39 Z" fill="#000000" fill-rule="nonzero" fill-opacity="1" /><path clip-path="url(#clip080)" d="M925.537 1466.44 Q922.389 1466.44 920.537 1468.59 Q918.708 1470.74 918.708 1474.49 Q918.708 1478.22 920.537 1480.39 Q922.389 1482.55 925.537 1482.55 Q928.685 1482.55 930.514 1480.39 Q932.366 1478.22 932.366 1474.49 Q932.366 1470.74 930.514 1468.59 Q928.685 1466.44 925.537 1466.44 M934.819 1451.78 L934.819 1456.04 Q933.06 1455.21 931.255 1454.77 Q929.472 1454.33 927.713 1454.33 Q923.083 1454.33 920.63 1457.45 Q918.199 1460.58 917.852 1466.9 Q919.218 1464.89 921.278 1463.82 Q923.338 1462.73 925.815 1462.73 Q931.023 1462.73 934.032 1465.9 Q937.065 1469.05 937.065 1474.49 Q937.065 1479.82 933.917 1483.03 Q930.769 1486.25 925.537 1486.25 Q919.542 1486.25 916.37 1481.67 Q913.199 1477.06 913.199 1468.33 Q913.199 1460.14 917.088 1455.28 Q920.977 1450.39 927.528 1450.39 Q929.287 1450.39 931.069 1450.74 Q932.875 1451.09 934.819 1451.78 Z" fill="#000000" fill-rule="nonzero" fill-opacity="1" /><path clip-path="url(#clip080)" d="M955.12 1454.1 Q951.509 1454.1 949.68 1457.66 Q947.875 1461.2 947.875 1468.33 Q947.875 1475.44 949.68 1479.01 Q951.509 1482.55 955.12 1482.55 Q958.755 1482.55 960.56 1479.01 Q962.389 1475.44 962.389 1468.33 Q962.389 1461.2 960.56 1457.66 Q958.755 1454.1 955.12 1454.1 M955.12 1450.39 Q960.93 1450.39 963.986 1455 Q967.065 1459.58 967.065 1468.33 Q967.065 1477.06 963.986 1481.67 Q960.93 1486.25 955.12 1486.25 Q949.31 1486.25 946.231 1481.67 Q943.176 1477.06 943.176 1468.33 Q943.176 1459.58 946.231 1455 Q949.31 1450.39 955.12 1450.39 Z" fill="#000000" fill-rule="nonzero" fill-opacity="1" /><path clip-path="url(#clip080)" d="M1225.88 1469.17 Q1222.55 1469.17 1220.63 1470.95 Q1218.73 1472.73 1218.73 1475.86 Q1218.73 1478.98 1220.63 1480.77 Q1222.55 1482.55 1225.88 1482.55 Q1229.22 1482.55 1231.14 1480.77 Q1233.06 1478.96 1233.06 1475.86 Q1233.06 1472.73 1231.14 1470.95 Q1229.24 1469.17 1225.88 1469.17 M1221.21 1467.18 Q1218.2 1466.44 1216.51 1464.38 Q1214.84 1462.32 1214.84 1459.35 Q1214.84 1455.21 1217.78 1452.8 Q1220.74 1450.39 1225.88 1450.39 Q1231.05 1450.39 1233.98 1452.8 Q1236.92 1455.21 1236.92 1459.35 Q1236.92 1462.32 1235.23 1464.38 Q1233.57 1466.44 1230.58 1467.18 Q1233.96 1467.96 1235.84 1470.26 Q1237.73 1472.55 1237.73 1475.86 Q1237.73 1480.88 1234.66 1483.57 Q1231.6 1486.25 1225.88 1486.25 Q1220.17 1486.25 1217.09 1483.57 Q1214.03 1480.88 1214.03 1475.86 Q1214.03 1472.55 1215.93 1470.26 Q1217.83 1467.96 1221.21 1467.18 M1219.49 1459.79 Q1219.49 1462.48 1221.16 1463.98 Q1222.85 1465.49 1225.88 1465.49 Q1228.89 1465.49 1230.58 1463.98 Q1232.3 1462.48 1232.3 1459.79 Q1232.3 1457.11 1230.58 1455.6 Q1228.89 1454.1 1225.88 1454.1 Q1222.85 1454.1 1221.16 1455.6 Q1219.49 1457.11 1219.49 1459.79 Z" fill="#000000" fill-rule="nonzero" fill-opacity="1" /><path clip-path="url(#clip080)" d="M1256.04 1454.1 Q1252.43 1454.1 1250.61 1457.66 Q1248.8 1461.2 1248.8 1468.33 Q1248.8 1475.44 1250.61 1479.01 Q1252.43 1482.55 1256.04 1482.55 Q1259.68 1482.55 1261.48 1479.01 Q1263.31 1475.44 1263.31 1468.33 Q1263.31 1461.2 1261.48 1457.66 Q1259.68 1454.1 1256.04 1454.1 M1256.04 1450.39 Q1261.86 1450.39 1264.91 1455 Q1267.99 1459.58 1267.99 1468.33 Q1267.99 1477.06 1264.91 1481.67 Q1261.86 1486.25 1256.04 1486.25 Q1250.23 1486.25 1247.16 1481.67 Q1244.1 1477.06 1244.1 1468.33 Q1244.1 1459.58 1247.16 1455 Q1250.23 1450.39 1256.04 1450.39 Z" fill="#000000" fill-rule="nonzero" fill-opacity="1" /><path clip-path="url(#clip080)" d="M1501.5 1481.64 L1509.13 1481.64 L1509.13 1455.28 L1500.82 1456.95 L1500.82 1452.69 L1509.09 1451.02 L1513.76 1451.02 L1513.76 1481.64 L1521.4 1481.64 L1521.4 1485.58 L1501.5 1485.58 L1501.5 1481.64 Z" fill="#000000" fill-rule="nonzero" fill-opacity="1" /><path clip-path="url(#clip080)" d="M1540.85 1454.1 Q1537.24 1454.1 1535.41 1457.66 Q1533.6 1461.2 1533.6 1468.33 Q1533.6 1475.44 1535.41 1479.01 Q1537.24 1482.55 1540.85 1482.55 Q1544.48 1482.55 1546.29 1479.01 Q1548.12 1475.44 1548.12 1468.33 Q1548.12 1461.2 1546.29 1457.66 Q1544.48 1454.1 1540.85 1454.1 M1540.85 1450.39 Q1546.66 1450.39 1549.71 1455 Q1552.79 1459.58 1552.79 1468.33 Q1552.79 1477.06 1549.71 1481.67 Q1546.66 1486.25 1540.85 1486.25 Q1535.04 1486.25 1531.96 1481.67 Q1528.9 1477.06 1528.9 1468.33 Q1528.9 1459.58 1531.96 1455 Q1535.04 1450.39 1540.85 1450.39 Z" fill="#000000" fill-rule="nonzero" fill-opacity="1" /><path clip-path="url(#clip080)" d="M1571.01 1454.1 Q1567.4 1454.1 1565.57 1457.66 Q1563.76 1461.2 1563.76 1468.33 Q1563.76 1475.44 1565.57 1479.01 Q1567.4 1482.55 1571.01 1482.55 Q1574.64 1482.55 1576.45 1479.01 Q1578.28 1475.44 1578.28 1468.33 Q1578.28 1461.2 1576.45 1457.66 Q1574.64 1454.1 1571.01 1454.1 M1571.01 1450.39 Q1576.82 1450.39 1579.87 1455 Q1582.95 1459.58 1582.95 1468.33 Q1582.95 1477.06 1579.87 1481.67 Q1576.82 1486.25 1571.01 1486.25 Q1565.2 1486.25 1562.12 1481.67 Q1559.06 1477.06 1559.06 1468.33 Q1559.06 1459.58 1562.12 1455 Q1565.2 1450.39 1571.01 1450.39 Z" fill="#000000" fill-rule="nonzero" fill-opacity="1" /><path clip-path="url(#clip080)" d="M1802.37 1481.64 L1810.01 1481.64 L1810.01 1455.28 L1801.7 1456.95 L1801.7 1452.69 L1809.97 1451.02 L1814.64 1451.02 L1814.64 1481.64 L1822.28 1481.64 L1822.28 1485.58 L1802.37 1485.58 L1802.37 1481.64 Z" fill="#000000" fill-rule="nonzero" fill-opacity="1" /><path clip-path="url(#clip080)" d="M1835.75 1481.64 L1852.07 1481.64 L1852.07 1485.58 L1830.13 1485.58 L1830.13 1481.64 Q1832.79 1478.89 1837.37 1474.26 Q1841.98 1469.61 1843.16 1468.27 Q1845.41 1465.74 1846.29 1464.01 Q1847.19 1462.25 1847.19 1460.56 Q1847.19 1457.8 1845.24 1456.07 Q1843.32 1454.33 1840.22 1454.33 Q1838.02 1454.33 1835.57 1455.09 Q1833.14 1455.86 1830.36 1457.41 L1830.36 1452.69 Q1833.18 1451.55 1835.64 1450.97 Q1838.09 1450.39 1840.13 1450.39 Q1845.5 1450.39 1848.69 1453.08 Q1851.89 1455.77 1851.89 1460.26 Q1851.89 1462.39 1851.08 1464.31 Q1850.29 1466.2 1848.18 1468.8 Q1847.6 1469.47 1844.5 1472.69 Q1841.4 1475.88 1835.75 1481.64 Z" fill="#000000" fill-rule="nonzero" fill-opacity="1" /><path clip-path="url(#clip080)" d="M1871.89 1454.1 Q1868.28 1454.1 1866.45 1457.66 Q1864.64 1461.2 1864.64 1468.33 Q1864.64 1475.44 1866.45 1479.01 Q1868.28 1482.55 1871.89 1482.55 Q1875.52 1482.55 1877.33 1479.01 Q1879.16 1475.44 1879.16 1468.33 Q1879.16 1461.2 1877.33 1457.66 Q1875.52 1454.1 1871.89 1454.1 M1871.89 1450.39 Q1877.7 1450.39 1880.75 1455 Q1883.83 1459.58 1883.83 1468.33 Q1883.83 1477.06 1880.75 1481.67 Q1877.7 1486.25 1871.89 1486.25 Q1866.08 1486.25 1863 1481.67 Q1859.94 1477.06 1859.94 1468.33 Q1859.94 1459.58 1863 1455 Q1866.08 1450.39 1871.89 1450.39 Z" fill="#000000" fill-rule="nonzero" fill-opacity="1" /><path clip-path="url(#clip080)" d="M2103.25 1481.64 L2110.89 1481.64 L2110.89 1455.28 L2102.58 1456.95 L2102.58 1452.69 L2110.84 1451.02 L2115.52 1451.02 L2115.52 1481.64 L2123.16 1481.64 L2123.16 1485.58 L2103.25 1485.58 L2103.25 1481.64 Z" fill="#000000" fill-rule="nonzero" fill-opacity="1" /><path clip-path="url(#clip080)" d="M2145.45 1455.09 L2133.65 1473.54 L2145.45 1473.54 L2145.45 1455.09 M2144.22 1451.02 L2150.1 1451.02 L2150.1 1473.54 L2155.03 1473.54 L2155.03 1477.43 L2150.1 1477.43 L2150.1 1485.58 L2145.45 1485.58 L2145.45 1477.43 L2129.85 1477.43 L2129.85 1472.92 L2144.22 1451.02 Z" fill="#000000" fill-rule="nonzero" fill-opacity="1" /><path clip-path="url(#clip080)" d="M2172.77 1454.1 Q2169.15 1454.1 2167.33 1457.66 Q2165.52 1461.2 2165.52 1468.33 Q2165.52 1475.44 2167.33 1479.01 Q2169.15 1482.55 2172.77 1482.55 Q2176.4 1482.55 2178.21 1479.01 Q2180.03 1475.44 2180.03 1468.33 Q2180.03 1461.2 2178.21 1457.66 Q2176.4 1454.1 2172.77 1454.1 M2172.77 1450.39 Q2178.58 1450.39 2181.63 1455 Q2184.71 1459.58 2184.71 1468.33 Q2184.71 1477.06 2181.63 1481.67 Q2178.58 1486.25 2172.77 1486.25 Q2166.96 1486.25 2163.88 1481.67 Q2160.82 1477.06 2160.82 1468.33 Q2160.82 1459.58 2163.88 1455 Q2166.96 1450.39 2172.77 1450.39 Z" fill="#000000" fill-rule="nonzero" fill-opacity="1" /><path clip-path="url(#clip080)" d="M1192.77 1520.52 L1232.97 1520.52 L1232.97 1525.93 L1216.1 1525.93 L1216.1 1568.04 L1209.64 1568.04 L1209.64 1525.93 L1192.77 1525.93 L1192.77 1520.52 Z" fill="#000000" fill-rule="nonzero" fill-opacity="1" /><path clip-path="url(#clip080)" d="M1259.1 1518.52 L1272.59 1518.52 L1272.59 1523.07 L1264.95 1523.07 L1264.95 1572.09 L1272.59 1572.09 L1272.59 1576.64 L1259.1 1576.64 L1259.1 1518.52 Z" fill="#000000" fill-rule="nonzero" fill-opacity="1" /><path clip-path="url(#clip080)" d="M1285.32 1520.52 L1294.9 1520.52 L1307.03 1552.86 L1319.22 1520.52 L1328.8 1520.52 L1328.8 1568.04 L1322.53 1568.04 L1322.53 1526.32 L1310.28 1558.91 L1303.82 1558.91 L1291.56 1526.32 L1291.56 1568.04 L1285.32 1568.04 L1285.32 1520.52 Z" fill="#000000" fill-rule="nonzero" fill-opacity="1" /><path clip-path="url(#clip080)" d="M1371.8 1548.76 L1371.8 1551.62 L1344.88 1551.62 Q1345.26 1557.67 1348.5 1560.85 Q1351.78 1564 1357.61 1564 Q1360.98 1564 1364.13 1563.17 Q1367.31 1562.35 1370.43 1560.69 L1370.43 1566.23 Q1367.28 1567.57 1363.97 1568.27 Q1360.66 1568.97 1357.26 1568.97 Q1348.73 1568.97 1343.73 1564 Q1338.76 1559.04 1338.76 1550.57 Q1338.76 1541.82 1343.48 1536.69 Q1348.22 1531.54 1356.24 1531.54 Q1363.43 1531.54 1367.6 1536.18 Q1371.8 1540.8 1371.8 1548.76 M1365.95 1547.04 Q1365.88 1542.23 1363.24 1539.37 Q1360.63 1536.5 1356.3 1536.5 Q1351.4 1536.5 1348.44 1539.27 Q1345.51 1542.04 1345.07 1547.07 L1365.95 1547.04 Z" fill="#000000" fill-rule="nonzero" fill-opacity="1" /><path clip-path="url(#clip080)" d="M1393.92 1568.04 L1375.78 1520.52 L1382.5 1520.52 L1397.55 1560.53 L1412.64 1520.52 L1419.32 1520.52 L1401.21 1568.04 L1393.92 1568.04 Z" fill="#000000" fill-rule="nonzero" fill-opacity="1" /><path clip-path="url(#clip080)" d="M1439.69 1518.52 L1439.69 1576.64 L1426.2 1576.64 L1426.2 1572.09 L1433.8 1572.09 L1433.8 1523.07 L1426.2 1523.07 L1426.2 1518.52 L1439.69 1518.52 Z" fill="#000000" fill-rule="nonzero" fill-opacity="1" /><polyline clip-path="url(#clip080)" style="stroke:#000000; stroke-linecap:round; stroke-linejoin:round; stroke-width:4; stroke-opacity:1; fill:none" points="279.704,1423.18 279.704,123.472 "/>
<polyline clip-path="url(#clip080)" style="stroke:#000000; stroke-linecap:round; stroke-linejoin:round; stroke-width:4; stroke-opacity:1; fill:none" points="279.704,1257.34 298.602,1257.34 "/>
<polyline clip-path="url(#clip080)" style="stroke:#000000; stroke-linecap:round; stroke-linejoin:round; stroke-width:4; stroke-opacity:1; fill:none" points="279.704,1040.49 298.602,1040.49 "/>
<polyline clip-path="url(#clip080)" style="stroke:#000000; stroke-linecap:round; stroke-linejoin:round; stroke-width:4; stroke-opacity:1; fill:none" points="279.704,823.64 298.602,823.64 "/>
<polyline clip-path="url(#clip080)" style="stroke:#000000; stroke-linecap:round; stroke-linejoin:round; stroke-width:4; stroke-opacity:1; fill:none" points="279.704,606.788 298.602,606.788 "/>
<polyline clip-path="url(#clip080)" style="stroke:#000000; stroke-linecap:round; stroke-linejoin:round; stroke-width:4; stroke-opacity:1; fill:none" points="279.704,389.936 298.602,389.936 "/>
<polyline clip-path="url(#clip080)" style="stroke:#000000; stroke-linecap:round; stroke-linejoin:round; stroke-width:4; stroke-opacity:1; fill:none" points="279.704,173.084 298.602,173.084 "/>
<path clip-path="url(#clip080)" d="M126.205 1243.14 Q122.593 1243.14 120.765 1246.71 Q118.959 1250.25 118.959 1257.38 Q118.959 1264.49 120.765 1268.05 Q122.593 1271.59 126.205 1271.59 Q129.839 1271.59 131.644 1268.05 Q133.473 1264.49 133.473 1257.38 Q133.473 1250.25 131.644 1246.71 Q129.839 1243.14 126.205 1243.14 M126.205 1239.44 Q132.015 1239.44 135.07 1244.05 Q138.149 1248.63 138.149 1257.38 Q138.149 1266.11 135.07 1270.71 Q132.015 1275.3 126.205 1275.3 Q120.394 1275.3 117.316 1270.71 Q114.26 1266.11 114.26 1257.38 Q114.26 1248.63 117.316 1244.05 Q120.394 1239.44 126.205 1239.44 Z" fill="#000000" fill-rule="nonzero" fill-opacity="1" /><path clip-path="url(#clip080)" d="M146.366 1268.75 L151.251 1268.75 L151.251 1274.62 L146.366 1274.62 L146.366 1268.75 Z" fill="#000000" fill-rule="nonzero" fill-opacity="1" /><path clip-path="url(#clip080)" d="M171.436 1243.14 Q167.825 1243.14 165.996 1246.71 Q164.19 1250.25 164.19 1257.38 Q164.19 1264.49 165.996 1268.05 Q167.825 1271.59 171.436 1271.59 Q175.07 1271.59 176.876 1268.05 Q178.704 1264.49 178.704 1257.38 Q178.704 1250.25 176.876 1246.71 Q175.07 1243.14 171.436 1243.14 M171.436 1239.44 Q177.246 1239.44 180.301 1244.05 Q183.38 1248.63 183.38 1257.38 Q183.38 1266.11 180.301 1270.71 Q177.246 1275.3 171.436 1275.3 Q165.626 1275.3 162.547 1270.71 Q159.491 1266.11 159.491 1257.38 Q159.491 1248.63 162.547 1244.05 Q165.626 1239.44 171.436 1239.44 Z" fill="#000000" fill-rule="nonzero" fill-opacity="1" /><path clip-path="url(#clip080)" d="M192.408 1270.69 L200.047 1270.69 L200.047 1244.32 L191.737 1245.99 L191.737 1241.73 L200 1240.06 L204.676 1240.06 L204.676 1270.69 L212.315 1270.69 L212.315 1274.62 L192.408 1274.62 L192.408 1270.69 Z" fill="#000000" fill-rule="nonzero" fill-opacity="1" /><path clip-path="url(#clip080)" d="M231.76 1243.14 Q228.148 1243.14 226.32 1246.71 Q224.514 1250.25 224.514 1257.38 Q224.514 1264.49 226.32 1268.05 Q228.148 1271.59 231.76 1271.59 Q235.394 1271.59 237.199 1268.05 Q239.028 1264.49 239.028 1257.38 Q239.028 1250.25 237.199 1246.71 Q235.394 1243.14 231.76 1243.14 M231.76 1239.44 Q237.57 1239.44 240.625 1244.05 Q243.704 1248.63 243.704 1257.38 Q243.704 1266.11 240.625 1270.71 Q237.57 1275.3 231.76 1275.3 Q225.949 1275.3 222.871 1270.71 Q219.815 1266.11 219.815 1257.38 Q219.815 1248.63 222.871 1244.05 Q225.949 1239.44 231.76 1239.44 Z" fill="#000000" fill-rule="nonzero" fill-opacity="1" /><path clip-path="url(#clip080)" d="M127.2 1026.29 Q123.589 1026.29 121.76 1029.86 Q119.955 1033.4 119.955 1040.53 Q119.955 1047.63 121.76 1051.2 Q123.589 1054.74 127.2 1054.74 Q130.834 1054.74 132.64 1051.2 Q134.468 1047.63 134.468 1040.53 Q134.468 1033.4 132.64 1029.86 Q130.834 1026.29 127.2 1026.29 M127.2 1022.59 Q133.01 1022.59 136.066 1027.19 Q139.144 1031.78 139.144 1040.53 Q139.144 1049.25 136.066 1053.86 Q133.01 1058.44 127.2 1058.44 Q121.39 1058.44 118.311 1053.86 Q115.256 1049.25 115.256 1040.53 Q115.256 1031.78 118.311 1027.19 Q121.39 1022.59 127.2 1022.59 Z" fill="#000000" fill-rule="nonzero" fill-opacity="1" /><path clip-path="url(#clip080)" d="M147.362 1051.89 L152.246 1051.89 L152.246 1057.77 L147.362 1057.77 L147.362 1051.89 Z" fill="#000000" fill-rule="nonzero" fill-opacity="1" /><path clip-path="url(#clip080)" d="M172.431 1026.29 Q168.82 1026.29 166.991 1029.86 Q165.186 1033.4 165.186 1040.53 Q165.186 1047.63 166.991 1051.2 Q168.82 1054.74 172.431 1054.74 Q176.065 1054.74 177.871 1051.2 Q179.7 1047.63 179.7 1040.53 Q179.7 1033.4 177.871 1029.86 Q176.065 1026.29 172.431 1026.29 M172.431 1022.59 Q178.241 1022.59 181.297 1027.19 Q184.376 1031.78 184.376 1040.53 Q184.376 1049.25 181.297 1053.86 Q178.241 1058.44 172.431 1058.44 Q166.621 1058.44 163.542 1053.86 Q160.487 1049.25 160.487 1040.53 Q160.487 1031.78 163.542 1027.19 Q166.621 1022.59 172.431 1022.59 Z" fill="#000000" fill-rule="nonzero" fill-opacity="1" /><path clip-path="url(#clip080)" d="M193.403 1053.84 L201.042 1053.84 L201.042 1027.47 L192.732 1029.14 L192.732 1024.88 L200.996 1023.21 L205.672 1023.21 L205.672 1053.84 L213.311 1053.84 L213.311 1057.77 L193.403 1057.77 L193.403 1053.84 Z" fill="#000000" fill-rule="nonzero" fill-opacity="1" /><path clip-path="url(#clip080)" d="M222.801 1023.21 L241.158 1023.21 L241.158 1027.15 L227.084 1027.15 L227.084 1035.62 Q228.102 1035.27 229.121 1035.11 Q230.139 1034.93 231.158 1034.93 Q236.945 1034.93 240.324 1038.1 Q243.704 1041.27 243.704 1046.68 Q243.704 1052.26 240.232 1055.37 Q236.76 1058.44 230.44 1058.44 Q228.264 1058.44 225.996 1058.07 Q223.75 1057.7 221.343 1056.96 L221.343 1052.26 Q223.426 1053.4 225.648 1053.95 Q227.871 1054.51 230.347 1054.51 Q234.352 1054.51 236.69 1052.4 Q239.028 1050.3 239.028 1046.68 Q239.028 1043.07 236.69 1040.97 Q234.352 1038.86 230.347 1038.86 Q228.473 1038.86 226.598 1039.28 Q224.746 1039.69 222.801 1040.57 L222.801 1023.21 Z" fill="#000000" fill-rule="nonzero" fill-opacity="1" /><path clip-path="url(#clip080)" d="M126.205 809.439 Q122.593 809.439 120.765 813.004 Q118.959 816.545 118.959 823.675 Q118.959 830.781 120.765 834.346 Q122.593 837.888 126.205 837.888 Q129.839 837.888 131.644 834.346 Q133.473 830.781 133.473 823.675 Q133.473 816.545 131.644 813.004 Q129.839 809.439 126.205 809.439 M126.205 805.735 Q132.015 805.735 135.07 810.342 Q138.149 814.925 138.149 823.675 Q138.149 832.402 135.07 837.008 Q132.015 841.592 126.205 841.592 Q120.394 841.592 117.316 837.008 Q114.26 832.402 114.26 823.675 Q114.26 814.925 117.316 810.342 Q120.394 805.735 126.205 805.735 Z" fill="#000000" fill-rule="nonzero" fill-opacity="1" /><path clip-path="url(#clip080)" d="M146.366 835.041 L151.251 835.041 L151.251 840.92 L146.366 840.92 L146.366 835.041 Z" fill="#000000" fill-rule="nonzero" fill-opacity="1" /><path clip-path="url(#clip080)" d="M171.436 809.439 Q167.825 809.439 165.996 813.004 Q164.19 816.545 164.19 823.675 Q164.19 830.781 165.996 834.346 Q167.825 837.888 171.436 837.888 Q175.07 837.888 176.876 834.346 Q178.704 830.781 178.704 823.675 Q178.704 816.545 176.876 813.004 Q175.07 809.439 171.436 809.439 M171.436 805.735 Q177.246 805.735 180.301 810.342 Q183.38 814.925 183.38 823.675 Q183.38 832.402 180.301 837.008 Q177.246 841.592 171.436 841.592 Q165.626 841.592 162.547 837.008 Q159.491 832.402 159.491 823.675 Q159.491 814.925 162.547 810.342 Q165.626 805.735 171.436 805.735 Z" fill="#000000" fill-rule="nonzero" fill-opacity="1" /><path clip-path="url(#clip080)" d="M195.625 836.985 L211.945 836.985 L211.945 840.92 L190 840.92 L190 836.985 Q192.663 834.231 197.246 829.601 Q201.852 824.948 203.033 823.606 Q205.278 821.082 206.158 819.346 Q207.061 817.587 207.061 815.897 Q207.061 813.143 205.116 811.407 Q203.195 809.671 200.093 809.671 Q197.894 809.671 195.44 810.434 Q193.01 811.198 190.232 812.749 L190.232 808.027 Q193.056 806.893 195.51 806.314 Q197.963 805.735 200 805.735 Q205.371 805.735 208.565 808.421 Q211.76 811.106 211.76 815.596 Q211.76 817.726 210.949 819.647 Q210.162 821.545 208.056 824.138 Q207.477 824.809 204.375 828.027 Q201.274 831.221 195.625 836.985 Z" fill="#000000" fill-rule="nonzero" fill-opacity="1" /><path clip-path="url(#clip080)" d="M231.76 809.439 Q228.148 809.439 226.32 813.004 Q224.514 816.545 224.514 823.675 Q224.514 830.781 226.32 834.346 Q228.148 837.888 231.76 837.888 Q235.394 837.888 237.199 834.346 Q239.028 830.781 239.028 823.675 Q239.028 816.545 237.199 813.004 Q235.394 809.439 231.76 809.439 M231.76 805.735 Q237.57 805.735 240.625 810.342 Q243.704 814.925 243.704 823.675 Q243.704 832.402 240.625 837.008 Q237.57 841.592 231.76 841.592 Q225.949 841.592 222.871 837.008 Q219.815 832.402 219.815 823.675 Q219.815 814.925 222.871 810.342 Q225.949 805.735 231.76 805.735 Z" fill="#000000" fill-rule="nonzero" fill-opacity="1" /><path clip-path="url(#clip080)" d="M127.2 592.587 Q123.589 592.587 121.76 596.152 Q119.955 599.693 119.955 606.823 Q119.955 613.929 121.76 617.494 Q123.589 621.036 127.2 621.036 Q130.834 621.036 132.64 617.494 Q134.468 613.929 134.468 606.823 Q134.468 599.693 132.64 596.152 Q130.834 592.587 127.2 592.587 M127.2 588.883 Q133.01 588.883 136.066 593.49 Q139.144 598.073 139.144 606.823 Q139.144 615.55 136.066 620.156 Q133.01 624.739 127.2 624.739 Q121.39 624.739 118.311 620.156 Q115.256 615.55 115.256 606.823 Q115.256 598.073 118.311 593.49 Q121.39 588.883 127.2 588.883 Z" fill="#000000" fill-rule="nonzero" fill-opacity="1" /><path clip-path="url(#clip080)" d="M147.362 618.188 L152.246 618.188 L152.246 624.068 L147.362 624.068 L147.362 618.188 Z" fill="#000000" fill-rule="nonzero" fill-opacity="1" /><path clip-path="url(#clip080)" d="M172.431 592.587 Q168.82 592.587 166.991 596.152 Q165.186 599.693 165.186 606.823 Q165.186 613.929 166.991 617.494 Q168.82 621.036 172.431 621.036 Q176.065 621.036 177.871 617.494 Q179.7 613.929 179.7 606.823 Q179.7 599.693 177.871 596.152 Q176.065 592.587 172.431 592.587 M172.431 588.883 Q178.241 588.883 181.297 593.49 Q184.376 598.073 184.376 606.823 Q184.376 615.55 181.297 620.156 Q178.241 624.739 172.431 624.739 Q166.621 624.739 163.542 620.156 Q160.487 615.55 160.487 606.823 Q160.487 598.073 163.542 593.49 Q166.621 588.883 172.431 588.883 Z" fill="#000000" fill-rule="nonzero" fill-opacity="1" /><path clip-path="url(#clip080)" d="M196.621 620.133 L212.94 620.133 L212.94 624.068 L190.996 624.068 L190.996 620.133 Q193.658 617.378 198.241 612.749 Q202.848 608.096 204.028 606.753 Q206.274 604.23 207.153 602.494 Q208.056 600.735 208.056 599.045 Q208.056 596.29 206.112 594.554 Q204.19 592.818 201.088 592.818 Q198.889 592.818 196.436 593.582 Q194.005 594.346 191.227 595.897 L191.227 591.175 Q194.051 590.04 196.505 589.462 Q198.959 588.883 200.996 588.883 Q206.366 588.883 209.561 591.568 Q212.755 594.253 212.755 598.744 Q212.755 600.874 211.945 602.795 Q211.158 604.693 209.051 607.286 Q208.473 607.957 205.371 611.175 Q202.269 614.369 196.621 620.133 Z" fill="#000000" fill-rule="nonzero" fill-opacity="1" /><path clip-path="url(#clip080)" d="M222.801 589.508 L241.158 589.508 L241.158 593.443 L227.084 593.443 L227.084 601.915 Q228.102 601.568 229.121 601.406 Q230.139 601.221 231.158 601.221 Q236.945 601.221 240.324 604.392 Q243.704 607.564 243.704 612.98 Q243.704 618.559 240.232 621.661 Q236.76 624.739 230.44 624.739 Q228.264 624.739 225.996 624.369 Q223.75 623.999 221.343 623.258 L221.343 618.559 Q223.426 619.693 225.648 620.249 Q227.871 620.804 230.347 620.804 Q234.352 620.804 236.69 618.698 Q239.028 616.591 239.028 612.98 Q239.028 609.369 236.69 607.263 Q234.352 605.156 230.347 605.156 Q228.473 605.156 226.598 605.573 Q224.746 605.989 222.801 606.869 L222.801 589.508 Z" fill="#000000" fill-rule="nonzero" fill-opacity="1" /><path clip-path="url(#clip080)" d="M126.205 375.735 Q122.593 375.735 120.765 379.299 Q118.959 382.841 118.959 389.971 Q118.959 397.077 120.765 400.642 Q122.593 404.183 126.205 404.183 Q129.839 404.183 131.644 400.642 Q133.473 397.077 133.473 389.971 Q133.473 382.841 131.644 379.299 Q129.839 375.735 126.205 375.735 M126.205 372.031 Q132.015 372.031 135.07 376.637 Q138.149 381.221 138.149 389.971 Q138.149 398.697 135.07 403.304 Q132.015 407.887 126.205 407.887 Q120.394 407.887 117.316 403.304 Q114.26 398.697 114.26 389.971 Q114.26 381.221 117.316 376.637 Q120.394 372.031 126.205 372.031 Z" fill="#000000" fill-rule="nonzero" fill-opacity="1" /><path clip-path="url(#clip080)" d="M146.366 401.336 L151.251 401.336 L151.251 407.216 L146.366 407.216 L146.366 401.336 Z" fill="#000000" fill-rule="nonzero" fill-opacity="1" /><path clip-path="url(#clip080)" d="M171.436 375.735 Q167.825 375.735 165.996 379.299 Q164.19 382.841 164.19 389.971 Q164.19 397.077 165.996 400.642 Q167.825 404.183 171.436 404.183 Q175.07 404.183 176.876 400.642 Q178.704 397.077 178.704 389.971 Q178.704 382.841 176.876 379.299 Q175.07 375.735 171.436 375.735 M171.436 372.031 Q177.246 372.031 180.301 376.637 Q183.38 381.221 183.38 389.971 Q183.38 398.697 180.301 403.304 Q177.246 407.887 171.436 407.887 Q165.626 407.887 162.547 403.304 Q159.491 398.697 159.491 389.971 Q159.491 381.221 162.547 376.637 Q165.626 372.031 171.436 372.031 Z" fill="#000000" fill-rule="nonzero" fill-opacity="1" /><path clip-path="url(#clip080)" d="M205.764 388.582 Q209.121 389.299 210.996 391.568 Q212.894 393.836 212.894 397.17 Q212.894 402.285 209.375 405.086 Q205.857 407.887 199.375 407.887 Q197.2 407.887 194.885 407.447 Q192.593 407.031 190.139 406.174 L190.139 401.66 Q192.084 402.795 194.399 403.373 Q196.713 403.952 199.237 403.952 Q203.635 403.952 205.926 402.216 Q208.241 400.48 208.241 397.17 Q208.241 394.114 206.088 392.401 Q203.959 390.665 200.139 390.665 L196.112 390.665 L196.112 386.822 L200.325 386.822 Q203.774 386.822 205.602 385.457 Q207.431 384.068 207.431 381.475 Q207.431 378.813 205.533 377.401 Q203.658 375.966 200.139 375.966 Q198.218 375.966 196.019 376.383 Q193.82 376.799 191.181 377.679 L191.181 373.512 Q193.843 372.772 196.158 372.401 Q198.496 372.031 200.556 372.031 Q205.88 372.031 208.982 374.461 Q212.084 376.869 212.084 380.989 Q212.084 383.859 210.44 385.85 Q208.797 387.818 205.764 388.582 Z" fill="#000000" fill-rule="nonzero" fill-opacity="1" /><path clip-path="url(#clip080)" d="M231.76 375.735 Q228.148 375.735 226.32 379.299 Q224.514 382.841 224.514 389.971 Q224.514 397.077 226.32 400.642 Q228.148 404.183 231.76 404.183 Q235.394 404.183 237.199 400.642 Q239.028 397.077 239.028 389.971 Q239.028 382.841 237.199 379.299 Q235.394 375.735 231.76 375.735 M231.76 372.031 Q237.57 372.031 240.625 376.637 Q243.704 381.221 243.704 389.971 Q243.704 398.697 240.625 403.304 Q237.57 407.887 231.76 407.887 Q225.949 407.887 222.871 403.304 Q219.815 398.697 219.815 389.971 Q219.815 381.221 222.871 376.637 Q225.949 372.031 231.76 372.031 Z" fill="#000000" fill-rule="nonzero" fill-opacity="1" /><path clip-path="url(#clip080)" d="M127.2 158.882 Q123.589 158.882 121.76 162.447 Q119.955 165.989 119.955 173.118 Q119.955 180.225 121.76 183.79 Q123.589 187.331 127.2 187.331 Q130.834 187.331 132.64 183.79 Q134.468 180.225 134.468 173.118 Q134.468 165.989 132.64 162.447 Q130.834 158.882 127.2 158.882 M127.2 155.179 Q133.01 155.179 136.066 159.785 Q139.144 164.368 139.144 173.118 Q139.144 181.845 136.066 186.452 Q133.01 191.035 127.2 191.035 Q121.39 191.035 118.311 186.452 Q115.256 181.845 115.256 173.118 Q115.256 164.368 118.311 159.785 Q121.39 155.179 127.2 155.179 Z" fill="#000000" fill-rule="nonzero" fill-opacity="1" /><path clip-path="url(#clip080)" d="M147.362 184.484 L152.246 184.484 L152.246 190.364 L147.362 190.364 L147.362 184.484 Z" fill="#000000" fill-rule="nonzero" fill-opacity="1" /><path clip-path="url(#clip080)" d="M172.431 158.882 Q168.82 158.882 166.991 162.447 Q165.186 165.989 165.186 173.118 Q165.186 180.225 166.991 183.79 Q168.82 187.331 172.431 187.331 Q176.065 187.331 177.871 183.79 Q179.7 180.225 179.7 173.118 Q179.7 165.989 177.871 162.447 Q176.065 158.882 172.431 158.882 M172.431 155.179 Q178.241 155.179 181.297 159.785 Q184.376 164.368 184.376 173.118 Q184.376 181.845 181.297 186.452 Q178.241 191.035 172.431 191.035 Q166.621 191.035 163.542 186.452 Q160.487 181.845 160.487 173.118 Q160.487 164.368 163.542 159.785 Q166.621 155.179 172.431 155.179 Z" fill="#000000" fill-rule="nonzero" fill-opacity="1" /><path clip-path="url(#clip080)" d="M206.76 171.729 Q210.116 172.447 211.991 174.716 Q213.889 176.984 213.889 180.317 Q213.889 185.433 210.371 188.234 Q206.852 191.035 200.371 191.035 Q198.195 191.035 195.88 190.595 Q193.588 190.178 191.135 189.322 L191.135 184.808 Q193.079 185.942 195.394 186.521 Q197.709 187.1 200.232 187.1 Q204.63 187.1 206.922 185.364 Q209.237 183.628 209.237 180.317 Q209.237 177.262 207.084 175.549 Q204.954 173.813 201.135 173.813 L197.107 173.813 L197.107 169.97 L201.32 169.97 Q204.769 169.97 206.598 168.604 Q208.426 167.216 208.426 164.623 Q208.426 161.961 206.528 160.549 Q204.653 159.114 201.135 159.114 Q199.213 159.114 197.014 159.53 Q194.815 159.947 192.176 160.827 L192.176 156.66 Q194.838 155.919 197.153 155.549 Q199.491 155.179 201.551 155.179 Q206.875 155.179 209.977 157.609 Q213.079 160.017 213.079 164.137 Q213.079 167.007 211.436 168.998 Q209.792 170.966 206.76 171.729 Z" fill="#000000" fill-rule="nonzero" fill-opacity="1" /><path clip-path="url(#clip080)" d="M222.801 155.804 L241.158 155.804 L241.158 159.739 L227.084 159.739 L227.084 168.211 Q228.102 167.864 229.121 167.702 Q230.139 167.517 231.158 167.517 Q236.945 167.517 240.324 170.688 Q243.704 173.859 243.704 179.276 Q243.704 184.854 240.232 187.956 Q236.76 191.035 230.44 191.035 Q228.264 191.035 225.996 190.665 Q223.75 190.294 221.343 189.553 L221.343 184.854 Q223.426 185.989 225.648 186.544 Q227.871 187.1 230.347 187.1 Q234.352 187.1 236.69 184.993 Q239.028 182.887 239.028 179.276 Q239.028 175.665 236.69 173.558 Q234.352 171.452 230.347 171.452 Q228.473 171.452 226.598 171.868 Q224.746 172.285 222.801 173.165 L222.801 155.804 Z" fill="#000000" fill-rule="nonzero" fill-opacity="1" /><path clip-path="url(#clip080)" d="M29.4065 993.309 L34.9447 993.309 Q33.6716 995.792 33.035 998.465 Q32.3984 1001.14 32.3984 1004 Q32.3984 1008.36 33.7352 1010.56 Q35.072 1012.72 37.7456 1012.72 Q39.7826 1012.72 40.9603 1011.16 Q42.1061 1009.61 43.1565 1004.89 L43.6021 1002.89 Q44.9389 996.651 47.3897 994.041 Q49.8086 991.399 54.1691 991.399 Q59.1344 991.399 62.0308 995.346 Q64.9272 999.261 64.9272 1006.14 Q64.9272 1009 64.3543 1012.12 Q63.8132 1015.21 62.6992 1018.64 L56.6518 1018.64 Q58.3387 1015.4 59.198 1012.25 Q60.0256 1009.1 60.0256 1006.01 Q60.0256 1001.87 58.6251 999.643 Q57.1929 997.415 54.6147 997.415 Q52.2276 997.415 50.9545 999.038 Q49.6813 1000.63 48.5037 1006.07 L48.0262 1008.11 Q46.8804 1013.55 44.5251 1015.97 Q42.138 1018.39 38.0002 1018.39 Q32.9713 1018.39 30.2341 1014.82 Q27.4968 1011.26 27.4968 1004.7 Q27.4968 1001.46 27.9743 998.592 Q28.4517 995.728 29.4065 993.309 Z" fill="#000000" fill-rule="nonzero" fill-opacity="1" /><path clip-path="url(#clip080)" d="M28.3562 982.073 L28.3562 976.217 L64.0042 976.217 L64.0042 982.073 L28.3562 982.073 M14.479 982.073 L14.479 976.217 L21.895 976.217 L21.895 982.073 L14.479 982.073 Z" fill="#000000" fill-rule="nonzero" fill-opacity="1" /><path clip-path="url(#clip080)" d="M45.7664 940.505 Q39.4007 940.505 35.8996 943.147 Q32.3984 945.757 32.3984 950.5 Q32.3984 955.21 35.8996 957.852 Q39.4007 960.462 45.7664 960.462 Q52.1003 960.462 55.6014 957.852 Q59.1026 955.21 59.1026 950.5 Q59.1026 945.757 55.6014 943.147 Q52.1003 940.505 45.7664 940.505 M59.58 934.649 Q68.683 934.649 73.1071 938.691 Q77.5631 942.733 77.5631 951.072 Q77.5631 954.16 77.0857 956.897 Q76.6401 959.634 75.6852 962.212 L69.9879 962.212 Q71.3884 959.634 72.0568 957.12 Q72.7252 954.605 72.7252 951.995 Q72.7252 946.234 69.7015 943.37 Q66.7096 940.505 60.6303 940.505 L57.7339 940.505 Q60.885 942.32 62.4446 945.152 Q64.0042 947.985 64.0042 951.932 Q64.0042 958.488 59.0071 962.499 Q54.01 966.509 45.7664 966.509 Q37.491 966.509 32.4939 962.499 Q27.4968 958.488 27.4968 951.932 Q27.4968 947.985 29.0564 945.152 Q30.616 942.32 33.7671 940.505 L28.3562 940.505 L28.3562 934.649 L59.58 934.649 Z" fill="#000000" fill-rule="nonzero" fill-opacity="1" /><path clip-path="url(#clip080)" d="M35.1993 894.831 Q31.2526 892.635 29.3747 889.58 Q27.4968 886.524 27.4968 882.386 Q27.4968 876.816 31.4117 873.793 Q35.2948 870.769 42.4881 870.769 L64.0042 870.769 L64.0042 876.657 L42.679 876.657 Q37.5546 876.657 35.072 878.472 Q32.5894 880.286 32.5894 884.01 Q32.5894 888.561 35.6131 891.203 Q38.6368 893.845 43.8567 893.845 L64.0042 893.845 L64.0042 899.733 L42.679 899.733 Q37.5228 899.733 35.072 901.547 Q32.5894 903.361 32.5894 907.149 Q32.5894 911.637 35.6449 914.279 Q38.6686 916.92 43.8567 916.92 L64.0042 916.92 L64.0042 922.809 L28.3562 922.809 L28.3562 916.92 L33.8944 916.92 Q30.616 914.915 29.0564 912.114 Q27.4968 909.313 27.4968 905.462 Q27.4968 901.579 29.4702 898.874 Q31.4436 896.136 35.1993 894.831 Z" fill="#000000" fill-rule="nonzero" fill-opacity="1" /><path clip-path="url(#clip080)" d="M46.0847 842.887 Q46.0847 849.985 47.7079 852.722 Q49.3312 855.46 53.2461 855.46 Q56.3653 855.46 58.2114 853.422 Q60.0256 851.354 60.0256 847.821 Q60.0256 842.951 56.5881 840.023 Q53.1188 837.063 47.3897 837.063 L46.0847 837.063 L46.0847 842.887 M43.6657 831.206 L64.0042 831.206 L64.0042 837.063 L58.5933 837.063 Q61.8398 839.068 63.3994 842.06 Q64.9272 845.052 64.9272 849.38 Q64.9272 854.855 61.8716 858.101 Q58.7843 861.316 53.6281 861.316 Q47.6125 861.316 44.5569 857.306 Q41.5014 853.263 41.5014 845.274 L41.5014 837.063 L40.9285 837.063 Q36.8862 837.063 34.6901 839.736 Q32.4621 842.378 32.4621 847.184 Q32.4621 850.24 33.1941 853.136 Q33.9262 856.032 35.3903 858.706 L29.9795 858.706 Q28.7381 855.491 28.1334 852.468 Q27.4968 849.444 27.4968 846.579 Q27.4968 838.845 31.5072 835.026 Q35.5176 831.206 43.6657 831.206 Z" fill="#000000" fill-rule="nonzero" fill-opacity="1" /><path clip-path="url(#clip080)" d="M14.479 798.964 L14.479 785.469 L19.0304 785.469 L19.0304 793.107 L68.0464 793.107 L68.0464 785.469 L72.5979 785.469 L72.5979 798.964 L14.479 798.964 Z" fill="#000000" fill-rule="nonzero" fill-opacity="1" /><path clip-path="url(#clip080)" d="M57.2247 740.336 L44.4614 740.336 L44.4614 750.839 L39.1779 750.839 L39.1779 733.97 L59.58 733.97 Q62.2218 737.694 63.5904 742.182 Q64.9272 746.67 64.9272 751.762 Q64.9272 762.902 58.4342 769.204 Q51.9093 775.474 40.2919 775.474 Q28.6427 775.474 22.1496 769.204 Q15.6248 762.902 15.6248 751.762 Q15.6248 747.115 16.7706 742.946 Q17.9164 738.744 20.1444 735.211 L26.9876 735.211 Q23.9639 738.776 22.4361 742.787 Q20.9083 746.797 20.9083 751.221 Q20.9083 759.942 25.7781 764.334 Q30.6479 768.695 40.2919 768.695 Q49.9041 768.695 54.7739 764.334 Q59.6436 759.942 59.6436 751.221 Q59.6436 747.815 59.0707 745.142 Q58.466 742.468 57.2247 740.336 Z" fill="#000000" fill-rule="nonzero" fill-opacity="1" /><path clip-path="url(#clip080)" d="M44.7161 691.988 L47.5806 691.988 L47.5806 718.915 Q53.6281 718.533 56.8109 715.287 Q59.9619 712.008 59.9619 706.184 Q59.9619 702.81 59.1344 699.659 Q58.3069 696.476 56.6518 693.357 L62.1899 693.357 Q63.5267 696.508 64.227 699.818 Q64.9272 703.128 64.9272 706.534 Q64.9272 715.064 59.9619 720.061 Q54.9967 725.026 46.5303 725.026 Q37.7774 725.026 32.6531 720.316 Q27.4968 715.573 27.4968 707.552 Q27.4968 700.359 32.1438 696.19 Q36.7589 691.988 44.7161 691.988 M42.9973 697.845 Q38.1912 697.908 35.3266 700.55 Q32.4621 703.16 32.4621 707.489 Q32.4621 712.39 35.2312 715.35 Q38.0002 718.279 43.0292 718.724 L42.9973 697.845 Z" fill="#000000" fill-rule="nonzero" fill-opacity="1" /><path clip-path="url(#clip080)" d="M64.0042 669.867 L16.4842 688.01 L16.4842 681.294 L56.4926 666.239 L16.4842 651.152 L16.4842 644.468 L64.0042 662.579 L64.0042 669.867 Z" fill="#000000" fill-rule="nonzero" fill-opacity="1" /><path clip-path="url(#clip080)" d="M16.4842 613.499 L34.2127 596.216 L34.2127 602.614 L21.6404 616.618 L34.2127 630.623 L34.2127 637.02 L16.4842 619.737 L16.4842 613.499 Z" fill="#000000" fill-rule="nonzero" fill-opacity="1" /><path clip-path="url(#clip080)" d="M38.3822 562.86 Q39.3689 558.245 42.4881 555.667 Q45.6073 553.057 50.1906 553.057 Q57.2247 553.057 61.0759 557.895 Q64.9272 562.732 64.9272 571.644 Q64.9272 574.636 64.3224 577.819 Q63.7495 580.97 62.5719 584.344 L56.3653 584.344 Q57.9249 581.67 58.7206 578.488 Q59.5163 575.305 59.5163 571.835 Q59.5163 565.788 57.1292 562.637 Q54.7421 559.454 50.1906 559.454 Q45.9892 559.454 43.6339 562.414 Q41.2468 565.342 41.2468 570.594 L41.2468 576.132 L35.9632 576.132 L35.9632 570.34 Q35.9632 565.597 34.0853 563.083 Q32.1756 560.568 28.6108 560.568 Q24.9505 560.568 23.009 563.178 Q21.0356 565.756 21.0356 570.594 Q21.0356 573.236 21.6086 576.26 Q22.1815 579.283 23.3909 582.912 L17.6618 582.912 Q16.6433 579.252 16.134 576.069 Q15.6248 572.854 15.6248 570.021 Q15.6248 562.701 18.9668 558.436 Q22.277 554.171 27.9424 554.171 Q31.8892 554.171 34.6264 556.43 Q37.3318 558.69 38.3822 562.86 Z" fill="#000000" fill-rule="nonzero" fill-opacity="1" /><path clip-path="url(#clip080)" d="M14.479 528.008 L72.5979 528.008 L72.5979 541.503 L68.0464 541.503 L68.0464 533.896 L19.0304 533.896 L19.0304 541.503 L14.479 541.503 L14.479 528.008 Z" fill="#000000" fill-rule="nonzero" fill-opacity="1" /><path clip-path="url(#clip080)" d="M800.043 14.0809 L800.043 22.0612 Q795.385 19.8332 791.253 18.7395 Q787.121 17.6457 783.273 17.6457 Q776.589 17.6457 772.943 20.2383 Q769.338 22.8309 769.338 27.611 Q769.338 31.6214 771.728 33.6873 Q774.158 35.7128 780.883 36.9686 L785.825 37.9813 Q794.98 39.7232 799.314 44.1387 Q803.689 48.5136 803.689 55.8863 Q803.689 64.6767 797.775 69.2137 Q791.901 73.7508 780.518 73.7508 Q776.224 73.7508 771.363 72.7785 Q766.542 71.8063 761.357 69.9024 L761.357 61.4765 Q766.34 64.2716 771.12 65.6895 Q775.9 67.1073 780.518 67.1073 Q787.526 67.1073 791.334 64.3527 Q795.142 61.598 795.142 56.4939 Q795.142 52.0379 792.387 49.5264 Q789.673 47.0148 783.435 45.759 L778.452 44.7868 Q769.297 42.9639 765.206 39.075 Q761.114 35.1862 761.114 28.2591 Q761.114 20.2383 766.745 15.6203 Q772.416 11.0023 782.341 11.0023 Q786.594 11.0023 791.01 11.7719 Q795.425 12.5416 800.043 14.0809 Z" fill="#000000" fill-rule="nonzero" fill-opacity="1" /><path clip-path="url(#clip080)" d="M853.839 45.1919 L853.839 72.576 L846.386 72.576 L846.386 45.4349 Q846.386 38.994 843.874 35.7938 Q841.363 32.5936 836.34 32.5936 Q830.304 32.5936 826.82 36.4419 Q823.336 40.2903 823.336 46.9338 L823.336 72.576 L815.842 72.576 L815.842 9.54393 L823.336 9.54393 L823.336 34.2544 Q826.01 30.163 829.615 28.1376 Q833.261 26.1121 838 26.1121 Q845.819 26.1121 849.829 30.9732 Q853.839 35.7938 853.839 45.1919 Z" fill="#000000" fill-rule="nonzero" fill-opacity="1" /><path clip-path="url(#clip080)" d="M886.287 32.4315 Q880.292 32.4315 876.808 37.1306 Q873.324 41.7891 873.324 49.9314 Q873.324 58.0738 876.768 62.7728 Q880.251 67.4314 886.287 67.4314 Q892.242 67.4314 895.726 62.7323 Q899.21 58.0333 899.21 49.9314 Q899.21 41.8701 895.726 37.1711 Q892.242 32.4315 886.287 32.4315 M886.287 26.1121 Q896.009 26.1121 901.559 32.4315 Q907.109 38.7509 907.109 49.9314 Q907.109 61.0714 901.559 67.4314 Q896.009 73.7508 886.287 73.7508 Q876.525 73.7508 870.975 67.4314 Q865.466 61.0714 865.466 49.9314 Q865.466 38.7509 870.975 32.4315 Q876.525 26.1121 886.287 26.1121 Z" fill="#000000" fill-rule="nonzero" fill-opacity="1" /><path clip-path="url(#clip080)" d="M937.045 32.4315 Q931.05 32.4315 927.566 37.1306 Q924.082 41.7891 924.082 49.9314 Q924.082 58.0738 927.525 62.7728 Q931.009 67.4314 937.045 67.4314 Q943 67.4314 946.484 62.7323 Q949.967 58.0333 949.967 49.9314 Q949.967 41.8701 946.484 37.1711 Q943 32.4315 937.045 32.4315 M937.045 26.1121 Q946.767 26.1121 952.317 32.4315 Q957.867 38.7509 957.867 49.9314 Q957.867 61.0714 952.317 67.4314 Q946.767 73.7508 937.045 73.7508 Q927.282 73.7508 921.733 67.4314 Q916.223 61.0714 916.223 49.9314 Q916.223 38.7509 921.733 32.4315 Q927.282 26.1121 937.045 26.1121 Z" fill="#000000" fill-rule="nonzero" fill-opacity="1" /><path clip-path="url(#clip080)" d="M977.595 14.324 L977.595 27.2059 L992.947 27.2059 L992.947 32.9987 L977.595 32.9987 L977.595 57.6282 Q977.595 63.1779 979.093 64.7578 Q980.633 66.3376 985.291 66.3376 L992.947 66.3376 L992.947 72.576 L985.291 72.576 Q976.663 72.576 973.382 69.3758 Q970.1 66.1351 970.1 57.6282 L970.1 32.9987 L964.632 32.9987 L964.632 27.2059 L970.1 27.2059 L970.1 14.324 L977.595 14.324 Z" fill="#000000" fill-rule="nonzero" fill-opacity="1" /><path clip-path="url(#clip080)" d="M1002.75 27.2059 L1010.2 27.2059 L1010.2 72.576 L1002.75 72.576 L1002.75 27.2059 M1002.75 9.54393 L1010.2 9.54393 L1010.2 18.9825 L1002.75 18.9825 L1002.75 9.54393 Z" fill="#000000" fill-rule="nonzero" fill-opacity="1" /><path clip-path="url(#clip080)" d="M1063.51 45.1919 L1063.51 72.576 L1056.06 72.576 L1056.06 45.4349 Q1056.06 38.994 1053.55 35.7938 Q1051.04 32.5936 1046.01 32.5936 Q1039.98 32.5936 1036.49 36.4419 Q1033.01 40.2903 1033.01 46.9338 L1033.01 72.576 L1025.52 72.576 L1025.52 27.2059 L1033.01 27.2059 L1033.01 34.2544 Q1035.68 30.163 1039.29 28.1376 Q1042.94 26.1121 1047.68 26.1121 Q1055.49 26.1121 1059.5 30.9732 Q1063.51 35.7938 1063.51 45.1919 Z" fill="#000000" fill-rule="nonzero" fill-opacity="1" /><path clip-path="url(#clip080)" d="M1108.24 49.3643 Q1108.24 41.2625 1104.87 36.8065 Q1101.55 32.3505 1095.52 32.3505 Q1089.52 32.3505 1086.16 36.8065 Q1082.84 41.2625 1082.84 49.3643 Q1082.84 57.4256 1086.16 61.8816 Q1089.52 66.3376 1095.52 66.3376 Q1101.55 66.3376 1104.87 61.8816 Q1108.24 57.4256 1108.24 49.3643 M1115.69 66.9452 Q1115.69 78.5308 1110.55 84.1616 Q1105.4 89.8329 1094.79 89.8329 Q1090.86 89.8329 1087.37 89.2252 Q1083.89 88.6581 1080.61 87.4428 L1080.61 80.1917 Q1083.89 81.9741 1087.09 82.8248 Q1090.29 83.6755 1093.61 83.6755 Q1100.94 83.6755 1104.59 79.8271 Q1108.24 76.0193 1108.24 68.282 L1108.24 64.5957 Q1105.93 68.6061 1102.32 70.5911 Q1098.72 72.576 1093.69 72.576 Q1085.35 72.576 1080.24 66.2161 Q1075.14 59.8562 1075.14 49.3643 Q1075.14 38.832 1080.24 32.472 Q1085.35 26.1121 1093.69 26.1121 Q1098.72 26.1121 1102.32 28.0971 Q1105.93 30.082 1108.24 34.0924 L1108.24 27.2059 L1115.69 27.2059 L1115.69 66.9452 Z" fill="#000000" fill-rule="nonzero" fill-opacity="1" /><path clip-path="url(#clip080)" d="M1186.34 28.5427 L1186.34 35.5912 Q1183.18 33.9709 1179.78 33.1607 Q1176.37 32.3505 1172.73 32.3505 Q1167.18 32.3505 1164.38 34.0519 Q1161.63 35.7533 1161.63 39.156 Q1161.63 41.7486 1163.61 43.2475 Q1165.6 44.7058 1171.59 46.0426 L1174.14 46.6097 Q1182.08 48.3111 1185.41 51.4303 Q1188.77 54.509 1188.77 60.0587 Q1188.77 66.3781 1183.75 70.0644 Q1178.76 73.7508 1170.01 73.7508 Q1166.37 73.7508 1162.4 73.0216 Q1158.47 72.3329 1154.09 70.9151 L1154.09 63.2184 Q1158.22 65.3654 1162.23 66.4591 Q1166.25 67.5124 1170.17 67.5124 Q1175.44 67.5124 1178.28 65.73 Q1181.11 63.9071 1181.11 60.6258 Q1181.11 57.5877 1179.05 55.9673 Q1177.02 54.3469 1170.09 52.8481 L1167.5 52.2405 Q1160.57 50.7821 1157.5 47.7845 Q1154.42 44.7463 1154.42 39.4801 Q1154.42 33.0797 1158.95 29.5959 Q1163.49 26.1121 1171.84 26.1121 Q1175.97 26.1121 1179.61 26.7198 Q1183.26 27.3274 1186.34 28.5427 Z" fill="#000000" fill-rule="nonzero" fill-opacity="1" /><path clip-path="url(#clip080)" d="M1200.64 27.2059 L1208.09 27.2059 L1208.09 72.576 L1200.64 72.576 L1200.64 27.2059 M1200.64 9.54393 L1208.09 9.54393 L1208.09 18.9825 L1200.64 18.9825 L1200.64 9.54393 Z" fill="#000000" fill-rule="nonzero" fill-opacity="1" /><path clip-path="url(#clip080)" d="M1253.54 49.3643 Q1253.54 41.2625 1250.18 36.8065 Q1246.86 32.3505 1240.82 32.3505 Q1234.83 32.3505 1231.46 36.8065 Q1228.14 41.2625 1228.14 49.3643 Q1228.14 57.4256 1231.46 61.8816 Q1234.83 66.3376 1240.82 66.3376 Q1246.86 66.3376 1250.18 61.8816 Q1253.54 57.4256 1253.54 49.3643 M1261 66.9452 Q1261 78.5308 1255.85 84.1616 Q1250.71 89.8329 1240.09 89.8329 Q1236.16 89.8329 1232.68 89.2252 Q1229.2 88.6581 1225.91 87.4428 L1225.91 80.1917 Q1229.2 81.9741 1232.4 82.8248 Q1235.6 83.6755 1238.92 83.6755 Q1246.25 83.6755 1249.9 79.8271 Q1253.54 76.0193 1253.54 68.282 L1253.54 64.5957 Q1251.23 68.6061 1247.63 70.5911 Q1244.02 72.576 1239 72.576 Q1230.65 72.576 1225.55 66.2161 Q1220.45 59.8562 1220.45 49.3643 Q1220.45 38.832 1225.55 32.472 Q1230.65 26.1121 1239 26.1121 Q1244.02 26.1121 1247.63 28.0971 Q1251.23 30.082 1253.54 34.0924 L1253.54 27.2059 L1261 27.2059 L1261 66.9452 Z" fill="#000000" fill-rule="nonzero" fill-opacity="1" /><path clip-path="url(#clip080)" d="M1311.67 35.9153 Q1314.47 30.8922 1318.36 28.5022 Q1322.25 26.1121 1327.51 26.1121 Q1334.6 26.1121 1338.45 31.0947 Q1342.3 36.0368 1342.3 45.1919 L1342.3 72.576 L1334.8 72.576 L1334.8 45.4349 Q1334.8 38.913 1332.49 35.7533 Q1330.19 32.5936 1325.45 32.5936 Q1319.65 32.5936 1316.29 36.4419 Q1312.93 40.2903 1312.93 46.9338 L1312.93 72.576 L1305.43 72.576 L1305.43 45.4349 Q1305.43 38.8725 1303.13 35.7533 Q1300.82 32.5936 1296 32.5936 Q1290.28 32.5936 1286.92 36.4824 Q1283.56 40.3308 1283.56 46.9338 L1283.56 72.576 L1276.07 72.576 L1276.07 27.2059 L1283.56 27.2059 L1283.56 34.2544 Q1286.11 30.082 1289.68 28.0971 Q1293.24 26.1121 1298.14 26.1121 Q1303.08 26.1121 1306.53 28.6237 Q1310.01 31.1352 1311.67 35.9153 Z" fill="#000000" fill-rule="nonzero" fill-opacity="1" /><path clip-path="url(#clip080)" d="M1377.78 49.7694 Q1368.75 49.7694 1365.27 51.8354 Q1361.78 53.9013 1361.78 58.8839 Q1361.78 62.8538 1364.37 65.2034 Q1367.01 67.5124 1371.5 67.5124 Q1377.7 67.5124 1381.43 63.1374 Q1385.2 58.7219 1385.2 51.4303 L1385.2 49.7694 L1377.78 49.7694 M1392.65 46.6907 L1392.65 72.576 L1385.2 72.576 L1385.2 65.6895 Q1382.64 69.8214 1378.84 71.8063 Q1375.03 73.7508 1369.52 73.7508 Q1362.55 73.7508 1358.42 69.8619 Q1354.33 65.9325 1354.33 59.3701 Q1354.33 51.7138 1359.43 47.825 Q1364.58 43.9361 1374.75 43.9361 L1385.2 43.9361 L1385.2 43.2069 Q1385.2 38.0623 1381.79 35.2672 Q1378.43 32.4315 1372.31 32.4315 Q1368.43 32.4315 1364.74 33.3632 Q1361.05 34.295 1357.65 36.1584 L1357.65 29.2718 Q1361.74 27.692 1365.59 26.9223 Q1369.44 26.1121 1373.08 26.1121 Q1382.93 26.1121 1387.79 31.2163 Q1392.65 36.3204 1392.65 46.6907 Z" fill="#000000" fill-rule="nonzero" fill-opacity="1" /><path clip-path="url(#clip080)" d="M1425.91 9.62495 Q1420.48 18.942 1417.85 28.0566 Q1415.21 37.1711 1415.21 46.5287 Q1415.21 55.8863 1417.85 65.0818 Q1420.52 74.2369 1425.91 83.5134 L1419.43 83.5134 Q1413.35 73.9938 1410.31 64.7983 Q1407.31 55.6027 1407.31 46.5287 Q1407.31 37.4952 1410.31 28.3401 Q1413.31 19.1851 1419.43 9.62495 L1425.91 9.62495 Z" fill="#000000" fill-rule="nonzero" fill-opacity="1" /><path clip-path="url(#clip080)" d="M1432.31 12.096 L1483.47 12.096 L1483.47 18.9825 L1462 18.9825 L1462 72.576 L1453.78 72.576 L1453.78 18.9825 L1432.31 18.9825 L1432.31 12.096 Z" fill="#000000" fill-rule="nonzero" fill-opacity="1" /><path clip-path="url(#clip080)" d="M1489.87 9.62495 L1496.35 9.62495 Q1502.43 19.1851 1505.43 28.3401 Q1508.47 37.4952 1508.47 46.5287 Q1508.47 55.6027 1505.43 64.7983 Q1502.43 73.9938 1496.35 83.5134 L1489.87 83.5134 Q1495.26 74.2369 1497.89 65.0818 Q1500.57 55.8863 1500.57 46.5287 Q1500.57 37.1711 1497.89 28.0566 Q1495.26 18.942 1489.87 9.62495 Z" fill="#000000" fill-rule="nonzero" fill-opacity="1" /><path clip-path="url(#clip080)" d="M1525.32 62.2867 L1533.86 62.2867 L1533.86 69.2543 L1527.22 82.2172 L1522 82.2172 L1525.32 69.2543 L1525.32 62.2867 Z" fill="#000000" fill-rule="nonzero" fill-opacity="1" /><path clip-path="url(#clip080)" d="M1611.48 35.9153 Q1614.28 30.8922 1618.16 28.5022 Q1622.05 26.1121 1627.32 26.1121 Q1634.41 26.1121 1638.26 31.0947 Q1642.1 36.0368 1642.1 45.1919 L1642.1 72.576 L1634.61 72.576 L1634.61 45.4349 Q1634.61 38.913 1632.3 35.7533 Q1629.99 32.5936 1625.25 32.5936 Q1619.46 32.5936 1616.1 36.4419 Q1612.74 40.2903 1612.74 46.9338 L1612.74 72.576 L1605.24 72.576 L1605.24 45.4349 Q1605.24 38.8725 1602.93 35.7533 Q1600.62 32.5936 1595.8 32.5936 Q1590.09 32.5936 1586.73 36.4824 Q1583.37 40.3308 1583.37 46.9338 L1583.37 72.576 L1575.87 72.576 L1575.87 27.2059 L1583.37 27.2059 L1583.37 34.2544 Q1585.92 30.082 1589.48 28.0971 Q1593.05 26.1121 1597.95 26.1121 Q1602.89 26.1121 1606.34 28.6237 Q1609.82 31.1352 1611.48 35.9153 Z" fill="#000000" fill-rule="nonzero" fill-opacity="1" /><path clip-path="url(#clip080)" d="M1661.43 49.9314 Q1661.43 58.1548 1664.79 62.8538 Q1668.19 67.5124 1674.11 67.5124 Q1680.02 67.5124 1683.42 62.8538 Q1686.83 58.1548 1686.83 49.9314 Q1686.83 41.7081 1683.42 37.0496 Q1680.02 32.3505 1674.11 32.3505 Q1668.19 32.3505 1664.79 37.0496 Q1661.43 41.7081 1661.43 49.9314 M1686.83 65.7705 Q1684.48 69.8214 1680.87 71.8063 Q1677.31 73.7508 1672.28 73.7508 Q1664.06 73.7508 1658.88 67.1883 Q1653.73 60.6258 1653.73 49.9314 Q1653.73 39.2371 1658.88 32.6746 Q1664.06 26.1121 1672.28 26.1121 Q1677.31 26.1121 1680.87 28.0971 Q1684.48 30.0415 1686.83 34.0924 L1686.83 27.2059 L1694.28 27.2059 L1694.28 89.8329 L1686.83 89.8329 L1686.83 65.7705 Z" fill="#000000" fill-rule="nonzero" fill-opacity="1" /><path clip-path="url(#clip080)" d="M1736.98 34.9026 L1788.91 34.9026 L1788.91 41.7081 L1736.98 41.7081 L1736.98 34.9026 M1736.98 51.4303 L1788.91 51.4303 L1788.91 58.3168 L1736.98 58.3168 L1736.98 51.4303 Z" fill="#000000" fill-rule="nonzero" fill-opacity="1" /><path clip-path="url(#clip080)" d="M1850.44 17.4837 Q1844.12 17.4837 1840.92 23.7221 Q1837.76 29.92 1837.76 42.3968 Q1837.76 54.833 1840.92 61.0714 Q1844.12 67.2693 1850.44 67.2693 Q1856.8 67.2693 1859.96 61.0714 Q1863.16 54.833 1863.16 42.3968 Q1863.16 29.92 1859.96 23.7221 Q1856.8 17.4837 1850.44 17.4837 M1850.44 11.0023 Q1860.61 11.0023 1865.96 19.0636 Q1871.35 27.0843 1871.35 42.3968 Q1871.35 57.6687 1865.96 65.73 Q1860.61 73.7508 1850.44 73.7508 Q1840.28 73.7508 1834.89 65.73 Q1829.54 57.6687 1829.54 42.3968 Q1829.54 27.0843 1834.89 19.0636 Q1840.28 11.0023 1850.44 11.0023 Z" fill="#000000" fill-rule="nonzero" fill-opacity="1" /><polyline clip-path="url(#clip082)" style="stroke:#009af9; stroke-linecap:round; stroke-linejoin:round; stroke-width:10; stroke-opacity:1; fill:none" points="338.375,160.256 413.595,161.488 488.814,162.326 564.034,163.083 639.254,163.931 714.473,164.99 789.693,166.377 864.912,168.22 940.132,170.711 1015.35,174.205 1090.57,179.3 1165.79,186.709 1241.01,197.117 1316.23,211.151 1391.45,229.385 1466.67,252.406 1541.89,280.861 1617.11,315.553 1692.33,357.381 1767.55,407.57 1842.77,467.711 1917.99,540.026 1993.21,627.672 2068.43,735.815 2143.65,873.654 2218.87,1062.03 2294.08,1386.4 "/>
<path clip-path="url(#clip080)" d="M1937.65 270.476 L2283.65 270.476 L2283.65 166.796 L1937.65 166.796  Z" fill="#ffffff" fill-rule="evenodd" fill-opacity="1"/>
<polyline clip-path="url(#clip080)" style="stroke:#000000; stroke-linecap:round; stroke-linejoin:round; stroke-width:4; stroke-opacity:1; fill:none" points="1937.65,270.476 2283.65,270.476 2283.65,166.796 1937.65,166.796 1937.65,270.476 "/>
<polyline clip-path="url(#clip080)" style="stroke:#009af9; stroke-linecap:round; stroke-linejoin:round; stroke-width:10; stroke-opacity:1; fill:none" points="1960.68,218.636 2098.88,218.636 "/>
<path clip-path="url(#clip080)" d="M2142.26 214.967 Q2143.86 212.096 2146.08 210.731 Q2148.31 209.365 2151.32 209.365 Q2155.37 209.365 2157.57 212.212 Q2159.76 215.036 2159.76 220.268 L2159.76 235.916 L2155.48 235.916 L2155.48 220.407 Q2155.48 216.68 2154.16 214.874 Q2152.84 213.069 2150.13 213.069 Q2146.82 213.069 2144.9 215.268 Q2142.98 217.467 2142.98 221.263 L2142.98 235.916 L2138.7 235.916 L2138.7 220.407 Q2138.7 216.657 2137.38 214.874 Q2136.06 213.069 2133.31 213.069 Q2130.04 213.069 2128.12 215.291 Q2126.2 217.49 2126.2 221.263 L2126.2 235.916 L2121.92 235.916 L2121.92 209.99 L2126.2 209.99 L2126.2 214.018 Q2127.66 211.633 2129.7 210.499 Q2131.73 209.365 2134.53 209.365 Q2137.36 209.365 2139.32 210.8 Q2141.32 212.235 2142.26 214.967 Z" fill="#000000" fill-rule="nonzero" fill-opacity="1" /><path clip-path="url(#clip080)" d="M2170.81 222.976 Q2170.81 227.675 2172.73 230.36 Q2174.67 233.022 2178.05 233.022 Q2181.43 233.022 2183.38 230.36 Q2185.32 227.675 2185.32 222.976 Q2185.32 218.277 2183.38 215.615 Q2181.43 212.93 2178.05 212.93 Q2174.67 212.93 2172.73 215.615 Q2170.81 218.277 2170.81 222.976 M2185.32 232.027 Q2183.98 234.342 2181.92 235.476 Q2179.88 236.587 2177.01 236.587 Q2172.31 236.587 2169.35 232.837 Q2166.41 229.087 2166.41 222.976 Q2166.41 216.865 2169.35 213.115 Q2172.31 209.365 2177.01 209.365 Q2179.88 209.365 2181.92 210.499 Q2183.98 211.61 2185.32 213.925 L2185.32 209.99 L2189.58 209.99 L2189.58 245.777 L2185.32 245.777 L2185.32 232.027 Z" fill="#000000" fill-rule="nonzero" fill-opacity="1" /><path clip-path="url(#clip080)" d="M2198.91 214.388 L2228.58 214.388 L2228.58 218.277 L2198.91 218.277 L2198.91 214.388 M2198.91 223.832 L2228.58 223.832 L2228.58 227.768 L2198.91 227.768 L2198.91 223.832 Z" fill="#000000" fill-rule="nonzero" fill-opacity="1" /><path clip-path="url(#clip080)" d="M2248.68 204.434 Q2245.06 204.434 2243.24 207.999 Q2241.43 211.541 2241.43 218.67 Q2241.43 225.777 2243.24 229.342 Q2245.06 232.883 2248.68 232.883 Q2252.31 232.883 2254.12 229.342 Q2255.94 225.777 2255.94 218.67 Q2255.94 211.541 2254.12 207.999 Q2252.31 204.434 2248.68 204.434 M2248.68 200.731 Q2254.49 200.731 2257.54 205.337 Q2260.62 209.92 2260.62 218.67 Q2260.62 227.397 2257.54 232.004 Q2254.49 236.587 2248.68 236.587 Q2242.87 236.587 2239.79 232.004 Q2236.73 227.397 2236.73 218.67 Q2236.73 209.92 2239.79 205.337 Q2242.87 200.731 2248.68 200.731 Z" fill="#000000" fill-rule="nonzero" fill-opacity="1" /></svg>
