<?xml version="1.0" encoding="utf-8"?>
<svg xmlns="http://www.w3.org/2000/svg" xmlns:xlink="http://www.w3.org/1999/xlink" width="600" height="400" viewBox="0 0 2400 1600">
<defs>
  <clipPath id="clip020">
    <rect x="0" y="0" width="2400" height="1600"/>
  </clipPath>
</defs>
<path clip-path="url(#clip020)" d="M0 1600 L2400 1600 L2400 0 L0 0  Z" fill="#ffffff" fill-rule="evenodd" fill-opacity="1"/>
<defs>
  <clipPath id="clip021">
    <rect x="480" y="0" width="1681" height="1600"/>
  </clipPath>
</defs>
<path clip-path="url(#clip020)" d="M279.704 1423.18 L2352.76 1423.18 L2352.76 123.472 L279.704 123.472  Z" fill="#ffffff" fill-rule="evenodd" fill-opacity="1"/>
<defs>
  <clipPath id="clip022">
    <rect x="279" y="123" width="2074" height="1301"/>
  </clipPath>
</defs>
<polyline clip-path="url(#clip022)" style="stroke:#000000; stroke-linecap:round; stroke-linejoin:round; stroke-width:2; stroke-opacity:0.1; fill:none" points="631.732,1423.18 631.732,123.472 "/>
<polyline clip-path="url(#clip022)" style="stroke:#000000; stroke-linecap:round; stroke-linejoin:round; stroke-width:2; stroke-opacity:0.1; fill:none" points="1120.66,1423.18 1120.66,123.472 "/>
<polyline clip-path="url(#clip022)" style="stroke:#000000; stroke-linecap:round; stroke-linejoin:round; stroke-width:2; stroke-opacity:0.1; fill:none" points="1609.59,1423.18 1609.59,123.472 "/>
<polyline clip-path="url(#clip022)" style="stroke:#000000; stroke-linecap:round; stroke-linejoin:round; stroke-width:2; stroke-opacity:0.1; fill:none" points="2098.51,1423.18 2098.51,123.472 "/>
<polyline clip-path="url(#clip022)" style="stroke:#000000; stroke-linecap:round; stroke-linejoin:round; stroke-width:2; stroke-opacity:0.1; fill:none" points="279.704,1299.25 2352.76,1299.25 "/>
<polyline clip-path="url(#clip022)" style="stroke:#000000; stroke-linecap:round; stroke-linejoin:round; stroke-width:2; stroke-opacity:0.1; fill:none" points="279.704,1118.65 2352.76,1118.65 "/>
<polyline clip-path="url(#clip022)" style="stroke:#000000; stroke-linecap:round; stroke-linejoin:round; stroke-width:2; stroke-opacity:0.1; fill:none" points="279.704,938.046 2352.76,938.046 "/>
<polyline clip-path="url(#clip022)" style="stroke:#000000; stroke-linecap:round; stroke-linejoin:round; stroke-width:2; stroke-opacity:0.1; fill:none" points="279.704,757.443 2352.76,757.443 "/>
<polyline clip-path="url(#clip022)" style="stroke:#000000; stroke-linecap:round; stroke-linejoin:round; stroke-width:2; stroke-opacity:0.1; fill:none" points="279.704,576.841 2352.76,576.841 "/>
<polyline clip-path="url(#clip022)" style="stroke:#000000; stroke-linecap:round; stroke-linejoin:round; stroke-width:2; stroke-opacity:0.1; fill:none" points="279.704,396.238 2352.76,396.238 "/>
<polyline clip-path="url(#clip022)" style="stroke:#000000; stroke-linecap:round; stroke-linejoin:round; stroke-width:2; stroke-opacity:0.1; fill:none" points="279.704,215.635 2352.76,215.635 "/>
<polyline clip-path="url(#clip020)" style="stroke:#000000; stroke-linecap:round; stroke-linejoin:round; stroke-width:4; stroke-opacity:1; fill:none" points="279.704,1423.18 2352.76,1423.18 "/>
<polyline clip-path="url(#clip020)" style="stroke:#000000; stroke-linecap:round; stroke-linejoin:round; stroke-width:4; stroke-opacity:1; fill:none" points="631.732,1423.18 631.732,1404.28 "/>
<polyline clip-path="url(#clip020)" style="stroke:#000000; stroke-linecap:round; stroke-linejoin:round; stroke-width:4; stroke-opacity:1; fill:none" points="1120.66,1423.18 1120.66,1404.28 "/>
<polyline clip-path="url(#clip020)" style="stroke:#000000; stroke-linecap:round; stroke-linejoin:round; stroke-width:4; stroke-opacity:1; fill:none" points="1609.59,1423.18 1609.59,1404.28 "/>
<polyline clip-path="url(#clip020)" style="stroke:#000000; stroke-linecap:round; stroke-linejoin:round; stroke-width:4; stroke-opacity:1; fill:none" points="2098.51,1423.18 2098.51,1404.28 "/>
<path clip-path="url(#clip020)" d="M606.431 1451.02 L624.787 1451.02 L624.787 1454.96 L610.713 1454.96 L610.713 1463.43 Q611.732 1463.08 612.75 1462.92 Q613.769 1462.73 614.787 1462.73 Q620.574 1462.73 623.954 1465.9 Q627.333 1469.08 627.333 1474.49 Q627.333 1480.07 623.861 1483.17 Q620.389 1486.25 614.07 1486.25 Q611.894 1486.25 609.625 1485.88 Q607.38 1485.51 604.972 1484.77 L604.972 1480.07 Q607.056 1481.2 609.278 1481.76 Q611.5 1482.32 613.977 1482.32 Q617.982 1482.32 620.32 1480.21 Q622.658 1478.1 622.658 1474.49 Q622.658 1470.88 620.32 1468.77 Q617.982 1466.67 613.977 1466.67 Q612.102 1466.67 610.227 1467.08 Q608.375 1467.5 606.431 1468.38 L606.431 1451.02 Z" fill="#000000" fill-rule="nonzero" fill-opacity="1" /><path clip-path="url(#clip020)" d="M646.546 1454.1 Q642.935 1454.1 641.107 1457.66 Q639.301 1461.2 639.301 1468.33 Q639.301 1475.44 641.107 1479.01 Q642.935 1482.55 646.546 1482.55 Q650.181 1482.55 651.986 1479.01 Q653.815 1475.44 653.815 1468.33 Q653.815 1461.2 651.986 1457.66 Q650.181 1454.1 646.546 1454.1 M646.546 1450.39 Q652.356 1450.39 655.412 1455 Q658.491 1459.58 658.491 1468.33 Q658.491 1477.06 655.412 1481.67 Q652.356 1486.25 646.546 1486.25 Q640.736 1486.25 637.658 1481.67 Q634.602 1477.06 634.602 1468.33 Q634.602 1459.58 637.658 1455 Q640.736 1450.39 646.546 1450.39 Z" fill="#000000" fill-rule="nonzero" fill-opacity="1" /><path clip-path="url(#clip020)" d="M1080.27 1481.64 L1087.9 1481.64 L1087.9 1455.28 L1079.59 1456.95 L1079.59 1452.69 L1087.86 1451.02 L1092.53 1451.02 L1092.53 1481.64 L1100.17 1481.64 L1100.17 1485.58 L1080.27 1485.58 L1080.27 1481.64 Z" fill="#000000" fill-rule="nonzero" fill-opacity="1" /><path clip-path="url(#clip020)" d="M1119.62 1454.1 Q1116.01 1454.1 1114.18 1457.66 Q1112.37 1461.2 1112.37 1468.33 Q1112.37 1475.44 1114.18 1479.01 Q1116.01 1482.55 1119.62 1482.55 Q1123.25 1482.55 1125.06 1479.01 Q1126.89 1475.44 1126.89 1468.33 Q1126.89 1461.2 1125.06 1457.66 Q1123.25 1454.1 1119.62 1454.1 M1119.62 1450.39 Q1125.43 1450.39 1128.48 1455 Q1131.56 1459.58 1131.56 1468.33 Q1131.56 1477.06 1128.48 1481.67 Q1125.43 1486.25 1119.62 1486.25 Q1113.81 1486.25 1110.73 1481.67 Q1107.67 1477.06 1107.67 1468.33 Q1107.67 1459.58 1110.73 1455 Q1113.81 1450.39 1119.62 1450.39 Z" fill="#000000" fill-rule="nonzero" fill-opacity="1" /><path clip-path="url(#clip020)" d="M1149.78 1454.1 Q1146.17 1454.1 1144.34 1457.66 Q1142.53 1461.2 1142.53 1468.33 Q1142.53 1475.44 1144.34 1479.01 Q1146.17 1482.55 1149.78 1482.55 Q1153.41 1482.55 1155.22 1479.01 Q1157.05 1475.44 1157.05 1468.33 Q1157.05 1461.2 1155.22 1457.66 Q1153.41 1454.1 1149.78 1454.1 M1149.78 1450.39 Q1155.59 1450.39 1158.64 1455 Q1161.72 1459.58 1161.72 1468.33 Q1161.72 1477.06 1158.64 1481.67 Q1155.59 1486.25 1149.78 1486.25 Q1143.97 1486.25 1140.89 1481.67 Q1137.83 1477.06 1137.83 1468.33 Q1137.83 1459.58 1140.89 1455 Q1143.97 1450.39 1149.78 1450.39 Z" fill="#000000" fill-rule="nonzero" fill-opacity="1" /><path clip-path="url(#clip020)" d="M1569.19 1481.64 L1576.83 1481.64 L1576.83 1455.28 L1568.52 1456.95 L1568.52 1452.69 L1576.79 1451.02 L1581.46 1451.02 L1581.46 1481.64 L1589.1 1481.64 L1589.1 1485.58 L1569.19 1485.58 L1569.19 1481.64 Z" fill="#000000" fill-rule="nonzero" fill-opacity="1" /><path clip-path="url(#clip020)" d="M1598.59 1451.02 L1616.95 1451.02 L1616.95 1454.96 L1602.87 1454.96 L1602.87 1463.43 Q1603.89 1463.08 1604.91 1462.92 Q1605.93 1462.73 1606.95 1462.73 Q1612.73 1462.73 1616.11 1465.9 Q1619.49 1469.08 1619.49 1474.49 Q1619.49 1480.07 1616.02 1483.17 Q1612.55 1486.25 1606.23 1486.25 Q1604.05 1486.25 1601.79 1485.88 Q1599.54 1485.51 1597.13 1484.77 L1597.13 1480.07 Q1599.22 1481.2 1601.44 1481.76 Q1603.66 1482.32 1606.14 1482.32 Q1610.14 1482.32 1612.48 1480.21 Q1614.82 1478.1 1614.82 1474.49 Q1614.82 1470.88 1612.48 1468.77 Q1610.14 1466.67 1606.14 1466.67 Q1604.26 1466.67 1602.39 1467.08 Q1600.54 1467.5 1598.59 1468.38 L1598.59 1451.02 Z" fill="#000000" fill-rule="nonzero" fill-opacity="1" /><path clip-path="url(#clip020)" d="M1638.71 1454.1 Q1635.1 1454.1 1633.27 1457.66 Q1631.46 1461.2 1631.46 1468.33 Q1631.46 1475.44 1633.27 1479.01 Q1635.1 1482.55 1638.71 1482.55 Q1642.34 1482.55 1644.15 1479.01 Q1645.98 1475.44 1645.98 1468.33 Q1645.98 1461.2 1644.15 1457.66 Q1642.34 1454.1 1638.71 1454.1 M1638.71 1450.39 Q1644.52 1450.39 1647.57 1455 Q1650.65 1459.58 1650.65 1468.33 Q1650.65 1477.06 1647.57 1481.67 Q1644.52 1486.25 1638.71 1486.25 Q1632.9 1486.25 1629.82 1481.67 Q1626.76 1477.06 1626.76 1468.33 Q1626.76 1459.58 1629.82 1455 Q1632.9 1450.39 1638.71 1450.39 Z" fill="#000000" fill-rule="nonzero" fill-opacity="1" /><path clip-path="url(#clip020)" d="M2062.21 1481.64 L2078.53 1481.64 L2078.53 1485.58 L2056.58 1485.58 L2056.58 1481.64 Q2059.24 1478.89 2063.83 1474.26 Q2068.43 1469.61 2069.61 1468.27 Q2071.86 1465.74 2072.74 1464.01 Q2073.64 1462.25 2073.64 1460.56 Q2073.64 1457.8 2071.7 1456.07 Q2069.78 1454.33 2066.67 1454.33 Q2064.47 1454.33 2062.02 1455.09 Q2059.59 1455.86 2056.81 1457.41 L2056.81 1452.69 Q2059.64 1451.55 2062.09 1450.97 Q2064.54 1450.39 2066.58 1450.39 Q2071.95 1450.39 2075.15 1453.08 Q2078.34 1455.77 2078.34 1460.26 Q2078.34 1462.39 2077.53 1464.31 Q2076.74 1466.2 2074.64 1468.8 Q2074.06 1469.47 2070.96 1472.69 Q2067.85 1475.88 2062.21 1481.64 Z" fill="#000000" fill-rule="nonzero" fill-opacity="1" /><path clip-path="url(#clip020)" d="M2098.34 1454.1 Q2094.73 1454.1 2092.9 1457.66 Q2091.09 1461.2 2091.09 1468.33 Q2091.09 1475.44 2092.9 1479.01 Q2094.73 1482.55 2098.34 1482.55 Q2101.97 1482.55 2103.78 1479.01 Q2105.61 1475.44 2105.61 1468.33 Q2105.61 1461.2 2103.78 1457.66 Q2101.97 1454.1 2098.34 1454.1 M2098.34 1450.39 Q2104.15 1450.39 2107.21 1455 Q2110.28 1459.58 2110.28 1468.33 Q2110.28 1477.06 2107.21 1481.67 Q2104.15 1486.25 2098.34 1486.25 Q2092.53 1486.25 2089.45 1481.67 Q2086.4 1477.06 2086.4 1468.33 Q2086.4 1459.58 2089.45 1455 Q2092.53 1450.39 2098.34 1450.39 Z" fill="#000000" fill-rule="nonzero" fill-opacity="1" /><path clip-path="url(#clip020)" d="M2128.5 1454.1 Q2124.89 1454.1 2123.06 1457.66 Q2121.26 1461.2 2121.26 1468.33 Q2121.26 1475.44 2123.06 1479.01 Q2124.89 1482.55 2128.5 1482.55 Q2132.14 1482.55 2133.94 1479.01 Q2135.77 1475.44 2135.77 1468.33 Q2135.77 1461.2 2133.94 1457.66 Q2132.14 1454.1 2128.5 1454.1 M2128.5 1450.39 Q2134.31 1450.39 2137.37 1455 Q2140.45 1459.58 2140.45 1468.33 Q2140.45 1477.06 2137.37 1481.67 Q2134.31 1486.25 2128.5 1486.25 Q2122.69 1486.25 2119.61 1481.67 Q2116.56 1477.06 2116.56 1468.33 Q2116.56 1459.58 2119.61 1455 Q2122.69 1450.39 2128.5 1450.39 Z" fill="#000000" fill-rule="nonzero" fill-opacity="1" /><path clip-path="url(#clip020)" d="M1192.77 1520.52 L1232.97 1520.52 L1232.97 1525.93 L1216.1 1525.93 L1216.1 1568.04 L1209.64 1568.04 L1209.64 1525.93 L1192.77 1525.93 L1192.77 1520.52 Z" fill="#000000" fill-rule="nonzero" fill-opacity="1" /><path clip-path="url(#clip020)" d="M1259.1 1518.52 L1272.59 1518.52 L1272.59 1523.07 L1264.95 1523.07 L1264.95 1572.09 L1272.59 1572.09 L1272.59 1576.64 L1259.1 1576.64 L1259.1 1518.52 Z" fill="#000000" fill-rule="nonzero" fill-opacity="1" /><path clip-path="url(#clip020)" d="M1285.32 1520.52 L1294.9 1520.52 L1307.03 1552.86 L1319.22 1520.52 L1328.8 1520.52 L1328.8 1568.04 L1322.53 1568.04 L1322.53 1526.32 L1310.28 1558.91 L1303.82 1558.91 L1291.56 1526.32 L1291.56 1568.04 L1285.32 1568.04 L1285.32 1520.52 Z" fill="#000000" fill-rule="nonzero" fill-opacity="1" /><path clip-path="url(#clip020)" d="M1371.8 1548.76 L1371.8 1551.62 L1344.88 1551.62 Q1345.26 1557.67 1348.5 1560.85 Q1351.78 1564 1357.61 1564 Q1360.98 1564 1364.13 1563.17 Q1367.31 1562.35 1370.43 1560.69 L1370.43 1566.23 Q1367.28 1567.57 1363.97 1568.27 Q1360.66 1568.97 1357.26 1568.97 Q1348.73 1568.97 1343.73 1564 Q1338.76 1559.04 1338.76 1550.57 Q1338.76 1541.82 1343.48 1536.69 Q1348.22 1531.54 1356.24 1531.54 Q1363.43 1531.54 1367.6 1536.18 Q1371.8 1540.8 1371.8 1548.76 M1365.95 1547.04 Q1365.88 1542.23 1363.24 1539.37 Q1360.63 1536.5 1356.3 1536.5 Q1351.4 1536.5 1348.44 1539.27 Q1345.51 1542.04 1345.07 1547.07 L1365.95 1547.04 Z" fill="#000000" fill-rule="nonzero" fill-opacity="1" /><path clip-path="url(#clip020)" d="M1393.92 1568.04 L1375.78 1520.52 L1382.5 1520.52 L1397.55 1560.53 L1412.64 1520.52 L1419.32 1520.52 L1401.21 1568.04 L1393.92 1568.04 Z" fill="#000000" fill-rule="nonzero" fill-opacity="1" /><path clip-path="url(#clip020)" d="M1439.69 1518.52 L1439.69 1576.64 L1426.2 1576.64 L1426.2 1572.09 L1433.8 1572.09 L1433.8 1523.07 L1426.2 1523.07 L1426.2 1518.52 L1439.69 1518.52 Z" fill="#000000" fill-rule="nonzero" fill-opacity="1" /><polyline clip-path="url(#clip020)" style="stroke:#000000; stroke-linecap:round; stroke-linejoin:round; stroke-width:4; stroke-opacity:1; fill:none" points="279.704,1423.18 279.704,123.472 "/>
<polyline clip-path="url(#clip020)" style="stroke:#000000; stroke-linecap:round; stroke-linejoin:round; stroke-width:4; stroke-opacity:1; fill:none" points="279.704,1299.25 298.602,1299.25 "/>
<polyline clip-path="url(#clip020)" style="stroke:#000000; stroke-linecap:round; stroke-linejoin:round; stroke-width:4; stroke-opacity:1; fill:none" points="279.704,1118.65 298.602,1118.65 "/>
<polyline clip-path="url(#clip020)" style="stroke:#000000; stroke-linecap:round; stroke-linejoin:round; stroke-width:4; stroke-opacity:1; fill:none" points="279.704,938.046 298.602,938.046 "/>
<polyline clip-path="url(#clip020)" style="stroke:#000000; stroke-linecap:round; stroke-linejoin:round; stroke-width:4; stroke-opacity:1; fill:none" points="279.704,757.443 298.602,757.443 "/>
<polyline clip-path="url(#clip020)" style="stroke:#000000; stroke-linecap:round; stroke-linejoin:round; stroke-width:4; stroke-opacity:1; fill:none" points="279.704,576.841 298.602,576.841 "/>
<polyline clip-path="url(#clip020)" style="stroke:#000000; stroke-linecap:round; stroke-linejoin:round; stroke-width:4; stroke-opacity:1; fill:none" points="279.704,396.238 298.602,396.238 "/>
<polyline clip-path="url(#clip020)" style="stroke:#000000; stroke-linecap:round; stroke-linejoin:round; stroke-width:4; stroke-opacity:1; fill:none" points="279.704,215.635 298.602,215.635 "/>
<path clip-path="url(#clip020)" d="M127.2 1285.05 Q123.589 1285.05 121.76 1288.61 Q119.955 1292.16 119.955 1299.29 Q119.955 1306.39 121.76 1309.96 Q123.589 1313.5 127.2 1313.5 Q130.834 1313.5 132.64 1309.96 Q134.468 1306.39 134.468 1299.29 Q134.468 1292.16 132.64 1288.61 Q130.834 1285.05 127.2 1285.05 M127.2 1281.35 Q133.01 1281.35 136.066 1285.95 Q139.144 1290.54 139.144 1299.29 Q139.144 1308.01 136.066 1312.62 Q133.01 1317.2 127.2 1317.2 Q121.39 1317.2 118.311 1312.62 Q115.256 1308.01 115.256 1299.29 Q115.256 1290.54 118.311 1285.95 Q121.39 1281.35 127.2 1281.35 Z" fill="#000000" fill-rule="nonzero" fill-opacity="1" /><path clip-path="url(#clip020)" d="M147.362 1310.65 L152.246 1310.65 L152.246 1316.53 L147.362 1316.53 L147.362 1310.65 Z" fill="#000000" fill-rule="nonzero" fill-opacity="1" /><path clip-path="url(#clip020)" d="M172.431 1285.05 Q168.82 1285.05 166.991 1288.61 Q165.186 1292.16 165.186 1299.29 Q165.186 1306.39 166.991 1309.96 Q168.82 1313.5 172.431 1313.5 Q176.065 1313.5 177.871 1309.96 Q179.7 1306.39 179.7 1299.29 Q179.7 1292.16 177.871 1288.61 Q176.065 1285.05 172.431 1285.05 M172.431 1281.35 Q178.241 1281.35 181.297 1285.95 Q184.376 1290.54 184.376 1299.29 Q184.376 1308.01 181.297 1312.62 Q178.241 1317.2 172.431 1317.2 Q166.621 1317.2 163.542 1312.62 Q160.487 1308.01 160.487 1299.29 Q160.487 1290.54 163.542 1285.95 Q166.621 1281.35 172.431 1281.35 Z" fill="#000000" fill-rule="nonzero" fill-opacity="1" /><path clip-path="url(#clip020)" d="M202.593 1285.05 Q198.982 1285.05 197.153 1288.61 Q195.348 1292.16 195.348 1299.29 Q195.348 1306.39 197.153 1309.96 Q198.982 1313.5 202.593 1313.5 Q206.227 1313.5 208.033 1309.96 Q209.861 1306.39 209.861 1299.29 Q209.861 1292.16 208.033 1288.61 Q206.227 1285.05 202.593 1285.05 M202.593 1281.35 Q208.403 1281.35 211.459 1285.95 Q214.537 1290.54 214.537 1299.29 Q214.537 1308.01 211.459 1312.62 Q208.403 1317.2 202.593 1317.2 Q196.783 1317.2 193.704 1312.62 Q190.649 1308.01 190.649 1299.29 Q190.649 1290.54 193.704 1285.95 Q196.783 1281.35 202.593 1281.35 Z" fill="#000000" fill-rule="nonzero" fill-opacity="1" /><path clip-path="url(#clip020)" d="M222.801 1281.97 L241.158 1281.97 L241.158 1285.91 L227.084 1285.91 L227.084 1294.38 Q228.102 1294.03 229.121 1293.87 Q230.139 1293.68 231.158 1293.68 Q236.945 1293.68 240.324 1296.85 Q243.704 1300.03 243.704 1305.44 Q243.704 1311.02 240.232 1314.12 Q236.76 1317.2 230.44 1317.2 Q228.264 1317.2 225.996 1316.83 Q223.75 1316.46 221.343 1315.72 L221.343 1311.02 Q223.426 1312.16 225.648 1312.71 Q227.871 1313.27 230.347 1313.27 Q234.352 1313.27 236.69 1311.16 Q239.028 1309.05 239.028 1305.44 Q239.028 1301.83 236.69 1299.73 Q234.352 1297.62 230.347 1297.62 Q228.473 1297.62 226.598 1298.04 Q224.746 1298.45 222.801 1299.33 L222.801 1281.97 Z" fill="#000000" fill-rule="nonzero" fill-opacity="1" /><path clip-path="url(#clip020)" d="M126.205 1104.45 Q122.593 1104.45 120.765 1108.01 Q118.959 1111.55 118.959 1118.68 Q118.959 1125.79 120.765 1129.35 Q122.593 1132.9 126.205 1132.9 Q129.839 1132.9 131.644 1129.35 Q133.473 1125.79 133.473 1118.68 Q133.473 1111.55 131.644 1108.01 Q129.839 1104.45 126.205 1104.45 M126.205 1100.74 Q132.015 1100.74 135.07 1105.35 Q138.149 1109.93 138.149 1118.68 Q138.149 1127.41 135.07 1132.02 Q132.015 1136.6 126.205 1136.6 Q120.394 1136.6 117.316 1132.02 Q114.26 1127.41 114.26 1118.68 Q114.26 1109.93 117.316 1105.35 Q120.394 1100.74 126.205 1100.74 Z" fill="#000000" fill-rule="nonzero" fill-opacity="1" /><path clip-path="url(#clip020)" d="M146.366 1130.05 L151.251 1130.05 L151.251 1135.93 L146.366 1135.93 L146.366 1130.05 Z" fill="#000000" fill-rule="nonzero" fill-opacity="1" /><path clip-path="url(#clip020)" d="M171.436 1104.45 Q167.825 1104.45 165.996 1108.01 Q164.19 1111.55 164.19 1118.68 Q164.19 1125.79 165.996 1129.35 Q167.825 1132.9 171.436 1132.9 Q175.07 1132.9 176.876 1129.35 Q178.704 1125.79 178.704 1118.68 Q178.704 1111.55 176.876 1108.01 Q175.07 1104.45 171.436 1104.45 M171.436 1100.74 Q177.246 1100.74 180.301 1105.35 Q183.38 1109.93 183.38 1118.68 Q183.38 1127.41 180.301 1132.02 Q177.246 1136.6 171.436 1136.6 Q165.626 1136.6 162.547 1132.02 Q159.491 1127.41 159.491 1118.68 Q159.491 1109.93 162.547 1105.35 Q165.626 1100.74 171.436 1100.74 Z" fill="#000000" fill-rule="nonzero" fill-opacity="1" /><path clip-path="url(#clip020)" d="M192.408 1131.99 L200.047 1131.99 L200.047 1105.63 L191.737 1107.29 L191.737 1103.03 L200 1101.37 L204.676 1101.37 L204.676 1131.99 L212.315 1131.99 L212.315 1135.93 L192.408 1135.93 L192.408 1131.99 Z" fill="#000000" fill-rule="nonzero" fill-opacity="1" /><path clip-path="url(#clip020)" d="M231.76 1104.45 Q228.148 1104.45 226.32 1108.01 Q224.514 1111.55 224.514 1118.68 Q224.514 1125.79 226.32 1129.35 Q228.148 1132.9 231.76 1132.9 Q235.394 1132.9 237.199 1129.35 Q239.028 1125.79 239.028 1118.68 Q239.028 1111.55 237.199 1108.01 Q235.394 1104.45 231.76 1104.45 M231.76 1100.74 Q237.57 1100.74 240.625 1105.35 Q243.704 1109.93 243.704 1118.68 Q243.704 1127.41 240.625 1132.02 Q237.57 1136.6 231.76 1136.6 Q225.949 1136.6 222.871 1132.02 Q219.815 1127.41 219.815 1118.68 Q219.815 1109.93 222.871 1105.35 Q225.949 1100.74 231.76 1100.74 Z" fill="#000000" fill-rule="nonzero" fill-opacity="1" /><path clip-path="url(#clip020)" d="M127.2 923.844 Q123.589 923.844 121.76 927.409 Q119.955 930.951 119.955 938.08 Q119.955 945.187 121.76 948.752 Q123.589 952.293 127.2 952.293 Q130.834 952.293 132.64 948.752 Q134.468 945.187 134.468 938.08 Q134.468 930.951 132.64 927.409 Q130.834 923.844 127.2 923.844 M127.2 920.141 Q133.01 920.141 136.066 924.747 Q139.144 929.33 139.144 938.08 Q139.144 946.807 136.066 951.414 Q133.01 955.997 127.2 955.997 Q121.39 955.997 118.311 951.414 Q115.256 946.807 115.256 938.08 Q115.256 929.33 118.311 924.747 Q121.39 920.141 127.2 920.141 Z" fill="#000000" fill-rule="nonzero" fill-opacity="1" /><path clip-path="url(#clip020)" d="M147.362 949.446 L152.246 949.446 L152.246 955.326 L147.362 955.326 L147.362 949.446 Z" fill="#000000" fill-rule="nonzero" fill-opacity="1" /><path clip-path="url(#clip020)" d="M172.431 923.844 Q168.82 923.844 166.991 927.409 Q165.186 930.951 165.186 938.08 Q165.186 945.187 166.991 948.752 Q168.82 952.293 172.431 952.293 Q176.065 952.293 177.871 948.752 Q179.7 945.187 179.7 938.08 Q179.7 930.951 177.871 927.409 Q176.065 923.844 172.431 923.844 M172.431 920.141 Q178.241 920.141 181.297 924.747 Q184.376 929.33 184.376 938.08 Q184.376 946.807 181.297 951.414 Q178.241 955.997 172.431 955.997 Q166.621 955.997 163.542 951.414 Q160.487 946.807 160.487 938.08 Q160.487 929.33 163.542 924.747 Q166.621 920.141 172.431 920.141 Z" fill="#000000" fill-rule="nonzero" fill-opacity="1" /><path clip-path="url(#clip020)" d="M193.403 951.39 L201.042 951.39 L201.042 925.025 L192.732 926.691 L192.732 922.432 L200.996 920.766 L205.672 920.766 L205.672 951.39 L213.311 951.39 L213.311 955.326 L193.403 955.326 L193.403 951.39 Z" fill="#000000" fill-rule="nonzero" fill-opacity="1" /><path clip-path="url(#clip020)" d="M222.801 920.766 L241.158 920.766 L241.158 924.701 L227.084 924.701 L227.084 933.173 Q228.102 932.826 229.121 932.664 Q230.139 932.478 231.158 932.478 Q236.945 932.478 240.324 935.65 Q243.704 938.821 243.704 944.238 Q243.704 949.816 240.232 952.918 Q236.76 955.997 230.44 955.997 Q228.264 955.997 225.996 955.626 Q223.75 955.256 221.343 954.515 L221.343 949.816 Q223.426 950.951 225.648 951.506 Q227.871 952.062 230.347 952.062 Q234.352 952.062 236.69 949.955 Q239.028 947.849 239.028 944.238 Q239.028 940.627 236.69 938.52 Q234.352 936.414 230.347 936.414 Q228.473 936.414 226.598 936.83 Q224.746 937.247 222.801 938.127 L222.801 920.766 Z" fill="#000000" fill-rule="nonzero" fill-opacity="1" /><path clip-path="url(#clip020)" d="M126.205 743.242 Q122.593 743.242 120.765 746.807 Q118.959 750.348 118.959 757.478 Q118.959 764.584 120.765 768.149 Q122.593 771.691 126.205 771.691 Q129.839 771.691 131.644 768.149 Q133.473 764.584 133.473 757.478 Q133.473 750.348 131.644 746.807 Q129.839 743.242 126.205 743.242 M126.205 739.538 Q132.015 739.538 135.07 744.145 Q138.149 748.728 138.149 757.478 Q138.149 766.205 135.07 770.811 Q132.015 775.394 126.205 775.394 Q120.394 775.394 117.316 770.811 Q114.26 766.205 114.26 757.478 Q114.26 748.728 117.316 744.145 Q120.394 739.538 126.205 739.538 Z" fill="#000000" fill-rule="nonzero" fill-opacity="1" /><path clip-path="url(#clip020)" d="M146.366 768.843 L151.251 768.843 L151.251 774.723 L146.366 774.723 L146.366 768.843 Z" fill="#000000" fill-rule="nonzero" fill-opacity="1" /><path clip-path="url(#clip020)" d="M171.436 743.242 Q167.825 743.242 165.996 746.807 Q164.19 750.348 164.19 757.478 Q164.19 764.584 165.996 768.149 Q167.825 771.691 171.436 771.691 Q175.07 771.691 176.876 768.149 Q178.704 764.584 178.704 757.478 Q178.704 750.348 176.876 746.807 Q175.07 743.242 171.436 743.242 M171.436 739.538 Q177.246 739.538 180.301 744.145 Q183.38 748.728 183.38 757.478 Q183.38 766.205 180.301 770.811 Q177.246 775.394 171.436 775.394 Q165.626 775.394 162.547 770.811 Q159.491 766.205 159.491 757.478 Q159.491 748.728 162.547 744.145 Q165.626 739.538 171.436 739.538 Z" fill="#000000" fill-rule="nonzero" fill-opacity="1" /><path clip-path="url(#clip020)" d="M195.625 770.788 L211.945 770.788 L211.945 774.723 L190 774.723 L190 770.788 Q192.663 768.033 197.246 763.404 Q201.852 758.751 203.033 757.408 Q205.278 754.885 206.158 753.149 Q207.061 751.39 207.061 749.7 Q207.061 746.945 205.116 745.209 Q203.195 743.473 200.093 743.473 Q197.894 743.473 195.44 744.237 Q193.01 745.001 190.232 746.552 L190.232 741.83 Q193.056 740.695 195.51 740.117 Q197.963 739.538 200 739.538 Q205.371 739.538 208.565 742.223 Q211.76 744.908 211.76 749.399 Q211.76 751.529 210.949 753.45 Q210.162 755.348 208.056 757.941 Q207.477 758.612 204.375 761.83 Q201.274 765.024 195.625 770.788 Z" fill="#000000" fill-rule="nonzero" fill-opacity="1" /><path clip-path="url(#clip020)" d="M231.76 743.242 Q228.148 743.242 226.32 746.807 Q224.514 750.348 224.514 757.478 Q224.514 764.584 226.32 768.149 Q228.148 771.691 231.76 771.691 Q235.394 771.691 237.199 768.149 Q239.028 764.584 239.028 757.478 Q239.028 750.348 237.199 746.807 Q235.394 743.242 231.76 743.242 M231.76 739.538 Q237.57 739.538 240.625 744.145 Q243.704 748.728 243.704 757.478 Q243.704 766.205 240.625 770.811 Q237.57 775.394 231.76 775.394 Q225.949 775.394 222.871 770.811 Q219.815 766.205 219.815 757.478 Q219.815 748.728 222.871 744.145 Q225.949 739.538 231.76 739.538 Z" fill="#000000" fill-rule="nonzero" fill-opacity="1" /><path clip-path="url(#clip020)" d="M127.2 562.639 Q123.589 562.639 121.76 566.204 Q119.955 569.746 119.955 576.875 Q119.955 583.982 121.76 587.546 Q123.589 591.088 127.2 591.088 Q130.834 591.088 132.64 587.546 Q134.468 583.982 134.468 576.875 Q134.468 569.746 132.64 566.204 Q130.834 562.639 127.2 562.639 M127.2 558.936 Q133.01 558.936 136.066 563.542 Q139.144 568.125 139.144 576.875 Q139.144 585.602 136.066 590.209 Q133.01 594.792 127.2 594.792 Q121.39 594.792 118.311 590.209 Q115.256 585.602 115.256 576.875 Q115.256 568.125 118.311 563.542 Q121.39 558.936 127.2 558.936 Z" fill="#000000" fill-rule="nonzero" fill-opacity="1" /><path clip-path="url(#clip020)" d="M147.362 588.241 L152.246 588.241 L152.246 594.121 L147.362 594.121 L147.362 588.241 Z" fill="#000000" fill-rule="nonzero" fill-opacity="1" /><path clip-path="url(#clip020)" d="M172.431 562.639 Q168.82 562.639 166.991 566.204 Q165.186 569.746 165.186 576.875 Q165.186 583.982 166.991 587.546 Q168.82 591.088 172.431 591.088 Q176.065 591.088 177.871 587.546 Q179.7 583.982 179.7 576.875 Q179.7 569.746 177.871 566.204 Q176.065 562.639 172.431 562.639 M172.431 558.936 Q178.241 558.936 181.297 563.542 Q184.376 568.125 184.376 576.875 Q184.376 585.602 181.297 590.209 Q178.241 594.792 172.431 594.792 Q166.621 594.792 163.542 590.209 Q160.487 585.602 160.487 576.875 Q160.487 568.125 163.542 563.542 Q166.621 558.936 172.431 558.936 Z" fill="#000000" fill-rule="nonzero" fill-opacity="1" /><path clip-path="url(#clip020)" d="M196.621 590.185 L212.94 590.185 L212.94 594.121 L190.996 594.121 L190.996 590.185 Q193.658 587.431 198.241 582.801 Q202.848 578.148 204.028 576.806 Q206.274 574.283 207.153 572.547 Q208.056 570.787 208.056 569.098 Q208.056 566.343 206.112 564.607 Q204.19 562.871 201.088 562.871 Q198.889 562.871 196.436 563.635 Q194.005 564.398 191.227 565.949 L191.227 561.227 Q194.051 560.093 196.505 559.514 Q198.959 558.936 200.996 558.936 Q206.366 558.936 209.561 561.621 Q212.755 564.306 212.755 568.797 Q212.755 570.926 211.945 572.847 Q211.158 574.746 209.051 577.338 Q208.473 578.01 205.371 581.227 Q202.269 584.422 196.621 590.185 Z" fill="#000000" fill-rule="nonzero" fill-opacity="1" /><path clip-path="url(#clip020)" d="M222.801 559.561 L241.158 559.561 L241.158 563.496 L227.084 563.496 L227.084 571.968 Q228.102 571.621 229.121 571.459 Q230.139 571.273 231.158 571.273 Q236.945 571.273 240.324 574.445 Q243.704 577.616 243.704 583.033 Q243.704 588.611 240.232 591.713 Q236.76 594.792 230.44 594.792 Q228.264 594.792 225.996 594.421 Q223.75 594.051 221.343 593.31 L221.343 588.611 Q223.426 589.746 225.648 590.301 Q227.871 590.857 230.347 590.857 Q234.352 590.857 236.69 588.75 Q239.028 586.644 239.028 583.033 Q239.028 579.422 236.69 577.315 Q234.352 575.209 230.347 575.209 Q228.473 575.209 226.598 575.625 Q224.746 576.042 222.801 576.922 L222.801 559.561 Z" fill="#000000" fill-rule="nonzero" fill-opacity="1" /><path clip-path="url(#clip020)" d="M126.205 382.037 Q122.593 382.037 120.765 385.601 Q118.959 389.143 118.959 396.273 Q118.959 403.379 120.765 406.944 Q122.593 410.486 126.205 410.486 Q129.839 410.486 131.644 406.944 Q133.473 403.379 133.473 396.273 Q133.473 389.143 131.644 385.601 Q129.839 382.037 126.205 382.037 M126.205 378.333 Q132.015 378.333 135.07 382.939 Q138.149 387.523 138.149 396.273 Q138.149 405 135.07 409.606 Q132.015 414.189 126.205 414.189 Q120.394 414.189 117.316 409.606 Q114.26 405 114.26 396.273 Q114.26 387.523 117.316 382.939 Q120.394 378.333 126.205 378.333 Z" fill="#000000" fill-rule="nonzero" fill-opacity="1" /><path clip-path="url(#clip020)" d="M146.366 407.638 L151.251 407.638 L151.251 413.518 L146.366 413.518 L146.366 407.638 Z" fill="#000000" fill-rule="nonzero" fill-opacity="1" /><path clip-path="url(#clip020)" d="M171.436 382.037 Q167.825 382.037 165.996 385.601 Q164.19 389.143 164.19 396.273 Q164.19 403.379 165.996 406.944 Q167.825 410.486 171.436 410.486 Q175.07 410.486 176.876 406.944 Q178.704 403.379 178.704 396.273 Q178.704 389.143 176.876 385.601 Q175.07 382.037 171.436 382.037 M171.436 378.333 Q177.246 378.333 180.301 382.939 Q183.38 387.523 183.38 396.273 Q183.38 405 180.301 409.606 Q177.246 414.189 171.436 414.189 Q165.626 414.189 162.547 409.606 Q159.491 405 159.491 396.273 Q159.491 387.523 162.547 382.939 Q165.626 378.333 171.436 378.333 Z" fill="#000000" fill-rule="nonzero" fill-opacity="1" /><path clip-path="url(#clip020)" d="M205.764 394.884 Q209.121 395.601 210.996 397.87 Q212.894 400.138 212.894 403.472 Q212.894 408.587 209.375 411.388 Q205.857 414.189 199.375 414.189 Q197.2 414.189 194.885 413.749 Q192.593 413.333 190.139 412.476 L190.139 407.962 Q192.084 409.097 194.399 409.675 Q196.713 410.254 199.237 410.254 Q203.635 410.254 205.926 408.518 Q208.241 406.782 208.241 403.472 Q208.241 400.416 206.088 398.703 Q203.959 396.967 200.139 396.967 L196.112 396.967 L196.112 393.125 L200.325 393.125 Q203.774 393.125 205.602 391.759 Q207.431 390.37 207.431 387.777 Q207.431 385.115 205.533 383.703 Q203.658 382.268 200.139 382.268 Q198.218 382.268 196.019 382.685 Q193.82 383.102 191.181 383.981 L191.181 379.814 Q193.843 379.074 196.158 378.703 Q198.496 378.333 200.556 378.333 Q205.88 378.333 208.982 380.764 Q212.084 383.171 212.084 387.291 Q212.084 390.162 210.44 392.152 Q208.797 394.12 205.764 394.884 Z" fill="#000000" fill-rule="nonzero" fill-opacity="1" /><path clip-path="url(#clip020)" d="M231.76 382.037 Q228.148 382.037 226.32 385.601 Q224.514 389.143 224.514 396.273 Q224.514 403.379 226.32 406.944 Q228.148 410.486 231.76 410.486 Q235.394 410.486 237.199 406.944 Q239.028 403.379 239.028 396.273 Q239.028 389.143 237.199 385.601 Q235.394 382.037 231.76 382.037 M231.76 378.333 Q237.57 378.333 240.625 382.939 Q243.704 387.523 243.704 396.273 Q243.704 405 240.625 409.606 Q237.57 414.189 231.76 414.189 Q225.949 414.189 222.871 409.606 Q219.815 405 219.815 396.273 Q219.815 387.523 222.871 382.939 Q225.949 378.333 231.76 378.333 Z" fill="#000000" fill-rule="nonzero" fill-opacity="1" /><path clip-path="url(#clip020)" d="M127.2 201.434 Q123.589 201.434 121.76 204.999 Q119.955 208.541 119.955 215.67 Q119.955 222.777 121.76 226.341 Q123.589 229.883 127.2 229.883 Q130.834 229.883 132.64 226.341 Q134.468 222.777 134.468 215.67 Q134.468 208.541 132.64 204.999 Q130.834 201.434 127.2 201.434 M127.2 197.73 Q133.01 197.73 136.066 202.337 Q139.144 206.92 139.144 215.67 Q139.144 224.397 136.066 229.003 Q133.01 233.587 127.2 233.587 Q121.39 233.587 118.311 229.003 Q115.256 224.397 115.256 215.67 Q115.256 206.92 118.311 202.337 Q121.39 197.73 127.2 197.73 Z" fill="#000000" fill-rule="nonzero" fill-opacity="1" /><path clip-path="url(#clip020)" d="M147.362 227.036 L152.246 227.036 L152.246 232.915 L147.362 232.915 L147.362 227.036 Z" fill="#000000" fill-rule="nonzero" fill-opacity="1" /><path clip-path="url(#clip020)" d="M172.431 201.434 Q168.82 201.434 166.991 204.999 Q165.186 208.541 165.186 215.67 Q165.186 222.777 166.991 226.341 Q168.82 229.883 172.431 229.883 Q176.065 229.883 177.871 226.341 Q179.7 222.777 179.7 215.67 Q179.7 208.541 177.871 204.999 Q176.065 201.434 172.431 201.434 M172.431 197.73 Q178.241 197.73 181.297 202.337 Q184.376 206.92 184.376 215.67 Q184.376 224.397 181.297 229.003 Q178.241 233.587 172.431 233.587 Q166.621 233.587 163.542 229.003 Q160.487 224.397 160.487 215.67 Q160.487 206.92 163.542 202.337 Q166.621 197.73 172.431 197.73 Z" fill="#000000" fill-rule="nonzero" fill-opacity="1" /><path clip-path="url(#clip020)" d="M206.76 214.281 Q210.116 214.999 211.991 217.267 Q213.889 219.536 213.889 222.869 Q213.889 227.985 210.371 230.786 Q206.852 233.587 200.371 233.587 Q198.195 233.587 195.88 233.147 Q193.588 232.73 191.135 231.874 L191.135 227.36 Q193.079 228.494 195.394 229.073 Q197.709 229.652 200.232 229.652 Q204.63 229.652 206.922 227.916 Q209.237 226.179 209.237 222.869 Q209.237 219.814 207.084 218.101 Q204.954 216.365 201.135 216.365 L197.107 216.365 L197.107 212.522 L201.32 212.522 Q204.769 212.522 206.598 211.156 Q208.426 209.767 208.426 207.175 Q208.426 204.513 206.528 203.101 Q204.653 201.666 201.135 201.666 Q199.213 201.666 197.014 202.082 Q194.815 202.499 192.176 203.379 L192.176 199.212 Q194.838 198.471 197.153 198.101 Q199.491 197.73 201.551 197.73 Q206.875 197.73 209.977 200.161 Q213.079 202.568 213.079 206.689 Q213.079 209.559 211.436 211.55 Q209.792 213.517 206.76 214.281 Z" fill="#000000" fill-rule="nonzero" fill-opacity="1" /><path clip-path="url(#clip020)" d="M222.801 198.355 L241.158 198.355 L241.158 202.291 L227.084 202.291 L227.084 210.763 Q228.102 210.416 229.121 210.254 Q230.139 210.068 231.158 210.068 Q236.945 210.068 240.324 213.24 Q243.704 216.411 243.704 221.828 Q243.704 227.406 240.232 230.508 Q236.76 233.587 230.44 233.587 Q228.264 233.587 225.996 233.216 Q223.75 232.846 221.343 232.105 L221.343 227.406 Q223.426 228.541 225.648 229.096 Q227.871 229.652 230.347 229.652 Q234.352 229.652 236.69 227.545 Q239.028 225.439 239.028 221.828 Q239.028 218.216 236.69 216.11 Q234.352 214.004 230.347 214.004 Q228.473 214.004 226.598 214.42 Q224.746 214.837 222.801 215.717 L222.801 198.355 Z" fill="#000000" fill-rule="nonzero" fill-opacity="1" /><path clip-path="url(#clip020)" d="M29.4065 993.309 L34.9447 993.309 Q33.6716 995.792 33.035 998.465 Q32.3984 1001.14 32.3984 1004 Q32.3984 1008.36 33.7352 1010.56 Q35.072 1012.72 37.7456 1012.72 Q39.7826 1012.72 40.9603 1011.16 Q42.1061 1009.61 43.1565 1004.89 L43.6021 1002.89 Q44.9389 996.651 47.3897 994.041 Q49.8086 991.399 54.1691 991.399 Q59.1344 991.399 62.0308 995.346 Q64.9272 999.261 64.9272 1006.14 Q64.9272 1009 64.3543 1012.12 Q63.8132 1015.21 62.6992 1018.64 L56.6518 1018.64 Q58.3387 1015.4 59.198 1012.25 Q60.0256 1009.1 60.0256 1006.01 Q60.0256 1001.87 58.6251 999.643 Q57.1929 997.415 54.6147 997.415 Q52.2276 997.415 50.9545 999.038 Q49.6813 1000.63 48.5037 1006.07 L48.0262 1008.11 Q46.8804 1013.55 44.5251 1015.97 Q42.138 1018.39 38.0002 1018.39 Q32.9713 1018.39 30.2341 1014.82 Q27.4968 1011.26 27.4968 1004.7 Q27.4968 1001.46 27.9743 998.592 Q28.4517 995.728 29.4065 993.309 Z" fill="#000000" fill-rule="nonzero" fill-opacity="1" /><path clip-path="url(#clip020)" d="M28.3562 982.073 L28.3562 976.217 L64.0042 976.217 L64.0042 982.073 L28.3562 982.073 M14.479 982.073 L14.479 976.217 L21.895 976.217 L21.895 982.073 L14.479 982.073 Z" fill="#000000" fill-rule="nonzero" fill-opacity="1" /><path clip-path="url(#clip020)" d="M45.7664 940.505 Q39.4007 940.505 35.8996 943.147 Q32.3984 945.757 32.3984 950.5 Q32.3984 955.21 35.8996 957.852 Q39.4007 960.462 45.7664 960.462 Q52.1003 960.462 55.6014 957.852 Q59.1026 955.21 59.1026 950.5 Q59.1026 945.757 55.6014 943.147 Q52.1003 940.505 45.7664 940.505 M59.58 934.649 Q68.683 934.649 73.1071 938.691 Q77.5631 942.733 77.5631 951.072 Q77.5631 954.16 77.0857 956.897 Q76.6401 959.634 75.6852 962.212 L69.9879 962.212 Q71.3884 959.634 72.0568 957.12 Q72.7252 954.605 72.7252 951.995 Q72.7252 946.234 69.7015 943.37 Q66.7096 940.505 60.6303 940.505 L57.7339 940.505 Q60.885 942.32 62.4446 945.152 Q64.0042 947.985 64.0042 951.932 Q64.0042 958.488 59.0071 962.499 Q54.01 966.509 45.7664 966.509 Q37.491 966.509 32.4939 962.499 Q27.4968 958.488 27.4968 951.932 Q27.4968 947.985 29.0564 945.152 Q30.616 942.32 33.7671 940.505 L28.3562 940.505 L28.3562 934.649 L59.58 934.649 Z" fill="#000000" fill-rule="nonzero" fill-opacity="1" /><path clip-path="url(#clip020)" d="M35.1993 894.831 Q31.2526 892.635 29.3747 889.58 Q27.4968 886.524 27.4968 882.386 Q27.4968 876.816 31.4117 873.793 Q35.2948 870.769 42.4881 870.769 L64.0042 870.769 L64.0042 876.657 L42.679 876.657 Q37.5546 876.657 35.072 878.472 Q32.5894 880.286 32.5894 884.01 Q32.5894 888.561 35.6131 891.203 Q38.6368 893.845 43.8567 893.845 L64.0042 893.845 L64.0042 899.733 L42.679 899.733 Q37.5228 899.733 35.072 901.547 Q32.5894 903.361 32.5894 907.149 Q32.5894 911.637 35.6449 914.279 Q38.6686 916.92 43.8567 916.92 L64.0042 916.92 L64.0042 922.809 L28.3562 922.809 L28.3562 916.92 L33.8944 916.92 Q30.616 914.915 29.0564 912.114 Q27.4968 909.313 27.4968 905.462 Q27.4968 901.579 29.4702 898.874 Q31.4436 896.136 35.1993 894.831 Z" fill="#000000" fill-rule="nonzero" fill-opacity="1" /><path clip-path="url(#clip020)" d="M46.0847 842.887 Q46.0847 849.985 47.7079 852.722 Q49.3312 855.46 53.2461 855.46 Q56.3653 855.46 58.2114 853.422 Q60.0256 851.354 60.0256 847.821 Q60.0256 842.951 56.5881 840.023 Q53.1188 837.063 47.3897 837.063 L46.0847 837.063 L46.0847 842.887 M43.6657 831.206 L64.0042 831.206 L64.0042 837.063 L58.5933 837.063 Q61.8398 839.068 63.3994 842.06 Q64.9272 845.052 64.9272 849.38 Q64.9272 854.855 61.8716 858.101 Q58.7843 861.316 53.6281 861.316 Q47.6125 861.316 44.5569 857.306 Q41.5014 853.263 41.5014 845.274 L41.5014 837.063 L40.9285 837.063 Q36.8862 837.063 34.6901 839.736 Q32.4621 842.378 32.4621 847.184 Q32.4621 850.24 33.1941 853.136 Q33.9262 856.032 35.3903 858.706 L29.9795 858.706 Q28.7381 855.491 28.1334 852.468 Q27.4968 849.444 27.4968 846.579 Q27.4968 838.845 31.5072 835.026 Q35.5176 831.206 43.6657 831.206 Z" fill="#000000" fill-rule="nonzero" fill-opacity="1" /><path clip-path="url(#clip020)" d="M14.479 798.964 L14.479 785.469 L19.0304 785.469 L19.0304 793.107 L68.0464 793.107 L68.0464 785.469 L72.5979 785.469 L72.5979 798.964 L14.479 798.964 Z" fill="#000000" fill-rule="nonzero" fill-opacity="1" /><path clip-path="url(#clip020)" d="M57.2247 740.336 L44.4614 740.336 L44.4614 750.839 L39.1779 750.839 L39.1779 733.97 L59.58 733.97 Q62.2218 737.694 63.5904 742.182 Q64.9272 746.67 64.9272 751.762 Q64.9272 762.902 58.4342 769.204 Q51.9093 775.474 40.2919 775.474 Q28.6427 775.474 22.1496 769.204 Q15.6248 762.902 15.6248 751.762 Q15.6248 747.115 16.7706 742.946 Q17.9164 738.744 20.1444 735.211 L26.9876 735.211 Q23.9639 738.776 22.4361 742.787 Q20.9083 746.797 20.9083 751.221 Q20.9083 759.942 25.7781 764.334 Q30.6479 768.695 40.2919 768.695 Q49.9041 768.695 54.7739 764.334 Q59.6436 759.942 59.6436 751.221 Q59.6436 747.815 59.0707 745.142 Q58.466 742.468 57.2247 740.336 Z" fill="#000000" fill-rule="nonzero" fill-opacity="1" /><path clip-path="url(#clip020)" d="M44.7161 691.988 L47.5806 691.988 L47.5806 718.915 Q53.6281 718.533 56.8109 715.287 Q59.9619 712.008 59.9619 706.184 Q59.9619 702.81 59.1344 699.659 Q58.3069 696.476 56.6518 693.357 L62.1899 693.357 Q63.5267 696.508 64.227 699.818 Q64.9272 703.128 64.9272 706.534 Q64.9272 715.064 59.9619 720.061 Q54.9967 725.026 46.5303 725.026 Q37.7774 725.026 32.6531 720.316 Q27.4968 715.573 27.4968 707.552 Q27.4968 700.359 32.1438 696.19 Q36.7589 691.988 44.7161 691.988 M42.9973 697.845 Q38.1912 697.908 35.3266 700.55 Q32.4621 703.16 32.4621 707.489 Q32.4621 712.39 35.2312 715.35 Q38.0002 718.279 43.0292 718.724 L42.9973 697.845 Z" fill="#000000" fill-rule="nonzero" fill-opacity="1" /><path clip-path="url(#clip020)" d="M64.0042 669.867 L16.4842 688.01 L16.4842 681.294 L56.4926 666.239 L16.4842 651.152 L16.4842 644.468 L64.0042 662.579 L64.0042 669.867 Z" fill="#000000" fill-rule="nonzero" fill-opacity="1" /><path clip-path="url(#clip020)" d="M16.4842 613.499 L34.2127 596.216 L34.2127 602.614 L21.6404 616.618 L34.2127 630.623 L34.2127 637.02 L16.4842 619.737 L16.4842 613.499 Z" fill="#000000" fill-rule="nonzero" fill-opacity="1" /><path clip-path="url(#clip020)" d="M38.3822 562.86 Q39.3689 558.245 42.4881 555.667 Q45.6073 553.057 50.1906 553.057 Q57.2247 553.057 61.0759 557.895 Q64.9272 562.732 64.9272 571.644 Q64.9272 574.636 64.3224 577.819 Q63.7495 580.97 62.5719 584.344 L56.3653 584.344 Q57.9249 581.67 58.7206 578.488 Q59.5163 575.305 59.5163 571.835 Q59.5163 565.788 57.1292 562.637 Q54.7421 559.454 50.1906 559.454 Q45.9892 559.454 43.6339 562.414 Q41.2468 565.342 41.2468 570.594 L41.2468 576.132 L35.9632 576.132 L35.9632 570.34 Q35.9632 565.597 34.0853 563.083 Q32.1756 560.568 28.6108 560.568 Q24.9505 560.568 23.009 563.178 Q21.0356 565.756 21.0356 570.594 Q21.0356 573.236 21.6086 576.26 Q22.1815 579.283 23.3909 582.912 L17.6618 582.912 Q16.6433 579.252 16.134 576.069 Q15.6248 572.854 15.6248 570.021 Q15.6248 562.701 18.9668 558.436 Q22.277 554.171 27.9424 554.171 Q31.8892 554.171 34.6264 556.43 Q37.3318 558.69 38.3822 562.86 Z" fill="#000000" fill-rule="nonzero" fill-opacity="1" /><path clip-path="url(#clip020)" d="M14.479 528.008 L72.5979 528.008 L72.5979 541.503 L68.0464 541.503 L68.0464 533.896 L19.0304 533.896 L19.0304 541.503 L14.479 541.503 L14.479 528.008 Z" fill="#000000" fill-rule="nonzero" fill-opacity="1" /><path clip-path="url(#clip020)" d="M598.855 28.5427 L598.855 35.5912 Q595.696 33.9709 592.293 33.1607 Q588.89 32.3505 585.244 32.3505 Q579.695 32.3505 576.899 34.0519 Q574.145 35.7533 574.145 39.156 Q574.145 41.7486 576.13 43.2475 Q578.115 44.7058 584.11 46.0426 L586.662 46.6097 Q594.602 48.3111 597.924 51.4303 Q601.286 54.509 601.286 60.0587 Q601.286 66.3781 596.263 70.0644 Q591.28 73.7508 582.53 73.7508 Q578.884 73.7508 574.914 73.0216 Q570.985 72.3329 566.61 70.9151 L566.61 63.2184 Q570.742 65.3654 574.752 66.4591 Q578.763 67.5124 582.692 67.5124 Q587.958 67.5124 590.794 65.73 Q593.63 63.9071 593.63 60.6258 Q593.63 57.5877 591.564 55.9673 Q589.538 54.3469 582.611 52.8481 L580.019 52.2405 Q573.092 50.7821 570.013 47.7845 Q566.934 44.7463 566.934 39.4801 Q566.934 33.0797 571.471 29.5959 Q576.008 26.1121 584.353 26.1121 Q588.485 26.1121 592.131 26.7198 Q595.777 27.3274 598.855 28.5427 Z" fill="#000000" fill-rule="nonzero" fill-opacity="1" /><path clip-path="url(#clip020)" d="M613.155 27.2059 L620.609 27.2059 L620.609 72.576 L613.155 72.576 L613.155 27.2059 M613.155 9.54393 L620.609 9.54393 L620.609 18.9825 L613.155 18.9825 L613.155 9.54393 Z" fill="#000000" fill-rule="nonzero" fill-opacity="1" /><path clip-path="url(#clip020)" d="M666.06 49.3643 Q666.06 41.2625 662.698 36.8065 Q659.376 32.3505 653.34 32.3505 Q647.345 32.3505 643.982 36.8065 Q640.661 41.2625 640.661 49.3643 Q640.661 57.4256 643.982 61.8816 Q647.345 66.3376 653.34 66.3376 Q659.376 66.3376 662.698 61.8816 Q666.06 57.4256 666.06 49.3643 M673.513 66.9452 Q673.513 78.5308 668.369 84.1616 Q663.224 89.8329 652.611 89.8329 Q648.681 89.8329 645.198 89.2252 Q641.714 88.6581 638.433 87.4428 L638.433 80.1917 Q641.714 81.9741 644.914 82.8248 Q648.114 83.6755 651.436 83.6755 Q658.768 83.6755 662.414 79.8271 Q666.06 76.0193 666.06 68.282 L666.06 64.5957 Q663.751 68.6061 660.145 70.5911 Q656.54 72.576 651.517 72.576 Q643.172 72.576 638.068 66.2161 Q632.964 59.8562 632.964 49.3643 Q632.964 38.832 638.068 32.472 Q643.172 26.1121 651.517 26.1121 Q656.54 26.1121 660.145 28.0971 Q663.751 30.082 666.06 34.0924 L666.06 27.2059 L673.513 27.2059 L673.513 66.9452 Z" fill="#000000" fill-rule="nonzero" fill-opacity="1" /><path clip-path="url(#clip020)" d="M724.19 35.9153 Q726.985 30.8922 730.874 28.5022 Q734.763 26.1121 740.029 26.1121 Q747.118 26.1121 750.967 31.0947 Q754.815 36.0368 754.815 45.1919 L754.815 72.576 L747.321 72.576 L747.321 45.4349 Q747.321 38.913 745.012 35.7533 Q742.703 32.5936 737.963 32.5936 Q732.171 32.5936 728.808 36.4419 Q725.446 40.2903 725.446 46.9338 L725.446 72.576 L717.952 72.576 L717.952 45.4349 Q717.952 38.8725 715.643 35.7533 Q713.334 32.5936 708.513 32.5936 Q702.801 32.5936 699.439 36.4824 Q696.077 40.3308 696.077 46.9338 L696.077 72.576 L688.583 72.576 L688.583 27.2059 L696.077 27.2059 L696.077 34.2544 Q698.629 30.082 702.194 28.0971 Q705.759 26.1121 710.66 26.1121 Q715.602 26.1121 719.046 28.6237 Q722.529 31.1352 724.19 35.9153 Z" fill="#000000" fill-rule="nonzero" fill-opacity="1" /><path clip-path="url(#clip020)" d="M790.301 49.7694 Q781.267 49.7694 777.784 51.8354 Q774.3 53.9013 774.3 58.8839 Q774.3 62.8538 776.893 65.2034 Q779.526 67.5124 784.022 67.5124 Q790.22 67.5124 793.947 63.1374 Q797.714 58.7219 797.714 51.4303 L797.714 49.7694 L790.301 49.7694 M805.168 46.6907 L805.168 72.576 L797.714 72.576 L797.714 65.6895 Q795.162 69.8214 791.354 71.8063 Q787.546 73.7508 782.037 73.7508 Q775.07 73.7508 770.938 69.8619 Q766.846 65.9325 766.846 59.3701 Q766.846 51.7138 771.95 47.825 Q777.095 43.9361 787.263 43.9361 L797.714 43.9361 L797.714 43.2069 Q797.714 38.0623 794.311 35.2672 Q790.949 32.4315 784.832 32.4315 Q780.943 32.4315 777.257 33.3632 Q773.571 34.295 770.168 36.1584 L770.168 29.2718 Q774.259 27.692 778.108 26.9223 Q781.956 26.1121 785.602 26.1121 Q795.446 26.1121 800.307 31.2163 Q805.168 36.3204 805.168 46.6907 Z" fill="#000000" fill-rule="nonzero" fill-opacity="1" /><path clip-path="url(#clip020)" d="M838.426 9.62495 Q832.998 18.942 830.364 28.0566 Q827.731 37.1711 827.731 46.5287 Q827.731 55.8863 830.364 65.0818 Q833.038 74.2369 838.426 83.5134 L831.944 83.5134 Q825.868 73.9938 822.83 64.7983 Q819.832 55.6027 819.832 46.5287 Q819.832 37.4952 822.83 28.3401 Q825.827 19.1851 831.944 9.62495 L838.426 9.62495 Z" fill="#000000" fill-rule="nonzero" fill-opacity="1" /><path clip-path="url(#clip020)" d="M844.826 12.096 L895.989 12.096 L895.989 18.9825 L874.519 18.9825 L874.519 72.576 L866.296 72.576 L866.296 18.9825 L844.826 18.9825 L844.826 12.096 Z" fill="#000000" fill-rule="nonzero" fill-opacity="1" /><path clip-path="url(#clip020)" d="M902.39 9.62495 L908.871 9.62495 Q914.947 19.1851 917.945 28.3401 Q920.983 37.4952 920.983 46.5287 Q920.983 55.6027 917.945 64.7983 Q914.947 73.9938 908.871 83.5134 L902.39 83.5134 Q907.777 74.2369 910.41 65.0818 Q913.084 55.8863 913.084 46.5287 Q913.084 37.1711 910.41 28.0566 Q907.777 18.942 902.39 9.62495 Z" fill="#000000" fill-rule="nonzero" fill-opacity="1" /><path clip-path="url(#clip020)" d="M957.968 27.2059 L965.422 27.2059 L974.739 62.6108 L984.015 27.2059 L992.806 27.2059 L1002.12 62.6108 L1011.4 27.2059 L1018.85 27.2059 L1006.98 72.576 L998.193 72.576 L988.431 35.3887 L978.628 72.576 L969.837 72.576 L957.968 27.2059 Z" fill="#000000" fill-rule="nonzero" fill-opacity="1" /><path clip-path="url(#clip020)" d="M1030.16 27.2059 L1037.61 27.2059 L1037.61 72.576 L1030.16 72.576 L1030.16 27.2059 M1030.16 9.54393 L1037.61 9.54393 L1037.61 18.9825 L1030.16 18.9825 L1030.16 9.54393 Z" fill="#000000" fill-rule="nonzero" fill-opacity="1" /><path clip-path="url(#clip020)" d="M1060.58 14.324 L1060.58 27.2059 L1075.93 27.2059 L1075.93 32.9987 L1060.58 32.9987 L1060.58 57.6282 Q1060.58 63.1779 1062.08 64.7578 Q1063.62 66.3376 1068.27 66.3376 L1075.93 66.3376 L1075.93 72.576 L1068.27 72.576 Q1059.65 72.576 1056.36 69.3758 Q1053.08 66.1351 1053.08 57.6282 L1053.08 32.9987 L1047.61 32.9987 L1047.61 27.2059 L1053.08 27.2059 L1053.08 14.324 L1060.58 14.324 Z" fill="#000000" fill-rule="nonzero" fill-opacity="1" /><path clip-path="url(#clip020)" d="M1123.45 45.1919 L1123.45 72.576 L1115.99 72.576 L1115.99 45.4349 Q1115.99 38.994 1113.48 35.7938 Q1110.97 32.5936 1105.95 32.5936 Q1099.91 32.5936 1096.43 36.4419 Q1092.94 40.2903 1092.94 46.9338 L1092.94 72.576 L1085.45 72.576 L1085.45 9.54393 L1092.94 9.54393 L1092.94 34.2544 Q1095.62 30.163 1099.22 28.1376 Q1102.87 26.1121 1107.61 26.1121 Q1115.43 26.1121 1119.44 30.9732 Q1123.45 35.7938 1123.45 45.1919 Z" fill="#000000" fill-rule="nonzero" fill-opacity="1" /><path clip-path="url(#clip020)" d="M1165.01 12.096 L1176.03 12.096 L1202.85 62.6918 L1202.85 12.096 L1210.78 12.096 L1210.78 72.576 L1199.77 72.576 L1172.95 21.9802 L1172.95 72.576 L1165.01 72.576 L1165.01 12.096 Z" fill="#000000" fill-rule="nonzero" fill-opacity="1" /><path clip-path="url(#clip020)" d="M1254.09 34.9026 L1306.02 34.9026 L1306.02 41.7081 L1254.09 41.7081 L1254.09 34.9026 M1254.09 51.4303 L1306.02 51.4303 L1306.02 58.3168 L1254.09 58.3168 L1254.09 51.4303 Z" fill="#000000" fill-rule="nonzero" fill-opacity="1" /><path clip-path="url(#clip020)" d="M1351.47 65.6895 L1364.84 65.6895 L1364.84 19.5497 L1350.3 22.4663 L1350.3 15.0127 L1364.76 12.096 L1372.94 12.096 L1372.94 65.6895 L1386.31 65.6895 L1386.31 72.576 L1351.47 72.576 L1351.47 65.6895 Z" fill="#000000" fill-rule="nonzero" fill-opacity="1" /><path clip-path="url(#clip020)" d="M1409.89 65.6895 L1438.45 65.6895 L1438.45 72.576 L1400.04 72.576 L1400.04 65.6895 Q1404.7 60.8689 1412.72 52.7671 Q1420.78 44.6248 1422.85 42.2752 Q1426.78 37.8598 1428.32 34.8216 Q1429.9 31.7429 1429.9 28.7857 Q1429.9 23.9651 1426.5 20.927 Q1423.13 17.8888 1417.71 17.8888 Q1413.86 17.8888 1409.56 19.2256 Q1405.31 20.5624 1400.45 23.2765 L1400.45 15.0127 Q1405.39 13.0277 1409.68 12.015 Q1413.98 11.0023 1417.54 11.0023 Q1426.94 11.0023 1432.53 15.7013 Q1438.12 20.4004 1438.12 28.2591 Q1438.12 31.9859 1436.7 35.3482 Q1435.33 38.6699 1431.64 43.2069 Q1430.63 44.3817 1425.2 50.0125 Q1419.77 55.6027 1409.89 65.6895 Z" fill="#000000" fill-rule="nonzero" fill-opacity="1" /><path clip-path="url(#clip020)" d="M1473.12 43.8551 Q1467.29 43.8551 1463.93 46.9743 Q1460.6 50.0935 1460.6 55.5622 Q1460.6 61.0309 1463.93 64.1501 Q1467.29 67.2693 1473.12 67.2693 Q1478.95 67.2693 1482.32 64.1501 Q1485.68 60.9904 1485.68 55.5622 Q1485.68 50.0935 1482.32 46.9743 Q1479 43.8551 1473.12 43.8551 M1464.94 40.3713 Q1459.67 39.075 1456.72 35.4697 Q1453.8 31.8644 1453.8 26.6793 Q1453.8 19.4281 1458.94 15.2152 Q1464.13 11.0023 1473.12 11.0023 Q1482.15 11.0023 1487.3 15.2152 Q1492.44 19.4281 1492.44 26.6793 Q1492.44 31.8644 1489.49 35.4697 Q1486.57 39.075 1481.34 40.3713 Q1487.26 41.7486 1490.54 45.759 Q1493.86 49.7694 1493.86 55.5622 Q1493.86 64.3527 1488.47 69.0517 Q1483.13 73.7508 1473.12 73.7508 Q1463.12 73.7508 1457.73 69.0517 Q1452.38 64.3527 1452.38 55.5622 Q1452.38 49.7694 1455.7 45.759 Q1459.02 41.7486 1464.94 40.3713 M1461.94 27.4489 Q1461.94 32.148 1464.86 34.7811 Q1467.81 37.4142 1473.12 37.4142 Q1478.39 37.4142 1481.34 34.7811 Q1484.34 32.148 1484.34 27.4489 Q1484.34 22.7499 1481.34 20.1168 Q1478.39 17.4837 1473.12 17.4837 Q1467.81 17.4837 1464.86 20.1168 Q1461.94 22.7499 1461.94 27.4489 Z" fill="#000000" fill-rule="nonzero" fill-opacity="1" /><path clip-path="url(#clip020)" d="M1509.26 62.2867 L1517.8 62.2867 L1517.8 69.2543 L1511.16 82.2172 L1505.93 82.2172 L1509.26 69.2543 L1509.26 62.2867 Z" fill="#000000" fill-rule="nonzero" fill-opacity="1" /><path clip-path="url(#clip020)" d="M1595.42 35.9153 Q1598.21 30.8922 1602.1 28.5022 Q1605.99 26.1121 1611.26 26.1121 Q1618.35 26.1121 1622.19 31.0947 Q1626.04 36.0368 1626.04 45.1919 L1626.04 72.576 L1618.55 72.576 L1618.55 45.4349 Q1618.55 38.913 1616.24 35.7533 Q1613.93 32.5936 1609.19 32.5936 Q1603.4 32.5936 1600.04 36.4419 Q1596.67 40.2903 1596.67 46.9338 L1596.67 72.576 L1589.18 72.576 L1589.18 45.4349 Q1589.18 38.8725 1586.87 35.7533 Q1584.56 32.5936 1579.74 32.5936 Q1574.03 32.5936 1570.67 36.4824 Q1567.3 40.3308 1567.3 46.9338 L1567.3 72.576 L1559.81 72.576 L1559.81 27.2059 L1567.3 27.2059 L1567.3 34.2544 Q1569.86 30.082 1573.42 28.0971 Q1576.99 26.1121 1581.89 26.1121 Q1586.83 26.1121 1590.27 28.6237 Q1593.76 31.1352 1595.42 35.9153 Z" fill="#000000" fill-rule="nonzero" fill-opacity="1" /><path clip-path="url(#clip020)" d="M1645.37 49.9314 Q1645.37 58.1548 1648.73 62.8538 Q1652.13 67.5124 1658.05 67.5124 Q1663.96 67.5124 1667.36 62.8538 Q1670.77 58.1548 1670.77 49.9314 Q1670.77 41.7081 1667.36 37.0496 Q1663.96 32.3505 1658.05 32.3505 Q1652.13 32.3505 1648.73 37.0496 Q1645.37 41.7081 1645.37 49.9314 M1670.77 65.7705 Q1668.42 69.8214 1664.81 71.8063 Q1661.25 73.7508 1656.22 73.7508 Q1648 73.7508 1642.81 67.1883 Q1637.67 60.6258 1637.67 49.9314 Q1637.67 39.2371 1642.81 32.6746 Q1648 26.1121 1656.22 26.1121 Q1661.25 26.1121 1664.81 28.0971 Q1668.42 30.0415 1670.77 34.0924 L1670.77 27.2059 L1678.22 27.2059 L1678.22 89.8329 L1670.77 89.8329 L1670.77 65.7705 Z" fill="#000000" fill-rule="nonzero" fill-opacity="1" /><path clip-path="url(#clip020)" d="M1720.92 34.9026 L1772.85 34.9026 L1772.85 41.7081 L1720.92 41.7081 L1720.92 34.9026 M1720.92 51.4303 L1772.85 51.4303 L1772.85 58.3168 L1720.92 58.3168 L1720.92 51.4303 Z" fill="#000000" fill-rule="nonzero" fill-opacity="1" /><path clip-path="url(#clip020)" d="M1814.82 12.096 L1853.7 12.096 L1853.7 15.5798 L1831.75 72.576 L1823.2 72.576 L1843.86 18.9825 L1814.82 18.9825 L1814.82 12.096 Z" fill="#000000" fill-rule="nonzero" fill-opacity="1" /><path clip-path="url(#clip020)" d="M1895.31 12.096 L1907.5 12.096 L1922.93 53.2532 L1938.45 12.096 L1950.64 12.096 L1950.64 72.576 L1942.66 72.576 L1942.66 19.4686 L1927.07 60.9499 L1918.84 60.9499 L1903.25 19.4686 L1903.25 72.576 L1895.31 72.576 L1895.31 12.096 Z" fill="#000000" fill-rule="nonzero" fill-opacity="1" /><path clip-path="url(#clip020)" d="M2005.37 48.0275 L2005.37 51.6733 L1971.1 51.6733 Q1971.59 59.3701 1975.72 63.421 Q1979.89 67.4314 1987.3 67.4314 Q1991.6 67.4314 1995.61 66.3781 Q1999.66 65.3249 2003.63 63.2184 L2003.63 70.267 Q1999.62 71.9684 1995.4 72.8596 Q1991.19 73.7508 1986.86 73.7508 Q1976 73.7508 1969.64 67.4314 Q1963.32 61.1119 1963.32 50.3365 Q1963.32 39.1965 1969.32 32.6746 Q1975.35 26.1121 1985.56 26.1121 Q1994.72 26.1121 2000.02 32.0264 Q2005.37 37.9003 2005.37 48.0275 M1997.92 45.84 Q1997.84 39.7232 1994.47 36.0774 Q1991.15 32.4315 1985.64 32.4315 Q1979.4 32.4315 1975.64 35.9558 Q1971.91 39.4801 1971.34 45.8805 L1997.92 45.84 Z" fill="#000000" fill-rule="nonzero" fill-opacity="1" /><path clip-path="url(#clip020)" d="M2033.52 72.576 L2010.43 12.096 L2018.98 12.096 L2038.14 63.0159 L2057.34 12.096 L2065.85 12.096 L2042.8 72.576 L2033.52 72.576 Z" fill="#000000" fill-rule="nonzero" fill-opacity="1" /><polyline clip-path="url(#clip022)" style="stroke:#009af9; stroke-linecap:round; stroke-linejoin:round; stroke-width:10; stroke-opacity:1; fill:none" points="338.375,169.458 387.268,166.628 436.161,164.416 485.053,162.702 533.946,161.436 582.839,160.612 631.732,160.256 680.624,160.43 729.517,161.258 778.41,163.009 827.303,166.142 876.195,171.219 925.088,178.789 973.981,189.338 1022.87,203.315 1071.77,221.179 1120.66,243.431 1169.55,270.653 1218.44,303.547 1267.34,342.986 1316.23,390.088 1365.12,446.338 1414.02,513.774 1462.91,595.324 1511.8,695.386 1560.69,820.703 1609.59,979.197 1658.48,1152.62 1707.37,1261.67 1756.26,1310.4 1805.16,1335.12 1854.05,1349.75 1902.94,1359.38 1951.84,1366.19 2000.73,1371.26 2049.62,1375.18 2098.51,1378.32 2147.41,1380.88 2196.3,1383.02 2245.19,1384.83 2294.08,1386.4 "/>
<path clip-path="url(#clip020)" d="M1918.57 270.476 L2283.65 270.476 L2283.65 166.796 L1918.57 166.796  Z" fill="#ffffff" fill-rule="evenodd" fill-opacity="1"/>
<polyline clip-path="url(#clip020)" style="stroke:#000000; stroke-linecap:round; stroke-linejoin:round; stroke-width:4; stroke-opacity:1; fill:none" points="1918.57,270.476 2283.65,270.476 2283.65,166.796 1918.57,166.796 1918.57,270.476 "/>
<polyline clip-path="url(#clip020)" style="stroke:#009af9; stroke-linecap:round; stroke-linejoin:round; stroke-width:10; stroke-opacity:1; fill:none" points="1941.61,218.636 2079.81,218.636 "/>
<path clip-path="url(#clip020)" d="M2102.84 201.356 L2109.14 201.356 L2124.46 230.268 L2124.46 201.356 L2129 201.356 L2129 235.916 L2122.7 235.916 L2107.38 207.004 L2107.38 235.916 L2102.84 235.916 L2102.84 201.356 Z" fill="#000000" fill-rule="nonzero" fill-opacity="1" /><path clip-path="url(#clip020)" d="M2138.68 214.388 L2168.35 214.388 L2168.35 218.277 L2138.68 218.277 L2138.68 214.388 M2138.68 223.832 L2168.35 223.832 L2168.35 227.768 L2138.68 227.768 L2138.68 223.832 Z" fill="#000000" fill-rule="nonzero" fill-opacity="1" /><path clip-path="url(#clip020)" d="M2179.25 231.981 L2186.89 231.981 L2186.89 205.615 L2178.58 207.282 L2178.58 203.022 L2186.85 201.356 L2191.52 201.356 L2191.52 231.981 L2199.16 231.981 L2199.16 235.916 L2179.25 235.916 L2179.25 231.981 Z" fill="#000000" fill-rule="nonzero" fill-opacity="1" /><path clip-path="url(#clip020)" d="M2212.63 231.981 L2228.95 231.981 L2228.95 235.916 L2207.01 235.916 L2207.01 231.981 Q2209.67 229.226 2214.25 224.596 Q2218.86 219.944 2220.04 218.601 Q2222.29 216.078 2223.17 214.342 Q2224.07 212.583 2224.07 210.893 Q2224.07 208.138 2222.13 206.402 Q2220.2 204.666 2217.1 204.666 Q2214.9 204.666 2212.45 205.43 Q2210.02 206.194 2207.24 207.745 L2207.24 203.022 Q2210.06 201.888 2212.52 201.309 Q2214.97 200.731 2217.01 200.731 Q2222.38 200.731 2225.57 203.416 Q2228.77 206.101 2228.77 210.592 Q2228.77 212.721 2227.96 214.643 Q2227.17 216.541 2225.06 219.133 Q2224.49 219.805 2221.38 223.022 Q2218.28 226.217 2212.63 231.981 Z" fill="#000000" fill-rule="nonzero" fill-opacity="1" /><path clip-path="url(#clip020)" d="M2248.77 219.504 Q2245.44 219.504 2243.51 221.286 Q2241.62 223.069 2241.62 226.194 Q2241.62 229.319 2243.51 231.101 Q2245.44 232.883 2248.77 232.883 Q2252.1 232.883 2254.02 231.101 Q2255.94 229.295 2255.94 226.194 Q2255.94 223.069 2254.02 221.286 Q2252.12 219.504 2248.77 219.504 M2244.09 217.513 Q2241.08 216.772 2239.39 214.712 Q2237.73 212.652 2237.73 209.689 Q2237.73 205.546 2240.67 203.138 Q2243.63 200.731 2248.77 200.731 Q2253.93 200.731 2256.87 203.138 Q2259.81 205.546 2259.81 209.689 Q2259.81 212.652 2258.12 214.712 Q2256.45 216.772 2253.47 217.513 Q2256.85 218.3 2258.72 220.592 Q2260.62 222.883 2260.62 226.194 Q2260.62 231.217 2257.54 233.902 Q2254.49 236.587 2248.77 236.587 Q2243.05 236.587 2239.97 233.902 Q2236.92 231.217 2236.92 226.194 Q2236.92 222.883 2238.81 220.592 Q2240.71 218.3 2244.09 217.513 M2242.38 210.129 Q2242.38 212.814 2244.05 214.319 Q2245.74 215.823 2248.77 215.823 Q2251.78 215.823 2253.47 214.319 Q2255.18 212.814 2255.18 210.129 Q2255.18 207.444 2253.47 205.939 Q2251.78 204.434 2248.77 204.434 Q2245.74 204.434 2244.05 205.939 Q2242.38 207.444 2242.38 210.129 Z" fill="#000000" fill-rule="nonzero" fill-opacity="1" /></svg>
