<?xml version="1.0" encoding="utf-8"?>
<svg xmlns="http://www.w3.org/2000/svg" xmlns:xlink="http://www.w3.org/1999/xlink" width="600" height="400" viewBox="0 0 2400 1600">
<defs>
  <clipPath id="clip280">
    <rect x="0" y="0" width="2400" height="1600"/>
  </clipPath>
</defs>
<path clip-path="url(#clip280)" d="M0 1600 L2400 1600 L2400 0 L0 0  Z" fill="#ffffff" fill-rule="evenodd" fill-opacity="1"/>
<defs>
  <clipPath id="clip281">
    <rect x="480" y="0" width="1681" height="1600"/>
  </clipPath>
</defs>
<path clip-path="url(#clip280)" d="M249.542 1423.18 L2352.76 1423.18 L2352.76 123.472 L249.542 123.472  Z" fill="#ffffff" fill-rule="evenodd" fill-opacity="1"/>
<defs>
  <clipPath id="clip282">
    <rect x="249" y="123" width="2104" height="1301"/>
  </clipPath>
</defs>
<polyline clip-path="url(#clip282)" style="stroke:#000000; stroke-linecap:round; stroke-linejoin:round; stroke-width:2; stroke-opacity:0.1; fill:none" points="521.656,1423.18 521.656,123.472 "/>
<polyline clip-path="url(#clip282)" style="stroke:#000000; stroke-linecap:round; stroke-linejoin:round; stroke-width:2; stroke-opacity:0.1; fill:none" points="875.971,1423.18 875.971,123.472 "/>
<polyline clip-path="url(#clip282)" style="stroke:#000000; stroke-linecap:round; stroke-linejoin:round; stroke-width:2; stroke-opacity:0.1; fill:none" points="1230.29,1423.18 1230.29,123.472 "/>
<polyline clip-path="url(#clip282)" style="stroke:#000000; stroke-linecap:round; stroke-linejoin:round; stroke-width:2; stroke-opacity:0.1; fill:none" points="1584.6,1423.18 1584.6,123.472 "/>
<polyline clip-path="url(#clip282)" style="stroke:#000000; stroke-linecap:round; stroke-linejoin:round; stroke-width:2; stroke-opacity:0.1; fill:none" points="1938.92,1423.18 1938.92,123.472 "/>
<polyline clip-path="url(#clip282)" style="stroke:#000000; stroke-linecap:round; stroke-linejoin:round; stroke-width:2; stroke-opacity:0.1; fill:none" points="2293.23,1423.18 2293.23,123.472 "/>
<polyline clip-path="url(#clip282)" style="stroke:#000000; stroke-linecap:round; stroke-linejoin:round; stroke-width:2; stroke-opacity:0.1; fill:none" points="249.542,1386.4 2352.76,1386.4 "/>
<polyline clip-path="url(#clip282)" style="stroke:#000000; stroke-linecap:round; stroke-linejoin:round; stroke-width:2; stroke-opacity:0.1; fill:none" points="249.542,1038.31 2352.76,1038.31 "/>
<polyline clip-path="url(#clip282)" style="stroke:#000000; stroke-linecap:round; stroke-linejoin:round; stroke-width:2; stroke-opacity:0.1; fill:none" points="249.542,690.224 2352.76,690.224 "/>
<polyline clip-path="url(#clip282)" style="stroke:#000000; stroke-linecap:round; stroke-linejoin:round; stroke-width:2; stroke-opacity:0.1; fill:none" points="249.542,342.139 2352.76,342.139 "/>
<polyline clip-path="url(#clip280)" style="stroke:#000000; stroke-linecap:round; stroke-linejoin:round; stroke-width:4; stroke-opacity:1; fill:none" points="249.542,1423.18 2352.76,1423.18 "/>
<polyline clip-path="url(#clip280)" style="stroke:#000000; stroke-linecap:round; stroke-linejoin:round; stroke-width:4; stroke-opacity:1; fill:none" points="521.656,1423.18 521.656,1404.28 "/>
<polyline clip-path="url(#clip280)" style="stroke:#000000; stroke-linecap:round; stroke-linejoin:round; stroke-width:4; stroke-opacity:1; fill:none" points="875.971,1423.18 875.971,1404.28 "/>
<polyline clip-path="url(#clip280)" style="stroke:#000000; stroke-linecap:round; stroke-linejoin:round; stroke-width:4; stroke-opacity:1; fill:none" points="1230.29,1423.18 1230.29,1404.28 "/>
<polyline clip-path="url(#clip280)" style="stroke:#000000; stroke-linecap:round; stroke-linejoin:round; stroke-width:4; stroke-opacity:1; fill:none" points="1584.6,1423.18 1584.6,1404.28 "/>
<polyline clip-path="url(#clip280)" style="stroke:#000000; stroke-linecap:round; stroke-linejoin:round; stroke-width:4; stroke-opacity:1; fill:none" points="1938.92,1423.18 1938.92,1404.28 "/>
<polyline clip-path="url(#clip280)" style="stroke:#000000; stroke-linecap:round; stroke-linejoin:round; stroke-width:4; stroke-opacity:1; fill:none" points="2293.23,1423.18 2293.23,1404.28 "/>
<path clip-path="url(#clip280)" d="M496.355 1451.02 L514.712 1451.02 L514.712 1454.96 L500.638 1454.96 L500.638 1463.43 Q501.656 1463.08 502.675 1462.92 Q503.693 1462.73 504.712 1462.73 Q510.499 1462.73 513.878 1465.9 Q517.258 1469.08 517.258 1474.49 Q517.258 1480.07 513.786 1483.17 Q510.313 1486.25 503.994 1486.25 Q501.818 1486.25 499.55 1485.88 Q497.304 1485.51 494.897 1484.77 L494.897 1480.07 Q496.98 1481.2 499.202 1481.76 Q501.425 1482.32 503.901 1482.32 Q507.906 1482.32 510.244 1480.21 Q512.582 1478.1 512.582 1474.49 Q512.582 1470.88 510.244 1468.77 Q507.906 1466.67 503.901 1466.67 Q502.026 1466.67 500.151 1467.08 Q498.3 1467.5 496.355 1468.38 L496.355 1451.02 Z" fill="#000000" fill-rule="nonzero" fill-opacity="1" /><path clip-path="url(#clip280)" d="M536.471 1454.1 Q532.86 1454.1 531.031 1457.66 Q529.225 1461.2 529.225 1468.33 Q529.225 1475.44 531.031 1479.01 Q532.86 1482.55 536.471 1482.55 Q540.105 1482.55 541.91 1479.01 Q543.739 1475.44 543.739 1468.33 Q543.739 1461.2 541.91 1457.66 Q540.105 1454.1 536.471 1454.1 M536.471 1450.39 Q542.281 1450.39 545.336 1455 Q548.415 1459.58 548.415 1468.33 Q548.415 1477.06 545.336 1481.67 Q542.281 1486.25 536.471 1486.25 Q530.661 1486.25 527.582 1481.67 Q524.526 1477.06 524.526 1468.33 Q524.526 1459.58 527.582 1455 Q530.661 1450.39 536.471 1450.39 Z" fill="#000000" fill-rule="nonzero" fill-opacity="1" /><path clip-path="url(#clip280)" d="M835.578 1481.64 L843.217 1481.64 L843.217 1455.28 L834.906 1456.95 L834.906 1452.69 L843.17 1451.02 L847.846 1451.02 L847.846 1481.64 L855.485 1481.64 L855.485 1485.58 L835.578 1485.58 L835.578 1481.64 Z" fill="#000000" fill-rule="nonzero" fill-opacity="1" /><path clip-path="url(#clip280)" d="M874.929 1454.1 Q871.318 1454.1 869.49 1457.66 Q867.684 1461.2 867.684 1468.33 Q867.684 1475.44 869.49 1479.01 Q871.318 1482.55 874.929 1482.55 Q878.564 1482.55 880.369 1479.01 Q882.198 1475.44 882.198 1468.33 Q882.198 1461.2 880.369 1457.66 Q878.564 1454.1 874.929 1454.1 M874.929 1450.39 Q880.739 1450.39 883.795 1455 Q886.874 1459.58 886.874 1468.33 Q886.874 1477.06 883.795 1481.67 Q880.739 1486.25 874.929 1486.25 Q869.119 1486.25 866.04 1481.67 Q862.985 1477.06 862.985 1468.33 Q862.985 1459.58 866.04 1455 Q869.119 1450.39 874.929 1450.39 Z" fill="#000000" fill-rule="nonzero" fill-opacity="1" /><path clip-path="url(#clip280)" d="M905.091 1454.1 Q901.48 1454.1 899.651 1457.66 Q897.846 1461.2 897.846 1468.33 Q897.846 1475.44 899.651 1479.01 Q901.48 1482.55 905.091 1482.55 Q908.725 1482.55 910.531 1479.01 Q912.36 1475.44 912.36 1468.33 Q912.36 1461.2 910.531 1457.66 Q908.725 1454.1 905.091 1454.1 M905.091 1450.39 Q910.901 1450.39 913.957 1455 Q917.036 1459.58 917.036 1468.33 Q917.036 1477.06 913.957 1481.67 Q910.901 1486.25 905.091 1486.25 Q899.281 1486.25 896.202 1481.67 Q893.147 1477.06 893.147 1468.33 Q893.147 1459.58 896.202 1455 Q899.281 1450.39 905.091 1450.39 Z" fill="#000000" fill-rule="nonzero" fill-opacity="1" /><path clip-path="url(#clip280)" d="M1189.89 1481.64 L1197.53 1481.64 L1197.53 1455.28 L1189.22 1456.95 L1189.22 1452.69 L1197.49 1451.02 L1202.16 1451.02 L1202.16 1481.64 L1209.8 1481.64 L1209.8 1485.58 L1189.89 1485.58 L1189.89 1481.64 Z" fill="#000000" fill-rule="nonzero" fill-opacity="1" /><path clip-path="url(#clip280)" d="M1219.29 1451.02 L1237.65 1451.02 L1237.65 1454.96 L1223.57 1454.96 L1223.57 1463.43 Q1224.59 1463.08 1225.61 1462.92 Q1226.63 1462.73 1227.65 1462.73 Q1233.43 1462.73 1236.81 1465.9 Q1240.19 1469.08 1240.19 1474.49 Q1240.19 1480.07 1236.72 1483.17 Q1233.25 1486.25 1226.93 1486.25 Q1224.75 1486.25 1222.49 1485.88 Q1220.24 1485.51 1217.83 1484.77 L1217.83 1480.07 Q1219.92 1481.2 1222.14 1481.76 Q1224.36 1482.32 1226.84 1482.32 Q1230.84 1482.32 1233.18 1480.21 Q1235.52 1478.1 1235.52 1474.49 Q1235.52 1470.88 1233.18 1468.77 Q1230.84 1466.67 1226.84 1466.67 Q1224.96 1466.67 1223.09 1467.08 Q1221.24 1467.5 1219.29 1468.38 L1219.29 1451.02 Z" fill="#000000" fill-rule="nonzero" fill-opacity="1" /><path clip-path="url(#clip280)" d="M1259.41 1454.1 Q1255.8 1454.1 1253.97 1457.66 Q1252.16 1461.2 1252.16 1468.33 Q1252.16 1475.44 1253.97 1479.01 Q1255.8 1482.55 1259.41 1482.55 Q1263.04 1482.55 1264.85 1479.01 Q1266.67 1475.44 1266.67 1468.33 Q1266.67 1461.2 1264.85 1457.66 Q1263.04 1454.1 1259.41 1454.1 M1259.41 1450.39 Q1265.22 1450.39 1268.27 1455 Q1271.35 1459.58 1271.35 1468.33 Q1271.35 1477.06 1268.27 1481.67 Q1265.22 1486.25 1259.41 1486.25 Q1253.6 1486.25 1250.52 1481.67 Q1247.46 1477.06 1247.46 1468.33 Q1247.46 1459.58 1250.52 1455 Q1253.6 1450.39 1259.41 1450.39 Z" fill="#000000" fill-rule="nonzero" fill-opacity="1" /><path clip-path="url(#clip280)" d="M1548.29 1481.64 L1564.61 1481.64 L1564.61 1485.58 L1542.67 1485.58 L1542.67 1481.64 Q1545.33 1478.89 1549.91 1474.26 Q1554.52 1469.61 1555.7 1468.27 Q1557.95 1465.74 1558.83 1464.01 Q1559.73 1462.25 1559.73 1460.56 Q1559.73 1457.8 1557.78 1456.07 Q1555.86 1454.33 1552.76 1454.33 Q1550.56 1454.33 1548.11 1455.09 Q1545.68 1455.86 1542.9 1457.41 L1542.9 1452.69 Q1545.72 1451.55 1548.18 1450.97 Q1550.63 1450.39 1552.67 1450.39 Q1558.04 1450.39 1561.23 1453.08 Q1564.43 1455.77 1564.43 1460.26 Q1564.43 1462.39 1563.62 1464.31 Q1562.83 1466.2 1560.72 1468.8 Q1560.15 1469.47 1557.04 1472.69 Q1553.94 1475.88 1548.29 1481.64 Z" fill="#000000" fill-rule="nonzero" fill-opacity="1" /><path clip-path="url(#clip280)" d="M1584.43 1454.1 Q1580.82 1454.1 1578.99 1457.66 Q1577.18 1461.2 1577.18 1468.33 Q1577.18 1475.44 1578.99 1479.01 Q1580.82 1482.55 1584.43 1482.55 Q1588.06 1482.55 1589.87 1479.01 Q1591.7 1475.44 1591.7 1468.33 Q1591.7 1461.2 1589.87 1457.66 Q1588.06 1454.1 1584.43 1454.1 M1584.43 1450.39 Q1590.24 1450.39 1593.29 1455 Q1596.37 1459.58 1596.37 1468.33 Q1596.37 1477.06 1593.29 1481.67 Q1590.24 1486.25 1584.43 1486.25 Q1578.62 1486.25 1575.54 1481.67 Q1572.48 1477.06 1572.48 1468.33 Q1572.48 1459.58 1575.54 1455 Q1578.62 1450.39 1584.43 1450.39 Z" fill="#000000" fill-rule="nonzero" fill-opacity="1" /><path clip-path="url(#clip280)" d="M1614.59 1454.1 Q1610.98 1454.1 1609.15 1457.66 Q1607.34 1461.2 1607.34 1468.33 Q1607.34 1475.44 1609.15 1479.01 Q1610.98 1482.55 1614.59 1482.55 Q1618.22 1482.55 1620.03 1479.01 Q1621.86 1475.44 1621.86 1468.33 Q1621.86 1461.2 1620.03 1457.66 Q1618.22 1454.1 1614.59 1454.1 M1614.59 1450.39 Q1620.4 1450.39 1623.45 1455 Q1626.53 1459.58 1626.53 1468.33 Q1626.53 1477.06 1623.45 1481.67 Q1620.4 1486.25 1614.59 1486.25 Q1608.78 1486.25 1605.7 1481.67 Q1602.64 1477.06 1602.64 1468.33 Q1602.64 1459.58 1605.7 1455 Q1608.78 1450.39 1614.59 1450.39 Z" fill="#000000" fill-rule="nonzero" fill-opacity="1" /><path clip-path="url(#clip280)" d="M1902.61 1481.64 L1918.93 1481.64 L1918.93 1485.58 L1896.98 1485.58 L1896.98 1481.64 Q1899.65 1478.89 1904.23 1474.26 Q1908.84 1469.61 1910.02 1468.27 Q1912.26 1465.74 1913.14 1464.01 Q1914.04 1462.25 1914.04 1460.56 Q1914.04 1457.8 1912.1 1456.07 Q1910.18 1454.33 1907.08 1454.33 Q1904.88 1454.33 1902.42 1455.09 Q1899.99 1455.86 1897.21 1457.41 L1897.21 1452.69 Q1900.04 1451.55 1902.49 1450.97 Q1904.95 1450.39 1906.98 1450.39 Q1912.35 1450.39 1915.55 1453.08 Q1918.74 1455.77 1918.74 1460.26 Q1918.74 1462.39 1917.93 1464.31 Q1917.15 1466.2 1915.04 1468.8 Q1914.46 1469.47 1911.36 1472.69 Q1908.26 1475.88 1902.61 1481.64 Z" fill="#000000" fill-rule="nonzero" fill-opacity="1" /><path clip-path="url(#clip280)" d="M1928.79 1451.02 L1947.15 1451.02 L1947.15 1454.96 L1933.07 1454.96 L1933.07 1463.43 Q1934.09 1463.08 1935.11 1462.92 Q1936.13 1462.73 1937.15 1462.73 Q1942.93 1462.73 1946.31 1465.9 Q1949.69 1469.08 1949.69 1474.49 Q1949.69 1480.07 1946.22 1483.17 Q1942.75 1486.25 1936.43 1486.25 Q1934.25 1486.25 1931.98 1485.88 Q1929.74 1485.51 1927.33 1484.77 L1927.33 1480.07 Q1929.41 1481.2 1931.64 1481.76 Q1933.86 1482.32 1936.33 1482.32 Q1940.34 1482.32 1942.68 1480.21 Q1945.02 1478.1 1945.02 1474.49 Q1945.02 1470.88 1942.68 1468.77 Q1940.34 1466.67 1936.33 1466.67 Q1934.46 1466.67 1932.58 1467.08 Q1930.73 1467.5 1928.79 1468.38 L1928.79 1451.02 Z" fill="#000000" fill-rule="nonzero" fill-opacity="1" /><path clip-path="url(#clip280)" d="M1968.9 1454.1 Q1965.29 1454.1 1963.46 1457.66 Q1961.66 1461.2 1961.66 1468.33 Q1961.66 1475.44 1963.46 1479.01 Q1965.29 1482.55 1968.9 1482.55 Q1972.54 1482.55 1974.34 1479.01 Q1976.17 1475.44 1976.17 1468.33 Q1976.17 1461.2 1974.34 1457.66 Q1972.54 1454.1 1968.9 1454.1 M1968.9 1450.39 Q1974.71 1450.39 1977.77 1455 Q1980.85 1459.58 1980.85 1468.33 Q1980.85 1477.06 1977.77 1481.67 Q1974.71 1486.25 1968.9 1486.25 Q1963.09 1486.25 1960.02 1481.67 Q1956.96 1477.06 1956.96 1468.33 Q1956.96 1459.58 1960.02 1455 Q1963.09 1450.39 1968.9 1450.39 Z" fill="#000000" fill-rule="nonzero" fill-opacity="1" /><path clip-path="url(#clip280)" d="M2266.99 1466.95 Q2270.35 1467.66 2272.22 1469.93 Q2274.12 1472.2 2274.12 1475.53 Q2274.12 1480.65 2270.6 1483.45 Q2267.09 1486.25 2260.6 1486.25 Q2258.43 1486.25 2256.11 1485.81 Q2253.82 1485.39 2251.37 1484.54 L2251.37 1480.02 Q2253.31 1481.16 2255.63 1481.74 Q2257.94 1482.32 2260.46 1482.32 Q2264.86 1482.32 2267.15 1480.58 Q2269.47 1478.84 2269.47 1475.53 Q2269.47 1472.48 2267.32 1470.77 Q2265.19 1469.03 2261.37 1469.03 L2257.34 1469.03 L2257.34 1465.19 L2261.55 1465.19 Q2265 1465.19 2266.83 1463.82 Q2268.66 1462.43 2268.66 1459.84 Q2268.66 1457.18 2266.76 1455.77 Q2264.89 1454.33 2261.37 1454.33 Q2259.45 1454.33 2257.25 1454.75 Q2255.05 1455.16 2252.41 1456.04 L2252.41 1451.88 Q2255.07 1451.14 2257.39 1450.77 Q2259.72 1450.39 2261.78 1450.39 Q2267.11 1450.39 2270.21 1452.83 Q2273.31 1455.23 2273.31 1459.35 Q2273.31 1462.22 2271.67 1464.21 Q2270.03 1466.18 2266.99 1466.95 Z" fill="#000000" fill-rule="nonzero" fill-opacity="1" /><path clip-path="url(#clip280)" d="M2292.99 1454.1 Q2289.38 1454.1 2287.55 1457.66 Q2285.74 1461.2 2285.74 1468.33 Q2285.74 1475.44 2287.55 1479.01 Q2289.38 1482.55 2292.99 1482.55 Q2296.62 1482.55 2298.43 1479.01 Q2300.26 1475.44 2300.26 1468.33 Q2300.26 1461.2 2298.43 1457.66 Q2296.62 1454.1 2292.99 1454.1 M2292.99 1450.39 Q2298.8 1450.39 2301.85 1455 Q2304.93 1459.58 2304.93 1468.33 Q2304.93 1477.06 2301.85 1481.67 Q2298.8 1486.25 2292.99 1486.25 Q2287.18 1486.25 2284.1 1481.67 Q2281.04 1477.06 2281.04 1468.33 Q2281.04 1459.58 2284.1 1455 Q2287.18 1450.39 2292.99 1450.39 Z" fill="#000000" fill-rule="nonzero" fill-opacity="1" /><path clip-path="url(#clip280)" d="M2323.15 1454.1 Q2319.54 1454.1 2317.71 1457.66 Q2315.9 1461.2 2315.9 1468.33 Q2315.9 1475.44 2317.71 1479.01 Q2319.54 1482.55 2323.15 1482.55 Q2326.78 1482.55 2328.59 1479.01 Q2330.42 1475.44 2330.42 1468.33 Q2330.42 1461.2 2328.59 1457.66 Q2326.78 1454.1 2323.15 1454.1 M2323.15 1450.39 Q2328.96 1450.39 2332.02 1455 Q2335.09 1459.58 2335.09 1468.33 Q2335.09 1477.06 2332.02 1481.67 Q2328.96 1486.25 2323.15 1486.25 Q2317.34 1486.25 2314.26 1481.67 Q2311.21 1477.06 2311.21 1468.33 Q2311.21 1459.58 2314.26 1455 Q2317.34 1450.39 2323.15 1450.39 Z" fill="#000000" fill-rule="nonzero" fill-opacity="1" /><path clip-path="url(#clip280)" d="M1177.69 1520.52 L1217.89 1520.52 L1217.89 1525.93 L1201.02 1525.93 L1201.02 1568.04 L1194.56 1568.04 L1194.56 1525.93 L1177.69 1525.93 L1177.69 1520.52 Z" fill="#000000" fill-rule="nonzero" fill-opacity="1" /><path clip-path="url(#clip280)" d="M1244.02 1518.52 L1257.51 1518.52 L1257.51 1523.07 L1249.87 1523.07 L1249.87 1572.09 L1257.51 1572.09 L1257.51 1576.64 L1244.02 1576.64 L1244.02 1518.52 Z" fill="#000000" fill-rule="nonzero" fill-opacity="1" /><path clip-path="url(#clip280)" d="M1270.24 1520.52 L1279.82 1520.52 L1291.95 1552.86 L1304.14 1520.52 L1313.72 1520.52 L1313.72 1568.04 L1307.45 1568.04 L1307.45 1526.32 L1295.2 1558.91 L1288.74 1558.91 L1276.48 1526.32 L1276.48 1568.04 L1270.24 1568.04 L1270.24 1520.52 Z" fill="#000000" fill-rule="nonzero" fill-opacity="1" /><path clip-path="url(#clip280)" d="M1356.72 1548.76 L1356.72 1551.62 L1329.79 1551.62 Q1330.18 1557.67 1333.42 1560.85 Q1336.7 1564 1342.53 1564 Q1345.9 1564 1349.05 1563.17 Q1352.23 1562.35 1355.35 1560.69 L1355.35 1566.23 Q1352.2 1567.57 1348.89 1568.27 Q1345.58 1568.97 1342.18 1568.97 Q1333.65 1568.97 1328.65 1564 Q1323.68 1559.04 1323.68 1550.57 Q1323.68 1541.82 1328.39 1536.69 Q1333.14 1531.54 1341.16 1531.54 Q1348.35 1531.54 1352.52 1536.18 Q1356.72 1540.8 1356.72 1548.76 M1350.87 1547.04 Q1350.8 1542.23 1348.16 1539.37 Q1345.55 1536.5 1341.22 1536.5 Q1336.32 1536.5 1333.36 1539.27 Q1330.43 1542.04 1329.99 1547.07 L1350.87 1547.04 Z" fill="#000000" fill-rule="nonzero" fill-opacity="1" /><path clip-path="url(#clip280)" d="M1378.84 1568.04 L1360.7 1520.52 L1367.42 1520.52 L1382.47 1560.53 L1397.56 1520.52 L1404.24 1520.52 L1386.13 1568.04 L1378.84 1568.04 Z" fill="#000000" fill-rule="nonzero" fill-opacity="1" /><path clip-path="url(#clip280)" d="M1424.61 1518.52 L1424.61 1576.64 L1411.12 1576.64 L1411.12 1572.09 L1418.72 1572.09 L1418.72 1523.07 L1411.12 1523.07 L1411.12 1518.52 L1424.61 1518.52 Z" fill="#000000" fill-rule="nonzero" fill-opacity="1" /><polyline clip-path="url(#clip280)" style="stroke:#000000; stroke-linecap:round; stroke-linejoin:round; stroke-width:4; stroke-opacity:1; fill:none" points="249.542,1423.18 249.542,123.472 "/>
<polyline clip-path="url(#clip280)" style="stroke:#000000; stroke-linecap:round; stroke-linejoin:round; stroke-width:4; stroke-opacity:1; fill:none" points="249.542,1386.4 268.44,1386.4 "/>
<polyline clip-path="url(#clip280)" style="stroke:#000000; stroke-linecap:round; stroke-linejoin:round; stroke-width:4; stroke-opacity:1; fill:none" points="249.542,1038.31 268.44,1038.31 "/>
<polyline clip-path="url(#clip280)" style="stroke:#000000; stroke-linecap:round; stroke-linejoin:round; stroke-width:4; stroke-opacity:1; fill:none" points="249.542,690.224 268.44,690.224 "/>
<polyline clip-path="url(#clip280)" style="stroke:#000000; stroke-linecap:round; stroke-linejoin:round; stroke-width:4; stroke-opacity:1; fill:none" points="249.542,342.139 268.44,342.139 "/>
<path clip-path="url(#clip280)" d="M126.205 1372.19 Q122.593 1372.19 120.765 1375.76 Q118.959 1379.3 118.959 1386.43 Q118.959 1393.54 120.765 1397.1 Q122.593 1400.64 126.205 1400.64 Q129.839 1400.64 131.644 1397.1 Q133.473 1393.54 133.473 1386.43 Q133.473 1379.3 131.644 1375.76 Q129.839 1372.19 126.205 1372.19 M126.205 1368.49 Q132.015 1368.49 135.07 1373.1 Q138.149 1377.68 138.149 1386.43 Q138.149 1395.16 135.07 1399.76 Q132.015 1404.35 126.205 1404.35 Q120.394 1404.35 117.316 1399.76 Q114.26 1395.16 114.26 1386.43 Q114.26 1377.68 117.316 1373.1 Q120.394 1368.49 126.205 1368.49 Z" fill="#000000" fill-rule="nonzero" fill-opacity="1" /><path clip-path="url(#clip280)" d="M146.366 1397.8 L151.251 1397.8 L151.251 1403.68 L146.366 1403.68 L146.366 1397.8 Z" fill="#000000" fill-rule="nonzero" fill-opacity="1" /><path clip-path="url(#clip280)" d="M171.436 1372.19 Q167.825 1372.19 165.996 1375.76 Q164.19 1379.3 164.19 1386.43 Q164.19 1393.54 165.996 1397.1 Q167.825 1400.64 171.436 1400.64 Q175.07 1400.64 176.876 1397.1 Q178.704 1393.54 178.704 1386.43 Q178.704 1379.3 176.876 1375.76 Q175.07 1372.19 171.436 1372.19 M171.436 1368.49 Q177.246 1368.49 180.301 1373.1 Q183.38 1377.68 183.38 1386.43 Q183.38 1395.16 180.301 1399.76 Q177.246 1404.35 171.436 1404.35 Q165.626 1404.35 162.547 1399.76 Q159.491 1395.16 159.491 1386.43 Q159.491 1377.68 162.547 1373.1 Q165.626 1368.49 171.436 1368.49 Z" fill="#000000" fill-rule="nonzero" fill-opacity="1" /><path clip-path="url(#clip280)" d="M201.598 1372.19 Q197.987 1372.19 196.158 1375.76 Q194.352 1379.3 194.352 1386.43 Q194.352 1393.54 196.158 1397.1 Q197.987 1400.64 201.598 1400.64 Q205.232 1400.64 207.037 1397.1 Q208.866 1393.54 208.866 1386.43 Q208.866 1379.3 207.037 1375.76 Q205.232 1372.19 201.598 1372.19 M201.598 1368.49 Q207.408 1368.49 210.463 1373.1 Q213.542 1377.68 213.542 1386.43 Q213.542 1395.16 210.463 1399.76 Q207.408 1404.35 201.598 1404.35 Q195.787 1404.35 192.709 1399.76 Q189.653 1395.16 189.653 1386.43 Q189.653 1377.68 192.709 1373.1 Q195.787 1368.49 201.598 1368.49 Z" fill="#000000" fill-rule="nonzero" fill-opacity="1" /><path clip-path="url(#clip280)" d="M127.431 1024.11 Q123.82 1024.11 121.992 1027.67 Q120.186 1031.22 120.186 1038.34 Q120.186 1045.45 121.992 1049.02 Q123.82 1052.56 127.431 1052.56 Q131.066 1052.56 132.871 1049.02 Q134.7 1045.45 134.7 1038.34 Q134.7 1031.22 132.871 1027.67 Q131.066 1024.11 127.431 1024.11 M127.431 1020.41 Q133.242 1020.41 136.297 1025.01 Q139.376 1029.59 139.376 1038.34 Q139.376 1047.07 136.297 1051.68 Q133.242 1056.26 127.431 1056.26 Q121.621 1056.26 118.543 1051.68 Q115.487 1047.07 115.487 1038.34 Q115.487 1029.59 118.543 1025.01 Q121.621 1020.41 127.431 1020.41 Z" fill="#000000" fill-rule="nonzero" fill-opacity="1" /><path clip-path="url(#clip280)" d="M147.593 1049.71 L152.478 1049.71 L152.478 1055.59 L147.593 1055.59 L147.593 1049.71 Z" fill="#000000" fill-rule="nonzero" fill-opacity="1" /><path clip-path="url(#clip280)" d="M172.663 1024.11 Q169.052 1024.11 167.223 1027.67 Q165.417 1031.22 165.417 1038.34 Q165.417 1045.45 167.223 1049.02 Q169.052 1052.56 172.663 1052.56 Q176.297 1052.56 178.102 1049.02 Q179.931 1045.45 179.931 1038.34 Q179.931 1031.22 178.102 1027.67 Q176.297 1024.11 172.663 1024.11 M172.663 1020.41 Q178.473 1020.41 181.528 1025.01 Q184.607 1029.59 184.607 1038.34 Q184.607 1047.07 181.528 1051.68 Q178.473 1056.26 172.663 1056.26 Q166.852 1056.26 163.774 1051.68 Q160.718 1047.07 160.718 1038.34 Q160.718 1029.59 163.774 1025.01 Q166.852 1020.41 172.663 1020.41 Z" fill="#000000" fill-rule="nonzero" fill-opacity="1" /><path clip-path="url(#clip280)" d="M193.635 1051.65 L201.274 1051.65 L201.274 1025.29 L192.963 1026.96 L192.963 1022.7 L201.227 1021.03 L205.903 1021.03 L205.903 1051.65 L213.542 1051.65 L213.542 1055.59 L193.635 1055.59 L193.635 1051.65 Z" fill="#000000" fill-rule="nonzero" fill-opacity="1" /><path clip-path="url(#clip280)" d="M127.802 676.023 Q124.191 676.023 122.362 679.588 Q120.556 683.129 120.556 690.259 Q120.556 697.366 122.362 700.93 Q124.191 704.472 127.802 704.472 Q131.436 704.472 133.242 700.93 Q135.07 697.366 135.07 690.259 Q135.07 683.129 133.242 679.588 Q131.436 676.023 127.802 676.023 M127.802 672.319 Q133.612 672.319 136.667 676.926 Q139.746 681.509 139.746 690.259 Q139.746 698.986 136.667 703.592 Q133.612 708.176 127.802 708.176 Q121.992 708.176 118.913 703.592 Q115.857 698.986 115.857 690.259 Q115.857 681.509 118.913 676.926 Q121.992 672.319 127.802 672.319 Z" fill="#000000" fill-rule="nonzero" fill-opacity="1" /><path clip-path="url(#clip280)" d="M147.964 701.625 L152.848 701.625 L152.848 707.504 L147.964 707.504 L147.964 701.625 Z" fill="#000000" fill-rule="nonzero" fill-opacity="1" /><path clip-path="url(#clip280)" d="M173.033 676.023 Q169.422 676.023 167.593 679.588 Q165.788 683.129 165.788 690.259 Q165.788 697.366 167.593 700.93 Q169.422 704.472 173.033 704.472 Q176.667 704.472 178.473 700.93 Q180.301 697.366 180.301 690.259 Q180.301 683.129 178.473 679.588 Q176.667 676.023 173.033 676.023 M173.033 672.319 Q178.843 672.319 181.899 676.926 Q184.977 681.509 184.977 690.259 Q184.977 698.986 181.899 703.592 Q178.843 708.176 173.033 708.176 Q167.223 708.176 164.144 703.592 Q161.089 698.986 161.089 690.259 Q161.089 681.509 164.144 676.926 Q167.223 672.319 173.033 672.319 Z" fill="#000000" fill-rule="nonzero" fill-opacity="1" /><path clip-path="url(#clip280)" d="M197.223 703.569 L213.542 703.569 L213.542 707.504 L191.598 707.504 L191.598 703.569 Q194.26 700.815 198.843 696.185 Q203.449 691.532 204.63 690.19 Q206.875 687.666 207.755 685.93 Q208.658 684.171 208.658 682.481 Q208.658 679.727 206.713 677.991 Q204.792 676.255 201.69 676.255 Q199.491 676.255 197.037 677.018 Q194.607 677.782 191.829 679.333 L191.829 674.611 Q194.653 673.477 197.107 672.898 Q199.561 672.319 201.598 672.319 Q206.968 672.319 210.162 675.005 Q213.357 677.69 213.357 682.18 Q213.357 684.31 212.547 686.231 Q211.76 688.129 209.653 690.722 Q209.074 691.393 205.973 694.611 Q202.871 697.805 197.223 703.569 Z" fill="#000000" fill-rule="nonzero" fill-opacity="1" /><path clip-path="url(#clip280)" d="M126.853 327.937 Q123.242 327.937 121.413 331.502 Q119.607 335.044 119.607 342.173 Q119.607 349.28 121.413 352.845 Q123.242 356.386 126.853 356.386 Q130.487 356.386 132.292 352.845 Q134.121 349.28 134.121 342.173 Q134.121 335.044 132.292 331.502 Q130.487 327.937 126.853 327.937 M126.853 324.234 Q132.663 324.234 135.718 328.84 Q138.797 333.423 138.797 342.173 Q138.797 350.9 135.718 355.507 Q132.663 360.09 126.853 360.09 Q121.043 360.09 117.964 355.507 Q114.908 350.9 114.908 342.173 Q114.908 333.423 117.964 328.84 Q121.043 324.234 126.853 324.234 Z" fill="#000000" fill-rule="nonzero" fill-opacity="1" /><path clip-path="url(#clip280)" d="M147.015 353.539 L151.899 353.539 L151.899 359.419 L147.015 359.419 L147.015 353.539 Z" fill="#000000" fill-rule="nonzero" fill-opacity="1" /><path clip-path="url(#clip280)" d="M172.084 327.937 Q168.473 327.937 166.644 331.502 Q164.839 335.044 164.839 342.173 Q164.839 349.28 166.644 352.845 Q168.473 356.386 172.084 356.386 Q175.718 356.386 177.524 352.845 Q179.352 349.28 179.352 342.173 Q179.352 335.044 177.524 331.502 Q175.718 327.937 172.084 327.937 M172.084 324.234 Q177.894 324.234 180.95 328.84 Q184.028 333.423 184.028 342.173 Q184.028 350.9 180.95 355.507 Q177.894 360.09 172.084 360.09 Q166.274 360.09 163.195 355.507 Q160.14 350.9 160.14 342.173 Q160.14 333.423 163.195 328.84 Q166.274 324.234 172.084 324.234 Z" fill="#000000" fill-rule="nonzero" fill-opacity="1" /><path clip-path="url(#clip280)" d="M206.412 340.785 Q209.769 341.502 211.644 343.771 Q213.542 346.039 213.542 349.372 Q213.542 354.488 210.024 357.289 Q206.505 360.09 200.024 360.09 Q197.848 360.09 195.533 359.65 Q193.241 359.234 190.788 358.377 L190.788 353.863 Q192.732 354.997 195.047 355.576 Q197.362 356.155 199.885 356.155 Q204.283 356.155 206.574 354.419 Q208.889 352.683 208.889 349.372 Q208.889 346.317 206.737 344.604 Q204.607 342.868 200.787 342.868 L196.76 342.868 L196.76 339.025 L200.973 339.025 Q204.422 339.025 206.25 337.66 Q208.079 336.271 208.079 333.678 Q208.079 331.016 206.181 329.604 Q204.306 328.169 200.787 328.169 Q198.866 328.169 196.667 328.586 Q194.468 329.002 191.829 329.882 L191.829 325.715 Q194.491 324.974 196.806 324.604 Q199.144 324.234 201.204 324.234 Q206.528 324.234 209.63 326.664 Q212.732 329.072 212.732 333.192 Q212.732 336.062 211.088 338.053 Q209.445 340.021 206.412 340.785 Z" fill="#000000" fill-rule="nonzero" fill-opacity="1" /><path clip-path="url(#clip280)" d="M29.4065 993.309 L34.9447 993.309 Q33.6716 995.792 33.035 998.465 Q32.3984 1001.14 32.3984 1004 Q32.3984 1008.36 33.7352 1010.56 Q35.072 1012.72 37.7456 1012.72 Q39.7826 1012.72 40.9603 1011.16 Q42.1061 1009.61 43.1565 1004.89 L43.6021 1002.89 Q44.9389 996.651 47.3897 994.041 Q49.8086 991.399 54.1691 991.399 Q59.1344 991.399 62.0308 995.346 Q64.9272 999.261 64.9272 1006.14 Q64.9272 1009 64.3543 1012.12 Q63.8132 1015.21 62.6992 1018.64 L56.6518 1018.64 Q58.3387 1015.4 59.198 1012.25 Q60.0256 1009.1 60.0256 1006.01 Q60.0256 1001.87 58.6251 999.643 Q57.1929 997.415 54.6147 997.415 Q52.2276 997.415 50.9545 999.038 Q49.6813 1000.63 48.5037 1006.07 L48.0262 1008.11 Q46.8804 1013.55 44.5251 1015.97 Q42.138 1018.39 38.0002 1018.39 Q32.9713 1018.39 30.2341 1014.82 Q27.4968 1011.26 27.4968 1004.7 Q27.4968 1001.46 27.9743 998.592 Q28.4517 995.728 29.4065 993.309 Z" fill="#000000" fill-rule="nonzero" fill-opacity="1" /><path clip-path="url(#clip280)" d="M28.3562 982.073 L28.3562 976.217 L64.0042 976.217 L64.0042 982.073 L28.3562 982.073 M14.479 982.073 L14.479 976.217 L21.895 976.217 L21.895 982.073 L14.479 982.073 Z" fill="#000000" fill-rule="nonzero" fill-opacity="1" /><path clip-path="url(#clip280)" d="M45.7664 940.505 Q39.4007 940.505 35.8996 943.147 Q32.3984 945.757 32.3984 950.5 Q32.3984 955.21 35.8996 957.852 Q39.4007 960.462 45.7664 960.462 Q52.1003 960.462 55.6014 957.852 Q59.1026 955.21 59.1026 950.5 Q59.1026 945.757 55.6014 943.147 Q52.1003 940.505 45.7664 940.505 M59.58 934.649 Q68.683 934.649 73.1071 938.691 Q77.5631 942.733 77.5631 951.072 Q77.5631 954.16 77.0857 956.897 Q76.6401 959.634 75.6852 962.212 L69.9879 962.212 Q71.3884 959.634 72.0568 957.12 Q72.7252 954.605 72.7252 951.995 Q72.7252 946.234 69.7015 943.37 Q66.7096 940.505 60.6303 940.505 L57.7339 940.505 Q60.885 942.32 62.4446 945.152 Q64.0042 947.985 64.0042 951.932 Q64.0042 958.488 59.0071 962.499 Q54.01 966.509 45.7664 966.509 Q37.491 966.509 32.4939 962.499 Q27.4968 958.488 27.4968 951.932 Q27.4968 947.985 29.0564 945.152 Q30.616 942.32 33.7671 940.505 L28.3562 940.505 L28.3562 934.649 L59.58 934.649 Z" fill="#000000" fill-rule="nonzero" fill-opacity="1" /><path clip-path="url(#clip280)" d="M35.1993 894.831 Q31.2526 892.635 29.3747 889.58 Q27.4968 886.524 27.4968 882.386 Q27.4968 876.816 31.4117 873.793 Q35.2948 870.769 42.4881 870.769 L64.0042 870.769 L64.0042 876.657 L42.679 876.657 Q37.5546 876.657 35.072 878.472 Q32.5894 880.286 32.5894 884.01 Q32.5894 888.561 35.6131 891.203 Q38.6368 893.845 43.8567 893.845 L64.0042 893.845 L64.0042 899.733 L42.679 899.733 Q37.5228 899.733 35.072 901.547 Q32.5894 903.361 32.5894 907.149 Q32.5894 911.637 35.6449 914.279 Q38.6686 916.92 43.8567 916.92 L64.0042 916.92 L64.0042 922.809 L28.3562 922.809 L28.3562 916.92 L33.8944 916.92 Q30.616 914.915 29.0564 912.114 Q27.4968 909.313 27.4968 905.462 Q27.4968 901.579 29.4702 898.874 Q31.4436 896.136 35.1993 894.831 Z" fill="#000000" fill-rule="nonzero" fill-opacity="1" /><path clip-path="url(#clip280)" d="M46.0847 842.887 Q46.0847 849.985 47.7079 852.722 Q49.3312 855.46 53.2461 855.46 Q56.3653 855.46 58.2114 853.422 Q60.0256 851.354 60.0256 847.821 Q60.0256 842.951 56.5881 840.023 Q53.1188 837.063 47.3897 837.063 L46.0847 837.063 L46.0847 842.887 M43.6657 831.206 L64.0042 831.206 L64.0042 837.063 L58.5933 837.063 Q61.8398 839.068 63.3994 842.06 Q64.9272 845.052 64.9272 849.38 Q64.9272 854.855 61.8716 858.101 Q58.7843 861.316 53.6281 861.316 Q47.6125 861.316 44.5569 857.306 Q41.5014 853.263 41.5014 845.274 L41.5014 837.063 L40.9285 837.063 Q36.8862 837.063 34.6901 839.736 Q32.4621 842.378 32.4621 847.184 Q32.4621 850.24 33.1941 853.136 Q33.9262 856.032 35.3903 858.706 L29.9795 858.706 Q28.7381 855.491 28.1334 852.468 Q27.4968 849.444 27.4968 846.579 Q27.4968 838.845 31.5072 835.026 Q35.5176 831.206 43.6657 831.206 Z" fill="#000000" fill-rule="nonzero" fill-opacity="1" /><path clip-path="url(#clip280)" d="M14.479 798.964 L14.479 785.469 L19.0304 785.469 L19.0304 793.107 L68.0464 793.107 L68.0464 785.469 L72.5979 785.469 L72.5979 798.964 L14.479 798.964 Z" fill="#000000" fill-rule="nonzero" fill-opacity="1" /><path clip-path="url(#clip280)" d="M57.2247 740.336 L44.4614 740.336 L44.4614 750.839 L39.1779 750.839 L39.1779 733.97 L59.58 733.97 Q62.2218 737.694 63.5904 742.182 Q64.9272 746.67 64.9272 751.762 Q64.9272 762.902 58.4342 769.204 Q51.9093 775.474 40.2919 775.474 Q28.6427 775.474 22.1496 769.204 Q15.6248 762.902 15.6248 751.762 Q15.6248 747.115 16.7706 742.946 Q17.9164 738.744 20.1444 735.211 L26.9876 735.211 Q23.9639 738.776 22.4361 742.787 Q20.9083 746.797 20.9083 751.221 Q20.9083 759.942 25.7781 764.334 Q30.6479 768.695 40.2919 768.695 Q49.9041 768.695 54.7739 764.334 Q59.6436 759.942 59.6436 751.221 Q59.6436 747.815 59.0707 745.142 Q58.466 742.468 57.2247 740.336 Z" fill="#000000" fill-rule="nonzero" fill-opacity="1" /><path clip-path="url(#clip280)" d="M44.7161 691.988 L47.5806 691.988 L47.5806 718.915 Q53.6281 718.533 56.8109 715.287 Q59.9619 712.008 59.9619 706.184 Q59.9619 702.81 59.1344 699.659 Q58.3069 696.476 56.6518 693.357 L62.1899 693.357 Q63.5267 696.508 64.227 699.818 Q64.9272 703.128 64.9272 706.534 Q64.9272 715.064 59.9619 720.061 Q54.9967 725.026 46.5303 725.026 Q37.7774 725.026 32.6531 720.316 Q27.4968 715.573 27.4968 707.552 Q27.4968 700.359 32.1438 696.19 Q36.7589 691.988 44.7161 691.988 M42.9973 697.845 Q38.1912 697.908 35.3266 700.55 Q32.4621 703.16 32.4621 707.489 Q32.4621 712.39 35.2312 715.35 Q38.0002 718.279 43.0292 718.724 L42.9973 697.845 Z" fill="#000000" fill-rule="nonzero" fill-opacity="1" /><path clip-path="url(#clip280)" d="M64.0042 669.867 L16.4842 688.01 L16.4842 681.294 L56.4926 666.239 L16.4842 651.152 L16.4842 644.468 L64.0042 662.579 L64.0042 669.867 Z" fill="#000000" fill-rule="nonzero" fill-opacity="1" /><path clip-path="url(#clip280)" d="M16.4842 613.499 L34.2127 596.216 L34.2127 602.614 L21.6404 616.618 L34.2127 630.623 L34.2127 637.02 L16.4842 619.737 L16.4842 613.499 Z" fill="#000000" fill-rule="nonzero" fill-opacity="1" /><path clip-path="url(#clip280)" d="M38.3822 562.86 Q39.3689 558.245 42.4881 555.667 Q45.6073 553.057 50.1906 553.057 Q57.2247 553.057 61.0759 557.895 Q64.9272 562.732 64.9272 571.644 Q64.9272 574.636 64.3224 577.819 Q63.7495 580.97 62.5719 584.344 L56.3653 584.344 Q57.9249 581.67 58.7206 578.488 Q59.5163 575.305 59.5163 571.835 Q59.5163 565.788 57.1292 562.637 Q54.7421 559.454 50.1906 559.454 Q45.9892 559.454 43.6339 562.414 Q41.2468 565.342 41.2468 570.594 L41.2468 576.132 L35.9632 576.132 L35.9632 570.34 Q35.9632 565.597 34.0853 563.083 Q32.1756 560.568 28.6108 560.568 Q24.9505 560.568 23.009 563.178 Q21.0356 565.756 21.0356 570.594 Q21.0356 573.236 21.6086 576.26 Q22.1815 579.283 23.3909 582.912 L17.6618 582.912 Q16.6433 579.252 16.134 576.069 Q15.6248 572.854 15.6248 570.021 Q15.6248 562.701 18.9668 558.436 Q22.277 554.171 27.9424 554.171 Q31.8892 554.171 34.6264 556.43 Q37.3318 558.69 38.3822 562.86 Z" fill="#000000" fill-rule="nonzero" fill-opacity="1" /><path clip-path="url(#clip280)" d="M14.479 528.008 L72.5979 528.008 L72.5979 541.503 L68.0464 541.503 L68.0464 533.896 L19.0304 533.896 L19.0304 541.503 L14.479 541.503 L14.479 528.008 Z" fill="#000000" fill-rule="nonzero" fill-opacity="1" /><path clip-path="url(#clip280)" d="M797.5 14.0809 L797.5 22.0612 Q792.842 19.8332 788.71 18.7395 Q784.578 17.6457 780.729 17.6457 Q774.045 17.6457 770.399 20.2383 Q766.794 22.8309 766.794 27.611 Q766.794 31.6214 769.184 33.6873 Q771.615 35.7128 778.339 36.9686 L783.281 37.9813 Q792.436 39.7232 796.771 44.1387 Q801.146 48.5136 801.146 55.8863 Q801.146 64.6767 795.232 69.2137 Q789.358 73.7508 777.975 73.7508 Q773.681 73.7508 768.82 72.7785 Q763.999 71.8063 758.814 69.9024 L758.814 61.4765 Q763.797 64.2716 768.577 65.6895 Q773.357 67.1073 777.975 67.1073 Q784.983 67.1073 788.791 64.3527 Q792.598 61.598 792.598 56.4939 Q792.598 52.0379 789.844 49.5264 Q787.13 47.0148 780.891 45.759 L775.909 44.7868 Q766.754 42.9639 762.662 39.075 Q758.571 35.1862 758.571 28.2591 Q758.571 20.2383 764.202 15.6203 Q769.873 11.0023 779.798 11.0023 Q784.051 11.0023 788.467 11.7719 Q792.882 12.5416 797.5 14.0809 Z" fill="#000000" fill-rule="nonzero" fill-opacity="1" /><path clip-path="url(#clip280)" d="M820.793 65.7705 L820.793 89.8329 L813.299 89.8329 L813.299 27.2059 L820.793 27.2059 L820.793 34.0924 Q823.142 30.0415 826.707 28.0971 Q830.312 26.1121 835.295 26.1121 Q843.559 26.1121 848.703 32.6746 Q853.889 39.2371 853.889 49.9314 Q853.889 60.6258 848.703 67.1883 Q843.559 73.7508 835.295 73.7508 Q830.312 73.7508 826.707 71.8063 Q823.142 69.8214 820.793 65.7705 M846.151 49.9314 Q846.151 41.7081 842.749 37.0496 Q839.386 32.3505 833.472 32.3505 Q827.558 32.3505 824.155 37.0496 Q820.793 41.7081 820.793 49.9314 Q820.793 58.1548 824.155 62.8538 Q827.558 67.5124 833.472 67.5124 Q839.386 67.5124 842.749 62.8538 Q846.151 58.1548 846.151 49.9314 Z" fill="#000000" fill-rule="nonzero" fill-opacity="1" /><path clip-path="url(#clip280)" d="M905.052 48.0275 L905.052 51.6733 L870.781 51.6733 Q871.267 59.3701 875.399 63.421 Q879.571 67.4314 886.985 67.4314 Q891.278 67.4314 895.289 66.3781 Q899.34 65.3249 903.31 63.2184 L903.31 70.267 Q899.299 71.9684 895.086 72.8596 Q890.873 73.7508 886.539 73.7508 Q875.682 73.7508 869.323 67.4314 Q863.003 61.1119 863.003 50.3365 Q863.003 39.1965 868.999 32.6746 Q875.034 26.1121 885.243 26.1121 Q894.398 26.1121 899.704 32.0264 Q905.052 37.9003 905.052 48.0275 M897.598 45.84 Q897.517 39.7232 894.155 36.0774 Q890.833 32.4315 885.324 32.4315 Q879.085 32.4315 875.318 35.9558 Q871.591 39.4801 871.024 45.8805 L897.598 45.84 Z" fill="#000000" fill-rule="nonzero" fill-opacity="1" /><path clip-path="url(#clip280)" d="M949.936 28.9478 L949.936 35.9153 Q946.776 34.1734 943.576 33.3227 Q940.416 32.4315 937.175 32.4315 Q929.924 32.4315 925.914 37.0496 Q921.903 41.6271 921.903 49.9314 Q921.903 58.2358 925.914 62.8538 Q929.924 67.4314 937.175 67.4314 Q940.416 67.4314 943.576 66.5807 Q946.776 65.6895 949.936 63.9476 L949.936 70.8341 Q946.816 72.2924 943.454 73.0216 Q940.132 73.7508 936.365 73.7508 Q926.116 73.7508 920.08 67.3098 Q914.045 60.8689 914.045 49.9314 Q914.045 38.832 920.121 32.472 Q926.238 26.1121 936.851 26.1121 Q940.294 26.1121 943.576 26.8413 Q946.857 27.5299 949.936 28.9478 Z" fill="#000000" fill-rule="nonzero" fill-opacity="1" /><path clip-path="url(#clip280)" d="M970.271 14.324 L970.271 27.2059 L985.624 27.2059 L985.624 32.9987 L970.271 32.9987 L970.271 57.6282 Q970.271 63.1779 971.77 64.7578 Q973.309 66.3376 977.968 66.3376 L985.624 66.3376 L985.624 72.576 L977.968 72.576 Q969.339 72.576 966.058 69.3758 Q962.777 66.1351 962.777 57.6282 L962.777 32.9987 L957.308 32.9987 L957.308 27.2059 L962.777 27.2059 L962.777 14.324 L970.271 14.324 Z" fill="#000000" fill-rule="nonzero" fill-opacity="1" /><path clip-path="url(#clip280)" d="M1021.72 34.1734 Q1020.46 33.4443 1018.96 33.1202 Q1017.5 32.7556 1015.72 32.7556 Q1009.4 32.7556 1006 36.8875 Q1002.64 40.9789 1002.64 48.6757 L1002.64 72.576 L995.144 72.576 L995.144 27.2059 L1002.64 27.2059 L1002.64 34.2544 Q1004.99 30.1225 1008.75 28.1376 Q1012.52 26.1121 1017.91 26.1121 Q1018.68 26.1121 1019.61 26.2337 Q1020.54 26.3147 1021.68 26.5172 L1021.72 34.1734 Z" fill="#000000" fill-rule="nonzero" fill-opacity="1" /><path clip-path="url(#clip280)" d="M1050.15 49.7694 Q1041.12 49.7694 1037.64 51.8354 Q1034.15 53.9013 1034.15 58.8839 Q1034.15 62.8538 1036.75 65.2034 Q1039.38 67.5124 1043.88 67.5124 Q1050.07 67.5124 1053.8 63.1374 Q1057.57 58.7219 1057.57 51.4303 L1057.57 49.7694 L1050.15 49.7694 M1065.02 46.6907 L1065.02 72.576 L1057.57 72.576 L1057.57 65.6895 Q1055.02 69.8214 1051.21 71.8063 Q1047.4 73.7508 1041.89 73.7508 Q1034.92 73.7508 1030.79 69.8619 Q1026.7 65.9325 1026.7 59.3701 Q1026.7 51.7138 1031.8 47.825 Q1036.95 43.9361 1047.12 43.9361 L1057.57 43.9361 L1057.57 43.2069 Q1057.57 38.0623 1054.17 35.2672 Q1050.8 32.4315 1044.69 32.4315 Q1040.8 32.4315 1037.11 33.3632 Q1033.42 34.295 1030.02 36.1584 L1030.02 29.2718 Q1034.11 27.692 1037.96 26.9223 Q1041.81 26.1121 1045.46 26.1121 Q1055.3 26.1121 1060.16 31.2163 Q1065.02 36.3204 1065.02 46.6907 Z" fill="#000000" fill-rule="nonzero" fill-opacity="1" /><path clip-path="url(#clip280)" d="M1080.37 9.54393 L1087.83 9.54393 L1087.83 72.576 L1080.37 72.576 L1080.37 9.54393 Z" fill="#000000" fill-rule="nonzero" fill-opacity="1" /><path clip-path="url(#clip280)" d="M1158.72 28.5427 L1158.72 35.5912 Q1155.56 33.9709 1152.16 33.1607 Q1148.75 32.3505 1145.11 32.3505 Q1139.56 32.3505 1136.76 34.0519 Q1134.01 35.7533 1134.01 39.156 Q1134.01 41.7486 1135.99 43.2475 Q1137.98 44.7058 1143.97 46.0426 L1146.53 46.6097 Q1154.47 48.3111 1157.79 51.4303 Q1161.15 54.509 1161.15 60.0587 Q1161.15 66.3781 1156.13 70.0644 Q1151.14 73.7508 1142.39 73.7508 Q1138.75 73.7508 1134.78 73.0216 Q1130.85 72.3329 1126.47 70.9151 L1126.47 63.2184 Q1130.61 65.3654 1134.62 66.4591 Q1138.63 67.5124 1142.56 67.5124 Q1147.82 67.5124 1150.66 65.73 Q1153.49 63.9071 1153.49 60.6258 Q1153.49 57.5877 1151.43 55.9673 Q1149.4 54.3469 1142.48 52.8481 L1139.88 52.2405 Q1132.96 50.7821 1129.88 47.7845 Q1126.8 44.7463 1126.8 39.4801 Q1126.8 33.0797 1131.34 29.5959 Q1135.87 26.1121 1144.22 26.1121 Q1148.35 26.1121 1151.99 26.7198 Q1155.64 27.3274 1158.72 28.5427 Z" fill="#000000" fill-rule="nonzero" fill-opacity="1" /><path clip-path="url(#clip280)" d="M1173.02 27.2059 L1180.47 27.2059 L1180.47 72.576 L1173.02 72.576 L1173.02 27.2059 M1173.02 9.54393 L1180.47 9.54393 L1180.47 18.9825 L1173.02 18.9825 L1173.02 9.54393 Z" fill="#000000" fill-rule="nonzero" fill-opacity="1" /><path clip-path="url(#clip280)" d="M1225.92 49.3643 Q1225.92 41.2625 1222.56 36.8065 Q1219.24 32.3505 1213.2 32.3505 Q1207.21 32.3505 1203.85 36.8065 Q1200.52 41.2625 1200.52 49.3643 Q1200.52 57.4256 1203.85 61.8816 Q1207.21 66.3376 1213.2 66.3376 Q1219.24 66.3376 1222.56 61.8816 Q1225.92 57.4256 1225.92 49.3643 M1233.38 66.9452 Q1233.38 78.5308 1228.23 84.1616 Q1223.09 89.8329 1212.47 89.8329 Q1208.55 89.8329 1205.06 89.2252 Q1201.58 88.6581 1198.3 87.4428 L1198.3 80.1917 Q1201.58 81.9741 1204.78 82.8248 Q1207.98 83.6755 1211.3 83.6755 Q1218.63 83.6755 1222.28 79.8271 Q1225.92 76.0193 1225.92 68.282 L1225.92 64.5957 Q1223.61 68.6061 1220.01 70.5911 Q1216.4 72.576 1211.38 72.576 Q1203.04 72.576 1197.93 66.2161 Q1192.83 59.8562 1192.83 49.3643 Q1192.83 38.832 1197.93 32.472 Q1203.04 26.1121 1211.38 26.1121 Q1216.4 26.1121 1220.01 28.0971 Q1223.61 30.082 1225.92 34.0924 L1225.92 27.2059 L1233.38 27.2059 L1233.38 66.9452 Z" fill="#000000" fill-rule="nonzero" fill-opacity="1" /><path clip-path="url(#clip280)" d="M1284.05 35.9153 Q1286.85 30.8922 1290.74 28.5022 Q1294.63 26.1121 1299.89 26.1121 Q1306.98 26.1121 1310.83 31.0947 Q1314.68 36.0368 1314.68 45.1919 L1314.68 72.576 L1307.18 72.576 L1307.18 45.4349 Q1307.18 38.913 1304.88 35.7533 Q1302.57 32.5936 1297.83 32.5936 Q1292.03 32.5936 1288.67 36.4419 Q1285.31 40.2903 1285.31 46.9338 L1285.31 72.576 L1277.82 72.576 L1277.82 45.4349 Q1277.82 38.8725 1275.51 35.7533 Q1273.2 32.5936 1268.38 32.5936 Q1262.67 32.5936 1259.3 36.4824 Q1255.94 40.3308 1255.94 46.9338 L1255.94 72.576 L1248.45 72.576 L1248.45 27.2059 L1255.94 27.2059 L1255.94 34.2544 Q1258.49 30.082 1262.06 28.0971 Q1265.62 26.1121 1270.52 26.1121 Q1275.47 26.1121 1278.91 28.6237 Q1282.39 31.1352 1284.05 35.9153 Z" fill="#000000" fill-rule="nonzero" fill-opacity="1" /><path clip-path="url(#clip280)" d="M1350.16 49.7694 Q1341.13 49.7694 1337.65 51.8354 Q1334.16 53.9013 1334.16 58.8839 Q1334.16 62.8538 1336.76 65.2034 Q1339.39 67.5124 1343.89 67.5124 Q1350.08 67.5124 1353.81 63.1374 Q1357.58 58.7219 1357.58 51.4303 L1357.58 49.7694 L1350.16 49.7694 M1365.03 46.6907 L1365.03 72.576 L1357.58 72.576 L1357.58 65.6895 Q1355.03 69.8214 1351.22 71.8063 Q1347.41 73.7508 1341.9 73.7508 Q1334.93 73.7508 1330.8 69.8619 Q1326.71 65.9325 1326.71 59.3701 Q1326.71 51.7138 1331.81 47.825 Q1336.96 43.9361 1347.13 43.9361 L1357.58 43.9361 L1357.58 43.2069 Q1357.58 38.0623 1354.18 35.2672 Q1350.81 32.4315 1344.7 32.4315 Q1340.81 32.4315 1337.12 33.3632 Q1333.43 34.295 1330.03 36.1584 L1330.03 29.2718 Q1334.12 27.692 1337.97 26.9223 Q1341.82 26.1121 1345.47 26.1121 Q1355.31 26.1121 1360.17 31.2163 Q1365.03 36.3204 1365.03 46.6907 Z" fill="#000000" fill-rule="nonzero" fill-opacity="1" /><path clip-path="url(#clip280)" d="M1398.29 9.62495 Q1392.86 18.942 1390.23 28.0566 Q1387.6 37.1711 1387.6 46.5287 Q1387.6 55.8863 1390.23 65.0818 Q1392.9 74.2369 1398.29 83.5134 L1391.81 83.5134 Q1385.73 73.9938 1382.69 64.7983 Q1379.7 55.6027 1379.7 46.5287 Q1379.7 37.4952 1382.69 28.3401 Q1385.69 19.1851 1391.81 9.62495 L1398.29 9.62495 Z" fill="#000000" fill-rule="nonzero" fill-opacity="1" /><path clip-path="url(#clip280)" d="M1404.69 12.096 L1455.85 12.096 L1455.85 18.9825 L1434.38 18.9825 L1434.38 72.576 L1426.16 72.576 L1426.16 18.9825 L1404.69 18.9825 L1404.69 12.096 Z" fill="#000000" fill-rule="nonzero" fill-opacity="1" /><path clip-path="url(#clip280)" d="M1462.25 9.62495 L1468.73 9.62495 Q1474.81 19.1851 1477.81 28.3401 Q1480.85 37.4952 1480.85 46.5287 Q1480.85 55.6027 1477.81 64.7983 Q1474.81 73.9938 1468.73 83.5134 L1462.25 83.5134 Q1467.64 74.2369 1470.27 65.0818 Q1472.95 55.8863 1472.95 46.5287 Q1472.95 37.1711 1470.27 28.0566 Q1467.64 18.942 1462.25 9.62495 Z" fill="#000000" fill-rule="nonzero" fill-opacity="1" /><path clip-path="url(#clip280)" d="M1497.7 62.2867 L1506.25 62.2867 L1506.25 69.2543 L1499.6 82.2172 L1494.38 82.2172 L1497.7 69.2543 L1497.7 62.2867 Z" fill="#000000" fill-rule="nonzero" fill-opacity="1" /><path clip-path="url(#clip280)" d="M1583.86 35.9153 Q1586.66 30.8922 1590.55 28.5022 Q1594.43 26.1121 1599.7 26.1121 Q1606.79 26.1121 1610.64 31.0947 Q1614.49 36.0368 1614.49 45.1919 L1614.49 72.576 L1606.99 72.576 L1606.99 45.4349 Q1606.99 38.913 1604.68 35.7533 Q1602.37 32.5936 1597.63 32.5936 Q1591.84 32.5936 1588.48 36.4419 Q1585.12 40.2903 1585.12 46.9338 L1585.12 72.576 L1577.62 72.576 L1577.62 45.4349 Q1577.62 38.8725 1575.31 35.7533 Q1573.01 32.5936 1568.18 32.5936 Q1562.47 32.5936 1559.11 36.4824 Q1555.75 40.3308 1555.75 46.9338 L1555.75 72.576 L1548.25 72.576 L1548.25 27.2059 L1555.75 27.2059 L1555.75 34.2544 Q1558.3 30.082 1561.87 28.0971 Q1565.43 26.1121 1570.33 26.1121 Q1575.27 26.1121 1578.72 28.6237 Q1582.2 31.1352 1583.86 35.9153 Z" fill="#000000" fill-rule="nonzero" fill-opacity="1" /><path clip-path="url(#clip280)" d="M1633.81 49.9314 Q1633.81 58.1548 1637.17 62.8538 Q1640.57 67.5124 1646.49 67.5124 Q1652.4 67.5124 1655.81 62.8538 Q1659.21 58.1548 1659.21 49.9314 Q1659.21 41.7081 1655.81 37.0496 Q1652.4 32.3505 1646.49 32.3505 Q1640.57 32.3505 1637.17 37.0496 Q1633.81 41.7081 1633.81 49.9314 M1659.21 65.7705 Q1656.86 69.8214 1653.25 71.8063 Q1649.69 73.7508 1644.67 73.7508 Q1636.44 73.7508 1631.26 67.1883 Q1626.11 60.6258 1626.11 49.9314 Q1626.11 39.2371 1631.26 32.6746 Q1636.44 26.1121 1644.67 26.1121 Q1649.69 26.1121 1653.25 28.0971 Q1656.86 30.0415 1659.21 34.0924 L1659.21 27.2059 L1666.66 27.2059 L1666.66 89.8329 L1659.21 89.8329 L1659.21 65.7705 Z" fill="#000000" fill-rule="nonzero" fill-opacity="1" /><path clip-path="url(#clip280)" d="M1709.36 34.9026 L1761.29 34.9026 L1761.29 41.7081 L1709.36 41.7081 L1709.36 34.9026 M1709.36 51.4303 L1761.29 51.4303 L1761.29 58.3168 L1709.36 58.3168 L1709.36 51.4303 Z" fill="#000000" fill-rule="nonzero" fill-opacity="1" /><path clip-path="url(#clip280)" d="M1822.82 17.4837 Q1816.51 17.4837 1813.3 23.7221 Q1810.15 29.92 1810.15 42.3968 Q1810.15 54.833 1813.3 61.0714 Q1816.51 67.2693 1822.82 67.2693 Q1829.18 67.2693 1832.34 61.0714 Q1835.54 54.833 1835.54 42.3968 Q1835.54 29.92 1832.34 23.7221 Q1829.18 17.4837 1822.82 17.4837 M1822.82 11.0023 Q1832.99 11.0023 1838.34 19.0636 Q1843.73 27.0843 1843.73 42.3968 Q1843.73 57.6687 1838.34 65.73 Q1832.99 73.7508 1822.82 73.7508 Q1812.66 73.7508 1807.27 65.73 Q1801.92 57.6687 1801.92 42.3968 Q1801.92 27.0843 1807.27 19.0636 Q1812.66 11.0023 1822.82 11.0023 Z" fill="#000000" fill-rule="nonzero" fill-opacity="1" /><polyline clip-path="url(#clip282)" style="stroke:#009af9; stroke-linecap:round; stroke-linejoin:round; stroke-width:10; stroke-opacity:1; fill:none" points="309.067,160.256 344.498,160.362 379.93,160.555 415.361,160.873 450.793,161.364 486.224,162.086 521.656,163.106 557.087,164.516 592.519,166.463 627.95,169.23 663.382,173.285 698.813,179.202 734.245,187.536 769.676,198.78 805.108,213.397 840.539,231.859 875.971,254.692 911.402,282.515 946.834,316.083 982.265,356.361 1017.7,404.623 1053.13,462.632 1088.56,532.972 1123.99,619.754 1159.42,730.385 1194.85,881.578 1230.29,1141.91 1265.72,1386.4 1301.15,1386.4 1336.58,1386.4 1372.01,1386.4 1407.44,1386.4 1442.87,1386.4 1478.31,1386.4 1513.74,1386.4 1549.17,1386.4 1584.6,1386.4 1620.03,1386.4 1655.46,1386.4 1690.9,1386.4 1726.33,1386.4 1761.76,1386.4 1797.19,1386.4 1832.62,1386.4 1868.05,1386.4 1903.48,1386.4 1938.92,1386.4 1974.35,1386.4 2009.78,1386.4 2045.21,1386.4 2080.64,1386.4 2116.07,1386.4 2151.5,1386.4 2186.94,1386.4 2222.37,1386.4 2257.8,1386.4 2293.23,1386.4 "/>
<path clip-path="url(#clip280)" d="M1726.5 270.476 L2282.65 270.476 L2282.65 166.796 L1726.5 166.796  Z" fill="#ffffff" fill-rule="evenodd" fill-opacity="1"/>
<polyline clip-path="url(#clip280)" style="stroke:#000000; stroke-linecap:round; stroke-linejoin:round; stroke-width:4; stroke-opacity:1; fill:none" points="1726.5,270.476 2282.65,270.476 2282.65,166.796 1726.5,166.796 1726.5,270.476 "/>
<polyline clip-path="url(#clip280)" style="stroke:#009af9; stroke-linecap:round; stroke-linejoin:round; stroke-width:10; stroke-opacity:1; fill:none" points="1749.86,218.636 1890.08,218.636 "/>
<path clip-path="url(#clip280)" d="M1931.87 210.754 L1931.87 214.782 Q1930.07 213.856 1928.12 213.393 Q1926.18 212.93 1924.1 212.93 Q1920.93 212.93 1919.33 213.902 Q1917.75 214.874 1917.75 216.819 Q1917.75 218.3 1918.89 219.157 Q1920.02 219.99 1923.45 220.754 L1924.91 221.078 Q1929.44 222.05 1931.34 223.832 Q1933.26 225.592 1933.26 228.763 Q1933.26 232.374 1930.39 234.481 Q1927.55 236.587 1922.55 236.587 Q1920.46 236.587 1918.19 236.17 Q1915.95 235.777 1913.45 234.967 L1913.45 230.569 Q1915.81 231.795 1918.1 232.42 Q1920.39 233.022 1922.64 233.022 Q1925.65 233.022 1927.27 232.004 Q1928.89 230.962 1928.89 229.087 Q1928.89 227.351 1927.71 226.425 Q1926.55 225.499 1922.59 224.643 L1921.11 224.295 Q1917.15 223.462 1915.39 221.749 Q1913.63 220.013 1913.63 217.004 Q1913.63 213.346 1916.23 211.356 Q1918.82 209.365 1923.59 209.365 Q1925.95 209.365 1928.03 209.712 Q1930.11 210.059 1931.87 210.754 Z" fill="#000000" fill-rule="nonzero" fill-opacity="1" /><path clip-path="url(#clip280)" d="M1944.17 232.027 L1944.17 245.777 L1939.88 245.777 L1939.88 209.99 L1944.17 209.99 L1944.17 213.925 Q1945.51 211.61 1947.55 210.499 Q1949.61 209.365 1952.45 209.365 Q1957.17 209.365 1960.11 213.115 Q1963.08 216.865 1963.08 222.976 Q1963.08 229.087 1960.11 232.837 Q1957.17 236.587 1952.45 236.587 Q1949.61 236.587 1947.55 235.476 Q1945.51 234.342 1944.17 232.027 M1958.66 222.976 Q1958.66 218.277 1956.71 215.615 Q1954.79 212.93 1951.41 212.93 Q1948.03 212.93 1946.09 215.615 Q1944.17 218.277 1944.17 222.976 Q1944.17 227.675 1946.09 230.36 Q1948.03 233.022 1951.41 233.022 Q1954.79 233.022 1956.71 230.36 Q1958.66 227.675 1958.66 222.976 Z" fill="#000000" fill-rule="nonzero" fill-opacity="1" /><path clip-path="url(#clip280)" d="M1992.31 221.888 L1992.31 223.971 L1972.73 223.971 Q1973.01 228.369 1975.37 230.684 Q1977.75 232.976 1981.99 232.976 Q1984.44 232.976 1986.73 232.374 Q1989.05 231.772 1991.32 230.569 L1991.32 234.596 Q1989.03 235.568 1986.62 236.078 Q1984.21 236.587 1981.73 236.587 Q1975.53 236.587 1971.9 232.976 Q1968.29 229.365 1968.29 223.207 Q1968.29 216.842 1971.71 213.115 Q1975.16 209.365 1980.99 209.365 Q1986.23 209.365 1989.26 212.745 Q1992.31 216.101 1992.31 221.888 M1988.05 220.638 Q1988.01 217.143 1986.09 215.059 Q1984.19 212.976 1981.04 212.976 Q1977.48 212.976 1975.32 214.99 Q1973.19 217.004 1972.87 220.661 L1988.05 220.638 Z" fill="#000000" fill-rule="nonzero" fill-opacity="1" /><path clip-path="url(#clip280)" d="M2017.96 210.985 L2017.96 214.967 Q2016.16 213.971 2014.33 213.485 Q2012.52 212.976 2010.67 212.976 Q2006.53 212.976 2004.23 215.615 Q2001.94 218.231 2001.94 222.976 Q2001.94 227.721 2004.23 230.36 Q2006.53 232.976 2010.67 232.976 Q2012.52 232.976 2014.33 232.49 Q2016.16 231.981 2017.96 230.985 L2017.96 234.92 Q2016.18 235.754 2014.26 236.17 Q2012.36 236.587 2010.21 236.587 Q2004.35 236.587 2000.9 232.906 Q1997.45 229.226 1997.45 222.976 Q1997.45 216.633 2000.92 212.999 Q2004.42 209.365 2010.48 209.365 Q2012.45 209.365 2014.33 209.782 Q2016.2 210.175 2017.96 210.985 Z" fill="#000000" fill-rule="nonzero" fill-opacity="1" /><path clip-path="url(#clip280)" d="M2029.58 202.629 L2029.58 209.99 L2038.35 209.99 L2038.35 213.3 L2029.58 213.3 L2029.58 227.374 Q2029.58 230.545 2030.44 231.448 Q2031.32 232.351 2033.98 232.351 L2038.35 232.351 L2038.35 235.916 L2033.98 235.916 Q2029.05 235.916 2027.17 234.087 Q2025.3 232.235 2025.3 227.374 L2025.3 213.3 L2022.17 213.3 L2022.17 209.99 L2025.3 209.99 L2025.3 202.629 L2029.58 202.629 Z" fill="#000000" fill-rule="nonzero" fill-opacity="1" /><path clip-path="url(#clip280)" d="M2058.98 213.971 Q2058.26 213.555 2057.41 213.37 Q2056.57 213.161 2055.55 213.161 Q2051.94 213.161 2050 215.522 Q2048.08 217.86 2048.08 222.258 L2048.08 235.916 L2043.79 235.916 L2043.79 209.99 L2048.08 209.99 L2048.08 214.018 Q2049.42 211.657 2051.57 210.522 Q2053.73 209.365 2056.8 209.365 Q2057.24 209.365 2057.78 209.434 Q2058.31 209.481 2058.96 209.596 L2058.98 213.971 Z" fill="#000000" fill-rule="nonzero" fill-opacity="1" /><path clip-path="url(#clip280)" d="M2075.23 222.883 Q2070.07 222.883 2068.08 224.064 Q2066.09 225.244 2066.09 228.092 Q2066.09 230.36 2067.57 231.703 Q2069.07 233.022 2071.64 233.022 Q2075.18 233.022 2077.31 230.522 Q2079.47 227.999 2079.47 223.832 L2079.47 222.883 L2075.23 222.883 M2083.73 221.124 L2083.73 235.916 L2079.47 235.916 L2079.47 231.981 Q2078.01 234.342 2075.83 235.476 Q2073.66 236.587 2070.51 236.587 Q2066.53 236.587 2064.17 234.365 Q2061.83 232.119 2061.83 228.369 Q2061.83 223.994 2064.74 221.772 Q2067.68 219.55 2073.49 219.55 L2079.47 219.55 L2079.47 219.133 Q2079.47 216.194 2077.52 214.596 Q2075.6 212.976 2072.1 212.976 Q2069.88 212.976 2067.78 213.508 Q2065.67 214.041 2063.73 215.106 L2063.73 211.17 Q2066.06 210.268 2068.26 209.828 Q2070.46 209.365 2072.54 209.365 Q2078.17 209.365 2080.95 212.282 Q2083.73 215.198 2083.73 221.124 Z" fill="#000000" fill-rule="nonzero" fill-opacity="1" /><path clip-path="url(#clip280)" d="M2092.5 199.897 L2096.76 199.897 L2096.76 235.916 L2092.5 235.916 L2092.5 199.897 Z" fill="#000000" fill-rule="nonzero" fill-opacity="1" /><path clip-path="url(#clip280)" d="M2140.92 214.967 Q2142.52 212.096 2144.74 210.731 Q2146.97 209.365 2149.97 209.365 Q2154.03 209.365 2156.22 212.212 Q2158.42 215.036 2158.42 220.268 L2158.42 235.916 L2154.14 235.916 L2154.14 220.407 Q2154.14 216.68 2152.82 214.874 Q2151.5 213.069 2148.79 213.069 Q2145.48 213.069 2143.56 215.268 Q2141.64 217.467 2141.64 221.263 L2141.64 235.916 L2137.36 235.916 L2137.36 220.407 Q2137.36 216.657 2136.04 214.874 Q2134.72 213.069 2131.97 213.069 Q2128.7 213.069 2126.78 215.291 Q2124.86 217.49 2124.86 221.263 L2124.86 235.916 L2120.58 235.916 L2120.58 209.99 L2124.86 209.99 L2124.86 214.018 Q2126.32 211.633 2128.35 210.499 Q2130.39 209.365 2133.19 209.365 Q2136.02 209.365 2137.98 210.8 Q2139.97 212.235 2140.92 214.967 Z" fill="#000000" fill-rule="nonzero" fill-opacity="1" /><path clip-path="url(#clip280)" d="M2169.47 222.976 Q2169.47 227.675 2171.39 230.36 Q2173.33 233.022 2176.71 233.022 Q2180.09 233.022 2182.03 230.36 Q2183.98 227.675 2183.98 222.976 Q2183.98 218.277 2182.03 215.615 Q2180.09 212.93 2176.71 212.93 Q2173.33 212.93 2171.39 215.615 Q2169.47 218.277 2169.47 222.976 M2183.98 232.027 Q2182.64 234.342 2180.58 235.476 Q2178.54 236.587 2175.67 236.587 Q2170.97 236.587 2168.01 232.837 Q2165.07 229.087 2165.07 222.976 Q2165.07 216.865 2168.01 213.115 Q2170.97 209.365 2175.67 209.365 Q2178.54 209.365 2180.58 210.499 Q2182.64 211.61 2183.98 213.925 L2183.98 209.99 L2188.24 209.99 L2188.24 245.777 L2183.98 245.777 L2183.98 232.027 Z" fill="#000000" fill-rule="nonzero" fill-opacity="1" /><path clip-path="url(#clip280)" d="M2197.57 214.388 L2227.24 214.388 L2227.24 218.277 L2197.57 218.277 L2197.57 214.388 M2197.57 223.832 L2227.24 223.832 L2227.24 227.768 L2197.57 227.768 L2197.57 223.832 Z" fill="#000000" fill-rule="nonzero" fill-opacity="1" /><path clip-path="url(#clip280)" d="M2247.34 204.434 Q2243.72 204.434 2241.9 207.999 Q2240.09 211.541 2240.09 218.67 Q2240.09 225.777 2241.9 229.342 Q2243.72 232.883 2247.34 232.883 Q2250.97 232.883 2252.78 229.342 Q2254.6 225.777 2254.6 218.67 Q2254.6 211.541 2252.78 207.999 Q2250.97 204.434 2247.34 204.434 M2247.34 200.731 Q2253.15 200.731 2256.2 205.337 Q2259.28 209.92 2259.28 218.67 Q2259.28 227.397 2256.2 232.004 Q2253.15 236.587 2247.34 236.587 Q2241.53 236.587 2238.45 232.004 Q2235.39 227.397 2235.39 218.67 Q2235.39 209.92 2238.45 205.337 Q2241.53 200.731 2247.34 200.731 Z" fill="#000000" fill-rule="nonzero" fill-opacity="1" /></svg>
