<?xml version="1.0" encoding="utf-8"?>
<svg xmlns="http://www.w3.org/2000/svg" xmlns:xlink="http://www.w3.org/1999/xlink" width="600" height="400" viewBox="0 0 2400 1600">
<defs>
  <clipPath id="clip340">
    <rect x="0" y="0" width="2400" height="1600"/>
  </clipPath>
</defs>
<path clip-path="url(#clip340)" d="M0 1600 L2400 1600 L2400 0 L0 0  Z" fill="#ffffff" fill-rule="evenodd" fill-opacity="1"/>
<defs>
  <clipPath id="clip341">
    <rect x="480" y="0" width="1681" height="1600"/>
  </clipPath>
</defs>
<path clip-path="url(#clip340)" d="M279.704 1423.18 L2352.76 1423.18 L2352.76 123.472 L279.704 123.472  Z" fill="#ffffff" fill-rule="evenodd" fill-opacity="1"/>
<defs>
  <clipPath id="clip342">
    <rect x="279" y="123" width="2074" height="1301"/>
  </clipPath>
</defs>
<polyline clip-path="url(#clip342)" style="stroke:#000000; stroke-linecap:round; stroke-linejoin:round; stroke-width:2; stroke-opacity:0.1; fill:none" points="547.915,1423.18 547.915,123.472 "/>
<polyline clip-path="url(#clip342)" style="stroke:#000000; stroke-linecap:round; stroke-linejoin:round; stroke-width:2; stroke-opacity:0.1; fill:none" points="897.149,1423.18 897.149,123.472 "/>
<polyline clip-path="url(#clip342)" style="stroke:#000000; stroke-linecap:round; stroke-linejoin:round; stroke-width:2; stroke-opacity:0.1; fill:none" points="1246.38,1423.18 1246.38,123.472 "/>
<polyline clip-path="url(#clip342)" style="stroke:#000000; stroke-linecap:round; stroke-linejoin:round; stroke-width:2; stroke-opacity:0.1; fill:none" points="1595.62,1423.18 1595.62,123.472 "/>
<polyline clip-path="url(#clip342)" style="stroke:#000000; stroke-linecap:round; stroke-linejoin:round; stroke-width:2; stroke-opacity:0.1; fill:none" points="1944.85,1423.18 1944.85,123.472 "/>
<polyline clip-path="url(#clip342)" style="stroke:#000000; stroke-linecap:round; stroke-linejoin:round; stroke-width:2; stroke-opacity:0.1; fill:none" points="2294.08,1423.18 2294.08,123.472 "/>
<polyline clip-path="url(#clip342)" style="stroke:#000000; stroke-linecap:round; stroke-linejoin:round; stroke-width:2; stroke-opacity:0.1; fill:none" points="279.704,1405.84 2352.76,1405.84 "/>
<polyline clip-path="url(#clip342)" style="stroke:#000000; stroke-linecap:round; stroke-linejoin:round; stroke-width:2; stroke-opacity:0.1; fill:none" points="279.704,1117.87 2352.76,1117.87 "/>
<polyline clip-path="url(#clip342)" style="stroke:#000000; stroke-linecap:round; stroke-linejoin:round; stroke-width:2; stroke-opacity:0.1; fill:none" points="279.704,829.903 2352.76,829.903 "/>
<polyline clip-path="url(#clip342)" style="stroke:#000000; stroke-linecap:round; stroke-linejoin:round; stroke-width:2; stroke-opacity:0.1; fill:none" points="279.704,541.935 2352.76,541.935 "/>
<polyline clip-path="url(#clip342)" style="stroke:#000000; stroke-linecap:round; stroke-linejoin:round; stroke-width:2; stroke-opacity:0.1; fill:none" points="279.704,253.968 2352.76,253.968 "/>
<polyline clip-path="url(#clip340)" style="stroke:#000000; stroke-linecap:round; stroke-linejoin:round; stroke-width:4; stroke-opacity:1; fill:none" points="279.704,1423.18 2352.76,1423.18 "/>
<polyline clip-path="url(#clip340)" style="stroke:#000000; stroke-linecap:round; stroke-linejoin:round; stroke-width:4; stroke-opacity:1; fill:none" points="547.915,1423.18 547.915,1404.28 "/>
<polyline clip-path="url(#clip340)" style="stroke:#000000; stroke-linecap:round; stroke-linejoin:round; stroke-width:4; stroke-opacity:1; fill:none" points="897.149,1423.18 897.149,1404.28 "/>
<polyline clip-path="url(#clip340)" style="stroke:#000000; stroke-linecap:round; stroke-linejoin:round; stroke-width:4; stroke-opacity:1; fill:none" points="1246.38,1423.18 1246.38,1404.28 "/>
<polyline clip-path="url(#clip340)" style="stroke:#000000; stroke-linecap:round; stroke-linejoin:round; stroke-width:4; stroke-opacity:1; fill:none" points="1595.62,1423.18 1595.62,1404.28 "/>
<polyline clip-path="url(#clip340)" style="stroke:#000000; stroke-linecap:round; stroke-linejoin:round; stroke-width:4; stroke-opacity:1; fill:none" points="1944.85,1423.18 1944.85,1404.28 "/>
<polyline clip-path="url(#clip340)" style="stroke:#000000; stroke-linecap:round; stroke-linejoin:round; stroke-width:4; stroke-opacity:1; fill:none" points="2294.08,1423.18 2294.08,1404.28 "/>
<path clip-path="url(#clip340)" d="M522.615 1451.02 L540.971 1451.02 L540.971 1454.96 L526.897 1454.96 L526.897 1463.43 Q527.916 1463.08 528.934 1462.92 Q529.953 1462.73 530.971 1462.73 Q536.758 1462.73 540.138 1465.9 Q543.517 1469.08 543.517 1474.49 Q543.517 1480.07 540.045 1483.17 Q536.573 1486.25 530.254 1486.25 Q528.078 1486.25 525.809 1485.88 Q523.564 1485.51 521.156 1484.77 L521.156 1480.07 Q523.24 1481.2 525.462 1481.76 Q527.684 1482.32 530.161 1482.32 Q534.166 1482.32 536.504 1480.21 Q538.841 1478.1 538.841 1474.49 Q538.841 1470.88 536.504 1468.77 Q534.166 1466.67 530.161 1466.67 Q528.286 1466.67 526.411 1467.08 Q524.559 1467.5 522.615 1468.38 L522.615 1451.02 Z" fill="#000000" fill-rule="nonzero" fill-opacity="1" /><path clip-path="url(#clip340)" d="M562.73 1454.1 Q559.119 1454.1 557.29 1457.66 Q555.485 1461.2 555.485 1468.33 Q555.485 1475.44 557.29 1479.01 Q559.119 1482.55 562.73 1482.55 Q566.364 1482.55 568.17 1479.01 Q569.999 1475.44 569.999 1468.33 Q569.999 1461.2 568.17 1457.66 Q566.364 1454.1 562.73 1454.1 M562.73 1450.39 Q568.54 1450.39 571.596 1455 Q574.675 1459.58 574.675 1468.33 Q574.675 1477.06 571.596 1481.67 Q568.54 1486.25 562.73 1486.25 Q556.92 1486.25 553.841 1481.67 Q550.786 1477.06 550.786 1468.33 Q550.786 1459.58 553.841 1455 Q556.92 1450.39 562.73 1450.39 Z" fill="#000000" fill-rule="nonzero" fill-opacity="1" /><path clip-path="url(#clip340)" d="M856.756 1481.64 L864.395 1481.64 L864.395 1455.28 L856.085 1456.95 L856.085 1452.69 L864.349 1451.02 L869.024 1451.02 L869.024 1481.64 L876.663 1481.64 L876.663 1485.58 L856.756 1485.58 L856.756 1481.64 Z" fill="#000000" fill-rule="nonzero" fill-opacity="1" /><path clip-path="url(#clip340)" d="M896.108 1454.1 Q892.497 1454.1 890.668 1457.66 Q888.862 1461.2 888.862 1468.33 Q888.862 1475.44 890.668 1479.01 Q892.497 1482.55 896.108 1482.55 Q899.742 1482.55 901.547 1479.01 Q903.376 1475.44 903.376 1468.33 Q903.376 1461.2 901.547 1457.66 Q899.742 1454.1 896.108 1454.1 M896.108 1450.39 Q901.918 1450.39 904.973 1455 Q908.052 1459.58 908.052 1468.33 Q908.052 1477.06 904.973 1481.67 Q901.918 1486.25 896.108 1486.25 Q890.297 1486.25 887.219 1481.67 Q884.163 1477.06 884.163 1468.33 Q884.163 1459.58 887.219 1455 Q890.297 1450.39 896.108 1450.39 Z" fill="#000000" fill-rule="nonzero" fill-opacity="1" /><path clip-path="url(#clip340)" d="M926.27 1454.1 Q922.658 1454.1 920.83 1457.66 Q919.024 1461.2 919.024 1468.33 Q919.024 1475.44 920.83 1479.01 Q922.658 1482.55 926.27 1482.55 Q929.904 1482.55 931.709 1479.01 Q933.538 1475.44 933.538 1468.33 Q933.538 1461.2 931.709 1457.66 Q929.904 1454.1 926.27 1454.1 M926.27 1450.39 Q932.08 1450.39 935.135 1455 Q938.214 1459.58 938.214 1468.33 Q938.214 1477.06 935.135 1481.67 Q932.08 1486.25 926.27 1486.25 Q920.459 1486.25 917.381 1481.67 Q914.325 1477.06 914.325 1468.33 Q914.325 1459.58 917.381 1455 Q920.459 1450.39 926.27 1450.39 Z" fill="#000000" fill-rule="nonzero" fill-opacity="1" /><path clip-path="url(#clip340)" d="M1205.99 1481.64 L1213.63 1481.64 L1213.63 1455.28 L1205.32 1456.95 L1205.32 1452.69 L1213.58 1451.02 L1218.26 1451.02 L1218.26 1481.64 L1225.9 1481.64 L1225.9 1485.58 L1205.99 1485.58 L1205.99 1481.64 Z" fill="#000000" fill-rule="nonzero" fill-opacity="1" /><path clip-path="url(#clip340)" d="M1235.39 1451.02 L1253.74 1451.02 L1253.74 1454.96 L1239.67 1454.96 L1239.67 1463.43 Q1240.69 1463.08 1241.71 1462.92 Q1242.73 1462.73 1243.74 1462.73 Q1249.53 1462.73 1252.91 1465.9 Q1256.29 1469.08 1256.29 1474.49 Q1256.29 1480.07 1252.82 1483.17 Q1249.35 1486.25 1243.03 1486.25 Q1240.85 1486.25 1238.58 1485.88 Q1236.34 1485.51 1233.93 1484.77 L1233.93 1480.07 Q1236.01 1481.2 1238.24 1481.76 Q1240.46 1482.32 1242.93 1482.32 Q1246.94 1482.32 1249.28 1480.21 Q1251.61 1478.1 1251.61 1474.49 Q1251.61 1470.88 1249.28 1468.77 Q1246.94 1466.67 1242.93 1466.67 Q1241.06 1466.67 1239.18 1467.08 Q1237.33 1467.5 1235.39 1468.38 L1235.39 1451.02 Z" fill="#000000" fill-rule="nonzero" fill-opacity="1" /><path clip-path="url(#clip340)" d="M1275.5 1454.1 Q1271.89 1454.1 1270.06 1457.66 Q1268.26 1461.2 1268.26 1468.33 Q1268.26 1475.44 1270.06 1479.01 Q1271.89 1482.55 1275.5 1482.55 Q1279.14 1482.55 1280.94 1479.01 Q1282.77 1475.44 1282.77 1468.33 Q1282.77 1461.2 1280.94 1457.66 Q1279.14 1454.1 1275.5 1454.1 M1275.5 1450.39 Q1281.31 1450.39 1284.37 1455 Q1287.45 1459.58 1287.45 1468.33 Q1287.45 1477.06 1284.37 1481.67 Q1281.31 1486.25 1275.5 1486.25 Q1269.69 1486.25 1266.61 1481.67 Q1263.56 1477.06 1263.56 1468.33 Q1263.56 1459.58 1266.61 1455 Q1269.69 1450.39 1275.5 1450.39 Z" fill="#000000" fill-rule="nonzero" fill-opacity="1" /><path clip-path="url(#clip340)" d="M1559.31 1481.64 L1575.63 1481.64 L1575.63 1485.58 L1553.68 1485.58 L1553.68 1481.64 Q1556.35 1478.89 1560.93 1474.26 Q1565.54 1469.61 1566.72 1468.27 Q1568.96 1465.74 1569.84 1464.01 Q1570.74 1462.25 1570.74 1460.56 Q1570.74 1457.8 1568.8 1456.07 Q1566.88 1454.33 1563.78 1454.33 Q1561.58 1454.33 1559.12 1455.09 Q1556.69 1455.86 1553.92 1457.41 L1553.92 1452.69 Q1556.74 1451.55 1559.19 1450.97 Q1561.65 1450.39 1563.68 1450.39 Q1569.05 1450.39 1572.25 1453.08 Q1575.44 1455.77 1575.44 1460.26 Q1575.44 1462.39 1574.63 1464.31 Q1573.85 1466.2 1571.74 1468.8 Q1571.16 1469.47 1568.06 1472.69 Q1564.96 1475.88 1559.31 1481.64 Z" fill="#000000" fill-rule="nonzero" fill-opacity="1" /><path clip-path="url(#clip340)" d="M1595.44 1454.1 Q1591.83 1454.1 1590 1457.66 Q1588.2 1461.2 1588.2 1468.33 Q1588.2 1475.44 1590 1479.01 Q1591.83 1482.55 1595.44 1482.55 Q1599.08 1482.55 1600.88 1479.01 Q1602.71 1475.44 1602.71 1468.33 Q1602.71 1461.2 1600.88 1457.66 Q1599.08 1454.1 1595.44 1454.1 M1595.44 1450.39 Q1601.25 1450.39 1604.31 1455 Q1607.39 1459.58 1607.39 1468.33 Q1607.39 1477.06 1604.31 1481.67 Q1601.25 1486.25 1595.44 1486.25 Q1589.63 1486.25 1586.55 1481.67 Q1583.5 1477.06 1583.5 1468.33 Q1583.5 1459.58 1586.55 1455 Q1589.63 1450.39 1595.44 1450.39 Z" fill="#000000" fill-rule="nonzero" fill-opacity="1" /><path clip-path="url(#clip340)" d="M1625.61 1454.1 Q1621.99 1454.1 1620.17 1457.66 Q1618.36 1461.2 1618.36 1468.33 Q1618.36 1475.44 1620.17 1479.01 Q1621.99 1482.55 1625.61 1482.55 Q1629.24 1482.55 1631.05 1479.01 Q1632.87 1475.44 1632.87 1468.33 Q1632.87 1461.2 1631.05 1457.66 Q1629.24 1454.1 1625.61 1454.1 M1625.61 1450.39 Q1631.42 1450.39 1634.47 1455 Q1637.55 1459.58 1637.55 1468.33 Q1637.55 1477.06 1634.47 1481.67 Q1631.42 1486.25 1625.61 1486.25 Q1619.8 1486.25 1616.72 1481.67 Q1613.66 1477.06 1613.66 1468.33 Q1613.66 1459.58 1616.72 1455 Q1619.8 1450.39 1625.61 1450.39 Z" fill="#000000" fill-rule="nonzero" fill-opacity="1" /><path clip-path="url(#clip340)" d="M1908.54 1481.64 L1924.86 1481.64 L1924.86 1485.58 L1902.92 1485.58 L1902.92 1481.64 Q1905.58 1478.89 1910.16 1474.26 Q1914.77 1469.61 1915.95 1468.27 Q1918.2 1465.74 1919.08 1464.01 Q1919.98 1462.25 1919.98 1460.56 Q1919.98 1457.8 1918.03 1456.07 Q1916.11 1454.33 1913.01 1454.33 Q1910.81 1454.33 1908.36 1455.09 Q1905.93 1455.86 1903.15 1457.41 L1903.15 1452.69 Q1905.97 1451.55 1908.43 1450.97 Q1910.88 1450.39 1912.92 1450.39 Q1918.29 1450.39 1921.48 1453.08 Q1924.68 1455.77 1924.68 1460.26 Q1924.68 1462.39 1923.87 1464.31 Q1923.08 1466.2 1920.97 1468.8 Q1920.39 1469.47 1917.29 1472.69 Q1914.19 1475.88 1908.54 1481.64 Z" fill="#000000" fill-rule="nonzero" fill-opacity="1" /><path clip-path="url(#clip340)" d="M1934.72 1451.02 L1953.08 1451.02 L1953.08 1454.96 L1939.01 1454.96 L1939.01 1463.43 Q1940.02 1463.08 1941.04 1462.92 Q1942.06 1462.73 1943.08 1462.73 Q1948.87 1462.73 1952.25 1465.9 Q1955.63 1469.08 1955.63 1474.49 Q1955.63 1480.07 1952.15 1483.17 Q1948.68 1486.25 1942.36 1486.25 Q1940.19 1486.25 1937.92 1485.88 Q1935.67 1485.51 1933.27 1484.77 L1933.27 1480.07 Q1935.35 1481.2 1937.57 1481.76 Q1939.79 1482.32 1942.27 1482.32 Q1946.27 1482.32 1948.61 1480.21 Q1950.95 1478.1 1950.95 1474.49 Q1950.95 1470.88 1948.61 1468.77 Q1946.27 1466.67 1942.27 1466.67 Q1940.39 1466.67 1938.52 1467.08 Q1936.67 1467.5 1934.72 1468.38 L1934.72 1451.02 Z" fill="#000000" fill-rule="nonzero" fill-opacity="1" /><path clip-path="url(#clip340)" d="M1974.84 1454.1 Q1971.23 1454.1 1969.4 1457.66 Q1967.59 1461.2 1967.59 1468.33 Q1967.59 1475.44 1969.4 1479.01 Q1971.23 1482.55 1974.84 1482.55 Q1978.47 1482.55 1980.28 1479.01 Q1982.11 1475.44 1982.11 1468.33 Q1982.11 1461.2 1980.28 1457.66 Q1978.47 1454.1 1974.84 1454.1 M1974.84 1450.39 Q1980.65 1450.39 1983.7 1455 Q1986.78 1459.58 1986.78 1468.33 Q1986.78 1477.06 1983.7 1481.67 Q1980.65 1486.25 1974.84 1486.25 Q1969.03 1486.25 1965.95 1481.67 Q1962.89 1477.06 1962.89 1468.33 Q1962.89 1459.58 1965.95 1455 Q1969.03 1450.39 1974.84 1450.39 Z" fill="#000000" fill-rule="nonzero" fill-opacity="1" /><path clip-path="url(#clip340)" d="M2267.85 1466.95 Q2271.2 1467.66 2273.08 1469.93 Q2274.98 1472.2 2274.98 1475.53 Q2274.98 1480.65 2271.46 1483.45 Q2267.94 1486.25 2261.46 1486.25 Q2259.28 1486.25 2256.97 1485.81 Q2254.68 1485.39 2252.22 1484.54 L2252.22 1480.02 Q2254.17 1481.16 2256.48 1481.74 Q2258.8 1482.32 2261.32 1482.32 Q2265.72 1482.32 2268.01 1480.58 Q2270.32 1478.84 2270.32 1475.53 Q2270.32 1472.48 2268.17 1470.77 Q2266.04 1469.03 2262.22 1469.03 L2258.19 1469.03 L2258.19 1465.19 L2262.41 1465.19 Q2265.86 1465.19 2267.68 1463.82 Q2269.51 1462.43 2269.51 1459.84 Q2269.51 1457.18 2267.61 1455.77 Q2265.74 1454.33 2262.22 1454.33 Q2260.3 1454.33 2258.1 1454.75 Q2255.9 1455.16 2253.26 1456.04 L2253.26 1451.88 Q2255.93 1451.14 2258.24 1450.77 Q2260.58 1450.39 2262.64 1450.39 Q2267.96 1450.39 2271.06 1452.83 Q2274.17 1455.23 2274.17 1459.35 Q2274.17 1462.22 2272.52 1464.21 Q2270.88 1466.18 2267.85 1466.95 Z" fill="#000000" fill-rule="nonzero" fill-opacity="1" /><path clip-path="url(#clip340)" d="M2293.84 1454.1 Q2290.23 1454.1 2288.4 1457.66 Q2286.6 1461.2 2286.6 1468.33 Q2286.6 1475.44 2288.4 1479.01 Q2290.23 1482.55 2293.84 1482.55 Q2297.48 1482.55 2299.28 1479.01 Q2301.11 1475.44 2301.11 1468.33 Q2301.11 1461.2 2299.28 1457.66 Q2297.48 1454.1 2293.84 1454.1 M2293.84 1450.39 Q2299.65 1450.39 2302.71 1455 Q2305.79 1459.58 2305.79 1468.33 Q2305.79 1477.06 2302.71 1481.67 Q2299.65 1486.25 2293.84 1486.25 Q2288.03 1486.25 2284.95 1481.67 Q2281.9 1477.06 2281.9 1468.33 Q2281.9 1459.58 2284.95 1455 Q2288.03 1450.39 2293.84 1450.39 Z" fill="#000000" fill-rule="nonzero" fill-opacity="1" /><path clip-path="url(#clip340)" d="M2324 1454.1 Q2320.39 1454.1 2318.56 1457.66 Q2316.76 1461.2 2316.76 1468.33 Q2316.76 1475.44 2318.56 1479.01 Q2320.39 1482.55 2324 1482.55 Q2327.64 1482.55 2329.44 1479.01 Q2331.27 1475.44 2331.27 1468.33 Q2331.27 1461.2 2329.44 1457.66 Q2327.64 1454.1 2324 1454.1 M2324 1450.39 Q2329.81 1450.39 2332.87 1455 Q2335.95 1459.58 2335.95 1468.33 Q2335.95 1477.06 2332.87 1481.67 Q2329.81 1486.25 2324 1486.25 Q2318.19 1486.25 2315.11 1481.67 Q2312.06 1477.06 2312.06 1468.33 Q2312.06 1459.58 2315.11 1455 Q2318.19 1450.39 2324 1450.39 Z" fill="#000000" fill-rule="nonzero" fill-opacity="1" /><path clip-path="url(#clip340)" d="M1192.77 1520.52 L1232.97 1520.52 L1232.97 1525.93 L1216.1 1525.93 L1216.1 1568.04 L1209.64 1568.04 L1209.64 1525.93 L1192.77 1525.93 L1192.77 1520.52 Z" fill="#000000" fill-rule="nonzero" fill-opacity="1" /><path clip-path="url(#clip340)" d="M1259.1 1518.52 L1272.59 1518.52 L1272.59 1523.07 L1264.95 1523.07 L1264.95 1572.09 L1272.59 1572.09 L1272.59 1576.64 L1259.1 1576.64 L1259.1 1518.52 Z" fill="#000000" fill-rule="nonzero" fill-opacity="1" /><path clip-path="url(#clip340)" d="M1285.32 1520.52 L1294.9 1520.52 L1307.03 1552.86 L1319.22 1520.52 L1328.8 1520.52 L1328.8 1568.04 L1322.53 1568.04 L1322.53 1526.32 L1310.28 1558.91 L1303.82 1558.91 L1291.56 1526.32 L1291.56 1568.04 L1285.32 1568.04 L1285.32 1520.52 Z" fill="#000000" fill-rule="nonzero" fill-opacity="1" /><path clip-path="url(#clip340)" d="M1371.8 1548.76 L1371.8 1551.62 L1344.88 1551.62 Q1345.26 1557.67 1348.5 1560.85 Q1351.78 1564 1357.61 1564 Q1360.98 1564 1364.13 1563.17 Q1367.31 1562.35 1370.43 1560.69 L1370.43 1566.23 Q1367.28 1567.57 1363.97 1568.27 Q1360.66 1568.97 1357.26 1568.97 Q1348.73 1568.97 1343.73 1564 Q1338.76 1559.04 1338.76 1550.57 Q1338.76 1541.82 1343.48 1536.69 Q1348.22 1531.54 1356.24 1531.54 Q1363.43 1531.54 1367.6 1536.18 Q1371.8 1540.8 1371.8 1548.76 M1365.95 1547.04 Q1365.88 1542.23 1363.24 1539.37 Q1360.63 1536.5 1356.3 1536.5 Q1351.4 1536.5 1348.44 1539.27 Q1345.51 1542.04 1345.07 1547.07 L1365.95 1547.04 Z" fill="#000000" fill-rule="nonzero" fill-opacity="1" /><path clip-path="url(#clip340)" d="M1393.92 1568.04 L1375.78 1520.52 L1382.5 1520.52 L1397.55 1560.53 L1412.64 1520.52 L1419.32 1520.52 L1401.21 1568.04 L1393.92 1568.04 Z" fill="#000000" fill-rule="nonzero" fill-opacity="1" /><path clip-path="url(#clip340)" d="M1439.69 1518.52 L1439.69 1576.64 L1426.2 1576.64 L1426.2 1572.09 L1433.8 1572.09 L1433.8 1523.07 L1426.2 1523.07 L1426.2 1518.52 L1439.69 1518.52 Z" fill="#000000" fill-rule="nonzero" fill-opacity="1" /><polyline clip-path="url(#clip340)" style="stroke:#000000; stroke-linecap:round; stroke-linejoin:round; stroke-width:4; stroke-opacity:1; fill:none" points="279.704,1423.18 279.704,123.472 "/>
<polyline clip-path="url(#clip340)" style="stroke:#000000; stroke-linecap:round; stroke-linejoin:round; stroke-width:4; stroke-opacity:1; fill:none" points="279.704,1405.84 298.602,1405.84 "/>
<polyline clip-path="url(#clip340)" style="stroke:#000000; stroke-linecap:round; stroke-linejoin:round; stroke-width:4; stroke-opacity:1; fill:none" points="279.704,1117.87 298.602,1117.87 "/>
<polyline clip-path="url(#clip340)" style="stroke:#000000; stroke-linecap:round; stroke-linejoin:round; stroke-width:4; stroke-opacity:1; fill:none" points="279.704,829.903 298.602,829.903 "/>
<polyline clip-path="url(#clip340)" style="stroke:#000000; stroke-linecap:round; stroke-linejoin:round; stroke-width:4; stroke-opacity:1; fill:none" points="279.704,541.935 298.602,541.935 "/>
<polyline clip-path="url(#clip340)" style="stroke:#000000; stroke-linecap:round; stroke-linejoin:round; stroke-width:4; stroke-opacity:1; fill:none" points="279.704,253.968 298.602,253.968 "/>
<path clip-path="url(#clip340)" d="M126.205 1391.64 Q122.593 1391.64 120.765 1395.2 Q118.959 1398.74 118.959 1405.87 Q118.959 1412.98 120.765 1416.54 Q122.593 1420.09 126.205 1420.09 Q129.839 1420.09 131.644 1416.54 Q133.473 1412.98 133.473 1405.87 Q133.473 1398.74 131.644 1395.2 Q129.839 1391.64 126.205 1391.64 M126.205 1387.93 Q132.015 1387.93 135.07 1392.54 Q138.149 1397.12 138.149 1405.87 Q138.149 1414.6 135.07 1419.21 Q132.015 1423.79 126.205 1423.79 Q120.394 1423.79 117.316 1419.21 Q114.26 1414.6 114.26 1405.87 Q114.26 1397.12 117.316 1392.54 Q120.394 1387.93 126.205 1387.93 Z" fill="#000000" fill-rule="nonzero" fill-opacity="1" /><path clip-path="url(#clip340)" d="M146.366 1417.24 L151.251 1417.24 L151.251 1423.12 L146.366 1423.12 L146.366 1417.24 Z" fill="#000000" fill-rule="nonzero" fill-opacity="1" /><path clip-path="url(#clip340)" d="M171.436 1391.64 Q167.825 1391.64 165.996 1395.2 Q164.19 1398.74 164.19 1405.87 Q164.19 1412.98 165.996 1416.54 Q167.825 1420.09 171.436 1420.09 Q175.07 1420.09 176.876 1416.54 Q178.704 1412.98 178.704 1405.87 Q178.704 1398.74 176.876 1395.2 Q175.07 1391.64 171.436 1391.64 M171.436 1387.93 Q177.246 1387.93 180.301 1392.54 Q183.38 1397.12 183.38 1405.87 Q183.38 1414.6 180.301 1419.21 Q177.246 1423.79 171.436 1423.79 Q165.626 1423.79 162.547 1419.21 Q159.491 1414.6 159.491 1405.87 Q159.491 1397.12 162.547 1392.54 Q165.626 1387.93 171.436 1387.93 Z" fill="#000000" fill-rule="nonzero" fill-opacity="1" /><path clip-path="url(#clip340)" d="M201.598 1391.64 Q197.987 1391.64 196.158 1395.2 Q194.352 1398.74 194.352 1405.87 Q194.352 1412.98 196.158 1416.54 Q197.987 1420.09 201.598 1420.09 Q205.232 1420.09 207.037 1416.54 Q208.866 1412.98 208.866 1405.87 Q208.866 1398.74 207.037 1395.2 Q205.232 1391.64 201.598 1391.64 M201.598 1387.93 Q207.408 1387.93 210.463 1392.54 Q213.542 1397.12 213.542 1405.87 Q213.542 1414.6 210.463 1419.21 Q207.408 1423.79 201.598 1423.79 Q195.787 1423.79 192.709 1419.21 Q189.653 1414.6 189.653 1405.87 Q189.653 1397.12 192.709 1392.54 Q195.787 1387.93 201.598 1387.93 Z" fill="#000000" fill-rule="nonzero" fill-opacity="1" /><path clip-path="url(#clip340)" d="M231.76 1391.64 Q228.148 1391.64 226.32 1395.2 Q224.514 1398.74 224.514 1405.87 Q224.514 1412.98 226.32 1416.54 Q228.148 1420.09 231.76 1420.09 Q235.394 1420.09 237.199 1416.54 Q239.028 1412.98 239.028 1405.87 Q239.028 1398.74 237.199 1395.2 Q235.394 1391.64 231.76 1391.64 M231.76 1387.93 Q237.57 1387.93 240.625 1392.54 Q243.704 1397.12 243.704 1405.87 Q243.704 1414.6 240.625 1419.21 Q237.57 1423.79 231.76 1423.79 Q225.949 1423.79 222.871 1419.21 Q219.815 1414.6 219.815 1405.87 Q219.815 1397.12 222.871 1392.54 Q225.949 1387.93 231.76 1387.93 Z" fill="#000000" fill-rule="nonzero" fill-opacity="1" /><path clip-path="url(#clip340)" d="M127.2 1103.67 Q123.589 1103.67 121.76 1107.23 Q119.955 1110.78 119.955 1117.91 Q119.955 1125.01 121.76 1128.58 Q123.589 1132.12 127.2 1132.12 Q130.834 1132.12 132.64 1128.58 Q134.468 1125.01 134.468 1117.91 Q134.468 1110.78 132.64 1107.23 Q130.834 1103.67 127.2 1103.67 M127.2 1099.97 Q133.01 1099.97 136.066 1104.57 Q139.144 1109.16 139.144 1117.91 Q139.144 1126.63 136.066 1131.24 Q133.01 1135.82 127.2 1135.82 Q121.39 1135.82 118.311 1131.24 Q115.256 1126.63 115.256 1117.91 Q115.256 1109.16 118.311 1104.57 Q121.39 1099.97 127.2 1099.97 Z" fill="#000000" fill-rule="nonzero" fill-opacity="1" /><path clip-path="url(#clip340)" d="M147.362 1129.27 L152.246 1129.27 L152.246 1135.15 L147.362 1135.15 L147.362 1129.27 Z" fill="#000000" fill-rule="nonzero" fill-opacity="1" /><path clip-path="url(#clip340)" d="M172.431 1103.67 Q168.82 1103.67 166.991 1107.23 Q165.186 1110.78 165.186 1117.91 Q165.186 1125.01 166.991 1128.58 Q168.82 1132.12 172.431 1132.12 Q176.065 1132.12 177.871 1128.58 Q179.7 1125.01 179.7 1117.91 Q179.7 1110.78 177.871 1107.23 Q176.065 1103.67 172.431 1103.67 M172.431 1099.97 Q178.241 1099.97 181.297 1104.57 Q184.376 1109.16 184.376 1117.91 Q184.376 1126.63 181.297 1131.24 Q178.241 1135.82 172.431 1135.82 Q166.621 1135.82 163.542 1131.24 Q160.487 1126.63 160.487 1117.91 Q160.487 1109.16 163.542 1104.57 Q166.621 1099.97 172.431 1099.97 Z" fill="#000000" fill-rule="nonzero" fill-opacity="1" /><path clip-path="url(#clip340)" d="M196.621 1131.22 L212.94 1131.22 L212.94 1135.15 L190.996 1135.15 L190.996 1131.22 Q193.658 1128.46 198.241 1123.83 Q202.848 1119.18 204.028 1117.84 Q206.274 1115.31 207.153 1113.58 Q208.056 1111.82 208.056 1110.13 Q208.056 1107.37 206.112 1105.64 Q204.19 1103.9 201.088 1103.9 Q198.889 1103.9 196.436 1104.66 Q194.005 1105.43 191.227 1106.98 L191.227 1102.26 Q194.051 1101.12 196.505 1100.54 Q198.959 1099.97 200.996 1099.97 Q206.366 1099.97 209.561 1102.65 Q212.755 1105.34 212.755 1109.83 Q212.755 1111.96 211.945 1113.88 Q211.158 1115.78 209.051 1118.37 Q208.473 1119.04 205.371 1122.26 Q202.269 1125.45 196.621 1131.22 Z" fill="#000000" fill-rule="nonzero" fill-opacity="1" /><path clip-path="url(#clip340)" d="M222.801 1100.59 L241.158 1100.59 L241.158 1104.53 L227.084 1104.53 L227.084 1113 Q228.102 1112.65 229.121 1112.49 Q230.139 1112.3 231.158 1112.3 Q236.945 1112.3 240.324 1115.47 Q243.704 1118.65 243.704 1124.06 Q243.704 1129.64 240.232 1132.74 Q236.76 1135.82 230.44 1135.82 Q228.264 1135.82 225.996 1135.45 Q223.75 1135.08 221.343 1134.34 L221.343 1129.64 Q223.426 1130.78 225.648 1131.33 Q227.871 1131.89 230.347 1131.89 Q234.352 1131.89 236.69 1129.78 Q239.028 1127.67 239.028 1124.06 Q239.028 1120.45 236.69 1118.35 Q234.352 1116.24 230.347 1116.24 Q228.473 1116.24 226.598 1116.66 Q224.746 1117.07 222.801 1117.95 L222.801 1100.59 Z" fill="#000000" fill-rule="nonzero" fill-opacity="1" /><path clip-path="url(#clip340)" d="M126.205 815.702 Q122.593 815.702 120.765 819.266 Q118.959 822.808 118.959 829.938 Q118.959 837.044 120.765 840.609 Q122.593 844.151 126.205 844.151 Q129.839 844.151 131.644 840.609 Q133.473 837.044 133.473 829.938 Q133.473 822.808 131.644 819.266 Q129.839 815.702 126.205 815.702 M126.205 811.998 Q132.015 811.998 135.07 816.604 Q138.149 821.188 138.149 829.938 Q138.149 838.665 135.07 843.271 Q132.015 847.854 126.205 847.854 Q120.394 847.854 117.316 843.271 Q114.26 838.665 114.26 829.938 Q114.26 821.188 117.316 816.604 Q120.394 811.998 126.205 811.998 Z" fill="#000000" fill-rule="nonzero" fill-opacity="1" /><path clip-path="url(#clip340)" d="M146.366 841.303 L151.251 841.303 L151.251 847.183 L146.366 847.183 L146.366 841.303 Z" fill="#000000" fill-rule="nonzero" fill-opacity="1" /><path clip-path="url(#clip340)" d="M171.436 815.702 Q167.825 815.702 165.996 819.266 Q164.19 822.808 164.19 829.938 Q164.19 837.044 165.996 840.609 Q167.825 844.151 171.436 844.151 Q175.07 844.151 176.876 840.609 Q178.704 837.044 178.704 829.938 Q178.704 822.808 176.876 819.266 Q175.07 815.702 171.436 815.702 M171.436 811.998 Q177.246 811.998 180.301 816.604 Q183.38 821.188 183.38 829.938 Q183.38 838.665 180.301 843.271 Q177.246 847.854 171.436 847.854 Q165.626 847.854 162.547 843.271 Q159.491 838.665 159.491 829.938 Q159.491 821.188 162.547 816.604 Q165.626 811.998 171.436 811.998 Z" fill="#000000" fill-rule="nonzero" fill-opacity="1" /><path clip-path="url(#clip340)" d="M191.644 812.623 L210 812.623 L210 816.558 L195.926 816.558 L195.926 825.03 Q196.945 824.683 197.963 824.521 Q198.982 824.336 200 824.336 Q205.787 824.336 209.167 827.507 Q212.547 830.678 212.547 836.095 Q212.547 841.674 209.074 844.776 Q205.602 847.854 199.283 847.854 Q197.107 847.854 194.838 847.484 Q192.593 847.114 190.186 846.373 L190.186 841.674 Q192.269 842.808 194.491 843.364 Q196.713 843.919 199.19 843.919 Q203.195 843.919 205.533 841.813 Q207.871 839.706 207.871 836.095 Q207.871 832.484 205.533 830.378 Q203.195 828.271 199.19 828.271 Q197.315 828.271 195.44 828.688 Q193.588 829.104 191.644 829.984 L191.644 812.623 Z" fill="#000000" fill-rule="nonzero" fill-opacity="1" /><path clip-path="url(#clip340)" d="M231.76 815.702 Q228.148 815.702 226.32 819.266 Q224.514 822.808 224.514 829.938 Q224.514 837.044 226.32 840.609 Q228.148 844.151 231.76 844.151 Q235.394 844.151 237.199 840.609 Q239.028 837.044 239.028 829.938 Q239.028 822.808 237.199 819.266 Q235.394 815.702 231.76 815.702 M231.76 811.998 Q237.57 811.998 240.625 816.604 Q243.704 821.188 243.704 829.938 Q243.704 838.665 240.625 843.271 Q237.57 847.854 231.76 847.854 Q225.949 847.854 222.871 843.271 Q219.815 838.665 219.815 829.938 Q219.815 821.188 222.871 816.604 Q225.949 811.998 231.76 811.998 Z" fill="#000000" fill-rule="nonzero" fill-opacity="1" /><path clip-path="url(#clip340)" d="M127.2 527.734 Q123.589 527.734 121.76 531.299 Q119.955 534.841 119.955 541.97 Q119.955 549.077 121.76 552.641 Q123.589 556.183 127.2 556.183 Q130.834 556.183 132.64 552.641 Q134.468 549.077 134.468 541.97 Q134.468 534.841 132.64 531.299 Q130.834 527.734 127.2 527.734 M127.2 524.03 Q133.01 524.03 136.066 528.637 Q139.144 533.22 139.144 541.97 Q139.144 550.697 136.066 555.303 Q133.01 559.887 127.2 559.887 Q121.39 559.887 118.311 555.303 Q115.256 550.697 115.256 541.97 Q115.256 533.22 118.311 528.637 Q121.39 524.03 127.2 524.03 Z" fill="#000000" fill-rule="nonzero" fill-opacity="1" /><path clip-path="url(#clip340)" d="M147.362 553.336 L152.246 553.336 L152.246 559.215 L147.362 559.215 L147.362 553.336 Z" fill="#000000" fill-rule="nonzero" fill-opacity="1" /><path clip-path="url(#clip340)" d="M172.431 527.734 Q168.82 527.734 166.991 531.299 Q165.186 534.841 165.186 541.97 Q165.186 549.077 166.991 552.641 Q168.82 556.183 172.431 556.183 Q176.065 556.183 177.871 552.641 Q179.7 549.077 179.7 541.97 Q179.7 534.841 177.871 531.299 Q176.065 527.734 172.431 527.734 M172.431 524.03 Q178.241 524.03 181.297 528.637 Q184.376 533.22 184.376 541.97 Q184.376 550.697 181.297 555.303 Q178.241 559.887 172.431 559.887 Q166.621 559.887 163.542 555.303 Q160.487 550.697 160.487 541.97 Q160.487 533.22 163.542 528.637 Q166.621 524.03 172.431 524.03 Z" fill="#000000" fill-rule="nonzero" fill-opacity="1" /><path clip-path="url(#clip340)" d="M191.413 524.655 L213.635 524.655 L213.635 526.646 L201.088 559.215 L196.204 559.215 L208.01 528.591 L191.413 528.591 L191.413 524.655 Z" fill="#000000" fill-rule="nonzero" fill-opacity="1" /><path clip-path="url(#clip340)" d="M222.801 524.655 L241.158 524.655 L241.158 528.591 L227.084 528.591 L227.084 537.063 Q228.102 536.716 229.121 536.553 Q230.139 536.368 231.158 536.368 Q236.945 536.368 240.324 539.54 Q243.704 542.711 243.704 548.127 Q243.704 553.706 240.232 556.808 Q236.76 559.887 230.44 559.887 Q228.264 559.887 225.996 559.516 Q223.75 559.146 221.343 558.405 L221.343 553.706 Q223.426 554.84 225.648 555.396 Q227.871 555.952 230.347 555.952 Q234.352 555.952 236.69 553.845 Q239.028 551.739 239.028 548.127 Q239.028 544.516 236.69 542.41 Q234.352 540.303 230.347 540.303 Q228.473 540.303 226.598 540.72 Q224.746 541.137 222.801 542.016 L222.801 524.655 Z" fill="#000000" fill-rule="nonzero" fill-opacity="1" /><path clip-path="url(#clip340)" d="M126.205 239.766 Q122.593 239.766 120.765 243.331 Q118.959 246.873 118.959 254.003 Q118.959 261.109 120.765 264.674 Q122.593 268.215 126.205 268.215 Q129.839 268.215 131.644 264.674 Q133.473 261.109 133.473 254.003 Q133.473 246.873 131.644 243.331 Q129.839 239.766 126.205 239.766 M126.205 236.063 Q132.015 236.063 135.07 240.669 Q138.149 245.253 138.149 254.003 Q138.149 262.729 135.07 267.336 Q132.015 271.919 126.205 271.919 Q120.394 271.919 117.316 267.336 Q114.26 262.729 114.26 254.003 Q114.26 245.253 117.316 240.669 Q120.394 236.063 126.205 236.063 Z" fill="#000000" fill-rule="nonzero" fill-opacity="1" /><path clip-path="url(#clip340)" d="M146.366 265.368 L151.251 265.368 L151.251 271.248 L146.366 271.248 L146.366 265.368 Z" fill="#000000" fill-rule="nonzero" fill-opacity="1" /><path clip-path="url(#clip340)" d="M162.246 267.313 L169.885 267.313 L169.885 240.947 L161.575 242.614 L161.575 238.354 L169.839 236.688 L174.514 236.688 L174.514 267.313 L182.153 267.313 L182.153 271.248 L162.246 271.248 L162.246 267.313 Z" fill="#000000" fill-rule="nonzero" fill-opacity="1" /><path clip-path="url(#clip340)" d="M201.598 239.766 Q197.987 239.766 196.158 243.331 Q194.352 246.873 194.352 254.003 Q194.352 261.109 196.158 264.674 Q197.987 268.215 201.598 268.215 Q205.232 268.215 207.037 264.674 Q208.866 261.109 208.866 254.003 Q208.866 246.873 207.037 243.331 Q205.232 239.766 201.598 239.766 M201.598 236.063 Q207.408 236.063 210.463 240.669 Q213.542 245.253 213.542 254.003 Q213.542 262.729 210.463 267.336 Q207.408 271.919 201.598 271.919 Q195.787 271.919 192.709 267.336 Q189.653 262.729 189.653 254.003 Q189.653 245.253 192.709 240.669 Q195.787 236.063 201.598 236.063 Z" fill="#000000" fill-rule="nonzero" fill-opacity="1" /><path clip-path="url(#clip340)" d="M231.76 239.766 Q228.148 239.766 226.32 243.331 Q224.514 246.873 224.514 254.003 Q224.514 261.109 226.32 264.674 Q228.148 268.215 231.76 268.215 Q235.394 268.215 237.199 264.674 Q239.028 261.109 239.028 254.003 Q239.028 246.873 237.199 243.331 Q235.394 239.766 231.76 239.766 M231.76 236.063 Q237.57 236.063 240.625 240.669 Q243.704 245.253 243.704 254.003 Q243.704 262.729 240.625 267.336 Q237.57 271.919 231.76 271.919 Q225.949 271.919 222.871 267.336 Q219.815 262.729 219.815 254.003 Q219.815 245.253 222.871 240.669 Q225.949 236.063 231.76 236.063 Z" fill="#000000" fill-rule="nonzero" fill-opacity="1" /><path clip-path="url(#clip340)" d="M29.4065 993.309 L34.9447 993.309 Q33.6716 995.792 33.035 998.465 Q32.3984 1001.14 32.3984 1004 Q32.3984 1008.36 33.7352 1010.56 Q35.072 1012.72 37.7456 1012.72 Q39.7826 1012.72 40.9603 1011.16 Q42.1061 1009.61 43.1565 1004.89 L43.6021 1002.89 Q44.9389 996.651 47.3897 994.041 Q49.8086 991.399 54.1691 991.399 Q59.1344 991.399 62.0308 995.346 Q64.9272 999.261 64.9272 1006.14 Q64.9272 1009 64.3543 1012.12 Q63.8132 1015.21 62.6992 1018.64 L56.6518 1018.64 Q58.3387 1015.4 59.198 1012.25 Q60.0256 1009.1 60.0256 1006.01 Q60.0256 1001.87 58.6251 999.643 Q57.1929 997.415 54.6147 997.415 Q52.2276 997.415 50.9545 999.038 Q49.6813 1000.63 48.5037 1006.07 L48.0262 1008.11 Q46.8804 1013.55 44.5251 1015.97 Q42.138 1018.39 38.0002 1018.39 Q32.9713 1018.39 30.2341 1014.82 Q27.4968 1011.26 27.4968 1004.7 Q27.4968 1001.46 27.9743 998.592 Q28.4517 995.728 29.4065 993.309 Z" fill="#000000" fill-rule="nonzero" fill-opacity="1" /><path clip-path="url(#clip340)" d="M28.3562 982.073 L28.3562 976.217 L64.0042 976.217 L64.0042 982.073 L28.3562 982.073 M14.479 982.073 L14.479 976.217 L21.895 976.217 L21.895 982.073 L14.479 982.073 Z" fill="#000000" fill-rule="nonzero" fill-opacity="1" /><path clip-path="url(#clip340)" d="M45.7664 940.505 Q39.4007 940.505 35.8996 943.147 Q32.3984 945.757 32.3984 950.5 Q32.3984 955.21 35.8996 957.852 Q39.4007 960.462 45.7664 960.462 Q52.1003 960.462 55.6014 957.852 Q59.1026 955.21 59.1026 950.5 Q59.1026 945.757 55.6014 943.147 Q52.1003 940.505 45.7664 940.505 M59.58 934.649 Q68.683 934.649 73.1071 938.691 Q77.5631 942.733 77.5631 951.072 Q77.5631 954.16 77.0857 956.897 Q76.6401 959.634 75.6852 962.212 L69.9879 962.212 Q71.3884 959.634 72.0568 957.12 Q72.7252 954.605 72.7252 951.995 Q72.7252 946.234 69.7015 943.37 Q66.7096 940.505 60.6303 940.505 L57.7339 940.505 Q60.885 942.32 62.4446 945.152 Q64.0042 947.985 64.0042 951.932 Q64.0042 958.488 59.0071 962.499 Q54.01 966.509 45.7664 966.509 Q37.491 966.509 32.4939 962.499 Q27.4968 958.488 27.4968 951.932 Q27.4968 947.985 29.0564 945.152 Q30.616 942.32 33.7671 940.505 L28.3562 940.505 L28.3562 934.649 L59.58 934.649 Z" fill="#000000" fill-rule="nonzero" fill-opacity="1" /><path clip-path="url(#clip340)" d="M35.1993 894.831 Q31.2526 892.635 29.3747 889.58 Q27.4968 886.524 27.4968 882.386 Q27.4968 876.816 31.4117 873.793 Q35.2948 870.769 42.4881 870.769 L64.0042 870.769 L64.0042 876.657 L42.679 876.657 Q37.5546 876.657 35.072 878.472 Q32.5894 880.286 32.5894 884.01 Q32.5894 888.561 35.6131 891.203 Q38.6368 893.845 43.8567 893.845 L64.0042 893.845 L64.0042 899.733 L42.679 899.733 Q37.5228 899.733 35.072 901.547 Q32.5894 903.361 32.5894 907.149 Q32.5894 911.637 35.6449 914.279 Q38.6686 916.92 43.8567 916.92 L64.0042 916.92 L64.0042 922.809 L28.3562 922.809 L28.3562 916.92 L33.8944 916.92 Q30.616 914.915 29.0564 912.114 Q27.4968 909.313 27.4968 905.462 Q27.4968 901.579 29.4702 898.874 Q31.4436 896.136 35.1993 894.831 Z" fill="#000000" fill-rule="nonzero" fill-opacity="1" /><path clip-path="url(#clip340)" d="M46.0847 842.887 Q46.0847 849.985 47.7079 852.722 Q49.3312 855.46 53.2461 855.46 Q56.3653 855.46 58.2114 853.422 Q60.0256 851.354 60.0256 847.821 Q60.0256 842.951 56.5881 840.023 Q53.1188 837.063 47.3897 837.063 L46.0847 837.063 L46.0847 842.887 M43.6657 831.206 L64.0042 831.206 L64.0042 837.063 L58.5933 837.063 Q61.8398 839.068 63.3994 842.06 Q64.9272 845.052 64.9272 849.38 Q64.9272 854.855 61.8716 858.101 Q58.7843 861.316 53.6281 861.316 Q47.6125 861.316 44.5569 857.306 Q41.5014 853.263 41.5014 845.274 L41.5014 837.063 L40.9285 837.063 Q36.8862 837.063 34.6901 839.736 Q32.4621 842.378 32.4621 847.184 Q32.4621 850.24 33.1941 853.136 Q33.9262 856.032 35.3903 858.706 L29.9795 858.706 Q28.7381 855.491 28.1334 852.468 Q27.4968 849.444 27.4968 846.579 Q27.4968 838.845 31.5072 835.026 Q35.5176 831.206 43.6657 831.206 Z" fill="#000000" fill-rule="nonzero" fill-opacity="1" /><path clip-path="url(#clip340)" d="M14.479 798.964 L14.479 785.469 L19.0304 785.469 L19.0304 793.107 L68.0464 793.107 L68.0464 785.469 L72.5979 785.469 L72.5979 798.964 L14.479 798.964 Z" fill="#000000" fill-rule="nonzero" fill-opacity="1" /><path clip-path="url(#clip340)" d="M57.2247 740.336 L44.4614 740.336 L44.4614 750.839 L39.1779 750.839 L39.1779 733.97 L59.58 733.97 Q62.2218 737.694 63.5904 742.182 Q64.9272 746.67 64.9272 751.762 Q64.9272 762.902 58.4342 769.204 Q51.9093 775.474 40.2919 775.474 Q28.6427 775.474 22.1496 769.204 Q15.6248 762.902 15.6248 751.762 Q15.6248 747.115 16.7706 742.946 Q17.9164 738.744 20.1444 735.211 L26.9876 735.211 Q23.9639 738.776 22.4361 742.787 Q20.9083 746.797 20.9083 751.221 Q20.9083 759.942 25.7781 764.334 Q30.6479 768.695 40.2919 768.695 Q49.9041 768.695 54.7739 764.334 Q59.6436 759.942 59.6436 751.221 Q59.6436 747.815 59.0707 745.142 Q58.466 742.468 57.2247 740.336 Z" fill="#000000" fill-rule="nonzero" fill-opacity="1" /><path clip-path="url(#clip340)" d="M44.7161 691.988 L47.5806 691.988 L47.5806 718.915 Q53.6281 718.533 56.8109 715.287 Q59.9619 712.008 59.9619 706.184 Q59.9619 702.81 59.1344 699.659 Q58.3069 696.476 56.6518 693.357 L62.1899 693.357 Q63.5267 696.508 64.227 699.818 Q64.9272 703.128 64.9272 706.534 Q64.9272 715.064 59.9619 720.061 Q54.9967 725.026 46.5303 725.026 Q37.7774 725.026 32.6531 720.316 Q27.4968 715.573 27.4968 707.552 Q27.4968 700.359 32.1438 696.19 Q36.7589 691.988 44.7161 691.988 M42.9973 697.845 Q38.1912 697.908 35.3266 700.55 Q32.4621 703.16 32.4621 707.489 Q32.4621 712.39 35.2312 715.35 Q38.0002 718.279 43.0292 718.724 L42.9973 697.845 Z" fill="#000000" fill-rule="nonzero" fill-opacity="1" /><path clip-path="url(#clip340)" d="M64.0042 669.867 L16.4842 688.01 L16.4842 681.294 L56.4926 666.239 L16.4842 651.152 L16.4842 644.468 L64.0042 662.579 L64.0042 669.867 Z" fill="#000000" fill-rule="nonzero" fill-opacity="1" /><path clip-path="url(#clip340)" d="M16.4842 613.499 L34.2127 596.216 L34.2127 602.614 L21.6404 616.618 L34.2127 630.623 L34.2127 637.02 L16.4842 619.737 L16.4842 613.499 Z" fill="#000000" fill-rule="nonzero" fill-opacity="1" /><path clip-path="url(#clip340)" d="M38.3822 562.86 Q39.3689 558.245 42.4881 555.667 Q45.6073 553.057 50.1906 553.057 Q57.2247 553.057 61.0759 557.895 Q64.9272 562.732 64.9272 571.644 Q64.9272 574.636 64.3224 577.819 Q63.7495 580.97 62.5719 584.344 L56.3653 584.344 Q57.9249 581.67 58.7206 578.488 Q59.5163 575.305 59.5163 571.835 Q59.5163 565.788 57.1292 562.637 Q54.7421 559.454 50.1906 559.454 Q45.9892 559.454 43.6339 562.414 Q41.2468 565.342 41.2468 570.594 L41.2468 576.132 L35.9632 576.132 L35.9632 570.34 Q35.9632 565.597 34.0853 563.083 Q32.1756 560.568 28.6108 560.568 Q24.9505 560.568 23.009 563.178 Q21.0356 565.756 21.0356 570.594 Q21.0356 573.236 21.6086 576.26 Q22.1815 579.283 23.3909 582.912 L17.6618 582.912 Q16.6433 579.252 16.134 576.069 Q15.6248 572.854 15.6248 570.021 Q15.6248 562.701 18.9668 558.436 Q22.277 554.171 27.9424 554.171 Q31.8892 554.171 34.6264 556.43 Q37.3318 558.69 38.3822 562.86 Z" fill="#000000" fill-rule="nonzero" fill-opacity="1" /><path clip-path="url(#clip340)" d="M14.479 528.008 L72.5979 528.008 L72.5979 541.503 L68.0464 541.503 L68.0464 533.896 L19.0304 533.896 L19.0304 541.503 L14.479 541.503 L14.479 528.008 Z" fill="#000000" fill-rule="nonzero" fill-opacity="1" /><path clip-path="url(#clip340)" d="M836.502 12.096 L871.258 12.096 L871.258 18.9825 L844.684 18.9825 L844.684 36.8065 L868.666 36.8065 L868.666 43.6931 L844.684 43.6931 L844.684 72.576 L836.502 72.576 L836.502 12.096 Z" fill="#000000" fill-rule="nonzero" fill-opacity="1" /><path clip-path="url(#clip340)" d="M877.861 27.2059 L885.315 27.2059 L885.315 72.576 L877.861 72.576 L877.861 27.2059 M877.861 9.54393 L885.315 9.54393 L885.315 18.9825 L877.861 18.9825 L877.861 9.54393 Z" fill="#000000" fill-rule="nonzero" fill-opacity="1" /><path clip-path="url(#clip340)" d="M930.766 49.3643 Q930.766 41.2625 927.404 36.8065 Q924.082 32.3505 918.046 32.3505 Q912.051 32.3505 908.689 36.8065 Q905.367 41.2625 905.367 49.3643 Q905.367 57.4256 908.689 61.8816 Q912.051 66.3376 918.046 66.3376 Q924.082 66.3376 927.404 61.8816 Q930.766 57.4256 930.766 49.3643 M938.22 66.9452 Q938.22 78.5308 933.075 84.1616 Q927.93 89.8329 917.317 89.8329 Q913.388 89.8329 909.904 89.2252 Q906.42 88.6581 903.139 87.4428 L903.139 80.1917 Q906.42 81.9741 909.62 82.8248 Q912.821 83.6755 916.142 83.6755 Q923.474 83.6755 927.12 79.8271 Q930.766 76.0193 930.766 68.282 L930.766 64.5957 Q928.457 68.6061 924.852 70.5911 Q921.246 72.576 916.223 72.576 Q907.879 72.576 902.774 66.2161 Q897.67 59.8562 897.67 49.3643 Q897.67 38.832 902.774 32.472 Q907.879 26.1121 916.223 26.1121 Q921.246 26.1121 924.852 28.0971 Q928.457 30.082 930.766 34.0924 L930.766 27.2059 L938.22 27.2059 L938.22 66.9452 Z" fill="#000000" fill-rule="nonzero" fill-opacity="1" /><path clip-path="url(#clip340)" d="M954.626 62.2867 L963.173 62.2867 L963.173 72.576 L954.626 72.576 L954.626 62.2867 Z" fill="#000000" fill-rule="nonzero" fill-opacity="1" /><path clip-path="url(#clip340)" d="M1014.42 65.6895 L1042.98 65.6895 L1042.98 72.576 L1004.57 72.576 L1004.57 65.6895 Q1009.23 60.8689 1017.25 52.7671 Q1025.31 44.6248 1027.38 42.2752 Q1031.31 37.8598 1032.85 34.8216 Q1034.43 31.7429 1034.43 28.7857 Q1034.43 23.9651 1031.03 20.927 Q1027.66 17.8888 1022.24 17.8888 Q1018.39 17.8888 1014.09 19.2256 Q1009.84 20.5624 1004.98 23.2765 L1004.98 15.0127 Q1009.92 13.0277 1014.21 12.015 Q1018.51 11.0023 1022.07 11.0023 Q1031.47 11.0023 1037.06 15.7013 Q1042.65 20.4004 1042.65 28.2591 Q1042.65 31.9859 1041.23 35.3482 Q1039.86 38.6699 1036.17 43.2069 Q1035.16 44.3817 1029.73 50.0125 Q1024.3 55.6027 1014.42 65.6895 Z" fill="#000000" fill-rule="nonzero" fill-opacity="1" /><path clip-path="url(#clip340)" d="M1114.39 28.5427 L1114.39 35.5912 Q1111.23 33.9709 1107.83 33.1607 Q1104.43 32.3505 1100.78 32.3505 Q1095.23 32.3505 1092.44 34.0519 Q1089.68 35.7533 1089.68 39.156 Q1089.68 41.7486 1091.67 43.2475 Q1093.65 44.7058 1099.65 46.0426 L1102.2 46.6097 Q1110.14 48.3111 1113.46 51.4303 Q1116.82 54.509 1116.82 60.0587 Q1116.82 66.3781 1111.8 70.0644 Q1106.82 73.7508 1098.07 73.7508 Q1094.42 73.7508 1090.45 73.0216 Q1086.52 72.3329 1082.15 70.9151 L1082.15 63.2184 Q1086.28 65.3654 1090.29 66.4591 Q1094.3 67.5124 1098.23 67.5124 Q1103.5 67.5124 1106.33 65.73 Q1109.17 63.9071 1109.17 60.6258 Q1109.17 57.5877 1107.1 55.9673 Q1105.08 54.3469 1098.15 52.8481 L1095.56 52.2405 Q1088.63 50.7821 1085.55 47.7845 Q1082.47 44.7463 1082.47 39.4801 Q1082.47 33.0797 1087.01 29.5959 Q1091.55 26.1121 1099.89 26.1121 Q1104.02 26.1121 1107.67 26.7198 Q1111.31 27.3274 1114.39 28.5427 Z" fill="#000000" fill-rule="nonzero" fill-opacity="1" /><path clip-path="url(#clip340)" d="M1135.9 65.7705 L1135.9 89.8329 L1128.41 89.8329 L1128.41 27.2059 L1135.9 27.2059 L1135.9 34.0924 Q1138.25 30.0415 1141.82 28.0971 Q1145.42 26.1121 1150.41 26.1121 Q1158.67 26.1121 1163.81 32.6746 Q1169 39.2371 1169 49.9314 Q1169 60.6258 1163.81 67.1883 Q1158.67 73.7508 1150.41 73.7508 Q1145.42 73.7508 1141.82 71.8063 Q1138.25 69.8214 1135.9 65.7705 M1161.26 49.9314 Q1161.26 41.7081 1157.86 37.0496 Q1154.5 32.3505 1148.58 32.3505 Q1142.67 32.3505 1139.27 37.0496 Q1135.9 41.7081 1135.9 49.9314 Q1135.9 58.1548 1139.27 62.8538 Q1142.67 67.5124 1148.58 67.5124 Q1154.5 67.5124 1157.86 62.8538 Q1161.26 58.1548 1161.26 49.9314 Z" fill="#000000" fill-rule="nonzero" fill-opacity="1" /><path clip-path="url(#clip340)" d="M1220.16 48.0275 L1220.16 51.6733 L1185.89 51.6733 Q1186.38 59.3701 1190.51 63.421 Q1194.68 67.4314 1202.1 67.4314 Q1206.39 67.4314 1210.4 66.3781 Q1214.45 65.3249 1218.42 63.2184 L1218.42 70.267 Q1214.41 71.9684 1210.2 72.8596 Q1205.98 73.7508 1201.65 73.7508 Q1190.79 73.7508 1184.43 67.4314 Q1178.11 61.1119 1178.11 50.3365 Q1178.11 39.1965 1184.11 32.6746 Q1190.15 26.1121 1200.35 26.1121 Q1209.51 26.1121 1214.82 32.0264 Q1220.16 37.9003 1220.16 48.0275 M1212.71 45.84 Q1212.63 39.7232 1209.27 36.0774 Q1205.94 32.4315 1200.43 32.4315 Q1194.2 32.4315 1190.43 35.9558 Q1186.7 39.4801 1186.14 45.8805 L1212.71 45.84 Z" fill="#000000" fill-rule="nonzero" fill-opacity="1" /><path clip-path="url(#clip340)" d="M1265.05 28.9478 L1265.05 35.9153 Q1261.89 34.1734 1258.69 33.3227 Q1255.53 32.4315 1252.29 32.4315 Q1245.04 32.4315 1241.02 37.0496 Q1237.01 41.6271 1237.01 49.9314 Q1237.01 58.2358 1241.02 62.8538 Q1245.04 67.4314 1252.29 67.4314 Q1255.53 67.4314 1258.69 66.5807 Q1261.89 65.6895 1265.05 63.9476 L1265.05 70.8341 Q1261.93 72.2924 1258.57 73.0216 Q1255.24 73.7508 1251.48 73.7508 Q1241.23 73.7508 1235.19 67.3098 Q1229.16 60.8689 1229.16 49.9314 Q1229.16 38.832 1235.23 32.472 Q1241.35 26.1121 1251.96 26.1121 Q1255.41 26.1121 1258.69 26.8413 Q1261.97 27.5299 1265.05 28.9478 Z" fill="#000000" fill-rule="nonzero" fill-opacity="1" /><path clip-path="url(#clip340)" d="M1285.38 14.324 L1285.38 27.2059 L1300.74 27.2059 L1300.74 32.9987 L1285.38 32.9987 L1285.38 57.6282 Q1285.38 63.1779 1286.88 64.7578 Q1288.42 66.3376 1293.08 66.3376 L1300.74 66.3376 L1300.74 72.576 L1293.08 72.576 Q1284.45 72.576 1281.17 69.3758 Q1277.89 66.1351 1277.89 57.6282 L1277.89 32.9987 L1272.42 32.9987 L1272.42 27.2059 L1277.89 27.2059 L1277.89 14.324 L1285.38 14.324 Z" fill="#000000" fill-rule="nonzero" fill-opacity="1" /><path clip-path="url(#clip340)" d="M1336.83 34.1734 Q1335.57 33.4443 1334.07 33.1202 Q1332.62 32.7556 1330.83 32.7556 Q1324.51 32.7556 1321.11 36.8875 Q1317.75 40.9789 1317.75 48.6757 L1317.75 72.576 L1310.25 72.576 L1310.25 27.2059 L1317.75 27.2059 L1317.75 34.2544 Q1320.1 30.1225 1323.87 28.1376 Q1327.63 26.1121 1333.02 26.1121 Q1333.79 26.1121 1334.72 26.2337 Q1335.65 26.3147 1336.79 26.5172 L1336.83 34.1734 Z" fill="#000000" fill-rule="nonzero" fill-opacity="1" /><path clip-path="url(#clip340)" d="M1365.27 49.7694 Q1356.23 49.7694 1352.75 51.8354 Q1349.27 53.9013 1349.27 58.8839 Q1349.27 62.8538 1351.86 65.2034 Q1354.49 67.5124 1358.99 67.5124 Q1365.19 67.5124 1368.91 63.1374 Q1372.68 58.7219 1372.68 51.4303 L1372.68 49.7694 L1365.27 49.7694 M1380.13 46.6907 L1380.13 72.576 L1372.68 72.576 L1372.68 65.6895 Q1370.13 69.8214 1366.32 71.8063 Q1362.51 73.7508 1357 73.7508 Q1350.03 73.7508 1345.9 69.8619 Q1341.81 65.9325 1341.81 59.3701 Q1341.81 51.7138 1346.92 47.825 Q1352.06 43.9361 1362.23 43.9361 L1372.68 43.9361 L1372.68 43.2069 Q1372.68 38.0623 1369.28 35.2672 Q1365.91 32.4315 1359.8 32.4315 Q1355.91 32.4315 1352.22 33.3632 Q1348.54 34.295 1345.13 36.1584 L1345.13 29.2718 Q1349.22 27.692 1353.07 26.9223 Q1356.92 26.1121 1360.57 26.1121 Q1370.41 26.1121 1375.27 31.2163 Q1380.13 36.3204 1380.13 46.6907 Z" fill="#000000" fill-rule="nonzero" fill-opacity="1" /><path clip-path="url(#clip340)" d="M1395.49 9.54393 L1402.94 9.54393 L1402.94 72.576 L1395.49 72.576 L1395.49 9.54393 Z" fill="#000000" fill-rule="nonzero" fill-opacity="1" /><path clip-path="url(#clip340)" d="M1473.83 28.5427 L1473.83 35.5912 Q1470.67 33.9709 1467.27 33.1607 Q1463.87 32.3505 1460.22 32.3505 Q1454.67 32.3505 1451.87 34.0519 Q1449.12 35.7533 1449.12 39.156 Q1449.12 41.7486 1451.1 43.2475 Q1453.09 44.7058 1459.09 46.0426 L1461.64 46.6097 Q1469.58 48.3111 1472.9 51.4303 Q1476.26 54.509 1476.26 60.0587 Q1476.26 66.3781 1471.24 70.0644 Q1466.26 73.7508 1457.51 73.7508 Q1453.86 73.7508 1449.89 73.0216 Q1445.96 72.3329 1441.59 70.9151 L1441.59 63.2184 Q1445.72 65.3654 1449.73 66.4591 Q1453.74 67.5124 1457.67 67.5124 Q1462.93 67.5124 1465.77 65.73 Q1468.6 63.9071 1468.6 60.6258 Q1468.6 57.5877 1466.54 55.9673 Q1464.51 54.3469 1457.59 52.8481 L1454.99 52.2405 Q1448.07 50.7821 1444.99 47.7845 Q1441.91 44.7463 1441.91 39.4801 Q1441.91 33.0797 1446.45 29.5959 Q1450.98 26.1121 1459.33 26.1121 Q1463.46 26.1121 1467.11 26.7198 Q1470.75 27.3274 1473.83 28.5427 Z" fill="#000000" fill-rule="nonzero" fill-opacity="1" /><path clip-path="url(#clip340)" d="M1488.13 27.2059 L1495.58 27.2059 L1495.58 72.576 L1488.13 72.576 L1488.13 27.2059 M1488.13 9.54393 L1495.58 9.54393 L1495.58 18.9825 L1488.13 18.9825 L1488.13 9.54393 Z" fill="#000000" fill-rule="nonzero" fill-opacity="1" /><path clip-path="url(#clip340)" d="M1541.03 49.3643 Q1541.03 41.2625 1537.67 36.8065 Q1534.35 32.3505 1528.31 32.3505 Q1522.32 32.3505 1518.96 36.8065 Q1515.64 41.2625 1515.64 49.3643 Q1515.64 57.4256 1518.96 61.8816 Q1522.32 66.3376 1528.31 66.3376 Q1534.35 66.3376 1537.67 61.8816 Q1541.03 57.4256 1541.03 49.3643 M1548.49 66.9452 Q1548.49 78.5308 1543.34 84.1616 Q1538.2 89.8329 1527.59 89.8329 Q1523.66 89.8329 1520.17 89.2252 Q1516.69 88.6581 1513.41 87.4428 L1513.41 80.1917 Q1516.69 81.9741 1519.89 82.8248 Q1523.09 83.6755 1526.41 83.6755 Q1533.74 83.6755 1537.39 79.8271 Q1541.03 76.0193 1541.03 68.282 L1541.03 64.5957 Q1538.73 68.6061 1535.12 70.5911 Q1531.52 72.576 1526.49 72.576 Q1518.15 72.576 1513.04 66.2161 Q1507.94 59.8562 1507.94 49.3643 Q1507.94 38.832 1513.04 32.472 Q1518.15 26.1121 1526.49 26.1121 Q1531.52 26.1121 1535.12 28.0971 Q1538.73 30.082 1541.03 34.0924 L1541.03 27.2059 L1548.49 27.2059 L1548.49 66.9452 Z" fill="#000000" fill-rule="nonzero" fill-opacity="1" /><path clip-path="url(#clip340)" d="M1599.17 35.9153 Q1601.96 30.8922 1605.85 28.5022 Q1609.74 26.1121 1615 26.1121 Q1622.09 26.1121 1625.94 31.0947 Q1629.79 36.0368 1629.79 45.1919 L1629.79 72.576 L1622.3 72.576 L1622.3 45.4349 Q1622.3 38.913 1619.99 35.7533 Q1617.68 32.5936 1612.94 32.5936 Q1607.15 32.5936 1603.78 36.4419 Q1600.42 40.2903 1600.42 46.9338 L1600.42 72.576 L1592.93 72.576 L1592.93 45.4349 Q1592.93 38.8725 1590.62 35.7533 Q1588.31 32.5936 1583.49 32.5936 Q1577.78 32.5936 1574.41 36.4824 Q1571.05 40.3308 1571.05 46.9338 L1571.05 72.576 L1563.56 72.576 L1563.56 27.2059 L1571.05 27.2059 L1571.05 34.2544 Q1573.6 30.082 1577.17 28.0971 Q1580.73 26.1121 1585.64 26.1121 Q1590.58 26.1121 1594.02 28.6237 Q1597.5 31.1352 1599.17 35.9153 Z" fill="#000000" fill-rule="nonzero" fill-opacity="1" /><path clip-path="url(#clip340)" d="M1665.28 49.7694 Q1656.24 49.7694 1652.76 51.8354 Q1649.27 53.9013 1649.27 58.8839 Q1649.27 62.8538 1651.87 65.2034 Q1654.5 67.5124 1659 67.5124 Q1665.2 67.5124 1668.92 63.1374 Q1672.69 58.7219 1672.69 51.4303 L1672.69 49.7694 L1665.28 49.7694 M1680.14 46.6907 L1680.14 72.576 L1672.69 72.576 L1672.69 65.6895 Q1670.14 69.8214 1666.33 71.8063 Q1662.52 73.7508 1657.01 73.7508 Q1650.04 73.7508 1645.91 69.8619 Q1641.82 65.9325 1641.82 59.3701 Q1641.82 51.7138 1646.93 47.825 Q1652.07 43.9361 1662.24 43.9361 L1672.69 43.9361 L1672.69 43.2069 Q1672.69 38.0623 1669.29 35.2672 Q1665.92 32.4315 1659.81 32.4315 Q1655.92 32.4315 1652.23 33.3632 Q1648.55 34.295 1645.14 36.1584 L1645.14 29.2718 Q1649.23 27.692 1653.08 26.9223 Q1656.93 26.1121 1660.58 26.1121 Q1670.42 26.1121 1675.28 31.2163 Q1680.14 36.3204 1680.14 46.6907 Z" fill="#000000" fill-rule="nonzero" fill-opacity="1" /><path clip-path="url(#clip340)" d="M1713.4 9.62495 Q1707.97 18.942 1705.34 28.0566 Q1702.71 37.1711 1702.71 46.5287 Q1702.71 55.8863 1705.34 65.0818 Q1708.01 74.2369 1713.4 83.5134 L1706.92 83.5134 Q1700.84 73.9938 1697.8 64.7983 Q1694.81 55.6027 1694.81 46.5287 Q1694.81 37.4952 1697.8 28.3401 Q1700.8 19.1851 1706.92 9.62495 L1713.4 9.62495 Z" fill="#000000" fill-rule="nonzero" fill-opacity="1" /><path clip-path="url(#clip340)" d="M1719.8 12.096 L1770.96 12.096 L1770.96 18.9825 L1749.49 18.9825 L1749.49 72.576 L1741.27 72.576 L1741.27 18.9825 L1719.8 18.9825 L1719.8 12.096 Z" fill="#000000" fill-rule="nonzero" fill-opacity="1" /><path clip-path="url(#clip340)" d="M1777.36 9.62495 L1783.85 9.62495 Q1789.92 19.1851 1792.92 28.3401 Q1795.96 37.4952 1795.96 46.5287 Q1795.96 55.6027 1792.92 64.7983 Q1789.92 73.9938 1783.85 83.5134 L1777.36 83.5134 Q1782.75 74.2369 1785.39 65.0818 Q1788.06 55.8863 1788.06 46.5287 Q1788.06 37.1711 1785.39 28.0566 Q1782.75 18.942 1777.36 9.62495 Z" fill="#000000" fill-rule="nonzero" fill-opacity="1" /><polyline clip-path="url(#clip342)" style="stroke:#009af9; stroke-linecap:round; stroke-linejoin:round; stroke-width:10; stroke-opacity:1; fill:none" points="338.375,160.256 345.36,160.259 352.345,160.264 359.329,160.27 366.314,160.278 373.299,160.288 380.283,160.3 387.268,160.313 394.253,160.33 401.237,160.348 408.222,160.369 415.207,160.393 422.191,160.419 429.176,160.449 436.161,160.481 443.145,160.517 450.13,160.556 457.115,160.599 464.099,160.646 471.084,160.696 478.069,160.752 485.053,160.811 492.038,160.876 499.023,160.945 506.007,161.02 512.992,161.1 519.977,161.185 526.961,161.277 533.946,161.375 540.931,161.48 547.915,161.591 554.9,161.71 561.885,161.836 568.87,161.97 575.854,162.112 582.839,162.262 589.824,162.422 596.808,162.59 603.793,162.769 610.778,162.958 617.762,163.157 624.747,163.368 631.732,163.59 638.716,163.825 645.701,164.072 652.686,164.333 659.67,164.609 666.655,164.899 673.64,165.204 680.624,165.526 687.609,165.865 694.594,166.222 701.578,166.597 708.563,166.991 715.548,167.404 722.532,167.839 729.517,168.295 736.502,168.772 743.486,169.273 750.471,169.797 757.456,170.345 764.44,170.918 771.425,171.517 778.41,172.142 785.394,172.795 792.379,173.475 799.364,174.184 806.349,174.923 813.333,175.692 820.318,176.491 827.303,177.323 834.287,178.187 841.272,179.084 848.257,180.015 855.241,180.981 862.226,181.983 869.211,183.021 876.195,184.097 883.18,185.21 890.165,186.363 897.149,187.556 904.134,188.789 911.119,190.064 918.103,191.382 925.088,192.743 932.073,194.149 939.057,195.6 946.042,197.098 953.027,198.642 960.011,200.236 966.996,201.878 973.981,203.572 980.965,205.316 987.95,207.114 994.935,208.965 1001.92,210.872 1008.9,212.834 1015.89,214.854 1022.87,216.933 1029.86,219.072 1036.84,221.272 1043.83,223.535 1050.81,225.862 1057.8,228.255 1064.78,230.715 1071.77,233.243 1078.75,235.841 1085.74,238.512 1092.72,241.256 1099.7,244.075 1106.69,246.972 1113.67,249.947 1120.66,253.004 1127.64,256.143 1134.63,259.368 1141.61,262.68 1148.6,266.081 1155.58,269.575 1162.57,273.163 1169.55,276.847 1176.54,280.632 1183.52,284.518 1190.51,288.51 1197.49,292.61 1204.48,296.822 1211.46,301.148 1218.44,305.593 1225.43,310.159 1232.41,314.852 1239.4,319.673 1246.38,324.629 1253.37,329.723 1260.35,334.96 1267.34,340.345 1274.32,345.884 1281.31,351.581 1288.29,357.442 1295.28,363.475 1302.26,369.685 1309.25,376.079 1316.23,382.665 1323.21,389.452 1330.2,396.447 1337.18,403.66 1344.17,411.101 1351.15,418.78 1358.14,426.71 1365.12,434.902 1372.11,443.371 1379.09,452.13 1386.08,461.197 1393.06,470.59 1400.05,480.326 1407.03,490.43 1414.02,500.923 1421,511.834 1427.98,523.193 1434.97,535.032 1441.95,547.392 1448.94,560.315 1455.92,573.852 1462.91,588.062 1469.89,603.015 1476.88,618.79 1483.86,635.486 1490.85,653.221 1497.83,672.14 1504.82,692.428 1511.8,714.317 1518.79,738.115 1525.77,764.237 1532.75,793.26 1539.74,826.016 1546.72,863.746 1553.71,908.294 1560.69,961.939 1567.68,1024.16 1574.66,1083.43 1581.65,1127.71 1588.63,1158.82 1595.62,1181.63 1602.6,1199.25 1609.59,1213.44 1616.57,1225.22 1623.56,1235.24 1630.54,1243.93 1637.53,1251.57 1644.51,1258.36 1651.49,1264.47 1658.48,1270.01 1665.46,1275.06 1672.45,1279.7 1679.43,1283.98 1686.42,1287.96 1693.4,1291.66 1700.39,1295.12 1707.37,1298.37 1714.36,1301.43 1721.34,1304.32 1728.33,1307.05 1735.31,1309.63 1742.3,1312.1 1749.28,1314.44 1756.26,1316.67 1763.25,1318.81 1770.23,1320.86 1777.22,1322.82 1784.2,1324.7 1791.19,1326.51 1798.17,1328.25 1805.16,1329.93 1812.14,1331.54 1819.13,1333.11 1826.11,1334.62 1833.1,1336.08 1840.08,1337.49 1847.07,1338.86 1854.05,1340.19 1861.03,1341.49 1868.02,1342.74 1875,1343.96 1881.99,1345.15 1888.97,1346.3 1895.96,1347.43 1902.94,1348.52 1909.93,1349.59 1916.91,1350.64 1923.9,1351.65 1930.88,1352.65 1937.87,1353.62 1944.85,1354.57 1951.84,1355.5 1958.82,1356.41 1965.8,1357.31 1972.79,1358.18 1979.77,1359.03 1986.76,1359.87 1993.74,1360.7 2000.73,1361.5 2007.71,1362.29 2014.7,1363.07 2021.68,1363.84 2028.67,1364.59 2035.65,1365.32 2042.64,1366.05 2049.62,1366.76 2056.61,1367.46 2063.59,1368.15 2070.57,1368.83 2077.56,1369.5 2084.54,1370.16 2091.53,1370.81 2098.51,1371.45 2105.5,1372.08 2112.48,1372.7 2119.47,1373.31 2126.45,1373.91 2133.44,1374.51 2140.42,1375.1 2147.41,1375.68 2154.39,1376.25 2161.38,1376.81 2168.36,1377.37 2175.35,1377.92 2182.33,1378.47 2189.31,1379 2196.3,1379.53 2203.28,1380.06 2210.27,1380.58 2217.25,1381.09 2224.24,1381.6 2231.22,1382.1 2238.21,1382.6 2245.19,1383.09 2252.18,1383.58 2259.16,1384.06 2266.15,1384.54 2273.13,1385.01 2280.12,1385.47 2287.1,1385.94 2294.08,1386.4 "/>
<path clip-path="url(#clip340)" d="M1554.62 270.476 L2283.65 270.476 L2283.65 166.796 L1554.62 166.796  Z" fill="#ffffff" fill-rule="evenodd" fill-opacity="1"/>
<polyline clip-path="url(#clip340)" style="stroke:#000000; stroke-linecap:round; stroke-linejoin:round; stroke-width:4; stroke-opacity:1; fill:none" points="1554.62,270.476 2283.65,270.476 2283.65,166.796 1554.62,166.796 1554.62,270.476 "/>
<polyline clip-path="url(#clip340)" style="stroke:#009af9; stroke-linecap:round; stroke-linejoin:round; stroke-width:10; stroke-opacity:1; fill:none" points="1577.65,218.636 1715.85,218.636 "/>
<path clip-path="url(#clip340)" d="M1738.89 201.356 L1758.75 201.356 L1758.75 205.291 L1743.56 205.291 L1743.56 215.476 L1757.27 215.476 L1757.27 219.411 L1743.56 219.411 L1743.56 235.916 L1738.89 235.916 L1738.89 201.356 Z" fill="#000000" fill-rule="nonzero" fill-opacity="1" /><path clip-path="url(#clip340)" d="M1762.52 209.99 L1766.78 209.99 L1766.78 235.916 L1762.52 235.916 L1762.52 209.99 M1762.52 199.897 L1766.78 199.897 L1766.78 205.291 L1762.52 205.291 L1762.52 199.897 Z" fill="#000000" fill-rule="nonzero" fill-opacity="1" /><path clip-path="url(#clip340)" d="M1792.75 222.652 Q1792.75 218.022 1790.83 215.476 Q1788.93 212.93 1785.48 212.93 Q1782.06 212.93 1780.14 215.476 Q1778.24 218.022 1778.24 222.652 Q1778.24 227.258 1780.14 229.805 Q1782.06 232.351 1785.48 232.351 Q1788.93 232.351 1790.83 229.805 Q1792.75 227.258 1792.75 222.652 M1797.01 232.698 Q1797.01 239.318 1794.07 242.536 Q1791.13 245.777 1785.07 245.777 Q1782.82 245.777 1780.83 245.43 Q1778.84 245.105 1776.97 244.411 L1776.97 240.268 Q1778.84 241.286 1780.67 241.772 Q1782.5 242.258 1784.4 242.258 Q1788.59 242.258 1790.67 240.059 Q1792.75 237.883 1792.75 233.462 L1792.75 231.356 Q1791.43 233.647 1789.37 234.781 Q1787.31 235.916 1784.44 235.916 Q1779.67 235.916 1776.76 232.281 Q1773.84 228.647 1773.84 222.652 Q1773.84 216.633 1776.76 212.999 Q1779.67 209.365 1784.44 209.365 Q1787.31 209.365 1789.37 210.499 Q1791.43 211.633 1792.75 213.925 L1792.75 209.99 L1797.01 209.99 L1797.01 232.698 Z" fill="#000000" fill-rule="nonzero" fill-opacity="1" /><path clip-path="url(#clip340)" d="M1806.39 230.036 L1811.27 230.036 L1811.27 235.916 L1806.39 235.916 L1806.39 230.036 Z" fill="#000000" fill-rule="nonzero" fill-opacity="1" /><path clip-path="url(#clip340)" d="M1840.55 231.981 L1856.87 231.981 L1856.87 235.916 L1834.93 235.916 L1834.93 231.981 Q1837.59 229.226 1842.17 224.596 Q1846.78 219.944 1847.96 218.601 Q1850.21 216.078 1851.09 214.342 Q1851.99 212.583 1851.99 210.893 Q1851.99 208.138 1850.04 206.402 Q1848.12 204.666 1845.02 204.666 Q1842.82 204.666 1840.37 205.43 Q1837.94 206.194 1835.16 207.745 L1835.16 203.022 Q1837.98 201.888 1840.44 201.309 Q1842.89 200.731 1844.93 200.731 Q1850.3 200.731 1853.49 203.416 Q1856.69 206.101 1856.69 210.592 Q1856.69 212.721 1855.88 214.643 Q1855.09 216.541 1852.98 219.133 Q1852.4 219.805 1849.3 223.022 Q1846.2 226.217 1840.55 231.981 Z" fill="#000000" fill-rule="nonzero" fill-opacity="1" /><path clip-path="url(#clip340)" d="M1867.17 230.036 L1872.06 230.036 L1872.06 234.018 L1868.26 241.425 L1865.28 241.425 L1867.17 234.018 L1867.17 230.036 Z" fill="#000000" fill-rule="nonzero" fill-opacity="1" /><path clip-path="url(#clip340)" d="M1916.41 214.967 Q1918.01 212.096 1920.23 210.731 Q1922.45 209.365 1925.46 209.365 Q1929.51 209.365 1931.71 212.212 Q1933.91 215.036 1933.91 220.268 L1933.91 235.916 L1929.63 235.916 L1929.63 220.407 Q1929.63 216.68 1928.31 214.874 Q1926.99 213.069 1924.28 213.069 Q1920.97 213.069 1919.05 215.268 Q1917.13 217.467 1917.13 221.263 L1917.13 235.916 L1912.84 235.916 L1912.84 220.407 Q1912.84 216.657 1911.52 214.874 Q1910.21 213.069 1907.45 213.069 Q1904.19 213.069 1902.27 215.291 Q1900.34 217.49 1900.34 221.263 L1900.34 235.916 L1896.06 235.916 L1896.06 209.99 L1900.34 209.99 L1900.34 214.018 Q1901.8 211.633 1903.84 210.499 Q1905.88 209.365 1908.68 209.365 Q1911.5 209.365 1913.47 210.8 Q1915.46 212.235 1916.41 214.967 Z" fill="#000000" fill-rule="nonzero" fill-opacity="1" /><path clip-path="url(#clip340)" d="M1944.95 222.976 Q1944.95 227.675 1946.87 230.36 Q1948.82 233.022 1952.2 233.022 Q1955.58 233.022 1957.52 230.36 Q1959.46 227.675 1959.46 222.976 Q1959.46 218.277 1957.52 215.615 Q1955.58 212.93 1952.2 212.93 Q1948.82 212.93 1946.87 215.615 Q1944.95 218.277 1944.95 222.976 M1959.46 232.027 Q1958.12 234.342 1956.06 235.476 Q1954.02 236.587 1951.15 236.587 Q1946.46 236.587 1943.49 232.837 Q1940.55 229.087 1940.55 222.976 Q1940.55 216.865 1943.49 213.115 Q1946.46 209.365 1951.15 209.365 Q1954.02 209.365 1956.06 210.499 Q1958.12 211.61 1959.46 213.925 L1959.46 209.99 L1963.72 209.99 L1963.72 245.777 L1959.46 245.777 L1959.46 232.027 Z" fill="#000000" fill-rule="nonzero" fill-opacity="1" /><path clip-path="url(#clip340)" d="M1988.12 214.388 L2017.8 214.388 L2017.8 218.277 L1988.12 218.277 L1988.12 214.388 M1988.12 223.832 L2017.8 223.832 L2017.8 227.768 L1988.12 227.768 L1988.12 223.832 Z" fill="#000000" fill-rule="nonzero" fill-opacity="1" /><path clip-path="url(#clip340)" d="M2043.01 201.356 L2061.36 201.356 L2061.36 205.291 L2047.29 205.291 L2047.29 213.763 Q2048.31 213.416 2049.33 213.254 Q2050.34 213.069 2051.36 213.069 Q2057.15 213.069 2060.53 216.24 Q2063.91 219.411 2063.91 224.828 Q2063.91 230.406 2060.44 233.508 Q2056.96 236.587 2050.64 236.587 Q2048.47 236.587 2046.2 236.217 Q2043.95 235.846 2041.55 235.106 L2041.55 230.406 Q2043.63 231.541 2045.85 232.096 Q2048.08 232.652 2050.55 232.652 Q2054.56 232.652 2056.89 230.545 Q2059.23 228.439 2059.23 224.828 Q2059.23 221.217 2056.89 219.11 Q2054.56 217.004 2050.55 217.004 Q2048.68 217.004 2046.8 217.42 Q2044.95 217.837 2043.01 218.717 L2043.01 201.356 Z" fill="#000000" fill-rule="nonzero" fill-opacity="1" /><path clip-path="url(#clip340)" d="M2073.17 201.356 L2091.52 201.356 L2091.52 205.291 L2077.45 205.291 L2077.45 213.763 Q2078.47 213.416 2079.49 213.254 Q2080.51 213.069 2081.52 213.069 Q2087.31 213.069 2090.69 216.24 Q2094.07 219.411 2094.07 224.828 Q2094.07 230.406 2090.6 233.508 Q2087.13 236.587 2080.81 236.587 Q2078.63 236.587 2076.36 236.217 Q2074.12 235.846 2071.71 235.106 L2071.71 230.406 Q2073.79 231.541 2076.01 232.096 Q2078.24 232.652 2080.71 232.652 Q2084.72 232.652 2087.06 230.545 Q2089.39 228.439 2089.39 224.828 Q2089.39 221.217 2087.06 219.11 Q2084.72 217.004 2080.71 217.004 Q2078.84 217.004 2076.96 217.42 Q2075.11 217.837 2073.17 218.717 L2073.17 201.356 Z" fill="#000000" fill-rule="nonzero" fill-opacity="1" /><path clip-path="url(#clip340)" d="M2103.28 230.036 L2108.17 230.036 L2108.17 235.916 L2103.28 235.916 L2103.28 230.036 Z" fill="#000000" fill-rule="nonzero" fill-opacity="1" /><path clip-path="url(#clip340)" d="M2128.35 204.434 Q2124.74 204.434 2122.91 207.999 Q2121.11 211.541 2121.11 218.67 Q2121.11 225.777 2122.91 229.342 Q2124.74 232.883 2128.35 232.883 Q2131.99 232.883 2133.79 229.342 Q2135.62 225.777 2135.62 218.67 Q2135.62 211.541 2133.79 207.999 Q2131.99 204.434 2128.35 204.434 M2128.35 200.731 Q2134.16 200.731 2137.22 205.337 Q2140.3 209.92 2140.3 218.67 Q2140.3 227.397 2137.22 232.004 Q2134.16 236.587 2128.35 236.587 Q2122.54 236.587 2119.46 232.004 Q2116.41 227.397 2116.41 218.67 Q2116.41 209.92 2119.46 205.337 Q2122.54 200.731 2128.35 200.731 Z" fill="#000000" fill-rule="nonzero" fill-opacity="1" /><path clip-path="url(#clip340)" d="M2163.17 201.356 L2170.13 201.356 L2178.95 224.874 L2187.82 201.356 L2194.79 201.356 L2194.79 235.916 L2190.23 235.916 L2190.23 205.569 L2181.32 229.272 L2176.62 229.272 L2167.7 205.569 L2167.7 235.916 L2163.17 235.916 L2163.17 201.356 Z" fill="#000000" fill-rule="nonzero" fill-opacity="1" /><path clip-path="url(#clip340)" d="M2226.06 221.888 L2226.06 223.971 L2206.48 223.971 Q2206.75 228.369 2209.12 230.684 Q2211.5 232.976 2215.74 232.976 Q2218.19 232.976 2220.48 232.374 Q2222.8 231.772 2225.06 230.569 L2225.06 234.596 Q2222.77 235.568 2220.37 236.078 Q2217.96 236.587 2215.48 236.587 Q2209.28 236.587 2205.64 232.976 Q2202.03 229.365 2202.03 223.207 Q2202.03 216.842 2205.46 213.115 Q2208.91 209.365 2214.74 209.365 Q2219.97 209.365 2223 212.745 Q2226.06 216.101 2226.06 221.888 M2221.8 220.638 Q2221.75 217.143 2219.83 215.059 Q2217.94 212.976 2214.79 212.976 Q2211.22 212.976 2209.07 214.99 Q2206.94 217.004 2206.62 220.661 L2221.8 220.638 Z" fill="#000000" fill-rule="nonzero" fill-opacity="1" /><path clip-path="url(#clip340)" d="M2242.15 235.916 L2228.95 201.356 L2233.84 201.356 L2244.79 230.453 L2255.76 201.356 L2260.62 201.356 L2247.45 235.916 L2242.15 235.916 Z" fill="#000000" fill-rule="nonzero" fill-opacity="1" /></svg>
