<?xml version="1.0" encoding="utf-8"?>
<svg xmlns="http://www.w3.org/2000/svg" xmlns:xlink="http://www.w3.org/1999/xlink" width="600" height="400" viewBox="0 0 2400 1600">
<defs>
  <clipPath id="clip630">
    <rect x="0" y="0" width="2400" height="1600"/>
  </clipPath>
</defs>
<path clip-path="url(#clip630)" d="M0 1600 L2400 1600 L2400 0 L0 0  Z" fill="#ffffff" fill-rule="evenodd" fill-opacity="1"/>
<defs>
  <clipPath id="clip631">
    <rect x="249" y="123" width="2104" height="1301"/>
  </clipPath>
</defs>
<path clip-path="url(#clip630)" d="M249.542 1423.18 L2352.76 1423.18 L2352.76 123.472 L249.542 123.472  Z" fill="#ffffff" fill-rule="evenodd" fill-opacity="1"/>
<polyline clip-path="url(#clip631)" style="stroke:#000000; stroke-linecap:round; stroke-linejoin:round; stroke-width:2; stroke-opacity:0.1; fill:none" points="521.656,1423.18 521.656,123.472 "/>
<polyline clip-path="url(#clip631)" style="stroke:#000000; stroke-linecap:round; stroke-linejoin:round; stroke-width:2; stroke-opacity:0.1; fill:none" points="875.971,1423.18 875.971,123.472 "/>
<polyline clip-path="url(#clip631)" style="stroke:#000000; stroke-linecap:round; stroke-linejoin:round; stroke-width:2; stroke-opacity:0.1; fill:none" points="1230.29,1423.18 1230.29,123.472 "/>
<polyline clip-path="url(#clip631)" style="stroke:#000000; stroke-linecap:round; stroke-linejoin:round; stroke-width:2; stroke-opacity:0.1; fill:none" points="1584.6,1423.18 1584.6,123.472 "/>
<polyline clip-path="url(#clip631)" style="stroke:#000000; stroke-linecap:round; stroke-linejoin:round; stroke-width:2; stroke-opacity:0.1; fill:none" points="1938.92,1423.18 1938.92,123.472 "/>
<polyline clip-path="url(#clip631)" style="stroke:#000000; stroke-linecap:round; stroke-linejoin:round; stroke-width:2; stroke-opacity:0.1; fill:none" points="2293.23,1423.18 2293.23,123.472 "/>
<polyline clip-path="url(#clip631)" style="stroke:#000000; stroke-linecap:round; stroke-linejoin:round; stroke-width:2; stroke-opacity:0.1; fill:none" points="249.542,1385.07 2352.76,1385.07 "/>
<polyline clip-path="url(#clip631)" style="stroke:#000000; stroke-linecap:round; stroke-linejoin:round; stroke-width:2; stroke-opacity:0.1; fill:none" points="249.542,1036.08 2352.76,1036.08 "/>
<polyline clip-path="url(#clip631)" style="stroke:#000000; stroke-linecap:round; stroke-linejoin:round; stroke-width:2; stroke-opacity:0.1; fill:none" points="249.542,687.089 2352.76,687.089 "/>
<polyline clip-path="url(#clip631)" style="stroke:#000000; stroke-linecap:round; stroke-linejoin:round; stroke-width:2; stroke-opacity:0.1; fill:none" points="249.542,338.097 2352.76,338.097 "/>
<polyline clip-path="url(#clip630)" style="stroke:#000000; stroke-linecap:round; stroke-linejoin:round; stroke-width:4; stroke-opacity:1; fill:none" points="249.542,1423.18 2352.76,1423.18 "/>
<polyline clip-path="url(#clip630)" style="stroke:#000000; stroke-linecap:round; stroke-linejoin:round; stroke-width:4; stroke-opacity:1; fill:none" points="521.656,1423.18 521.656,1404.28 "/>
<polyline clip-path="url(#clip630)" style="stroke:#000000; stroke-linecap:round; stroke-linejoin:round; stroke-width:4; stroke-opacity:1; fill:none" points="875.971,1423.18 875.971,1404.28 "/>
<polyline clip-path="url(#clip630)" style="stroke:#000000; stroke-linecap:round; stroke-linejoin:round; stroke-width:4; stroke-opacity:1; fill:none" points="1230.29,1423.18 1230.29,1404.28 "/>
<polyline clip-path="url(#clip630)" style="stroke:#000000; stroke-linecap:round; stroke-linejoin:round; stroke-width:4; stroke-opacity:1; fill:none" points="1584.6,1423.18 1584.6,1404.28 "/>
<polyline clip-path="url(#clip630)" style="stroke:#000000; stroke-linecap:round; stroke-linejoin:round; stroke-width:4; stroke-opacity:1; fill:none" points="1938.92,1423.18 1938.92,1404.28 "/>
<polyline clip-path="url(#clip630)" style="stroke:#000000; stroke-linecap:round; stroke-linejoin:round; stroke-width:4; stroke-opacity:1; fill:none" points="2293.23,1423.18 2293.23,1404.28 "/>
<path clip-path="url(#clip630)" d="M496.355 1451.02 L514.712 1451.02 L514.712 1454.96 L500.638 1454.96 L500.638 1463.43 Q501.656 1463.08 502.675 1462.92 Q503.693 1462.73 504.712 1462.73 Q510.499 1462.73 513.878 1465.9 Q517.258 1469.08 517.258 1474.49 Q517.258 1480.07 513.786 1483.17 Q510.313 1486.25 503.994 1486.25 Q501.818 1486.25 499.55 1485.88 Q497.304 1485.51 494.897 1484.77 L494.897 1480.07 Q496.98 1481.2 499.202 1481.76 Q501.425 1482.32 503.901 1482.32 Q507.906 1482.32 510.244 1480.21 Q512.582 1478.1 512.582 1474.49 Q512.582 1470.88 510.244 1468.77 Q507.906 1466.67 503.901 1466.67 Q502.026 1466.67 500.151 1467.08 Q498.3 1467.5 496.355 1468.38 L496.355 1451.02 Z" fill="#000000" fill-rule="nonzero" fill-opacity="1" /><path clip-path="url(#clip630)" d="M536.471 1454.1 Q532.86 1454.1 531.031 1457.66 Q529.225 1461.2 529.225 1468.33 Q529.225 1475.44 531.031 1479.01 Q532.86 1482.55 536.471 1482.55 Q540.105 1482.55 541.91 1479.01 Q543.739 1475.44 543.739 1468.33 Q543.739 1461.2 541.91 1457.66 Q540.105 1454.1 536.471 1454.1 M536.471 1450.39 Q542.281 1450.39 545.336 1455 Q548.415 1459.58 548.415 1468.33 Q548.415 1477.06 545.336 1481.67 Q542.281 1486.25 536.471 1486.25 Q530.661 1486.25 527.582 1481.67 Q524.526 1477.06 524.526 1468.33 Q524.526 1459.58 527.582 1455 Q530.661 1450.39 536.471 1450.39 Z" fill="#000000" fill-rule="nonzero" fill-opacity="1" /><path clip-path="url(#clip630)" d="M835.578 1481.64 L843.217 1481.64 L843.217 1455.28 L834.906 1456.95 L834.906 1452.69 L843.17 1451.02 L847.846 1451.02 L847.846 1481.64 L855.485 1481.64 L855.485 1485.58 L835.578 1485.58 L835.578 1481.64 Z" fill="#000000" fill-rule="nonzero" fill-opacity="1" /><path clip-path="url(#clip630)" d="M874.929 1454.1 Q871.318 1454.1 869.49 1457.66 Q867.684 1461.2 867.684 1468.33 Q867.684 1475.44 869.49 1479.01 Q871.318 1482.55 874.929 1482.55 Q878.564 1482.55 880.369 1479.01 Q882.198 1475.44 882.198 1468.33 Q882.198 1461.2 880.369 1457.66 Q878.564 1454.1 874.929 1454.1 M874.929 1450.39 Q880.739 1450.39 883.795 1455 Q886.874 1459.58 886.874 1468.33 Q886.874 1477.06 883.795 1481.67 Q880.739 1486.25 874.929 1486.25 Q869.119 1486.25 866.04 1481.67 Q862.985 1477.06 862.985 1468.33 Q862.985 1459.58 866.04 1455 Q869.119 1450.39 874.929 1450.39 Z" fill="#000000" fill-rule="nonzero" fill-opacity="1" /><path clip-path="url(#clip630)" d="M905.091 1454.1 Q901.48 1454.1 899.651 1457.66 Q897.846 1461.2 897.846 1468.33 Q897.846 1475.44 899.651 1479.01 Q901.48 1482.55 905.091 1482.55 Q908.725 1482.55 910.531 1479.01 Q912.36 1475.44 912.36 1468.33 Q912.36 1461.2 910.531 1457.66 Q908.725 1454.1 905.091 1454.1 M905.091 1450.39 Q910.901 1450.39 913.957 1455 Q917.036 1459.58 917.036 1468.33 Q917.036 1477.06 913.957 1481.67 Q910.901 1486.25 905.091 1486.25 Q899.281 1486.25 896.202 1481.67 Q893.147 1477.06 893.147 1468.33 Q893.147 1459.58 896.202 1455 Q899.281 1450.39 905.091 1450.39 Z" fill="#000000" fill-rule="nonzero" fill-opacity="1" /><path clip-path="url(#clip630)" d="M1189.89 1481.64 L1197.53 1481.64 L1197.53 1455.28 L1189.22 1456.95 L1189.22 1452.69 L1197.49 1451.02 L1202.16 1451.02 L1202.16 1481.64 L1209.8 1481.64 L1209.8 1485.58 L1189.89 1485.58 L1189.89 1481.64 Z" fill="#000000" fill-rule="nonzero" fill-opacity="1" /><path clip-path="url(#clip630)" d="M1219.29 1451.02 L1237.65 1451.02 L1237.65 1454.96 L1223.57 1454.96 L1223.57 1463.43 Q1224.59 1463.08 1225.61 1462.92 Q1226.63 1462.73 1227.65 1462.73 Q1233.43 1462.73 1236.81 1465.9 Q1240.19 1469.08 1240.19 1474.49 Q1240.19 1480.07 1236.72 1483.17 Q1233.25 1486.25 1226.93 1486.25 Q1224.75 1486.25 1222.49 1485.88 Q1220.24 1485.51 1217.83 1484.77 L1217.83 1480.07 Q1219.92 1481.2 1222.14 1481.76 Q1224.36 1482.32 1226.84 1482.32 Q1230.84 1482.32 1233.18 1480.21 Q1235.52 1478.1 1235.52 1474.49 Q1235.52 1470.88 1233.18 1468.77 Q1230.84 1466.67 1226.84 1466.67 Q1224.96 1466.67 1223.09 1467.08 Q1221.24 1467.5 1219.29 1468.38 L1219.29 1451.02 Z" fill="#000000" fill-rule="nonzero" fill-opacity="1" /><path clip-path="url(#clip630)" d="M1259.41 1454.1 Q1255.8 1454.1 1253.97 1457.66 Q1252.16 1461.2 1252.16 1468.33 Q1252.16 1475.44 1253.97 1479.01 Q1255.8 1482.55 1259.41 1482.55 Q1263.04 1482.55 1264.85 1479.01 Q1266.67 1475.44 1266.67 1468.33 Q1266.67 1461.2 1264.85 1457.66 Q1263.04 1454.1 1259.41 1454.1 M1259.41 1450.39 Q1265.22 1450.39 1268.27 1455 Q1271.35 1459.58 1271.35 1468.33 Q1271.35 1477.06 1268.27 1481.67 Q1265.22 1486.25 1259.41 1486.25 Q1253.6 1486.25 1250.52 1481.67 Q1247.46 1477.06 1247.46 1468.33 Q1247.46 1459.58 1250.52 1455 Q1253.6 1450.39 1259.41 1450.39 Z" fill="#000000" fill-rule="nonzero" fill-opacity="1" /><path clip-path="url(#clip630)" d="M1548.29 1481.64 L1564.61 1481.64 L1564.61 1485.58 L1542.67 1485.58 L1542.67 1481.64 Q1545.33 1478.89 1549.91 1474.26 Q1554.52 1469.61 1555.7 1468.27 Q1557.95 1465.74 1558.83 1464.01 Q1559.73 1462.25 1559.73 1460.56 Q1559.73 1457.8 1557.78 1456.07 Q1555.86 1454.33 1552.76 1454.33 Q1550.56 1454.33 1548.11 1455.09 Q1545.68 1455.86 1542.9 1457.41 L1542.9 1452.69 Q1545.72 1451.55 1548.18 1450.97 Q1550.63 1450.39 1552.67 1450.39 Q1558.04 1450.39 1561.23 1453.08 Q1564.43 1455.77 1564.43 1460.26 Q1564.43 1462.39 1563.62 1464.31 Q1562.83 1466.2 1560.72 1468.8 Q1560.15 1469.47 1557.04 1472.69 Q1553.94 1475.88 1548.29 1481.64 Z" fill="#000000" fill-rule="nonzero" fill-opacity="1" /><path clip-path="url(#clip630)" d="M1584.43 1454.1 Q1580.82 1454.1 1578.99 1457.66 Q1577.18 1461.2 1577.18 1468.33 Q1577.18 1475.44 1578.99 1479.01 Q1580.82 1482.55 1584.43 1482.55 Q1588.06 1482.55 1589.87 1479.01 Q1591.7 1475.44 1591.7 1468.33 Q1591.7 1461.2 1589.87 1457.66 Q1588.06 1454.1 1584.43 1454.1 M1584.43 1450.39 Q1590.24 1450.39 1593.29 1455 Q1596.37 1459.58 1596.37 1468.33 Q1596.37 1477.06 1593.29 1481.67 Q1590.24 1486.25 1584.43 1486.25 Q1578.62 1486.25 1575.54 1481.67 Q1572.48 1477.06 1572.48 1468.33 Q1572.48 1459.58 1575.54 1455 Q1578.62 1450.39 1584.43 1450.39 Z" fill="#000000" fill-rule="nonzero" fill-opacity="1" /><path clip-path="url(#clip630)" d="M1614.59 1454.1 Q1610.98 1454.1 1609.15 1457.66 Q1607.34 1461.2 1607.34 1468.33 Q1607.34 1475.44 1609.15 1479.01 Q1610.98 1482.55 1614.59 1482.55 Q1618.22 1482.55 1620.03 1479.01 Q1621.86 1475.44 1621.86 1468.33 Q1621.86 1461.2 1620.03 1457.66 Q1618.22 1454.1 1614.59 1454.1 M1614.59 1450.39 Q1620.4 1450.39 1623.45 1455 Q1626.53 1459.58 1626.53 1468.33 Q1626.53 1477.06 1623.45 1481.67 Q1620.4 1486.25 1614.59 1486.25 Q1608.78 1486.25 1605.7 1481.67 Q1602.64 1477.06 1602.64 1468.33 Q1602.64 1459.58 1605.7 1455 Q1608.78 1450.39 1614.59 1450.39 Z" fill="#000000" fill-rule="nonzero" fill-opacity="1" /><path clip-path="url(#clip630)" d="M1902.61 1481.64 L1918.93 1481.64 L1918.93 1485.58 L1896.98 1485.58 L1896.98 1481.64 Q1899.65 1478.89 1904.23 1474.26 Q1908.84 1469.61 1910.02 1468.27 Q1912.26 1465.74 1913.14 1464.01 Q1914.04 1462.25 1914.04 1460.56 Q1914.04 1457.8 1912.1 1456.07 Q1910.18 1454.33 1907.08 1454.33 Q1904.88 1454.33 1902.42 1455.09 Q1899.99 1455.86 1897.21 1457.41 L1897.21 1452.69 Q1900.04 1451.55 1902.49 1450.97 Q1904.95 1450.39 1906.98 1450.39 Q1912.35 1450.39 1915.55 1453.08 Q1918.74 1455.77 1918.74 1460.26 Q1918.74 1462.39 1917.93 1464.31 Q1917.15 1466.2 1915.04 1468.8 Q1914.46 1469.47 1911.36 1472.69 Q1908.26 1475.88 1902.61 1481.64 Z" fill="#000000" fill-rule="nonzero" fill-opacity="1" /><path clip-path="url(#clip630)" d="M1928.79 1451.02 L1947.15 1451.02 L1947.15 1454.96 L1933.07 1454.96 L1933.07 1463.43 Q1934.09 1463.08 1935.11 1462.92 Q1936.13 1462.73 1937.15 1462.73 Q1942.93 1462.73 1946.31 1465.9 Q1949.69 1469.08 1949.69 1474.49 Q1949.69 1480.07 1946.22 1483.17 Q1942.75 1486.25 1936.43 1486.25 Q1934.25 1486.25 1931.98 1485.88 Q1929.74 1485.51 1927.33 1484.77 L1927.33 1480.07 Q1929.41 1481.2 1931.64 1481.76 Q1933.86 1482.32 1936.33 1482.32 Q1940.34 1482.32 1942.68 1480.21 Q1945.02 1478.1 1945.02 1474.49 Q1945.02 1470.88 1942.68 1468.77 Q1940.34 1466.67 1936.33 1466.67 Q1934.46 1466.67 1932.58 1467.08 Q1930.73 1467.5 1928.79 1468.38 L1928.79 1451.02 Z" fill="#000000" fill-rule="nonzero" fill-opacity="1" /><path clip-path="url(#clip630)" d="M1968.9 1454.1 Q1965.29 1454.1 1963.46 1457.66 Q1961.66 1461.2 1961.66 1468.33 Q1961.66 1475.44 1963.46 1479.01 Q1965.29 1482.55 1968.9 1482.55 Q1972.54 1482.55 1974.34 1479.01 Q1976.17 1475.44 1976.17 1468.33 Q1976.17 1461.2 1974.34 1457.66 Q1972.54 1454.1 1968.9 1454.1 M1968.9 1450.39 Q1974.71 1450.39 1977.77 1455 Q1980.85 1459.58 1980.85 1468.33 Q1980.85 1477.06 1977.77 1481.67 Q1974.71 1486.25 1968.9 1486.25 Q1963.09 1486.25 1960.02 1481.67 Q1956.96 1477.06 1956.96 1468.33 Q1956.96 1459.58 1960.02 1455 Q1963.09 1450.39 1968.9 1450.39 Z" fill="#000000" fill-rule="nonzero" fill-opacity="1" /><path clip-path="url(#clip630)" d="M2266.99 1466.95 Q2270.35 1467.66 2272.22 1469.93 Q2274.12 1472.2 2274.12 1475.53 Q2274.12 1480.65 2270.6 1483.45 Q2267.09 1486.25 2260.6 1486.25 Q2258.43 1486.25 2256.11 1485.81 Q2253.82 1485.39 2251.37 1484.54 L2251.37 1480.02 Q2253.31 1481.16 2255.63 1481.74 Q2257.94 1482.32 2260.46 1482.32 Q2264.86 1482.32 2267.15 1480.58 Q2269.47 1478.84 2269.47 1475.53 Q2269.47 1472.48 2267.32 1470.77 Q2265.19 1469.03 2261.37 1469.03 L2257.34 1469.03 L2257.34 1465.19 L2261.55 1465.19 Q2265 1465.19 2266.83 1463.82 Q2268.66 1462.43 2268.66 1459.84 Q2268.66 1457.18 2266.76 1455.77 Q2264.89 1454.33 2261.37 1454.33 Q2259.45 1454.33 2257.25 1454.75 Q2255.05 1455.16 2252.41 1456.04 L2252.41 1451.88 Q2255.07 1451.14 2257.39 1450.77 Q2259.72 1450.39 2261.78 1450.39 Q2267.11 1450.39 2270.21 1452.83 Q2273.31 1455.23 2273.31 1459.35 Q2273.31 1462.22 2271.67 1464.21 Q2270.03 1466.18 2266.99 1466.95 Z" fill="#000000" fill-rule="nonzero" fill-opacity="1" /><path clip-path="url(#clip630)" d="M2292.99 1454.1 Q2289.38 1454.1 2287.55 1457.66 Q2285.74 1461.2 2285.74 1468.33 Q2285.74 1475.44 2287.55 1479.01 Q2289.38 1482.55 2292.99 1482.55 Q2296.62 1482.55 2298.43 1479.01 Q2300.26 1475.44 2300.26 1468.33 Q2300.26 1461.2 2298.43 1457.66 Q2296.62 1454.1 2292.99 1454.1 M2292.99 1450.39 Q2298.8 1450.39 2301.85 1455 Q2304.93 1459.58 2304.93 1468.33 Q2304.93 1477.06 2301.85 1481.67 Q2298.8 1486.25 2292.99 1486.25 Q2287.18 1486.25 2284.1 1481.67 Q2281.04 1477.06 2281.04 1468.33 Q2281.04 1459.58 2284.1 1455 Q2287.18 1450.39 2292.99 1450.39 Z" fill="#000000" fill-rule="nonzero" fill-opacity="1" /><path clip-path="url(#clip630)" d="M2323.15 1454.1 Q2319.54 1454.1 2317.71 1457.66 Q2315.9 1461.2 2315.9 1468.33 Q2315.9 1475.44 2317.71 1479.01 Q2319.54 1482.55 2323.15 1482.55 Q2326.78 1482.55 2328.59 1479.01 Q2330.42 1475.44 2330.42 1468.33 Q2330.42 1461.2 2328.59 1457.66 Q2326.78 1454.1 2323.15 1454.1 M2323.15 1450.39 Q2328.96 1450.39 2332.02 1455 Q2335.09 1459.58 2335.09 1468.33 Q2335.09 1477.06 2332.02 1481.67 Q2328.96 1486.25 2323.15 1486.25 Q2317.34 1486.25 2314.26 1481.67 Q2311.21 1477.06 2311.21 1468.33 Q2311.21 1459.58 2314.26 1455 Q2317.34 1450.39 2323.15 1450.39 Z" fill="#000000" fill-rule="nonzero" fill-opacity="1" /><path clip-path="url(#clip630)" d="M1177.69 1520.52 L1217.89 1520.52 L1217.89 1525.93 L1201.02 1525.93 L1201.02 1568.04 L1194.56 1568.04 L1194.56 1525.93 L1177.69 1525.93 L1177.69 1520.52 Z" fill="#000000" fill-rule="nonzero" fill-opacity="1" /><path clip-path="url(#clip630)" d="M1244.02 1518.52 L1257.51 1518.52 L1257.51 1523.07 L1249.87 1523.07 L1249.87 1572.09 L1257.51 1572.09 L1257.51 1576.64 L1244.02 1576.64 L1244.02 1518.52 Z" fill="#000000" fill-rule="nonzero" fill-opacity="1" /><path clip-path="url(#clip630)" d="M1270.24 1520.52 L1279.82 1520.52 L1291.95 1552.86 L1304.14 1520.52 L1313.72 1520.52 L1313.72 1568.04 L1307.45 1568.04 L1307.45 1526.32 L1295.2 1558.91 L1288.74 1558.91 L1276.48 1526.32 L1276.48 1568.04 L1270.24 1568.04 L1270.24 1520.52 Z" fill="#000000" fill-rule="nonzero" fill-opacity="1" /><path clip-path="url(#clip630)" d="M1356.72 1548.76 L1356.72 1551.62 L1329.79 1551.62 Q1330.18 1557.67 1333.42 1560.85 Q1336.7 1564 1342.53 1564 Q1345.9 1564 1349.05 1563.17 Q1352.23 1562.35 1355.35 1560.69 L1355.35 1566.23 Q1352.2 1567.57 1348.89 1568.27 Q1345.58 1568.97 1342.18 1568.97 Q1333.65 1568.97 1328.65 1564 Q1323.68 1559.04 1323.68 1550.57 Q1323.68 1541.82 1328.39 1536.69 Q1333.14 1531.54 1341.16 1531.54 Q1348.35 1531.54 1352.52 1536.18 Q1356.72 1540.8 1356.72 1548.76 M1350.87 1547.04 Q1350.8 1542.23 1348.16 1539.37 Q1345.55 1536.5 1341.22 1536.5 Q1336.32 1536.5 1333.36 1539.27 Q1330.43 1542.04 1329.99 1547.07 L1350.87 1547.04 Z" fill="#000000" fill-rule="nonzero" fill-opacity="1" /><path clip-path="url(#clip630)" d="M1378.84 1568.04 L1360.7 1520.52 L1367.42 1520.52 L1382.47 1560.53 L1397.56 1520.52 L1404.24 1520.52 L1386.13 1568.04 L1378.84 1568.04 Z" fill="#000000" fill-rule="nonzero" fill-opacity="1" /><path clip-path="url(#clip630)" d="M1424.61 1518.52 L1424.61 1576.64 L1411.12 1576.64 L1411.12 1572.09 L1418.72 1572.09 L1418.72 1523.07 L1411.12 1523.07 L1411.12 1518.52 L1424.61 1518.52 Z" fill="#000000" fill-rule="nonzero" fill-opacity="1" /><polyline clip-path="url(#clip630)" style="stroke:#000000; stroke-linecap:round; stroke-linejoin:round; stroke-width:4; stroke-opacity:1; fill:none" points="249.542,1423.18 249.542,123.472 "/>
<polyline clip-path="url(#clip630)" style="stroke:#000000; stroke-linecap:round; stroke-linejoin:round; stroke-width:4; stroke-opacity:1; fill:none" points="249.542,1385.07 268.44,1385.07 "/>
<polyline clip-path="url(#clip630)" style="stroke:#000000; stroke-linecap:round; stroke-linejoin:round; stroke-width:4; stroke-opacity:1; fill:none" points="249.542,1036.08 268.44,1036.08 "/>
<polyline clip-path="url(#clip630)" style="stroke:#000000; stroke-linecap:round; stroke-linejoin:round; stroke-width:4; stroke-opacity:1; fill:none" points="249.542,687.089 268.44,687.089 "/>
<polyline clip-path="url(#clip630)" style="stroke:#000000; stroke-linecap:round; stroke-linejoin:round; stroke-width:4; stroke-opacity:1; fill:none" points="249.542,338.097 268.44,338.097 "/>
<path clip-path="url(#clip630)" d="M126.205 1370.87 Q122.593 1370.87 120.765 1374.44 Q118.959 1377.98 118.959 1385.11 Q118.959 1392.21 120.765 1395.78 Q122.593 1399.32 126.205 1399.32 Q129.839 1399.32 131.644 1395.78 Q133.473 1392.21 133.473 1385.11 Q133.473 1377.98 131.644 1374.44 Q129.839 1370.87 126.205 1370.87 M126.205 1367.17 Q132.015 1367.17 135.07 1371.77 Q138.149 1376.36 138.149 1385.11 Q138.149 1393.83 135.07 1398.44 Q132.015 1403.02 126.205 1403.02 Q120.394 1403.02 117.316 1398.44 Q114.26 1393.83 114.26 1385.11 Q114.26 1376.36 117.316 1371.77 Q120.394 1367.17 126.205 1367.17 Z" fill="#000000" fill-rule="nonzero" fill-opacity="1" /><path clip-path="url(#clip630)" d="M146.366 1396.47 L151.251 1396.47 L151.251 1402.35 L146.366 1402.35 L146.366 1396.47 Z" fill="#000000" fill-rule="nonzero" fill-opacity="1" /><path clip-path="url(#clip630)" d="M171.436 1370.87 Q167.825 1370.87 165.996 1374.44 Q164.19 1377.98 164.19 1385.11 Q164.19 1392.21 165.996 1395.78 Q167.825 1399.32 171.436 1399.32 Q175.07 1399.32 176.876 1395.78 Q178.704 1392.21 178.704 1385.11 Q178.704 1377.98 176.876 1374.44 Q175.07 1370.87 171.436 1370.87 M171.436 1367.17 Q177.246 1367.17 180.301 1371.77 Q183.38 1376.36 183.38 1385.11 Q183.38 1393.83 180.301 1398.44 Q177.246 1403.02 171.436 1403.02 Q165.626 1403.02 162.547 1398.44 Q159.491 1393.83 159.491 1385.11 Q159.491 1376.36 162.547 1371.77 Q165.626 1367.17 171.436 1367.17 Z" fill="#000000" fill-rule="nonzero" fill-opacity="1" /><path clip-path="url(#clip630)" d="M201.598 1370.87 Q197.987 1370.87 196.158 1374.44 Q194.352 1377.98 194.352 1385.11 Q194.352 1392.21 196.158 1395.78 Q197.987 1399.32 201.598 1399.32 Q205.232 1399.32 207.037 1395.78 Q208.866 1392.21 208.866 1385.11 Q208.866 1377.98 207.037 1374.44 Q205.232 1370.87 201.598 1370.87 M201.598 1367.17 Q207.408 1367.17 210.463 1371.77 Q213.542 1376.36 213.542 1385.11 Q213.542 1393.83 210.463 1398.44 Q207.408 1403.02 201.598 1403.02 Q195.787 1403.02 192.709 1398.44 Q189.653 1393.83 189.653 1385.11 Q189.653 1376.36 192.709 1371.77 Q195.787 1367.17 201.598 1367.17 Z" fill="#000000" fill-rule="nonzero" fill-opacity="1" /><path clip-path="url(#clip630)" d="M127.431 1021.88 Q123.82 1021.88 121.992 1025.44 Q120.186 1028.99 120.186 1036.12 Q120.186 1043.22 121.992 1046.79 Q123.82 1050.33 127.431 1050.33 Q131.066 1050.33 132.871 1046.79 Q134.7 1043.22 134.7 1036.12 Q134.7 1028.99 132.871 1025.44 Q131.066 1021.88 127.431 1021.88 M127.431 1018.18 Q133.242 1018.18 136.297 1022.78 Q139.376 1027.37 139.376 1036.12 Q139.376 1044.84 136.297 1049.45 Q133.242 1054.03 127.431 1054.03 Q121.621 1054.03 118.543 1049.45 Q115.487 1044.84 115.487 1036.12 Q115.487 1027.37 118.543 1022.78 Q121.621 1018.18 127.431 1018.18 Z" fill="#000000" fill-rule="nonzero" fill-opacity="1" /><path clip-path="url(#clip630)" d="M147.593 1047.48 L152.478 1047.48 L152.478 1053.36 L147.593 1053.36 L147.593 1047.48 Z" fill="#000000" fill-rule="nonzero" fill-opacity="1" /><path clip-path="url(#clip630)" d="M172.663 1021.88 Q169.052 1021.88 167.223 1025.44 Q165.417 1028.99 165.417 1036.12 Q165.417 1043.22 167.223 1046.79 Q169.052 1050.33 172.663 1050.33 Q176.297 1050.33 178.102 1046.79 Q179.931 1043.22 179.931 1036.12 Q179.931 1028.99 178.102 1025.44 Q176.297 1021.88 172.663 1021.88 M172.663 1018.18 Q178.473 1018.18 181.528 1022.78 Q184.607 1027.37 184.607 1036.12 Q184.607 1044.84 181.528 1049.45 Q178.473 1054.03 172.663 1054.03 Q166.852 1054.03 163.774 1049.45 Q160.718 1044.84 160.718 1036.12 Q160.718 1027.37 163.774 1022.78 Q166.852 1018.18 172.663 1018.18 Z" fill="#000000" fill-rule="nonzero" fill-opacity="1" /><path clip-path="url(#clip630)" d="M193.635 1049.43 L201.274 1049.43 L201.274 1023.06 L192.963 1024.73 L192.963 1020.47 L201.227 1018.8 L205.903 1018.8 L205.903 1049.43 L213.542 1049.43 L213.542 1053.36 L193.635 1053.36 L193.635 1049.43 Z" fill="#000000" fill-rule="nonzero" fill-opacity="1" /><path clip-path="url(#clip630)" d="M127.802 672.887 Q124.191 672.887 122.362 676.452 Q120.556 679.994 120.556 687.123 Q120.556 694.23 122.362 697.795 Q124.191 701.336 127.802 701.336 Q131.436 701.336 133.242 697.795 Q135.07 694.23 135.07 687.123 Q135.07 679.994 133.242 676.452 Q131.436 672.887 127.802 672.887 M127.802 669.184 Q133.612 669.184 136.667 673.79 Q139.746 678.373 139.746 687.123 Q139.746 695.85 136.667 700.457 Q133.612 705.04 127.802 705.04 Q121.992 705.04 118.913 700.457 Q115.857 695.85 115.857 687.123 Q115.857 678.373 118.913 673.79 Q121.992 669.184 127.802 669.184 Z" fill="#000000" fill-rule="nonzero" fill-opacity="1" /><path clip-path="url(#clip630)" d="M147.964 698.489 L152.848 698.489 L152.848 704.369 L147.964 704.369 L147.964 698.489 Z" fill="#000000" fill-rule="nonzero" fill-opacity="1" /><path clip-path="url(#clip630)" d="M173.033 672.887 Q169.422 672.887 167.593 676.452 Q165.788 679.994 165.788 687.123 Q165.788 694.23 167.593 697.795 Q169.422 701.336 173.033 701.336 Q176.667 701.336 178.473 697.795 Q180.301 694.23 180.301 687.123 Q180.301 679.994 178.473 676.452 Q176.667 672.887 173.033 672.887 M173.033 669.184 Q178.843 669.184 181.899 673.79 Q184.977 678.373 184.977 687.123 Q184.977 695.85 181.899 700.457 Q178.843 705.04 173.033 705.04 Q167.223 705.04 164.144 700.457 Q161.089 695.85 161.089 687.123 Q161.089 678.373 164.144 673.79 Q167.223 669.184 173.033 669.184 Z" fill="#000000" fill-rule="nonzero" fill-opacity="1" /><path clip-path="url(#clip630)" d="M197.223 700.433 L213.542 700.433 L213.542 704.369 L191.598 704.369 L191.598 700.433 Q194.26 697.679 198.843 693.049 Q203.449 688.396 204.63 687.054 Q206.875 684.531 207.755 682.795 Q208.658 681.035 208.658 679.346 Q208.658 676.591 206.713 674.855 Q204.792 673.119 201.69 673.119 Q199.491 673.119 197.037 673.883 Q194.607 674.646 191.829 676.197 L191.829 671.475 Q194.653 670.341 197.107 669.762 Q199.561 669.184 201.598 669.184 Q206.968 669.184 210.162 671.869 Q213.357 674.554 213.357 679.045 Q213.357 681.174 212.547 683.096 Q211.76 684.994 209.653 687.586 Q209.074 688.258 205.973 691.475 Q202.871 694.67 197.223 700.433 Z" fill="#000000" fill-rule="nonzero" fill-opacity="1" /><path clip-path="url(#clip630)" d="M126.853 323.895 Q123.242 323.895 121.413 327.46 Q119.607 331.002 119.607 338.131 Q119.607 345.238 121.413 348.803 Q123.242 352.344 126.853 352.344 Q130.487 352.344 132.292 348.803 Q134.121 345.238 134.121 338.131 Q134.121 331.002 132.292 327.46 Q130.487 323.895 126.853 323.895 M126.853 320.192 Q132.663 320.192 135.718 324.798 Q138.797 329.382 138.797 338.131 Q138.797 346.858 135.718 351.465 Q132.663 356.048 126.853 356.048 Q121.043 356.048 117.964 351.465 Q114.908 346.858 114.908 338.131 Q114.908 329.382 117.964 324.798 Q121.043 320.192 126.853 320.192 Z" fill="#000000" fill-rule="nonzero" fill-opacity="1" /><path clip-path="url(#clip630)" d="M147.015 349.497 L151.899 349.497 L151.899 355.377 L147.015 355.377 L147.015 349.497 Z" fill="#000000" fill-rule="nonzero" fill-opacity="1" /><path clip-path="url(#clip630)" d="M172.084 323.895 Q168.473 323.895 166.644 327.46 Q164.839 331.002 164.839 338.131 Q164.839 345.238 166.644 348.803 Q168.473 352.344 172.084 352.344 Q175.718 352.344 177.524 348.803 Q179.352 345.238 179.352 338.131 Q179.352 331.002 177.524 327.46 Q175.718 323.895 172.084 323.895 M172.084 320.192 Q177.894 320.192 180.95 324.798 Q184.028 329.382 184.028 338.131 Q184.028 346.858 180.95 351.465 Q177.894 356.048 172.084 356.048 Q166.274 356.048 163.195 351.465 Q160.14 346.858 160.14 338.131 Q160.14 329.382 163.195 324.798 Q166.274 320.192 172.084 320.192 Z" fill="#000000" fill-rule="nonzero" fill-opacity="1" /><path clip-path="url(#clip630)" d="M206.412 336.743 Q209.769 337.46 211.644 339.729 Q213.542 341.997 213.542 345.331 Q213.542 350.446 210.024 353.247 Q206.505 356.048 200.024 356.048 Q197.848 356.048 195.533 355.608 Q193.241 355.192 190.788 354.335 L190.788 349.821 Q192.732 350.955 195.047 351.534 Q197.362 352.113 199.885 352.113 Q204.283 352.113 206.574 350.377 Q208.889 348.641 208.889 345.331 Q208.889 342.275 206.737 340.562 Q204.607 338.826 200.787 338.826 L196.76 338.826 L196.76 334.983 L200.973 334.983 Q204.422 334.983 206.25 333.618 Q208.079 332.229 208.079 329.636 Q208.079 326.974 206.181 325.562 Q204.306 324.127 200.787 324.127 Q198.866 324.127 196.667 324.544 Q194.468 324.96 191.829 325.84 L191.829 321.673 Q194.491 320.932 196.806 320.562 Q199.144 320.192 201.204 320.192 Q206.528 320.192 209.63 322.622 Q212.732 325.03 212.732 329.15 Q212.732 332.02 211.088 334.011 Q209.445 335.979 206.412 336.743 Z" fill="#000000" fill-rule="nonzero" fill-opacity="1" /><path clip-path="url(#clip630)" d="M29.4065 993.309 L34.9447 993.309 Q33.6716 995.792 33.035 998.465 Q32.3984 1001.14 32.3984 1004 Q32.3984 1008.36 33.7352 1010.56 Q35.072 1012.72 37.7456 1012.72 Q39.7826 1012.72 40.9603 1011.16 Q42.1061 1009.61 43.1565 1004.89 L43.6021 1002.89 Q44.9389 996.651 47.3897 994.041 Q49.8086 991.399 54.1691 991.399 Q59.1344 991.399 62.0308 995.346 Q64.9272 999.261 64.9272 1006.14 Q64.9272 1009 64.3543 1012.12 Q63.8132 1015.21 62.6992 1018.64 L56.6518 1018.64 Q58.3387 1015.4 59.198 1012.25 Q60.0256 1009.1 60.0256 1006.01 Q60.0256 1001.87 58.6251 999.643 Q57.1929 997.415 54.6147 997.415 Q52.2276 997.415 50.9545 999.038 Q49.6813 1000.63 48.5037 1006.07 L48.0262 1008.11 Q46.8804 1013.55 44.5251 1015.97 Q42.138 1018.39 38.0002 1018.39 Q32.9713 1018.39 30.2341 1014.82 Q27.4968 1011.26 27.4968 1004.7 Q27.4968 1001.46 27.9743 998.592 Q28.4517 995.728 29.4065 993.309 Z" fill="#000000" fill-rule="nonzero" fill-opacity="1" /><path clip-path="url(#clip630)" d="M28.3562 982.073 L28.3562 976.217 L64.0042 976.217 L64.0042 982.073 L28.3562 982.073 M14.479 982.073 L14.479 976.217 L21.895 976.217 L21.895 982.073 L14.479 982.073 Z" fill="#000000" fill-rule="nonzero" fill-opacity="1" /><path clip-path="url(#clip630)" d="M45.7664 940.505 Q39.4007 940.505 35.8996 943.147 Q32.3984 945.757 32.3984 950.5 Q32.3984 955.21 35.8996 957.852 Q39.4007 960.462 45.7664 960.462 Q52.1003 960.462 55.6014 957.852 Q59.1026 955.21 59.1026 950.5 Q59.1026 945.757 55.6014 943.147 Q52.1003 940.505 45.7664 940.505 M59.58 934.649 Q68.683 934.649 73.1071 938.691 Q77.5631 942.733 77.5631 951.072 Q77.5631 954.16 77.0857 956.897 Q76.6401 959.634 75.6852 962.212 L69.9879 962.212 Q71.3884 959.634 72.0568 957.12 Q72.7252 954.605 72.7252 951.995 Q72.7252 946.234 69.7015 943.37 Q66.7096 940.505 60.6303 940.505 L57.7339 940.505 Q60.885 942.32 62.4446 945.152 Q64.0042 947.985 64.0042 951.932 Q64.0042 958.488 59.0071 962.499 Q54.01 966.509 45.7664 966.509 Q37.491 966.509 32.4939 962.499 Q27.4968 958.488 27.4968 951.932 Q27.4968 947.985 29.0564 945.152 Q30.616 942.32 33.7671 940.505 L28.3562 940.505 L28.3562 934.649 L59.58 934.649 Z" fill="#000000" fill-rule="nonzero" fill-opacity="1" /><path clip-path="url(#clip630)" d="M35.1993 894.831 Q31.2526 892.635 29.3747 889.58 Q27.4968 886.524 27.4968 882.386 Q27.4968 876.816 31.4117 873.793 Q35.2948 870.769 42.4881 870.769 L64.0042 870.769 L64.0042 876.657 L42.679 876.657 Q37.5546 876.657 35.072 878.472 Q32.5894 880.286 32.5894 884.01 Q32.5894 888.561 35.6131 891.203 Q38.6368 893.845 43.8567 893.845 L64.0042 893.845 L64.0042 899.733 L42.679 899.733 Q37.5228 899.733 35.072 901.547 Q32.5894 903.361 32.5894 907.149 Q32.5894 911.637 35.6449 914.279 Q38.6686 916.92 43.8567 916.92 L64.0042 916.92 L64.0042 922.809 L28.3562 922.809 L28.3562 916.92 L33.8944 916.92 Q30.616 914.915 29.0564 912.114 Q27.4968 909.313 27.4968 905.462 Q27.4968 901.579 29.4702 898.874 Q31.4436 896.136 35.1993 894.831 Z" fill="#000000" fill-rule="nonzero" fill-opacity="1" /><path clip-path="url(#clip630)" d="M46.0847 842.887 Q46.0847 849.985 47.7079 852.722 Q49.3312 855.46 53.2461 855.46 Q56.3653 855.46 58.2114 853.422 Q60.0256 851.354 60.0256 847.821 Q60.0256 842.951 56.5881 840.023 Q53.1188 837.063 47.3897 837.063 L46.0847 837.063 L46.0847 842.887 M43.6657 831.206 L64.0042 831.206 L64.0042 837.063 L58.5933 837.063 Q61.8398 839.068 63.3994 842.06 Q64.9272 845.052 64.9272 849.38 Q64.9272 854.855 61.8716 858.101 Q58.7843 861.316 53.6281 861.316 Q47.6125 861.316 44.5569 857.306 Q41.5014 853.263 41.5014 845.274 L41.5014 837.063 L40.9285 837.063 Q36.8862 837.063 34.6901 839.736 Q32.4621 842.378 32.4621 847.184 Q32.4621 850.24 33.1941 853.136 Q33.9262 856.032 35.3903 858.706 L29.9795 858.706 Q28.7381 855.491 28.1334 852.468 Q27.4968 849.444 27.4968 846.579 Q27.4968 838.845 31.5072 835.026 Q35.5176 831.206 43.6657 831.206 Z" fill="#000000" fill-rule="nonzero" fill-opacity="1" /><path clip-path="url(#clip630)" d="M14.479 798.964 L14.479 785.469 L19.0304 785.469 L19.0304 793.107 L68.0464 793.107 L68.0464 785.469 L72.5979 785.469 L72.5979 798.964 L14.479 798.964 Z" fill="#000000" fill-rule="nonzero" fill-opacity="1" /><path clip-path="url(#clip630)" d="M57.2247 740.336 L44.4614 740.336 L44.4614 750.839 L39.1779 750.839 L39.1779 733.97 L59.58 733.97 Q62.2218 737.694 63.5904 742.182 Q64.9272 746.67 64.9272 751.762 Q64.9272 762.902 58.4342 769.204 Q51.9093 775.474 40.2919 775.474 Q28.6427 775.474 22.1496 769.204 Q15.6248 762.902 15.6248 751.762 Q15.6248 747.115 16.7706 742.946 Q17.9164 738.744 20.1444 735.211 L26.9876 735.211 Q23.9639 738.776 22.4361 742.787 Q20.9083 746.797 20.9083 751.221 Q20.9083 759.942 25.7781 764.334 Q30.6479 768.695 40.2919 768.695 Q49.9041 768.695 54.7739 764.334 Q59.6436 759.942 59.6436 751.221 Q59.6436 747.815 59.0707 745.142 Q58.466 742.468 57.2247 740.336 Z" fill="#000000" fill-rule="nonzero" fill-opacity="1" /><path clip-path="url(#clip630)" d="M44.7161 691.988 L47.5806 691.988 L47.5806 718.915 Q53.6281 718.533 56.8109 715.287 Q59.9619 712.008 59.9619 706.184 Q59.9619 702.81 59.1344 699.659 Q58.3069 696.476 56.6518 693.357 L62.1899 693.357 Q63.5267 696.508 64.227 699.818 Q64.9272 703.128 64.9272 706.534 Q64.9272 715.064 59.9619 720.061 Q54.9967 725.026 46.5303 725.026 Q37.7774 725.026 32.6531 720.316 Q27.4968 715.573 27.4968 707.552 Q27.4968 700.359 32.1438 696.19 Q36.7589 691.988 44.7161 691.988 M42.9973 697.845 Q38.1912 697.908 35.3266 700.55 Q32.4621 703.16 32.4621 707.489 Q32.4621 712.39 35.2312 715.35 Q38.0002 718.279 43.0292 718.724 L42.9973 697.845 Z" fill="#000000" fill-rule="nonzero" fill-opacity="1" /><path clip-path="url(#clip630)" d="M64.0042 669.867 L16.4842 688.01 L16.4842 681.294 L56.4926 666.239 L16.4842 651.152 L16.4842 644.468 L64.0042 662.579 L64.0042 669.867 Z" fill="#000000" fill-rule="nonzero" fill-opacity="1" /><path clip-path="url(#clip630)" d="M16.4842 613.499 L34.2127 596.216 L34.2127 602.614 L21.6404 616.618 L34.2127 630.623 L34.2127 637.02 L16.4842 619.737 L16.4842 613.499 Z" fill="#000000" fill-rule="nonzero" fill-opacity="1" /><path clip-path="url(#clip630)" d="M38.3822 562.86 Q39.3689 558.245 42.4881 555.667 Q45.6073 553.057 50.1906 553.057 Q57.2247 553.057 61.0759 557.895 Q64.9272 562.732 64.9272 571.644 Q64.9272 574.636 64.3224 577.819 Q63.7495 580.97 62.5719 584.344 L56.3653 584.344 Q57.9249 581.67 58.7206 578.488 Q59.5163 575.305 59.5163 571.835 Q59.5163 565.788 57.1292 562.637 Q54.7421 559.454 50.1906 559.454 Q45.9892 559.454 43.6339 562.414 Q41.2468 565.342 41.2468 570.594 L41.2468 576.132 L35.9632 576.132 L35.9632 570.34 Q35.9632 565.597 34.0853 563.083 Q32.1756 560.568 28.6108 560.568 Q24.9505 560.568 23.009 563.178 Q21.0356 565.756 21.0356 570.594 Q21.0356 573.236 21.6086 576.26 Q22.1815 579.283 23.3909 582.912 L17.6618 582.912 Q16.6433 579.252 16.134 576.069 Q15.6248 572.854 15.6248 570.021 Q15.6248 562.701 18.9668 558.436 Q22.277 554.171 27.9424 554.171 Q31.8892 554.171 34.6264 556.43 Q37.3318 558.69 38.3822 562.86 Z" fill="#000000" fill-rule="nonzero" fill-opacity="1" /><path clip-path="url(#clip630)" d="M14.479 528.008 L72.5979 528.008 L72.5979 541.503 L68.0464 541.503 L68.0464 533.896 L19.0304 533.896 L19.0304 541.503 L14.479 541.503 L14.479 528.008 Z" fill="#000000" fill-rule="nonzero" fill-opacity="1" /><path clip-path="url(#clip630)" d="M978.94 14.0809 L978.94 22.0612 Q974.282 19.8332 970.15 18.7395 Q966.018 17.6457 962.169 17.6457 Q955.485 17.6457 951.839 20.2383 Q948.234 22.8309 948.234 27.611 Q948.234 31.6214 950.624 33.6873 Q953.055 35.7128 959.779 36.9686 L964.721 37.9813 Q973.876 39.7232 978.211 44.1387 Q982.586 48.5136 982.586 55.8863 Q982.586 64.6767 976.672 69.2137 Q970.798 73.7508 959.415 73.7508 Q955.121 73.7508 950.26 72.7785 Q945.439 71.8063 940.254 69.9024 L940.254 61.4765 Q945.237 64.2716 950.017 65.6895 Q954.797 67.1073 959.415 67.1073 Q966.423 67.1073 970.231 64.3527 Q974.038 61.598 974.038 56.4939 Q974.038 52.0379 971.284 49.5264 Q968.57 47.0148 962.331 45.759 L957.349 44.7868 Q948.194 42.9639 944.102 39.075 Q940.011 35.1862 940.011 28.2591 Q940.011 20.2383 945.642 15.6203 Q951.313 11.0023 961.238 11.0023 Q965.491 11.0023 969.907 11.7719 Q974.322 12.5416 978.94 14.0809 Z" fill="#000000" fill-rule="nonzero" fill-opacity="1" /><path clip-path="url(#clip630)" d="M1002.23 65.7705 L1002.23 89.8329 L994.739 89.8329 L994.739 27.2059 L1002.23 27.2059 L1002.23 34.0924 Q1004.58 30.0415 1008.15 28.0971 Q1011.75 26.1121 1016.73 26.1121 Q1025 26.1121 1030.14 32.6746 Q1035.33 39.2371 1035.33 49.9314 Q1035.33 60.6258 1030.14 67.1883 Q1025 73.7508 1016.73 73.7508 Q1011.75 73.7508 1008.15 71.8063 Q1004.58 69.8214 1002.23 65.7705 M1027.59 49.9314 Q1027.59 41.7081 1024.19 37.0496 Q1020.83 32.3505 1014.91 32.3505 Q1009 32.3505 1005.59 37.0496 Q1002.23 41.7081 1002.23 49.9314 Q1002.23 58.1548 1005.59 62.8538 Q1009 67.5124 1014.91 67.5124 Q1020.83 67.5124 1024.19 62.8538 Q1027.59 58.1548 1027.59 49.9314 Z" fill="#000000" fill-rule="nonzero" fill-opacity="1" /><path clip-path="url(#clip630)" d="M1086.49 48.0275 L1086.49 51.6733 L1052.22 51.6733 Q1052.71 59.3701 1056.84 63.421 Q1061.01 67.4314 1068.42 67.4314 Q1072.72 67.4314 1076.73 66.3781 Q1080.78 65.3249 1084.75 63.2184 L1084.75 70.267 Q1080.74 71.9684 1076.53 72.8596 Q1072.31 73.7508 1067.98 73.7508 Q1057.12 73.7508 1050.76 67.4314 Q1044.44 61.1119 1044.44 50.3365 Q1044.44 39.1965 1050.44 32.6746 Q1056.47 26.1121 1066.68 26.1121 Q1075.84 26.1121 1081.14 32.0264 Q1086.49 37.9003 1086.49 48.0275 M1079.04 45.84 Q1078.96 39.7232 1075.59 36.0774 Q1072.27 32.4315 1066.76 32.4315 Q1060.53 32.4315 1056.76 35.9558 Q1053.03 39.4801 1052.46 45.8805 L1079.04 45.84 Z" fill="#000000" fill-rule="nonzero" fill-opacity="1" /><path clip-path="url(#clip630)" d="M1131.38 28.9478 L1131.38 35.9153 Q1128.22 34.1734 1125.02 33.3227 Q1121.86 32.4315 1118.62 32.4315 Q1111.36 32.4315 1107.35 37.0496 Q1103.34 41.6271 1103.34 49.9314 Q1103.34 58.2358 1107.35 62.8538 Q1111.36 67.4314 1118.62 67.4314 Q1121.86 67.4314 1125.02 66.5807 Q1128.22 65.6895 1131.38 63.9476 L1131.38 70.8341 Q1128.26 72.2924 1124.89 73.0216 Q1121.57 73.7508 1117.81 73.7508 Q1107.56 73.7508 1101.52 67.3098 Q1095.48 60.8689 1095.48 49.9314 Q1095.48 38.832 1101.56 32.472 Q1107.68 26.1121 1118.29 26.1121 Q1121.73 26.1121 1125.02 26.8413 Q1128.3 27.5299 1131.38 28.9478 Z" fill="#000000" fill-rule="nonzero" fill-opacity="1" /><path clip-path="url(#clip630)" d="M1151.71 14.324 L1151.71 27.2059 L1167.06 27.2059 L1167.06 32.9987 L1151.71 32.9987 L1151.71 57.6282 Q1151.71 63.1779 1153.21 64.7578 Q1154.75 66.3376 1159.41 66.3376 L1167.06 66.3376 L1167.06 72.576 L1159.41 72.576 Q1150.78 72.576 1147.5 69.3758 Q1144.22 66.1351 1144.22 57.6282 L1144.22 32.9987 L1138.75 32.9987 L1138.75 27.2059 L1144.22 27.2059 L1144.22 14.324 L1151.71 14.324 Z" fill="#000000" fill-rule="nonzero" fill-opacity="1" /><path clip-path="url(#clip630)" d="M1203.16 34.1734 Q1201.9 33.4443 1200.4 33.1202 Q1198.94 32.7556 1197.16 32.7556 Q1190.84 32.7556 1187.44 36.8875 Q1184.08 40.9789 1184.08 48.6757 L1184.08 72.576 L1176.58 72.576 L1176.58 27.2059 L1184.08 27.2059 L1184.08 34.2544 Q1186.43 30.1225 1190.19 28.1376 Q1193.96 26.1121 1199.35 26.1121 Q1200.12 26.1121 1201.05 26.2337 Q1201.98 26.3147 1203.12 26.5172 L1203.16 34.1734 Z" fill="#000000" fill-rule="nonzero" fill-opacity="1" /><path clip-path="url(#clip630)" d="M1231.59 49.7694 Q1222.56 49.7694 1219.08 51.8354 Q1215.59 53.9013 1215.59 58.8839 Q1215.59 62.8538 1218.19 65.2034 Q1220.82 67.5124 1225.32 67.5124 Q1231.51 67.5124 1235.24 63.1374 Q1239.01 58.7219 1239.01 51.4303 L1239.01 49.7694 L1231.59 49.7694 M1246.46 46.6907 L1246.46 72.576 L1239.01 72.576 L1239.01 65.6895 Q1236.46 69.8214 1232.65 71.8063 Q1228.84 73.7508 1223.33 73.7508 Q1216.36 73.7508 1212.23 69.8619 Q1208.14 65.9325 1208.14 59.3701 Q1208.14 51.7138 1213.24 47.825 Q1218.39 43.9361 1228.56 43.9361 L1239.01 43.9361 L1239.01 43.2069 Q1239.01 38.0623 1235.61 35.2672 Q1232.24 32.4315 1226.13 32.4315 Q1222.24 32.4315 1218.55 33.3632 Q1214.86 34.295 1211.46 36.1584 L1211.46 29.2718 Q1215.55 27.692 1219.4 26.9223 Q1223.25 26.1121 1226.9 26.1121 Q1236.74 26.1121 1241.6 31.2163 Q1246.46 36.3204 1246.46 46.6907 Z" fill="#000000" fill-rule="nonzero" fill-opacity="1" /><path clip-path="url(#clip630)" d="M1261.81 9.54393 L1269.27 9.54393 L1269.27 72.576 L1261.81 72.576 L1261.81 9.54393 Z" fill="#000000" fill-rule="nonzero" fill-opacity="1" /><path clip-path="url(#clip630)" d="M1340.16 28.5427 L1340.16 35.5912 Q1337 33.9709 1333.6 33.1607 Q1330.19 32.3505 1326.55 32.3505 Q1321 32.3505 1318.2 34.0519 Q1315.45 35.7533 1315.45 39.156 Q1315.45 41.7486 1317.43 43.2475 Q1319.42 44.7058 1325.41 46.0426 L1327.97 46.6097 Q1335.91 48.3111 1339.23 51.4303 Q1342.59 54.509 1342.59 60.0587 Q1342.59 66.3781 1337.57 70.0644 Q1332.58 73.7508 1323.83 73.7508 Q1320.19 73.7508 1316.22 73.0216 Q1312.29 72.3329 1307.91 70.9151 L1307.91 63.2184 Q1312.05 65.3654 1316.06 66.4591 Q1320.07 67.5124 1324 67.5124 Q1329.26 67.5124 1332.1 65.73 Q1334.93 63.9071 1334.93 60.6258 Q1334.93 57.5877 1332.87 55.9673 Q1330.84 54.3469 1323.92 52.8481 L1321.32 52.2405 Q1314.4 50.7821 1311.32 47.7845 Q1308.24 44.7463 1308.24 39.4801 Q1308.24 33.0797 1312.78 29.5959 Q1317.31 26.1121 1325.66 26.1121 Q1329.79 26.1121 1333.43 26.7198 Q1337.08 27.3274 1340.16 28.5427 Z" fill="#000000" fill-rule="nonzero" fill-opacity="1" /><path clip-path="url(#clip630)" d="M1354.46 27.2059 L1361.91 27.2059 L1361.91 72.576 L1354.46 72.576 L1354.46 27.2059 M1354.46 9.54393 L1361.91 9.54393 L1361.91 18.9825 L1354.46 18.9825 L1354.46 9.54393 Z" fill="#000000" fill-rule="nonzero" fill-opacity="1" /><path clip-path="url(#clip630)" d="M1407.36 49.3643 Q1407.36 41.2625 1404 36.8065 Q1400.68 32.3505 1394.64 32.3505 Q1388.65 32.3505 1385.29 36.8065 Q1381.96 41.2625 1381.96 49.3643 Q1381.96 57.4256 1385.29 61.8816 Q1388.65 66.3376 1394.64 66.3376 Q1400.68 66.3376 1404 61.8816 Q1407.36 57.4256 1407.36 49.3643 M1414.82 66.9452 Q1414.82 78.5308 1409.67 84.1616 Q1404.53 89.8329 1393.91 89.8329 Q1389.99 89.8329 1386.5 89.2252 Q1383.02 88.6581 1379.74 87.4428 L1379.74 80.1917 Q1383.02 81.9741 1386.22 82.8248 Q1389.42 83.6755 1392.74 83.6755 Q1400.07 83.6755 1403.72 79.8271 Q1407.36 76.0193 1407.36 68.282 L1407.36 64.5957 Q1405.05 68.6061 1401.45 70.5911 Q1397.84 72.576 1392.82 72.576 Q1384.48 72.576 1379.37 66.2161 Q1374.27 59.8562 1374.27 49.3643 Q1374.27 38.832 1379.37 32.472 Q1384.48 26.1121 1392.82 26.1121 Q1397.84 26.1121 1401.45 28.0971 Q1405.05 30.082 1407.36 34.0924 L1407.36 27.2059 L1414.82 27.2059 L1414.82 66.9452 Z" fill="#000000" fill-rule="nonzero" fill-opacity="1" /><path clip-path="url(#clip630)" d="M1465.49 35.9153 Q1468.29 30.8922 1472.18 28.5022 Q1476.07 26.1121 1481.33 26.1121 Q1488.42 26.1121 1492.27 31.0947 Q1496.12 36.0368 1496.12 45.1919 L1496.12 72.576 L1488.62 72.576 L1488.62 45.4349 Q1488.62 38.913 1486.32 35.7533 Q1484.01 32.5936 1479.27 32.5936 Q1473.47 32.5936 1470.11 36.4419 Q1466.75 40.2903 1466.75 46.9338 L1466.75 72.576 L1459.26 72.576 L1459.26 45.4349 Q1459.26 38.8725 1456.95 35.7533 Q1454.64 32.5936 1449.82 32.5936 Q1444.11 32.5936 1440.74 36.4824 Q1437.38 40.3308 1437.38 46.9338 L1437.38 72.576 L1429.89 72.576 L1429.89 27.2059 L1437.38 27.2059 L1437.38 34.2544 Q1439.93 30.082 1443.5 28.0971 Q1447.06 26.1121 1451.96 26.1121 Q1456.91 26.1121 1460.35 28.6237 Q1463.83 31.1352 1465.49 35.9153 Z" fill="#000000" fill-rule="nonzero" fill-opacity="1" /><path clip-path="url(#clip630)" d="M1531.6 49.7694 Q1522.57 49.7694 1519.09 51.8354 Q1515.6 53.9013 1515.6 58.8839 Q1515.6 62.8538 1518.2 65.2034 Q1520.83 67.5124 1525.33 67.5124 Q1531.52 67.5124 1535.25 63.1374 Q1539.02 58.7219 1539.02 51.4303 L1539.02 49.7694 L1531.6 49.7694 M1546.47 46.6907 L1546.47 72.576 L1539.02 72.576 L1539.02 65.6895 Q1536.47 69.8214 1532.66 71.8063 Q1528.85 73.7508 1523.34 73.7508 Q1516.37 73.7508 1512.24 69.8619 Q1508.15 65.9325 1508.15 59.3701 Q1508.15 51.7138 1513.25 47.825 Q1518.4 43.9361 1528.57 43.9361 L1539.02 43.9361 L1539.02 43.2069 Q1539.02 38.0623 1535.62 35.2672 Q1532.25 32.4315 1526.14 32.4315 Q1522.25 32.4315 1518.56 33.3632 Q1514.87 34.295 1511.47 36.1584 L1511.47 29.2718 Q1515.56 27.692 1519.41 26.9223 Q1523.26 26.1121 1526.91 26.1121 Q1536.75 26.1121 1541.61 31.2163 Q1546.47 36.3204 1546.47 46.6907 Z" fill="#000000" fill-rule="nonzero" fill-opacity="1" /><path clip-path="url(#clip630)" d="M1579.73 9.62495 Q1574.3 18.942 1571.67 28.0566 Q1569.04 37.1711 1569.04 46.5287 Q1569.04 55.8863 1571.67 65.0818 Q1574.34 74.2369 1579.73 83.5134 L1573.25 83.5134 Q1567.17 73.9938 1564.13 64.7983 Q1561.14 55.6027 1561.14 46.5287 Q1561.14 37.4952 1564.13 28.3401 Q1567.13 19.1851 1573.25 9.62495 L1579.73 9.62495 Z" fill="#000000" fill-rule="nonzero" fill-opacity="1" /><path clip-path="url(#clip630)" d="M1586.13 12.096 L1637.29 12.096 L1637.29 18.9825 L1615.82 18.9825 L1615.82 72.576 L1607.6 72.576 L1607.6 18.9825 L1586.13 18.9825 L1586.13 12.096 Z" fill="#000000" fill-rule="nonzero" fill-opacity="1" /><path clip-path="url(#clip630)" d="M1643.69 9.62495 L1650.17 9.62495 Q1656.25 19.1851 1659.25 28.3401 Q1662.29 37.4952 1662.29 46.5287 Q1662.29 55.6027 1659.25 64.7983 Q1656.25 73.9938 1650.17 83.5134 L1643.69 83.5134 Q1649.08 74.2369 1651.71 65.0818 Q1654.39 55.8863 1654.39 46.5287 Q1654.39 37.1711 1651.71 28.0566 Q1649.08 18.942 1643.69 9.62495 Z" fill="#000000" fill-rule="nonzero" fill-opacity="1" /><polyline clip-path="url(#clip631)" style="stroke:#009af9; stroke-linecap:round; stroke-linejoin:round; stroke-width:4; stroke-opacity:1; fill:none" points="309.067,160.256 316.153,160.272 323.24,160.29 330.326,160.31 337.412,160.334 344.498,160.36 351.585,160.39 358.671,160.424 365.757,160.461 372.844,160.503 379.93,160.55 387.016,160.601 394.103,160.658 401.189,160.72 408.275,160.788 415.361,160.863 422.448,160.944 429.534,161.033 436.62,161.129 443.707,161.233 450.793,161.346 457.879,161.468 464.966,161.599 472.052,161.741 479.138,161.892 486.224,162.055 493.311,162.23 500.397,162.417 507.483,162.617 514.57,162.831 521.656,163.059 528.742,163.302 535.829,163.561 542.915,163.838 550.001,164.132 557.087,164.445 564.174,164.779 571.26,165.136 578.346,165.516 585.433,165.923 592.519,166.358 599.605,166.825 606.692,167.326 613.778,167.865 620.864,168.446 627.95,169.073 635.037,169.75 642.123,170.481 649.209,171.271 656.296,172.125 663.382,173.046 670.468,174.041 677.555,175.112 684.641,176.265 691.727,177.504 698.813,178.834 705.9,180.257 712.986,181.779 720.072,183.403 727.159,185.133 734.245,186.972 741.331,188.925 748.418,190.994 755.504,193.184 762.59,195.498 769.676,197.938 776.763,200.51 783.849,203.216 790.935,206.059 798.022,209.044 805.108,212.174 812.194,215.452 819.281,218.882 826.367,222.468 833.453,226.214 840.539,230.124 847.626,234.202 854.712,238.452 861.798,242.878 868.885,247.486 875.971,252.279 883.057,257.263 890.144,262.442 897.23,267.821 904.316,273.407 911.402,279.204 918.489,285.219 925.575,291.457 932.661,297.926 939.748,304.631 946.834,311.58 953.92,318.781 961.007,326.24 968.093,333.966 975.179,341.967 982.265,350.253 989.352,358.834 996.438,367.718 1003.52,376.918 1010.61,386.443 1017.7,396.307 1024.78,406.522 1031.87,417.101 1038.96,428.059 1046.04,439.412 1053.13,451.176 1060.21,463.369 1067.3,476.009 1074.39,489.118 1081.47,502.718 1088.56,516.832 1095.65,531.486 1102.73,546.709 1109.82,562.53 1116.91,578.983 1123.99,596.105 1131.08,613.933 1138.16,632.512 1145.25,651.889 1152.34,672.115 1159.42,693.246 1166.51,715.343 1173.6,738.472 1180.68,762.703 1187.77,788.111 1194.85,814.767 1201.94,842.742 1209.03,872.091 1216.11,902.839 1223.2,934.958 1230.29,968.323 1237.37,1002.66 1244.46,1037.47 1251.54,1072.01 1258.63,1105.29 1265.72,1136.29 1272.8,1164.19 1279.89,1188.57 1286.98,1209.45 1294.06,1227.13 1301.15,1242.07 1308.24,1254.71 1315.32,1265.46 1322.41,1274.68 1329.49,1282.64 1336.58,1289.56 1343.67,1295.63 1350.75,1300.98 1357.84,1305.74 1364.93,1310 1372.01,1313.83 1379.1,1317.29 1386.18,1320.43 1393.27,1323.3 1400.36,1325.93 1407.44,1328.34 1414.53,1330.57 1421.62,1332.64 1428.7,1334.55 1435.79,1336.34 1442.87,1338.01 1449.96,1339.57 1457.05,1341.03 1464.13,1342.41 1471.22,1343.71 1478.31,1344.94 1485.39,1346.1 1492.48,1347.2 1499.57,1348.24 1506.65,1349.23 1513.74,1350.18 1520.82,1351.08 1527.91,1351.94 1535,1352.76 1542.08,1353.55 1549.17,1354.3 1556.26,1355.03 1563.34,1355.72 1570.43,1356.39 1577.51,1357.04 1584.6,1357.66 1591.69,1358.25 1598.77,1358.83 1605.86,1359.39 1612.95,1359.93 1620.03,1360.45 1627.12,1360.95 1634.21,1361.44 1641.29,1361.92 1648.38,1362.38 1655.46,1362.82 1662.55,1363.26 1669.64,1363.68 1676.72,1364.09 1683.81,1364.49 1690.9,1364.88 1697.98,1365.26 1705.07,1365.63 1712.15,1365.99 1719.24,1366.34 1726.33,1366.68 1733.41,1367.02 1740.5,1367.34 1747.59,1367.66 1754.67,1367.98 1761.76,1368.28 1768.84,1368.58 1775.93,1368.88 1783.02,1369.17 1790.1,1369.45 1797.19,1369.72 1804.28,1369.99 1811.36,1370.26 1818.45,1370.52 1825.54,1370.78 1832.62,1371.03 1839.71,1371.28 1846.79,1371.52 1853.88,1371.76 1860.97,1371.99 1868.05,1372.22 1875.14,1372.45 1882.23,1372.67 1889.31,1372.89 1896.4,1373.11 1903.48,1373.32 1910.57,1373.53 1917.66,1373.74 1924.74,1373.94 1931.83,1374.14 1938.92,1374.34 1946,1374.54 1953.09,1374.73 1960.17,1374.92 1967.26,1375.11 1974.35,1375.29 1981.43,1375.47 1988.52,1375.65 1995.61,1375.83 2002.69,1376.01 2009.78,1376.18 2016.87,1376.35 2023.95,1376.52 2031.04,1376.69 2038.12,1376.86 2045.21,1377.02 2052.3,1377.18 2059.38,1377.34 2066.47,1377.5 2073.56,1377.66 2080.64,1377.81 2087.73,1377.97 2094.81,1378.12 2101.9,1378.27 2108.99,1378.42 2116.07,1378.57 2123.16,1378.71 2130.25,1378.86 2137.33,1379 2144.42,1379.15 2151.5,1379.29 2158.59,1379.43 2165.68,1379.57 2172.76,1379.7 2179.85,1379.84 2186.94,1379.97 2194.02,1380.11 2201.11,1380.24 2208.2,1380.37 2215.28,1380.5 2222.37,1380.63 2229.45,1380.76 2236.54,1380.89 2243.63,1381.02 2250.71,1381.14 2257.8,1381.27 2264.89,1381.39 2271.97,1381.52 2279.06,1381.64 2286.14,1381.76 2293.23,1381.88 "/>
<polyline clip-path="url(#clip631)" style="stroke:#e26f46; stroke-linecap:round; stroke-linejoin:round; stroke-width:4; stroke-opacity:1; fill:none" points="309.067,582.388 316.153,582.398 323.24,582.409 330.326,582.422 337.412,582.437 344.498,582.454 351.585,582.473 358.671,582.494 365.757,582.518 372.844,582.545 379.93,582.574 387.016,582.607 394.103,582.643 401.189,582.683 408.275,582.726 415.361,582.774 422.448,582.826 429.534,582.882 436.62,582.944 443.707,583.011 450.793,583.083 457.879,583.161 464.966,583.246 472.052,583.337 479.138,583.435 486.224,583.54 493.311,583.654 500.397,583.775 507.483,583.906 514.57,584.046 521.656,584.196 528.742,584.356 535.829,584.528 542.915,584.713 550.001,584.911 557.087,585.124 564.174,585.354 571.26,585.603 578.346,585.873 585.433,586.167 592.519,586.489 599.605,586.841 606.692,587.23 613.778,587.658 620.864,588.133 627.95,588.657 635.037,589.239 642.123,589.883 649.209,590.595 656.296,591.382 663.382,592.25 670.468,593.204 677.555,594.25 684.641,595.394 691.727,596.642 698.813,597.999 705.9,599.471 712.986,601.061 720.072,602.776 727.159,604.62 734.245,606.598 741.331,608.715 748.418,610.975 755.504,613.382 762.59,615.943 769.676,618.66 776.763,621.54 783.849,624.586 790.935,627.804 798.022,631.198 805.108,634.774 812.194,638.538 819.281,642.494 826.367,646.649 833.453,651.008 840.539,655.579 847.626,660.367 854.712,665.38 861.798,670.624 868.885,676.109 875.971,681.841 883.057,687.83 890.144,694.086 897.23,700.616 904.316,707.433 911.402,714.548 918.489,721.971 925.575,729.717 932.661,737.798 939.748,746.23 946.834,755.028 953.92,764.21 961.007,773.793 968.093,783.798 975.179,794.246 982.265,805.161 989.352,816.568 996.438,828.495 1003.52,840.973 1010.61,854.034 1017.7,867.715 1024.78,882.054 1031.87,897.094 1038.96,912.881 1046.04,929.463 1053.13,946.891 1060.21,965.216 1067.3,984.488 1074.39,1004.75 1081.47,1026.01 1088.56,1048.28 1095.65,1071.49 1102.73,1095.48 1109.82,1119.96 1116.91,1144.49 1123.99,1168.46 1131.08,1191.16 1138.16,1211.98 1145.25,1230.49 1152.34,1246.58 1159.42,1260.36 1166.51,1272.08 1173.6,1282.05 1180.68,1290.56 1187.77,1297.86 1194.85,1304.16 1201.94,1309.65 1209.03,1314.45 1216.11,1318.7 1223.2,1322.46 1230.29,1325.83 1237.37,1328.85 1244.46,1331.58 1251.54,1334.06 1258.63,1336.32 1265.72,1338.39 1272.8,1340.29 1279.89,1342.04 1286.98,1343.67 1294.06,1345.17 1301.15,1346.58 1308.24,1347.88 1315.32,1349.11 1322.41,1350.26 1329.49,1351.34 1336.58,1352.36 1343.67,1353.32 1350.75,1354.23 1357.84,1355.09 1364.93,1355.91 1372.01,1356.69 1379.1,1357.43 1386.18,1358.14 1393.27,1358.81 1400.36,1359.46 1407.44,1360.07 1414.53,1360.67 1421.62,1361.23 1428.7,1361.78 1435.79,1362.3 1442.87,1362.81 1449.96,1363.3 1457.05,1363.77 1464.13,1364.22 1471.22,1364.66 1478.31,1365.08 1485.39,1365.49 1492.48,1365.89 1499.57,1366.27 1506.65,1366.64 1513.74,1367 1520.82,1367.36 1527.91,1367.7 1535,1368.03 1542.08,1368.35 1549.17,1368.67 1556.26,1368.97 1563.34,1369.27 1570.43,1369.56 1577.51,1369.85 1584.6,1370.13 1591.69,1370.4 1598.77,1370.66 1605.86,1370.92 1612.95,1371.17 1620.03,1371.42 1627.12,1371.66 1634.21,1371.9 1641.29,1372.13 1648.38,1372.36 1655.46,1372.58 1662.55,1372.8 1669.64,1373.02 1676.72,1373.23 1683.81,1373.44 1690.9,1373.64 1697.98,1373.84 1705.07,1374.04 1712.15,1374.23 1719.24,1374.42 1726.33,1374.61 1733.41,1374.79 1740.5,1374.97 1747.59,1375.15 1754.67,1375.33 1761.76,1375.5 1768.84,1375.67 1775.93,1375.84 1783.02,1376 1790.1,1376.17 1797.19,1376.33 1804.28,1376.49 1811.36,1376.64 1818.45,1376.8 1825.54,1376.95 1832.62,1377.1 1839.71,1377.25 1846.79,1377.4 1853.88,1377.54 1860.97,1377.69 1868.05,1377.83 1875.14,1377.97 1882.23,1378.11 1889.31,1378.24 1896.4,1378.38 1903.48,1378.51 1910.57,1378.65 1917.66,1378.78 1924.74,1378.91 1931.83,1379.03 1938.92,1379.16 1946,1379.29 1953.09,1379.41 1960.17,1379.54 1967.26,1379.66 1974.35,1379.78 1981.43,1379.9 1988.52,1380.02 1995.61,1380.14 2002.69,1380.26 2009.78,1380.37 2016.87,1380.49 2023.95,1380.6 2031.04,1380.71 2038.12,1380.83 2045.21,1380.94 2052.3,1381.05 2059.38,1381.16 2066.47,1381.27 2073.56,1381.38 2080.64,1381.48 2087.73,1381.59 2094.81,1381.69 2101.9,1381.8 2108.99,1381.9 2116.07,1382.01 2123.16,1382.11 2130.25,1382.21 2137.33,1382.31 2144.42,1382.41 2151.5,1382.51 2158.59,1382.61 2165.68,1382.71 2172.76,1382.81 2179.85,1382.91 2186.94,1383.01 2194.02,1383.1 2201.11,1383.2 2208.2,1383.29 2215.28,1383.39 2222.37,1383.48 2229.45,1383.58 2236.54,1383.67 2243.63,1383.76 2250.71,1383.86 2257.8,1383.95 2264.89,1384.04 2271.97,1384.13 2279.06,1384.22 2286.14,1384.31 2293.23,1384.4 "/>
<polyline clip-path="url(#clip631)" style="stroke:#3da44d; stroke-linecap:round; stroke-linejoin:round; stroke-width:4; stroke-opacity:1; fill:none" points="309.067,1032.85 316.153,1032.84 323.24,1032.83 330.326,1032.81 337.412,1032.79 344.498,1032.78 351.585,1032.75 358.671,1032.73 365.757,1032.7 372.844,1032.67 379.93,1032.64 387.016,1032.6 394.103,1032.56 401.189,1032.52 408.275,1032.47 415.361,1032.42 422.448,1032.36 429.534,1032.3 436.62,1032.23 443.707,1032.16 450.793,1032.08 457.879,1032 464.966,1031.91 472.052,1031.82 479.138,1031.71 486.224,1031.6 493.311,1031.49 500.397,1031.36 507.483,1031.23 514.57,1031.09 521.656,1030.95 528.742,1030.79 535.829,1030.63 542.915,1030.47 550.001,1030.3 557.087,1030.12 564.174,1029.95 571.26,1029.77 578.346,1029.61 585.433,1029.46 592.519,1029.32 599.605,1029.21 606.692,1029.13 613.778,1029.09 620.864,1029.11 627.95,1029.18 635.037,1029.33 642.123,1029.56 649.209,1029.89 656.296,1030.32 663.382,1030.87 670.468,1031.55 677.555,1032.37 684.641,1033.34 691.727,1034.47 698.813,1035.77 705.9,1037.26 712.986,1038.93 720.072,1040.8 727.159,1042.89 734.245,1045.19 741.331,1047.72 748.418,1050.49 755.504,1053.51 762.59,1056.79 769.676,1060.34 776.763,1064.18 783.849,1068.3 790.935,1072.74 798.022,1077.49 805.108,1082.58 812.194,1088.02 819.281,1093.82 826.367,1100.02 833.453,1106.61 840.539,1113.63 847.626,1121.1 854.712,1129.03 861.798,1137.45 868.885,1146.37 875.971,1155.81 883.057,1165.78 890.144,1176.27 897.23,1187.28 904.316,1198.74 911.402,1210.58 918.489,1222.68 925.575,1234.86 932.661,1246.88 939.748,1258.49 946.834,1269.46 953.92,1279.59 961.007,1288.76 968.093,1296.94 975.179,1304.18 982.265,1310.53 989.352,1316.11 996.438,1321.01 1003.52,1325.32 1010.61,1329.13 1017.7,1332.51 1024.78,1335.53 1031.87,1338.23 1038.96,1340.67 1046.04,1342.86 1053.13,1344.86 1060.21,1346.68 1067.3,1348.34 1074.39,1349.87 1081.47,1351.28 1088.56,1352.58 1095.65,1353.79 1102.73,1354.91 1109.82,1355.96 1116.91,1356.94 1123.99,1357.85 1131.08,1358.71 1138.16,1359.52 1145.25,1360.28 1152.34,1361 1159.42,1361.69 1166.51,1362.33 1173.6,1362.95 1180.68,1363.53 1187.77,1364.08 1194.85,1364.61 1201.94,1365.12 1209.03,1365.6 1216.11,1366.07 1223.2,1366.51 1230.29,1366.94 1237.37,1367.35 1244.46,1367.74 1251.54,1368.12 1258.63,1368.49 1265.72,1368.84 1272.8,1369.18 1279.89,1369.51 1286.98,1369.82 1294.06,1370.13 1301.15,1370.43 1308.24,1370.72 1315.32,1371 1322.41,1371.27 1329.49,1371.53 1336.58,1371.79 1343.67,1372.04 1350.75,1372.28 1357.84,1372.52 1364.93,1372.75 1372.01,1372.97 1379.1,1373.19 1386.18,1373.41 1393.27,1373.62 1400.36,1373.82 1407.44,1374.02 1414.53,1374.21 1421.62,1374.4 1428.7,1374.59 1435.79,1374.77 1442.87,1374.95 1449.96,1375.13 1457.05,1375.3 1464.13,1375.47 1471.22,1375.63 1478.31,1375.8 1485.39,1375.96 1492.48,1376.11 1499.57,1376.27 1506.65,1376.42 1513.74,1376.57 1520.82,1376.71 1527.91,1376.86 1535,1377 1542.08,1377.14 1549.17,1377.27 1556.26,1377.41 1563.34,1377.54 1570.43,1377.67 1577.51,1377.8 1584.6,1377.93 1591.69,1378.06 1598.77,1378.18 1605.86,1378.3 1612.95,1378.42 1620.03,1378.54 1627.12,1378.66 1634.21,1378.78 1641.29,1378.89 1648.38,1379.01 1655.46,1379.12 1662.55,1379.23 1669.64,1379.34 1676.72,1379.45 1683.81,1379.55 1690.9,1379.66 1697.98,1379.77 1705.07,1379.87 1712.15,1379.97 1719.24,1380.07 1726.33,1380.17 1733.41,1380.27 1740.5,1380.37 1747.59,1380.47 1754.67,1380.57 1761.76,1380.66 1768.84,1380.76 1775.93,1380.85 1783.02,1380.95 1790.1,1381.04 1797.19,1381.13 1804.28,1381.22 1811.36,1381.32 1818.45,1381.4 1825.54,1381.49 1832.62,1381.58 1839.71,1381.67 1846.79,1381.76 1853.88,1381.84 1860.97,1381.93 1868.05,1382.02 1875.14,1382.1 1882.23,1382.18 1889.31,1382.27 1896.4,1382.35 1903.48,1382.43 1910.57,1382.52 1917.66,1382.6 1924.74,1382.68 1931.83,1382.76 1938.92,1382.84 1946,1382.92 1953.09,1383 1960.17,1383.08 1967.26,1383.15 1974.35,1383.23 1981.43,1383.31 1988.52,1383.39 1995.61,1383.46 2002.69,1383.54 2009.78,1383.61 2016.87,1383.69 2023.95,1383.76 2031.04,1383.84 2038.12,1383.91 2045.21,1383.99 2052.3,1384.06 2059.38,1384.13 2066.47,1384.21 2073.56,1384.28 2080.64,1384.35 2087.73,1384.42 2094.81,1384.49 2101.9,1384.56 2108.99,1384.64 2116.07,1384.71 2123.16,1384.78 2130.25,1384.85 2137.33,1384.92 2144.42,1384.99 2151.5,1385.06 2158.59,1385.12 2165.68,1385.19 2172.76,1385.26 2179.85,1385.33 2186.94,1385.4 2194.02,1385.47 2201.11,1385.53 2208.2,1385.6 2215.28,1385.67 2222.37,1385.74 2229.45,1385.8 2236.54,1385.87 2243.63,1385.94 2250.71,1386 2257.8,1386.07 2264.89,1386.13 2271.97,1386.2 2279.06,1386.27 2286.14,1386.33 2293.23,1386.4 "/>
<path clip-path="url(#clip630)" d="M1472.56 374.156 L2282.65 374.156 L2282.65 166.796 L1472.56 166.796  Z" fill="#ffffff" fill-rule="evenodd" fill-opacity="1"/>
<polyline clip-path="url(#clip630)" style="stroke:#000000; stroke-linecap:round; stroke-linejoin:round; stroke-width:4; stroke-opacity:1; fill:none" points="1472.56,374.156 2282.65,374.156 2282.65,166.796 1472.56,166.796 1472.56,374.156 "/>
<polyline clip-path="url(#clip630)" style="stroke:#009af9; stroke-linecap:round; stroke-linejoin:round; stroke-width:4; stroke-opacity:1; fill:none" points="1495.93,218.636 1636.15,218.636 "/>
<path clip-path="url(#clip630)" d="M1677.94 210.754 L1677.94 214.782 Q1676.13 213.856 1674.19 213.393 Q1672.25 212.93 1670.16 212.93 Q1666.99 212.93 1665.39 213.902 Q1663.82 214.874 1663.82 216.819 Q1663.82 218.3 1664.95 219.157 Q1666.09 219.99 1669.51 220.754 L1670.97 221.078 Q1675.51 222.05 1677.41 223.832 Q1679.33 225.592 1679.33 228.763 Q1679.33 232.374 1676.46 234.481 Q1673.61 236.587 1668.61 236.587 Q1666.53 236.587 1664.26 236.17 Q1662.01 235.777 1659.51 234.967 L1659.51 230.569 Q1661.88 231.795 1664.17 232.42 Q1666.46 233.022 1668.7 233.022 Q1671.71 233.022 1673.33 232.004 Q1674.95 230.962 1674.95 229.087 Q1674.95 227.351 1673.77 226.425 Q1672.62 225.499 1668.66 224.643 L1667.18 224.295 Q1663.22 223.462 1661.46 221.749 Q1659.7 220.013 1659.7 217.004 Q1659.7 213.346 1662.29 211.356 Q1664.88 209.365 1669.65 209.365 Q1672.01 209.365 1674.1 209.712 Q1676.18 210.059 1677.94 210.754 Z" fill="#000000" fill-rule="nonzero" fill-opacity="1" /><path clip-path="url(#clip630)" d="M1704.77 210.985 L1704.77 214.967 Q1702.96 213.971 1701.13 213.485 Q1699.33 212.976 1697.48 212.976 Q1693.33 212.976 1691.04 215.615 Q1688.75 218.231 1688.75 222.976 Q1688.75 227.721 1691.04 230.36 Q1693.33 232.976 1697.48 232.976 Q1699.33 232.976 1701.13 232.49 Q1702.96 231.981 1704.77 230.985 L1704.77 234.92 Q1702.99 235.754 1701.07 236.17 Q1699.17 236.587 1697.01 236.587 Q1691.16 236.587 1687.71 232.906 Q1684.26 229.226 1684.26 222.976 Q1684.26 216.633 1687.73 212.999 Q1691.23 209.365 1697.29 209.365 Q1699.26 209.365 1701.13 209.782 Q1703.01 210.175 1704.77 210.985 Z" fill="#000000" fill-rule="nonzero" fill-opacity="1" /><path clip-path="url(#clip630)" d="M1733.73 220.268 L1733.73 235.916 L1729.47 235.916 L1729.47 220.407 Q1729.47 216.726 1728.03 214.897 Q1726.6 213.069 1723.73 213.069 Q1720.28 213.069 1718.29 215.268 Q1716.3 217.467 1716.3 221.263 L1716.3 235.916 L1712.01 235.916 L1712.01 199.897 L1716.3 199.897 L1716.3 214.018 Q1717.82 211.68 1719.88 210.522 Q1721.97 209.365 1724.68 209.365 Q1729.14 209.365 1731.44 212.143 Q1733.73 214.897 1733.73 220.268 Z" fill="#000000" fill-rule="nonzero" fill-opacity="1" /><path clip-path="url(#clip630)" d="M1764.4 221.888 L1764.4 223.971 L1744.81 223.971 Q1745.09 228.369 1747.45 230.684 Q1749.84 232.976 1754.07 232.976 Q1756.53 232.976 1758.82 232.374 Q1761.13 231.772 1763.4 230.569 L1763.4 234.596 Q1761.11 235.568 1758.7 236.078 Q1756.3 236.587 1753.82 236.587 Q1747.62 236.587 1743.98 232.976 Q1740.37 229.365 1740.37 223.207 Q1740.37 216.842 1743.8 213.115 Q1747.25 209.365 1753.08 209.365 Q1758.31 209.365 1761.34 212.745 Q1764.4 216.101 1764.4 221.888 M1760.14 220.638 Q1760.09 217.143 1758.17 215.059 Q1756.27 212.976 1753.13 212.976 Q1749.56 212.976 1747.41 214.99 Q1745.28 217.004 1744.95 220.661 L1760.14 220.638 Z" fill="#000000" fill-rule="nonzero" fill-opacity="1" /><path clip-path="url(#clip630)" d="M1791.57 214.967 Q1793.17 212.096 1795.39 210.731 Q1797.62 209.365 1800.62 209.365 Q1804.68 209.365 1806.87 212.212 Q1809.07 215.036 1809.07 220.268 L1809.07 235.916 L1804.79 235.916 L1804.79 220.407 Q1804.79 216.68 1803.47 214.874 Q1802.15 213.069 1799.44 213.069 Q1796.13 213.069 1794.21 215.268 Q1792.29 217.467 1792.29 221.263 L1792.29 235.916 L1788.01 235.916 L1788.01 220.407 Q1788.01 216.657 1786.69 214.874 Q1785.37 213.069 1782.62 213.069 Q1779.35 213.069 1777.43 215.291 Q1775.51 217.49 1775.51 221.263 L1775.51 235.916 L1771.23 235.916 L1771.23 209.99 L1775.51 209.99 L1775.51 214.018 Q1776.97 211.633 1779 210.499 Q1781.04 209.365 1783.84 209.365 Q1786.67 209.365 1788.63 210.8 Q1790.62 212.235 1791.57 214.967 Z" fill="#000000" fill-rule="nonzero" fill-opacity="1" /><path clip-path="url(#clip630)" d="M1839.74 221.888 L1839.74 223.971 L1820.16 223.971 Q1820.44 228.369 1822.8 230.684 Q1825.18 232.976 1829.42 232.976 Q1831.87 232.976 1834.17 232.374 Q1836.48 231.772 1838.75 230.569 L1838.75 234.596 Q1836.46 235.568 1834.05 236.078 Q1831.64 236.587 1829.17 236.587 Q1822.96 236.587 1819.33 232.976 Q1815.72 229.365 1815.72 223.207 Q1815.72 216.842 1819.14 213.115 Q1822.59 209.365 1828.43 209.365 Q1833.66 209.365 1836.69 212.745 Q1839.74 216.101 1839.74 221.888 M1835.49 220.638 Q1835.44 217.143 1833.52 215.059 Q1831.62 212.976 1828.47 212.976 Q1824.91 212.976 1822.75 214.99 Q1820.62 217.004 1820.3 220.661 L1835.49 220.638 Z" fill="#000000" fill-rule="nonzero" fill-opacity="1" /><path clip-path="url(#clip630)" d="M1873.54 205.962 L1867.2 223.161 L1879.91 223.161 L1873.54 205.962 M1870.9 201.356 L1876.2 201.356 L1889.37 235.916 L1884.51 235.916 L1881.37 227.05 L1865.79 227.05 L1862.64 235.916 L1857.71 235.916 L1870.9 201.356 Z" fill="#000000" fill-rule="nonzero" fill-opacity="1" /><path clip-path="url(#clip630)" d="M1895.32 230.036 L1900.21 230.036 L1900.21 234.018 L1896.41 241.425 L1893.43 241.425 L1895.32 234.018 L1895.32 230.036 Z" fill="#000000" fill-rule="nonzero" fill-opacity="1" /><path clip-path="url(#clip630)" d="M1944.56 214.967 Q1946.16 212.096 1948.38 210.731 Q1950.6 209.365 1953.61 209.365 Q1957.66 209.365 1959.86 212.212 Q1962.06 215.036 1962.06 220.268 L1962.06 235.916 L1957.78 235.916 L1957.78 220.407 Q1957.78 216.68 1956.46 214.874 Q1955.14 213.069 1952.43 213.069 Q1949.12 213.069 1947.2 215.268 Q1945.28 217.467 1945.28 221.263 L1945.28 235.916 L1940.99 235.916 L1940.99 220.407 Q1940.99 216.657 1939.67 214.874 Q1938.36 213.069 1935.6 213.069 Q1932.34 213.069 1930.42 215.291 Q1928.49 217.49 1928.49 221.263 L1928.49 235.916 L1924.21 235.916 L1924.21 209.99 L1928.49 209.99 L1928.49 214.018 Q1929.95 211.633 1931.99 210.499 Q1934.03 209.365 1936.83 209.365 Q1939.65 209.365 1941.62 210.8 Q1943.61 212.235 1944.56 214.967 Z" fill="#000000" fill-rule="nonzero" fill-opacity="1" /><path clip-path="url(#clip630)" d="M1973.1 222.976 Q1973.1 227.675 1975.02 230.36 Q1976.97 233.022 1980.35 233.022 Q1983.73 233.022 1985.67 230.36 Q1987.61 227.675 1987.61 222.976 Q1987.61 218.277 1985.67 215.615 Q1983.73 212.93 1980.35 212.93 Q1976.97 212.93 1975.02 215.615 Q1973.1 218.277 1973.1 222.976 M1987.61 232.027 Q1986.27 234.342 1984.21 235.476 Q1982.17 236.587 1979.3 236.587 Q1974.61 236.587 1971.64 232.837 Q1968.7 229.087 1968.7 222.976 Q1968.7 216.865 1971.64 213.115 Q1974.61 209.365 1979.3 209.365 Q1982.17 209.365 1984.21 210.499 Q1986.27 211.61 1987.61 213.925 L1987.61 209.99 L1991.87 209.99 L1991.87 245.777 L1987.61 245.777 L1987.61 232.027 Z" fill="#000000" fill-rule="nonzero" fill-opacity="1" /><path clip-path="url(#clip630)" d="M2016.27 214.388 L2045.95 214.388 L2045.95 218.277 L2016.27 218.277 L2016.27 214.388 M2016.27 223.832 L2045.95 223.832 L2045.95 227.768 L2016.27 227.768 L2016.27 223.832 Z" fill="#000000" fill-rule="nonzero" fill-opacity="1" /><path clip-path="url(#clip630)" d="M2069.93 201.356 L2092.15 201.356 L2092.15 203.346 L2079.6 235.916 L2074.72 235.916 L2086.53 205.291 L2069.93 205.291 L2069.93 201.356 Z" fill="#000000" fill-rule="nonzero" fill-opacity="1" /><path clip-path="url(#clip630)" d="M2101.27 230.036 L2106.16 230.036 L2106.16 235.916 L2101.27 235.916 L2101.27 230.036 Z" fill="#000000" fill-rule="nonzero" fill-opacity="1" /><path clip-path="url(#clip630)" d="M2126.34 204.434 Q2122.73 204.434 2120.9 207.999 Q2119.1 211.541 2119.1 218.67 Q2119.1 225.777 2120.9 229.342 Q2122.73 232.883 2126.34 232.883 Q2129.97 232.883 2131.78 229.342 Q2133.61 225.777 2133.61 218.67 Q2133.61 211.541 2131.78 207.999 Q2129.97 204.434 2126.34 204.434 M2126.34 200.731 Q2132.15 200.731 2135.21 205.337 Q2138.29 209.92 2138.29 218.67 Q2138.29 227.397 2135.21 232.004 Q2132.15 236.587 2126.34 236.587 Q2120.53 236.587 2117.45 232.004 Q2114.4 227.397 2114.4 218.67 Q2114.4 209.92 2117.45 205.337 Q2120.53 200.731 2126.34 200.731 Z" fill="#000000" fill-rule="nonzero" fill-opacity="1" /><path clip-path="url(#clip630)" d="M2161.16 201.356 L2168.12 201.356 L2176.94 224.874 L2185.81 201.356 L2192.78 201.356 L2192.78 235.916 L2188.22 235.916 L2188.22 205.569 L2179.3 229.272 L2174.6 229.272 L2165.69 205.569 L2165.69 235.916 L2161.16 235.916 L2161.16 201.356 Z" fill="#000000" fill-rule="nonzero" fill-opacity="1" /><path clip-path="url(#clip630)" d="M2224.05 221.888 L2224.05 223.971 L2204.47 223.971 Q2204.74 228.369 2207.1 230.684 Q2209.49 232.976 2213.72 232.976 Q2216.18 232.976 2218.47 232.374 Q2220.78 231.772 2223.05 230.569 L2223.05 234.596 Q2220.76 235.568 2218.35 236.078 Q2215.95 236.587 2213.47 236.587 Q2207.27 236.587 2203.63 232.976 Q2200.02 229.365 2200.02 223.207 Q2200.02 216.842 2203.45 213.115 Q2206.9 209.365 2212.73 209.365 Q2217.96 209.365 2220.99 212.745 Q2224.05 216.101 2224.05 221.888 M2219.79 220.638 Q2219.74 217.143 2217.82 215.059 Q2215.92 212.976 2212.78 212.976 Q2209.21 212.976 2207.06 214.99 Q2204.93 217.004 2204.6 220.661 L2219.79 220.638 Z" fill="#000000" fill-rule="nonzero" fill-opacity="1" /><path clip-path="url(#clip630)" d="M2240.14 235.916 L2226.94 201.356 L2231.83 201.356 L2242.78 230.453 L2253.75 201.356 L2258.61 201.356 L2245.44 235.916 L2240.14 235.916 Z" fill="#000000" fill-rule="nonzero" fill-opacity="1" /><polyline clip-path="url(#clip630)" style="stroke:#e26f46; stroke-linecap:round; stroke-linejoin:round; stroke-width:4; stroke-opacity:1; fill:none" points="1495.93,270.476 1636.15,270.476 "/>
<path clip-path="url(#clip630)" d="M1677.94 262.594 L1677.94 266.622 Q1676.13 265.696 1674.19 265.233 Q1672.25 264.77 1670.16 264.77 Q1666.99 264.77 1665.39 265.742 Q1663.82 266.714 1663.82 268.659 Q1663.82 270.14 1664.95 270.997 Q1666.09 271.83 1669.51 272.594 L1670.97 272.918 Q1675.51 273.89 1677.41 275.672 Q1679.33 277.432 1679.33 280.603 Q1679.33 284.214 1676.46 286.321 Q1673.61 288.427 1668.61 288.427 Q1666.53 288.427 1664.26 288.01 Q1662.01 287.617 1659.51 286.807 L1659.51 282.409 Q1661.88 283.635 1664.17 284.26 Q1666.46 284.862 1668.7 284.862 Q1671.71 284.862 1673.33 283.844 Q1674.95 282.802 1674.95 280.927 Q1674.95 279.191 1673.77 278.265 Q1672.62 277.339 1668.66 276.483 L1667.18 276.135 Q1663.22 275.302 1661.46 273.589 Q1659.7 271.853 1659.7 268.844 Q1659.7 265.186 1662.29 263.196 Q1664.88 261.205 1669.65 261.205 Q1672.01 261.205 1674.1 261.552 Q1676.18 261.899 1677.94 262.594 Z" fill="#000000" fill-rule="nonzero" fill-opacity="1" /><path clip-path="url(#clip630)" d="M1704.77 262.825 L1704.77 266.807 Q1702.96 265.811 1701.13 265.325 Q1699.33 264.816 1697.48 264.816 Q1693.33 264.816 1691.04 267.455 Q1688.75 270.071 1688.75 274.816 Q1688.75 279.561 1691.04 282.2 Q1693.33 284.816 1697.48 284.816 Q1699.33 284.816 1701.13 284.33 Q1702.96 283.821 1704.77 282.825 L1704.77 286.76 Q1702.99 287.594 1701.07 288.01 Q1699.17 288.427 1697.01 288.427 Q1691.16 288.427 1687.71 284.746 Q1684.26 281.066 1684.26 274.816 Q1684.26 268.473 1687.73 264.839 Q1691.23 261.205 1697.29 261.205 Q1699.26 261.205 1701.13 261.622 Q1703.01 262.015 1704.77 262.825 Z" fill="#000000" fill-rule="nonzero" fill-opacity="1" /><path clip-path="url(#clip630)" d="M1733.73 272.108 L1733.73 287.756 L1729.47 287.756 L1729.47 272.247 Q1729.47 268.566 1728.03 266.737 Q1726.6 264.909 1723.73 264.909 Q1720.28 264.909 1718.29 267.108 Q1716.3 269.307 1716.3 273.103 L1716.3 287.756 L1712.01 287.756 L1712.01 251.737 L1716.3 251.737 L1716.3 265.858 Q1717.82 263.52 1719.88 262.362 Q1721.97 261.205 1724.68 261.205 Q1729.14 261.205 1731.44 263.983 Q1733.73 266.737 1733.73 272.108 Z" fill="#000000" fill-rule="nonzero" fill-opacity="1" /><path clip-path="url(#clip630)" d="M1764.4 273.728 L1764.4 275.811 L1744.81 275.811 Q1745.09 280.209 1747.45 282.524 Q1749.84 284.816 1754.07 284.816 Q1756.53 284.816 1758.82 284.214 Q1761.13 283.612 1763.4 282.409 L1763.4 286.436 Q1761.11 287.408 1758.7 287.918 Q1756.3 288.427 1753.82 288.427 Q1747.62 288.427 1743.98 284.816 Q1740.37 281.205 1740.37 275.047 Q1740.37 268.682 1743.8 264.955 Q1747.25 261.205 1753.08 261.205 Q1758.31 261.205 1761.34 264.585 Q1764.4 267.941 1764.4 273.728 M1760.14 272.478 Q1760.09 268.983 1758.17 266.899 Q1756.27 264.816 1753.13 264.816 Q1749.56 264.816 1747.41 266.83 Q1745.28 268.844 1744.95 272.501 L1760.14 272.478 Z" fill="#000000" fill-rule="nonzero" fill-opacity="1" /><path clip-path="url(#clip630)" d="M1791.57 266.807 Q1793.17 263.936 1795.39 262.571 Q1797.62 261.205 1800.62 261.205 Q1804.68 261.205 1806.87 264.052 Q1809.07 266.876 1809.07 272.108 L1809.07 287.756 L1804.79 287.756 L1804.79 272.247 Q1804.79 268.52 1803.47 266.714 Q1802.15 264.909 1799.44 264.909 Q1796.13 264.909 1794.21 267.108 Q1792.29 269.307 1792.29 273.103 L1792.29 287.756 L1788.01 287.756 L1788.01 272.247 Q1788.01 268.497 1786.69 266.714 Q1785.37 264.909 1782.62 264.909 Q1779.35 264.909 1777.43 267.131 Q1775.51 269.33 1775.51 273.103 L1775.51 287.756 L1771.23 287.756 L1771.23 261.83 L1775.51 261.83 L1775.51 265.858 Q1776.97 263.473 1779 262.339 Q1781.04 261.205 1783.84 261.205 Q1786.67 261.205 1788.63 262.64 Q1790.62 264.075 1791.57 266.807 Z" fill="#000000" fill-rule="nonzero" fill-opacity="1" /><path clip-path="url(#clip630)" d="M1839.74 273.728 L1839.74 275.811 L1820.16 275.811 Q1820.44 280.209 1822.8 282.524 Q1825.18 284.816 1829.42 284.816 Q1831.87 284.816 1834.17 284.214 Q1836.48 283.612 1838.75 282.409 L1838.75 286.436 Q1836.46 287.408 1834.05 287.918 Q1831.64 288.427 1829.17 288.427 Q1822.96 288.427 1819.33 284.816 Q1815.72 281.205 1815.72 275.047 Q1815.72 268.682 1819.14 264.955 Q1822.59 261.205 1828.43 261.205 Q1833.66 261.205 1836.69 264.585 Q1839.74 267.941 1839.74 273.728 M1835.49 272.478 Q1835.44 268.983 1833.52 266.899 Q1831.62 264.816 1828.47 264.816 Q1824.91 264.816 1822.75 266.83 Q1820.62 268.844 1820.3 272.501 L1835.49 272.478 Z" fill="#000000" fill-rule="nonzero" fill-opacity="1" /><path clip-path="url(#clip630)" d="M1866.67 271.251 L1866.67 283.913 L1874.17 283.913 Q1877.94 283.913 1879.74 282.362 Q1881.57 280.788 1881.57 277.571 Q1881.57 274.33 1879.74 272.802 Q1877.94 271.251 1874.17 271.251 L1866.67 271.251 M1866.67 257.038 L1866.67 267.455 L1873.59 267.455 Q1877.01 267.455 1878.68 266.182 Q1880.37 264.885 1880.37 262.247 Q1880.37 259.631 1878.68 258.335 Q1877.01 257.038 1873.59 257.038 L1866.67 257.038 M1861.99 253.196 L1873.93 253.196 Q1879.28 253.196 1882.18 255.418 Q1885.07 257.64 1885.07 261.737 Q1885.07 264.909 1883.59 266.784 Q1882.11 268.659 1879.24 269.122 Q1882.68 269.862 1884.58 272.223 Q1886.5 274.561 1886.5 278.08 Q1886.5 282.709 1883.36 285.233 Q1880.21 287.756 1874.4 287.756 L1861.99 287.756 L1861.99 253.196 Z" fill="#000000" fill-rule="nonzero" fill-opacity="1" /><path clip-path="url(#clip630)" d="M1895.42 281.876 L1900.3 281.876 L1900.3 285.858 L1896.5 293.265 L1893.52 293.265 L1895.42 285.858 L1895.42 281.876 Z" fill="#000000" fill-rule="nonzero" fill-opacity="1" /><path clip-path="url(#clip630)" d="M1944.65 266.807 Q1946.25 263.936 1948.47 262.571 Q1950.69 261.205 1953.7 261.205 Q1957.75 261.205 1959.95 264.052 Q1962.15 266.876 1962.15 272.108 L1962.15 287.756 L1957.87 287.756 L1957.87 272.247 Q1957.87 268.52 1956.55 266.714 Q1955.23 264.909 1952.52 264.909 Q1949.21 264.909 1947.29 267.108 Q1945.37 269.307 1945.37 273.103 L1945.37 287.756 L1941.09 287.756 L1941.09 272.247 Q1941.09 268.497 1939.77 266.714 Q1938.45 264.909 1935.69 264.909 Q1932.43 264.909 1930.51 267.131 Q1928.59 269.33 1928.59 273.103 L1928.59 287.756 L1924.3 287.756 L1924.3 261.83 L1928.59 261.83 L1928.59 265.858 Q1930.05 263.473 1932.08 262.339 Q1934.12 261.205 1936.92 261.205 Q1939.74 261.205 1941.71 262.64 Q1943.7 264.075 1944.65 266.807 Z" fill="#000000" fill-rule="nonzero" fill-opacity="1" /><path clip-path="url(#clip630)" d="M1973.19 274.816 Q1973.19 279.515 1975.11 282.2 Q1977.06 284.862 1980.44 284.862 Q1983.82 284.862 1985.76 282.2 Q1987.71 279.515 1987.71 274.816 Q1987.71 270.117 1985.76 267.455 Q1983.82 264.77 1980.44 264.77 Q1977.06 264.77 1975.11 267.455 Q1973.19 270.117 1973.19 274.816 M1987.71 283.867 Q1986.36 286.182 1984.3 287.316 Q1982.27 288.427 1979.4 288.427 Q1974.7 288.427 1971.73 284.677 Q1968.8 280.927 1968.8 274.816 Q1968.8 268.705 1971.73 264.955 Q1974.7 261.205 1979.4 261.205 Q1982.27 261.205 1984.3 262.339 Q1986.36 263.45 1987.71 265.765 L1987.71 261.83 L1991.97 261.83 L1991.97 297.617 L1987.71 297.617 L1987.71 283.867 Z" fill="#000000" fill-rule="nonzero" fill-opacity="1" /><path clip-path="url(#clip630)" d="M2016.36 266.228 L2046.04 266.228 L2046.04 270.117 L2016.36 270.117 L2016.36 266.228 M2016.36 275.672 L2046.04 275.672 L2046.04 279.608 L2016.36 279.608 L2016.36 275.672 Z" fill="#000000" fill-rule="nonzero" fill-opacity="1" /><path clip-path="url(#clip630)" d="M2070.02 253.196 L2092.24 253.196 L2092.24 255.186 L2079.7 287.756 L2074.81 287.756 L2086.62 257.131 L2070.02 257.131 L2070.02 253.196 Z" fill="#000000" fill-rule="nonzero" fill-opacity="1" /><path clip-path="url(#clip630)" d="M2101.36 281.876 L2106.25 281.876 L2106.25 287.756 L2101.36 287.756 L2101.36 281.876 Z" fill="#000000" fill-rule="nonzero" fill-opacity="1" /><path clip-path="url(#clip630)" d="M2126.43 256.274 Q2122.82 256.274 2120.99 259.839 Q2119.19 263.381 2119.19 270.51 Q2119.19 277.617 2120.99 281.182 Q2122.82 284.723 2126.43 284.723 Q2130.07 284.723 2131.87 281.182 Q2133.7 277.617 2133.7 270.51 Q2133.7 263.381 2131.87 259.839 Q2130.07 256.274 2126.43 256.274 M2126.43 252.571 Q2132.24 252.571 2135.3 257.177 Q2138.38 261.76 2138.38 270.51 Q2138.38 279.237 2135.3 283.844 Q2132.24 288.427 2126.43 288.427 Q2120.62 288.427 2117.54 283.844 Q2114.49 279.237 2114.49 270.51 Q2114.49 261.76 2117.54 257.177 Q2120.62 252.571 2126.43 252.571 Z" fill="#000000" fill-rule="nonzero" fill-opacity="1" /><path clip-path="url(#clip630)" d="M2161.25 253.196 L2168.22 253.196 L2177.03 276.714 L2185.9 253.196 L2192.87 253.196 L2192.87 287.756 L2188.31 287.756 L2188.31 257.409 L2179.4 281.112 L2174.7 281.112 L2165.78 257.409 L2165.78 287.756 L2161.25 287.756 L2161.25 253.196 Z" fill="#000000" fill-rule="nonzero" fill-opacity="1" /><path clip-path="url(#clip630)" d="M2224.14 273.728 L2224.14 275.811 L2204.56 275.811 Q2204.84 280.209 2207.2 282.524 Q2209.58 284.816 2213.82 284.816 Q2216.27 284.816 2218.56 284.214 Q2220.88 283.612 2223.15 282.409 L2223.15 286.436 Q2220.85 287.408 2218.45 287.918 Q2216.04 288.427 2213.56 288.427 Q2207.36 288.427 2203.72 284.816 Q2200.11 281.205 2200.11 275.047 Q2200.11 268.682 2203.54 264.955 Q2206.99 261.205 2212.82 261.205 Q2218.05 261.205 2221.09 264.585 Q2224.14 267.941 2224.14 273.728 M2219.88 272.478 Q2219.84 268.983 2217.91 266.899 Q2216.02 264.816 2212.87 264.816 Q2209.3 264.816 2207.15 266.83 Q2205.02 268.844 2204.7 272.501 L2219.88 272.478 Z" fill="#000000" fill-rule="nonzero" fill-opacity="1" /><path clip-path="url(#clip630)" d="M2240.23 287.756 L2227.03 253.196 L2231.92 253.196 L2242.87 282.293 L2253.84 253.196 L2258.7 253.196 L2245.53 287.756 L2240.23 287.756 Z" fill="#000000" fill-rule="nonzero" fill-opacity="1" /><polyline clip-path="url(#clip630)" style="stroke:#3da44d; stroke-linecap:round; stroke-linejoin:round; stroke-width:4; stroke-opacity:1; fill:none" points="1495.93,322.316 1636.15,322.316 "/>
<path clip-path="url(#clip630)" d="M1677.94 314.434 L1677.94 318.462 Q1676.13 317.536 1674.19 317.073 Q1672.25 316.61 1670.16 316.61 Q1666.99 316.61 1665.39 317.582 Q1663.82 318.554 1663.82 320.499 Q1663.82 321.98 1664.95 322.837 Q1666.09 323.67 1669.51 324.434 L1670.97 324.758 Q1675.51 325.73 1677.41 327.512 Q1679.33 329.272 1679.33 332.443 Q1679.33 336.054 1676.46 338.161 Q1673.61 340.267 1668.61 340.267 Q1666.53 340.267 1664.26 339.85 Q1662.01 339.457 1659.51 338.647 L1659.51 334.249 Q1661.88 335.475 1664.17 336.1 Q1666.46 336.702 1668.7 336.702 Q1671.71 336.702 1673.33 335.684 Q1674.95 334.642 1674.95 332.767 Q1674.95 331.031 1673.77 330.105 Q1672.62 329.179 1668.66 328.323 L1667.18 327.975 Q1663.22 327.142 1661.46 325.429 Q1659.7 323.693 1659.7 320.684 Q1659.7 317.026 1662.29 315.036 Q1664.88 313.045 1669.65 313.045 Q1672.01 313.045 1674.1 313.392 Q1676.18 313.739 1677.94 314.434 Z" fill="#000000" fill-rule="nonzero" fill-opacity="1" /><path clip-path="url(#clip630)" d="M1704.77 314.665 L1704.77 318.647 Q1702.96 317.651 1701.13 317.165 Q1699.33 316.656 1697.48 316.656 Q1693.33 316.656 1691.04 319.295 Q1688.75 321.911 1688.75 326.656 Q1688.75 331.401 1691.04 334.04 Q1693.33 336.656 1697.48 336.656 Q1699.33 336.656 1701.13 336.17 Q1702.96 335.661 1704.77 334.665 L1704.77 338.6 Q1702.99 339.434 1701.07 339.85 Q1699.17 340.267 1697.01 340.267 Q1691.16 340.267 1687.71 336.586 Q1684.26 332.906 1684.26 326.656 Q1684.26 320.313 1687.73 316.679 Q1691.23 313.045 1697.29 313.045 Q1699.26 313.045 1701.13 313.462 Q1703.01 313.855 1704.77 314.665 Z" fill="#000000" fill-rule="nonzero" fill-opacity="1" /><path clip-path="url(#clip630)" d="M1733.73 323.948 L1733.73 339.596 L1729.47 339.596 L1729.47 324.087 Q1729.47 320.406 1728.03 318.577 Q1726.6 316.749 1723.73 316.749 Q1720.28 316.749 1718.29 318.948 Q1716.3 321.147 1716.3 324.943 L1716.3 339.596 L1712.01 339.596 L1712.01 303.577 L1716.3 303.577 L1716.3 317.698 Q1717.82 315.36 1719.88 314.202 Q1721.97 313.045 1724.68 313.045 Q1729.14 313.045 1731.44 315.823 Q1733.73 318.577 1733.73 323.948 Z" fill="#000000" fill-rule="nonzero" fill-opacity="1" /><path clip-path="url(#clip630)" d="M1764.4 325.568 L1764.4 327.651 L1744.81 327.651 Q1745.09 332.049 1747.45 334.364 Q1749.84 336.656 1754.07 336.656 Q1756.53 336.656 1758.82 336.054 Q1761.13 335.452 1763.4 334.249 L1763.4 338.276 Q1761.11 339.248 1758.7 339.758 Q1756.3 340.267 1753.82 340.267 Q1747.62 340.267 1743.98 336.656 Q1740.37 333.045 1740.37 326.887 Q1740.37 320.522 1743.8 316.795 Q1747.25 313.045 1753.08 313.045 Q1758.31 313.045 1761.34 316.425 Q1764.4 319.781 1764.4 325.568 M1760.14 324.318 Q1760.09 320.823 1758.17 318.739 Q1756.27 316.656 1753.13 316.656 Q1749.56 316.656 1747.41 318.67 Q1745.28 320.684 1744.95 324.341 L1760.14 324.318 Z" fill="#000000" fill-rule="nonzero" fill-opacity="1" /><path clip-path="url(#clip630)" d="M1791.57 318.647 Q1793.17 315.776 1795.39 314.411 Q1797.62 313.045 1800.62 313.045 Q1804.68 313.045 1806.87 315.892 Q1809.07 318.716 1809.07 323.948 L1809.07 339.596 L1804.79 339.596 L1804.79 324.087 Q1804.79 320.36 1803.47 318.554 Q1802.15 316.749 1799.44 316.749 Q1796.13 316.749 1794.21 318.948 Q1792.29 321.147 1792.29 324.943 L1792.29 339.596 L1788.01 339.596 L1788.01 324.087 Q1788.01 320.337 1786.69 318.554 Q1785.37 316.749 1782.62 316.749 Q1779.35 316.749 1777.43 318.971 Q1775.51 321.17 1775.51 324.943 L1775.51 339.596 L1771.23 339.596 L1771.23 313.67 L1775.51 313.67 L1775.51 317.698 Q1776.97 315.313 1779 314.179 Q1781.04 313.045 1783.84 313.045 Q1786.67 313.045 1788.63 314.48 Q1790.62 315.915 1791.57 318.647 Z" fill="#000000" fill-rule="nonzero" fill-opacity="1" /><path clip-path="url(#clip630)" d="M1839.74 325.568 L1839.74 327.651 L1820.16 327.651 Q1820.44 332.049 1822.8 334.364 Q1825.18 336.656 1829.42 336.656 Q1831.87 336.656 1834.17 336.054 Q1836.48 335.452 1838.75 334.249 L1838.75 338.276 Q1836.46 339.248 1834.05 339.758 Q1831.64 340.267 1829.17 340.267 Q1822.96 340.267 1819.33 336.656 Q1815.72 333.045 1815.72 326.887 Q1815.72 320.522 1819.14 316.795 Q1822.59 313.045 1828.43 313.045 Q1833.66 313.045 1836.69 316.425 Q1839.74 319.781 1839.74 325.568 M1835.49 324.318 Q1835.44 320.823 1833.52 318.739 Q1831.62 316.656 1828.47 316.656 Q1824.91 316.656 1822.75 318.67 Q1820.62 320.684 1820.3 324.341 L1835.49 324.318 Z" fill="#000000" fill-rule="nonzero" fill-opacity="1" /><path clip-path="url(#clip630)" d="M1887.87 307.698 L1887.87 312.628 Q1885.51 310.429 1882.82 309.341 Q1880.16 308.253 1877.15 308.253 Q1871.23 308.253 1868.08 311.888 Q1864.93 315.499 1864.93 322.35 Q1864.93 329.179 1868.08 332.813 Q1871.23 336.424 1877.15 336.424 Q1880.16 336.424 1882.82 335.336 Q1885.51 334.249 1887.87 332.049 L1887.87 336.934 Q1885.42 338.6 1882.66 339.434 Q1879.93 340.267 1876.87 340.267 Q1869.03 340.267 1864.51 335.475 Q1860 330.661 1860 322.35 Q1860 314.017 1864.51 309.226 Q1869.03 304.411 1876.87 304.411 Q1879.98 304.411 1882.71 305.244 Q1885.46 306.054 1887.87 307.698 Z" fill="#000000" fill-rule="nonzero" fill-opacity="1" /><path clip-path="url(#clip630)" d="M1895.99 333.716 L1900.88 333.716 L1900.88 337.698 L1897.08 345.105 L1894.1 345.105 L1895.99 337.698 L1895.99 333.716 Z" fill="#000000" fill-rule="nonzero" fill-opacity="1" /><path clip-path="url(#clip630)" d="M1945.23 318.647 Q1946.83 315.776 1949.05 314.411 Q1951.27 313.045 1954.28 313.045 Q1958.33 313.045 1960.53 315.892 Q1962.73 318.716 1962.73 323.948 L1962.73 339.596 L1958.45 339.596 L1958.45 324.087 Q1958.45 320.36 1957.13 318.554 Q1955.81 316.749 1953.1 316.749 Q1949.79 316.749 1947.87 318.948 Q1945.95 321.147 1945.95 324.943 L1945.95 339.596 L1941.67 339.596 L1941.67 324.087 Q1941.67 320.337 1940.35 318.554 Q1939.03 316.749 1936.27 316.749 Q1933.01 316.749 1931.09 318.971 Q1929.17 321.17 1929.17 324.943 L1929.17 339.596 L1924.88 339.596 L1924.88 313.67 L1929.17 313.67 L1929.17 317.698 Q1930.62 315.313 1932.66 314.179 Q1934.7 313.045 1937.5 313.045 Q1940.32 313.045 1942.29 314.48 Q1944.28 315.915 1945.23 318.647 Z" fill="#000000" fill-rule="nonzero" fill-opacity="1" /><path clip-path="url(#clip630)" d="M1973.77 326.656 Q1973.77 331.355 1975.69 334.04 Q1977.64 336.702 1981.02 336.702 Q1984.4 336.702 1986.34 334.04 Q1988.29 331.355 1988.29 326.656 Q1988.29 321.957 1986.34 319.295 Q1984.4 316.61 1981.02 316.61 Q1977.64 316.61 1975.69 319.295 Q1973.77 321.957 1973.77 326.656 M1988.29 335.707 Q1986.94 338.022 1984.88 339.156 Q1982.85 340.267 1979.98 340.267 Q1975.28 340.267 1972.31 336.517 Q1969.37 332.767 1969.37 326.656 Q1969.37 320.545 1972.31 316.795 Q1975.28 313.045 1979.98 313.045 Q1982.85 313.045 1984.88 314.179 Q1986.94 315.29 1988.29 317.605 L1988.29 313.67 L1992.55 313.67 L1992.55 349.457 L1988.29 349.457 L1988.29 335.707 Z" fill="#000000" fill-rule="nonzero" fill-opacity="1" /><path clip-path="url(#clip630)" d="M2016.94 318.068 L2046.62 318.068 L2046.62 321.957 L2016.94 321.957 L2016.94 318.068 M2016.94 327.512 L2046.62 327.512 L2046.62 331.448 L2016.94 331.448 L2016.94 327.512 Z" fill="#000000" fill-rule="nonzero" fill-opacity="1" /><path clip-path="url(#clip630)" d="M2070.6 305.036 L2092.82 305.036 L2092.82 307.026 L2080.28 339.596 L2075.39 339.596 L2087.2 308.971 L2070.6 308.971 L2070.6 305.036 Z" fill="#000000" fill-rule="nonzero" fill-opacity="1" /><path clip-path="url(#clip630)" d="M2101.94 333.716 L2106.83 333.716 L2106.83 339.596 L2101.94 339.596 L2101.94 333.716 Z" fill="#000000" fill-rule="nonzero" fill-opacity="1" /><path clip-path="url(#clip630)" d="M2127.01 308.114 Q2123.4 308.114 2121.57 311.679 Q2119.77 315.221 2119.77 322.35 Q2119.77 329.457 2121.57 333.022 Q2123.4 336.563 2127.01 336.563 Q2130.65 336.563 2132.45 333.022 Q2134.28 329.457 2134.28 322.35 Q2134.28 315.221 2132.45 311.679 Q2130.65 308.114 2127.01 308.114 M2127.01 304.411 Q2132.82 304.411 2135.88 309.017 Q2138.96 313.6 2138.96 322.35 Q2138.96 331.077 2135.88 335.684 Q2132.82 340.267 2127.01 340.267 Q2121.2 340.267 2118.12 335.684 Q2115.07 331.077 2115.07 322.35 Q2115.07 313.6 2118.12 309.017 Q2121.2 304.411 2127.01 304.411 Z" fill="#000000" fill-rule="nonzero" fill-opacity="1" /><path clip-path="url(#clip630)" d="M2161.83 305.036 L2168.79 305.036 L2177.61 328.554 L2186.48 305.036 L2193.45 305.036 L2193.45 339.596 L2188.89 339.596 L2188.89 309.249 L2179.97 332.952 L2175.28 332.952 L2166.36 309.249 L2166.36 339.596 L2161.83 339.596 L2161.83 305.036 Z" fill="#000000" fill-rule="nonzero" fill-opacity="1" /><path clip-path="url(#clip630)" d="M2224.72 325.568 L2224.72 327.651 L2205.14 327.651 Q2205.41 332.049 2207.78 334.364 Q2210.16 336.656 2214.4 336.656 Q2216.85 336.656 2219.14 336.054 Q2221.46 335.452 2223.72 334.249 L2223.72 338.276 Q2221.43 339.248 2219.03 339.758 Q2216.62 340.267 2214.14 340.267 Q2207.94 340.267 2204.3 336.656 Q2200.69 333.045 2200.69 326.887 Q2200.69 320.522 2204.12 316.795 Q2207.57 313.045 2213.4 313.045 Q2218.63 313.045 2221.66 316.425 Q2224.72 319.781 2224.72 325.568 M2220.46 324.318 Q2220.41 320.823 2218.49 318.739 Q2216.59 316.656 2213.45 316.656 Q2209.88 316.656 2207.73 318.67 Q2205.6 320.684 2205.28 324.341 L2220.46 324.318 Z" fill="#000000" fill-rule="nonzero" fill-opacity="1" /><path clip-path="url(#clip630)" d="M2240.81 339.596 L2227.61 305.036 L2232.5 305.036 L2243.45 334.133 L2254.42 305.036 L2259.28 305.036 L2246.11 339.596 L2240.81 339.596 Z" fill="#000000" fill-rule="nonzero" fill-opacity="1" /></svg>
