<?xml version="1.0" encoding="utf-8"?>
<svg xmlns="http://www.w3.org/2000/svg" xmlns:xlink="http://www.w3.org/1999/xlink" width="600" height="400" viewBox="0 0 2400 1600">
<defs>
  <clipPath id="clip200">
    <rect x="0" y="0" width="2400" height="1600"/>
  </clipPath>
</defs>
<path clip-path="url(#clip200)" d="M0 1600 L2400 1600 L2400 0 L0 0  Z" fill="#ffffff" fill-rule="evenodd" fill-opacity="1"/>
<defs>
  <clipPath id="clip201">
    <rect x="249" y="123" width="2104" height="1301"/>
  </clipPath>
</defs>
<path clip-path="url(#clip200)" d="M249.542 1423.18 L2352.76 1423.18 L2352.76 123.472 L249.542 123.472  Z" fill="#ffffff" fill-rule="evenodd" fill-opacity="1"/>
<polyline clip-path="url(#clip201)" style="stroke:#000000; stroke-linecap:round; stroke-linejoin:round; stroke-width:2; stroke-opacity:0.1; fill:none" points="521.656,1423.18 521.656,123.472 "/>
<polyline clip-path="url(#clip201)" style="stroke:#000000; stroke-linecap:round; stroke-linejoin:round; stroke-width:2; stroke-opacity:0.1; fill:none" points="875.971,1423.18 875.971,123.472 "/>
<polyline clip-path="url(#clip201)" style="stroke:#000000; stroke-linecap:round; stroke-linejoin:round; stroke-width:2; stroke-opacity:0.1; fill:none" points="1230.29,1423.18 1230.29,123.472 "/>
<polyline clip-path="url(#clip201)" style="stroke:#000000; stroke-linecap:round; stroke-linejoin:round; stroke-width:2; stroke-opacity:0.1; fill:none" points="1584.6,1423.18 1584.6,123.472 "/>
<polyline clip-path="url(#clip201)" style="stroke:#000000; stroke-linecap:round; stroke-linejoin:round; stroke-width:2; stroke-opacity:0.1; fill:none" points="1938.92,1423.18 1938.92,123.472 "/>
<polyline clip-path="url(#clip201)" style="stroke:#000000; stroke-linecap:round; stroke-linejoin:round; stroke-width:2; stroke-opacity:0.1; fill:none" points="2293.23,1423.18 2293.23,123.472 "/>
<polyline clip-path="url(#clip201)" style="stroke:#000000; stroke-linecap:round; stroke-linejoin:round; stroke-width:2; stroke-opacity:0.1; fill:none" points="249.542,1386.4 2352.76,1386.4 "/>
<polyline clip-path="url(#clip201)" style="stroke:#000000; stroke-linecap:round; stroke-linejoin:round; stroke-width:2; stroke-opacity:0.1; fill:none" points="249.542,1038.31 2352.76,1038.31 "/>
<polyline clip-path="url(#clip201)" style="stroke:#000000; stroke-linecap:round; stroke-linejoin:round; stroke-width:2; stroke-opacity:0.1; fill:none" points="249.542,690.224 2352.76,690.224 "/>
<polyline clip-path="url(#clip201)" style="stroke:#000000; stroke-linecap:round; stroke-linejoin:round; stroke-width:2; stroke-opacity:0.1; fill:none" points="249.542,342.139 2352.76,342.139 "/>
<polyline clip-path="url(#clip200)" style="stroke:#000000; stroke-linecap:round; stroke-linejoin:round; stroke-width:4; stroke-opacity:1; fill:none" points="249.542,1423.18 2352.76,1423.18 "/>
<polyline clip-path="url(#clip200)" style="stroke:#000000; stroke-linecap:round; stroke-linejoin:round; stroke-width:4; stroke-opacity:1; fill:none" points="521.656,1423.18 521.656,1404.28 "/>
<polyline clip-path="url(#clip200)" style="stroke:#000000; stroke-linecap:round; stroke-linejoin:round; stroke-width:4; stroke-opacity:1; fill:none" points="875.971,1423.18 875.971,1404.28 "/>
<polyline clip-path="url(#clip200)" style="stroke:#000000; stroke-linecap:round; stroke-linejoin:round; stroke-width:4; stroke-opacity:1; fill:none" points="1230.29,1423.18 1230.29,1404.28 "/>
<polyline clip-path="url(#clip200)" style="stroke:#000000; stroke-linecap:round; stroke-linejoin:round; stroke-width:4; stroke-opacity:1; fill:none" points="1584.6,1423.18 1584.6,1404.28 "/>
<polyline clip-path="url(#clip200)" style="stroke:#000000; stroke-linecap:round; stroke-linejoin:round; stroke-width:4; stroke-opacity:1; fill:none" points="1938.92,1423.18 1938.92,1404.28 "/>
<polyline clip-path="url(#clip200)" style="stroke:#000000; stroke-linecap:round; stroke-linejoin:round; stroke-width:4; stroke-opacity:1; fill:none" points="2293.23,1423.18 2293.23,1404.28 "/>
<path clip-path="url(#clip200)" d="M496.355 1451.02 L514.712 1451.02 L514.712 1454.96 L500.638 1454.96 L500.638 1463.43 Q501.656 1463.08 502.675 1462.92 Q503.693 1462.73 504.712 1462.73 Q510.499 1462.73 513.878 1465.9 Q517.258 1469.08 517.258 1474.49 Q517.258 1480.07 513.786 1483.17 Q510.313 1486.25 503.994 1486.25 Q501.818 1486.25 499.55 1485.88 Q497.304 1485.51 494.897 1484.77 L494.897 1480.07 Q496.98 1481.2 499.202 1481.76 Q501.425 1482.32 503.901 1482.32 Q507.906 1482.32 510.244 1480.21 Q512.582 1478.1 512.582 1474.49 Q512.582 1470.88 510.244 1468.77 Q507.906 1466.67 503.901 1466.67 Q502.026 1466.67 500.151 1467.08 Q498.3 1467.5 496.355 1468.38 L496.355 1451.02 Z" fill="#000000" fill-rule="nonzero" fill-opacity="1" /><path clip-path="url(#clip200)" d="M536.471 1454.1 Q532.86 1454.1 531.031 1457.66 Q529.225 1461.2 529.225 1468.33 Q529.225 1475.44 531.031 1479.01 Q532.86 1482.55 536.471 1482.55 Q540.105 1482.55 541.91 1479.01 Q543.739 1475.44 543.739 1468.33 Q543.739 1461.2 541.91 1457.66 Q540.105 1454.1 536.471 1454.1 M536.471 1450.39 Q542.281 1450.39 545.336 1455 Q548.415 1459.58 548.415 1468.33 Q548.415 1477.06 545.336 1481.67 Q542.281 1486.25 536.471 1486.25 Q530.661 1486.25 527.582 1481.67 Q524.526 1477.06 524.526 1468.33 Q524.526 1459.58 527.582 1455 Q530.661 1450.39 536.471 1450.39 Z" fill="#000000" fill-rule="nonzero" fill-opacity="1" /><path clip-path="url(#clip200)" d="M835.578 1481.64 L843.217 1481.64 L843.217 1455.28 L834.906 1456.95 L834.906 1452.69 L843.17 1451.02 L847.846 1451.02 L847.846 1481.64 L855.485 1481.64 L855.485 1485.58 L835.578 1485.58 L835.578 1481.64 Z" fill="#000000" fill-rule="nonzero" fill-opacity="1" /><path clip-path="url(#clip200)" d="M874.929 1454.1 Q871.318 1454.1 869.49 1457.66 Q867.684 1461.2 867.684 1468.33 Q867.684 1475.44 869.49 1479.01 Q871.318 1482.55 874.929 1482.55 Q878.564 1482.55 880.369 1479.01 Q882.198 1475.44 882.198 1468.33 Q882.198 1461.2 880.369 1457.66 Q878.564 1454.1 874.929 1454.1 M874.929 1450.39 Q880.739 1450.39 883.795 1455 Q886.874 1459.58 886.874 1468.33 Q886.874 1477.06 883.795 1481.67 Q880.739 1486.25 874.929 1486.25 Q869.119 1486.25 866.04 1481.67 Q862.985 1477.06 862.985 1468.33 Q862.985 1459.58 866.04 1455 Q869.119 1450.39 874.929 1450.39 Z" fill="#000000" fill-rule="nonzero" fill-opacity="1" /><path clip-path="url(#clip200)" d="M905.091 1454.1 Q901.48 1454.1 899.651 1457.66 Q897.846 1461.2 897.846 1468.33 Q897.846 1475.44 899.651 1479.01 Q901.48 1482.55 905.091 1482.55 Q908.725 1482.55 910.531 1479.01 Q912.36 1475.44 912.36 1468.33 Q912.36 1461.2 910.531 1457.66 Q908.725 1454.1 905.091 1454.1 M905.091 1450.39 Q910.901 1450.39 913.957 1455 Q917.036 1459.58 917.036 1468.33 Q917.036 1477.06 913.957 1481.67 Q910.901 1486.25 905.091 1486.25 Q899.281 1486.25 896.202 1481.67 Q893.147 1477.06 893.147 1468.33 Q893.147 1459.58 896.202 1455 Q899.281 1450.39 905.091 1450.39 Z" fill="#000000" fill-rule="nonzero" fill-opacity="1" /><path clip-path="url(#clip200)" d="M1189.89 1481.64 L1197.53 1481.64 L1197.53 1455.28 L1189.22 1456.95 L1189.22 1452.69 L1197.49 1451.02 L1202.16 1451.02 L1202.16 1481.64 L1209.8 1481.64 L1209.8 1485.58 L1189.89 1485.58 L1189.89 1481.64 Z" fill="#000000" fill-rule="nonzero" fill-opacity="1" /><path clip-path="url(#clip200)" d="M1219.29 1451.02 L1237.65 1451.02 L1237.65 1454.96 L1223.57 1454.96 L1223.57 1463.43 Q1224.59 1463.08 1225.61 1462.92 Q1226.63 1462.73 1227.65 1462.73 Q1233.43 1462.73 1236.81 1465.9 Q1240.19 1469.08 1240.19 1474.49 Q1240.19 1480.07 1236.72 1483.17 Q1233.25 1486.25 1226.93 1486.25 Q1224.75 1486.25 1222.49 1485.88 Q1220.24 1485.51 1217.83 1484.77 L1217.83 1480.07 Q1219.92 1481.2 1222.14 1481.76 Q1224.36 1482.32 1226.84 1482.32 Q1230.84 1482.32 1233.18 1480.21 Q1235.52 1478.1 1235.52 1474.49 Q1235.52 1470.88 1233.18 1468.77 Q1230.84 1466.67 1226.84 1466.67 Q1224.96 1466.67 1223.09 1467.08 Q1221.24 1467.5 1219.29 1468.38 L1219.29 1451.02 Z" fill="#000000" fill-rule="nonzero" fill-opacity="1" /><path clip-path="url(#clip200)" d="M1259.41 1454.1 Q1255.8 1454.1 1253.97 1457.66 Q1252.16 1461.2 1252.16 1468.33 Q1252.16 1475.44 1253.97 1479.01 Q1255.8 1482.55 1259.41 1482.55 Q1263.04 1482.55 1264.85 1479.01 Q1266.67 1475.44 1266.67 1468.33 Q1266.67 1461.2 1264.85 1457.66 Q1263.04 1454.1 1259.41 1454.1 M1259.41 1450.39 Q1265.22 1450.39 1268.27 1455 Q1271.35 1459.58 1271.35 1468.33 Q1271.35 1477.06 1268.27 1481.67 Q1265.22 1486.25 1259.41 1486.25 Q1253.6 1486.25 1250.52 1481.67 Q1247.46 1477.06 1247.46 1468.33 Q1247.46 1459.58 1250.52 1455 Q1253.6 1450.39 1259.41 1450.39 Z" fill="#000000" fill-rule="nonzero" fill-opacity="1" /><path clip-path="url(#clip200)" d="M1548.29 1481.64 L1564.61 1481.64 L1564.61 1485.58 L1542.67 1485.58 L1542.67 1481.64 Q1545.33 1478.89 1549.91 1474.26 Q1554.52 1469.61 1555.7 1468.27 Q1557.95 1465.74 1558.83 1464.01 Q1559.73 1462.25 1559.73 1460.56 Q1559.73 1457.8 1557.78 1456.07 Q1555.86 1454.33 1552.76 1454.33 Q1550.56 1454.33 1548.11 1455.09 Q1545.68 1455.86 1542.9 1457.41 L1542.9 1452.69 Q1545.72 1451.55 1548.18 1450.97 Q1550.63 1450.39 1552.67 1450.39 Q1558.04 1450.39 1561.23 1453.08 Q1564.43 1455.77 1564.43 1460.26 Q1564.43 1462.39 1563.62 1464.31 Q1562.83 1466.2 1560.72 1468.8 Q1560.15 1469.47 1557.04 1472.69 Q1553.94 1475.88 1548.29 1481.64 Z" fill="#000000" fill-rule="nonzero" fill-opacity="1" /><path clip-path="url(#clip200)" d="M1584.43 1454.1 Q1580.82 1454.1 1578.99 1457.66 Q1577.18 1461.2 1577.18 1468.33 Q1577.18 1475.44 1578.99 1479.01 Q1580.82 1482.55 1584.43 1482.55 Q1588.06 1482.55 1589.87 1479.01 Q1591.7 1475.44 1591.7 1468.33 Q1591.7 1461.2 1589.87 1457.66 Q1588.06 1454.1 1584.43 1454.1 M1584.43 1450.39 Q1590.24 1450.39 1593.29 1455 Q1596.37 1459.58 1596.37 1468.33 Q1596.37 1477.06 1593.29 1481.67 Q1590.24 1486.25 1584.43 1486.25 Q1578.62 1486.25 1575.54 1481.67 Q1572.48 1477.06 1572.48 1468.33 Q1572.48 1459.58 1575.54 1455 Q1578.62 1450.39 1584.43 1450.39 Z" fill="#000000" fill-rule="nonzero" fill-opacity="1" /><path clip-path="url(#clip200)" d="M1614.59 1454.1 Q1610.98 1454.1 1609.15 1457.66 Q1607.34 1461.2 1607.34 1468.33 Q1607.34 1475.44 1609.15 1479.01 Q1610.98 1482.55 1614.59 1482.55 Q1618.22 1482.55 1620.03 1479.01 Q1621.86 1475.44 1621.86 1468.33 Q1621.86 1461.2 1620.03 1457.66 Q1618.22 1454.1 1614.59 1454.1 M1614.59 1450.39 Q1620.4 1450.39 1623.45 1455 Q1626.53 1459.58 1626.53 1468.33 Q1626.53 1477.06 1623.45 1481.67 Q1620.4 1486.25 1614.59 1486.25 Q1608.78 1486.25 1605.7 1481.67 Q1602.64 1477.06 1602.64 1468.33 Q1602.64 1459.58 1605.7 1455 Q1608.78 1450.39 1614.59 1450.39 Z" fill="#000000" fill-rule="nonzero" fill-opacity="1" /><path clip-path="url(#clip200)" d="M1902.61 1481.64 L1918.93 1481.64 L1918.93 1485.58 L1896.98 1485.58 L1896.98 1481.64 Q1899.65 1478.89 1904.23 1474.26 Q1908.84 1469.61 1910.02 1468.27 Q1912.26 1465.74 1913.14 1464.01 Q1914.04 1462.25 1914.04 1460.56 Q1914.04 1457.8 1912.1 1456.07 Q1910.18 1454.33 1907.08 1454.33 Q1904.88 1454.33 1902.42 1455.09 Q1899.99 1455.86 1897.21 1457.41 L1897.21 1452.69 Q1900.04 1451.55 1902.49 1450.97 Q1904.95 1450.39 1906.98 1450.39 Q1912.35 1450.39 1915.55 1453.08 Q1918.74 1455.77 1918.74 1460.26 Q1918.74 1462.39 1917.93 1464.31 Q1917.15 1466.2 1915.04 1468.8 Q1914.46 1469.47 1911.36 1472.69 Q1908.26 1475.88 1902.61 1481.64 Z" fill="#000000" fill-rule="nonzero" fill-opacity="1" /><path clip-path="url(#clip200)" d="M1928.79 1451.02 L1947.15 1451.02 L1947.15 1454.96 L1933.07 1454.96 L1933.07 1463.43 Q1934.09 1463.08 1935.11 1462.92 Q1936.13 1462.73 1937.15 1462.73 Q1942.93 1462.73 1946.31 1465.9 Q1949.69 1469.08 1949.69 1474.49 Q1949.69 1480.07 1946.22 1483.17 Q1942.75 1486.25 1936.43 1486.25 Q1934.25 1486.25 1931.98 1485.88 Q1929.74 1485.51 1927.33 1484.77 L1927.33 1480.07 Q1929.41 1481.2 1931.64 1481.76 Q1933.86 1482.32 1936.33 1482.32 Q1940.34 1482.32 1942.68 1480.21 Q1945.02 1478.1 1945.02 1474.49 Q1945.02 1470.88 1942.68 1468.77 Q1940.34 1466.67 1936.33 1466.67 Q1934.46 1466.67 1932.58 1467.08 Q1930.73 1467.5 1928.79 1468.38 L1928.79 1451.02 Z" fill="#000000" fill-rule="nonzero" fill-opacity="1" /><path clip-path="url(#clip200)" d="M1968.9 1454.1 Q1965.29 1454.1 1963.46 1457.66 Q1961.66 1461.2 1961.66 1468.33 Q1961.66 1475.44 1963.46 1479.01 Q1965.29 1482.55 1968.9 1482.55 Q1972.54 1482.55 1974.34 1479.01 Q1976.17 1475.44 1976.17 1468.33 Q1976.17 1461.2 1974.34 1457.66 Q1972.54 1454.1 1968.9 1454.1 M1968.9 1450.39 Q1974.71 1450.39 1977.77 1455 Q1980.85 1459.58 1980.85 1468.33 Q1980.85 1477.06 1977.77 1481.67 Q1974.71 1486.25 1968.9 1486.25 Q1963.09 1486.25 1960.02 1481.67 Q1956.96 1477.06 1956.96 1468.33 Q1956.96 1459.58 1960.02 1455 Q1963.09 1450.39 1968.9 1450.39 Z" fill="#000000" fill-rule="nonzero" fill-opacity="1" /><path clip-path="url(#clip200)" d="M2266.99 1466.95 Q2270.35 1467.66 2272.22 1469.93 Q2274.12 1472.2 2274.12 1475.53 Q2274.12 1480.65 2270.6 1483.45 Q2267.09 1486.25 2260.6 1486.25 Q2258.43 1486.25 2256.11 1485.81 Q2253.82 1485.39 2251.37 1484.54 L2251.37 1480.02 Q2253.31 1481.16 2255.63 1481.74 Q2257.94 1482.32 2260.46 1482.32 Q2264.86 1482.32 2267.15 1480.58 Q2269.47 1478.84 2269.47 1475.53 Q2269.47 1472.48 2267.32 1470.77 Q2265.19 1469.03 2261.37 1469.03 L2257.34 1469.03 L2257.34 1465.19 L2261.55 1465.19 Q2265 1465.19 2266.83 1463.82 Q2268.66 1462.43 2268.66 1459.84 Q2268.66 1457.18 2266.76 1455.77 Q2264.89 1454.33 2261.37 1454.33 Q2259.45 1454.33 2257.25 1454.75 Q2255.05 1455.16 2252.41 1456.04 L2252.41 1451.88 Q2255.07 1451.14 2257.39 1450.77 Q2259.72 1450.39 2261.78 1450.39 Q2267.11 1450.39 2270.21 1452.83 Q2273.31 1455.23 2273.31 1459.35 Q2273.31 1462.22 2271.67 1464.21 Q2270.03 1466.18 2266.99 1466.95 Z" fill="#000000" fill-rule="nonzero" fill-opacity="1" /><path clip-path="url(#clip200)" d="M2292.99 1454.1 Q2289.38 1454.1 2287.55 1457.66 Q2285.74 1461.2 2285.74 1468.33 Q2285.74 1475.44 2287.55 1479.01 Q2289.38 1482.55 2292.99 1482.55 Q2296.62 1482.55 2298.43 1479.01 Q2300.26 1475.44 2300.26 1468.33 Q2300.26 1461.2 2298.43 1457.66 Q2296.62 1454.1 2292.99 1454.1 M2292.99 1450.39 Q2298.8 1450.39 2301.85 1455 Q2304.93 1459.58 2304.93 1468.33 Q2304.93 1477.06 2301.85 1481.67 Q2298.8 1486.25 2292.99 1486.25 Q2287.18 1486.25 2284.1 1481.67 Q2281.04 1477.06 2281.04 1468.33 Q2281.04 1459.58 2284.1 1455 Q2287.18 1450.39 2292.99 1450.39 Z" fill="#000000" fill-rule="nonzero" fill-opacity="1" /><path clip-path="url(#clip200)" d="M2323.15 1454.1 Q2319.54 1454.1 2317.71 1457.66 Q2315.9 1461.2 2315.9 1468.33 Q2315.9 1475.44 2317.71 1479.01 Q2319.54 1482.55 2323.15 1482.55 Q2326.78 1482.55 2328.59 1479.01 Q2330.42 1475.44 2330.42 1468.33 Q2330.42 1461.2 2328.59 1457.66 Q2326.78 1454.1 2323.15 1454.1 M2323.15 1450.39 Q2328.96 1450.39 2332.02 1455 Q2335.09 1459.58 2335.09 1468.33 Q2335.09 1477.06 2332.02 1481.67 Q2328.96 1486.25 2323.15 1486.25 Q2317.34 1486.25 2314.26 1481.67 Q2311.21 1477.06 2311.21 1468.33 Q2311.21 1459.58 2314.26 1455 Q2317.34 1450.39 2323.15 1450.39 Z" fill="#000000" fill-rule="nonzero" fill-opacity="1" /><path clip-path="url(#clip200)" d="M1177.69 1520.52 L1217.89 1520.52 L1217.89 1525.93 L1201.02 1525.93 L1201.02 1568.04 L1194.56 1568.04 L1194.56 1525.93 L1177.69 1525.93 L1177.69 1520.52 Z" fill="#000000" fill-rule="nonzero" fill-opacity="1" /><path clip-path="url(#clip200)" d="M1244.02 1518.52 L1257.51 1518.52 L1257.51 1523.07 L1249.87 1523.07 L1249.87 1572.09 L1257.51 1572.09 L1257.51 1576.64 L1244.02 1576.64 L1244.02 1518.52 Z" fill="#000000" fill-rule="nonzero" fill-opacity="1" /><path clip-path="url(#clip200)" d="M1270.24 1520.52 L1279.82 1520.52 L1291.95 1552.86 L1304.14 1520.52 L1313.72 1520.52 L1313.72 1568.04 L1307.45 1568.04 L1307.45 1526.32 L1295.2 1558.91 L1288.74 1558.91 L1276.48 1526.32 L1276.48 1568.04 L1270.24 1568.04 L1270.24 1520.52 Z" fill="#000000" fill-rule="nonzero" fill-opacity="1" /><path clip-path="url(#clip200)" d="M1356.72 1548.76 L1356.72 1551.62 L1329.79 1551.62 Q1330.18 1557.67 1333.42 1560.85 Q1336.7 1564 1342.53 1564 Q1345.9 1564 1349.05 1563.17 Q1352.23 1562.35 1355.35 1560.69 L1355.35 1566.23 Q1352.2 1567.57 1348.89 1568.27 Q1345.58 1568.97 1342.18 1568.97 Q1333.65 1568.97 1328.65 1564 Q1323.68 1559.04 1323.68 1550.57 Q1323.68 1541.82 1328.39 1536.69 Q1333.14 1531.54 1341.16 1531.54 Q1348.35 1531.54 1352.52 1536.18 Q1356.72 1540.8 1356.72 1548.76 M1350.87 1547.04 Q1350.8 1542.23 1348.16 1539.37 Q1345.55 1536.5 1341.22 1536.5 Q1336.32 1536.5 1333.36 1539.27 Q1330.43 1542.04 1329.99 1547.07 L1350.87 1547.04 Z" fill="#000000" fill-rule="nonzero" fill-opacity="1" /><path clip-path="url(#clip200)" d="M1378.84 1568.04 L1360.7 1520.52 L1367.42 1520.52 L1382.47 1560.53 L1397.56 1520.52 L1404.24 1520.52 L1386.13 1568.04 L1378.84 1568.04 Z" fill="#000000" fill-rule="nonzero" fill-opacity="1" /><path clip-path="url(#clip200)" d="M1424.61 1518.52 L1424.61 1576.64 L1411.12 1576.64 L1411.12 1572.09 L1418.72 1572.09 L1418.72 1523.07 L1411.12 1523.07 L1411.12 1518.52 L1424.61 1518.52 Z" fill="#000000" fill-rule="nonzero" fill-opacity="1" /><polyline clip-path="url(#clip200)" style="stroke:#000000; stroke-linecap:round; stroke-linejoin:round; stroke-width:4; stroke-opacity:1; fill:none" points="249.542,1423.18 249.542,123.472 "/>
<polyline clip-path="url(#clip200)" style="stroke:#000000; stroke-linecap:round; stroke-linejoin:round; stroke-width:4; stroke-opacity:1; fill:none" points="249.542,1386.4 268.44,1386.4 "/>
<polyline clip-path="url(#clip200)" style="stroke:#000000; stroke-linecap:round; stroke-linejoin:round; stroke-width:4; stroke-opacity:1; fill:none" points="249.542,1038.31 268.44,1038.31 "/>
<polyline clip-path="url(#clip200)" style="stroke:#000000; stroke-linecap:round; stroke-linejoin:round; stroke-width:4; stroke-opacity:1; fill:none" points="249.542,690.224 268.44,690.224 "/>
<polyline clip-path="url(#clip200)" style="stroke:#000000; stroke-linecap:round; stroke-linejoin:round; stroke-width:4; stroke-opacity:1; fill:none" points="249.542,342.139 268.44,342.139 "/>
<path clip-path="url(#clip200)" d="M126.205 1372.19 Q122.593 1372.19 120.765 1375.76 Q118.959 1379.3 118.959 1386.43 Q118.959 1393.54 120.765 1397.1 Q122.593 1400.64 126.205 1400.64 Q129.839 1400.64 131.644 1397.1 Q133.473 1393.54 133.473 1386.43 Q133.473 1379.3 131.644 1375.76 Q129.839 1372.19 126.205 1372.19 M126.205 1368.49 Q132.015 1368.49 135.07 1373.1 Q138.149 1377.68 138.149 1386.43 Q138.149 1395.16 135.07 1399.76 Q132.015 1404.35 126.205 1404.35 Q120.394 1404.35 117.316 1399.76 Q114.26 1395.16 114.26 1386.43 Q114.26 1377.68 117.316 1373.1 Q120.394 1368.49 126.205 1368.49 Z" fill="#000000" fill-rule="nonzero" fill-opacity="1" /><path clip-path="url(#clip200)" d="M146.366 1397.8 L151.251 1397.8 L151.251 1403.68 L146.366 1403.68 L146.366 1397.8 Z" fill="#000000" fill-rule="nonzero" fill-opacity="1" /><path clip-path="url(#clip200)" d="M171.436 1372.19 Q167.825 1372.19 165.996 1375.76 Q164.19 1379.3 164.19 1386.43 Q164.19 1393.54 165.996 1397.1 Q167.825 1400.64 171.436 1400.64 Q175.07 1400.64 176.876 1397.1 Q178.704 1393.54 178.704 1386.43 Q178.704 1379.3 176.876 1375.76 Q175.07 1372.19 171.436 1372.19 M171.436 1368.49 Q177.246 1368.49 180.301 1373.1 Q183.38 1377.68 183.38 1386.43 Q183.38 1395.16 180.301 1399.76 Q177.246 1404.35 171.436 1404.35 Q165.626 1404.35 162.547 1399.76 Q159.491 1395.16 159.491 1386.43 Q159.491 1377.68 162.547 1373.1 Q165.626 1368.49 171.436 1368.49 Z" fill="#000000" fill-rule="nonzero" fill-opacity="1" /><path clip-path="url(#clip200)" d="M201.598 1372.19 Q197.987 1372.19 196.158 1375.76 Q194.352 1379.3 194.352 1386.43 Q194.352 1393.54 196.158 1397.1 Q197.987 1400.64 201.598 1400.64 Q205.232 1400.64 207.037 1397.1 Q208.866 1393.54 208.866 1386.43 Q208.866 1379.3 207.037 1375.76 Q205.232 1372.19 201.598 1372.19 M201.598 1368.49 Q207.408 1368.49 210.463 1373.1 Q213.542 1377.68 213.542 1386.43 Q213.542 1395.16 210.463 1399.76 Q207.408 1404.35 201.598 1404.35 Q195.787 1404.35 192.709 1399.76 Q189.653 1395.16 189.653 1386.43 Q189.653 1377.68 192.709 1373.1 Q195.787 1368.49 201.598 1368.49 Z" fill="#000000" fill-rule="nonzero" fill-opacity="1" /><path clip-path="url(#clip200)" d="M127.431 1024.11 Q123.82 1024.11 121.992 1027.67 Q120.186 1031.22 120.186 1038.34 Q120.186 1045.45 121.992 1049.02 Q123.82 1052.56 127.431 1052.56 Q131.066 1052.56 132.871 1049.02 Q134.7 1045.45 134.7 1038.34 Q134.7 1031.22 132.871 1027.67 Q131.066 1024.11 127.431 1024.11 M127.431 1020.41 Q133.242 1020.41 136.297 1025.01 Q139.376 1029.59 139.376 1038.34 Q139.376 1047.07 136.297 1051.68 Q133.242 1056.26 127.431 1056.26 Q121.621 1056.26 118.543 1051.68 Q115.487 1047.07 115.487 1038.34 Q115.487 1029.59 118.543 1025.01 Q121.621 1020.41 127.431 1020.41 Z" fill="#000000" fill-rule="nonzero" fill-opacity="1" /><path clip-path="url(#clip200)" d="M147.593 1049.71 L152.478 1049.71 L152.478 1055.59 L147.593 1055.59 L147.593 1049.71 Z" fill="#000000" fill-rule="nonzero" fill-opacity="1" /><path clip-path="url(#clip200)" d="M172.663 1024.11 Q169.052 1024.11 167.223 1027.67 Q165.417 1031.22 165.417 1038.34 Q165.417 1045.45 167.223 1049.02 Q169.052 1052.56 172.663 1052.56 Q176.297 1052.56 178.102 1049.02 Q179.931 1045.45 179.931 1038.34 Q179.931 1031.22 178.102 1027.67 Q176.297 1024.11 172.663 1024.11 M172.663 1020.41 Q178.473 1020.41 181.528 1025.01 Q184.607 1029.59 184.607 1038.34 Q184.607 1047.07 181.528 1051.68 Q178.473 1056.26 172.663 1056.26 Q166.852 1056.26 163.774 1051.68 Q160.718 1047.07 160.718 1038.34 Q160.718 1029.59 163.774 1025.01 Q166.852 1020.41 172.663 1020.41 Z" fill="#000000" fill-rule="nonzero" fill-opacity="1" /><path clip-path="url(#clip200)" d="M193.635 1051.65 L201.274 1051.65 L201.274 1025.29 L192.963 1026.96 L192.963 1022.7 L201.227 1021.03 L205.903 1021.03 L205.903 1051.65 L213.542 1051.65 L213.542 1055.59 L193.635 1055.59 L193.635 1051.65 Z" fill="#000000" fill-rule="nonzero" fill-opacity="1" /><path clip-path="url(#clip200)" d="M127.802 676.023 Q124.191 676.023 122.362 679.588 Q120.556 683.129 120.556 690.259 Q120.556 697.366 122.362 700.93 Q124.191 704.472 127.802 704.472 Q131.436 704.472 133.242 700.93 Q135.07 697.366 135.07 690.259 Q135.07 683.129 133.242 679.588 Q131.436 676.023 127.802 676.023 M127.802 672.319 Q133.612 672.319 136.667 676.926 Q139.746 681.509 139.746 690.259 Q139.746 698.986 136.667 703.592 Q133.612 708.176 127.802 708.176 Q121.992 708.176 118.913 703.592 Q115.857 698.986 115.857 690.259 Q115.857 681.509 118.913 676.926 Q121.992 672.319 127.802 672.319 Z" fill="#000000" fill-rule="nonzero" fill-opacity="1" /><path clip-path="url(#clip200)" d="M147.964 701.625 L152.848 701.625 L152.848 707.504 L147.964 707.504 L147.964 701.625 Z" fill="#000000" fill-rule="nonzero" fill-opacity="1" /><path clip-path="url(#clip200)" d="M173.033 676.023 Q169.422 676.023 167.593 679.588 Q165.788 683.129 165.788 690.259 Q165.788 697.366 167.593 700.93 Q169.422 704.472 173.033 704.472 Q176.667 704.472 178.473 700.93 Q180.301 697.366 180.301 690.259 Q180.301 683.129 178.473 679.588 Q176.667 676.023 173.033 676.023 M173.033 672.319 Q178.843 672.319 181.899 676.926 Q184.977 681.509 184.977 690.259 Q184.977 698.986 181.899 703.592 Q178.843 708.176 173.033 708.176 Q167.223 708.176 164.144 703.592 Q161.089 698.986 161.089 690.259 Q161.089 681.509 164.144 676.926 Q167.223 672.319 173.033 672.319 Z" fill="#000000" fill-rule="nonzero" fill-opacity="1" /><path clip-path="url(#clip200)" d="M197.223 703.569 L213.542 703.569 L213.542 707.504 L191.598 707.504 L191.598 703.569 Q194.26 700.815 198.843 696.185 Q203.449 691.532 204.63 690.19 Q206.875 687.666 207.755 685.93 Q208.658 684.171 208.658 682.481 Q208.658 679.727 206.713 677.991 Q204.792 676.255 201.69 676.255 Q199.491 676.255 197.037 677.018 Q194.607 677.782 191.829 679.333 L191.829 674.611 Q194.653 673.477 197.107 672.898 Q199.561 672.319 201.598 672.319 Q206.968 672.319 210.162 675.005 Q213.357 677.69 213.357 682.18 Q213.357 684.31 212.547 686.231 Q211.76 688.129 209.653 690.722 Q209.074 691.393 205.973 694.611 Q202.871 697.805 197.223 703.569 Z" fill="#000000" fill-rule="nonzero" fill-opacity="1" /><path clip-path="url(#clip200)" d="M126.853 327.937 Q123.242 327.937 121.413 331.502 Q119.607 335.044 119.607 342.173 Q119.607 349.28 121.413 352.845 Q123.242 356.386 126.853 356.386 Q130.487 356.386 132.292 352.845 Q134.121 349.28 134.121 342.173 Q134.121 335.044 132.292 331.502 Q130.487 327.937 126.853 327.937 M126.853 324.234 Q132.663 324.234 135.718 328.84 Q138.797 333.423 138.797 342.173 Q138.797 350.9 135.718 355.507 Q132.663 360.09 126.853 360.09 Q121.043 360.09 117.964 355.507 Q114.908 350.9 114.908 342.173 Q114.908 333.423 117.964 328.84 Q121.043 324.234 126.853 324.234 Z" fill="#000000" fill-rule="nonzero" fill-opacity="1" /><path clip-path="url(#clip200)" d="M147.015 353.539 L151.899 353.539 L151.899 359.419 L147.015 359.419 L147.015 353.539 Z" fill="#000000" fill-rule="nonzero" fill-opacity="1" /><path clip-path="url(#clip200)" d="M172.084 327.937 Q168.473 327.937 166.644 331.502 Q164.839 335.044 164.839 342.173 Q164.839 349.28 166.644 352.845 Q168.473 356.386 172.084 356.386 Q175.718 356.386 177.524 352.845 Q179.352 349.28 179.352 342.173 Q179.352 335.044 177.524 331.502 Q175.718 327.937 172.084 327.937 M172.084 324.234 Q177.894 324.234 180.95 328.84 Q184.028 333.423 184.028 342.173 Q184.028 350.9 180.95 355.507 Q177.894 360.09 172.084 360.09 Q166.274 360.09 163.195 355.507 Q160.14 350.9 160.14 342.173 Q160.14 333.423 163.195 328.84 Q166.274 324.234 172.084 324.234 Z" fill="#000000" fill-rule="nonzero" fill-opacity="1" /><path clip-path="url(#clip200)" d="M206.412 340.785 Q209.769 341.502 211.644 343.771 Q213.542 346.039 213.542 349.372 Q213.542 354.488 210.024 357.289 Q206.505 360.09 200.024 360.09 Q197.848 360.09 195.533 359.65 Q193.241 359.234 190.788 358.377 L190.788 353.863 Q192.732 354.997 195.047 355.576 Q197.362 356.155 199.885 356.155 Q204.283 356.155 206.574 354.419 Q208.889 352.683 208.889 349.372 Q208.889 346.317 206.737 344.604 Q204.607 342.868 200.787 342.868 L196.76 342.868 L196.76 339.025 L200.973 339.025 Q204.422 339.025 206.25 337.66 Q208.079 336.271 208.079 333.678 Q208.079 331.016 206.181 329.604 Q204.306 328.169 200.787 328.169 Q198.866 328.169 196.667 328.586 Q194.468 329.002 191.829 329.882 L191.829 325.715 Q194.491 324.974 196.806 324.604 Q199.144 324.234 201.204 324.234 Q206.528 324.234 209.63 326.664 Q212.732 329.072 212.732 333.192 Q212.732 336.062 211.088 338.053 Q209.445 340.021 206.412 340.785 Z" fill="#000000" fill-rule="nonzero" fill-opacity="1" /><path clip-path="url(#clip200)" d="M29.4065 993.309 L34.9447 993.309 Q33.6716 995.792 33.035 998.465 Q32.3984 1001.14 32.3984 1004 Q32.3984 1008.36 33.7352 1010.56 Q35.072 1012.72 37.7456 1012.72 Q39.7826 1012.72 40.9603 1011.16 Q42.1061 1009.61 43.1565 1004.89 L43.6021 1002.89 Q44.9389 996.651 47.3897 994.041 Q49.8086 991.399 54.1691 991.399 Q59.1344 991.399 62.0308 995.346 Q64.9272 999.261 64.9272 1006.14 Q64.9272 1009 64.3543 1012.12 Q63.8132 1015.21 62.6992 1018.64 L56.6518 1018.64 Q58.3387 1015.4 59.198 1012.25 Q60.0256 1009.1 60.0256 1006.01 Q60.0256 1001.87 58.6251 999.643 Q57.1929 997.415 54.6147 997.415 Q52.2276 997.415 50.9545 999.038 Q49.6813 1000.63 48.5037 1006.07 L48.0262 1008.11 Q46.8804 1013.55 44.5251 1015.97 Q42.138 1018.39 38.0002 1018.39 Q32.9713 1018.39 30.2341 1014.82 Q27.4968 1011.26 27.4968 1004.7 Q27.4968 1001.46 27.9743 998.592 Q28.4517 995.728 29.4065 993.309 Z" fill="#000000" fill-rule="nonzero" fill-opacity="1" /><path clip-path="url(#clip200)" d="M28.3562 982.073 L28.3562 976.217 L64.0042 976.217 L64.0042 982.073 L28.3562 982.073 M14.479 982.073 L14.479 976.217 L21.895 976.217 L21.895 982.073 L14.479 982.073 Z" fill="#000000" fill-rule="nonzero" fill-opacity="1" /><path clip-path="url(#clip200)" d="M45.7664 940.505 Q39.4007 940.505 35.8996 943.147 Q32.3984 945.757 32.3984 950.5 Q32.3984 955.21 35.8996 957.852 Q39.4007 960.462 45.7664 960.462 Q52.1003 960.462 55.6014 957.852 Q59.1026 955.21 59.1026 950.5 Q59.1026 945.757 55.6014 943.147 Q52.1003 940.505 45.7664 940.505 M59.58 934.649 Q68.683 934.649 73.1071 938.691 Q77.5631 942.733 77.5631 951.072 Q77.5631 954.16 77.0857 956.897 Q76.6401 959.634 75.6852 962.212 L69.9879 962.212 Q71.3884 959.634 72.0568 957.12 Q72.7252 954.605 72.7252 951.995 Q72.7252 946.234 69.7015 943.37 Q66.7096 940.505 60.6303 940.505 L57.7339 940.505 Q60.885 942.32 62.4446 945.152 Q64.0042 947.985 64.0042 951.932 Q64.0042 958.488 59.0071 962.499 Q54.01 966.509 45.7664 966.509 Q37.491 966.509 32.4939 962.499 Q27.4968 958.488 27.4968 951.932 Q27.4968 947.985 29.0564 945.152 Q30.616 942.32 33.7671 940.505 L28.3562 940.505 L28.3562 934.649 L59.58 934.649 Z" fill="#000000" fill-rule="nonzero" fill-opacity="1" /><path clip-path="url(#clip200)" d="M35.1993 894.831 Q31.2526 892.635 29.3747 889.58 Q27.4968 886.524 27.4968 882.386 Q27.4968 876.816 31.4117 873.793 Q35.2948 870.769 42.4881 870.769 L64.0042 870.769 L64.0042 876.657 L42.679 876.657 Q37.5546 876.657 35.072 878.472 Q32.5894 880.286 32.5894 884.01 Q32.5894 888.561 35.6131 891.203 Q38.6368 893.845 43.8567 893.845 L64.0042 893.845 L64.0042 899.733 L42.679 899.733 Q37.5228 899.733 35.072 901.547 Q32.5894 903.361 32.5894 907.149 Q32.5894 911.637 35.6449 914.279 Q38.6686 916.92 43.8567 916.92 L64.0042 916.92 L64.0042 922.809 L28.3562 922.809 L28.3562 916.92 L33.8944 916.92 Q30.616 914.915 29.0564 912.114 Q27.4968 909.313 27.4968 905.462 Q27.4968 901.579 29.4702 898.874 Q31.4436 896.136 35.1993 894.831 Z" fill="#000000" fill-rule="nonzero" fill-opacity="1" /><path clip-path="url(#clip200)" d="M46.0847 842.887 Q46.0847 849.985 47.7079 852.722 Q49.3312 855.46 53.2461 855.46 Q56.3653 855.46 58.2114 853.422 Q60.0256 851.354 60.0256 847.821 Q60.0256 842.951 56.5881 840.023 Q53.1188 837.063 47.3897 837.063 L46.0847 837.063 L46.0847 842.887 M43.6657 831.206 L64.0042 831.206 L64.0042 837.063 L58.5933 837.063 Q61.8398 839.068 63.3994 842.06 Q64.9272 845.052 64.9272 849.38 Q64.9272 854.855 61.8716 858.101 Q58.7843 861.316 53.6281 861.316 Q47.6125 861.316 44.5569 857.306 Q41.5014 853.263 41.5014 845.274 L41.5014 837.063 L40.9285 837.063 Q36.8862 837.063 34.6901 839.736 Q32.4621 842.378 32.4621 847.184 Q32.4621 850.24 33.1941 853.136 Q33.9262 856.032 35.3903 858.706 L29.9795 858.706 Q28.7381 855.491 28.1334 852.468 Q27.4968 849.444 27.4968 846.579 Q27.4968 838.845 31.5072 835.026 Q35.5176 831.206 43.6657 831.206 Z" fill="#000000" fill-rule="nonzero" fill-opacity="1" /><path clip-path="url(#clip200)" d="M14.479 798.964 L14.479 785.469 L19.0304 785.469 L19.0304 793.107 L68.0464 793.107 L68.0464 785.469 L72.5979 785.469 L72.5979 798.964 L14.479 798.964 Z" fill="#000000" fill-rule="nonzero" fill-opacity="1" /><path clip-path="url(#clip200)" d="M57.2247 740.336 L44.4614 740.336 L44.4614 750.839 L39.1779 750.839 L39.1779 733.97 L59.58 733.97 Q62.2218 737.694 63.5904 742.182 Q64.9272 746.67 64.9272 751.762 Q64.9272 762.902 58.4342 769.204 Q51.9093 775.474 40.2919 775.474 Q28.6427 775.474 22.1496 769.204 Q15.6248 762.902 15.6248 751.762 Q15.6248 747.115 16.7706 742.946 Q17.9164 738.744 20.1444 735.211 L26.9876 735.211 Q23.9639 738.776 22.4361 742.787 Q20.9083 746.797 20.9083 751.221 Q20.9083 759.942 25.7781 764.334 Q30.6479 768.695 40.2919 768.695 Q49.9041 768.695 54.7739 764.334 Q59.6436 759.942 59.6436 751.221 Q59.6436 747.815 59.0707 745.142 Q58.466 742.468 57.2247 740.336 Z" fill="#000000" fill-rule="nonzero" fill-opacity="1" /><path clip-path="url(#clip200)" d="M44.7161 691.988 L47.5806 691.988 L47.5806 718.915 Q53.6281 718.533 56.8109 715.287 Q59.9619 712.008 59.9619 706.184 Q59.9619 702.81 59.1344 699.659 Q58.3069 696.476 56.6518 693.357 L62.1899 693.357 Q63.5267 696.508 64.227 699.818 Q64.9272 703.128 64.9272 706.534 Q64.9272 715.064 59.9619 720.061 Q54.9967 725.026 46.5303 725.026 Q37.7774 725.026 32.6531 720.316 Q27.4968 715.573 27.4968 707.552 Q27.4968 700.359 32.1438 696.19 Q36.7589 691.988 44.7161 691.988 M42.9973 697.845 Q38.1912 697.908 35.3266 700.55 Q32.4621 703.16 32.4621 707.489 Q32.4621 712.39 35.2312 715.35 Q38.0002 718.279 43.0292 718.724 L42.9973 697.845 Z" fill="#000000" fill-rule="nonzero" fill-opacity="1" /><path clip-path="url(#clip200)" d="M64.0042 669.867 L16.4842 688.01 L16.4842 681.294 L56.4926 666.239 L16.4842 651.152 L16.4842 644.468 L64.0042 662.579 L64.0042 669.867 Z" fill="#000000" fill-rule="nonzero" fill-opacity="1" /><path clip-path="url(#clip200)" d="M16.4842 613.499 L34.2127 596.216 L34.2127 602.614 L21.6404 616.618 L34.2127 630.623 L34.2127 637.02 L16.4842 619.737 L16.4842 613.499 Z" fill="#000000" fill-rule="nonzero" fill-opacity="1" /><path clip-path="url(#clip200)" d="M38.3822 562.86 Q39.3689 558.245 42.4881 555.667 Q45.6073 553.057 50.1906 553.057 Q57.2247 553.057 61.0759 557.895 Q64.9272 562.732 64.9272 571.644 Q64.9272 574.636 64.3224 577.819 Q63.7495 580.97 62.5719 584.344 L56.3653 584.344 Q57.9249 581.67 58.7206 578.488 Q59.5163 575.305 59.5163 571.835 Q59.5163 565.788 57.1292 562.637 Q54.7421 559.454 50.1906 559.454 Q45.9892 559.454 43.6339 562.414 Q41.2468 565.342 41.2468 570.594 L41.2468 576.132 L35.9632 576.132 L35.9632 570.34 Q35.9632 565.597 34.0853 563.083 Q32.1756 560.568 28.6108 560.568 Q24.9505 560.568 23.009 563.178 Q21.0356 565.756 21.0356 570.594 Q21.0356 573.236 21.6086 576.26 Q22.1815 579.283 23.3909 582.912 L17.6618 582.912 Q16.6433 579.252 16.134 576.069 Q15.6248 572.854 15.6248 570.021 Q15.6248 562.701 18.9668 558.436 Q22.277 554.171 27.9424 554.171 Q31.8892 554.171 34.6264 556.43 Q37.3318 558.69 38.3822 562.86 Z" fill="#000000" fill-rule="nonzero" fill-opacity="1" /><path clip-path="url(#clip200)" d="M14.479 528.008 L72.5979 528.008 L72.5979 541.503 L68.0464 541.503 L68.0464 533.896 L19.0304 533.896 L19.0304 541.503 L14.479 541.503 L14.479 528.008 Z" fill="#000000" fill-rule="nonzero" fill-opacity="1" /><path clip-path="url(#clip200)" d="M978.94 14.0809 L978.94 22.0612 Q974.282 19.8332 970.15 18.7395 Q966.018 17.6457 962.169 17.6457 Q955.485 17.6457 951.839 20.2383 Q948.234 22.8309 948.234 27.611 Q948.234 31.6214 950.624 33.6873 Q953.055 35.7128 959.779 36.9686 L964.721 37.9813 Q973.876 39.7232 978.211 44.1387 Q982.586 48.5136 982.586 55.8863 Q982.586 64.6767 976.672 69.2137 Q970.798 73.7508 959.415 73.7508 Q955.121 73.7508 950.26 72.7785 Q945.439 71.8063 940.254 69.9024 L940.254 61.4765 Q945.237 64.2716 950.017 65.6895 Q954.797 67.1073 959.415 67.1073 Q966.423 67.1073 970.231 64.3527 Q974.038 61.598 974.038 56.4939 Q974.038 52.0379 971.284 49.5264 Q968.57 47.0148 962.331 45.759 L957.349 44.7868 Q948.194 42.9639 944.102 39.075 Q940.011 35.1862 940.011 28.2591 Q940.011 20.2383 945.642 15.6203 Q951.313 11.0023 961.238 11.0023 Q965.491 11.0023 969.907 11.7719 Q974.322 12.5416 978.94 14.0809 Z" fill="#000000" fill-rule="nonzero" fill-opacity="1" /><path clip-path="url(#clip200)" d="M1002.23 65.7705 L1002.23 89.8329 L994.739 89.8329 L994.739 27.2059 L1002.23 27.2059 L1002.23 34.0924 Q1004.58 30.0415 1008.15 28.0971 Q1011.75 26.1121 1016.73 26.1121 Q1025 26.1121 1030.14 32.6746 Q1035.33 39.2371 1035.33 49.9314 Q1035.33 60.6258 1030.14 67.1883 Q1025 73.7508 1016.73 73.7508 Q1011.75 73.7508 1008.15 71.8063 Q1004.58 69.8214 1002.23 65.7705 M1027.59 49.9314 Q1027.59 41.7081 1024.19 37.0496 Q1020.83 32.3505 1014.91 32.3505 Q1009 32.3505 1005.59 37.0496 Q1002.23 41.7081 1002.23 49.9314 Q1002.23 58.1548 1005.59 62.8538 Q1009 67.5124 1014.91 67.5124 Q1020.83 67.5124 1024.19 62.8538 Q1027.59 58.1548 1027.59 49.9314 Z" fill="#000000" fill-rule="nonzero" fill-opacity="1" /><path clip-path="url(#clip200)" d="M1086.49 48.0275 L1086.49 51.6733 L1052.22 51.6733 Q1052.71 59.3701 1056.84 63.421 Q1061.01 67.4314 1068.42 67.4314 Q1072.72 67.4314 1076.73 66.3781 Q1080.78 65.3249 1084.75 63.2184 L1084.75 70.267 Q1080.74 71.9684 1076.53 72.8596 Q1072.31 73.7508 1067.98 73.7508 Q1057.12 73.7508 1050.76 67.4314 Q1044.44 61.1119 1044.44 50.3365 Q1044.44 39.1965 1050.44 32.6746 Q1056.47 26.1121 1066.68 26.1121 Q1075.84 26.1121 1081.14 32.0264 Q1086.49 37.9003 1086.49 48.0275 M1079.04 45.84 Q1078.96 39.7232 1075.59 36.0774 Q1072.27 32.4315 1066.76 32.4315 Q1060.53 32.4315 1056.76 35.9558 Q1053.03 39.4801 1052.46 45.8805 L1079.04 45.84 Z" fill="#000000" fill-rule="nonzero" fill-opacity="1" /><path clip-path="url(#clip200)" d="M1131.38 28.9478 L1131.38 35.9153 Q1128.22 34.1734 1125.02 33.3227 Q1121.86 32.4315 1118.62 32.4315 Q1111.36 32.4315 1107.35 37.0496 Q1103.34 41.6271 1103.34 49.9314 Q1103.34 58.2358 1107.35 62.8538 Q1111.36 67.4314 1118.62 67.4314 Q1121.86 67.4314 1125.02 66.5807 Q1128.22 65.6895 1131.38 63.9476 L1131.38 70.8341 Q1128.26 72.2924 1124.89 73.0216 Q1121.57 73.7508 1117.81 73.7508 Q1107.56 73.7508 1101.52 67.3098 Q1095.48 60.8689 1095.48 49.9314 Q1095.48 38.832 1101.56 32.472 Q1107.68 26.1121 1118.29 26.1121 Q1121.73 26.1121 1125.02 26.8413 Q1128.3 27.5299 1131.38 28.9478 Z" fill="#000000" fill-rule="nonzero" fill-opacity="1" /><path clip-path="url(#clip200)" d="M1151.71 14.324 L1151.71 27.2059 L1167.06 27.2059 L1167.06 32.9987 L1151.71 32.9987 L1151.71 57.6282 Q1151.71 63.1779 1153.21 64.7578 Q1154.75 66.3376 1159.41 66.3376 L1167.06 66.3376 L1167.06 72.576 L1159.41 72.576 Q1150.78 72.576 1147.5 69.3758 Q1144.22 66.1351 1144.22 57.6282 L1144.22 32.9987 L1138.75 32.9987 L1138.75 27.2059 L1144.22 27.2059 L1144.22 14.324 L1151.71 14.324 Z" fill="#000000" fill-rule="nonzero" fill-opacity="1" /><path clip-path="url(#clip200)" d="M1203.16 34.1734 Q1201.9 33.4443 1200.4 33.1202 Q1198.94 32.7556 1197.16 32.7556 Q1190.84 32.7556 1187.44 36.8875 Q1184.08 40.9789 1184.08 48.6757 L1184.08 72.576 L1176.58 72.576 L1176.58 27.2059 L1184.08 27.2059 L1184.08 34.2544 Q1186.43 30.1225 1190.19 28.1376 Q1193.96 26.1121 1199.35 26.1121 Q1200.12 26.1121 1201.05 26.2337 Q1201.98 26.3147 1203.12 26.5172 L1203.16 34.1734 Z" fill="#000000" fill-rule="nonzero" fill-opacity="1" /><path clip-path="url(#clip200)" d="M1231.59 49.7694 Q1222.56 49.7694 1219.08 51.8354 Q1215.59 53.9013 1215.59 58.8839 Q1215.59 62.8538 1218.19 65.2034 Q1220.82 67.5124 1225.32 67.5124 Q1231.51 67.5124 1235.24 63.1374 Q1239.01 58.7219 1239.01 51.4303 L1239.01 49.7694 L1231.59 49.7694 M1246.46 46.6907 L1246.46 72.576 L1239.01 72.576 L1239.01 65.6895 Q1236.46 69.8214 1232.65 71.8063 Q1228.84 73.7508 1223.33 73.7508 Q1216.36 73.7508 1212.23 69.8619 Q1208.14 65.9325 1208.14 59.3701 Q1208.14 51.7138 1213.24 47.825 Q1218.39 43.9361 1228.56 43.9361 L1239.01 43.9361 L1239.01 43.2069 Q1239.01 38.0623 1235.61 35.2672 Q1232.24 32.4315 1226.13 32.4315 Q1222.24 32.4315 1218.55 33.3632 Q1214.86 34.295 1211.46 36.1584 L1211.46 29.2718 Q1215.55 27.692 1219.4 26.9223 Q1223.25 26.1121 1226.9 26.1121 Q1236.74 26.1121 1241.6 31.2163 Q1246.46 36.3204 1246.46 46.6907 Z" fill="#000000" fill-rule="nonzero" fill-opacity="1" /><path clip-path="url(#clip200)" d="M1261.81 9.54393 L1269.27 9.54393 L1269.27 72.576 L1261.81 72.576 L1261.81 9.54393 Z" fill="#000000" fill-rule="nonzero" fill-opacity="1" /><path clip-path="url(#clip200)" d="M1340.16 28.5427 L1340.16 35.5912 Q1337 33.9709 1333.6 33.1607 Q1330.19 32.3505 1326.55 32.3505 Q1321 32.3505 1318.2 34.0519 Q1315.45 35.7533 1315.45 39.156 Q1315.45 41.7486 1317.43 43.2475 Q1319.42 44.7058 1325.41 46.0426 L1327.97 46.6097 Q1335.91 48.3111 1339.23 51.4303 Q1342.59 54.509 1342.59 60.0587 Q1342.59 66.3781 1337.57 70.0644 Q1332.58 73.7508 1323.83 73.7508 Q1320.19 73.7508 1316.22 73.0216 Q1312.29 72.3329 1307.91 70.9151 L1307.91 63.2184 Q1312.05 65.3654 1316.06 66.4591 Q1320.07 67.5124 1324 67.5124 Q1329.26 67.5124 1332.1 65.73 Q1334.93 63.9071 1334.93 60.6258 Q1334.93 57.5877 1332.87 55.9673 Q1330.84 54.3469 1323.92 52.8481 L1321.32 52.2405 Q1314.4 50.7821 1311.32 47.7845 Q1308.24 44.7463 1308.24 39.4801 Q1308.24 33.0797 1312.78 29.5959 Q1317.31 26.1121 1325.66 26.1121 Q1329.79 26.1121 1333.43 26.7198 Q1337.08 27.3274 1340.16 28.5427 Z" fill="#000000" fill-rule="nonzero" fill-opacity="1" /><path clip-path="url(#clip200)" d="M1354.46 27.2059 L1361.91 27.2059 L1361.91 72.576 L1354.46 72.576 L1354.46 27.2059 M1354.46 9.54393 L1361.91 9.54393 L1361.91 18.9825 L1354.46 18.9825 L1354.46 9.54393 Z" fill="#000000" fill-rule="nonzero" fill-opacity="1" /><path clip-path="url(#clip200)" d="M1407.36 49.3643 Q1407.36 41.2625 1404 36.8065 Q1400.68 32.3505 1394.64 32.3505 Q1388.65 32.3505 1385.29 36.8065 Q1381.96 41.2625 1381.96 49.3643 Q1381.96 57.4256 1385.29 61.8816 Q1388.65 66.3376 1394.64 66.3376 Q1400.68 66.3376 1404 61.8816 Q1407.36 57.4256 1407.36 49.3643 M1414.82 66.9452 Q1414.82 78.5308 1409.67 84.1616 Q1404.53 89.8329 1393.91 89.8329 Q1389.99 89.8329 1386.5 89.2252 Q1383.02 88.6581 1379.74 87.4428 L1379.74 80.1917 Q1383.02 81.9741 1386.22 82.8248 Q1389.42 83.6755 1392.74 83.6755 Q1400.07 83.6755 1403.72 79.8271 Q1407.36 76.0193 1407.36 68.282 L1407.36 64.5957 Q1405.05 68.6061 1401.45 70.5911 Q1397.84 72.576 1392.82 72.576 Q1384.48 72.576 1379.37 66.2161 Q1374.27 59.8562 1374.27 49.3643 Q1374.27 38.832 1379.37 32.472 Q1384.48 26.1121 1392.82 26.1121 Q1397.84 26.1121 1401.45 28.0971 Q1405.05 30.082 1407.36 34.0924 L1407.36 27.2059 L1414.82 27.2059 L1414.82 66.9452 Z" fill="#000000" fill-rule="nonzero" fill-opacity="1" /><path clip-path="url(#clip200)" d="M1465.49 35.9153 Q1468.29 30.8922 1472.18 28.5022 Q1476.07 26.1121 1481.33 26.1121 Q1488.42 26.1121 1492.27 31.0947 Q1496.12 36.0368 1496.12 45.1919 L1496.12 72.576 L1488.62 72.576 L1488.62 45.4349 Q1488.62 38.913 1486.32 35.7533 Q1484.01 32.5936 1479.27 32.5936 Q1473.47 32.5936 1470.11 36.4419 Q1466.75 40.2903 1466.75 46.9338 L1466.75 72.576 L1459.26 72.576 L1459.26 45.4349 Q1459.26 38.8725 1456.95 35.7533 Q1454.64 32.5936 1449.82 32.5936 Q1444.11 32.5936 1440.74 36.4824 Q1437.38 40.3308 1437.38 46.9338 L1437.38 72.576 L1429.89 72.576 L1429.89 27.2059 L1437.38 27.2059 L1437.38 34.2544 Q1439.93 30.082 1443.5 28.0971 Q1447.06 26.1121 1451.96 26.1121 Q1456.91 26.1121 1460.35 28.6237 Q1463.83 31.1352 1465.49 35.9153 Z" fill="#000000" fill-rule="nonzero" fill-opacity="1" /><path clip-path="url(#clip200)" d="M1531.6 49.7694 Q1522.57 49.7694 1519.09 51.8354 Q1515.6 53.9013 1515.6 58.8839 Q1515.6 62.8538 1518.2 65.2034 Q1520.83 67.5124 1525.33 67.5124 Q1531.52 67.5124 1535.25 63.1374 Q1539.02 58.7219 1539.02 51.4303 L1539.02 49.7694 L1531.6 49.7694 M1546.47 46.6907 L1546.47 72.576 L1539.02 72.576 L1539.02 65.6895 Q1536.47 69.8214 1532.66 71.8063 Q1528.85 73.7508 1523.34 73.7508 Q1516.37 73.7508 1512.24 69.8619 Q1508.15 65.9325 1508.15 59.3701 Q1508.15 51.7138 1513.25 47.825 Q1518.4 43.9361 1528.57 43.9361 L1539.02 43.9361 L1539.02 43.2069 Q1539.02 38.0623 1535.62 35.2672 Q1532.25 32.4315 1526.14 32.4315 Q1522.25 32.4315 1518.56 33.3632 Q1514.87 34.295 1511.47 36.1584 L1511.47 29.2718 Q1515.56 27.692 1519.41 26.9223 Q1523.26 26.1121 1526.91 26.1121 Q1536.75 26.1121 1541.61 31.2163 Q1546.47 36.3204 1546.47 46.6907 Z" fill="#000000" fill-rule="nonzero" fill-opacity="1" /><path clip-path="url(#clip200)" d="M1579.73 9.62495 Q1574.3 18.942 1571.67 28.0566 Q1569.04 37.1711 1569.04 46.5287 Q1569.04 55.8863 1571.67 65.0818 Q1574.34 74.2369 1579.73 83.5134 L1573.25 83.5134 Q1567.17 73.9938 1564.13 64.7983 Q1561.14 55.6027 1561.14 46.5287 Q1561.14 37.4952 1564.13 28.3401 Q1567.13 19.1851 1573.25 9.62495 L1579.73 9.62495 Z" fill="#000000" fill-rule="nonzero" fill-opacity="1" /><path clip-path="url(#clip200)" d="M1586.13 12.096 L1637.29 12.096 L1637.29 18.9825 L1615.82 18.9825 L1615.82 72.576 L1607.6 72.576 L1607.6 18.9825 L1586.13 18.9825 L1586.13 12.096 Z" fill="#000000" fill-rule="nonzero" fill-opacity="1" /><path clip-path="url(#clip200)" d="M1643.69 9.62495 L1650.17 9.62495 Q1656.25 19.1851 1659.25 28.3401 Q1662.29 37.4952 1662.29 46.5287 Q1662.29 55.6027 1659.25 64.7983 Q1656.25 73.9938 1650.17 83.5134 L1643.69 83.5134 Q1649.08 74.2369 1651.71 65.0818 Q1654.39 55.8863 1654.39 46.5287 Q1654.39 37.1711 1651.71 28.0566 Q1649.08 18.942 1643.69 9.62495 Z" fill="#000000" fill-rule="nonzero" fill-opacity="1" /><polyline clip-path="url(#clip201)" style="stroke:#009af9; stroke-linecap:round; stroke-linejoin:round; stroke-width:4; stroke-opacity:1; fill:none" points="309.067,160.256 344.498,160.362 379.93,160.555 415.361,160.873 450.793,161.364 486.224,162.086 521.656,163.106 557.087,164.516 592.519,166.463 627.95,169.23 663.382,173.285 698.813,179.202 734.245,187.536 769.676,198.78 805.108,213.397 840.539,231.859 875.971,254.692 911.402,282.515 946.834,316.083 982.265,356.361 1017.7,404.623 1053.13,462.632 1088.56,532.972 1123.99,619.754 1159.42,730.385 1194.85,881.578 1230.29,1141.91 1265.72,1386.4 1301.15,1386.4 1336.58,1386.4 1372.01,1386.4 1407.44,1386.4 1442.87,1386.4 1478.31,1386.4 1513.74,1386.4 1549.17,1386.4 1584.6,1386.4 1620.03,1386.4 1655.46,1386.4 1690.9,1386.4 1726.33,1386.4 1761.76,1386.4 1797.19,1386.4 1832.62,1386.4 1868.05,1386.4 1903.48,1386.4 1938.92,1386.4 1974.35,1386.4 2009.78,1386.4 2045.21,1386.4 2080.64,1386.4 2116.07,1386.4 2151.5,1386.4 2186.94,1386.4 2222.37,1386.4 2257.8,1386.4 2293.23,1386.4 "/>
<polyline clip-path="url(#clip201)" style="stroke:#e26f46; stroke-linecap:round; stroke-linejoin:round; stroke-width:4; stroke-opacity:1; fill:none" points="309.067,586.057 344.498,586.123 379.93,586.245 415.361,586.446 450.793,586.758 486.224,587.22 521.656,587.882 557.087,588.821 592.519,590.206 627.95,592.421 663.382,596.114 698.813,602.055 734.245,610.973 769.676,623.523 805.108,640.349 840.539,662.17 875.971,689.878 911.402,724.676 946.834,768.287 982.265,823.384 1017.7,894.596 1053.13,991.61 1088.56,1145.55 1123.99,1386.4 1159.42,1386.4 1194.85,1386.4 1230.29,1386.4 1265.72,1386.4 1301.15,1386.4 1336.58,1386.4 1372.01,1386.4 1407.44,1386.4 1442.87,1386.4 1478.31,1386.4 1513.74,1386.4 1549.17,1386.4 1584.6,1386.4 1620.03,1386.4 1655.46,1386.4 1690.9,1386.4 1726.33,1386.4 1761.76,1386.4 1797.19,1386.4 1832.62,1386.4 1868.05,1386.4 1903.48,1386.4 1938.92,1386.4 1974.35,1386.4 2009.78,1386.4 2045.21,1386.4 2080.64,1386.4 2116.07,1386.4 2151.5,1386.4 2186.94,1386.4 2222.37,1386.4 2257.8,1386.4 2293.23,1386.4 "/>
<polyline clip-path="url(#clip201)" style="stroke:#3da44d; stroke-linecap:round; stroke-linejoin:round; stroke-width:4; stroke-opacity:1; fill:none" points="309.067,1049.05 344.498,1048.95 379.93,1048.78 415.361,1048.49 450.793,1048.05 486.224,1047.43 521.656,1046.57 557.087,1045.48 592.519,1044.38 627.95,1044.02 663.382,1045.74 698.813,1051.15 734.245,1061.83 769.676,1079.42 805.108,1106.15 840.539,1145.97 875.971,1208.68 911.402,1386.4 946.834,1386.4 982.265,1386.4 1017.7,1386.4 1053.13,1386.4 1088.56,1386.4 1123.99,1386.4 1159.42,1386.4 1194.85,1386.4 1230.29,1386.4 1265.72,1386.4 1301.15,1386.4 1336.58,1386.4 1372.01,1386.4 1407.44,1386.4 1442.87,1386.4 1478.31,1386.4 1513.74,1386.4 1549.17,1386.4 1584.6,1386.4 1620.03,1386.4 1655.46,1386.4 1690.9,1386.4 1726.33,1386.4 1761.76,1386.4 1797.19,1386.4 1832.62,1386.4 1868.05,1386.4 1903.48,1386.4 1938.92,1386.4 1974.35,1386.4 2009.78,1386.4 2045.21,1386.4 2080.64,1386.4 2116.07,1386.4 2151.5,1386.4 2186.94,1386.4 2222.37,1386.4 2257.8,1386.4 2293.23,1386.4 "/>
<path clip-path="url(#clip200)" d="M1638.12 374.156 L2282.65 374.156 L2282.65 166.796 L1638.12 166.796  Z" fill="#ffffff" fill-rule="evenodd" fill-opacity="1"/>
<polyline clip-path="url(#clip200)" style="stroke:#000000; stroke-linecap:round; stroke-linejoin:round; stroke-width:4; stroke-opacity:1; fill:none" points="1638.12,374.156 2282.65,374.156 2282.65,166.796 1638.12,166.796 1638.12,374.156 "/>
<polyline clip-path="url(#clip200)" style="stroke:#009af9; stroke-linecap:round; stroke-linejoin:round; stroke-width:4; stroke-opacity:1; fill:none" points="1661.49,218.636 1801.7,218.636 "/>
<path clip-path="url(#clip200)" d="M1843.49 210.754 L1843.49 214.782 Q1841.69 213.856 1839.74 213.393 Q1837.8 212.93 1835.72 212.93 Q1832.55 212.93 1830.95 213.902 Q1829.37 214.874 1829.37 216.819 Q1829.37 218.3 1830.51 219.157 Q1831.64 219.99 1835.07 220.754 L1836.53 221.078 Q1841.06 222.05 1842.96 223.832 Q1844.88 225.592 1844.88 228.763 Q1844.88 232.374 1842.01 234.481 Q1839.17 236.587 1834.17 236.587 Q1832.08 236.587 1829.81 236.17 Q1827.57 235.777 1825.07 234.967 L1825.07 230.569 Q1827.43 231.795 1829.72 232.42 Q1832.01 233.022 1834.26 233.022 Q1837.27 233.022 1838.89 232.004 Q1840.51 230.962 1840.51 229.087 Q1840.51 227.351 1839.33 226.425 Q1838.17 225.499 1834.21 224.643 L1832.73 224.295 Q1828.77 223.462 1827.01 221.749 Q1825.25 220.013 1825.25 217.004 Q1825.25 213.346 1827.85 211.356 Q1830.44 209.365 1835.21 209.365 Q1837.57 209.365 1839.65 209.712 Q1841.74 210.059 1843.49 210.754 Z" fill="#000000" fill-rule="nonzero" fill-opacity="1" /><path clip-path="url(#clip200)" d="M1870.32 210.985 L1870.32 214.967 Q1868.52 213.971 1866.69 213.485 Q1864.88 212.976 1863.03 212.976 Q1858.89 212.976 1856.6 215.615 Q1854.31 218.231 1854.31 222.976 Q1854.31 227.721 1856.6 230.36 Q1858.89 232.976 1863.03 232.976 Q1864.88 232.976 1866.69 232.49 Q1868.52 231.981 1870.32 230.985 L1870.32 234.92 Q1868.54 235.754 1866.62 236.17 Q1864.72 236.587 1862.57 236.587 Q1856.71 236.587 1853.26 232.906 Q1849.81 229.226 1849.81 222.976 Q1849.81 216.633 1853.29 212.999 Q1856.78 209.365 1862.85 209.365 Q1864.81 209.365 1866.69 209.782 Q1868.56 210.175 1870.32 210.985 Z" fill="#000000" fill-rule="nonzero" fill-opacity="1" /><path clip-path="url(#clip200)" d="M1899.28 220.268 L1899.28 235.916 L1895.02 235.916 L1895.02 220.407 Q1895.02 216.726 1893.59 214.897 Q1892.15 213.069 1889.28 213.069 Q1885.83 213.069 1883.84 215.268 Q1881.85 217.467 1881.85 221.263 L1881.85 235.916 L1877.57 235.916 L1877.57 199.897 L1881.85 199.897 L1881.85 214.018 Q1883.38 211.68 1885.44 210.522 Q1887.52 209.365 1890.23 209.365 Q1894.7 209.365 1896.99 212.143 Q1899.28 214.897 1899.28 220.268 Z" fill="#000000" fill-rule="nonzero" fill-opacity="1" /><path clip-path="url(#clip200)" d="M1929.95 221.888 L1929.95 223.971 L1910.37 223.971 Q1910.65 228.369 1913.01 230.684 Q1915.39 232.976 1919.63 232.976 Q1922.08 232.976 1924.37 232.374 Q1926.69 231.772 1928.96 230.569 L1928.96 234.596 Q1926.67 235.568 1924.26 236.078 Q1921.85 236.587 1919.37 236.587 Q1913.17 236.587 1909.54 232.976 Q1905.93 229.365 1905.93 223.207 Q1905.93 216.842 1909.35 213.115 Q1912.8 209.365 1918.63 209.365 Q1923.86 209.365 1926.9 212.745 Q1929.95 216.101 1929.95 221.888 M1925.69 220.638 Q1925.65 217.143 1923.73 215.059 Q1921.83 212.976 1918.68 212.976 Q1915.11 212.976 1912.96 214.99 Q1910.83 217.004 1910.51 220.661 L1925.69 220.638 Z" fill="#000000" fill-rule="nonzero" fill-opacity="1" /><path clip-path="url(#clip200)" d="M1957.13 214.967 Q1958.73 212.096 1960.95 210.731 Q1963.17 209.365 1966.18 209.365 Q1970.23 209.365 1972.43 212.212 Q1974.63 215.036 1974.63 220.268 L1974.63 235.916 L1970.35 235.916 L1970.35 220.407 Q1970.35 216.68 1969.03 214.874 Q1967.71 213.069 1965 213.069 Q1961.69 213.069 1959.77 215.268 Q1957.85 217.467 1957.85 221.263 L1957.85 235.916 L1953.56 235.916 L1953.56 220.407 Q1953.56 216.657 1952.24 214.874 Q1950.92 213.069 1948.17 213.069 Q1944.91 213.069 1942.99 215.291 Q1941.06 217.49 1941.06 221.263 L1941.06 235.916 L1936.78 235.916 L1936.78 209.99 L1941.06 209.99 L1941.06 214.018 Q1942.52 211.633 1944.56 210.499 Q1946.6 209.365 1949.4 209.365 Q1952.22 209.365 1954.19 210.8 Q1956.18 212.235 1957.13 214.967 Z" fill="#000000" fill-rule="nonzero" fill-opacity="1" /><path clip-path="url(#clip200)" d="M2005.3 221.888 L2005.3 223.971 L1985.72 223.971 Q1985.99 228.369 1988.36 230.684 Q1990.74 232.976 1994.98 232.976 Q1997.43 232.976 1999.72 232.374 Q2002.04 231.772 2004.3 230.569 L2004.3 234.596 Q2002.01 235.568 1999.61 236.078 Q1997.2 236.587 1994.72 236.587 Q1988.52 236.587 1984.88 232.976 Q1981.27 229.365 1981.27 223.207 Q1981.27 216.842 1984.7 213.115 Q1988.15 209.365 1993.98 209.365 Q1999.21 209.365 2002.24 212.745 Q2005.3 216.101 2005.3 221.888 M2001.04 220.638 Q2000.99 217.143 1999.07 215.059 Q1997.17 212.976 1994.03 212.976 Q1990.46 212.976 1988.31 214.99 Q1986.18 217.004 1985.86 220.661 L2001.04 220.638 Z" fill="#000000" fill-rule="nonzero" fill-opacity="1" /><path clip-path="url(#clip200)" d="M2039.1 205.962 L2032.75 223.161 L2045.46 223.161 L2039.1 205.962 M2036.46 201.356 L2041.76 201.356 L2054.93 235.916 L2050.07 235.916 L2046.92 227.05 L2031.34 227.05 L2028.19 235.916 L2023.26 235.916 L2036.46 201.356 Z" fill="#000000" fill-rule="nonzero" fill-opacity="1" /><path clip-path="url(#clip200)" d="M2060.88 230.036 L2065.76 230.036 L2065.76 234.018 L2061.97 241.425 L2058.98 241.425 L2060.88 234.018 L2060.88 230.036 Z" fill="#000000" fill-rule="nonzero" fill-opacity="1" /><path clip-path="url(#clip200)" d="M2110.11 214.967 Q2111.71 212.096 2113.93 210.731 Q2116.16 209.365 2119.16 209.365 Q2123.22 209.365 2125.41 212.212 Q2127.61 215.036 2127.61 220.268 L2127.61 235.916 L2123.33 235.916 L2123.33 220.407 Q2123.33 216.68 2122.01 214.874 Q2120.69 213.069 2117.98 213.069 Q2114.67 213.069 2112.75 215.268 Q2110.83 217.467 2110.83 221.263 L2110.83 235.916 L2106.55 235.916 L2106.55 220.407 Q2106.55 216.657 2105.23 214.874 Q2103.91 213.069 2101.16 213.069 Q2097.89 213.069 2095.97 215.291 Q2094.05 217.49 2094.05 221.263 L2094.05 235.916 L2089.77 235.916 L2089.77 209.99 L2094.05 209.99 L2094.05 214.018 Q2095.51 211.633 2097.54 210.499 Q2099.58 209.365 2102.38 209.365 Q2105.21 209.365 2107.17 210.8 Q2109.16 212.235 2110.11 214.967 Z" fill="#000000" fill-rule="nonzero" fill-opacity="1" /><path clip-path="url(#clip200)" d="M2138.66 222.976 Q2138.66 227.675 2140.58 230.36 Q2142.52 233.022 2145.9 233.022 Q2149.28 233.022 2151.22 230.36 Q2153.17 227.675 2153.17 222.976 Q2153.17 218.277 2151.22 215.615 Q2149.28 212.93 2145.9 212.93 Q2142.52 212.93 2140.58 215.615 Q2138.66 218.277 2138.66 222.976 M2153.17 232.027 Q2151.83 234.342 2149.77 235.476 Q2147.73 236.587 2144.86 236.587 Q2140.16 236.587 2137.2 232.837 Q2134.26 229.087 2134.26 222.976 Q2134.26 216.865 2137.2 213.115 Q2140.16 209.365 2144.86 209.365 Q2147.73 209.365 2149.77 210.499 Q2151.83 211.61 2153.17 213.925 L2153.17 209.99 L2157.43 209.99 L2157.43 245.777 L2153.17 245.777 L2153.17 232.027 Z" fill="#000000" fill-rule="nonzero" fill-opacity="1" /><path clip-path="url(#clip200)" d="M2181.83 214.388 L2211.5 214.388 L2211.5 218.277 L2181.83 218.277 L2181.83 214.388 M2181.83 223.832 L2211.5 223.832 L2211.5 227.768 L2181.83 227.768 L2181.83 223.832 Z" fill="#000000" fill-rule="nonzero" fill-opacity="1" /><path clip-path="url(#clip200)" d="M2246.66 204.434 Q2243.05 204.434 2241.22 207.999 Q2239.42 211.541 2239.42 218.67 Q2239.42 225.777 2241.22 229.342 Q2243.05 232.883 2246.66 232.883 Q2250.3 232.883 2252.1 229.342 Q2253.93 225.777 2253.93 218.67 Q2253.93 211.541 2252.1 207.999 Q2250.3 204.434 2246.66 204.434 M2246.66 200.731 Q2252.47 200.731 2255.53 205.337 Q2258.61 209.92 2258.61 218.67 Q2258.61 227.397 2255.53 232.004 Q2252.47 236.587 2246.66 236.587 Q2240.85 236.587 2237.78 232.004 Q2234.72 227.397 2234.72 218.67 Q2234.72 209.92 2237.78 205.337 Q2240.85 200.731 2246.66 200.731 Z" fill="#000000" fill-rule="nonzero" fill-opacity="1" /><polyline clip-path="url(#clip200)" style="stroke:#e26f46; stroke-linecap:round; stroke-linejoin:round; stroke-width:4; stroke-opacity:1; fill:none" points="1661.49,270.476 1801.7,270.476 "/>
<path clip-path="url(#clip200)" d="M1843.49 262.594 L1843.49 266.622 Q1841.69 265.696 1839.74 265.233 Q1837.8 264.77 1835.72 264.77 Q1832.55 264.77 1830.95 265.742 Q1829.37 266.714 1829.37 268.659 Q1829.37 270.14 1830.51 270.997 Q1831.64 271.83 1835.07 272.594 L1836.53 272.918 Q1841.06 273.89 1842.96 275.672 Q1844.88 277.432 1844.88 280.603 Q1844.88 284.214 1842.01 286.321 Q1839.17 288.427 1834.17 288.427 Q1832.08 288.427 1829.81 288.01 Q1827.57 287.617 1825.07 286.807 L1825.07 282.409 Q1827.43 283.635 1829.72 284.26 Q1832.01 284.862 1834.26 284.862 Q1837.27 284.862 1838.89 283.844 Q1840.51 282.802 1840.51 280.927 Q1840.51 279.191 1839.33 278.265 Q1838.17 277.339 1834.21 276.483 L1832.73 276.135 Q1828.77 275.302 1827.01 273.589 Q1825.25 271.853 1825.25 268.844 Q1825.25 265.186 1827.85 263.196 Q1830.44 261.205 1835.21 261.205 Q1837.57 261.205 1839.65 261.552 Q1841.74 261.899 1843.49 262.594 Z" fill="#000000" fill-rule="nonzero" fill-opacity="1" /><path clip-path="url(#clip200)" d="M1870.32 262.825 L1870.32 266.807 Q1868.52 265.811 1866.69 265.325 Q1864.88 264.816 1863.03 264.816 Q1858.89 264.816 1856.6 267.455 Q1854.31 270.071 1854.31 274.816 Q1854.31 279.561 1856.6 282.2 Q1858.89 284.816 1863.03 284.816 Q1864.88 284.816 1866.69 284.33 Q1868.52 283.821 1870.32 282.825 L1870.32 286.76 Q1868.54 287.594 1866.62 288.01 Q1864.72 288.427 1862.57 288.427 Q1856.71 288.427 1853.26 284.746 Q1849.81 281.066 1849.81 274.816 Q1849.81 268.473 1853.29 264.839 Q1856.78 261.205 1862.85 261.205 Q1864.81 261.205 1866.69 261.622 Q1868.56 262.015 1870.32 262.825 Z" fill="#000000" fill-rule="nonzero" fill-opacity="1" /><path clip-path="url(#clip200)" d="M1899.28 272.108 L1899.28 287.756 L1895.02 287.756 L1895.02 272.247 Q1895.02 268.566 1893.59 266.737 Q1892.15 264.909 1889.28 264.909 Q1885.83 264.909 1883.84 267.108 Q1881.85 269.307 1881.85 273.103 L1881.85 287.756 L1877.57 287.756 L1877.57 251.737 L1881.85 251.737 L1881.85 265.858 Q1883.38 263.52 1885.44 262.362 Q1887.52 261.205 1890.23 261.205 Q1894.7 261.205 1896.99 263.983 Q1899.28 266.737 1899.28 272.108 Z" fill="#000000" fill-rule="nonzero" fill-opacity="1" /><path clip-path="url(#clip200)" d="M1929.95 273.728 L1929.95 275.811 L1910.37 275.811 Q1910.65 280.209 1913.01 282.524 Q1915.39 284.816 1919.63 284.816 Q1922.08 284.816 1924.37 284.214 Q1926.69 283.612 1928.96 282.409 L1928.96 286.436 Q1926.67 287.408 1924.26 287.918 Q1921.85 288.427 1919.37 288.427 Q1913.17 288.427 1909.54 284.816 Q1905.93 281.205 1905.93 275.047 Q1905.93 268.682 1909.35 264.955 Q1912.8 261.205 1918.63 261.205 Q1923.86 261.205 1926.9 264.585 Q1929.95 267.941 1929.95 273.728 M1925.69 272.478 Q1925.65 268.983 1923.73 266.899 Q1921.83 264.816 1918.68 264.816 Q1915.11 264.816 1912.96 266.83 Q1910.83 268.844 1910.51 272.501 L1925.69 272.478 Z" fill="#000000" fill-rule="nonzero" fill-opacity="1" /><path clip-path="url(#clip200)" d="M1957.13 266.807 Q1958.73 263.936 1960.95 262.571 Q1963.17 261.205 1966.18 261.205 Q1970.23 261.205 1972.43 264.052 Q1974.63 266.876 1974.63 272.108 L1974.63 287.756 L1970.35 287.756 L1970.35 272.247 Q1970.35 268.52 1969.03 266.714 Q1967.71 264.909 1965 264.909 Q1961.69 264.909 1959.77 267.108 Q1957.85 269.307 1957.85 273.103 L1957.85 287.756 L1953.56 287.756 L1953.56 272.247 Q1953.56 268.497 1952.24 266.714 Q1950.92 264.909 1948.17 264.909 Q1944.91 264.909 1942.99 267.131 Q1941.06 269.33 1941.06 273.103 L1941.06 287.756 L1936.78 287.756 L1936.78 261.83 L1941.06 261.83 L1941.06 265.858 Q1942.52 263.473 1944.56 262.339 Q1946.6 261.205 1949.4 261.205 Q1952.22 261.205 1954.19 262.64 Q1956.18 264.075 1957.13 266.807 Z" fill="#000000" fill-rule="nonzero" fill-opacity="1" /><path clip-path="url(#clip200)" d="M2005.3 273.728 L2005.3 275.811 L1985.72 275.811 Q1985.99 280.209 1988.36 282.524 Q1990.74 284.816 1994.98 284.816 Q1997.43 284.816 1999.72 284.214 Q2002.04 283.612 2004.3 282.409 L2004.3 286.436 Q2002.01 287.408 1999.61 287.918 Q1997.2 288.427 1994.72 288.427 Q1988.52 288.427 1984.88 284.816 Q1981.27 281.205 1981.27 275.047 Q1981.27 268.682 1984.7 264.955 Q1988.15 261.205 1993.98 261.205 Q1999.21 261.205 2002.24 264.585 Q2005.3 267.941 2005.3 273.728 M2001.04 272.478 Q2000.99 268.983 1999.07 266.899 Q1997.17 264.816 1994.03 264.816 Q1990.46 264.816 1988.31 266.83 Q1986.18 268.844 1985.86 272.501 L2001.04 272.478 Z" fill="#000000" fill-rule="nonzero" fill-opacity="1" /><path clip-path="url(#clip200)" d="M2032.22 271.251 L2032.22 283.913 L2039.72 283.913 Q2043.49 283.913 2045.3 282.362 Q2047.13 280.788 2047.13 277.571 Q2047.13 274.33 2045.3 272.802 Q2043.49 271.251 2039.72 271.251 L2032.22 271.251 M2032.22 257.038 L2032.22 267.455 L2039.14 267.455 Q2042.57 267.455 2044.23 266.182 Q2045.92 264.885 2045.92 262.247 Q2045.92 259.631 2044.23 258.335 Q2042.57 257.038 2039.14 257.038 L2032.22 257.038 M2027.54 253.196 L2039.49 253.196 Q2044.84 253.196 2047.73 255.418 Q2050.62 257.64 2050.62 261.737 Q2050.62 264.909 2049.14 266.784 Q2047.66 268.659 2044.79 269.122 Q2048.24 269.862 2050.14 272.223 Q2052.06 274.561 2052.06 278.08 Q2052.06 282.709 2048.91 285.233 Q2045.76 287.756 2039.95 287.756 L2027.54 287.756 L2027.54 253.196 Z" fill="#000000" fill-rule="nonzero" fill-opacity="1" /><path clip-path="url(#clip200)" d="M2060.97 281.876 L2065.85 281.876 L2065.85 285.858 L2062.06 293.265 L2059.07 293.265 L2060.97 285.858 L2060.97 281.876 Z" fill="#000000" fill-rule="nonzero" fill-opacity="1" /><path clip-path="url(#clip200)" d="M2110.21 266.807 Q2111.8 263.936 2114.03 262.571 Q2116.25 261.205 2119.26 261.205 Q2123.31 261.205 2125.51 264.052 Q2127.71 266.876 2127.71 272.108 L2127.71 287.756 L2123.42 287.756 L2123.42 272.247 Q2123.42 268.52 2122.1 266.714 Q2120.79 264.909 2118.08 264.909 Q2114.77 264.909 2112.85 267.108 Q2110.92 269.307 2110.92 273.103 L2110.92 287.756 L2106.64 287.756 L2106.64 272.247 Q2106.64 268.497 2105.32 266.714 Q2104 264.909 2101.25 264.909 Q2097.98 264.909 2096.06 267.131 Q2094.14 269.33 2094.14 273.103 L2094.14 287.756 L2089.86 287.756 L2089.86 261.83 L2094.14 261.83 L2094.14 265.858 Q2095.6 263.473 2097.64 262.339 Q2099.67 261.205 2102.48 261.205 Q2105.3 261.205 2107.27 262.64 Q2109.26 264.075 2110.21 266.807 Z" fill="#000000" fill-rule="nonzero" fill-opacity="1" /><path clip-path="url(#clip200)" d="M2138.75 274.816 Q2138.75 279.515 2140.67 282.2 Q2142.61 284.862 2145.99 284.862 Q2149.37 284.862 2151.32 282.2 Q2153.26 279.515 2153.26 274.816 Q2153.26 270.117 2151.32 267.455 Q2149.37 264.77 2145.99 264.77 Q2142.61 264.77 2140.67 267.455 Q2138.75 270.117 2138.75 274.816 M2153.26 283.867 Q2151.92 286.182 2149.86 287.316 Q2147.82 288.427 2144.95 288.427 Q2140.25 288.427 2137.29 284.677 Q2134.35 280.927 2134.35 274.816 Q2134.35 268.705 2137.29 264.955 Q2140.25 261.205 2144.95 261.205 Q2147.82 261.205 2149.86 262.339 Q2151.92 263.45 2153.26 265.765 L2153.26 261.83 L2157.52 261.83 L2157.52 297.617 L2153.26 297.617 L2153.26 283.867 Z" fill="#000000" fill-rule="nonzero" fill-opacity="1" /><path clip-path="url(#clip200)" d="M2181.92 266.228 L2211.59 266.228 L2211.59 270.117 L2181.92 270.117 L2181.92 266.228 M2181.92 275.672 L2211.59 275.672 L2211.59 279.608 L2181.92 279.608 L2181.92 275.672 Z" fill="#000000" fill-rule="nonzero" fill-opacity="1" /><path clip-path="url(#clip200)" d="M2246.76 256.274 Q2243.15 256.274 2241.32 259.839 Q2239.51 263.381 2239.51 270.51 Q2239.51 277.617 2241.32 281.182 Q2243.15 284.723 2246.76 284.723 Q2250.39 284.723 2252.2 281.182 Q2254.03 277.617 2254.03 270.51 Q2254.03 263.381 2252.2 259.839 Q2250.39 256.274 2246.76 256.274 M2246.76 252.571 Q2252.57 252.571 2255.62 257.177 Q2258.7 261.76 2258.7 270.51 Q2258.7 279.237 2255.62 283.844 Q2252.57 288.427 2246.76 288.427 Q2240.95 288.427 2237.87 283.844 Q2234.81 279.237 2234.81 270.51 Q2234.81 261.76 2237.87 257.177 Q2240.95 252.571 2246.76 252.571 Z" fill="#000000" fill-rule="nonzero" fill-opacity="1" /><polyline clip-path="url(#clip200)" style="stroke:#3da44d; stroke-linecap:round; stroke-linejoin:round; stroke-width:4; stroke-opacity:1; fill:none" points="1661.49,322.316 1801.7,322.316 "/>
<path clip-path="url(#clip200)" d="M1843.49 314.434 L1843.49 318.462 Q1841.69 317.536 1839.74 317.073 Q1837.8 316.61 1835.72 316.61 Q1832.55 316.61 1830.95 317.582 Q1829.37 318.554 1829.37 320.499 Q1829.37 321.98 1830.51 322.837 Q1831.64 323.67 1835.07 324.434 L1836.53 324.758 Q1841.06 325.73 1842.96 327.512 Q1844.88 329.272 1844.88 332.443 Q1844.88 336.054 1842.01 338.161 Q1839.17 340.267 1834.17 340.267 Q1832.08 340.267 1829.81 339.85 Q1827.57 339.457 1825.07 338.647 L1825.07 334.249 Q1827.43 335.475 1829.72 336.1 Q1832.01 336.702 1834.26 336.702 Q1837.27 336.702 1838.89 335.684 Q1840.51 334.642 1840.51 332.767 Q1840.51 331.031 1839.33 330.105 Q1838.17 329.179 1834.21 328.323 L1832.73 327.975 Q1828.77 327.142 1827.01 325.429 Q1825.25 323.693 1825.25 320.684 Q1825.25 317.026 1827.85 315.036 Q1830.44 313.045 1835.21 313.045 Q1837.57 313.045 1839.65 313.392 Q1841.74 313.739 1843.49 314.434 Z" fill="#000000" fill-rule="nonzero" fill-opacity="1" /><path clip-path="url(#clip200)" d="M1870.32 314.665 L1870.32 318.647 Q1868.52 317.651 1866.69 317.165 Q1864.88 316.656 1863.03 316.656 Q1858.89 316.656 1856.6 319.295 Q1854.31 321.911 1854.31 326.656 Q1854.31 331.401 1856.6 334.04 Q1858.89 336.656 1863.03 336.656 Q1864.88 336.656 1866.69 336.17 Q1868.52 335.661 1870.32 334.665 L1870.32 338.6 Q1868.54 339.434 1866.62 339.85 Q1864.72 340.267 1862.57 340.267 Q1856.71 340.267 1853.26 336.586 Q1849.81 332.906 1849.81 326.656 Q1849.81 320.313 1853.29 316.679 Q1856.78 313.045 1862.85 313.045 Q1864.81 313.045 1866.69 313.462 Q1868.56 313.855 1870.32 314.665 Z" fill="#000000" fill-rule="nonzero" fill-opacity="1" /><path clip-path="url(#clip200)" d="M1899.28 323.948 L1899.28 339.596 L1895.02 339.596 L1895.02 324.087 Q1895.02 320.406 1893.59 318.577 Q1892.15 316.749 1889.28 316.749 Q1885.83 316.749 1883.84 318.948 Q1881.85 321.147 1881.85 324.943 L1881.85 339.596 L1877.57 339.596 L1877.57 303.577 L1881.85 303.577 L1881.85 317.698 Q1883.38 315.36 1885.44 314.202 Q1887.52 313.045 1890.23 313.045 Q1894.7 313.045 1896.99 315.823 Q1899.28 318.577 1899.28 323.948 Z" fill="#000000" fill-rule="nonzero" fill-opacity="1" /><path clip-path="url(#clip200)" d="M1929.95 325.568 L1929.95 327.651 L1910.37 327.651 Q1910.65 332.049 1913.01 334.364 Q1915.39 336.656 1919.63 336.656 Q1922.08 336.656 1924.37 336.054 Q1926.69 335.452 1928.96 334.249 L1928.96 338.276 Q1926.67 339.248 1924.26 339.758 Q1921.85 340.267 1919.37 340.267 Q1913.17 340.267 1909.54 336.656 Q1905.93 333.045 1905.93 326.887 Q1905.93 320.522 1909.35 316.795 Q1912.8 313.045 1918.63 313.045 Q1923.86 313.045 1926.9 316.425 Q1929.95 319.781 1929.95 325.568 M1925.69 324.318 Q1925.65 320.823 1923.73 318.739 Q1921.83 316.656 1918.68 316.656 Q1915.11 316.656 1912.96 318.67 Q1910.83 320.684 1910.51 324.341 L1925.69 324.318 Z" fill="#000000" fill-rule="nonzero" fill-opacity="1" /><path clip-path="url(#clip200)" d="M1957.13 318.647 Q1958.73 315.776 1960.95 314.411 Q1963.17 313.045 1966.18 313.045 Q1970.23 313.045 1972.43 315.892 Q1974.63 318.716 1974.63 323.948 L1974.63 339.596 L1970.35 339.596 L1970.35 324.087 Q1970.35 320.36 1969.03 318.554 Q1967.71 316.749 1965 316.749 Q1961.69 316.749 1959.77 318.948 Q1957.85 321.147 1957.85 324.943 L1957.85 339.596 L1953.56 339.596 L1953.56 324.087 Q1953.56 320.337 1952.24 318.554 Q1950.92 316.749 1948.17 316.749 Q1944.91 316.749 1942.99 318.971 Q1941.06 321.17 1941.06 324.943 L1941.06 339.596 L1936.78 339.596 L1936.78 313.67 L1941.06 313.67 L1941.06 317.698 Q1942.52 315.313 1944.56 314.179 Q1946.6 313.045 1949.4 313.045 Q1952.22 313.045 1954.19 314.48 Q1956.18 315.915 1957.13 318.647 Z" fill="#000000" fill-rule="nonzero" fill-opacity="1" /><path clip-path="url(#clip200)" d="M2005.3 325.568 L2005.3 327.651 L1985.72 327.651 Q1985.99 332.049 1988.36 334.364 Q1990.74 336.656 1994.98 336.656 Q1997.43 336.656 1999.72 336.054 Q2002.04 335.452 2004.3 334.249 L2004.3 338.276 Q2002.01 339.248 1999.61 339.758 Q1997.2 340.267 1994.72 340.267 Q1988.52 340.267 1984.88 336.656 Q1981.27 333.045 1981.27 326.887 Q1981.27 320.522 1984.7 316.795 Q1988.15 313.045 1993.98 313.045 Q1999.21 313.045 2002.24 316.425 Q2005.3 319.781 2005.3 325.568 M2001.04 324.318 Q2000.99 320.823 1999.07 318.739 Q1997.17 316.656 1994.03 316.656 Q1990.46 316.656 1988.31 318.67 Q1986.18 320.684 1985.86 324.341 L2001.04 324.318 Z" fill="#000000" fill-rule="nonzero" fill-opacity="1" /><path clip-path="url(#clip200)" d="M2053.42 307.698 L2053.42 312.628 Q2051.06 310.429 2048.38 309.341 Q2045.72 308.253 2042.71 308.253 Q2036.78 308.253 2033.63 311.888 Q2030.48 315.499 2030.48 322.35 Q2030.48 329.179 2033.63 332.813 Q2036.78 336.424 2042.71 336.424 Q2045.72 336.424 2048.38 335.336 Q2051.06 334.249 2053.42 332.049 L2053.42 336.934 Q2050.97 338.6 2048.22 339.434 Q2045.48 340.267 2042.43 340.267 Q2034.58 340.267 2030.07 335.475 Q2025.55 330.661 2025.55 322.35 Q2025.55 314.017 2030.07 309.226 Q2034.58 304.411 2042.43 304.411 Q2045.53 304.411 2048.26 305.244 Q2051.02 306.054 2053.42 307.698 Z" fill="#000000" fill-rule="nonzero" fill-opacity="1" /><path clip-path="url(#clip200)" d="M2061.55 333.716 L2066.43 333.716 L2066.43 337.698 L2062.64 345.105 L2059.65 345.105 L2061.55 337.698 L2061.55 333.716 Z" fill="#000000" fill-rule="nonzero" fill-opacity="1" /><path clip-path="url(#clip200)" d="M2110.79 318.647 Q2112.38 315.776 2114.6 314.411 Q2116.83 313.045 2119.84 313.045 Q2123.89 313.045 2126.09 315.892 Q2128.29 318.716 2128.29 323.948 L2128.29 339.596 L2124 339.596 L2124 324.087 Q2124 320.36 2122.68 318.554 Q2121.36 316.749 2118.66 316.749 Q2115.35 316.749 2113.42 318.948 Q2111.5 321.147 2111.5 324.943 L2111.5 339.596 L2107.22 339.596 L2107.22 324.087 Q2107.22 320.337 2105.9 318.554 Q2104.58 316.749 2101.83 316.749 Q2098.56 316.749 2096.64 318.971 Q2094.72 321.17 2094.72 324.943 L2094.72 339.596 L2090.44 339.596 L2090.44 313.67 L2094.72 313.67 L2094.72 317.698 Q2096.18 315.313 2098.22 314.179 Q2100.25 313.045 2103.05 313.045 Q2105.88 313.045 2107.85 314.48 Q2109.84 315.915 2110.79 318.647 Z" fill="#000000" fill-rule="nonzero" fill-opacity="1" /><path clip-path="url(#clip200)" d="M2139.33 326.656 Q2139.33 331.355 2141.25 334.04 Q2143.19 336.702 2146.57 336.702 Q2149.95 336.702 2151.9 334.04 Q2153.84 331.355 2153.84 326.656 Q2153.84 321.957 2151.9 319.295 Q2149.95 316.61 2146.57 316.61 Q2143.19 316.61 2141.25 319.295 Q2139.33 321.957 2139.33 326.656 M2153.84 335.707 Q2152.5 338.022 2150.44 339.156 Q2148.4 340.267 2145.53 340.267 Q2140.83 340.267 2137.87 336.517 Q2134.93 332.767 2134.93 326.656 Q2134.93 320.545 2137.87 316.795 Q2140.83 313.045 2145.53 313.045 Q2148.4 313.045 2150.44 314.179 Q2152.5 315.29 2153.84 317.605 L2153.84 313.67 L2158.1 313.67 L2158.1 349.457 L2153.84 349.457 L2153.84 335.707 Z" fill="#000000" fill-rule="nonzero" fill-opacity="1" /><path clip-path="url(#clip200)" d="M2182.5 318.068 L2212.17 318.068 L2212.17 321.957 L2182.5 321.957 L2182.5 318.068 M2182.5 327.512 L2212.17 327.512 L2212.17 331.448 L2182.5 331.448 L2182.5 327.512 Z" fill="#000000" fill-rule="nonzero" fill-opacity="1" /><path clip-path="url(#clip200)" d="M2247.34 308.114 Q2243.72 308.114 2241.9 311.679 Q2240.09 315.221 2240.09 322.35 Q2240.09 329.457 2241.9 333.022 Q2243.72 336.563 2247.34 336.563 Q2250.97 336.563 2252.78 333.022 Q2254.6 329.457 2254.6 322.35 Q2254.6 315.221 2252.78 311.679 Q2250.97 308.114 2247.34 308.114 M2247.34 304.411 Q2253.15 304.411 2256.2 309.017 Q2259.28 313.6 2259.28 322.35 Q2259.28 331.077 2256.2 335.684 Q2253.15 340.267 2247.34 340.267 Q2241.53 340.267 2238.45 335.684 Q2235.39 331.077 2235.39 322.35 Q2235.39 313.6 2238.45 309.017 Q2241.53 304.411 2247.34 304.411 Z" fill="#000000" fill-rule="nonzero" fill-opacity="1" /></svg>
