<?xml version="1.0" encoding="utf-8"?>
<svg xmlns="http://www.w3.org/2000/svg" xmlns:xlink="http://www.w3.org/1999/xlink" width="600" height="400" viewBox="0 0 2400 1600">
<defs>
  <clipPath id="clip530">
    <rect x="0" y="0" width="2400" height="1600"/>
  </clipPath>
</defs>
<path clip-path="url(#clip530)" d="M0 1600 L2400 1600 L2400 0 L0 0  Z" fill="#ffffff" fill-rule="evenodd" fill-opacity="1"/>
<defs>
  <clipPath id="clip531">
    <rect x="480" y="0" width="1681" height="1600"/>
  </clipPath>
</defs>
<path clip-path="url(#clip530)" d="M309.866 1423.18 L2352.76 1423.18 L2352.76 123.472 L309.866 123.472  Z" fill="#ffffff" fill-rule="evenodd" fill-opacity="1"/>
<defs>
  <clipPath id="clip532">
    <rect x="309" y="123" width="2044" height="1301"/>
  </clipPath>
</defs>
<polyline clip-path="url(#clip532)" style="stroke:#000000; stroke-linecap:round; stroke-linejoin:round; stroke-width:2; stroke-opacity:0.1; fill:none" points="367.683,1423.18 367.683,123.472 "/>
<polyline clip-path="url(#clip532)" style="stroke:#000000; stroke-linecap:round; stroke-linejoin:round; stroke-width:2; stroke-opacity:0.1; fill:none" points="688.893,1423.18 688.893,123.472 "/>
<polyline clip-path="url(#clip532)" style="stroke:#000000; stroke-linecap:round; stroke-linejoin:round; stroke-width:2; stroke-opacity:0.1; fill:none" points="1010.1,1423.18 1010.1,123.472 "/>
<polyline clip-path="url(#clip532)" style="stroke:#000000; stroke-linecap:round; stroke-linejoin:round; stroke-width:2; stroke-opacity:0.1; fill:none" points="1331.31,1423.18 1331.31,123.472 "/>
<polyline clip-path="url(#clip532)" style="stroke:#000000; stroke-linecap:round; stroke-linejoin:round; stroke-width:2; stroke-opacity:0.1; fill:none" points="1652.52,1423.18 1652.52,123.472 "/>
<polyline clip-path="url(#clip532)" style="stroke:#000000; stroke-linecap:round; stroke-linejoin:round; stroke-width:2; stroke-opacity:0.1; fill:none" points="1973.73,1423.18 1973.73,123.472 "/>
<polyline clip-path="url(#clip532)" style="stroke:#000000; stroke-linecap:round; stroke-linejoin:round; stroke-width:2; stroke-opacity:0.1; fill:none" points="2294.94,1423.18 2294.94,123.472 "/>
<polyline clip-path="url(#clip532)" style="stroke:#000000; stroke-linecap:round; stroke-linejoin:round; stroke-width:2; stroke-opacity:0.1; fill:none" points="309.866,1271.15 2352.76,1271.15 "/>
<polyline clip-path="url(#clip532)" style="stroke:#000000; stroke-linecap:round; stroke-linejoin:round; stroke-width:2; stroke-opacity:0.1; fill:none" points="309.866,1026.82 2352.76,1026.82 "/>
<polyline clip-path="url(#clip532)" style="stroke:#000000; stroke-linecap:round; stroke-linejoin:round; stroke-width:2; stroke-opacity:0.1; fill:none" points="309.866,782.49 2352.76,782.49 "/>
<polyline clip-path="url(#clip532)" style="stroke:#000000; stroke-linecap:round; stroke-linejoin:round; stroke-width:2; stroke-opacity:0.1; fill:none" points="309.866,538.162 2352.76,538.162 "/>
<polyline clip-path="url(#clip532)" style="stroke:#000000; stroke-linecap:round; stroke-linejoin:round; stroke-width:2; stroke-opacity:0.1; fill:none" points="309.866,293.834 2352.76,293.834 "/>
<polyline clip-path="url(#clip530)" style="stroke:#000000; stroke-linecap:round; stroke-linejoin:round; stroke-width:4; stroke-opacity:1; fill:none" points="309.866,1423.18 2352.76,1423.18 "/>
<polyline clip-path="url(#clip530)" style="stroke:#000000; stroke-linecap:round; stroke-linejoin:round; stroke-width:4; stroke-opacity:1; fill:none" points="367.683,1423.18 367.683,1404.28 "/>
<polyline clip-path="url(#clip530)" style="stroke:#000000; stroke-linecap:round; stroke-linejoin:round; stroke-width:4; stroke-opacity:1; fill:none" points="688.893,1423.18 688.893,1404.28 "/>
<polyline clip-path="url(#clip530)" style="stroke:#000000; stroke-linecap:round; stroke-linejoin:round; stroke-width:4; stroke-opacity:1; fill:none" points="1010.1,1423.18 1010.1,1404.28 "/>
<polyline clip-path="url(#clip530)" style="stroke:#000000; stroke-linecap:round; stroke-linejoin:round; stroke-width:4; stroke-opacity:1; fill:none" points="1331.31,1423.18 1331.31,1404.28 "/>
<polyline clip-path="url(#clip530)" style="stroke:#000000; stroke-linecap:round; stroke-linejoin:round; stroke-width:4; stroke-opacity:1; fill:none" points="1652.52,1423.18 1652.52,1404.28 "/>
<polyline clip-path="url(#clip530)" style="stroke:#000000; stroke-linecap:round; stroke-linejoin:round; stroke-width:4; stroke-opacity:1; fill:none" points="1973.73,1423.18 1973.73,1404.28 "/>
<polyline clip-path="url(#clip530)" style="stroke:#000000; stroke-linecap:round; stroke-linejoin:round; stroke-width:4; stroke-opacity:1; fill:none" points="2294.94,1423.18 2294.94,1404.28 "/>
<path clip-path="url(#clip530)" d="M346.457 1481.64 L362.776 1481.64 L362.776 1485.58 L340.832 1485.58 L340.832 1481.64 Q343.494 1478.89 348.077 1474.26 Q352.684 1469.61 353.864 1468.27 Q356.109 1465.74 356.989 1464.01 Q357.892 1462.25 357.892 1460.56 Q357.892 1457.8 355.947 1456.07 Q354.026 1454.33 350.924 1454.33 Q348.725 1454.33 346.272 1455.09 Q343.841 1455.86 341.063 1457.41 L341.063 1452.69 Q343.887 1451.55 346.341 1450.97 Q348.795 1450.39 350.832 1450.39 Q356.202 1450.39 359.396 1453.08 Q362.591 1455.77 362.591 1460.26 Q362.591 1462.39 361.781 1464.31 Q360.994 1466.2 358.887 1468.8 Q358.308 1469.47 355.207 1472.69 Q352.105 1475.88 346.457 1481.64 Z" fill="#000000" fill-rule="nonzero" fill-opacity="1" /><path clip-path="url(#clip530)" d="M382.591 1454.1 Q378.98 1454.1 377.151 1457.66 Q375.345 1461.2 375.345 1468.33 Q375.345 1475.44 377.151 1479.01 Q378.98 1482.55 382.591 1482.55 Q386.225 1482.55 388.031 1479.01 Q389.859 1475.44 389.859 1468.33 Q389.859 1461.2 388.031 1457.66 Q386.225 1454.1 382.591 1454.1 M382.591 1450.39 Q388.401 1450.39 391.456 1455 Q394.535 1459.58 394.535 1468.33 Q394.535 1477.06 391.456 1481.67 Q388.401 1486.25 382.591 1486.25 Q376.781 1486.25 373.702 1481.67 Q370.646 1477.06 370.646 1468.33 Q370.646 1459.58 373.702 1455 Q376.781 1450.39 382.591 1450.39 Z" fill="#000000" fill-rule="nonzero" fill-opacity="1" /><path clip-path="url(#clip530)" d="M677.735 1466.95 Q681.092 1467.66 682.967 1469.93 Q684.865 1472.2 684.865 1475.53 Q684.865 1480.65 681.346 1483.45 Q677.828 1486.25 671.346 1486.25 Q669.17 1486.25 666.856 1485.81 Q664.564 1485.39 662.11 1484.54 L662.11 1480.02 Q664.055 1481.16 666.37 1481.74 Q668.684 1482.32 671.207 1482.32 Q675.606 1482.32 677.897 1480.58 Q680.212 1478.84 680.212 1475.53 Q680.212 1472.48 678.059 1470.77 Q675.93 1469.03 672.11 1469.03 L668.082 1469.03 L668.082 1465.19 L672.295 1465.19 Q675.744 1465.19 677.573 1463.82 Q679.402 1462.43 679.402 1459.84 Q679.402 1457.18 677.504 1455.77 Q675.629 1454.33 672.11 1454.33 Q670.189 1454.33 667.99 1454.75 Q665.791 1455.16 663.152 1456.04 L663.152 1451.88 Q665.814 1451.14 668.129 1450.77 Q670.467 1450.39 672.527 1450.39 Q677.851 1450.39 680.953 1452.83 Q684.055 1455.23 684.055 1459.35 Q684.055 1462.22 682.411 1464.21 Q680.768 1466.18 677.735 1466.95 Z" fill="#000000" fill-rule="nonzero" fill-opacity="1" /><path clip-path="url(#clip530)" d="M703.73 1454.1 Q700.119 1454.1 698.291 1457.66 Q696.485 1461.2 696.485 1468.33 Q696.485 1475.44 698.291 1479.01 Q700.119 1482.55 703.73 1482.55 Q707.365 1482.55 709.17 1479.01 Q710.999 1475.44 710.999 1468.33 Q710.999 1461.2 709.17 1457.66 Q707.365 1454.1 703.73 1454.1 M703.73 1450.39 Q709.541 1450.39 712.596 1455 Q715.675 1459.58 715.675 1468.33 Q715.675 1477.06 712.596 1481.67 Q709.541 1486.25 703.73 1486.25 Q697.92 1486.25 694.842 1481.67 Q691.786 1477.06 691.786 1468.33 Q691.786 1459.58 694.842 1455 Q697.92 1450.39 703.73 1450.39 Z" fill="#000000" fill-rule="nonzero" fill-opacity="1" /><path clip-path="url(#clip530)" d="M998.273 1455.09 L986.468 1473.54 L998.273 1473.54 L998.273 1455.09 M997.046 1451.02 L1002.93 1451.02 L1002.93 1473.54 L1007.86 1473.54 L1007.86 1477.43 L1002.93 1477.43 L1002.93 1485.58 L998.273 1485.58 L998.273 1477.43 L982.671 1477.43 L982.671 1472.92 L997.046 1451.02 Z" fill="#000000" fill-rule="nonzero" fill-opacity="1" /><path clip-path="url(#clip530)" d="M1025.59 1454.1 Q1021.98 1454.1 1020.15 1457.66 Q1018.34 1461.2 1018.34 1468.33 Q1018.34 1475.44 1020.15 1479.01 Q1021.98 1482.55 1025.59 1482.55 Q1029.22 1482.55 1031.03 1479.01 Q1032.86 1475.44 1032.86 1468.33 Q1032.86 1461.2 1031.03 1457.66 Q1029.22 1454.1 1025.59 1454.1 M1025.59 1450.39 Q1031.4 1450.39 1034.45 1455 Q1037.53 1459.58 1037.53 1468.33 Q1037.53 1477.06 1034.45 1481.67 Q1031.4 1486.25 1025.59 1486.25 Q1019.78 1486.25 1016.7 1481.67 Q1013.64 1477.06 1013.64 1468.33 Q1013.64 1459.58 1016.7 1455 Q1019.78 1450.39 1025.59 1450.39 Z" fill="#000000" fill-rule="nonzero" fill-opacity="1" /><path clip-path="url(#clip530)" d="M1306.01 1451.02 L1324.37 1451.02 L1324.37 1454.96 L1310.29 1454.96 L1310.29 1463.43 Q1311.31 1463.08 1312.33 1462.92 Q1313.35 1462.73 1314.37 1462.73 Q1320.15 1462.73 1323.53 1465.9 Q1326.91 1469.08 1326.91 1474.49 Q1326.91 1480.07 1323.44 1483.17 Q1319.97 1486.25 1313.65 1486.25 Q1311.47 1486.25 1309.2 1485.88 Q1306.96 1485.51 1304.55 1484.77 L1304.55 1480.07 Q1306.64 1481.2 1308.86 1481.76 Q1311.08 1482.32 1313.56 1482.32 Q1317.56 1482.32 1319.9 1480.21 Q1322.24 1478.1 1322.24 1474.49 Q1322.24 1470.88 1319.9 1468.77 Q1317.56 1466.67 1313.56 1466.67 Q1311.68 1466.67 1309.81 1467.08 Q1307.95 1467.5 1306.01 1468.38 L1306.01 1451.02 Z" fill="#000000" fill-rule="nonzero" fill-opacity="1" /><path clip-path="url(#clip530)" d="M1346.13 1454.1 Q1342.51 1454.1 1340.69 1457.66 Q1338.88 1461.2 1338.88 1468.33 Q1338.88 1475.44 1340.69 1479.01 Q1342.51 1482.55 1346.13 1482.55 Q1349.76 1482.55 1351.57 1479.01 Q1353.39 1475.44 1353.39 1468.33 Q1353.39 1461.2 1351.57 1457.66 Q1349.76 1454.1 1346.13 1454.1 M1346.13 1450.39 Q1351.94 1450.39 1354.99 1455 Q1358.07 1459.58 1358.07 1468.33 Q1358.07 1477.06 1354.99 1481.67 Q1351.94 1486.25 1346.13 1486.25 Q1340.32 1486.25 1337.24 1481.67 Q1334.18 1477.06 1334.18 1468.33 Q1334.18 1459.58 1337.24 1455 Q1340.32 1450.39 1346.13 1450.39 Z" fill="#000000" fill-rule="nonzero" fill-opacity="1" /><path clip-path="url(#clip530)" d="M1637.93 1466.44 Q1634.78 1466.44 1632.93 1468.59 Q1631.1 1470.74 1631.1 1474.49 Q1631.1 1478.22 1632.93 1480.39 Q1634.78 1482.55 1637.93 1482.55 Q1641.07 1482.55 1642.9 1480.39 Q1644.75 1478.22 1644.75 1474.49 Q1644.75 1470.74 1642.9 1468.59 Q1641.07 1466.44 1637.93 1466.44 M1647.21 1451.78 L1647.21 1456.04 Q1645.45 1455.21 1643.64 1454.77 Q1641.86 1454.33 1640.1 1454.33 Q1635.47 1454.33 1633.02 1457.45 Q1630.59 1460.58 1630.24 1466.9 Q1631.61 1464.89 1633.67 1463.82 Q1635.73 1462.73 1638.2 1462.73 Q1643.41 1462.73 1646.42 1465.9 Q1649.45 1469.05 1649.45 1474.49 Q1649.45 1479.82 1646.3 1483.03 Q1643.16 1486.25 1637.93 1486.25 Q1631.93 1486.25 1628.76 1481.67 Q1625.59 1477.06 1625.59 1468.33 Q1625.59 1460.14 1629.48 1455.28 Q1633.36 1450.39 1639.92 1450.39 Q1641.68 1450.39 1643.46 1450.74 Q1645.26 1451.09 1647.21 1451.78 Z" fill="#000000" fill-rule="nonzero" fill-opacity="1" /><path clip-path="url(#clip530)" d="M1667.51 1454.1 Q1663.9 1454.1 1662.07 1457.66 Q1660.26 1461.2 1660.26 1468.33 Q1660.26 1475.44 1662.07 1479.01 Q1663.9 1482.55 1667.51 1482.55 Q1671.14 1482.55 1672.95 1479.01 Q1674.78 1475.44 1674.78 1468.33 Q1674.78 1461.2 1672.95 1457.66 Q1671.14 1454.1 1667.51 1454.1 M1667.51 1450.39 Q1673.32 1450.39 1676.37 1455 Q1679.45 1459.58 1679.45 1468.33 Q1679.45 1477.06 1676.37 1481.67 Q1673.32 1486.25 1667.51 1486.25 Q1661.7 1486.25 1658.62 1481.67 Q1655.56 1477.06 1655.56 1468.33 Q1655.56 1459.58 1658.62 1455 Q1661.7 1450.39 1667.51 1450.39 Z" fill="#000000" fill-rule="nonzero" fill-opacity="1" /><path clip-path="url(#clip530)" d="M1947.09 1451.02 L1969.31 1451.02 L1969.31 1453.01 L1956.76 1485.58 L1951.88 1485.58 L1963.68 1454.96 L1947.09 1454.96 L1947.09 1451.02 Z" fill="#000000" fill-rule="nonzero" fill-opacity="1" /><path clip-path="url(#clip530)" d="M1988.43 1454.1 Q1984.82 1454.1 1982.99 1457.66 Q1981.18 1461.2 1981.18 1468.33 Q1981.18 1475.44 1982.99 1479.01 Q1984.82 1482.55 1988.43 1482.55 Q1992.06 1482.55 1993.87 1479.01 Q1995.7 1475.44 1995.7 1468.33 Q1995.7 1461.2 1993.87 1457.66 Q1992.06 1454.1 1988.43 1454.1 M1988.43 1450.39 Q1994.24 1450.39 1997.29 1455 Q2000.37 1459.58 2000.37 1468.33 Q2000.37 1477.06 1997.29 1481.67 Q1994.24 1486.25 1988.43 1486.25 Q1982.62 1486.25 1979.54 1481.67 Q1976.48 1477.06 1976.48 1468.33 Q1976.48 1459.58 1979.54 1455 Q1982.62 1450.39 1988.43 1450.39 Z" fill="#000000" fill-rule="nonzero" fill-opacity="1" /><path clip-path="url(#clip530)" d="M2279.81 1469.17 Q2276.48 1469.17 2274.56 1470.95 Q2272.66 1472.73 2272.66 1475.86 Q2272.66 1478.98 2274.56 1480.77 Q2276.48 1482.55 2279.81 1482.55 Q2283.14 1482.55 2285.07 1480.77 Q2286.99 1478.96 2286.99 1475.86 Q2286.99 1472.73 2285.07 1470.95 Q2283.17 1469.17 2279.81 1469.17 M2275.14 1467.18 Q2272.13 1466.44 2270.44 1464.38 Q2268.77 1462.32 2268.77 1459.35 Q2268.77 1455.21 2271.71 1452.8 Q2274.67 1450.39 2279.81 1450.39 Q2284.97 1450.39 2287.91 1452.8 Q2290.85 1455.21 2290.85 1459.35 Q2290.85 1462.32 2289.16 1464.38 Q2287.5 1466.44 2284.51 1467.18 Q2287.89 1467.96 2289.76 1470.26 Q2291.66 1472.55 2291.66 1475.86 Q2291.66 1480.88 2288.58 1483.57 Q2285.53 1486.25 2279.81 1486.25 Q2274.09 1486.25 2271.01 1483.57 Q2267.96 1480.88 2267.96 1475.86 Q2267.96 1472.55 2269.86 1470.26 Q2271.76 1467.96 2275.14 1467.18 M2273.42 1459.79 Q2273.42 1462.48 2275.09 1463.98 Q2276.78 1465.49 2279.81 1465.49 Q2282.82 1465.49 2284.51 1463.98 Q2286.22 1462.48 2286.22 1459.79 Q2286.22 1457.11 2284.51 1455.6 Q2282.82 1454.1 2279.81 1454.1 Q2276.78 1454.1 2275.09 1455.6 Q2273.42 1457.11 2273.42 1459.79 Z" fill="#000000" fill-rule="nonzero" fill-opacity="1" /><path clip-path="url(#clip530)" d="M2309.97 1454.1 Q2306.36 1454.1 2304.53 1457.66 Q2302.73 1461.2 2302.73 1468.33 Q2302.73 1475.44 2304.53 1479.01 Q2306.36 1482.55 2309.97 1482.55 Q2313.61 1482.55 2315.41 1479.01 Q2317.24 1475.44 2317.24 1468.33 Q2317.24 1461.2 2315.41 1457.66 Q2313.61 1454.1 2309.97 1454.1 M2309.97 1450.39 Q2315.78 1450.39 2318.84 1455 Q2321.92 1459.58 2321.92 1468.33 Q2321.92 1477.06 2318.84 1481.67 Q2315.78 1486.25 2309.97 1486.25 Q2304.16 1486.25 2301.08 1481.67 Q2298.03 1477.06 2298.03 1468.33 Q2298.03 1459.58 2301.08 1455 Q2304.16 1450.39 2309.97 1450.39 Z" fill="#000000" fill-rule="nonzero" fill-opacity="1" /><path clip-path="url(#clip530)" d="M1207.85 1520.52 L1248.05 1520.52 L1248.05 1525.93 L1231.18 1525.93 L1231.18 1568.04 L1224.72 1568.04 L1224.72 1525.93 L1207.85 1525.93 L1207.85 1520.52 Z" fill="#000000" fill-rule="nonzero" fill-opacity="1" /><path clip-path="url(#clip530)" d="M1274.18 1518.52 L1287.67 1518.52 L1287.67 1523.07 L1280.04 1523.07 L1280.04 1572.09 L1287.67 1572.09 L1287.67 1576.64 L1274.18 1576.64 L1274.18 1518.52 Z" fill="#000000" fill-rule="nonzero" fill-opacity="1" /><path clip-path="url(#clip530)" d="M1300.41 1520.52 L1309.99 1520.52 L1322.11 1552.86 L1334.3 1520.52 L1343.88 1520.52 L1343.88 1568.04 L1337.61 1568.04 L1337.61 1526.32 L1325.36 1558.91 L1318.9 1558.91 L1306.64 1526.32 L1306.64 1568.04 L1300.41 1568.04 L1300.41 1520.52 Z" fill="#000000" fill-rule="nonzero" fill-opacity="1" /><path clip-path="url(#clip530)" d="M1386.88 1548.76 L1386.88 1551.62 L1359.96 1551.62 Q1360.34 1557.67 1363.58 1560.85 Q1366.86 1564 1372.69 1564 Q1376.06 1564 1379.21 1563.17 Q1382.4 1562.35 1385.51 1560.69 L1385.51 1566.23 Q1382.36 1567.57 1379.05 1568.27 Q1375.74 1568.97 1372.34 1568.97 Q1363.81 1568.97 1358.81 1564 Q1353.85 1559.04 1353.85 1550.57 Q1353.85 1541.82 1358.56 1536.69 Q1363.3 1531.54 1371.32 1531.54 Q1378.51 1531.54 1382.68 1536.18 Q1386.88 1540.8 1386.88 1548.76 M1381.03 1547.04 Q1380.96 1542.23 1378.32 1539.37 Q1375.71 1536.5 1371.38 1536.5 Q1366.48 1536.5 1363.52 1539.27 Q1360.59 1542.04 1360.15 1547.07 L1381.03 1547.04 Z" fill="#000000" fill-rule="nonzero" fill-opacity="1" /><path clip-path="url(#clip530)" d="M1409 1568.04 L1390.86 1520.52 L1397.58 1520.52 L1412.63 1560.53 L1427.72 1520.52 L1434.4 1520.52 L1416.29 1568.04 L1409 1568.04 Z" fill="#000000" fill-rule="nonzero" fill-opacity="1" /><path clip-path="url(#clip530)" d="M1454.77 1518.52 L1454.77 1576.64 L1441.28 1576.64 L1441.28 1572.09 L1448.89 1572.09 L1448.89 1523.07 L1441.28 1523.07 L1441.28 1518.52 L1454.77 1518.52 Z" fill="#000000" fill-rule="nonzero" fill-opacity="1" /><polyline clip-path="url(#clip530)" style="stroke:#000000; stroke-linecap:round; stroke-linejoin:round; stroke-width:4; stroke-opacity:1; fill:none" points="309.866,1423.18 309.866,123.472 "/>
<polyline clip-path="url(#clip530)" style="stroke:#000000; stroke-linecap:round; stroke-linejoin:round; stroke-width:4; stroke-opacity:1; fill:none" points="309.866,1271.15 328.763,1271.15 "/>
<polyline clip-path="url(#clip530)" style="stroke:#000000; stroke-linecap:round; stroke-linejoin:round; stroke-width:4; stroke-opacity:1; fill:none" points="309.866,1026.82 328.763,1026.82 "/>
<polyline clip-path="url(#clip530)" style="stroke:#000000; stroke-linecap:round; stroke-linejoin:round; stroke-width:4; stroke-opacity:1; fill:none" points="309.866,782.49 328.763,782.49 "/>
<polyline clip-path="url(#clip530)" style="stroke:#000000; stroke-linecap:round; stroke-linejoin:round; stroke-width:4; stroke-opacity:1; fill:none" points="309.866,538.162 328.763,538.162 "/>
<polyline clip-path="url(#clip530)" style="stroke:#000000; stroke-linecap:round; stroke-linejoin:round; stroke-width:4; stroke-opacity:1; fill:none" points="309.866,293.834 328.763,293.834 "/>
<path clip-path="url(#clip530)" d="M127.2 1256.94 Q123.589 1256.94 121.76 1260.51 Q119.955 1264.05 119.955 1271.18 Q119.955 1278.29 121.76 1281.85 Q123.589 1285.39 127.2 1285.39 Q130.834 1285.39 132.64 1281.85 Q134.468 1278.29 134.468 1271.18 Q134.468 1264.05 132.64 1260.51 Q130.834 1256.94 127.2 1256.94 M127.2 1253.24 Q133.01 1253.24 136.066 1257.85 Q139.144 1262.43 139.144 1271.18 Q139.144 1279.91 136.066 1284.51 Q133.01 1289.1 127.2 1289.1 Q121.39 1289.1 118.311 1284.51 Q115.256 1279.91 115.256 1271.18 Q115.256 1262.43 118.311 1257.85 Q121.39 1253.24 127.2 1253.24 Z" fill="#000000" fill-rule="nonzero" fill-opacity="1" /><path clip-path="url(#clip530)" d="M147.362 1282.55 L152.246 1282.55 L152.246 1288.43 L147.362 1288.43 L147.362 1282.55 Z" fill="#000000" fill-rule="nonzero" fill-opacity="1" /><path clip-path="url(#clip530)" d="M172.431 1256.94 Q168.82 1256.94 166.991 1260.51 Q165.186 1264.05 165.186 1271.18 Q165.186 1278.29 166.991 1281.85 Q168.82 1285.39 172.431 1285.39 Q176.065 1285.39 177.871 1281.85 Q179.7 1278.29 179.7 1271.18 Q179.7 1264.05 177.871 1260.51 Q176.065 1256.94 172.431 1256.94 M172.431 1253.24 Q178.241 1253.24 181.297 1257.85 Q184.376 1262.43 184.376 1271.18 Q184.376 1279.91 181.297 1284.51 Q178.241 1289.1 172.431 1289.1 Q166.621 1289.1 163.542 1284.51 Q160.487 1279.91 160.487 1271.18 Q160.487 1262.43 163.542 1257.85 Q166.621 1253.24 172.431 1253.24 Z" fill="#000000" fill-rule="nonzero" fill-opacity="1" /><path clip-path="url(#clip530)" d="M206.76 1269.79 Q210.116 1270.51 211.991 1272.78 Q213.889 1275.05 213.889 1278.38 Q213.889 1283.5 210.371 1286.3 Q206.852 1289.1 200.371 1289.1 Q198.195 1289.1 195.88 1288.66 Q193.588 1288.24 191.135 1287.38 L191.135 1282.87 Q193.079 1284 195.394 1284.58 Q197.709 1285.16 200.232 1285.16 Q204.63 1285.16 206.922 1283.43 Q209.237 1281.69 209.237 1278.38 Q209.237 1275.32 207.084 1273.61 Q204.954 1271.87 201.135 1271.87 L197.107 1271.87 L197.107 1268.03 L201.32 1268.03 Q204.769 1268.03 206.598 1266.67 Q208.426 1265.28 208.426 1262.69 Q208.426 1260.02 206.528 1258.61 Q204.653 1257.18 201.135 1257.18 Q199.213 1257.18 197.014 1257.59 Q194.815 1258.01 192.176 1258.89 L192.176 1254.72 Q194.838 1253.98 197.153 1253.61 Q199.491 1253.24 201.551 1253.24 Q206.875 1253.24 209.977 1255.67 Q213.079 1258.08 213.079 1262.2 Q213.079 1265.07 211.436 1267.06 Q209.792 1269.03 206.76 1269.79 Z" fill="#000000" fill-rule="nonzero" fill-opacity="1" /><path clip-path="url(#clip530)" d="M235.602 1257.94 L223.797 1276.39 L235.602 1276.39 L235.602 1257.94 M234.375 1253.87 L240.255 1253.87 L240.255 1276.39 L245.185 1276.39 L245.185 1280.28 L240.255 1280.28 L240.255 1288.43 L235.602 1288.43 L235.602 1280.28 L220 1280.28 L220 1275.76 L234.375 1253.87 Z" fill="#000000" fill-rule="nonzero" fill-opacity="1" /><path clip-path="url(#clip530)" d="M252.963 1253.87 L271.32 1253.87 L271.32 1257.8 L257.246 1257.8 L257.246 1266.27 Q258.264 1265.93 259.283 1265.76 Q260.301 1265.58 261.32 1265.58 Q267.107 1265.58 270.486 1268.75 Q273.866 1271.92 273.866 1277.34 Q273.866 1282.92 270.394 1286.02 Q266.921 1289.1 260.602 1289.1 Q258.426 1289.1 256.158 1288.73 Q253.912 1288.36 251.505 1287.62 L251.505 1282.92 Q253.588 1284.05 255.81 1284.61 Q258.033 1285.16 260.509 1285.16 Q264.514 1285.16 266.852 1283.06 Q269.19 1280.95 269.19 1277.34 Q269.19 1273.73 266.852 1271.62 Q264.514 1269.51 260.509 1269.51 Q258.634 1269.51 256.759 1269.93 Q254.908 1270.35 252.963 1271.23 L252.963 1253.87 Z" fill="#000000" fill-rule="nonzero" fill-opacity="1" /><path clip-path="url(#clip530)" d="M126.205 1012.62 Q122.593 1012.62 120.765 1016.18 Q118.959 1019.72 118.959 1026.85 Q118.959 1033.96 120.765 1037.52 Q122.593 1041.07 126.205 1041.07 Q129.839 1041.07 131.644 1037.52 Q133.473 1033.96 133.473 1026.85 Q133.473 1019.72 131.644 1016.18 Q129.839 1012.62 126.205 1012.62 M126.205 1008.91 Q132.015 1008.91 135.07 1013.52 Q138.149 1018.1 138.149 1026.85 Q138.149 1035.58 135.07 1040.19 Q132.015 1044.77 126.205 1044.77 Q120.394 1044.77 117.316 1040.19 Q114.26 1035.58 114.26 1026.85 Q114.26 1018.1 117.316 1013.52 Q120.394 1008.91 126.205 1008.91 Z" fill="#000000" fill-rule="nonzero" fill-opacity="1" /><path clip-path="url(#clip530)" d="M146.366 1038.22 L151.251 1038.22 L151.251 1044.1 L146.366 1044.1 L146.366 1038.22 Z" fill="#000000" fill-rule="nonzero" fill-opacity="1" /><path clip-path="url(#clip530)" d="M171.436 1012.62 Q167.825 1012.62 165.996 1016.18 Q164.19 1019.72 164.19 1026.85 Q164.19 1033.96 165.996 1037.52 Q167.825 1041.07 171.436 1041.07 Q175.07 1041.07 176.876 1037.52 Q178.704 1033.96 178.704 1026.85 Q178.704 1019.72 176.876 1016.18 Q175.07 1012.62 171.436 1012.62 M171.436 1008.91 Q177.246 1008.91 180.301 1013.52 Q183.38 1018.1 183.38 1026.85 Q183.38 1035.58 180.301 1040.19 Q177.246 1044.77 171.436 1044.77 Q165.626 1044.77 162.547 1040.19 Q159.491 1035.58 159.491 1026.85 Q159.491 1018.1 162.547 1013.52 Q165.626 1008.91 171.436 1008.91 Z" fill="#000000" fill-rule="nonzero" fill-opacity="1" /><path clip-path="url(#clip530)" d="M205.764 1025.46 Q209.121 1026.18 210.996 1028.45 Q212.894 1030.72 212.894 1034.05 Q212.894 1039.17 209.375 1041.97 Q205.857 1044.77 199.375 1044.77 Q197.2 1044.77 194.885 1044.33 Q192.593 1043.91 190.139 1043.06 L190.139 1038.54 Q192.084 1039.68 194.399 1040.26 Q196.713 1040.83 199.237 1040.83 Q203.635 1040.83 205.926 1039.1 Q208.241 1037.36 208.241 1034.05 Q208.241 1031 206.088 1029.28 Q203.959 1027.55 200.139 1027.55 L196.112 1027.55 L196.112 1023.7 L200.325 1023.7 Q203.774 1023.7 205.602 1022.34 Q207.431 1020.95 207.431 1018.36 Q207.431 1015.7 205.533 1014.28 Q203.658 1012.85 200.139 1012.85 Q198.218 1012.85 196.019 1013.26 Q193.82 1013.68 191.181 1014.56 L191.181 1010.39 Q193.843 1009.65 196.158 1009.28 Q198.496 1008.91 200.556 1008.91 Q205.88 1008.91 208.982 1011.34 Q212.084 1013.75 212.084 1017.87 Q212.084 1020.74 210.44 1022.73 Q208.797 1024.7 205.764 1025.46 Z" fill="#000000" fill-rule="nonzero" fill-opacity="1" /><path clip-path="url(#clip530)" d="M221.806 1009.54 L240.162 1009.54 L240.162 1013.47 L226.088 1013.47 L226.088 1021.95 Q227.107 1021.6 228.125 1021.44 Q229.144 1021.25 230.162 1021.25 Q235.949 1021.25 239.329 1024.42 Q242.709 1027.59 242.709 1033.01 Q242.709 1038.59 239.236 1041.69 Q235.764 1044.77 229.445 1044.77 Q227.269 1044.77 225 1044.4 Q222.755 1044.03 220.348 1043.29 L220.348 1038.59 Q222.431 1039.72 224.653 1040.28 Q226.875 1040.83 229.352 1040.83 Q233.357 1040.83 235.695 1038.73 Q238.033 1036.62 238.033 1033.01 Q238.033 1029.4 235.695 1027.29 Q233.357 1025.19 229.352 1025.19 Q227.477 1025.19 225.602 1025.6 Q223.75 1026.02 221.806 1026.9 L221.806 1009.54 Z" fill="#000000" fill-rule="nonzero" fill-opacity="1" /><path clip-path="url(#clip530)" d="M261.921 1012.62 Q258.31 1012.62 256.482 1016.18 Q254.676 1019.72 254.676 1026.85 Q254.676 1033.96 256.482 1037.52 Q258.31 1041.07 261.921 1041.07 Q265.556 1041.07 267.361 1037.52 Q269.19 1033.96 269.19 1026.85 Q269.19 1019.72 267.361 1016.18 Q265.556 1012.62 261.921 1012.62 M261.921 1008.91 Q267.732 1008.91 270.787 1013.52 Q273.866 1018.1 273.866 1026.85 Q273.866 1035.58 270.787 1040.19 Q267.732 1044.77 261.921 1044.77 Q256.111 1044.77 253.033 1040.19 Q249.977 1035.58 249.977 1026.85 Q249.977 1018.1 253.033 1013.52 Q256.111 1008.91 261.921 1008.91 Z" fill="#000000" fill-rule="nonzero" fill-opacity="1" /><path clip-path="url(#clip530)" d="M127.2 768.289 Q123.589 768.289 121.76 771.853 Q119.955 775.395 119.955 782.525 Q119.955 789.631 121.76 793.196 Q123.589 796.738 127.2 796.738 Q130.834 796.738 132.64 793.196 Q134.468 789.631 134.468 782.525 Q134.468 775.395 132.64 771.853 Q130.834 768.289 127.2 768.289 M127.2 764.585 Q133.01 764.585 136.066 769.191 Q139.144 773.775 139.144 782.525 Q139.144 791.251 136.066 795.858 Q133.01 800.441 127.2 800.441 Q121.39 800.441 118.311 795.858 Q115.256 791.251 115.256 782.525 Q115.256 773.775 118.311 769.191 Q121.39 764.585 127.2 764.585 Z" fill="#000000" fill-rule="nonzero" fill-opacity="1" /><path clip-path="url(#clip530)" d="M147.362 793.89 L152.246 793.89 L152.246 799.77 L147.362 799.77 L147.362 793.89 Z" fill="#000000" fill-rule="nonzero" fill-opacity="1" /><path clip-path="url(#clip530)" d="M172.431 768.289 Q168.82 768.289 166.991 771.853 Q165.186 775.395 165.186 782.525 Q165.186 789.631 166.991 793.196 Q168.82 796.738 172.431 796.738 Q176.065 796.738 177.871 793.196 Q179.7 789.631 179.7 782.525 Q179.7 775.395 177.871 771.853 Q176.065 768.289 172.431 768.289 M172.431 764.585 Q178.241 764.585 181.297 769.191 Q184.376 773.775 184.376 782.525 Q184.376 791.251 181.297 795.858 Q178.241 800.441 172.431 800.441 Q166.621 800.441 163.542 795.858 Q160.487 791.251 160.487 782.525 Q160.487 773.775 163.542 769.191 Q166.621 764.585 172.431 764.585 Z" fill="#000000" fill-rule="nonzero" fill-opacity="1" /><path clip-path="url(#clip530)" d="M206.76 781.136 Q210.116 781.853 211.991 784.122 Q213.889 786.39 213.889 789.724 Q213.889 794.839 210.371 797.64 Q206.852 800.441 200.371 800.441 Q198.195 800.441 195.88 800.001 Q193.588 799.585 191.135 798.728 L191.135 794.214 Q193.079 795.349 195.394 795.927 Q197.709 796.506 200.232 796.506 Q204.63 796.506 206.922 794.77 Q209.237 793.034 209.237 789.724 Q209.237 786.668 207.084 784.955 Q204.954 783.219 201.135 783.219 L197.107 783.219 L197.107 779.377 L201.32 779.377 Q204.769 779.377 206.598 778.011 Q208.426 776.622 208.426 774.029 Q208.426 771.367 206.528 769.955 Q204.653 768.52 201.135 768.52 Q199.213 768.52 197.014 768.937 Q194.815 769.353 192.176 770.233 L192.176 766.066 Q194.838 765.326 197.153 764.955 Q199.491 764.585 201.551 764.585 Q206.875 764.585 209.977 767.015 Q213.079 769.423 213.079 773.543 Q213.079 776.414 211.436 778.404 Q209.792 780.372 206.76 781.136 Z" fill="#000000" fill-rule="nonzero" fill-opacity="1" /><path clip-path="url(#clip530)" d="M222.801 765.21 L241.158 765.21 L241.158 769.145 L227.084 769.145 L227.084 777.617 Q228.102 777.27 229.121 777.108 Q230.139 776.923 231.158 776.923 Q236.945 776.923 240.324 780.094 Q243.704 783.265 243.704 788.682 Q243.704 794.261 240.232 797.363 Q236.76 800.441 230.44 800.441 Q228.264 800.441 225.996 800.071 Q223.75 799.701 221.343 798.96 L221.343 794.261 Q223.426 795.395 225.648 795.951 Q227.871 796.506 230.347 796.506 Q234.352 796.506 236.69 794.4 Q239.028 792.293 239.028 788.682 Q239.028 785.071 236.69 782.964 Q234.352 780.858 230.347 780.858 Q228.473 780.858 226.598 781.275 Q224.746 781.691 222.801 782.571 L222.801 765.21 Z" fill="#000000" fill-rule="nonzero" fill-opacity="1" /><path clip-path="url(#clip530)" d="M252.963 765.21 L271.32 765.21 L271.32 769.145 L257.246 769.145 L257.246 777.617 Q258.264 777.27 259.283 777.108 Q260.301 776.923 261.32 776.923 Q267.107 776.923 270.486 780.094 Q273.866 783.265 273.866 788.682 Q273.866 794.261 270.394 797.363 Q266.921 800.441 260.602 800.441 Q258.426 800.441 256.158 800.071 Q253.912 799.701 251.505 798.96 L251.505 794.261 Q253.588 795.395 255.81 795.951 Q258.033 796.506 260.509 796.506 Q264.514 796.506 266.852 794.4 Q269.19 792.293 269.19 788.682 Q269.19 785.071 266.852 782.964 Q264.514 780.858 260.509 780.858 Q258.634 780.858 256.759 781.275 Q254.908 781.691 252.963 782.571 L252.963 765.21 Z" fill="#000000" fill-rule="nonzero" fill-opacity="1" /><path clip-path="url(#clip530)" d="M126.205 523.961 Q122.593 523.961 120.765 527.526 Q118.959 531.067 118.959 538.197 Q118.959 545.303 120.765 548.868 Q122.593 552.41 126.205 552.41 Q129.839 552.41 131.644 548.868 Q133.473 545.303 133.473 538.197 Q133.473 531.067 131.644 527.526 Q129.839 523.961 126.205 523.961 M126.205 520.257 Q132.015 520.257 135.07 524.864 Q138.149 529.447 138.149 538.197 Q138.149 546.924 135.07 551.53 Q132.015 556.113 126.205 556.113 Q120.394 556.113 117.316 551.53 Q114.26 546.924 114.26 538.197 Q114.26 529.447 117.316 524.864 Q120.394 520.257 126.205 520.257 Z" fill="#000000" fill-rule="nonzero" fill-opacity="1" /><path clip-path="url(#clip530)" d="M146.366 549.563 L151.251 549.563 L151.251 555.442 L146.366 555.442 L146.366 549.563 Z" fill="#000000" fill-rule="nonzero" fill-opacity="1" /><path clip-path="url(#clip530)" d="M171.436 523.961 Q167.825 523.961 165.996 527.526 Q164.19 531.067 164.19 538.197 Q164.19 545.303 165.996 548.868 Q167.825 552.41 171.436 552.41 Q175.07 552.41 176.876 548.868 Q178.704 545.303 178.704 538.197 Q178.704 531.067 176.876 527.526 Q175.07 523.961 171.436 523.961 M171.436 520.257 Q177.246 520.257 180.301 524.864 Q183.38 529.447 183.38 538.197 Q183.38 546.924 180.301 551.53 Q177.246 556.113 171.436 556.113 Q165.626 556.113 162.547 551.53 Q159.491 546.924 159.491 538.197 Q159.491 529.447 162.547 524.864 Q165.626 520.257 171.436 520.257 Z" fill="#000000" fill-rule="nonzero" fill-opacity="1" /><path clip-path="url(#clip530)" d="M205.764 536.808 Q209.121 537.526 210.996 539.794 Q212.894 542.063 212.894 545.396 Q212.894 550.512 209.375 553.312 Q205.857 556.113 199.375 556.113 Q197.2 556.113 194.885 555.674 Q192.593 555.257 190.139 554.4 L190.139 549.887 Q192.084 551.021 194.399 551.6 Q196.713 552.178 199.237 552.178 Q203.635 552.178 205.926 550.442 Q208.241 548.706 208.241 545.396 Q208.241 542.34 206.088 540.627 Q203.959 538.891 200.139 538.891 L196.112 538.891 L196.112 535.049 L200.325 535.049 Q203.774 535.049 205.602 533.683 Q207.431 532.294 207.431 529.701 Q207.431 527.039 205.533 525.627 Q203.658 524.192 200.139 524.192 Q198.218 524.192 196.019 524.609 Q193.82 525.026 191.181 525.905 L191.181 521.739 Q193.843 520.998 196.158 520.627 Q198.496 520.257 200.556 520.257 Q205.88 520.257 208.982 522.688 Q212.084 525.095 212.084 529.215 Q212.084 532.086 210.44 534.076 Q208.797 536.044 205.764 536.808 Z" fill="#000000" fill-rule="nonzero" fill-opacity="1" /><path clip-path="url(#clip530)" d="M232.338 536.299 Q229.19 536.299 227.338 538.451 Q225.51 540.604 225.51 544.354 Q225.51 548.081 227.338 550.257 Q229.19 552.41 232.338 552.41 Q235.486 552.41 237.315 550.257 Q239.167 548.081 239.167 544.354 Q239.167 540.604 237.315 538.451 Q235.486 536.299 232.338 536.299 M241.621 521.646 L241.621 525.905 Q239.861 525.072 238.056 524.632 Q236.273 524.192 234.514 524.192 Q229.885 524.192 227.431 527.317 Q225 530.442 224.653 536.762 Q226.019 534.748 228.079 533.683 Q230.139 532.595 232.616 532.595 Q237.824 532.595 240.834 535.766 Q243.866 538.914 243.866 544.354 Q243.866 549.678 240.718 552.896 Q237.57 556.113 232.338 556.113 Q226.343 556.113 223.172 551.53 Q220 546.924 220 538.197 Q220 530.002 223.889 525.141 Q227.778 520.257 234.329 520.257 Q236.088 520.257 237.871 520.604 Q239.676 520.952 241.621 521.646 Z" fill="#000000" fill-rule="nonzero" fill-opacity="1" /><path clip-path="url(#clip530)" d="M261.921 523.961 Q258.31 523.961 256.482 527.526 Q254.676 531.067 254.676 538.197 Q254.676 545.303 256.482 548.868 Q258.31 552.41 261.921 552.41 Q265.556 552.41 267.361 548.868 Q269.19 545.303 269.19 538.197 Q269.19 531.067 267.361 527.526 Q265.556 523.961 261.921 523.961 M261.921 520.257 Q267.732 520.257 270.787 524.864 Q273.866 529.447 273.866 538.197 Q273.866 546.924 270.787 551.53 Q267.732 556.113 261.921 556.113 Q256.111 556.113 253.033 551.53 Q249.977 546.924 249.977 538.197 Q249.977 529.447 253.033 524.864 Q256.111 520.257 261.921 520.257 Z" fill="#000000" fill-rule="nonzero" fill-opacity="1" /><path clip-path="url(#clip530)" d="M127.2 279.633 Q123.589 279.633 121.76 283.198 Q119.955 286.739 119.955 293.869 Q119.955 300.975 121.76 304.54 Q123.589 308.082 127.2 308.082 Q130.834 308.082 132.64 304.54 Q134.468 300.975 134.468 293.869 Q134.468 286.739 132.64 283.198 Q130.834 279.633 127.2 279.633 M127.2 275.929 Q133.01 275.929 136.066 280.536 Q139.144 285.119 139.144 293.869 Q139.144 302.596 136.066 307.202 Q133.01 311.786 127.2 311.786 Q121.39 311.786 118.311 307.202 Q115.256 302.596 115.256 293.869 Q115.256 285.119 118.311 280.536 Q121.39 275.929 127.2 275.929 Z" fill="#000000" fill-rule="nonzero" fill-opacity="1" /><path clip-path="url(#clip530)" d="M147.362 305.235 L152.246 305.235 L152.246 311.114 L147.362 311.114 L147.362 305.235 Z" fill="#000000" fill-rule="nonzero" fill-opacity="1" /><path clip-path="url(#clip530)" d="M172.431 279.633 Q168.82 279.633 166.991 283.198 Q165.186 286.739 165.186 293.869 Q165.186 300.975 166.991 304.54 Q168.82 308.082 172.431 308.082 Q176.065 308.082 177.871 304.54 Q179.7 300.975 179.7 293.869 Q179.7 286.739 177.871 283.198 Q176.065 279.633 172.431 279.633 M172.431 275.929 Q178.241 275.929 181.297 280.536 Q184.376 285.119 184.376 293.869 Q184.376 302.596 181.297 307.202 Q178.241 311.786 172.431 311.786 Q166.621 311.786 163.542 307.202 Q160.487 302.596 160.487 293.869 Q160.487 285.119 163.542 280.536 Q166.621 275.929 172.431 275.929 Z" fill="#000000" fill-rule="nonzero" fill-opacity="1" /><path clip-path="url(#clip530)" d="M206.76 292.48 Q210.116 293.198 211.991 295.466 Q213.889 297.735 213.889 301.068 Q213.889 306.184 210.371 308.985 Q206.852 311.786 200.371 311.786 Q198.195 311.786 195.88 311.346 Q193.588 310.929 191.135 310.073 L191.135 305.559 Q193.079 306.693 195.394 307.272 Q197.709 307.85 200.232 307.85 Q204.63 307.85 206.922 306.114 Q209.237 304.378 209.237 301.068 Q209.237 298.012 207.084 296.3 Q204.954 294.563 201.135 294.563 L197.107 294.563 L197.107 290.721 L201.32 290.721 Q204.769 290.721 206.598 289.355 Q208.426 287.966 208.426 285.374 Q208.426 282.712 206.528 281.3 Q204.653 279.864 201.135 279.864 Q199.213 279.864 197.014 280.281 Q194.815 280.698 192.176 281.577 L192.176 277.411 Q194.838 276.67 197.153 276.3 Q199.491 275.929 201.551 275.929 Q206.875 275.929 209.977 278.36 Q213.079 280.767 213.079 284.888 Q213.079 287.758 211.436 289.749 Q209.792 291.716 206.76 292.48 Z" fill="#000000" fill-rule="nonzero" fill-opacity="1" /><path clip-path="url(#clip530)" d="M233.334 291.971 Q230.185 291.971 228.334 294.124 Q226.505 296.276 226.505 300.026 Q226.505 303.753 228.334 305.929 Q230.185 308.082 233.334 308.082 Q236.482 308.082 238.31 305.929 Q240.162 303.753 240.162 300.026 Q240.162 296.276 238.31 294.124 Q236.482 291.971 233.334 291.971 M242.616 277.318 L242.616 281.577 Q240.857 280.744 239.051 280.304 Q237.269 279.864 235.51 279.864 Q230.88 279.864 228.426 282.989 Q225.996 286.114 225.648 292.434 Q227.014 290.42 229.074 289.355 Q231.135 288.267 233.611 288.267 Q238.82 288.267 241.829 291.438 Q244.861 294.587 244.861 300.026 Q244.861 305.35 241.713 308.568 Q238.565 311.786 233.334 311.786 Q227.338 311.786 224.167 307.202 Q220.996 302.596 220.996 293.869 Q220.996 285.675 224.885 280.813 Q228.773 275.929 235.324 275.929 Q237.084 275.929 238.866 276.276 Q240.672 276.624 242.616 277.318 Z" fill="#000000" fill-rule="nonzero" fill-opacity="1" /><path clip-path="url(#clip530)" d="M252.963 276.554 L271.32 276.554 L271.32 280.489 L257.246 280.489 L257.246 288.962 Q258.264 288.614 259.283 288.452 Q260.301 288.267 261.32 288.267 Q267.107 288.267 270.486 291.438 Q273.866 294.61 273.866 300.026 Q273.866 305.605 270.394 308.707 Q266.921 311.786 260.602 311.786 Q258.426 311.786 256.158 311.415 Q253.912 311.045 251.505 310.304 L251.505 305.605 Q253.588 306.739 255.81 307.295 Q258.033 307.85 260.509 307.85 Q264.514 307.85 266.852 305.744 Q269.19 303.637 269.19 300.026 Q269.19 296.415 266.852 294.309 Q264.514 292.202 260.509 292.202 Q258.634 292.202 256.759 292.619 Q254.908 293.036 252.963 293.915 L252.963 276.554 Z" fill="#000000" fill-rule="nonzero" fill-opacity="1" /><path clip-path="url(#clip530)" d="M29.4065 993.309 L34.9447 993.309 Q33.6716 995.792 33.035 998.465 Q32.3984 1001.14 32.3984 1004 Q32.3984 1008.36 33.7352 1010.56 Q35.072 1012.72 37.7456 1012.72 Q39.7826 1012.72 40.9603 1011.16 Q42.1061 1009.61 43.1565 1004.89 L43.6021 1002.89 Q44.9389 996.651 47.3897 994.041 Q49.8086 991.399 54.1691 991.399 Q59.1344 991.399 62.0308 995.346 Q64.9272 999.261 64.9272 1006.14 Q64.9272 1009 64.3543 1012.12 Q63.8132 1015.21 62.6992 1018.64 L56.6518 1018.64 Q58.3387 1015.4 59.198 1012.25 Q60.0256 1009.1 60.0256 1006.01 Q60.0256 1001.87 58.6251 999.643 Q57.1929 997.415 54.6147 997.415 Q52.2276 997.415 50.9545 999.038 Q49.6813 1000.63 48.5037 1006.07 L48.0262 1008.11 Q46.8804 1013.55 44.5251 1015.97 Q42.138 1018.39 38.0002 1018.39 Q32.9713 1018.39 30.2341 1014.82 Q27.4968 1011.26 27.4968 1004.7 Q27.4968 1001.46 27.9743 998.592 Q28.4517 995.728 29.4065 993.309 Z" fill="#000000" fill-rule="nonzero" fill-opacity="1" /><path clip-path="url(#clip530)" d="M28.3562 982.073 L28.3562 976.217 L64.0042 976.217 L64.0042 982.073 L28.3562 982.073 M14.479 982.073 L14.479 976.217 L21.895 976.217 L21.895 982.073 L14.479 982.073 Z" fill="#000000" fill-rule="nonzero" fill-opacity="1" /><path clip-path="url(#clip530)" d="M45.7664 940.505 Q39.4007 940.505 35.8996 943.147 Q32.3984 945.757 32.3984 950.5 Q32.3984 955.21 35.8996 957.852 Q39.4007 960.462 45.7664 960.462 Q52.1003 960.462 55.6014 957.852 Q59.1026 955.21 59.1026 950.5 Q59.1026 945.757 55.6014 943.147 Q52.1003 940.505 45.7664 940.505 M59.58 934.649 Q68.683 934.649 73.1071 938.691 Q77.5631 942.733 77.5631 951.072 Q77.5631 954.16 77.0857 956.897 Q76.6401 959.634 75.6852 962.212 L69.9879 962.212 Q71.3884 959.634 72.0568 957.12 Q72.7252 954.605 72.7252 951.995 Q72.7252 946.234 69.7015 943.37 Q66.7096 940.505 60.6303 940.505 L57.7339 940.505 Q60.885 942.32 62.4446 945.152 Q64.0042 947.985 64.0042 951.932 Q64.0042 958.488 59.0071 962.499 Q54.01 966.509 45.7664 966.509 Q37.491 966.509 32.4939 962.499 Q27.4968 958.488 27.4968 951.932 Q27.4968 947.985 29.0564 945.152 Q30.616 942.32 33.7671 940.505 L28.3562 940.505 L28.3562 934.649 L59.58 934.649 Z" fill="#000000" fill-rule="nonzero" fill-opacity="1" /><path clip-path="url(#clip530)" d="M35.1993 894.831 Q31.2526 892.635 29.3747 889.58 Q27.4968 886.524 27.4968 882.386 Q27.4968 876.816 31.4117 873.793 Q35.2948 870.769 42.4881 870.769 L64.0042 870.769 L64.0042 876.657 L42.679 876.657 Q37.5546 876.657 35.072 878.472 Q32.5894 880.286 32.5894 884.01 Q32.5894 888.561 35.6131 891.203 Q38.6368 893.845 43.8567 893.845 L64.0042 893.845 L64.0042 899.733 L42.679 899.733 Q37.5228 899.733 35.072 901.547 Q32.5894 903.361 32.5894 907.149 Q32.5894 911.637 35.6449 914.279 Q38.6686 916.92 43.8567 916.92 L64.0042 916.92 L64.0042 922.809 L28.3562 922.809 L28.3562 916.92 L33.8944 916.92 Q30.616 914.915 29.0564 912.114 Q27.4968 909.313 27.4968 905.462 Q27.4968 901.579 29.4702 898.874 Q31.4436 896.136 35.1993 894.831 Z" fill="#000000" fill-rule="nonzero" fill-opacity="1" /><path clip-path="url(#clip530)" d="M46.0847 842.887 Q46.0847 849.985 47.7079 852.722 Q49.3312 855.46 53.2461 855.46 Q56.3653 855.46 58.2114 853.422 Q60.0256 851.354 60.0256 847.821 Q60.0256 842.951 56.5881 840.023 Q53.1188 837.063 47.3897 837.063 L46.0847 837.063 L46.0847 842.887 M43.6657 831.206 L64.0042 831.206 L64.0042 837.063 L58.5933 837.063 Q61.8398 839.068 63.3994 842.06 Q64.9272 845.052 64.9272 849.38 Q64.9272 854.855 61.8716 858.101 Q58.7843 861.316 53.6281 861.316 Q47.6125 861.316 44.5569 857.306 Q41.5014 853.263 41.5014 845.274 L41.5014 837.063 L40.9285 837.063 Q36.8862 837.063 34.6901 839.736 Q32.4621 842.378 32.4621 847.184 Q32.4621 850.24 33.1941 853.136 Q33.9262 856.032 35.3903 858.706 L29.9795 858.706 Q28.7381 855.491 28.1334 852.468 Q27.4968 849.444 27.4968 846.579 Q27.4968 838.845 31.5072 835.026 Q35.5176 831.206 43.6657 831.206 Z" fill="#000000" fill-rule="nonzero" fill-opacity="1" /><path clip-path="url(#clip530)" d="M14.479 798.964 L14.479 785.469 L19.0304 785.469 L19.0304 793.107 L68.0464 793.107 L68.0464 785.469 L72.5979 785.469 L72.5979 798.964 L14.479 798.964 Z" fill="#000000" fill-rule="nonzero" fill-opacity="1" /><path clip-path="url(#clip530)" d="M57.2247 740.336 L44.4614 740.336 L44.4614 750.839 L39.1779 750.839 L39.1779 733.97 L59.58 733.97 Q62.2218 737.694 63.5904 742.182 Q64.9272 746.67 64.9272 751.762 Q64.9272 762.902 58.4342 769.204 Q51.9093 775.474 40.2919 775.474 Q28.6427 775.474 22.1496 769.204 Q15.6248 762.902 15.6248 751.762 Q15.6248 747.115 16.7706 742.946 Q17.9164 738.744 20.1444 735.211 L26.9876 735.211 Q23.9639 738.776 22.4361 742.787 Q20.9083 746.797 20.9083 751.221 Q20.9083 759.942 25.7781 764.334 Q30.6479 768.695 40.2919 768.695 Q49.9041 768.695 54.7739 764.334 Q59.6436 759.942 59.6436 751.221 Q59.6436 747.815 59.0707 745.142 Q58.466 742.468 57.2247 740.336 Z" fill="#000000" fill-rule="nonzero" fill-opacity="1" /><path clip-path="url(#clip530)" d="M44.7161 691.988 L47.5806 691.988 L47.5806 718.915 Q53.6281 718.533 56.8109 715.287 Q59.9619 712.008 59.9619 706.184 Q59.9619 702.81 59.1344 699.659 Q58.3069 696.476 56.6518 693.357 L62.1899 693.357 Q63.5267 696.508 64.227 699.818 Q64.9272 703.128 64.9272 706.534 Q64.9272 715.064 59.9619 720.061 Q54.9967 725.026 46.5303 725.026 Q37.7774 725.026 32.6531 720.316 Q27.4968 715.573 27.4968 707.552 Q27.4968 700.359 32.1438 696.19 Q36.7589 691.988 44.7161 691.988 M42.9973 697.845 Q38.1912 697.908 35.3266 700.55 Q32.4621 703.16 32.4621 707.489 Q32.4621 712.39 35.2312 715.35 Q38.0002 718.279 43.0292 718.724 L42.9973 697.845 Z" fill="#000000" fill-rule="nonzero" fill-opacity="1" /><path clip-path="url(#clip530)" d="M64.0042 669.867 L16.4842 688.01 L16.4842 681.294 L56.4926 666.239 L16.4842 651.152 L16.4842 644.468 L64.0042 662.579 L64.0042 669.867 Z" fill="#000000" fill-rule="nonzero" fill-opacity="1" /><path clip-path="url(#clip530)" d="M16.4842 613.499 L34.2127 596.216 L34.2127 602.614 L21.6404 616.618 L34.2127 630.623 L34.2127 637.02 L16.4842 619.737 L16.4842 613.499 Z" fill="#000000" fill-rule="nonzero" fill-opacity="1" /><path clip-path="url(#clip530)" d="M38.3822 562.86 Q39.3689 558.245 42.4881 555.667 Q45.6073 553.057 50.1906 553.057 Q57.2247 553.057 61.0759 557.895 Q64.9272 562.732 64.9272 571.644 Q64.9272 574.636 64.3224 577.819 Q63.7495 580.97 62.5719 584.344 L56.3653 584.344 Q57.9249 581.67 58.7206 578.488 Q59.5163 575.305 59.5163 571.835 Q59.5163 565.788 57.1292 562.637 Q54.7421 559.454 50.1906 559.454 Q45.9892 559.454 43.6339 562.414 Q41.2468 565.342 41.2468 570.594 L41.2468 576.132 L35.9632 576.132 L35.9632 570.34 Q35.9632 565.597 34.0853 563.083 Q32.1756 560.568 28.6108 560.568 Q24.9505 560.568 23.009 563.178 Q21.0356 565.756 21.0356 570.594 Q21.0356 573.236 21.6086 576.26 Q22.1815 579.283 23.3909 582.912 L17.6618 582.912 Q16.6433 579.252 16.134 576.069 Q15.6248 572.854 15.6248 570.021 Q15.6248 562.701 18.9668 558.436 Q22.277 554.171 27.9424 554.171 Q31.8892 554.171 34.6264 556.43 Q37.3318 558.69 38.3822 562.86 Z" fill="#000000" fill-rule="nonzero" fill-opacity="1" /><path clip-path="url(#clip530)" d="M14.479 528.008 L72.5979 528.008 L72.5979 541.503 L68.0464 541.503 L68.0464 533.896 L19.0304 533.896 L19.0304 541.503 L14.479 541.503 L14.479 528.008 Z" fill="#000000" fill-rule="nonzero" fill-opacity="1" /><path clip-path="url(#clip530)" d="M683.551 12.096 L691.734 12.096 L691.734 65.6895 L721.184 65.6895 L721.184 72.576 L683.551 72.576 L683.551 12.096 Z" fill="#000000" fill-rule="nonzero" fill-opacity="1" /><path clip-path="url(#clip530)" d="M745.57 32.4315 Q739.575 32.4315 736.091 37.1306 Q732.607 41.7891 732.607 49.9314 Q732.607 58.0738 736.051 62.7728 Q739.535 67.4314 745.57 67.4314 Q751.525 67.4314 755.009 62.7323 Q758.493 58.0333 758.493 49.9314 Q758.493 41.8701 755.009 37.1711 Q751.525 32.4315 745.57 32.4315 M745.57 26.1121 Q755.293 26.1121 760.842 32.4315 Q766.392 38.7509 766.392 49.9314 Q766.392 61.0714 760.842 67.4314 Q755.293 73.7508 745.57 73.7508 Q735.808 73.7508 730.258 67.4314 Q724.749 61.0714 724.749 49.9314 Q724.749 38.7509 730.258 32.4315 Q735.808 26.1121 745.57 26.1121 Z" fill="#000000" fill-rule="nonzero" fill-opacity="1" /><path clip-path="url(#clip530)" d="M774.413 27.2059 L781.866 27.2059 L791.184 62.6108 L800.46 27.2059 L809.251 27.2059 L818.568 62.6108 L827.844 27.2059 L835.298 27.2059 L823.429 72.576 L814.638 72.576 L804.876 35.3887 L795.072 72.576 L786.282 72.576 L774.413 27.2059 Z" fill="#000000" fill-rule="nonzero" fill-opacity="1" /><path clip-path="url(#clip530)" d="M842.833 46.5287 L864.667 46.5287 L864.667 53.1722 L842.833 53.1722 L842.833 46.5287 Z" fill="#000000" fill-rule="nonzero" fill-opacity="1" /><path clip-path="url(#clip530)" d="M860.859 12.096 L912.022 12.096 L912.022 18.9825 L890.552 18.9825 L890.552 72.576 L882.329 72.576 L882.329 18.9825 L860.859 18.9825 L860.859 12.096 Z" fill="#000000" fill-rule="nonzero" fill-opacity="1" /><path clip-path="url(#clip530)" d="M974.892 28.5427 L974.892 35.5912 Q971.732 33.9709 968.33 33.1607 Q964.927 32.3505 961.281 32.3505 Q955.731 32.3505 952.936 34.0519 Q950.182 35.7533 950.182 39.156 Q950.182 41.7486 952.166 43.2475 Q954.151 44.7058 960.147 46.0426 L962.699 46.6097 Q970.639 48.3111 973.96 51.4303 Q977.323 54.509 977.323 60.0587 Q977.323 66.3781 972.299 70.0644 Q967.317 73.7508 958.567 73.7508 Q954.921 73.7508 950.951 73.0216 Q947.022 72.3329 942.647 70.9151 L942.647 63.2184 Q946.779 65.3654 950.789 66.4591 Q954.8 67.5124 958.729 67.5124 Q963.995 67.5124 966.831 65.73 Q969.666 63.9071 969.666 60.6258 Q969.666 57.5877 967.6 55.9673 Q965.575 54.3469 958.648 52.8481 L956.055 52.2405 Q949.128 50.7821 946.05 47.7845 Q942.971 44.7463 942.971 39.4801 Q942.971 33.0797 947.508 29.5959 Q952.045 26.1121 960.39 26.1121 Q964.522 26.1121 968.168 26.7198 Q971.813 27.3274 974.892 28.5427 Z" fill="#000000" fill-rule="nonzero" fill-opacity="1" /><path clip-path="url(#clip530)" d="M989.192 27.2059 L996.645 27.2059 L996.645 72.576 L989.192 72.576 L989.192 27.2059 M989.192 9.54393 L996.645 9.54393 L996.645 18.9825 L989.192 18.9825 L989.192 9.54393 Z" fill="#000000" fill-rule="nonzero" fill-opacity="1" /><path clip-path="url(#clip530)" d="M1042.1 49.3643 Q1042.1 41.2625 1038.73 36.8065 Q1035.41 32.3505 1029.38 32.3505 Q1023.38 32.3505 1020.02 36.8065 Q1016.7 41.2625 1016.7 49.3643 Q1016.7 57.4256 1020.02 61.8816 Q1023.38 66.3376 1029.38 66.3376 Q1035.41 66.3376 1038.73 61.8816 Q1042.1 57.4256 1042.1 49.3643 M1049.55 66.9452 Q1049.55 78.5308 1044.41 84.1616 Q1039.26 89.8329 1028.65 89.8329 Q1024.72 89.8329 1021.23 89.2252 Q1017.75 88.6581 1014.47 87.4428 L1014.47 80.1917 Q1017.75 81.9741 1020.95 82.8248 Q1024.15 83.6755 1027.47 83.6755 Q1034.8 83.6755 1038.45 79.8271 Q1042.1 76.0193 1042.1 68.282 L1042.1 64.5957 Q1039.79 68.6061 1036.18 70.5911 Q1032.58 72.576 1027.55 72.576 Q1019.21 72.576 1014.1 66.2161 Q1009 59.8562 1009 49.3643 Q1009 38.832 1014.1 32.472 Q1019.21 26.1121 1027.55 26.1121 Q1032.58 26.1121 1036.18 28.0971 Q1039.79 30.082 1042.1 34.0924 L1042.1 27.2059 L1049.55 27.2059 L1049.55 66.9452 Z" fill="#000000" fill-rule="nonzero" fill-opacity="1" /><path clip-path="url(#clip530)" d="M1100.23 35.9153 Q1103.02 30.8922 1106.91 28.5022 Q1110.8 26.1121 1116.07 26.1121 Q1123.16 26.1121 1127 31.0947 Q1130.85 36.0368 1130.85 45.1919 L1130.85 72.576 L1123.36 72.576 L1123.36 45.4349 Q1123.36 38.913 1121.05 35.7533 Q1118.74 32.5936 1114 32.5936 Q1108.21 32.5936 1104.85 36.4419 Q1101.48 40.2903 1101.48 46.9338 L1101.48 72.576 L1093.99 72.576 L1093.99 45.4349 Q1093.99 38.8725 1091.68 35.7533 Q1089.37 32.5936 1084.55 32.5936 Q1078.84 32.5936 1075.48 36.4824 Q1072.11 40.3308 1072.11 46.9338 L1072.11 72.576 L1064.62 72.576 L1064.62 27.2059 L1072.11 27.2059 L1072.11 34.2544 Q1074.67 30.082 1078.23 28.0971 Q1081.8 26.1121 1086.7 26.1121 Q1091.64 26.1121 1095.08 28.6237 Q1098.57 31.1352 1100.23 35.9153 Z" fill="#000000" fill-rule="nonzero" fill-opacity="1" /><path clip-path="url(#clip530)" d="M1166.34 49.7694 Q1157.3 49.7694 1153.82 51.8354 Q1150.34 53.9013 1150.34 58.8839 Q1150.34 62.8538 1152.93 65.2034 Q1155.56 67.5124 1160.06 67.5124 Q1166.26 67.5124 1169.98 63.1374 Q1173.75 58.7219 1173.75 51.4303 L1173.75 49.7694 L1166.34 49.7694 M1181.2 46.6907 L1181.2 72.576 L1173.75 72.576 L1173.75 65.6895 Q1171.2 69.8214 1167.39 71.8063 Q1163.58 73.7508 1158.07 73.7508 Q1151.11 73.7508 1146.97 69.8619 Q1142.88 65.9325 1142.88 59.3701 Q1142.88 51.7138 1147.99 47.825 Q1153.13 43.9361 1163.3 43.9361 L1173.75 43.9361 L1173.75 43.2069 Q1173.75 38.0623 1170.35 35.2672 Q1166.99 32.4315 1160.87 32.4315 Q1156.98 32.4315 1153.29 33.3632 Q1149.61 34.295 1146.2 36.1584 L1146.2 29.2718 Q1150.3 27.692 1154.14 26.9223 Q1157.99 26.1121 1161.64 26.1121 Q1171.48 26.1121 1176.34 31.2163 Q1181.2 36.3204 1181.2 46.6907 Z" fill="#000000" fill-rule="nonzero" fill-opacity="1" /><path clip-path="url(#clip530)" d="M1252.78 34.0924 L1252.78 9.54393 L1260.24 9.54393 L1260.24 72.576 L1252.78 72.576 L1252.78 65.7705 Q1250.43 69.8214 1246.83 71.8063 Q1243.26 73.7508 1238.24 73.7508 Q1230.02 73.7508 1224.83 67.1883 Q1219.69 60.6258 1219.69 49.9314 Q1219.69 39.2371 1224.83 32.6746 Q1230.02 26.1121 1238.24 26.1121 Q1243.26 26.1121 1246.83 28.0971 Q1250.43 30.0415 1252.78 34.0924 M1227.38 49.9314 Q1227.38 58.1548 1230.75 62.8538 Q1234.15 67.5124 1240.06 67.5124 Q1245.98 67.5124 1249.38 62.8538 Q1252.78 58.1548 1252.78 49.9314 Q1252.78 41.7081 1249.38 37.0496 Q1245.98 32.3505 1240.06 32.3505 Q1234.15 32.3505 1230.75 37.0496 Q1227.38 41.7081 1227.38 49.9314 Z" fill="#000000" fill-rule="nonzero" fill-opacity="1" /><path clip-path="url(#clip530)" d="M1275.59 27.2059 L1283.04 27.2059 L1283.04 72.576 L1275.59 72.576 L1275.59 27.2059 M1275.59 9.54393 L1283.04 9.54393 L1283.04 18.9825 L1275.59 18.9825 L1275.59 9.54393 Z" fill="#000000" fill-rule="nonzero" fill-opacity="1" /><path clip-path="url(#clip530)" d="M1319.26 49.7694 Q1310.23 49.7694 1306.74 51.8354 Q1303.26 53.9013 1303.26 58.8839 Q1303.26 62.8538 1305.85 65.2034 Q1308.48 67.5124 1312.98 67.5124 Q1319.18 67.5124 1322.91 63.1374 Q1326.67 58.7219 1326.67 51.4303 L1326.67 49.7694 L1319.26 49.7694 M1334.13 46.6907 L1334.13 72.576 L1326.67 72.576 L1326.67 65.6895 Q1324.12 69.8214 1320.31 71.8063 Q1316.5 73.7508 1311 73.7508 Q1304.03 73.7508 1299.9 69.8619 Q1295.8 65.9325 1295.8 59.3701 Q1295.8 51.7138 1300.91 47.825 Q1306.05 43.9361 1316.22 43.9361 L1326.67 43.9361 L1326.67 43.2069 Q1326.67 38.0623 1323.27 35.2672 Q1319.91 32.4315 1313.79 32.4315 Q1309.9 32.4315 1306.22 33.3632 Q1302.53 34.295 1299.13 36.1584 L1299.13 29.2718 Q1303.22 27.692 1307.07 26.9223 Q1310.91 26.1121 1314.56 26.1121 Q1324.4 26.1121 1329.27 31.2163 Q1334.13 36.3204 1334.13 46.6907 Z" fill="#000000" fill-rule="nonzero" fill-opacity="1" /><path clip-path="url(#clip530)" d="M1379.33 49.3643 Q1379.33 41.2625 1375.97 36.8065 Q1372.65 32.3505 1366.61 32.3505 Q1360.62 32.3505 1357.26 36.8065 Q1353.94 41.2625 1353.94 49.3643 Q1353.94 57.4256 1357.26 61.8816 Q1360.62 66.3376 1366.61 66.3376 Q1372.65 66.3376 1375.97 61.8816 Q1379.33 57.4256 1379.33 49.3643 M1386.79 66.9452 Q1386.79 78.5308 1381.64 84.1616 Q1376.5 89.8329 1365.89 89.8329 Q1361.96 89.8329 1358.47 89.2252 Q1354.99 88.6581 1351.71 87.4428 L1351.71 80.1917 Q1354.99 81.9741 1358.19 82.8248 Q1361.39 83.6755 1364.71 83.6755 Q1372.04 83.6755 1375.69 79.8271 Q1379.33 76.0193 1379.33 68.282 L1379.33 64.5957 Q1377.03 68.6061 1373.42 70.5911 Q1369.81 72.576 1364.79 72.576 Q1356.45 72.576 1351.34 66.2161 Q1346.24 59.8562 1346.24 49.3643 Q1346.24 38.832 1351.34 32.472 Q1356.45 26.1121 1364.79 26.1121 Q1369.81 26.1121 1373.42 28.0971 Q1377.03 30.082 1379.33 34.0924 L1379.33 27.2059 L1386.79 27.2059 L1386.79 66.9452 Z" fill="#000000" fill-rule="nonzero" fill-opacity="1" /><path clip-path="url(#clip530)" d="M1439.85 45.1919 L1439.85 72.576 L1432.4 72.576 L1432.4 45.4349 Q1432.4 38.994 1429.89 35.7938 Q1427.38 32.5936 1422.35 32.5936 Q1416.32 32.5936 1412.84 36.4419 Q1409.35 40.2903 1409.35 46.9338 L1409.35 72.576 L1401.86 72.576 L1401.86 27.2059 L1409.35 27.2059 L1409.35 34.2544 Q1412.03 30.163 1415.63 28.1376 Q1419.28 26.1121 1424.02 26.1121 Q1431.83 26.1121 1435.84 30.9732 Q1439.85 35.7938 1439.85 45.1919 Z" fill="#000000" fill-rule="nonzero" fill-opacity="1" /><path clip-path="url(#clip530)" d="M1472.3 32.4315 Q1466.31 32.4315 1462.82 37.1306 Q1459.34 41.7891 1459.34 49.9314 Q1459.34 58.0738 1462.78 62.7728 Q1466.27 67.4314 1472.3 67.4314 Q1478.26 67.4314 1481.74 62.7323 Q1485.22 58.0333 1485.22 49.9314 Q1485.22 41.8701 1481.74 37.1711 Q1478.26 32.4315 1472.3 32.4315 M1472.3 26.1121 Q1482.02 26.1121 1487.57 32.4315 Q1493.12 38.7509 1493.12 49.9314 Q1493.12 61.0714 1487.57 67.4314 Q1482.02 73.7508 1472.3 73.7508 Q1462.54 73.7508 1456.99 67.4314 Q1451.48 61.0714 1451.48 49.9314 Q1451.48 38.7509 1456.99 32.4315 Q1462.54 26.1121 1472.3 26.1121 Z" fill="#000000" fill-rule="nonzero" fill-opacity="1" /><path clip-path="url(#clip530)" d="M1534.4 28.5427 L1534.4 35.5912 Q1531.24 33.9709 1527.84 33.1607 Q1524.44 32.3505 1520.79 32.3505 Q1515.24 32.3505 1512.45 34.0519 Q1509.69 35.7533 1509.69 39.156 Q1509.69 41.7486 1511.68 43.2475 Q1513.66 44.7058 1519.66 46.0426 L1522.21 46.6097 Q1530.15 48.3111 1533.47 51.4303 Q1536.83 54.509 1536.83 60.0587 Q1536.83 66.3781 1531.81 70.0644 Q1526.83 73.7508 1518.08 73.7508 Q1514.43 73.7508 1510.46 73.0216 Q1506.53 72.3329 1502.16 70.9151 L1502.16 63.2184 Q1506.29 65.3654 1510.3 66.4591 Q1514.31 67.5124 1518.24 67.5124 Q1523.51 67.5124 1526.34 65.73 Q1529.18 63.9071 1529.18 60.6258 Q1529.18 57.5877 1527.11 55.9673 Q1525.09 54.3469 1518.16 52.8481 L1515.57 52.2405 Q1508.64 50.7821 1505.56 47.7845 Q1502.48 44.7463 1502.48 39.4801 Q1502.48 33.0797 1507.02 29.5959 Q1511.56 26.1121 1519.9 26.1121 Q1524.03 26.1121 1527.68 26.7198 Q1531.32 27.3274 1534.4 28.5427 Z" fill="#000000" fill-rule="nonzero" fill-opacity="1" /><path clip-path="url(#clip530)" d="M1556.08 14.324 L1556.08 27.2059 L1571.43 27.2059 L1571.43 32.9987 L1556.08 32.9987 L1556.08 57.6282 Q1556.08 63.1779 1557.57 64.7578 Q1559.11 66.3376 1563.77 66.3376 L1571.43 66.3376 L1571.43 72.576 L1563.77 72.576 Q1555.14 72.576 1551.86 69.3758 Q1548.58 66.1351 1548.58 57.6282 L1548.58 32.9987 L1543.11 32.9987 L1543.11 27.2059 L1548.58 27.2059 L1548.58 14.324 L1556.08 14.324 Z" fill="#000000" fill-rule="nonzero" fill-opacity="1" /><path clip-path="url(#clip530)" d="M1581.23 27.2059 L1588.69 27.2059 L1588.69 72.576 L1581.23 72.576 L1581.23 27.2059 M1581.23 9.54393 L1588.69 9.54393 L1588.69 18.9825 L1581.23 18.9825 L1581.23 9.54393 Z" fill="#000000" fill-rule="nonzero" fill-opacity="1" /><path clip-path="url(#clip530)" d="M1636.93 28.9478 L1636.93 35.9153 Q1633.77 34.1734 1630.57 33.3227 Q1627.41 32.4315 1624.17 32.4315 Q1616.92 32.4315 1612.91 37.0496 Q1608.9 41.6271 1608.9 49.9314 Q1608.9 58.2358 1612.91 62.8538 Q1616.92 67.4314 1624.17 67.4314 Q1627.41 67.4314 1630.57 66.5807 Q1633.77 65.6895 1636.93 63.9476 L1636.93 70.8341 Q1633.81 72.2924 1630.45 73.0216 Q1627.13 73.7508 1623.36 73.7508 Q1613.11 73.7508 1607.08 67.3098 Q1601.04 60.8689 1601.04 49.9314 Q1601.04 38.832 1607.12 32.472 Q1613.23 26.1121 1623.85 26.1121 Q1627.29 26.1121 1630.57 26.8413 Q1633.85 27.5299 1636.93 28.9478 Z" fill="#000000" fill-rule="nonzero" fill-opacity="1" /><path clip-path="url(#clip530)" d="M1651.8 62.2867 L1660.35 62.2867 L1660.35 69.2543 L1653.7 82.2172 L1648.48 82.2172 L1651.8 69.2543 L1651.8 62.2867 Z" fill="#000000" fill-rule="nonzero" fill-opacity="1" /><path clip-path="url(#clip530)" d="M1702.96 12.096 L1713.98 12.096 L1740.8 62.6918 L1740.8 12.096 L1748.74 12.096 L1748.74 72.576 L1737.72 72.576 L1710.9 21.9802 L1710.9 72.576 L1702.96 72.576 L1702.96 12.096 Z" fill="#000000" fill-rule="nonzero" fill-opacity="1" /><path clip-path="url(#clip530)" d="M1765.67 34.9026 L1817.6 34.9026 L1817.6 41.7081 L1765.67 41.7081 L1765.67 34.9026 M1765.67 51.4303 L1817.6 51.4303 L1817.6 58.3168 L1765.67 58.3168 L1765.67 51.4303 Z" fill="#000000" fill-rule="nonzero" fill-opacity="1" /><path clip-path="url(#clip530)" d="M1836.68 65.6895 L1850.05 65.6895 L1850.05 19.5497 L1835.51 22.4663 L1835.51 15.0127 L1849.97 12.096 L1858.15 12.096 L1858.15 65.6895 L1871.52 65.6895 L1871.52 72.576 L1836.68 72.576 L1836.68 65.6895 Z" fill="#000000" fill-rule="nonzero" fill-opacity="1" /><path clip-path="url(#clip530)" d="M1895.1 65.6895 L1923.65 65.6895 L1923.65 72.576 L1885.25 72.576 L1885.25 65.6895 Q1889.91 60.8689 1897.93 52.7671 Q1905.99 44.6248 1908.06 42.2752 Q1911.99 37.8598 1913.53 34.8216 Q1915.11 31.7429 1915.11 28.7857 Q1915.11 23.9651 1911.7 20.927 Q1908.34 17.8888 1902.91 17.8888 Q1899.07 17.8888 1894.77 19.2256 Q1890.52 20.5624 1885.66 23.2765 L1885.66 15.0127 Q1890.6 13.0277 1894.89 12.015 Q1899.19 11.0023 1902.75 11.0023 Q1912.15 11.0023 1917.74 15.7013 Q1923.33 20.4004 1923.33 28.2591 Q1923.33 31.9859 1921.91 35.3482 Q1920.54 38.6699 1916.85 43.2069 Q1915.84 44.3817 1910.41 50.0125 Q1904.98 55.6027 1895.1 65.6895 Z" fill="#000000" fill-rule="nonzero" fill-opacity="1" /><path clip-path="url(#clip530)" d="M1958.33 43.8551 Q1952.5 43.8551 1949.13 46.9743 Q1945.81 50.0935 1945.81 55.5622 Q1945.81 61.0309 1949.13 64.1501 Q1952.5 67.2693 1958.33 67.2693 Q1964.16 67.2693 1967.53 64.1501 Q1970.89 60.9904 1970.89 55.5622 Q1970.89 50.0935 1967.53 46.9743 Q1964.2 43.8551 1958.33 43.8551 M1950.15 40.3713 Q1944.88 39.075 1941.92 35.4697 Q1939.01 31.8644 1939.01 26.6793 Q1939.01 19.4281 1944.15 15.2152 Q1949.34 11.0023 1958.33 11.0023 Q1967.36 11.0023 1972.51 15.2152 Q1977.65 19.4281 1977.65 26.6793 Q1977.65 31.8644 1974.7 35.4697 Q1971.78 39.075 1966.55 40.3713 Q1972.47 41.7486 1975.75 45.759 Q1979.07 49.7694 1979.07 55.5622 Q1979.07 64.3527 1973.68 69.0517 Q1968.34 73.7508 1958.33 73.7508 Q1948.32 73.7508 1942.94 69.0517 Q1937.59 64.3527 1937.59 55.5622 Q1937.59 49.7694 1940.91 45.759 Q1944.23 41.7486 1950.15 40.3713 M1947.15 27.4489 Q1947.15 32.148 1950.07 34.7811 Q1953.02 37.4142 1958.33 37.4142 Q1963.6 37.4142 1966.55 34.7811 Q1969.55 32.148 1969.55 27.4489 Q1969.55 22.7499 1966.55 20.1168 Q1963.6 17.4837 1958.33 17.4837 Q1953.02 17.4837 1950.07 20.1168 Q1947.15 22.7499 1947.15 27.4489 Z" fill="#000000" fill-rule="nonzero" fill-opacity="1" /><polyline clip-path="url(#clip532)" style="stroke:#009af9; stroke-linecap:round; stroke-linejoin:round; stroke-width:4; stroke-opacity:1; fill:none" points="367.683,288.708 431.925,271.372 496.167,255.845 560.409,241.865 624.651,229.245 688.893,217.847 753.134,207.573 817.376,198.355 881.618,190.145 945.86,182.916 1010.1,176.655 1074.34,171.363 1138.59,167.052 1202.83,163.746 1267.07,161.478 1331.31,160.295 1395.55,160.256 1459.79,161.44 1524.04,163.954 1588.28,167.949 1652.52,173.633 1716.76,181.286 1781,191.262 1845.25,203.982 1909.49,219.917 1973.73,239.566 2037.97,263.433 2102.21,292.01 2166.45,325.767 2230.7,365.151 2294.94,410.584 "/>
<polyline clip-path="url(#clip532)" style="stroke:#e26f46; stroke-linecap:round; stroke-linejoin:round; stroke-width:4; stroke-opacity:1; fill:none" points="367.683,499.346 431.925,477.32 496.167,458.22 560.409,441.457 624.651,426.626 688.893,413.442 753.134,401.706 817.376,391.274 881.618,382.047 945.86,373.956 1010.1,366.959 1074.34,361.033 1138.59,356.172 1202.83,352.385 1267.07,349.696 1331.31,348.14 1395.55,347.771 1459.79,348.66 1524.04,350.91 1588.28,354.667 1652.52,360.137 1716.76,367.595 1781,377.394 1845.25,389.953 1909.49,405.741 1973.73,425.255 2037.97,448.997 2102.21,477.458 2166.45,511.108 2230.7,550.393 2294.94,595.734 "/>
<polyline clip-path="url(#clip532)" style="stroke:#3da44d; stroke-linecap:round; stroke-linejoin:round; stroke-width:4; stroke-opacity:1; fill:none" points="367.683,700.777 431.925,664.354 496.167,634.276 560.409,608.951 624.651,587.314 688.893,568.631 753.134,552.387 817.376,538.215 881.618,525.85 945.86,515.101 1010.1,505.832 1074.34,497.948 1138.59,491.389 1202.83,486.12 1267.07,482.128 1331.31,479.422 1395.55,478.032 1459.79,478.01 1524.04,479.444 1588.28,482.468 1652.52,487.275 1716.76,494.133 1781,503.386 1845.25,515.447 1909.49,530.778 1973.73,549.873 2037.97,573.23 2102.21,601.334 2166.45,634.655 2230.7,673.633 2294.94,718.689 "/>
<polyline clip-path="url(#clip532)" style="stroke:#c271d2; stroke-linecap:round; stroke-linejoin:round; stroke-width:4; stroke-opacity:1; fill:none" points="367.683,974.16 431.925,906 496.167,851.646 560.409,807.342 624.651,770.59 688.893,739.676 753.134,713.395 817.376,690.886 881.618,671.521 945.86,654.836 1010.1,640.492 1074.34,628.234 1138.59,617.879 1202.83,609.293 1267.07,602.387 1331.31,597.106 1395.55,593.429 1459.79,591.367 1524.04,590.974 1588.28,592.354 1652.52,595.677 1716.76,601.19 1781,609.219 1845.25,620.163 1909.49,634.473 1973.73,652.628 2037.97,675.12 2102.21,702.425 2166.45,735.005 2230.7,773.296 2294.94,817.712 "/>
<polyline clip-path="url(#clip532)" style="stroke:#ac8d18; stroke-linecap:round; stroke-linejoin:round; stroke-width:4; stroke-opacity:1; fill:none" points="367.683,1386.4 431.925,1260.79 496.167,1162.22 560.409,1083.17 624.651,1018.65 688.893,965.192 753.134,920.369 817.376,882.427 881.618,850.08 945.86,822.374 1010.1,798.594 1074.34,778.195 1138.59,760.768 1202.83,745.999 1267.07,733.656 1331.31,723.569 1395.55,715.622 1459.79,709.75 1524.04,705.941 1588.28,704.248 1652.52,704.794 1716.76,707.789 1781,713.529 1845.25,722.382 1909.49,734.776 1973.73,751.173 2037.97,772.044 2102.21,797.852 2166.45,829.045 2230.7,866.047 2294.94,909.262 "/>
<path clip-path="url(#clip530)" d="M1909.28 1379.86 L2284.66 1379.86 L2284.66 1068.82 L1909.28 1068.82  Z" fill="#ffffff" fill-rule="evenodd" fill-opacity="1"/>
<polyline clip-path="url(#clip530)" style="stroke:#000000; stroke-linecap:round; stroke-linejoin:round; stroke-width:4; stroke-opacity:1; fill:none" points="1909.28,1379.86 2284.66,1379.86 2284.66,1068.82 1909.28,1068.82 1909.28,1379.86 "/>
<polyline clip-path="url(#clip530)" style="stroke:#009af9; stroke-linecap:round; stroke-linejoin:round; stroke-width:4; stroke-opacity:1; fill:none" points="1931.98,1120.66 2068.17,1120.66 "/>
<path clip-path="url(#clip530)" d="M2112.59 1122.29 L2112.59 1137.94 L2108.33 1137.94 L2108.33 1122.43 Q2108.33 1118.75 2106.89 1116.92 Q2105.46 1115.09 2102.59 1115.09 Q2099.14 1115.09 2097.15 1117.29 Q2095.16 1119.49 2095.16 1123.28 L2095.16 1137.94 L2090.87 1137.94 L2090.87 1112.01 L2095.16 1112.01 L2095.16 1116.04 Q2096.68 1113.7 2098.74 1112.54 Q2100.83 1111.39 2103.54 1111.39 Q2108 1111.39 2110.29 1114.16 Q2112.59 1116.92 2112.59 1122.29 Z" fill="#000000" fill-rule="nonzero" fill-opacity="1" /><path clip-path="url(#clip530)" d="M2134.21 1101.92 L2134.21 1105.46 L2130.13 1105.46 Q2127.84 1105.46 2126.94 1106.39 Q2126.06 1107.31 2126.06 1109.72 L2126.06 1112.01 L2133.07 1112.01 L2133.07 1115.32 L2126.06 1115.32 L2126.06 1137.94 L2121.78 1137.94 L2121.78 1115.32 L2117.7 1115.32 L2117.7 1112.01 L2121.78 1112.01 L2121.78 1110.2 Q2121.78 1105.88 2123.79 1103.91 Q2125.8 1101.92 2130.18 1101.92 L2134.21 1101.92 Z" fill="#000000" fill-rule="nonzero" fill-opacity="1" /><path clip-path="url(#clip530)" d="M2137.77 1112.01 L2142.03 1112.01 L2142.03 1137.94 L2137.77 1137.94 L2137.77 1112.01 M2137.77 1101.92 L2142.03 1101.92 L2142.03 1107.31 L2137.77 1107.31 L2137.77 1101.92 Z" fill="#000000" fill-rule="nonzero" fill-opacity="1" /><path clip-path="url(#clip530)" d="M2155.16 1104.65 L2155.16 1112.01 L2163.93 1112.01 L2163.93 1115.32 L2155.16 1115.32 L2155.16 1129.39 Q2155.16 1132.57 2156.01 1133.47 Q2156.89 1134.37 2159.55 1134.37 L2163.93 1134.37 L2163.93 1137.94 L2159.55 1137.94 Q2154.62 1137.94 2152.75 1136.11 Q2150.87 1134.26 2150.87 1129.39 L2150.87 1115.32 L2147.75 1115.32 L2147.75 1112.01 L2150.87 1112.01 L2150.87 1104.65 L2155.16 1104.65 Z" fill="#000000" fill-rule="nonzero" fill-opacity="1" /><path clip-path="url(#clip530)" d="M2170.09 1116.41 L2199.76 1116.41 L2199.76 1120.3 L2170.09 1120.3 L2170.09 1116.41 M2170.09 1125.85 L2199.76 1125.85 L2199.76 1129.79 L2170.09 1129.79 L2170.09 1125.85 Z" fill="#000000" fill-rule="nonzero" fill-opacity="1" /><path clip-path="url(#clip530)" d="M2222.7 1107.45 L2210.9 1125.9 L2222.7 1125.9 L2222.7 1107.45 M2221.47 1103.38 L2227.35 1103.38 L2227.35 1125.9 L2232.29 1125.9 L2232.29 1129.79 L2227.35 1129.79 L2227.35 1137.94 L2222.7 1137.94 L2222.7 1129.79 L2207.1 1129.79 L2207.1 1125.27 L2221.47 1103.38 Z" fill="#000000" fill-rule="nonzero" fill-opacity="1" /><polyline clip-path="url(#clip530)" style="stroke:#e26f46; stroke-linecap:round; stroke-linejoin:round; stroke-width:4; stroke-opacity:1; fill:none" points="1931.98,1172.5 2068.17,1172.5 "/>
<path clip-path="url(#clip530)" d="M2112.59 1174.13 L2112.59 1189.78 L2108.33 1189.78 L2108.33 1174.27 Q2108.33 1170.59 2106.89 1168.76 Q2105.46 1166.93 2102.59 1166.93 Q2099.14 1166.93 2097.15 1169.13 Q2095.16 1171.33 2095.16 1175.12 L2095.16 1189.78 L2090.87 1189.78 L2090.87 1163.85 L2095.16 1163.85 L2095.16 1167.88 Q2096.68 1165.54 2098.74 1164.38 Q2100.83 1163.23 2103.54 1163.23 Q2108 1163.23 2110.29 1166 Q2112.59 1168.76 2112.59 1174.13 Z" fill="#000000" fill-rule="nonzero" fill-opacity="1" /><path clip-path="url(#clip530)" d="M2134.21 1153.76 L2134.21 1157.3 L2130.13 1157.3 Q2127.84 1157.3 2126.94 1158.23 Q2126.06 1159.15 2126.06 1161.56 L2126.06 1163.85 L2133.07 1163.85 L2133.07 1167.16 L2126.06 1167.16 L2126.06 1189.78 L2121.78 1189.78 L2121.78 1167.16 L2117.7 1167.16 L2117.7 1163.85 L2121.78 1163.85 L2121.78 1162.04 Q2121.78 1157.72 2123.79 1155.75 Q2125.8 1153.76 2130.18 1153.76 L2134.21 1153.76 Z" fill="#000000" fill-rule="nonzero" fill-opacity="1" /><path clip-path="url(#clip530)" d="M2137.77 1163.85 L2142.03 1163.85 L2142.03 1189.78 L2137.77 1189.78 L2137.77 1163.85 M2137.77 1153.76 L2142.03 1153.76 L2142.03 1159.15 L2137.77 1159.15 L2137.77 1153.76 Z" fill="#000000" fill-rule="nonzero" fill-opacity="1" /><path clip-path="url(#clip530)" d="M2155.16 1156.49 L2155.16 1163.85 L2163.93 1163.85 L2163.93 1167.16 L2155.16 1167.16 L2155.16 1181.23 Q2155.16 1184.41 2156.01 1185.31 Q2156.89 1186.21 2159.55 1186.21 L2163.93 1186.21 L2163.93 1189.78 L2159.55 1189.78 Q2154.62 1189.78 2152.75 1187.95 Q2150.87 1186.1 2150.87 1181.23 L2150.87 1167.16 L2147.75 1167.16 L2147.75 1163.85 L2150.87 1163.85 L2150.87 1156.49 L2155.16 1156.49 Z" fill="#000000" fill-rule="nonzero" fill-opacity="1" /><path clip-path="url(#clip530)" d="M2170.09 1168.25 L2199.76 1168.25 L2199.76 1172.14 L2170.09 1172.14 L2170.09 1168.25 M2170.09 1177.69 L2199.76 1177.69 L2199.76 1181.63 L2170.09 1181.63 L2170.09 1177.69 Z" fill="#000000" fill-rule="nonzero" fill-opacity="1" /><path clip-path="url(#clip530)" d="M2220.43 1170.63 Q2217.29 1170.63 2215.43 1172.79 Q2213.6 1174.94 2213.6 1178.69 Q2213.6 1182.42 2215.43 1184.59 Q2217.29 1186.74 2220.43 1186.74 Q2223.58 1186.74 2225.41 1184.59 Q2227.26 1182.42 2227.26 1178.69 Q2227.26 1174.94 2225.41 1172.79 Q2223.58 1170.63 2220.43 1170.63 M2229.72 1155.98 L2229.72 1160.24 Q2227.96 1159.41 2226.15 1158.97 Q2224.37 1158.53 2222.61 1158.53 Q2217.98 1158.53 2215.53 1161.65 Q2213.1 1164.78 2212.75 1171.1 Q2214.11 1169.08 2216.17 1168.02 Q2218.23 1166.93 2220.71 1166.93 Q2225.92 1166.93 2228.93 1170.1 Q2231.96 1173.25 2231.96 1178.69 Q2231.96 1184.01 2228.81 1187.23 Q2225.66 1190.45 2220.43 1190.45 Q2214.44 1190.45 2211.27 1185.86 Q2208.1 1181.26 2208.1 1172.53 Q2208.1 1164.34 2211.98 1159.48 Q2215.87 1154.59 2222.42 1154.59 Q2224.18 1154.59 2225.97 1154.94 Q2227.77 1155.29 2229.72 1155.98 Z" fill="#000000" fill-rule="nonzero" fill-opacity="1" /><polyline clip-path="url(#clip530)" style="stroke:#3da44d; stroke-linecap:round; stroke-linejoin:round; stroke-width:4; stroke-opacity:1; fill:none" points="1931.98,1224.34 2068.17,1224.34 "/>
<path clip-path="url(#clip530)" d="M2112.59 1225.97 L2112.59 1241.62 L2108.33 1241.62 L2108.33 1226.11 Q2108.33 1222.43 2106.89 1220.6 Q2105.46 1218.77 2102.59 1218.77 Q2099.14 1218.77 2097.15 1220.97 Q2095.16 1223.17 2095.16 1226.96 L2095.16 1241.62 L2090.87 1241.62 L2090.87 1215.69 L2095.16 1215.69 L2095.16 1219.72 Q2096.68 1217.38 2098.74 1216.22 Q2100.83 1215.07 2103.54 1215.07 Q2108 1215.07 2110.29 1217.84 Q2112.59 1220.6 2112.59 1225.97 Z" fill="#000000" fill-rule="nonzero" fill-opacity="1" /><path clip-path="url(#clip530)" d="M2134.21 1205.6 L2134.21 1209.14 L2130.13 1209.14 Q2127.84 1209.14 2126.94 1210.07 Q2126.06 1210.99 2126.06 1213.4 L2126.06 1215.69 L2133.07 1215.69 L2133.07 1219 L2126.06 1219 L2126.06 1241.62 L2121.78 1241.62 L2121.78 1219 L2117.7 1219 L2117.7 1215.69 L2121.78 1215.69 L2121.78 1213.88 Q2121.78 1209.56 2123.79 1207.59 Q2125.8 1205.6 2130.18 1205.6 L2134.21 1205.6 Z" fill="#000000" fill-rule="nonzero" fill-opacity="1" /><path clip-path="url(#clip530)" d="M2137.77 1215.69 L2142.03 1215.69 L2142.03 1241.62 L2137.77 1241.62 L2137.77 1215.69 M2137.77 1205.6 L2142.03 1205.6 L2142.03 1210.99 L2137.77 1210.99 L2137.77 1205.6 Z" fill="#000000" fill-rule="nonzero" fill-opacity="1" /><path clip-path="url(#clip530)" d="M2155.16 1208.33 L2155.16 1215.69 L2163.93 1215.69 L2163.93 1219 L2155.16 1219 L2155.16 1233.07 Q2155.16 1236.25 2156.01 1237.15 Q2156.89 1238.05 2159.55 1238.05 L2163.93 1238.05 L2163.93 1241.62 L2159.55 1241.62 Q2154.62 1241.62 2152.75 1239.79 Q2150.87 1237.94 2150.87 1233.07 L2150.87 1219 L2147.75 1219 L2147.75 1215.69 L2150.87 1215.69 L2150.87 1208.33 L2155.16 1208.33 Z" fill="#000000" fill-rule="nonzero" fill-opacity="1" /><path clip-path="url(#clip530)" d="M2170.09 1220.09 L2199.76 1220.09 L2199.76 1223.98 L2170.09 1223.98 L2170.09 1220.09 M2170.09 1229.53 L2199.76 1229.53 L2199.76 1233.47 L2170.09 1233.47 L2170.09 1229.53 Z" fill="#000000" fill-rule="nonzero" fill-opacity="1" /><path clip-path="url(#clip530)" d="M2219.85 1225.2 Q2216.52 1225.2 2214.6 1226.99 Q2212.7 1228.77 2212.7 1231.89 Q2212.7 1235.02 2214.6 1236.8 Q2216.52 1238.58 2219.85 1238.58 Q2223.19 1238.58 2225.11 1236.8 Q2227.03 1235 2227.03 1231.89 Q2227.03 1228.77 2225.11 1226.99 Q2223.21 1225.2 2219.85 1225.2 M2215.18 1223.21 Q2212.17 1222.47 2210.48 1220.41 Q2208.81 1218.35 2208.81 1215.39 Q2208.81 1211.25 2211.75 1208.84 Q2214.72 1206.43 2219.85 1206.43 Q2225.02 1206.43 2227.96 1208.84 Q2230.9 1211.25 2230.9 1215.39 Q2230.9 1218.35 2229.21 1220.41 Q2227.54 1222.47 2224.55 1223.21 Q2227.93 1224 2229.81 1226.29 Q2231.71 1228.58 2231.71 1231.89 Q2231.71 1236.92 2228.63 1239.6 Q2225.57 1242.29 2219.85 1242.29 Q2214.14 1242.29 2211.06 1239.6 Q2208 1236.92 2208 1231.89 Q2208 1228.58 2209.9 1226.29 Q2211.8 1224 2215.18 1223.21 M2213.47 1215.83 Q2213.47 1218.51 2215.13 1220.02 Q2216.82 1221.52 2219.85 1221.52 Q2222.86 1221.52 2224.55 1220.02 Q2226.27 1218.51 2226.27 1215.83 Q2226.27 1213.14 2224.55 1211.64 Q2222.86 1210.13 2219.85 1210.13 Q2216.82 1210.13 2215.13 1211.64 Q2213.47 1213.14 2213.47 1215.83 Z" fill="#000000" fill-rule="nonzero" fill-opacity="1" /><polyline clip-path="url(#clip530)" style="stroke:#c271d2; stroke-linecap:round; stroke-linejoin:round; stroke-width:4; stroke-opacity:1; fill:none" points="1931.98,1276.18 2068.17,1276.18 "/>
<path clip-path="url(#clip530)" d="M2112.59 1277.81 L2112.59 1293.46 L2108.33 1293.46 L2108.33 1277.95 Q2108.33 1274.27 2106.89 1272.44 Q2105.46 1270.61 2102.59 1270.61 Q2099.14 1270.61 2097.15 1272.81 Q2095.16 1275.01 2095.16 1278.8 L2095.16 1293.46 L2090.87 1293.46 L2090.87 1267.53 L2095.16 1267.53 L2095.16 1271.56 Q2096.68 1269.22 2098.74 1268.06 Q2100.83 1266.91 2103.54 1266.91 Q2108 1266.91 2110.29 1269.68 Q2112.59 1272.44 2112.59 1277.81 Z" fill="#000000" fill-rule="nonzero" fill-opacity="1" /><path clip-path="url(#clip530)" d="M2134.21 1257.44 L2134.21 1260.98 L2130.13 1260.98 Q2127.84 1260.98 2126.94 1261.91 Q2126.06 1262.83 2126.06 1265.24 L2126.06 1267.53 L2133.07 1267.53 L2133.07 1270.84 L2126.06 1270.84 L2126.06 1293.46 L2121.78 1293.46 L2121.78 1270.84 L2117.7 1270.84 L2117.7 1267.53 L2121.78 1267.53 L2121.78 1265.72 Q2121.78 1261.4 2123.79 1259.43 Q2125.8 1257.44 2130.18 1257.44 L2134.21 1257.44 Z" fill="#000000" fill-rule="nonzero" fill-opacity="1" /><path clip-path="url(#clip530)" d="M2137.77 1267.53 L2142.03 1267.53 L2142.03 1293.46 L2137.77 1293.46 L2137.77 1267.53 M2137.77 1257.44 L2142.03 1257.44 L2142.03 1262.83 L2137.77 1262.83 L2137.77 1257.44 Z" fill="#000000" fill-rule="nonzero" fill-opacity="1" /><path clip-path="url(#clip530)" d="M2155.16 1260.17 L2155.16 1267.53 L2163.93 1267.53 L2163.93 1270.84 L2155.16 1270.84 L2155.16 1284.91 Q2155.16 1288.09 2156.01 1288.99 Q2156.89 1289.89 2159.55 1289.89 L2163.93 1289.89 L2163.93 1293.46 L2159.55 1293.46 Q2154.62 1293.46 2152.75 1291.63 Q2150.87 1289.78 2150.87 1284.91 L2150.87 1270.84 L2147.75 1270.84 L2147.75 1267.53 L2150.87 1267.53 L2150.87 1260.17 L2155.16 1260.17 Z" fill="#000000" fill-rule="nonzero" fill-opacity="1" /><path clip-path="url(#clip530)" d="M2170.09 1271.93 L2199.76 1271.93 L2199.76 1275.82 L2170.09 1275.82 L2170.09 1271.93 M2170.09 1281.37 L2199.76 1281.37 L2199.76 1285.31 L2170.09 1285.31 L2170.09 1281.37 Z" fill="#000000" fill-rule="nonzero" fill-opacity="1" /><path clip-path="url(#clip530)" d="M2210.66 1289.52 L2218.3 1289.52 L2218.3 1263.16 L2209.99 1264.82 L2209.99 1260.56 L2218.26 1258.9 L2222.93 1258.9 L2222.93 1289.52 L2230.57 1289.52 L2230.57 1293.46 L2210.66 1293.46 L2210.66 1289.52 Z" fill="#000000" fill-rule="nonzero" fill-opacity="1" /><path clip-path="url(#clip530)" d="M2250.02 1261.97 Q2246.41 1261.97 2244.58 1265.54 Q2242.77 1269.08 2242.77 1276.21 Q2242.77 1283.32 2244.58 1286.88 Q2246.41 1290.42 2250.02 1290.42 Q2253.65 1290.42 2255.46 1286.88 Q2257.28 1283.32 2257.28 1276.21 Q2257.28 1269.08 2255.46 1265.54 Q2253.65 1261.97 2250.02 1261.97 M2250.02 1258.27 Q2255.83 1258.27 2258.88 1262.88 Q2261.96 1267.46 2261.96 1276.21 Q2261.96 1284.94 2258.88 1289.54 Q2255.83 1294.13 2250.02 1294.13 Q2244.21 1294.13 2241.13 1289.54 Q2238.07 1284.94 2238.07 1276.21 Q2238.07 1267.46 2241.13 1262.88 Q2244.21 1258.27 2250.02 1258.27 Z" fill="#000000" fill-rule="nonzero" fill-opacity="1" /><polyline clip-path="url(#clip530)" style="stroke:#ac8d18; stroke-linecap:round; stroke-linejoin:round; stroke-width:4; stroke-opacity:1; fill:none" points="1931.98,1328.02 2068.17,1328.02 "/>
<path clip-path="url(#clip530)" d="M2112.59 1329.65 L2112.59 1345.3 L2108.33 1345.3 L2108.33 1329.79 Q2108.33 1326.11 2106.89 1324.28 Q2105.46 1322.45 2102.59 1322.45 Q2099.14 1322.45 2097.15 1324.65 Q2095.16 1326.85 2095.16 1330.64 L2095.16 1345.3 L2090.87 1345.3 L2090.87 1319.37 L2095.16 1319.37 L2095.16 1323.4 Q2096.68 1321.06 2098.74 1319.9 Q2100.83 1318.75 2103.54 1318.75 Q2108 1318.75 2110.29 1321.52 Q2112.59 1324.28 2112.59 1329.65 Z" fill="#000000" fill-rule="nonzero" fill-opacity="1" /><path clip-path="url(#clip530)" d="M2134.21 1309.28 L2134.21 1312.82 L2130.13 1312.82 Q2127.84 1312.82 2126.94 1313.75 Q2126.06 1314.67 2126.06 1317.08 L2126.06 1319.37 L2133.07 1319.37 L2133.07 1322.68 L2126.06 1322.68 L2126.06 1345.3 L2121.78 1345.3 L2121.78 1322.68 L2117.7 1322.68 L2117.7 1319.37 L2121.78 1319.37 L2121.78 1317.56 Q2121.78 1313.24 2123.79 1311.27 Q2125.8 1309.28 2130.18 1309.28 L2134.21 1309.28 Z" fill="#000000" fill-rule="nonzero" fill-opacity="1" /><path clip-path="url(#clip530)" d="M2137.77 1319.37 L2142.03 1319.37 L2142.03 1345.3 L2137.77 1345.3 L2137.77 1319.37 M2137.77 1309.28 L2142.03 1309.28 L2142.03 1314.67 L2137.77 1314.67 L2137.77 1309.28 Z" fill="#000000" fill-rule="nonzero" fill-opacity="1" /><path clip-path="url(#clip530)" d="M2155.16 1312.01 L2155.16 1319.37 L2163.93 1319.37 L2163.93 1322.68 L2155.16 1322.68 L2155.16 1336.75 Q2155.16 1339.93 2156.01 1340.83 Q2156.89 1341.73 2159.55 1341.73 L2163.93 1341.73 L2163.93 1345.3 L2159.55 1345.3 Q2154.62 1345.3 2152.75 1343.47 Q2150.87 1341.62 2150.87 1336.75 L2150.87 1322.68 L2147.75 1322.68 L2147.75 1319.37 L2150.87 1319.37 L2150.87 1312.01 L2155.16 1312.01 Z" fill="#000000" fill-rule="nonzero" fill-opacity="1" /><path clip-path="url(#clip530)" d="M2170.09 1323.77 L2199.76 1323.77 L2199.76 1327.66 L2170.09 1327.66 L2170.09 1323.77 M2170.09 1333.21 L2199.76 1333.21 L2199.76 1337.15 L2170.09 1337.15 L2170.09 1333.21 Z" fill="#000000" fill-rule="nonzero" fill-opacity="1" /><path clip-path="url(#clip530)" d="M2210.66 1341.36 L2218.3 1341.36 L2218.3 1315 L2209.99 1316.66 L2209.99 1312.4 L2218.26 1310.74 L2222.93 1310.74 L2222.93 1341.36 L2230.57 1341.36 L2230.57 1345.3 L2210.66 1345.3 L2210.66 1341.36 Z" fill="#000000" fill-rule="nonzero" fill-opacity="1" /><path clip-path="url(#clip530)" d="M2244.04 1341.36 L2260.36 1341.36 L2260.36 1345.3 L2238.42 1345.3 L2238.42 1341.36 Q2241.08 1338.61 2245.66 1333.98 Q2250.27 1329.32 2251.45 1327.98 Q2253.7 1325.46 2254.58 1323.72 Q2255.48 1321.96 2255.48 1320.27 Q2255.48 1317.52 2253.53 1315.78 Q2251.61 1314.05 2248.51 1314.05 Q2246.31 1314.05 2243.86 1314.81 Q2241.43 1315.57 2238.65 1317.13 L2238.65 1312.4 Q2241.47 1311.27 2243.93 1310.69 Q2246.38 1310.11 2248.42 1310.11 Q2253.79 1310.11 2256.98 1312.8 Q2260.18 1315.48 2260.18 1319.97 Q2260.18 1322.1 2259.37 1324.02 Q2258.58 1325.92 2256.47 1328.51 Q2255.9 1329.19 2252.79 1332.4 Q2249.69 1335.6 2244.04 1341.36 Z" fill="#000000" fill-rule="nonzero" fill-opacity="1" /></svg>
