<?xml version="1.0" encoding="utf-8"?>
<svg xmlns="http://www.w3.org/2000/svg" xmlns:xlink="http://www.w3.org/1999/xlink" width="600" height="400" viewBox="0 0 2400 1600">
<defs>
  <clipPath id="clip530">
    <rect x="0" y="0" width="2400" height="1600"/>
  </clipPath>
</defs>
<path clip-path="url(#clip530)" d="M0 1600 L2400 1600 L2400 0 L0 0  Z" fill="#ffffff" fill-rule="evenodd" fill-opacity="1"/>
<defs>
  <clipPath id="clip531">
    <rect x="480" y="0" width="1681" height="1600"/>
  </clipPath>
</defs>
<path clip-path="url(#clip530)" d="M279.704 1423.18 L2352.76 1423.18 L2352.76 123.472 L279.704 123.472  Z" fill="#ffffff" fill-rule="evenodd" fill-opacity="1"/>
<defs>
  <clipPath id="clip532">
    <rect x="279" y="123" width="2074" height="1301"/>
  </clipPath>
</defs>
<polyline clip-path="url(#clip532)" style="stroke:#000000; stroke-linecap:round; stroke-linejoin:round; stroke-width:2; stroke-opacity:0.1; fill:none" points="631.732,1423.18 631.732,123.472 "/>
<polyline clip-path="url(#clip532)" style="stroke:#000000; stroke-linecap:round; stroke-linejoin:round; stroke-width:2; stroke-opacity:0.1; fill:none" points="1120.66,1423.18 1120.66,123.472 "/>
<polyline clip-path="url(#clip532)" style="stroke:#000000; stroke-linecap:round; stroke-linejoin:round; stroke-width:2; stroke-opacity:0.1; fill:none" points="1609.59,1423.18 1609.59,123.472 "/>
<polyline clip-path="url(#clip532)" style="stroke:#000000; stroke-linecap:round; stroke-linejoin:round; stroke-width:2; stroke-opacity:0.1; fill:none" points="2098.51,1423.18 2098.51,123.472 "/>
<polyline clip-path="url(#clip532)" style="stroke:#000000; stroke-linecap:round; stroke-linejoin:round; stroke-width:2; stroke-opacity:0.1; fill:none" points="279.704,1305.28 2352.76,1305.28 "/>
<polyline clip-path="url(#clip532)" style="stroke:#000000; stroke-linecap:round; stroke-linejoin:round; stroke-width:2; stroke-opacity:0.1; fill:none" points="279.704,1124.74 2352.76,1124.74 "/>
<polyline clip-path="url(#clip532)" style="stroke:#000000; stroke-linecap:round; stroke-linejoin:round; stroke-width:2; stroke-opacity:0.1; fill:none" points="279.704,944.21 2352.76,944.21 "/>
<polyline clip-path="url(#clip532)" style="stroke:#000000; stroke-linecap:round; stroke-linejoin:round; stroke-width:2; stroke-opacity:0.1; fill:none" points="279.704,763.677 2352.76,763.677 "/>
<polyline clip-path="url(#clip532)" style="stroke:#000000; stroke-linecap:round; stroke-linejoin:round; stroke-width:2; stroke-opacity:0.1; fill:none" points="279.704,583.144 2352.76,583.144 "/>
<polyline clip-path="url(#clip532)" style="stroke:#000000; stroke-linecap:round; stroke-linejoin:round; stroke-width:2; stroke-opacity:0.1; fill:none" points="279.704,402.611 2352.76,402.611 "/>
<polyline clip-path="url(#clip532)" style="stroke:#000000; stroke-linecap:round; stroke-linejoin:round; stroke-width:2; stroke-opacity:0.1; fill:none" points="279.704,222.078 2352.76,222.078 "/>
<polyline clip-path="url(#clip530)" style="stroke:#000000; stroke-linecap:round; stroke-linejoin:round; stroke-width:4; stroke-opacity:1; fill:none" points="279.704,1423.18 2352.76,1423.18 "/>
<polyline clip-path="url(#clip530)" style="stroke:#000000; stroke-linecap:round; stroke-linejoin:round; stroke-width:4; stroke-opacity:1; fill:none" points="631.732,1423.18 631.732,1404.28 "/>
<polyline clip-path="url(#clip530)" style="stroke:#000000; stroke-linecap:round; stroke-linejoin:round; stroke-width:4; stroke-opacity:1; fill:none" points="1120.66,1423.18 1120.66,1404.28 "/>
<polyline clip-path="url(#clip530)" style="stroke:#000000; stroke-linecap:round; stroke-linejoin:round; stroke-width:4; stroke-opacity:1; fill:none" points="1609.59,1423.18 1609.59,1404.28 "/>
<polyline clip-path="url(#clip530)" style="stroke:#000000; stroke-linecap:round; stroke-linejoin:round; stroke-width:4; stroke-opacity:1; fill:none" points="2098.51,1423.18 2098.51,1404.28 "/>
<path clip-path="url(#clip530)" d="M606.431 1451.02 L624.787 1451.02 L624.787 1454.96 L610.713 1454.96 L610.713 1463.43 Q611.732 1463.08 612.75 1462.92 Q613.769 1462.73 614.787 1462.73 Q620.574 1462.73 623.954 1465.9 Q627.333 1469.08 627.333 1474.49 Q627.333 1480.07 623.861 1483.17 Q620.389 1486.25 614.07 1486.25 Q611.894 1486.25 609.625 1485.88 Q607.38 1485.51 604.972 1484.77 L604.972 1480.07 Q607.056 1481.2 609.278 1481.76 Q611.5 1482.32 613.977 1482.32 Q617.982 1482.32 620.32 1480.21 Q622.658 1478.1 622.658 1474.49 Q622.658 1470.88 620.32 1468.77 Q617.982 1466.67 613.977 1466.67 Q612.102 1466.67 610.227 1467.08 Q608.375 1467.5 606.431 1468.38 L606.431 1451.02 Z" fill="#000000" fill-rule="nonzero" fill-opacity="1" /><path clip-path="url(#clip530)" d="M646.546 1454.1 Q642.935 1454.1 641.107 1457.66 Q639.301 1461.2 639.301 1468.33 Q639.301 1475.44 641.107 1479.01 Q642.935 1482.55 646.546 1482.55 Q650.181 1482.55 651.986 1479.01 Q653.815 1475.44 653.815 1468.33 Q653.815 1461.2 651.986 1457.66 Q650.181 1454.1 646.546 1454.1 M646.546 1450.39 Q652.356 1450.39 655.412 1455 Q658.491 1459.58 658.491 1468.33 Q658.491 1477.06 655.412 1481.67 Q652.356 1486.25 646.546 1486.25 Q640.736 1486.25 637.658 1481.67 Q634.602 1477.06 634.602 1468.33 Q634.602 1459.58 637.658 1455 Q640.736 1450.39 646.546 1450.39 Z" fill="#000000" fill-rule="nonzero" fill-opacity="1" /><path clip-path="url(#clip530)" d="M1080.27 1481.64 L1087.9 1481.64 L1087.9 1455.28 L1079.59 1456.95 L1079.59 1452.69 L1087.86 1451.02 L1092.53 1451.02 L1092.53 1481.64 L1100.17 1481.64 L1100.17 1485.58 L1080.27 1485.58 L1080.27 1481.64 Z" fill="#000000" fill-rule="nonzero" fill-opacity="1" /><path clip-path="url(#clip530)" d="M1119.62 1454.1 Q1116.01 1454.1 1114.18 1457.66 Q1112.37 1461.2 1112.37 1468.33 Q1112.37 1475.44 1114.18 1479.01 Q1116.01 1482.55 1119.62 1482.55 Q1123.25 1482.55 1125.06 1479.01 Q1126.89 1475.44 1126.89 1468.33 Q1126.89 1461.2 1125.06 1457.66 Q1123.25 1454.1 1119.62 1454.1 M1119.62 1450.39 Q1125.43 1450.39 1128.48 1455 Q1131.56 1459.58 1131.56 1468.33 Q1131.56 1477.06 1128.48 1481.67 Q1125.43 1486.25 1119.62 1486.25 Q1113.81 1486.25 1110.73 1481.67 Q1107.67 1477.06 1107.67 1468.33 Q1107.67 1459.58 1110.73 1455 Q1113.81 1450.39 1119.62 1450.39 Z" fill="#000000" fill-rule="nonzero" fill-opacity="1" /><path clip-path="url(#clip530)" d="M1149.78 1454.1 Q1146.17 1454.1 1144.34 1457.66 Q1142.53 1461.2 1142.53 1468.33 Q1142.53 1475.44 1144.34 1479.01 Q1146.17 1482.55 1149.78 1482.55 Q1153.41 1482.55 1155.22 1479.01 Q1157.05 1475.44 1157.05 1468.33 Q1157.05 1461.2 1155.22 1457.66 Q1153.41 1454.1 1149.78 1454.1 M1149.78 1450.39 Q1155.59 1450.39 1158.64 1455 Q1161.72 1459.58 1161.72 1468.33 Q1161.72 1477.06 1158.64 1481.67 Q1155.59 1486.25 1149.78 1486.25 Q1143.97 1486.25 1140.89 1481.67 Q1137.83 1477.06 1137.83 1468.33 Q1137.83 1459.58 1140.89 1455 Q1143.97 1450.39 1149.78 1450.39 Z" fill="#000000" fill-rule="nonzero" fill-opacity="1" /><path clip-path="url(#clip530)" d="M1569.19 1481.64 L1576.83 1481.64 L1576.83 1455.28 L1568.52 1456.95 L1568.52 1452.69 L1576.79 1451.02 L1581.46 1451.02 L1581.46 1481.64 L1589.1 1481.64 L1589.1 1485.58 L1569.19 1485.58 L1569.19 1481.64 Z" fill="#000000" fill-rule="nonzero" fill-opacity="1" /><path clip-path="url(#clip530)" d="M1598.59 1451.02 L1616.95 1451.02 L1616.95 1454.96 L1602.87 1454.96 L1602.87 1463.43 Q1603.89 1463.08 1604.91 1462.92 Q1605.93 1462.73 1606.95 1462.73 Q1612.73 1462.73 1616.11 1465.9 Q1619.49 1469.08 1619.49 1474.49 Q1619.49 1480.07 1616.02 1483.17 Q1612.55 1486.25 1606.23 1486.25 Q1604.05 1486.25 1601.79 1485.88 Q1599.54 1485.51 1597.13 1484.77 L1597.13 1480.07 Q1599.22 1481.2 1601.44 1481.76 Q1603.66 1482.32 1606.14 1482.32 Q1610.14 1482.32 1612.48 1480.21 Q1614.82 1478.1 1614.82 1474.49 Q1614.82 1470.88 1612.48 1468.77 Q1610.14 1466.67 1606.14 1466.67 Q1604.26 1466.67 1602.39 1467.08 Q1600.54 1467.5 1598.59 1468.38 L1598.59 1451.02 Z" fill="#000000" fill-rule="nonzero" fill-opacity="1" /><path clip-path="url(#clip530)" d="M1638.71 1454.1 Q1635.1 1454.1 1633.27 1457.66 Q1631.46 1461.2 1631.46 1468.33 Q1631.46 1475.44 1633.27 1479.01 Q1635.1 1482.55 1638.71 1482.55 Q1642.34 1482.55 1644.15 1479.01 Q1645.98 1475.44 1645.98 1468.33 Q1645.98 1461.2 1644.15 1457.66 Q1642.34 1454.1 1638.71 1454.1 M1638.71 1450.39 Q1644.52 1450.39 1647.57 1455 Q1650.65 1459.58 1650.65 1468.33 Q1650.65 1477.06 1647.57 1481.67 Q1644.52 1486.25 1638.71 1486.25 Q1632.9 1486.25 1629.82 1481.67 Q1626.76 1477.06 1626.76 1468.33 Q1626.76 1459.58 1629.82 1455 Q1632.9 1450.39 1638.71 1450.39 Z" fill="#000000" fill-rule="nonzero" fill-opacity="1" /><path clip-path="url(#clip530)" d="M2062.21 1481.64 L2078.53 1481.64 L2078.53 1485.58 L2056.58 1485.58 L2056.58 1481.64 Q2059.24 1478.89 2063.83 1474.26 Q2068.43 1469.61 2069.61 1468.27 Q2071.86 1465.74 2072.74 1464.01 Q2073.64 1462.25 2073.64 1460.56 Q2073.64 1457.8 2071.7 1456.07 Q2069.78 1454.33 2066.67 1454.33 Q2064.47 1454.33 2062.02 1455.09 Q2059.59 1455.86 2056.81 1457.41 L2056.81 1452.69 Q2059.64 1451.55 2062.09 1450.97 Q2064.54 1450.39 2066.58 1450.39 Q2071.95 1450.39 2075.15 1453.08 Q2078.34 1455.77 2078.34 1460.26 Q2078.34 1462.39 2077.53 1464.31 Q2076.74 1466.2 2074.64 1468.8 Q2074.06 1469.47 2070.96 1472.69 Q2067.85 1475.88 2062.21 1481.64 Z" fill="#000000" fill-rule="nonzero" fill-opacity="1" /><path clip-path="url(#clip530)" d="M2098.34 1454.1 Q2094.73 1454.1 2092.9 1457.66 Q2091.09 1461.2 2091.09 1468.33 Q2091.09 1475.44 2092.9 1479.01 Q2094.73 1482.55 2098.34 1482.55 Q2101.97 1482.55 2103.78 1479.01 Q2105.61 1475.44 2105.61 1468.33 Q2105.61 1461.2 2103.78 1457.66 Q2101.97 1454.1 2098.34 1454.1 M2098.34 1450.39 Q2104.15 1450.39 2107.21 1455 Q2110.28 1459.58 2110.28 1468.33 Q2110.28 1477.06 2107.21 1481.67 Q2104.15 1486.25 2098.34 1486.25 Q2092.53 1486.25 2089.45 1481.67 Q2086.4 1477.06 2086.4 1468.33 Q2086.4 1459.58 2089.45 1455 Q2092.53 1450.39 2098.34 1450.39 Z" fill="#000000" fill-rule="nonzero" fill-opacity="1" /><path clip-path="url(#clip530)" d="M2128.5 1454.1 Q2124.89 1454.1 2123.06 1457.66 Q2121.26 1461.2 2121.26 1468.33 Q2121.26 1475.44 2123.06 1479.01 Q2124.89 1482.55 2128.5 1482.55 Q2132.14 1482.55 2133.94 1479.01 Q2135.77 1475.44 2135.77 1468.33 Q2135.77 1461.2 2133.94 1457.66 Q2132.14 1454.1 2128.5 1454.1 M2128.5 1450.39 Q2134.31 1450.39 2137.37 1455 Q2140.45 1459.58 2140.45 1468.33 Q2140.45 1477.06 2137.37 1481.67 Q2134.31 1486.25 2128.5 1486.25 Q2122.69 1486.25 2119.61 1481.67 Q2116.56 1477.06 2116.56 1468.33 Q2116.56 1459.58 2119.61 1455 Q2122.69 1450.39 2128.5 1450.39 Z" fill="#000000" fill-rule="nonzero" fill-opacity="1" /><path clip-path="url(#clip530)" d="M1192.77 1520.52 L1232.97 1520.52 L1232.97 1525.93 L1216.1 1525.93 L1216.1 1568.04 L1209.64 1568.04 L1209.64 1525.93 L1192.77 1525.93 L1192.77 1520.52 Z" fill="#000000" fill-rule="nonzero" fill-opacity="1" /><path clip-path="url(#clip530)" d="M1259.1 1518.52 L1272.59 1518.52 L1272.59 1523.07 L1264.95 1523.07 L1264.95 1572.09 L1272.59 1572.09 L1272.59 1576.64 L1259.1 1576.64 L1259.1 1518.52 Z" fill="#000000" fill-rule="nonzero" fill-opacity="1" /><path clip-path="url(#clip530)" d="M1285.32 1520.52 L1294.9 1520.52 L1307.03 1552.86 L1319.22 1520.52 L1328.8 1520.52 L1328.8 1568.04 L1322.53 1568.04 L1322.53 1526.32 L1310.28 1558.91 L1303.82 1558.91 L1291.56 1526.32 L1291.56 1568.04 L1285.32 1568.04 L1285.32 1520.52 Z" fill="#000000" fill-rule="nonzero" fill-opacity="1" /><path clip-path="url(#clip530)" d="M1371.8 1548.76 L1371.8 1551.62 L1344.88 1551.62 Q1345.26 1557.67 1348.5 1560.85 Q1351.78 1564 1357.61 1564 Q1360.98 1564 1364.13 1563.17 Q1367.31 1562.35 1370.43 1560.69 L1370.43 1566.23 Q1367.28 1567.57 1363.97 1568.27 Q1360.66 1568.97 1357.26 1568.97 Q1348.73 1568.97 1343.73 1564 Q1338.76 1559.04 1338.76 1550.57 Q1338.76 1541.82 1343.48 1536.69 Q1348.22 1531.54 1356.24 1531.54 Q1363.43 1531.54 1367.6 1536.18 Q1371.8 1540.8 1371.8 1548.76 M1365.95 1547.04 Q1365.88 1542.23 1363.24 1539.37 Q1360.63 1536.5 1356.3 1536.5 Q1351.4 1536.5 1348.44 1539.27 Q1345.51 1542.04 1345.07 1547.07 L1365.95 1547.04 Z" fill="#000000" fill-rule="nonzero" fill-opacity="1" /><path clip-path="url(#clip530)" d="M1393.92 1568.04 L1375.78 1520.52 L1382.5 1520.52 L1397.55 1560.53 L1412.64 1520.52 L1419.32 1520.52 L1401.21 1568.04 L1393.92 1568.04 Z" fill="#000000" fill-rule="nonzero" fill-opacity="1" /><path clip-path="url(#clip530)" d="M1439.69 1518.52 L1439.69 1576.64 L1426.2 1576.64 L1426.2 1572.09 L1433.8 1572.09 L1433.8 1523.07 L1426.2 1523.07 L1426.2 1518.52 L1439.69 1518.52 Z" fill="#000000" fill-rule="nonzero" fill-opacity="1" /><polyline clip-path="url(#clip530)" style="stroke:#000000; stroke-linecap:round; stroke-linejoin:round; stroke-width:4; stroke-opacity:1; fill:none" points="279.704,1423.18 279.704,123.472 "/>
<polyline clip-path="url(#clip530)" style="stroke:#000000; stroke-linecap:round; stroke-linejoin:round; stroke-width:4; stroke-opacity:1; fill:none" points="279.704,1305.28 298.602,1305.28 "/>
<polyline clip-path="url(#clip530)" style="stroke:#000000; stroke-linecap:round; stroke-linejoin:round; stroke-width:4; stroke-opacity:1; fill:none" points="279.704,1124.74 298.602,1124.74 "/>
<polyline clip-path="url(#clip530)" style="stroke:#000000; stroke-linecap:round; stroke-linejoin:round; stroke-width:4; stroke-opacity:1; fill:none" points="279.704,944.21 298.602,944.21 "/>
<polyline clip-path="url(#clip530)" style="stroke:#000000; stroke-linecap:round; stroke-linejoin:round; stroke-width:4; stroke-opacity:1; fill:none" points="279.704,763.677 298.602,763.677 "/>
<polyline clip-path="url(#clip530)" style="stroke:#000000; stroke-linecap:round; stroke-linejoin:round; stroke-width:4; stroke-opacity:1; fill:none" points="279.704,583.144 298.602,583.144 "/>
<polyline clip-path="url(#clip530)" style="stroke:#000000; stroke-linecap:round; stroke-linejoin:round; stroke-width:4; stroke-opacity:1; fill:none" points="279.704,402.611 298.602,402.611 "/>
<polyline clip-path="url(#clip530)" style="stroke:#000000; stroke-linecap:round; stroke-linejoin:round; stroke-width:4; stroke-opacity:1; fill:none" points="279.704,222.078 298.602,222.078 "/>
<path clip-path="url(#clip530)" d="M127.2 1291.07 Q123.589 1291.07 121.76 1294.64 Q119.955 1298.18 119.955 1305.31 Q119.955 1312.42 121.76 1315.98 Q123.589 1319.52 127.2 1319.52 Q130.834 1319.52 132.64 1315.98 Q134.468 1312.42 134.468 1305.31 Q134.468 1298.18 132.64 1294.64 Q130.834 1291.07 127.2 1291.07 M127.2 1287.37 Q133.01 1287.37 136.066 1291.98 Q139.144 1296.56 139.144 1305.31 Q139.144 1314.04 136.066 1318.64 Q133.01 1323.23 127.2 1323.23 Q121.39 1323.23 118.311 1318.64 Q115.256 1314.04 115.256 1305.31 Q115.256 1296.56 118.311 1291.98 Q121.39 1287.37 127.2 1287.37 Z" fill="#000000" fill-rule="nonzero" fill-opacity="1" /><path clip-path="url(#clip530)" d="M147.362 1316.68 L152.246 1316.68 L152.246 1322.56 L147.362 1322.56 L147.362 1316.68 Z" fill="#000000" fill-rule="nonzero" fill-opacity="1" /><path clip-path="url(#clip530)" d="M172.431 1291.07 Q168.82 1291.07 166.991 1294.64 Q165.186 1298.18 165.186 1305.31 Q165.186 1312.42 166.991 1315.98 Q168.82 1319.52 172.431 1319.52 Q176.065 1319.52 177.871 1315.98 Q179.7 1312.42 179.7 1305.31 Q179.7 1298.18 177.871 1294.64 Q176.065 1291.07 172.431 1291.07 M172.431 1287.37 Q178.241 1287.37 181.297 1291.98 Q184.376 1296.56 184.376 1305.31 Q184.376 1314.04 181.297 1318.64 Q178.241 1323.23 172.431 1323.23 Q166.621 1323.23 163.542 1318.64 Q160.487 1314.04 160.487 1305.31 Q160.487 1296.56 163.542 1291.98 Q166.621 1287.37 172.431 1287.37 Z" fill="#000000" fill-rule="nonzero" fill-opacity="1" /><path clip-path="url(#clip530)" d="M202.593 1291.07 Q198.982 1291.07 197.153 1294.64 Q195.348 1298.18 195.348 1305.31 Q195.348 1312.42 197.153 1315.98 Q198.982 1319.52 202.593 1319.52 Q206.227 1319.52 208.033 1315.98 Q209.861 1312.42 209.861 1305.31 Q209.861 1298.18 208.033 1294.64 Q206.227 1291.07 202.593 1291.07 M202.593 1287.37 Q208.403 1287.37 211.459 1291.98 Q214.537 1296.56 214.537 1305.31 Q214.537 1314.04 211.459 1318.64 Q208.403 1323.23 202.593 1323.23 Q196.783 1323.23 193.704 1318.64 Q190.649 1314.04 190.649 1305.31 Q190.649 1296.56 193.704 1291.98 Q196.783 1287.37 202.593 1287.37 Z" fill="#000000" fill-rule="nonzero" fill-opacity="1" /><path clip-path="url(#clip530)" d="M222.801 1288 L241.158 1288 L241.158 1291.93 L227.084 1291.93 L227.084 1300.4 Q228.102 1300.06 229.121 1299.89 Q230.139 1299.71 231.158 1299.71 Q236.945 1299.71 240.324 1302.88 Q243.704 1306.05 243.704 1311.47 Q243.704 1317.05 240.232 1320.15 Q236.76 1323.23 230.44 1323.23 Q228.264 1323.23 225.996 1322.86 Q223.75 1322.49 221.343 1321.75 L221.343 1317.05 Q223.426 1318.18 225.648 1318.74 Q227.871 1319.29 230.347 1319.29 Q234.352 1319.29 236.69 1317.19 Q239.028 1315.08 239.028 1311.47 Q239.028 1307.86 236.69 1305.75 Q234.352 1303.64 230.347 1303.64 Q228.473 1303.64 226.598 1304.06 Q224.746 1304.48 222.801 1305.36 L222.801 1288 Z" fill="#000000" fill-rule="nonzero" fill-opacity="1" /><path clip-path="url(#clip530)" d="M126.205 1110.54 Q122.593 1110.54 120.765 1114.11 Q118.959 1117.65 118.959 1124.78 Q118.959 1131.88 120.765 1135.45 Q122.593 1138.99 126.205 1138.99 Q129.839 1138.99 131.644 1135.45 Q133.473 1131.88 133.473 1124.78 Q133.473 1117.65 131.644 1114.11 Q129.839 1110.54 126.205 1110.54 M126.205 1106.84 Q132.015 1106.84 135.07 1111.44 Q138.149 1116.03 138.149 1124.78 Q138.149 1133.5 135.07 1138.11 Q132.015 1142.69 126.205 1142.69 Q120.394 1142.69 117.316 1138.11 Q114.26 1133.5 114.26 1124.78 Q114.26 1116.03 117.316 1111.44 Q120.394 1106.84 126.205 1106.84 Z" fill="#000000" fill-rule="nonzero" fill-opacity="1" /><path clip-path="url(#clip530)" d="M146.366 1136.14 L151.251 1136.14 L151.251 1142.02 L146.366 1142.02 L146.366 1136.14 Z" fill="#000000" fill-rule="nonzero" fill-opacity="1" /><path clip-path="url(#clip530)" d="M171.436 1110.54 Q167.825 1110.54 165.996 1114.11 Q164.19 1117.65 164.19 1124.78 Q164.19 1131.88 165.996 1135.45 Q167.825 1138.99 171.436 1138.99 Q175.07 1138.99 176.876 1135.45 Q178.704 1131.88 178.704 1124.78 Q178.704 1117.65 176.876 1114.11 Q175.07 1110.54 171.436 1110.54 M171.436 1106.84 Q177.246 1106.84 180.301 1111.44 Q183.38 1116.03 183.38 1124.78 Q183.38 1133.5 180.301 1138.11 Q177.246 1142.69 171.436 1142.69 Q165.626 1142.69 162.547 1138.11 Q159.491 1133.5 159.491 1124.78 Q159.491 1116.03 162.547 1111.44 Q165.626 1106.84 171.436 1106.84 Z" fill="#000000" fill-rule="nonzero" fill-opacity="1" /><path clip-path="url(#clip530)" d="M192.408 1138.09 L200.047 1138.09 L200.047 1111.72 L191.737 1113.39 L191.737 1109.13 L200 1107.46 L204.676 1107.46 L204.676 1138.09 L212.315 1138.09 L212.315 1142.02 L192.408 1142.02 L192.408 1138.09 Z" fill="#000000" fill-rule="nonzero" fill-opacity="1" /><path clip-path="url(#clip530)" d="M231.76 1110.54 Q228.148 1110.54 226.32 1114.11 Q224.514 1117.65 224.514 1124.78 Q224.514 1131.88 226.32 1135.45 Q228.148 1138.99 231.76 1138.99 Q235.394 1138.99 237.199 1135.45 Q239.028 1131.88 239.028 1124.78 Q239.028 1117.65 237.199 1114.11 Q235.394 1110.54 231.76 1110.54 M231.76 1106.84 Q237.57 1106.84 240.625 1111.44 Q243.704 1116.03 243.704 1124.78 Q243.704 1133.5 240.625 1138.11 Q237.57 1142.69 231.76 1142.69 Q225.949 1142.69 222.871 1138.11 Q219.815 1133.5 219.815 1124.78 Q219.815 1116.03 222.871 1111.44 Q225.949 1106.84 231.76 1106.84 Z" fill="#000000" fill-rule="nonzero" fill-opacity="1" /><path clip-path="url(#clip530)" d="M127.2 930.009 Q123.589 930.009 121.76 933.573 Q119.955 937.115 119.955 944.245 Q119.955 951.351 121.76 954.916 Q123.589 958.458 127.2 958.458 Q130.834 958.458 132.64 954.916 Q134.468 951.351 134.468 944.245 Q134.468 937.115 132.64 933.573 Q130.834 930.009 127.2 930.009 M127.2 926.305 Q133.01 926.305 136.066 930.911 Q139.144 935.495 139.144 944.245 Q139.144 952.971 136.066 957.578 Q133.01 962.161 127.2 962.161 Q121.39 962.161 118.311 957.578 Q115.256 952.971 115.256 944.245 Q115.256 935.495 118.311 930.911 Q121.39 926.305 127.2 926.305 Z" fill="#000000" fill-rule="nonzero" fill-opacity="1" /><path clip-path="url(#clip530)" d="M147.362 955.61 L152.246 955.61 L152.246 961.49 L147.362 961.49 L147.362 955.61 Z" fill="#000000" fill-rule="nonzero" fill-opacity="1" /><path clip-path="url(#clip530)" d="M172.431 930.009 Q168.82 930.009 166.991 933.573 Q165.186 937.115 165.186 944.245 Q165.186 951.351 166.991 954.916 Q168.82 958.458 172.431 958.458 Q176.065 958.458 177.871 954.916 Q179.7 951.351 179.7 944.245 Q179.7 937.115 177.871 933.573 Q176.065 930.009 172.431 930.009 M172.431 926.305 Q178.241 926.305 181.297 930.911 Q184.376 935.495 184.376 944.245 Q184.376 952.971 181.297 957.578 Q178.241 962.161 172.431 962.161 Q166.621 962.161 163.542 957.578 Q160.487 952.971 160.487 944.245 Q160.487 935.495 163.542 930.911 Q166.621 926.305 172.431 926.305 Z" fill="#000000" fill-rule="nonzero" fill-opacity="1" /><path clip-path="url(#clip530)" d="M193.403 957.555 L201.042 957.555 L201.042 931.189 L192.732 932.856 L192.732 928.597 L200.996 926.93 L205.672 926.93 L205.672 957.555 L213.311 957.555 L213.311 961.49 L193.403 961.49 L193.403 957.555 Z" fill="#000000" fill-rule="nonzero" fill-opacity="1" /><path clip-path="url(#clip530)" d="M222.801 926.93 L241.158 926.93 L241.158 930.865 L227.084 930.865 L227.084 939.337 Q228.102 938.99 229.121 938.828 Q230.139 938.643 231.158 938.643 Q236.945 938.643 240.324 941.814 Q243.704 944.985 243.704 950.402 Q243.704 955.981 240.232 959.083 Q236.76 962.161 230.44 962.161 Q228.264 962.161 225.996 961.791 Q223.75 961.421 221.343 960.68 L221.343 955.981 Q223.426 957.115 225.648 957.671 Q227.871 958.226 230.347 958.226 Q234.352 958.226 236.69 956.12 Q239.028 954.013 239.028 950.402 Q239.028 946.791 236.69 944.684 Q234.352 942.578 230.347 942.578 Q228.473 942.578 226.598 942.995 Q224.746 943.411 222.801 944.291 L222.801 926.93 Z" fill="#000000" fill-rule="nonzero" fill-opacity="1" /><path clip-path="url(#clip530)" d="M126.205 749.476 Q122.593 749.476 120.765 753.04 Q118.959 756.582 118.959 763.712 Q118.959 770.818 120.765 774.383 Q122.593 777.925 126.205 777.925 Q129.839 777.925 131.644 774.383 Q133.473 770.818 133.473 763.712 Q133.473 756.582 131.644 753.04 Q129.839 749.476 126.205 749.476 M126.205 745.772 Q132.015 745.772 135.07 750.378 Q138.149 754.962 138.149 763.712 Q138.149 772.439 135.07 777.045 Q132.015 781.628 126.205 781.628 Q120.394 781.628 117.316 777.045 Q114.26 772.439 114.26 763.712 Q114.26 754.962 117.316 750.378 Q120.394 745.772 126.205 745.772 Z" fill="#000000" fill-rule="nonzero" fill-opacity="1" /><path clip-path="url(#clip530)" d="M146.366 775.077 L151.251 775.077 L151.251 780.957 L146.366 780.957 L146.366 775.077 Z" fill="#000000" fill-rule="nonzero" fill-opacity="1" /><path clip-path="url(#clip530)" d="M171.436 749.476 Q167.825 749.476 165.996 753.04 Q164.19 756.582 164.19 763.712 Q164.19 770.818 165.996 774.383 Q167.825 777.925 171.436 777.925 Q175.07 777.925 176.876 774.383 Q178.704 770.818 178.704 763.712 Q178.704 756.582 176.876 753.04 Q175.07 749.476 171.436 749.476 M171.436 745.772 Q177.246 745.772 180.301 750.378 Q183.38 754.962 183.38 763.712 Q183.38 772.439 180.301 777.045 Q177.246 781.628 171.436 781.628 Q165.626 781.628 162.547 777.045 Q159.491 772.439 159.491 763.712 Q159.491 754.962 162.547 750.378 Q165.626 745.772 171.436 745.772 Z" fill="#000000" fill-rule="nonzero" fill-opacity="1" /><path clip-path="url(#clip530)" d="M195.625 777.022 L211.945 777.022 L211.945 780.957 L190 780.957 L190 777.022 Q192.663 774.267 197.246 769.638 Q201.852 764.985 203.033 763.642 Q205.278 761.119 206.158 759.383 Q207.061 757.624 207.061 755.934 Q207.061 753.179 205.116 751.443 Q203.195 749.707 200.093 749.707 Q197.894 749.707 195.44 750.471 Q193.01 751.235 190.232 752.786 L190.232 748.064 Q193.056 746.929 195.51 746.351 Q197.963 745.772 200 745.772 Q205.371 745.772 208.565 748.457 Q211.76 751.142 211.76 755.633 Q211.76 757.763 210.949 759.684 Q210.162 761.582 208.056 764.175 Q207.477 764.846 204.375 768.064 Q201.274 771.258 195.625 777.022 Z" fill="#000000" fill-rule="nonzero" fill-opacity="1" /><path clip-path="url(#clip530)" d="M231.76 749.476 Q228.148 749.476 226.32 753.04 Q224.514 756.582 224.514 763.712 Q224.514 770.818 226.32 774.383 Q228.148 777.925 231.76 777.925 Q235.394 777.925 237.199 774.383 Q239.028 770.818 239.028 763.712 Q239.028 756.582 237.199 753.04 Q235.394 749.476 231.76 749.476 M231.76 745.772 Q237.57 745.772 240.625 750.378 Q243.704 754.962 243.704 763.712 Q243.704 772.439 240.625 777.045 Q237.57 781.628 231.76 781.628 Q225.949 781.628 222.871 777.045 Q219.815 772.439 219.815 763.712 Q219.815 754.962 222.871 750.378 Q225.949 745.772 231.76 745.772 Z" fill="#000000" fill-rule="nonzero" fill-opacity="1" /><path clip-path="url(#clip530)" d="M127.2 568.943 Q123.589 568.943 121.76 572.508 Q119.955 576.049 119.955 583.179 Q119.955 590.285 121.76 593.85 Q123.589 597.392 127.2 597.392 Q130.834 597.392 132.64 593.85 Q134.468 590.285 134.468 583.179 Q134.468 576.049 132.64 572.508 Q130.834 568.943 127.2 568.943 M127.2 565.239 Q133.01 565.239 136.066 569.845 Q139.144 574.429 139.144 583.179 Q139.144 591.906 136.066 596.512 Q133.01 601.095 127.2 601.095 Q121.39 601.095 118.311 596.512 Q115.256 591.906 115.256 583.179 Q115.256 574.429 118.311 569.845 Q121.39 565.239 127.2 565.239 Z" fill="#000000" fill-rule="nonzero" fill-opacity="1" /><path clip-path="url(#clip530)" d="M147.362 594.544 L152.246 594.544 L152.246 600.424 L147.362 600.424 L147.362 594.544 Z" fill="#000000" fill-rule="nonzero" fill-opacity="1" /><path clip-path="url(#clip530)" d="M172.431 568.943 Q168.82 568.943 166.991 572.508 Q165.186 576.049 165.186 583.179 Q165.186 590.285 166.991 593.85 Q168.82 597.392 172.431 597.392 Q176.065 597.392 177.871 593.85 Q179.7 590.285 179.7 583.179 Q179.7 576.049 177.871 572.508 Q176.065 568.943 172.431 568.943 M172.431 565.239 Q178.241 565.239 181.297 569.845 Q184.376 574.429 184.376 583.179 Q184.376 591.906 181.297 596.512 Q178.241 601.095 172.431 601.095 Q166.621 601.095 163.542 596.512 Q160.487 591.906 160.487 583.179 Q160.487 574.429 163.542 569.845 Q166.621 565.239 172.431 565.239 Z" fill="#000000" fill-rule="nonzero" fill-opacity="1" /><path clip-path="url(#clip530)" d="M196.621 596.489 L212.94 596.489 L212.94 600.424 L190.996 600.424 L190.996 596.489 Q193.658 593.734 198.241 589.105 Q202.848 584.452 204.028 583.109 Q206.274 580.586 207.153 578.85 Q208.056 577.091 208.056 575.401 Q208.056 572.646 206.112 570.91 Q204.19 569.174 201.088 569.174 Q198.889 569.174 196.436 569.938 Q194.005 570.702 191.227 572.253 L191.227 567.531 Q194.051 566.396 196.505 565.818 Q198.959 565.239 200.996 565.239 Q206.366 565.239 209.561 567.924 Q212.755 570.609 212.755 575.1 Q212.755 577.23 211.945 579.151 Q211.158 581.049 209.051 583.642 Q208.473 584.313 205.371 587.531 Q202.269 590.725 196.621 596.489 Z" fill="#000000" fill-rule="nonzero" fill-opacity="1" /><path clip-path="url(#clip530)" d="M222.801 565.864 L241.158 565.864 L241.158 569.799 L227.084 569.799 L227.084 578.271 Q228.102 577.924 229.121 577.762 Q230.139 577.577 231.158 577.577 Q236.945 577.577 240.324 580.748 Q243.704 583.919 243.704 589.336 Q243.704 594.915 240.232 598.017 Q236.76 601.095 230.44 601.095 Q228.264 601.095 225.996 600.725 Q223.75 600.355 221.343 599.614 L221.343 594.915 Q223.426 596.049 225.648 596.605 Q227.871 597.16 230.347 597.16 Q234.352 597.16 236.69 595.054 Q239.028 592.947 239.028 589.336 Q239.028 585.725 236.69 583.619 Q234.352 581.512 230.347 581.512 Q228.473 581.512 226.598 581.929 Q224.746 582.345 222.801 583.225 L222.801 565.864 Z" fill="#000000" fill-rule="nonzero" fill-opacity="1" /><path clip-path="url(#clip530)" d="M126.205 388.41 Q122.593 388.41 120.765 391.975 Q118.959 395.516 118.959 402.646 Q118.959 409.752 120.765 413.317 Q122.593 416.859 126.205 416.859 Q129.839 416.859 131.644 413.317 Q133.473 409.752 133.473 402.646 Q133.473 395.516 131.644 391.975 Q129.839 388.41 126.205 388.41 M126.205 384.706 Q132.015 384.706 135.07 389.313 Q138.149 393.896 138.149 402.646 Q138.149 411.373 135.07 415.979 Q132.015 420.562 126.205 420.562 Q120.394 420.562 117.316 415.979 Q114.26 411.373 114.26 402.646 Q114.26 393.896 117.316 389.313 Q120.394 384.706 126.205 384.706 Z" fill="#000000" fill-rule="nonzero" fill-opacity="1" /><path clip-path="url(#clip530)" d="M146.366 414.011 L151.251 414.011 L151.251 419.891 L146.366 419.891 L146.366 414.011 Z" fill="#000000" fill-rule="nonzero" fill-opacity="1" /><path clip-path="url(#clip530)" d="M171.436 388.41 Q167.825 388.41 165.996 391.975 Q164.19 395.516 164.19 402.646 Q164.19 409.752 165.996 413.317 Q167.825 416.859 171.436 416.859 Q175.07 416.859 176.876 413.317 Q178.704 409.752 178.704 402.646 Q178.704 395.516 176.876 391.975 Q175.07 388.41 171.436 388.41 M171.436 384.706 Q177.246 384.706 180.301 389.313 Q183.38 393.896 183.38 402.646 Q183.38 411.373 180.301 415.979 Q177.246 420.562 171.436 420.562 Q165.626 420.562 162.547 415.979 Q159.491 411.373 159.491 402.646 Q159.491 393.896 162.547 389.313 Q165.626 384.706 171.436 384.706 Z" fill="#000000" fill-rule="nonzero" fill-opacity="1" /><path clip-path="url(#clip530)" d="M205.764 401.257 Q209.121 401.974 210.996 404.243 Q212.894 406.511 212.894 409.845 Q212.894 414.961 209.375 417.761 Q205.857 420.562 199.375 420.562 Q197.2 420.562 194.885 420.123 Q192.593 419.706 190.139 418.849 L190.139 414.336 Q192.084 415.47 194.399 416.048 Q196.713 416.627 199.237 416.627 Q203.635 416.627 205.926 414.891 Q208.241 413.155 208.241 409.845 Q208.241 406.789 206.088 405.076 Q203.959 403.34 200.139 403.34 L196.112 403.34 L196.112 399.498 L200.325 399.498 Q203.774 399.498 205.602 398.132 Q207.431 396.743 207.431 394.15 Q207.431 391.488 205.533 390.076 Q203.658 388.641 200.139 388.641 Q198.218 388.641 196.019 389.058 Q193.82 389.475 191.181 390.354 L191.181 386.188 Q193.843 385.447 196.158 385.076 Q198.496 384.706 200.556 384.706 Q205.88 384.706 208.982 387.137 Q212.084 389.544 212.084 393.664 Q212.084 396.535 210.44 398.525 Q208.797 400.493 205.764 401.257 Z" fill="#000000" fill-rule="nonzero" fill-opacity="1" /><path clip-path="url(#clip530)" d="M231.76 388.41 Q228.148 388.41 226.32 391.975 Q224.514 395.516 224.514 402.646 Q224.514 409.752 226.32 413.317 Q228.148 416.859 231.76 416.859 Q235.394 416.859 237.199 413.317 Q239.028 409.752 239.028 402.646 Q239.028 395.516 237.199 391.975 Q235.394 388.41 231.76 388.41 M231.76 384.706 Q237.57 384.706 240.625 389.313 Q243.704 393.896 243.704 402.646 Q243.704 411.373 240.625 415.979 Q237.57 420.562 231.76 420.562 Q225.949 420.562 222.871 415.979 Q219.815 411.373 219.815 402.646 Q219.815 393.896 222.871 389.313 Q225.949 384.706 231.76 384.706 Z" fill="#000000" fill-rule="nonzero" fill-opacity="1" /><path clip-path="url(#clip530)" d="M127.2 207.877 Q123.589 207.877 121.76 211.442 Q119.955 214.983 119.955 222.113 Q119.955 229.219 121.76 232.784 Q123.589 236.326 127.2 236.326 Q130.834 236.326 132.64 232.784 Q134.468 229.219 134.468 222.113 Q134.468 214.983 132.64 211.442 Q130.834 207.877 127.2 207.877 M127.2 204.173 Q133.01 204.173 136.066 208.78 Q139.144 213.363 139.144 222.113 Q139.144 230.84 136.066 235.446 Q133.01 240.029 127.2 240.029 Q121.39 240.029 118.311 235.446 Q115.256 230.84 115.256 222.113 Q115.256 213.363 118.311 208.78 Q121.39 204.173 127.2 204.173 Z" fill="#000000" fill-rule="nonzero" fill-opacity="1" /><path clip-path="url(#clip530)" d="M147.362 233.478 L152.246 233.478 L152.246 239.358 L147.362 239.358 L147.362 233.478 Z" fill="#000000" fill-rule="nonzero" fill-opacity="1" /><path clip-path="url(#clip530)" d="M172.431 207.877 Q168.82 207.877 166.991 211.442 Q165.186 214.983 165.186 222.113 Q165.186 229.219 166.991 232.784 Q168.82 236.326 172.431 236.326 Q176.065 236.326 177.871 232.784 Q179.7 229.219 179.7 222.113 Q179.7 214.983 177.871 211.442 Q176.065 207.877 172.431 207.877 M172.431 204.173 Q178.241 204.173 181.297 208.78 Q184.376 213.363 184.376 222.113 Q184.376 230.84 181.297 235.446 Q178.241 240.029 172.431 240.029 Q166.621 240.029 163.542 235.446 Q160.487 230.84 160.487 222.113 Q160.487 213.363 163.542 208.78 Q166.621 204.173 172.431 204.173 Z" fill="#000000" fill-rule="nonzero" fill-opacity="1" /><path clip-path="url(#clip530)" d="M206.76 220.724 Q210.116 221.442 211.991 223.71 Q213.889 225.979 213.889 229.312 Q213.889 234.428 210.371 237.228 Q206.852 240.029 200.371 240.029 Q198.195 240.029 195.88 239.59 Q193.588 239.173 191.135 238.316 L191.135 233.803 Q193.079 234.937 195.394 235.516 Q197.709 236.094 200.232 236.094 Q204.63 236.094 206.922 234.358 Q209.237 232.622 209.237 229.312 Q209.237 226.256 207.084 224.543 Q204.954 222.807 201.135 222.807 L197.107 222.807 L197.107 218.965 L201.32 218.965 Q204.769 218.965 206.598 217.599 Q208.426 216.21 208.426 213.617 Q208.426 210.955 206.528 209.543 Q204.653 208.108 201.135 208.108 Q199.213 208.108 197.014 208.525 Q194.815 208.942 192.176 209.821 L192.176 205.655 Q194.838 204.914 197.153 204.543 Q199.491 204.173 201.551 204.173 Q206.875 204.173 209.977 206.604 Q213.079 209.011 213.079 213.131 Q213.079 216.002 211.436 217.992 Q209.792 219.96 206.76 220.724 Z" fill="#000000" fill-rule="nonzero" fill-opacity="1" /><path clip-path="url(#clip530)" d="M222.801 204.798 L241.158 204.798 L241.158 208.733 L227.084 208.733 L227.084 217.205 Q228.102 216.858 229.121 216.696 Q230.139 216.511 231.158 216.511 Q236.945 216.511 240.324 219.682 Q243.704 222.854 243.704 228.27 Q243.704 233.849 240.232 236.951 Q236.76 240.029 230.44 240.029 Q228.264 240.029 225.996 239.659 Q223.75 239.289 221.343 238.548 L221.343 233.849 Q223.426 234.983 225.648 235.539 Q227.871 236.094 230.347 236.094 Q234.352 236.094 236.69 233.988 Q239.028 231.881 239.028 228.27 Q239.028 224.659 236.69 222.553 Q234.352 220.446 230.347 220.446 Q228.473 220.446 226.598 220.863 Q224.746 221.279 222.801 222.159 L222.801 204.798 Z" fill="#000000" fill-rule="nonzero" fill-opacity="1" /><path clip-path="url(#clip530)" d="M29.4065 993.309 L34.9447 993.309 Q33.6716 995.792 33.035 998.465 Q32.3984 1001.14 32.3984 1004 Q32.3984 1008.36 33.7352 1010.56 Q35.072 1012.72 37.7456 1012.72 Q39.7826 1012.72 40.9603 1011.16 Q42.1061 1009.61 43.1565 1004.89 L43.6021 1002.89 Q44.9389 996.651 47.3897 994.041 Q49.8086 991.399 54.1691 991.399 Q59.1344 991.399 62.0308 995.346 Q64.9272 999.261 64.9272 1006.14 Q64.9272 1009 64.3543 1012.12 Q63.8132 1015.21 62.6992 1018.64 L56.6518 1018.64 Q58.3387 1015.4 59.198 1012.25 Q60.0256 1009.1 60.0256 1006.01 Q60.0256 1001.87 58.6251 999.643 Q57.1929 997.415 54.6147 997.415 Q52.2276 997.415 50.9545 999.038 Q49.6813 1000.63 48.5037 1006.07 L48.0262 1008.11 Q46.8804 1013.55 44.5251 1015.97 Q42.138 1018.39 38.0002 1018.39 Q32.9713 1018.39 30.2341 1014.82 Q27.4968 1011.26 27.4968 1004.7 Q27.4968 1001.46 27.9743 998.592 Q28.4517 995.728 29.4065 993.309 Z" fill="#000000" fill-rule="nonzero" fill-opacity="1" /><path clip-path="url(#clip530)" d="M28.3562 982.073 L28.3562 976.217 L64.0042 976.217 L64.0042 982.073 L28.3562 982.073 M14.479 982.073 L14.479 976.217 L21.895 976.217 L21.895 982.073 L14.479 982.073 Z" fill="#000000" fill-rule="nonzero" fill-opacity="1" /><path clip-path="url(#clip530)" d="M45.7664 940.505 Q39.4007 940.505 35.8996 943.147 Q32.3984 945.757 32.3984 950.5 Q32.3984 955.21 35.8996 957.852 Q39.4007 960.462 45.7664 960.462 Q52.1003 960.462 55.6014 957.852 Q59.1026 955.21 59.1026 950.5 Q59.1026 945.757 55.6014 943.147 Q52.1003 940.505 45.7664 940.505 M59.58 934.649 Q68.683 934.649 73.1071 938.691 Q77.5631 942.733 77.5631 951.072 Q77.5631 954.16 77.0857 956.897 Q76.6401 959.634 75.6852 962.212 L69.9879 962.212 Q71.3884 959.634 72.0568 957.12 Q72.7252 954.605 72.7252 951.995 Q72.7252 946.234 69.7015 943.37 Q66.7096 940.505 60.6303 940.505 L57.7339 940.505 Q60.885 942.32 62.4446 945.152 Q64.0042 947.985 64.0042 951.932 Q64.0042 958.488 59.0071 962.499 Q54.01 966.509 45.7664 966.509 Q37.491 966.509 32.4939 962.499 Q27.4968 958.488 27.4968 951.932 Q27.4968 947.985 29.0564 945.152 Q30.616 942.32 33.7671 940.505 L28.3562 940.505 L28.3562 934.649 L59.58 934.649 Z" fill="#000000" fill-rule="nonzero" fill-opacity="1" /><path clip-path="url(#clip530)" d="M35.1993 894.831 Q31.2526 892.635 29.3747 889.58 Q27.4968 886.524 27.4968 882.386 Q27.4968 876.816 31.4117 873.793 Q35.2948 870.769 42.4881 870.769 L64.0042 870.769 L64.0042 876.657 L42.679 876.657 Q37.5546 876.657 35.072 878.472 Q32.5894 880.286 32.5894 884.01 Q32.5894 888.561 35.6131 891.203 Q38.6368 893.845 43.8567 893.845 L64.0042 893.845 L64.0042 899.733 L42.679 899.733 Q37.5228 899.733 35.072 901.547 Q32.5894 903.361 32.5894 907.149 Q32.5894 911.637 35.6449 914.279 Q38.6686 916.92 43.8567 916.92 L64.0042 916.92 L64.0042 922.809 L28.3562 922.809 L28.3562 916.92 L33.8944 916.92 Q30.616 914.915 29.0564 912.114 Q27.4968 909.313 27.4968 905.462 Q27.4968 901.579 29.4702 898.874 Q31.4436 896.136 35.1993 894.831 Z" fill="#000000" fill-rule="nonzero" fill-opacity="1" /><path clip-path="url(#clip530)" d="M46.0847 842.887 Q46.0847 849.985 47.7079 852.722 Q49.3312 855.46 53.2461 855.46 Q56.3653 855.46 58.2114 853.422 Q60.0256 851.354 60.0256 847.821 Q60.0256 842.951 56.5881 840.023 Q53.1188 837.063 47.3897 837.063 L46.0847 837.063 L46.0847 842.887 M43.6657 831.206 L64.0042 831.206 L64.0042 837.063 L58.5933 837.063 Q61.8398 839.068 63.3994 842.06 Q64.9272 845.052 64.9272 849.38 Q64.9272 854.855 61.8716 858.101 Q58.7843 861.316 53.6281 861.316 Q47.6125 861.316 44.5569 857.306 Q41.5014 853.263 41.5014 845.274 L41.5014 837.063 L40.9285 837.063 Q36.8862 837.063 34.6901 839.736 Q32.4621 842.378 32.4621 847.184 Q32.4621 850.24 33.1941 853.136 Q33.9262 856.032 35.3903 858.706 L29.9795 858.706 Q28.7381 855.491 28.1334 852.468 Q27.4968 849.444 27.4968 846.579 Q27.4968 838.845 31.5072 835.026 Q35.5176 831.206 43.6657 831.206 Z" fill="#000000" fill-rule="nonzero" fill-opacity="1" /><path clip-path="url(#clip530)" d="M14.479 798.964 L14.479 785.469 L19.0304 785.469 L19.0304 793.107 L68.0464 793.107 L68.0464 785.469 L72.5979 785.469 L72.5979 798.964 L14.479 798.964 Z" fill="#000000" fill-rule="nonzero" fill-opacity="1" /><path clip-path="url(#clip530)" d="M57.2247 740.336 L44.4614 740.336 L44.4614 750.839 L39.1779 750.839 L39.1779 733.97 L59.58 733.97 Q62.2218 737.694 63.5904 742.182 Q64.9272 746.67 64.9272 751.762 Q64.9272 762.902 58.4342 769.204 Q51.9093 775.474 40.2919 775.474 Q28.6427 775.474 22.1496 769.204 Q15.6248 762.902 15.6248 751.762 Q15.6248 747.115 16.7706 742.946 Q17.9164 738.744 20.1444 735.211 L26.9876 735.211 Q23.9639 738.776 22.4361 742.787 Q20.9083 746.797 20.9083 751.221 Q20.9083 759.942 25.7781 764.334 Q30.6479 768.695 40.2919 768.695 Q49.9041 768.695 54.7739 764.334 Q59.6436 759.942 59.6436 751.221 Q59.6436 747.815 59.0707 745.142 Q58.466 742.468 57.2247 740.336 Z" fill="#000000" fill-rule="nonzero" fill-opacity="1" /><path clip-path="url(#clip530)" d="M44.7161 691.988 L47.5806 691.988 L47.5806 718.915 Q53.6281 718.533 56.8109 715.287 Q59.9619 712.008 59.9619 706.184 Q59.9619 702.81 59.1344 699.659 Q58.3069 696.476 56.6518 693.357 L62.1899 693.357 Q63.5267 696.508 64.227 699.818 Q64.9272 703.128 64.9272 706.534 Q64.9272 715.064 59.9619 720.061 Q54.9967 725.026 46.5303 725.026 Q37.7774 725.026 32.6531 720.316 Q27.4968 715.573 27.4968 707.552 Q27.4968 700.359 32.1438 696.19 Q36.7589 691.988 44.7161 691.988 M42.9973 697.845 Q38.1912 697.908 35.3266 700.55 Q32.4621 703.16 32.4621 707.489 Q32.4621 712.39 35.2312 715.35 Q38.0002 718.279 43.0292 718.724 L42.9973 697.845 Z" fill="#000000" fill-rule="nonzero" fill-opacity="1" /><path clip-path="url(#clip530)" d="M64.0042 669.867 L16.4842 688.01 L16.4842 681.294 L56.4926 666.239 L16.4842 651.152 L16.4842 644.468 L64.0042 662.579 L64.0042 669.867 Z" fill="#000000" fill-rule="nonzero" fill-opacity="1" /><path clip-path="url(#clip530)" d="M16.4842 613.499 L34.2127 596.216 L34.2127 602.614 L21.6404 616.618 L34.2127 630.623 L34.2127 637.02 L16.4842 619.737 L16.4842 613.499 Z" fill="#000000" fill-rule="nonzero" fill-opacity="1" /><path clip-path="url(#clip530)" d="M38.3822 562.86 Q39.3689 558.245 42.4881 555.667 Q45.6073 553.057 50.1906 553.057 Q57.2247 553.057 61.0759 557.895 Q64.9272 562.732 64.9272 571.644 Q64.9272 574.636 64.3224 577.819 Q63.7495 580.97 62.5719 584.344 L56.3653 584.344 Q57.9249 581.67 58.7206 578.488 Q59.5163 575.305 59.5163 571.835 Q59.5163 565.788 57.1292 562.637 Q54.7421 559.454 50.1906 559.454 Q45.9892 559.454 43.6339 562.414 Q41.2468 565.342 41.2468 570.594 L41.2468 576.132 L35.9632 576.132 L35.9632 570.34 Q35.9632 565.597 34.0853 563.083 Q32.1756 560.568 28.6108 560.568 Q24.9505 560.568 23.009 563.178 Q21.0356 565.756 21.0356 570.594 Q21.0356 573.236 21.6086 576.26 Q22.1815 579.283 23.3909 582.912 L17.6618 582.912 Q16.6433 579.252 16.134 576.069 Q15.6248 572.854 15.6248 570.021 Q15.6248 562.701 18.9668 558.436 Q22.277 554.171 27.9424 554.171 Q31.8892 554.171 34.6264 556.43 Q37.3318 558.69 38.3822 562.86 Z" fill="#000000" fill-rule="nonzero" fill-opacity="1" /><path clip-path="url(#clip530)" d="M14.479 528.008 L72.5979 528.008 L72.5979 541.503 L68.0464 541.503 L68.0464 533.896 L19.0304 533.896 L19.0304 541.503 L14.479 541.503 L14.479 528.008 Z" fill="#000000" fill-rule="nonzero" fill-opacity="1" /><path clip-path="url(#clip530)" d="M694.76 14.0809 L694.76 22.0612 Q690.102 19.8332 685.97 18.7395 Q681.838 17.6457 677.99 17.6457 Q671.306 17.6457 667.66 20.2383 Q664.055 22.8309 664.055 27.611 Q664.055 31.6214 666.445 33.6873 Q668.875 35.7128 675.6 36.9686 L680.542 37.9813 Q689.697 39.7232 694.031 44.1387 Q698.406 48.5136 698.406 55.8863 Q698.406 64.6767 692.492 69.2137 Q686.618 73.7508 675.235 73.7508 Q670.941 73.7508 666.08 72.7785 Q661.259 71.8063 656.074 69.9024 L656.074 61.4765 Q661.057 64.2716 665.837 65.6895 Q670.617 67.1073 675.235 67.1073 Q682.243 67.1073 686.051 64.3527 Q689.859 61.598 689.859 56.4939 Q689.859 52.0379 687.104 49.5264 Q684.39 47.0148 678.152 45.759 L673.169 44.7868 Q664.014 42.9639 659.923 39.075 Q655.831 35.1862 655.831 28.2591 Q655.831 20.2383 661.462 15.6203 Q667.133 11.0023 677.058 11.0023 Q681.311 11.0023 685.727 11.7719 Q690.142 12.5416 694.76 14.0809 Z" fill="#000000" fill-rule="nonzero" fill-opacity="1" /><path clip-path="url(#clip530)" d="M748.556 45.1919 L748.556 72.576 L741.103 72.576 L741.103 45.4349 Q741.103 38.994 738.591 35.7938 Q736.08 32.5936 731.057 32.5936 Q725.021 32.5936 721.537 36.4419 Q718.053 40.2903 718.053 46.9338 L718.053 72.576 L710.559 72.576 L710.559 9.54393 L718.053 9.54393 L718.053 34.2544 Q720.727 30.163 724.332 28.1376 Q727.978 26.1121 732.717 26.1121 Q740.536 26.1121 744.546 30.9732 Q748.556 35.7938 748.556 45.1919 Z" fill="#000000" fill-rule="nonzero" fill-opacity="1" /><path clip-path="url(#clip530)" d="M781.004 32.4315 Q775.009 32.4315 771.525 37.1306 Q768.041 41.7891 768.041 49.9314 Q768.041 58.0738 771.485 62.7728 Q774.968 67.4314 781.004 67.4314 Q786.959 67.4314 790.443 62.7323 Q793.927 58.0333 793.927 49.9314 Q793.927 41.8701 790.443 37.1711 Q786.959 32.4315 781.004 32.4315 M781.004 26.1121 Q790.726 26.1121 796.276 32.4315 Q801.826 38.7509 801.826 49.9314 Q801.826 61.0714 796.276 67.4314 Q790.726 73.7508 781.004 73.7508 Q771.242 73.7508 765.692 67.4314 Q760.183 61.0714 760.183 49.9314 Q760.183 38.7509 765.692 32.4315 Q771.242 26.1121 781.004 26.1121 Z" fill="#000000" fill-rule="nonzero" fill-opacity="1" /><path clip-path="url(#clip530)" d="M831.762 32.4315 Q825.767 32.4315 822.283 37.1306 Q818.799 41.7891 818.799 49.9314 Q818.799 58.0738 822.242 62.7728 Q825.726 67.4314 831.762 67.4314 Q837.717 67.4314 841.201 62.7323 Q844.684 58.0333 844.684 49.9314 Q844.684 41.8701 841.201 37.1711 Q837.717 32.4315 831.762 32.4315 M831.762 26.1121 Q841.484 26.1121 847.034 32.4315 Q852.584 38.7509 852.584 49.9314 Q852.584 61.0714 847.034 67.4314 Q841.484 73.7508 831.762 73.7508 Q821.999 73.7508 816.45 67.4314 Q810.94 61.0714 810.94 49.9314 Q810.94 38.7509 816.45 32.4315 Q821.999 26.1121 831.762 26.1121 Z" fill="#000000" fill-rule="nonzero" fill-opacity="1" /><path clip-path="url(#clip530)" d="M872.312 14.324 L872.312 27.2059 L887.664 27.2059 L887.664 32.9987 L872.312 32.9987 L872.312 57.6282 Q872.312 63.1779 873.81 64.7578 Q875.35 66.3376 880.008 66.3376 L887.664 66.3376 L887.664 72.576 L880.008 72.576 Q871.38 72.576 868.099 69.3758 Q864.817 66.1351 864.817 57.6282 L864.817 32.9987 L859.349 32.9987 L859.349 27.2059 L864.817 27.2059 L864.817 14.324 L872.312 14.324 Z" fill="#000000" fill-rule="nonzero" fill-opacity="1" /><path clip-path="url(#clip530)" d="M897.468 27.2059 L904.921 27.2059 L904.921 72.576 L897.468 72.576 L897.468 27.2059 M897.468 9.54393 L904.921 9.54393 L904.921 18.9825 L897.468 18.9825 L897.468 9.54393 Z" fill="#000000" fill-rule="nonzero" fill-opacity="1" /><path clip-path="url(#clip530)" d="M958.231 45.1919 L958.231 72.576 L950.778 72.576 L950.778 45.4349 Q950.778 38.994 948.266 35.7938 Q945.754 32.5936 940.731 32.5936 Q934.695 32.5936 931.212 36.4419 Q927.728 40.2903 927.728 46.9338 L927.728 72.576 L920.234 72.576 L920.234 27.2059 L927.728 27.2059 L927.728 34.2544 Q930.402 30.163 934.007 28.1376 Q937.653 26.1121 942.392 26.1121 Q950.21 26.1121 954.221 30.9732 Q958.231 35.7938 958.231 45.1919 Z" fill="#000000" fill-rule="nonzero" fill-opacity="1" /><path clip-path="url(#clip530)" d="M1002.95 49.3643 Q1002.95 41.2625 999.591 36.8065 Q996.269 32.3505 990.233 32.3505 Q984.238 32.3505 980.876 36.8065 Q977.554 41.2625 977.554 49.3643 Q977.554 57.4256 980.876 61.8816 Q984.238 66.3376 990.233 66.3376 Q996.269 66.3376 999.591 61.8816 Q1002.95 57.4256 1002.95 49.3643 M1010.41 66.9452 Q1010.41 78.5308 1005.26 84.1616 Q1000.12 89.8329 989.504 89.8329 Q985.575 89.8329 982.091 89.2252 Q978.607 88.6581 975.326 87.4428 L975.326 80.1917 Q978.607 81.9741 981.808 82.8248 Q985.008 83.6755 988.329 83.6755 Q995.662 83.6755 999.307 79.8271 Q1002.95 76.0193 1002.95 68.282 L1002.95 64.5957 Q1000.64 68.6061 997.039 70.5911 Q993.434 72.576 988.41 72.576 Q980.066 72.576 974.961 66.2161 Q969.857 59.8562 969.857 49.3643 Q969.857 38.832 974.961 32.472 Q980.066 26.1121 988.41 26.1121 Q993.434 26.1121 997.039 28.0971 Q1000.64 30.082 1002.95 34.0924 L1002.95 27.2059 L1010.41 27.2059 L1010.41 66.9452 Z" fill="#000000" fill-rule="nonzero" fill-opacity="1" /><path clip-path="url(#clip530)" d="M1081.05 28.5427 L1081.05 35.5912 Q1077.89 33.9709 1074.49 33.1607 Q1071.09 32.3505 1067.44 32.3505 Q1061.89 32.3505 1059.1 34.0519 Q1056.34 35.7533 1056.34 39.156 Q1056.34 41.7486 1058.33 43.2475 Q1060.31 44.7058 1066.31 46.0426 L1068.86 46.6097 Q1076.8 48.3111 1080.12 51.4303 Q1083.49 54.509 1083.49 60.0587 Q1083.49 66.3781 1078.46 70.0644 Q1073.48 73.7508 1064.73 73.7508 Q1061.08 73.7508 1057.11 73.0216 Q1053.18 72.3329 1048.81 70.9151 L1048.81 63.2184 Q1052.94 65.3654 1056.95 66.4591 Q1060.96 67.5124 1064.89 67.5124 Q1070.16 67.5124 1072.99 65.73 Q1075.83 63.9071 1075.83 60.6258 Q1075.83 57.5877 1073.76 55.9673 Q1071.74 54.3469 1064.81 52.8481 L1062.22 52.2405 Q1055.29 50.7821 1052.21 47.7845 Q1049.13 44.7463 1049.13 39.4801 Q1049.13 33.0797 1053.67 29.5959 Q1058.21 26.1121 1066.55 26.1121 Q1070.68 26.1121 1074.33 26.7198 Q1077.98 27.3274 1081.05 28.5427 Z" fill="#000000" fill-rule="nonzero" fill-opacity="1" /><path clip-path="url(#clip530)" d="M1095.35 27.2059 L1102.81 27.2059 L1102.81 72.576 L1095.35 72.576 L1095.35 27.2059 M1095.35 9.54393 L1102.81 9.54393 L1102.81 18.9825 L1095.35 18.9825 L1095.35 9.54393 Z" fill="#000000" fill-rule="nonzero" fill-opacity="1" /><path clip-path="url(#clip530)" d="M1148.26 49.3643 Q1148.26 41.2625 1144.9 36.8065 Q1141.58 32.3505 1135.54 32.3505 Q1129.54 32.3505 1126.18 36.8065 Q1122.86 41.2625 1122.86 49.3643 Q1122.86 57.4256 1126.18 61.8816 Q1129.54 66.3376 1135.54 66.3376 Q1141.58 66.3376 1144.9 61.8816 Q1148.26 57.4256 1148.26 49.3643 M1155.71 66.9452 Q1155.71 78.5308 1150.57 84.1616 Q1145.42 89.8329 1134.81 89.8329 Q1130.88 89.8329 1127.4 89.2252 Q1123.91 88.6581 1120.63 87.4428 L1120.63 80.1917 Q1123.91 81.9741 1127.11 82.8248 Q1130.31 83.6755 1133.64 83.6755 Q1140.97 83.6755 1144.61 79.8271 Q1148.26 76.0193 1148.26 68.282 L1148.26 64.5957 Q1145.95 68.6061 1142.34 70.5911 Q1138.74 72.576 1133.72 72.576 Q1125.37 72.576 1120.27 66.2161 Q1115.16 59.8562 1115.16 49.3643 Q1115.16 38.832 1120.27 32.472 Q1125.37 26.1121 1133.72 26.1121 Q1138.74 26.1121 1142.34 28.0971 Q1145.95 30.082 1148.26 34.0924 L1148.26 27.2059 L1155.71 27.2059 L1155.71 66.9452 Z" fill="#000000" fill-rule="nonzero" fill-opacity="1" /><path clip-path="url(#clip530)" d="M1206.39 35.9153 Q1209.18 30.8922 1213.07 28.5022 Q1216.96 26.1121 1222.23 26.1121 Q1229.32 26.1121 1233.17 31.0947 Q1237.01 36.0368 1237.01 45.1919 L1237.01 72.576 L1229.52 72.576 L1229.52 45.4349 Q1229.52 38.913 1227.21 35.7533 Q1224.9 32.5936 1220.16 32.5936 Q1214.37 32.5936 1211.01 36.4419 Q1207.65 40.2903 1207.65 46.9338 L1207.65 72.576 L1200.15 72.576 L1200.15 45.4349 Q1200.15 38.8725 1197.84 35.7533 Q1195.53 32.5936 1190.71 32.5936 Q1185 32.5936 1181.64 36.4824 Q1178.28 40.3308 1178.28 46.9338 L1178.28 72.576 L1170.78 72.576 L1170.78 27.2059 L1178.28 27.2059 L1178.28 34.2544 Q1180.83 30.082 1184.39 28.0971 Q1187.96 26.1121 1192.86 26.1121 Q1197.8 26.1121 1201.24 28.6237 Q1204.73 31.1352 1206.39 35.9153 Z" fill="#000000" fill-rule="nonzero" fill-opacity="1" /><path clip-path="url(#clip530)" d="M1272.5 49.7694 Q1263.47 49.7694 1259.98 51.8354 Q1256.5 53.9013 1256.5 58.8839 Q1256.5 62.8538 1259.09 65.2034 Q1261.72 67.5124 1266.22 67.5124 Q1272.42 67.5124 1276.15 63.1374 Q1279.91 58.7219 1279.91 51.4303 L1279.91 49.7694 L1272.5 49.7694 M1287.37 46.6907 L1287.37 72.576 L1279.91 72.576 L1279.91 65.6895 Q1277.36 69.8214 1273.55 71.8063 Q1269.75 73.7508 1264.24 73.7508 Q1257.27 73.7508 1253.14 69.8619 Q1249.05 65.9325 1249.05 59.3701 Q1249.05 51.7138 1254.15 47.825 Q1259.29 43.9361 1269.46 43.9361 L1279.91 43.9361 L1279.91 43.2069 Q1279.91 38.0623 1276.51 35.2672 Q1273.15 32.4315 1267.03 32.4315 Q1263.14 32.4315 1259.46 33.3632 Q1255.77 34.295 1252.37 36.1584 L1252.37 29.2718 Q1256.46 27.692 1260.31 26.9223 Q1264.16 26.1121 1267.8 26.1121 Q1277.65 26.1121 1282.51 31.2163 Q1287.37 36.3204 1287.37 46.6907 Z" fill="#000000" fill-rule="nonzero" fill-opacity="1" /><path clip-path="url(#clip530)" d="M1320.63 9.62495 Q1315.2 18.942 1312.56 28.0566 Q1309.93 37.1711 1309.93 46.5287 Q1309.93 55.8863 1312.56 65.0818 Q1315.24 74.2369 1320.63 83.5134 L1314.14 83.5134 Q1308.07 73.9938 1305.03 64.7983 Q1302.03 55.6027 1302.03 46.5287 Q1302.03 37.4952 1305.03 28.3401 Q1308.03 19.1851 1314.14 9.62495 L1320.63 9.62495 Z" fill="#000000" fill-rule="nonzero" fill-opacity="1" /><path clip-path="url(#clip530)" d="M1327.03 12.096 L1378.19 12.096 L1378.19 18.9825 L1356.72 18.9825 L1356.72 72.576 L1348.5 72.576 L1348.5 18.9825 L1327.03 18.9825 L1327.03 12.096 Z" fill="#000000" fill-rule="nonzero" fill-opacity="1" /><path clip-path="url(#clip530)" d="M1384.59 9.62495 L1391.07 9.62495 Q1397.15 19.1851 1400.14 28.3401 Q1403.18 37.4952 1403.18 46.5287 Q1403.18 55.6027 1400.14 64.7983 Q1397.15 73.9938 1391.07 83.5134 L1384.59 83.5134 Q1389.98 74.2369 1392.61 65.0818 Q1395.28 55.8863 1395.28 46.5287 Q1395.28 37.1711 1392.61 28.0566 Q1389.98 18.942 1384.59 9.62495 Z" fill="#000000" fill-rule="nonzero" fill-opacity="1" /><path clip-path="url(#clip530)" d="M1420.03 62.2867 L1428.58 62.2867 L1428.58 69.2543 L1421.94 82.2172 L1416.71 82.2172 L1420.03 69.2543 L1420.03 62.2867 Z" fill="#000000" fill-rule="nonzero" fill-opacity="1" /><path clip-path="url(#clip530)" d="M1506.2 35.9153 Q1508.99 30.8922 1512.88 28.5022 Q1516.77 26.1121 1522.04 26.1121 Q1529.13 26.1121 1532.97 31.0947 Q1536.82 36.0368 1536.82 45.1919 L1536.82 72.576 L1529.33 72.576 L1529.33 45.4349 Q1529.33 38.913 1527.02 35.7533 Q1524.71 32.5936 1519.97 32.5936 Q1514.18 32.5936 1510.82 36.4419 Q1507.45 40.2903 1507.45 46.9338 L1507.45 72.576 L1499.96 72.576 L1499.96 45.4349 Q1499.96 38.8725 1497.65 35.7533 Q1495.34 32.5936 1490.52 32.5936 Q1484.81 32.5936 1481.45 36.4824 Q1478.08 40.3308 1478.08 46.9338 L1478.08 72.576 L1470.59 72.576 L1470.59 27.2059 L1478.08 27.2059 L1478.08 34.2544 Q1480.64 30.082 1484.2 28.0971 Q1487.77 26.1121 1492.67 26.1121 Q1497.61 26.1121 1501.05 28.6237 Q1504.54 31.1352 1506.2 35.9153 Z" fill="#000000" fill-rule="nonzero" fill-opacity="1" /><path clip-path="url(#clip530)" d="M1556.14 49.9314 Q1556.14 58.1548 1559.51 62.8538 Q1562.91 67.5124 1568.82 67.5124 Q1574.74 67.5124 1578.14 62.8538 Q1581.54 58.1548 1581.54 49.9314 Q1581.54 41.7081 1578.14 37.0496 Q1574.74 32.3505 1568.82 32.3505 Q1562.91 32.3505 1559.51 37.0496 Q1556.14 41.7081 1556.14 49.9314 M1581.54 65.7705 Q1579.19 69.8214 1575.59 71.8063 Q1572.02 73.7508 1567 73.7508 Q1558.78 73.7508 1553.59 67.1883 Q1548.45 60.6258 1548.45 49.9314 Q1548.45 39.2371 1553.59 32.6746 Q1558.78 26.1121 1567 26.1121 Q1572.02 26.1121 1575.59 28.0971 Q1579.19 30.0415 1581.54 34.0924 L1581.54 27.2059 L1589 27.2059 L1589 89.8329 L1581.54 89.8329 L1581.54 65.7705 Z" fill="#000000" fill-rule="nonzero" fill-opacity="1" /><path clip-path="url(#clip530)" d="M1631.69 34.9026 L1683.63 34.9026 L1683.63 41.7081 L1631.69 41.7081 L1631.69 34.9026 M1631.69 51.4303 L1683.63 51.4303 L1683.63 58.3168 L1631.69 58.3168 L1631.69 51.4303 Z" fill="#000000" fill-rule="nonzero" fill-opacity="1" /><path clip-path="url(#clip530)" d="M1725.59 12.096 L1764.48 12.096 L1764.48 15.5798 L1742.53 72.576 L1733.98 72.576 L1754.64 18.9825 L1725.59 18.9825 L1725.59 12.096 Z" fill="#000000" fill-rule="nonzero" fill-opacity="1" /><path clip-path="url(#clip530)" d="M1806.09 12.096 L1818.28 12.096 L1833.71 53.2532 L1849.23 12.096 L1861.42 12.096 L1861.42 72.576 L1853.44 72.576 L1853.44 19.4686 L1837.84 60.9499 L1829.62 60.9499 L1814.03 19.4686 L1814.03 72.576 L1806.09 72.576 L1806.09 12.096 Z" fill="#000000" fill-rule="nonzero" fill-opacity="1" /><path clip-path="url(#clip530)" d="M1916.15 48.0275 L1916.15 51.6733 L1881.88 51.6733 Q1882.36 59.3701 1886.5 63.421 Q1890.67 67.4314 1898.08 67.4314 Q1902.38 67.4314 1906.39 66.3781 Q1910.44 65.3249 1914.41 63.2184 L1914.41 70.267 Q1910.4 71.9684 1906.18 72.8596 Q1901.97 73.7508 1897.64 73.7508 Q1886.78 73.7508 1880.42 67.4314 Q1874.1 61.1119 1874.1 50.3365 Q1874.1 39.1965 1880.1 32.6746 Q1886.13 26.1121 1896.34 26.1121 Q1905.49 26.1121 1910.8 32.0264 Q1916.15 37.9003 1916.15 48.0275 M1908.69 45.84 Q1908.61 39.7232 1905.25 36.0774 Q1901.93 32.4315 1896.42 32.4315 Q1890.18 32.4315 1886.41 35.9558 Q1882.69 39.4801 1882.12 45.8805 L1908.69 45.84 Z" fill="#000000" fill-rule="nonzero" fill-opacity="1" /><path clip-path="url(#clip530)" d="M1944.3 72.576 L1921.21 12.096 L1929.76 12.096 L1948.92 63.0159 L1968.12 12.096 L1976.63 12.096 L1953.58 72.576 L1944.3 72.576 Z" fill="#000000" fill-rule="nonzero" fill-opacity="1" /><polyline clip-path="url(#clip532)" style="stroke:#009af9; stroke-linecap:round; stroke-linejoin:round; stroke-width:10; stroke-opacity:1; fill:none" points="338.375,167.305 387.268,165.387 436.161,163.677 485.053,162.267 533.946,161.2 582.839,160.513 631.732,160.256 680.624,160.502 729.517,161.387 778.41,163.179 827.303,166.345 876.195,171.448 925.088,179.038 973.981,189.602 1022.87,203.589 1071.77,221.459 1120.66,243.715 1169.55,270.942 1218.44,303.834 1267.34,343.256 1316.23,390.347 1365.12,446.589 1414.02,514.009 1462.91,595.525 1511.8,695.559 1560.69,820.858 1609.59,979.263 1658.48,1152.62 1707.37,1261.63 1756.26,1310.36 1805.16,1335.09 1854.05,1349.7 1902.94,1359.36 1951.84,1366.17 2000.73,1371.19 2049.62,1375.16 2098.51,1378.25 2147.41,1380.83 2196.3,1382.95 2245.19,1384.83 2294.08,1386.4 "/>
<path clip-path="url(#clip530)" d="M1878.57 270.476 L2283.65 270.476 L2283.65 166.796 L1878.57 166.796  Z" fill="#ffffff" fill-rule="evenodd" fill-opacity="1"/>
<polyline clip-path="url(#clip530)" style="stroke:#000000; stroke-linecap:round; stroke-linejoin:round; stroke-width:4; stroke-opacity:1; fill:none" points="1878.57,270.476 2283.65,270.476 2283.65,166.796 1878.57,166.796 1878.57,270.476 "/>
<polyline clip-path="url(#clip530)" style="stroke:#009af9; stroke-linecap:round; stroke-linejoin:round; stroke-width:10; stroke-opacity:1; fill:none" points="1901.61,218.636 2039.81,218.636 "/>
<path clip-path="url(#clip530)" d="M2081.27 210.754 L2081.27 214.782 Q2079.46 213.856 2077.52 213.393 Q2075.57 212.93 2073.49 212.93 Q2070.32 212.93 2068.72 213.902 Q2067.15 214.874 2067.15 216.819 Q2067.15 218.3 2068.28 219.157 Q2069.42 219.99 2072.84 220.754 L2074.3 221.078 Q2078.84 222.05 2080.74 223.832 Q2082.66 225.592 2082.66 228.763 Q2082.66 232.374 2079.79 234.481 Q2076.94 236.587 2071.94 236.587 Q2069.86 236.587 2067.59 236.17 Q2065.34 235.777 2062.84 234.967 L2062.84 230.569 Q2065.2 231.795 2067.5 232.42 Q2069.79 233.022 2072.03 233.022 Q2075.04 233.022 2076.66 232.004 Q2078.28 230.962 2078.28 229.087 Q2078.28 227.351 2077.1 226.425 Q2075.95 225.499 2071.99 224.643 L2070.51 224.295 Q2066.55 223.462 2064.79 221.749 Q2063.03 220.013 2063.03 217.004 Q2063.03 213.346 2065.62 211.356 Q2068.21 209.365 2072.98 209.365 Q2075.34 209.365 2077.43 209.712 Q2079.51 210.059 2081.27 210.754 Z" fill="#000000" fill-rule="nonzero" fill-opacity="1" /><path clip-path="url(#clip530)" d="M2110.99 220.268 L2110.99 235.916 L2106.73 235.916 L2106.73 220.407 Q2106.73 216.726 2105.3 214.897 Q2103.86 213.069 2100.99 213.069 Q2097.54 213.069 2095.55 215.268 Q2093.56 217.467 2093.56 221.263 L2093.56 235.916 L2089.28 235.916 L2089.28 199.897 L2093.56 199.897 L2093.56 214.018 Q2095.09 211.68 2097.15 210.522 Q2099.23 209.365 2101.94 209.365 Q2106.41 209.365 2108.7 212.143 Q2110.99 214.897 2110.99 220.268 Z" fill="#000000" fill-rule="nonzero" fill-opacity="1" /><path clip-path="url(#clip530)" d="M2129.53 212.976 Q2126.11 212.976 2124.12 215.661 Q2122.13 218.323 2122.13 222.976 Q2122.13 227.629 2124.09 230.314 Q2126.08 232.976 2129.53 232.976 Q2132.94 232.976 2134.93 230.291 Q2136.92 227.606 2136.92 222.976 Q2136.92 218.37 2134.93 215.684 Q2132.94 212.976 2129.53 212.976 M2129.53 209.365 Q2135.09 209.365 2138.26 212.976 Q2141.43 216.587 2141.43 222.976 Q2141.43 229.342 2138.26 232.976 Q2135.09 236.587 2129.53 236.587 Q2123.95 236.587 2120.78 232.976 Q2117.63 229.342 2117.63 222.976 Q2117.63 216.587 2120.78 212.976 Q2123.95 209.365 2129.53 209.365 Z" fill="#000000" fill-rule="nonzero" fill-opacity="1" /><path clip-path="url(#clip530)" d="M2158.54 212.976 Q2155.11 212.976 2153.12 215.661 Q2151.13 218.323 2151.13 222.976 Q2151.13 227.629 2153.1 230.314 Q2155.09 232.976 2158.54 232.976 Q2161.94 232.976 2163.93 230.291 Q2165.92 227.606 2165.92 222.976 Q2165.92 218.37 2163.93 215.684 Q2161.94 212.976 2158.54 212.976 M2158.54 209.365 Q2164.09 209.365 2167.26 212.976 Q2170.44 216.587 2170.44 222.976 Q2170.44 229.342 2167.26 232.976 Q2164.09 236.587 2158.54 236.587 Q2152.96 236.587 2149.79 232.976 Q2146.64 229.342 2146.64 222.976 Q2146.64 216.587 2149.79 212.976 Q2152.96 209.365 2158.54 209.365 Z" fill="#000000" fill-rule="nonzero" fill-opacity="1" /><path clip-path="url(#clip530)" d="M2181.71 202.629 L2181.71 209.99 L2190.48 209.99 L2190.48 213.3 L2181.71 213.3 L2181.71 227.374 Q2181.71 230.545 2182.57 231.448 Q2183.44 232.351 2186.11 232.351 L2190.48 232.351 L2190.48 235.916 L2186.11 235.916 Q2181.18 235.916 2179.3 234.087 Q2177.43 232.235 2177.43 227.374 L2177.43 213.3 L2174.3 213.3 L2174.3 209.99 L2177.43 209.99 L2177.43 202.629 L2181.71 202.629 Z" fill="#000000" fill-rule="nonzero" fill-opacity="1" /><path clip-path="url(#clip530)" d="M2196.08 209.99 L2200.34 209.99 L2200.34 235.916 L2196.08 235.916 L2196.08 209.99 M2196.08 199.897 L2200.34 199.897 L2200.34 205.291 L2196.08 205.291 L2196.08 199.897 Z" fill="#000000" fill-rule="nonzero" fill-opacity="1" /><path clip-path="url(#clip530)" d="M2230.81 220.268 L2230.81 235.916 L2226.55 235.916 L2226.55 220.407 Q2226.55 216.726 2225.11 214.897 Q2223.68 213.069 2220.81 213.069 Q2217.36 213.069 2215.37 215.268 Q2213.38 217.467 2213.38 221.263 L2213.38 235.916 L2209.09 235.916 L2209.09 209.99 L2213.38 209.99 L2213.38 214.018 Q2214.9 211.68 2216.96 210.522 Q2219.05 209.365 2221.75 209.365 Q2226.22 209.365 2228.51 212.143 Q2230.81 214.897 2230.81 220.268 Z" fill="#000000" fill-rule="nonzero" fill-opacity="1" /><path clip-path="url(#clip530)" d="M2256.36 222.652 Q2256.36 218.022 2254.44 215.476 Q2252.54 212.93 2249.09 212.93 Q2245.67 212.93 2243.75 215.476 Q2241.85 218.022 2241.85 222.652 Q2241.85 227.258 2243.75 229.805 Q2245.67 232.351 2249.09 232.351 Q2252.54 232.351 2254.44 229.805 Q2256.36 227.258 2256.36 222.652 M2260.62 232.698 Q2260.62 239.318 2257.68 242.536 Q2254.74 245.777 2248.68 245.777 Q2246.43 245.777 2244.44 245.43 Q2242.45 245.105 2240.57 244.411 L2240.57 240.268 Q2242.45 241.286 2244.28 241.772 Q2246.11 242.258 2248 242.258 Q2252.19 242.258 2254.28 240.059 Q2256.36 237.883 2256.36 233.462 L2256.36 231.356 Q2255.04 233.647 2252.98 234.781 Q2250.92 235.916 2248.05 235.916 Q2243.28 235.916 2240.37 232.281 Q2237.45 228.647 2237.45 222.652 Q2237.45 216.633 2240.37 212.999 Q2243.28 209.365 2248.05 209.365 Q2250.92 209.365 2252.98 210.499 Q2255.04 211.633 2256.36 213.925 L2256.36 209.99 L2260.62 209.99 L2260.62 232.698 Z" fill="#000000" fill-rule="nonzero" fill-opacity="1" /></svg>
