<?xml version="1.0" encoding="utf-8"?>
<svg xmlns="http://www.w3.org/2000/svg" xmlns:xlink="http://www.w3.org/1999/xlink" width="600" height="400" viewBox="0 0 2400 1600">
<defs>
  <clipPath id="clip700">
    <rect x="0" y="0" width="2400" height="1600"/>
  </clipPath>
</defs>
<path clip-path="url(#clip700)" d="M0 1600 L2400 1600 L2400 0 L0 0  Z" fill="#ffffff" fill-rule="evenodd" fill-opacity="1"/>
<defs>
  <clipPath id="clip701">
    <rect x="1335" y="748" width="1042" height="781"/>
  </clipPath>
</defs>
<path clip-path="url(#clip700)" d="M279.704 1423.18 L2352.76 1423.18 L2352.76 123.472 L279.704 123.472  Z" fill="#ffffff" fill-rule="evenodd" fill-opacity="1"/>
<defs>
  <clipPath id="clip702">
    <rect x="279" y="123" width="2074" height="1301"/>
  </clipPath>
</defs>
<polyline clip-path="url(#clip702)" style="stroke:#000000; stroke-linecap:round; stroke-linejoin:round; stroke-width:2; stroke-opacity:0.1; fill:none" points="631.732,1423.18 631.732,123.472 "/>
<polyline clip-path="url(#clip702)" style="stroke:#000000; stroke-linecap:round; stroke-linejoin:round; stroke-width:2; stroke-opacity:0.1; fill:none" points="1120.66,1423.18 1120.66,123.472 "/>
<polyline clip-path="url(#clip702)" style="stroke:#000000; stroke-linecap:round; stroke-linejoin:round; stroke-width:2; stroke-opacity:0.1; fill:none" points="1609.59,1423.18 1609.59,123.472 "/>
<polyline clip-path="url(#clip702)" style="stroke:#000000; stroke-linecap:round; stroke-linejoin:round; stroke-width:2; stroke-opacity:0.1; fill:none" points="2098.51,1423.18 2098.51,123.472 "/>
<polyline clip-path="url(#clip702)" style="stroke:#000000; stroke-linecap:round; stroke-linejoin:round; stroke-width:2; stroke-opacity:0.1; fill:none" points="279.704,1285.6 2352.76,1285.6 "/>
<polyline clip-path="url(#clip702)" style="stroke:#000000; stroke-linecap:round; stroke-linejoin:round; stroke-width:2; stroke-opacity:0.1; fill:none" points="279.704,1104.8 2352.76,1104.8 "/>
<polyline clip-path="url(#clip702)" style="stroke:#000000; stroke-linecap:round; stroke-linejoin:round; stroke-width:2; stroke-opacity:0.1; fill:none" points="279.704,924.009 2352.76,924.009 "/>
<polyline clip-path="url(#clip702)" style="stroke:#000000; stroke-linecap:round; stroke-linejoin:round; stroke-width:2; stroke-opacity:0.1; fill:none" points="279.704,743.213 2352.76,743.213 "/>
<polyline clip-path="url(#clip702)" style="stroke:#000000; stroke-linecap:round; stroke-linejoin:round; stroke-width:2; stroke-opacity:0.1; fill:none" points="279.704,562.418 2352.76,562.418 "/>
<polyline clip-path="url(#clip702)" style="stroke:#000000; stroke-linecap:round; stroke-linejoin:round; stroke-width:2; stroke-opacity:0.1; fill:none" points="279.704,381.623 2352.76,381.623 "/>
<polyline clip-path="url(#clip702)" style="stroke:#000000; stroke-linecap:round; stroke-linejoin:round; stroke-width:2; stroke-opacity:0.1; fill:none" points="279.704,200.827 2352.76,200.827 "/>
<polyline clip-path="url(#clip700)" style="stroke:#000000; stroke-linecap:round; stroke-linejoin:round; stroke-width:4; stroke-opacity:1; fill:none" points="279.704,1423.18 2352.76,1423.18 "/>
<polyline clip-path="url(#clip700)" style="stroke:#000000; stroke-linecap:round; stroke-linejoin:round; stroke-width:4; stroke-opacity:1; fill:none" points="631.732,1423.18 631.732,1404.28 "/>
<polyline clip-path="url(#clip700)" style="stroke:#000000; stroke-linecap:round; stroke-linejoin:round; stroke-width:4; stroke-opacity:1; fill:none" points="1120.66,1423.18 1120.66,1404.28 "/>
<polyline clip-path="url(#clip700)" style="stroke:#000000; stroke-linecap:round; stroke-linejoin:round; stroke-width:4; stroke-opacity:1; fill:none" points="1609.59,1423.18 1609.59,1404.28 "/>
<polyline clip-path="url(#clip700)" style="stroke:#000000; stroke-linecap:round; stroke-linejoin:round; stroke-width:4; stroke-opacity:1; fill:none" points="2098.51,1423.18 2098.51,1404.28 "/>
<path clip-path="url(#clip700)" d="M606.431 1451.02 L624.787 1451.02 L624.787 1454.96 L610.713 1454.96 L610.713 1463.43 Q611.732 1463.08 612.75 1462.92 Q613.769 1462.73 614.787 1462.73 Q620.574 1462.73 623.954 1465.9 Q627.333 1469.08 627.333 1474.49 Q627.333 1480.07 623.861 1483.17 Q620.389 1486.25 614.07 1486.25 Q611.894 1486.25 609.625 1485.88 Q607.38 1485.51 604.972 1484.77 L604.972 1480.07 Q607.056 1481.2 609.278 1481.76 Q611.5 1482.32 613.977 1482.32 Q617.982 1482.32 620.32 1480.21 Q622.658 1478.1 622.658 1474.49 Q622.658 1470.88 620.32 1468.77 Q617.982 1466.67 613.977 1466.67 Q612.102 1466.67 610.227 1467.08 Q608.375 1467.5 606.431 1468.38 L606.431 1451.02 Z" fill="#000000" fill-rule="nonzero" fill-opacity="1" /><path clip-path="url(#clip700)" d="M646.546 1454.1 Q642.935 1454.1 641.107 1457.66 Q639.301 1461.2 639.301 1468.33 Q639.301 1475.44 641.107 1479.01 Q642.935 1482.55 646.546 1482.55 Q650.181 1482.55 651.986 1479.01 Q653.815 1475.44 653.815 1468.33 Q653.815 1461.2 651.986 1457.66 Q650.181 1454.1 646.546 1454.1 M646.546 1450.39 Q652.356 1450.39 655.412 1455 Q658.491 1459.58 658.491 1468.33 Q658.491 1477.06 655.412 1481.67 Q652.356 1486.25 646.546 1486.25 Q640.736 1486.25 637.658 1481.67 Q634.602 1477.06 634.602 1468.33 Q634.602 1459.58 637.658 1455 Q640.736 1450.39 646.546 1450.39 Z" fill="#000000" fill-rule="nonzero" fill-opacity="1" /><path clip-path="url(#clip700)" d="M1080.27 1481.64 L1087.9 1481.64 L1087.9 1455.28 L1079.59 1456.95 L1079.59 1452.69 L1087.86 1451.02 L1092.53 1451.02 L1092.53 1481.64 L1100.17 1481.64 L1100.17 1485.58 L1080.27 1485.58 L1080.27 1481.64 Z" fill="#000000" fill-rule="nonzero" fill-opacity="1" /><path clip-path="url(#clip700)" d="M1119.62 1454.1 Q1116.01 1454.1 1114.18 1457.66 Q1112.37 1461.2 1112.37 1468.33 Q1112.37 1475.44 1114.18 1479.01 Q1116.01 1482.55 1119.62 1482.55 Q1123.25 1482.55 1125.06 1479.01 Q1126.89 1475.44 1126.89 1468.33 Q1126.89 1461.2 1125.06 1457.66 Q1123.25 1454.1 1119.62 1454.1 M1119.62 1450.39 Q1125.43 1450.39 1128.48 1455 Q1131.56 1459.58 1131.56 1468.33 Q1131.56 1477.06 1128.48 1481.67 Q1125.43 1486.25 1119.62 1486.25 Q1113.81 1486.25 1110.73 1481.67 Q1107.67 1477.06 1107.67 1468.33 Q1107.67 1459.58 1110.73 1455 Q1113.81 1450.39 1119.62 1450.39 Z" fill="#000000" fill-rule="nonzero" fill-opacity="1" /><path clip-path="url(#clip700)" d="M1149.78 1454.1 Q1146.17 1454.1 1144.34 1457.66 Q1142.53 1461.2 1142.53 1468.33 Q1142.53 1475.44 1144.34 1479.01 Q1146.17 1482.55 1149.78 1482.55 Q1153.41 1482.55 1155.22 1479.01 Q1157.05 1475.44 1157.05 1468.33 Q1157.05 1461.2 1155.22 1457.66 Q1153.41 1454.1 1149.78 1454.1 M1149.78 1450.39 Q1155.59 1450.39 1158.64 1455 Q1161.72 1459.58 1161.72 1468.33 Q1161.72 1477.06 1158.64 1481.67 Q1155.59 1486.25 1149.78 1486.25 Q1143.97 1486.25 1140.89 1481.67 Q1137.83 1477.06 1137.83 1468.33 Q1137.83 1459.58 1140.89 1455 Q1143.97 1450.39 1149.78 1450.39 Z" fill="#000000" fill-rule="nonzero" fill-opacity="1" /><path clip-path="url(#clip700)" d="M1569.19 1481.64 L1576.83 1481.64 L1576.83 1455.28 L1568.52 1456.95 L1568.52 1452.69 L1576.79 1451.02 L1581.46 1451.02 L1581.46 1481.64 L1589.1 1481.64 L1589.1 1485.58 L1569.19 1485.58 L1569.19 1481.64 Z" fill="#000000" fill-rule="nonzero" fill-opacity="1" /><path clip-path="url(#clip700)" d="M1598.59 1451.02 L1616.95 1451.02 L1616.95 1454.96 L1602.87 1454.96 L1602.87 1463.43 Q1603.89 1463.08 1604.91 1462.92 Q1605.93 1462.73 1606.95 1462.73 Q1612.73 1462.73 1616.11 1465.9 Q1619.49 1469.08 1619.49 1474.49 Q1619.49 1480.07 1616.02 1483.17 Q1612.55 1486.25 1606.23 1486.25 Q1604.05 1486.25 1601.79 1485.88 Q1599.54 1485.51 1597.13 1484.77 L1597.13 1480.07 Q1599.22 1481.2 1601.44 1481.76 Q1603.66 1482.32 1606.14 1482.32 Q1610.14 1482.32 1612.48 1480.21 Q1614.82 1478.1 1614.82 1474.49 Q1614.82 1470.88 1612.48 1468.77 Q1610.14 1466.67 1606.14 1466.67 Q1604.26 1466.67 1602.39 1467.08 Q1600.54 1467.5 1598.59 1468.38 L1598.59 1451.02 Z" fill="#000000" fill-rule="nonzero" fill-opacity="1" /><path clip-path="url(#clip700)" d="M1638.71 1454.1 Q1635.1 1454.1 1633.27 1457.66 Q1631.46 1461.2 1631.46 1468.33 Q1631.46 1475.44 1633.27 1479.01 Q1635.1 1482.55 1638.71 1482.55 Q1642.34 1482.55 1644.15 1479.01 Q1645.98 1475.44 1645.98 1468.33 Q1645.98 1461.2 1644.15 1457.66 Q1642.34 1454.1 1638.71 1454.1 M1638.71 1450.39 Q1644.52 1450.39 1647.57 1455 Q1650.65 1459.58 1650.65 1468.33 Q1650.65 1477.06 1647.57 1481.67 Q1644.52 1486.25 1638.71 1486.25 Q1632.9 1486.25 1629.82 1481.67 Q1626.76 1477.06 1626.76 1468.33 Q1626.76 1459.58 1629.82 1455 Q1632.9 1450.39 1638.71 1450.39 Z" fill="#000000" fill-rule="nonzero" fill-opacity="1" /><path clip-path="url(#clip700)" d="M2062.21 1481.64 L2078.53 1481.64 L2078.53 1485.58 L2056.58 1485.58 L2056.58 1481.64 Q2059.24 1478.89 2063.83 1474.26 Q2068.43 1469.61 2069.61 1468.27 Q2071.86 1465.74 2072.74 1464.01 Q2073.64 1462.25 2073.64 1460.56 Q2073.64 1457.8 2071.7 1456.07 Q2069.78 1454.33 2066.67 1454.33 Q2064.47 1454.33 2062.02 1455.09 Q2059.59 1455.86 2056.81 1457.41 L2056.81 1452.69 Q2059.64 1451.55 2062.09 1450.97 Q2064.54 1450.39 2066.58 1450.39 Q2071.95 1450.39 2075.15 1453.08 Q2078.34 1455.77 2078.34 1460.26 Q2078.34 1462.39 2077.53 1464.31 Q2076.74 1466.2 2074.64 1468.8 Q2074.06 1469.47 2070.96 1472.69 Q2067.85 1475.88 2062.21 1481.64 Z" fill="#000000" fill-rule="nonzero" fill-opacity="1" /><path clip-path="url(#clip700)" d="M2098.34 1454.1 Q2094.73 1454.1 2092.9 1457.66 Q2091.09 1461.2 2091.09 1468.33 Q2091.09 1475.44 2092.9 1479.01 Q2094.73 1482.55 2098.34 1482.55 Q2101.97 1482.55 2103.78 1479.01 Q2105.61 1475.44 2105.61 1468.33 Q2105.61 1461.2 2103.78 1457.66 Q2101.97 1454.1 2098.34 1454.1 M2098.34 1450.39 Q2104.15 1450.39 2107.21 1455 Q2110.28 1459.58 2110.28 1468.33 Q2110.28 1477.06 2107.21 1481.67 Q2104.15 1486.25 2098.34 1486.25 Q2092.53 1486.25 2089.45 1481.67 Q2086.4 1477.06 2086.4 1468.33 Q2086.4 1459.58 2089.45 1455 Q2092.53 1450.39 2098.34 1450.39 Z" fill="#000000" fill-rule="nonzero" fill-opacity="1" /><path clip-path="url(#clip700)" d="M2128.5 1454.1 Q2124.89 1454.1 2123.06 1457.66 Q2121.26 1461.2 2121.26 1468.33 Q2121.26 1475.44 2123.06 1479.01 Q2124.89 1482.55 2128.5 1482.55 Q2132.14 1482.55 2133.94 1479.01 Q2135.77 1475.44 2135.77 1468.33 Q2135.77 1461.2 2133.94 1457.66 Q2132.14 1454.1 2128.5 1454.1 M2128.5 1450.39 Q2134.31 1450.39 2137.37 1455 Q2140.45 1459.58 2140.45 1468.33 Q2140.45 1477.06 2137.37 1481.67 Q2134.31 1486.25 2128.5 1486.25 Q2122.69 1486.25 2119.61 1481.67 Q2116.56 1477.06 2116.56 1468.33 Q2116.56 1459.58 2119.61 1455 Q2122.69 1450.39 2128.5 1450.39 Z" fill="#000000" fill-rule="nonzero" fill-opacity="1" /><path clip-path="url(#clip700)" d="M1192.77 1520.52 L1232.97 1520.52 L1232.97 1525.93 L1216.1 1525.93 L1216.1 1568.04 L1209.64 1568.04 L1209.64 1525.93 L1192.77 1525.93 L1192.77 1520.52 Z" fill="#000000" fill-rule="nonzero" fill-opacity="1" /><path clip-path="url(#clip700)" d="M1259.1 1518.52 L1272.59 1518.52 L1272.59 1523.07 L1264.95 1523.07 L1264.95 1572.09 L1272.59 1572.09 L1272.59 1576.64 L1259.1 1576.64 L1259.1 1518.52 Z" fill="#000000" fill-rule="nonzero" fill-opacity="1" /><path clip-path="url(#clip700)" d="M1285.32 1520.52 L1294.9 1520.52 L1307.03 1552.86 L1319.22 1520.52 L1328.8 1520.52 L1328.8 1568.04 L1322.53 1568.04 L1322.53 1526.32 L1310.28 1558.91 L1303.82 1558.91 L1291.56 1526.32 L1291.56 1568.04 L1285.32 1568.04 L1285.32 1520.52 Z" fill="#000000" fill-rule="nonzero" fill-opacity="1" /><path clip-path="url(#clip700)" d="M1371.8 1548.76 L1371.8 1551.62 L1344.88 1551.62 Q1345.26 1557.67 1348.5 1560.85 Q1351.78 1564 1357.61 1564 Q1360.98 1564 1364.13 1563.17 Q1367.31 1562.35 1370.43 1560.69 L1370.43 1566.23 Q1367.28 1567.57 1363.97 1568.27 Q1360.66 1568.97 1357.26 1568.97 Q1348.73 1568.97 1343.73 1564 Q1338.76 1559.04 1338.76 1550.57 Q1338.76 1541.82 1343.48 1536.69 Q1348.22 1531.54 1356.24 1531.54 Q1363.43 1531.54 1367.6 1536.18 Q1371.8 1540.8 1371.8 1548.76 M1365.95 1547.04 Q1365.88 1542.23 1363.24 1539.37 Q1360.63 1536.5 1356.3 1536.5 Q1351.4 1536.5 1348.44 1539.27 Q1345.51 1542.04 1345.07 1547.07 L1365.95 1547.04 Z" fill="#000000" fill-rule="nonzero" fill-opacity="1" /><path clip-path="url(#clip700)" d="M1393.92 1568.04 L1375.78 1520.52 L1382.5 1520.52 L1397.55 1560.53 L1412.64 1520.52 L1419.32 1520.52 L1401.21 1568.04 L1393.92 1568.04 Z" fill="#000000" fill-rule="nonzero" fill-opacity="1" /><path clip-path="url(#clip700)" d="M1439.69 1518.52 L1439.69 1576.64 L1426.2 1576.64 L1426.2 1572.09 L1433.8 1572.09 L1433.8 1523.07 L1426.2 1523.07 L1426.2 1518.52 L1439.69 1518.52 Z" fill="#000000" fill-rule="nonzero" fill-opacity="1" /><polyline clip-path="url(#clip700)" style="stroke:#000000; stroke-linecap:round; stroke-linejoin:round; stroke-width:4; stroke-opacity:1; fill:none" points="279.704,1423.18 279.704,123.472 "/>
<polyline clip-path="url(#clip700)" style="stroke:#000000; stroke-linecap:round; stroke-linejoin:round; stroke-width:4; stroke-opacity:1; fill:none" points="279.704,1285.6 298.602,1285.6 "/>
<polyline clip-path="url(#clip700)" style="stroke:#000000; stroke-linecap:round; stroke-linejoin:round; stroke-width:4; stroke-opacity:1; fill:none" points="279.704,1104.8 298.602,1104.8 "/>
<polyline clip-path="url(#clip700)" style="stroke:#000000; stroke-linecap:round; stroke-linejoin:round; stroke-width:4; stroke-opacity:1; fill:none" points="279.704,924.009 298.602,924.009 "/>
<polyline clip-path="url(#clip700)" style="stroke:#000000; stroke-linecap:round; stroke-linejoin:round; stroke-width:4; stroke-opacity:1; fill:none" points="279.704,743.213 298.602,743.213 "/>
<polyline clip-path="url(#clip700)" style="stroke:#000000; stroke-linecap:round; stroke-linejoin:round; stroke-width:4; stroke-opacity:1; fill:none" points="279.704,562.418 298.602,562.418 "/>
<polyline clip-path="url(#clip700)" style="stroke:#000000; stroke-linecap:round; stroke-linejoin:round; stroke-width:4; stroke-opacity:1; fill:none" points="279.704,381.623 298.602,381.623 "/>
<polyline clip-path="url(#clip700)" style="stroke:#000000; stroke-linecap:round; stroke-linejoin:round; stroke-width:4; stroke-opacity:1; fill:none" points="279.704,200.827 298.602,200.827 "/>
<path clip-path="url(#clip700)" d="M127.2 1271.4 Q123.589 1271.4 121.76 1274.96 Q119.955 1278.5 119.955 1285.63 Q119.955 1292.74 121.76 1296.31 Q123.589 1299.85 127.2 1299.85 Q130.834 1299.85 132.64 1296.31 Q134.468 1292.74 134.468 1285.63 Q134.468 1278.5 132.64 1274.96 Q130.834 1271.4 127.2 1271.4 M127.2 1267.69 Q133.01 1267.69 136.066 1272.3 Q139.144 1276.88 139.144 1285.63 Q139.144 1294.36 136.066 1298.97 Q133.01 1303.55 127.2 1303.55 Q121.39 1303.55 118.311 1298.97 Q115.256 1294.36 115.256 1285.63 Q115.256 1276.88 118.311 1272.3 Q121.39 1267.69 127.2 1267.69 Z" fill="#000000" fill-rule="nonzero" fill-opacity="1" /><path clip-path="url(#clip700)" d="M147.362 1297 L152.246 1297 L152.246 1302.88 L147.362 1302.88 L147.362 1297 Z" fill="#000000" fill-rule="nonzero" fill-opacity="1" /><path clip-path="url(#clip700)" d="M172.431 1271.4 Q168.82 1271.4 166.991 1274.96 Q165.186 1278.5 165.186 1285.63 Q165.186 1292.74 166.991 1296.31 Q168.82 1299.85 172.431 1299.85 Q176.065 1299.85 177.871 1296.31 Q179.7 1292.74 179.7 1285.63 Q179.7 1278.5 177.871 1274.96 Q176.065 1271.4 172.431 1271.4 M172.431 1267.69 Q178.241 1267.69 181.297 1272.3 Q184.376 1276.88 184.376 1285.63 Q184.376 1294.36 181.297 1298.97 Q178.241 1303.55 172.431 1303.55 Q166.621 1303.55 163.542 1298.97 Q160.487 1294.36 160.487 1285.63 Q160.487 1276.88 163.542 1272.3 Q166.621 1267.69 172.431 1267.69 Z" fill="#000000" fill-rule="nonzero" fill-opacity="1" /><path clip-path="url(#clip700)" d="M202.593 1271.4 Q198.982 1271.4 197.153 1274.96 Q195.348 1278.5 195.348 1285.63 Q195.348 1292.74 197.153 1296.31 Q198.982 1299.85 202.593 1299.85 Q206.227 1299.85 208.033 1296.31 Q209.861 1292.74 209.861 1285.63 Q209.861 1278.5 208.033 1274.96 Q206.227 1271.4 202.593 1271.4 M202.593 1267.69 Q208.403 1267.69 211.459 1272.3 Q214.537 1276.88 214.537 1285.63 Q214.537 1294.36 211.459 1298.97 Q208.403 1303.55 202.593 1303.55 Q196.783 1303.55 193.704 1298.97 Q190.649 1294.36 190.649 1285.63 Q190.649 1276.88 193.704 1272.3 Q196.783 1267.69 202.593 1267.69 Z" fill="#000000" fill-rule="nonzero" fill-opacity="1" /><path clip-path="url(#clip700)" d="M222.801 1268.32 L241.158 1268.32 L241.158 1272.25 L227.084 1272.25 L227.084 1280.73 Q228.102 1280.38 229.121 1280.22 Q230.139 1280.03 231.158 1280.03 Q236.945 1280.03 240.324 1283.2 Q243.704 1286.37 243.704 1291.79 Q243.704 1297.37 240.232 1300.47 Q236.76 1303.55 230.44 1303.55 Q228.264 1303.55 225.996 1303.18 Q223.75 1302.81 221.343 1302.07 L221.343 1297.37 Q223.426 1298.5 225.648 1299.06 Q227.871 1299.62 230.347 1299.62 Q234.352 1299.62 236.69 1297.51 Q239.028 1295.4 239.028 1291.79 Q239.028 1288.18 236.69 1286.07 Q234.352 1283.97 230.347 1283.97 Q228.473 1283.97 226.598 1284.38 Q224.746 1284.8 222.801 1285.68 L222.801 1268.32 Z" fill="#000000" fill-rule="nonzero" fill-opacity="1" /><path clip-path="url(#clip700)" d="M126.205 1090.6 Q122.593 1090.6 120.765 1094.17 Q118.959 1097.71 118.959 1104.84 Q118.959 1111.95 120.765 1115.51 Q122.593 1119.05 126.205 1119.05 Q129.839 1119.05 131.644 1115.51 Q133.473 1111.95 133.473 1104.84 Q133.473 1097.71 131.644 1094.17 Q129.839 1090.6 126.205 1090.6 M126.205 1086.9 Q132.015 1086.9 135.07 1091.51 Q138.149 1096.09 138.149 1104.84 Q138.149 1113.57 135.07 1118.17 Q132.015 1122.76 126.205 1122.76 Q120.394 1122.76 117.316 1118.17 Q114.26 1113.57 114.26 1104.84 Q114.26 1096.09 117.316 1091.51 Q120.394 1086.9 126.205 1086.9 Z" fill="#000000" fill-rule="nonzero" fill-opacity="1" /><path clip-path="url(#clip700)" d="M146.366 1116.2 L151.251 1116.2 L151.251 1122.08 L146.366 1122.08 L146.366 1116.2 Z" fill="#000000" fill-rule="nonzero" fill-opacity="1" /><path clip-path="url(#clip700)" d="M171.436 1090.6 Q167.825 1090.6 165.996 1094.17 Q164.19 1097.71 164.19 1104.84 Q164.19 1111.95 165.996 1115.51 Q167.825 1119.05 171.436 1119.05 Q175.07 1119.05 176.876 1115.51 Q178.704 1111.95 178.704 1104.84 Q178.704 1097.71 176.876 1094.17 Q175.07 1090.6 171.436 1090.6 M171.436 1086.9 Q177.246 1086.9 180.301 1091.51 Q183.38 1096.09 183.38 1104.84 Q183.38 1113.57 180.301 1118.17 Q177.246 1122.76 171.436 1122.76 Q165.626 1122.76 162.547 1118.17 Q159.491 1113.57 159.491 1104.84 Q159.491 1096.09 162.547 1091.51 Q165.626 1086.9 171.436 1086.9 Z" fill="#000000" fill-rule="nonzero" fill-opacity="1" /><path clip-path="url(#clip700)" d="M192.408 1118.15 L200.047 1118.15 L200.047 1091.78 L191.737 1093.45 L191.737 1089.19 L200 1087.52 L204.676 1087.52 L204.676 1118.15 L212.315 1118.15 L212.315 1122.08 L192.408 1122.08 L192.408 1118.15 Z" fill="#000000" fill-rule="nonzero" fill-opacity="1" /><path clip-path="url(#clip700)" d="M231.76 1090.6 Q228.148 1090.6 226.32 1094.17 Q224.514 1097.71 224.514 1104.84 Q224.514 1111.95 226.32 1115.51 Q228.148 1119.05 231.76 1119.05 Q235.394 1119.05 237.199 1115.51 Q239.028 1111.95 239.028 1104.84 Q239.028 1097.71 237.199 1094.17 Q235.394 1090.6 231.76 1090.6 M231.76 1086.9 Q237.57 1086.9 240.625 1091.51 Q243.704 1096.09 243.704 1104.84 Q243.704 1113.57 240.625 1118.17 Q237.57 1122.76 231.76 1122.76 Q225.949 1122.76 222.871 1118.17 Q219.815 1113.57 219.815 1104.84 Q219.815 1096.09 222.871 1091.51 Q225.949 1086.9 231.76 1086.9 Z" fill="#000000" fill-rule="nonzero" fill-opacity="1" /><path clip-path="url(#clip700)" d="M127.2 909.807 Q123.589 909.807 121.76 913.372 Q119.955 916.914 119.955 924.043 Q119.955 931.15 121.76 934.715 Q123.589 938.256 127.2 938.256 Q130.834 938.256 132.64 934.715 Q134.468 931.15 134.468 924.043 Q134.468 916.914 132.64 913.372 Q130.834 909.807 127.2 909.807 M127.2 906.104 Q133.01 906.104 136.066 910.71 Q139.144 915.293 139.144 924.043 Q139.144 932.77 136.066 937.377 Q133.01 941.96 127.2 941.96 Q121.39 941.96 118.311 937.377 Q115.256 932.77 115.256 924.043 Q115.256 915.293 118.311 910.71 Q121.39 906.104 127.2 906.104 Z" fill="#000000" fill-rule="nonzero" fill-opacity="1" /><path clip-path="url(#clip700)" d="M147.362 935.409 L152.246 935.409 L152.246 941.289 L147.362 941.289 L147.362 935.409 Z" fill="#000000" fill-rule="nonzero" fill-opacity="1" /><path clip-path="url(#clip700)" d="M172.431 909.807 Q168.82 909.807 166.991 913.372 Q165.186 916.914 165.186 924.043 Q165.186 931.15 166.991 934.715 Q168.82 938.256 172.431 938.256 Q176.065 938.256 177.871 934.715 Q179.7 931.15 179.7 924.043 Q179.7 916.914 177.871 913.372 Q176.065 909.807 172.431 909.807 M172.431 906.104 Q178.241 906.104 181.297 910.71 Q184.376 915.293 184.376 924.043 Q184.376 932.77 181.297 937.377 Q178.241 941.96 172.431 941.96 Q166.621 941.96 163.542 937.377 Q160.487 932.77 160.487 924.043 Q160.487 915.293 163.542 910.71 Q166.621 906.104 172.431 906.104 Z" fill="#000000" fill-rule="nonzero" fill-opacity="1" /><path clip-path="url(#clip700)" d="M193.403 937.354 L201.042 937.354 L201.042 910.988 L192.732 912.655 L192.732 908.395 L200.996 906.729 L205.672 906.729 L205.672 937.354 L213.311 937.354 L213.311 941.289 L193.403 941.289 L193.403 937.354 Z" fill="#000000" fill-rule="nonzero" fill-opacity="1" /><path clip-path="url(#clip700)" d="M222.801 906.729 L241.158 906.729 L241.158 910.664 L227.084 910.664 L227.084 919.136 Q228.102 918.789 229.121 918.627 Q230.139 918.442 231.158 918.442 Q236.945 918.442 240.324 921.613 Q243.704 924.784 243.704 930.201 Q243.704 935.779 240.232 938.881 Q236.76 941.96 230.44 941.96 Q228.264 941.96 225.996 941.59 Q223.75 941.219 221.343 940.479 L221.343 935.779 Q223.426 936.914 225.648 937.469 Q227.871 938.025 230.347 938.025 Q234.352 938.025 236.69 935.918 Q239.028 933.812 239.028 930.201 Q239.028 926.59 236.69 924.483 Q234.352 922.377 230.347 922.377 Q228.473 922.377 226.598 922.793 Q224.746 923.21 222.801 924.09 L222.801 906.729 Z" fill="#000000" fill-rule="nonzero" fill-opacity="1" /><path clip-path="url(#clip700)" d="M126.205 729.012 Q122.593 729.012 120.765 732.577 Q118.959 736.119 118.959 743.248 Q118.959 750.355 120.765 753.919 Q122.593 757.461 126.205 757.461 Q129.839 757.461 131.644 753.919 Q133.473 750.355 133.473 743.248 Q133.473 736.119 131.644 732.577 Q129.839 729.012 126.205 729.012 M126.205 725.308 Q132.015 725.308 135.07 729.915 Q138.149 734.498 138.149 743.248 Q138.149 751.975 135.07 756.581 Q132.015 761.165 126.205 761.165 Q120.394 761.165 117.316 756.581 Q114.26 751.975 114.26 743.248 Q114.26 734.498 117.316 729.915 Q120.394 725.308 126.205 725.308 Z" fill="#000000" fill-rule="nonzero" fill-opacity="1" /><path clip-path="url(#clip700)" d="M146.366 754.614 L151.251 754.614 L151.251 760.493 L146.366 760.493 L146.366 754.614 Z" fill="#000000" fill-rule="nonzero" fill-opacity="1" /><path clip-path="url(#clip700)" d="M171.436 729.012 Q167.825 729.012 165.996 732.577 Q164.19 736.119 164.19 743.248 Q164.19 750.355 165.996 753.919 Q167.825 757.461 171.436 757.461 Q175.07 757.461 176.876 753.919 Q178.704 750.355 178.704 743.248 Q178.704 736.119 176.876 732.577 Q175.07 729.012 171.436 729.012 M171.436 725.308 Q177.246 725.308 180.301 729.915 Q183.38 734.498 183.38 743.248 Q183.38 751.975 180.301 756.581 Q177.246 761.165 171.436 761.165 Q165.626 761.165 162.547 756.581 Q159.491 751.975 159.491 743.248 Q159.491 734.498 162.547 729.915 Q165.626 725.308 171.436 725.308 Z" fill="#000000" fill-rule="nonzero" fill-opacity="1" /><path clip-path="url(#clip700)" d="M195.625 756.558 L211.945 756.558 L211.945 760.493 L190 760.493 L190 756.558 Q192.663 753.804 197.246 749.174 Q201.852 744.521 203.033 743.179 Q205.278 740.656 206.158 738.919 Q207.061 737.16 207.061 735.47 Q207.061 732.716 205.116 730.98 Q203.195 729.244 200.093 729.244 Q197.894 729.244 195.44 730.007 Q193.01 730.771 190.232 732.322 L190.232 727.6 Q193.056 726.466 195.51 725.887 Q197.963 725.308 200 725.308 Q205.371 725.308 208.565 727.994 Q211.76 730.679 211.76 735.169 Q211.76 737.299 210.949 739.22 Q210.162 741.118 208.056 743.711 Q207.477 744.382 204.375 747.6 Q201.274 750.794 195.625 756.558 Z" fill="#000000" fill-rule="nonzero" fill-opacity="1" /><path clip-path="url(#clip700)" d="M231.76 729.012 Q228.148 729.012 226.32 732.577 Q224.514 736.119 224.514 743.248 Q224.514 750.355 226.32 753.919 Q228.148 757.461 231.76 757.461 Q235.394 757.461 237.199 753.919 Q239.028 750.355 239.028 743.248 Q239.028 736.119 237.199 732.577 Q235.394 729.012 231.76 729.012 M231.76 725.308 Q237.57 725.308 240.625 729.915 Q243.704 734.498 243.704 743.248 Q243.704 751.975 240.625 756.581 Q237.57 761.165 231.76 761.165 Q225.949 761.165 222.871 756.581 Q219.815 751.975 219.815 743.248 Q219.815 734.498 222.871 729.915 Q225.949 725.308 231.76 725.308 Z" fill="#000000" fill-rule="nonzero" fill-opacity="1" /><path clip-path="url(#clip700)" d="M127.2 548.217 Q123.589 548.217 121.76 551.782 Q119.955 555.323 119.955 562.453 Q119.955 569.559 121.76 573.124 Q123.589 576.666 127.2 576.666 Q130.834 576.666 132.64 573.124 Q134.468 569.559 134.468 562.453 Q134.468 555.323 132.64 551.782 Q130.834 548.217 127.2 548.217 M127.2 544.513 Q133.01 544.513 136.066 549.12 Q139.144 553.703 139.144 562.453 Q139.144 571.18 136.066 575.786 Q133.01 580.369 127.2 580.369 Q121.39 580.369 118.311 575.786 Q115.256 571.18 115.256 562.453 Q115.256 553.703 118.311 549.12 Q121.39 544.513 127.2 544.513 Z" fill="#000000" fill-rule="nonzero" fill-opacity="1" /><path clip-path="url(#clip700)" d="M147.362 573.818 L152.246 573.818 L152.246 579.698 L147.362 579.698 L147.362 573.818 Z" fill="#000000" fill-rule="nonzero" fill-opacity="1" /><path clip-path="url(#clip700)" d="M172.431 548.217 Q168.82 548.217 166.991 551.782 Q165.186 555.323 165.186 562.453 Q165.186 569.559 166.991 573.124 Q168.82 576.666 172.431 576.666 Q176.065 576.666 177.871 573.124 Q179.7 569.559 179.7 562.453 Q179.7 555.323 177.871 551.782 Q176.065 548.217 172.431 548.217 M172.431 544.513 Q178.241 544.513 181.297 549.12 Q184.376 553.703 184.376 562.453 Q184.376 571.18 181.297 575.786 Q178.241 580.369 172.431 580.369 Q166.621 580.369 163.542 575.786 Q160.487 571.18 160.487 562.453 Q160.487 553.703 163.542 549.12 Q166.621 544.513 172.431 544.513 Z" fill="#000000" fill-rule="nonzero" fill-opacity="1" /><path clip-path="url(#clip700)" d="M196.621 575.763 L212.94 575.763 L212.94 579.698 L190.996 579.698 L190.996 575.763 Q193.658 573.008 198.241 568.379 Q202.848 563.726 204.028 562.383 Q206.274 559.86 207.153 558.124 Q208.056 556.365 208.056 554.675 Q208.056 551.92 206.112 550.184 Q204.19 548.448 201.088 548.448 Q198.889 548.448 196.436 549.212 Q194.005 549.976 191.227 551.527 L191.227 546.805 Q194.051 545.67 196.505 545.092 Q198.959 544.513 200.996 544.513 Q206.366 544.513 209.561 547.198 Q212.755 549.883 212.755 554.374 Q212.755 556.504 211.945 558.425 Q211.158 560.323 209.051 562.916 Q208.473 563.587 205.371 566.805 Q202.269 569.999 196.621 575.763 Z" fill="#000000" fill-rule="nonzero" fill-opacity="1" /><path clip-path="url(#clip700)" d="M222.801 545.138 L241.158 545.138 L241.158 549.073 L227.084 549.073 L227.084 557.545 Q228.102 557.198 229.121 557.036 Q230.139 556.851 231.158 556.851 Q236.945 556.851 240.324 560.022 Q243.704 563.194 243.704 568.61 Q243.704 574.189 240.232 577.291 Q236.76 580.369 230.44 580.369 Q228.264 580.369 225.996 579.999 Q223.75 579.629 221.343 578.888 L221.343 574.189 Q223.426 575.323 225.648 575.879 Q227.871 576.434 230.347 576.434 Q234.352 576.434 236.69 574.328 Q239.028 572.221 239.028 568.61 Q239.028 564.999 236.69 562.893 Q234.352 560.786 230.347 560.786 Q228.473 560.786 226.598 561.203 Q224.746 561.619 222.801 562.499 L222.801 545.138 Z" fill="#000000" fill-rule="nonzero" fill-opacity="1" /><path clip-path="url(#clip700)" d="M126.205 367.421 Q122.593 367.421 120.765 370.986 Q118.959 374.528 118.959 381.657 Q118.959 388.764 120.765 392.329 Q122.593 395.87 126.205 395.87 Q129.839 395.87 131.644 392.329 Q133.473 388.764 133.473 381.657 Q133.473 374.528 131.644 370.986 Q129.839 367.421 126.205 367.421 M126.205 363.718 Q132.015 363.718 135.07 368.324 Q138.149 372.908 138.149 381.657 Q138.149 390.384 135.07 394.991 Q132.015 399.574 126.205 399.574 Q120.394 399.574 117.316 394.991 Q114.26 390.384 114.26 381.657 Q114.26 372.908 117.316 368.324 Q120.394 363.718 126.205 363.718 Z" fill="#000000" fill-rule="nonzero" fill-opacity="1" /><path clip-path="url(#clip700)" d="M146.366 393.023 L151.251 393.023 L151.251 398.903 L146.366 398.903 L146.366 393.023 Z" fill="#000000" fill-rule="nonzero" fill-opacity="1" /><path clip-path="url(#clip700)" d="M171.436 367.421 Q167.825 367.421 165.996 370.986 Q164.19 374.528 164.19 381.657 Q164.19 388.764 165.996 392.329 Q167.825 395.87 171.436 395.87 Q175.07 395.87 176.876 392.329 Q178.704 388.764 178.704 381.657 Q178.704 374.528 176.876 370.986 Q175.07 367.421 171.436 367.421 M171.436 363.718 Q177.246 363.718 180.301 368.324 Q183.38 372.908 183.38 381.657 Q183.38 390.384 180.301 394.991 Q177.246 399.574 171.436 399.574 Q165.626 399.574 162.547 394.991 Q159.491 390.384 159.491 381.657 Q159.491 372.908 162.547 368.324 Q165.626 363.718 171.436 363.718 Z" fill="#000000" fill-rule="nonzero" fill-opacity="1" /><path clip-path="url(#clip700)" d="M205.764 380.269 Q209.121 380.986 210.996 383.255 Q212.894 385.523 212.894 388.856 Q212.894 393.972 209.375 396.773 Q205.857 399.574 199.375 399.574 Q197.2 399.574 194.885 399.134 Q192.593 398.718 190.139 397.861 L190.139 393.347 Q192.084 394.481 194.399 395.06 Q196.713 395.639 199.237 395.639 Q203.635 395.639 205.926 393.903 Q208.241 392.167 208.241 388.856 Q208.241 385.801 206.088 384.088 Q203.959 382.352 200.139 382.352 L196.112 382.352 L196.112 378.509 L200.325 378.509 Q203.774 378.509 205.602 377.144 Q207.431 375.755 207.431 373.162 Q207.431 370.5 205.533 369.088 Q203.658 367.653 200.139 367.653 Q198.218 367.653 196.019 368.07 Q193.82 368.486 191.181 369.366 L191.181 365.199 Q193.843 364.458 196.158 364.088 Q198.496 363.718 200.556 363.718 Q205.88 363.718 208.982 366.148 Q212.084 368.556 212.084 372.676 Q212.084 375.546 210.44 377.537 Q208.797 379.505 205.764 380.269 Z" fill="#000000" fill-rule="nonzero" fill-opacity="1" /><path clip-path="url(#clip700)" d="M231.76 367.421 Q228.148 367.421 226.32 370.986 Q224.514 374.528 224.514 381.657 Q224.514 388.764 226.32 392.329 Q228.148 395.87 231.76 395.87 Q235.394 395.87 237.199 392.329 Q239.028 388.764 239.028 381.657 Q239.028 374.528 237.199 370.986 Q235.394 367.421 231.76 367.421 M231.76 363.718 Q237.57 363.718 240.625 368.324 Q243.704 372.908 243.704 381.657 Q243.704 390.384 240.625 394.991 Q237.57 399.574 231.76 399.574 Q225.949 399.574 222.871 394.991 Q219.815 390.384 219.815 381.657 Q219.815 372.908 222.871 368.324 Q225.949 363.718 231.76 363.718 Z" fill="#000000" fill-rule="nonzero" fill-opacity="1" /><path clip-path="url(#clip700)" d="M127.2 186.626 Q123.589 186.626 121.76 190.191 Q119.955 193.733 119.955 200.862 Q119.955 207.969 121.76 211.533 Q123.589 215.075 127.2 215.075 Q130.834 215.075 132.64 211.533 Q134.468 207.969 134.468 200.862 Q134.468 193.733 132.64 190.191 Q130.834 186.626 127.2 186.626 M127.2 182.922 Q133.01 182.922 136.066 187.529 Q139.144 192.112 139.144 200.862 Q139.144 209.589 136.066 214.195 Q133.01 218.779 127.2 218.779 Q121.39 218.779 118.311 214.195 Q115.256 209.589 115.256 200.862 Q115.256 192.112 118.311 187.529 Q121.39 182.922 127.2 182.922 Z" fill="#000000" fill-rule="nonzero" fill-opacity="1" /><path clip-path="url(#clip700)" d="M147.362 212.228 L152.246 212.228 L152.246 218.107 L147.362 218.107 L147.362 212.228 Z" fill="#000000" fill-rule="nonzero" fill-opacity="1" /><path clip-path="url(#clip700)" d="M172.431 186.626 Q168.82 186.626 166.991 190.191 Q165.186 193.733 165.186 200.862 Q165.186 207.969 166.991 211.533 Q168.82 215.075 172.431 215.075 Q176.065 215.075 177.871 211.533 Q179.7 207.969 179.7 200.862 Q179.7 193.733 177.871 190.191 Q176.065 186.626 172.431 186.626 M172.431 182.922 Q178.241 182.922 181.297 187.529 Q184.376 192.112 184.376 200.862 Q184.376 209.589 181.297 214.195 Q178.241 218.779 172.431 218.779 Q166.621 218.779 163.542 214.195 Q160.487 209.589 160.487 200.862 Q160.487 192.112 163.542 187.529 Q166.621 182.922 172.431 182.922 Z" fill="#000000" fill-rule="nonzero" fill-opacity="1" /><path clip-path="url(#clip700)" d="M206.76 199.473 Q210.116 200.191 211.991 202.459 Q213.889 204.728 213.889 208.061 Q213.889 213.177 210.371 215.978 Q206.852 218.779 200.371 218.779 Q198.195 218.779 195.88 218.339 Q193.588 217.922 191.135 217.066 L191.135 212.552 Q193.079 213.686 195.394 214.265 Q197.709 214.844 200.232 214.844 Q204.63 214.844 206.922 213.107 Q209.237 211.371 209.237 208.061 Q209.237 205.006 207.084 203.293 Q204.954 201.557 201.135 201.557 L197.107 201.557 L197.107 197.714 L201.32 197.714 Q204.769 197.714 206.598 196.348 Q208.426 194.959 208.426 192.367 Q208.426 189.705 206.528 188.293 Q204.653 186.858 201.135 186.858 Q199.213 186.858 197.014 187.274 Q194.815 187.691 192.176 188.571 L192.176 184.404 Q194.838 183.663 197.153 183.293 Q199.491 182.922 201.551 182.922 Q206.875 182.922 209.977 185.353 Q213.079 187.76 213.079 191.881 Q213.079 194.751 211.436 196.742 Q209.792 198.709 206.76 199.473 Z" fill="#000000" fill-rule="nonzero" fill-opacity="1" /><path clip-path="url(#clip700)" d="M222.801 183.547 L241.158 183.547 L241.158 187.483 L227.084 187.483 L227.084 195.955 Q228.102 195.608 229.121 195.445 Q230.139 195.26 231.158 195.26 Q236.945 195.26 240.324 198.432 Q243.704 201.603 243.704 207.019 Q243.704 212.598 240.232 215.7 Q236.76 218.779 230.44 218.779 Q228.264 218.779 225.996 218.408 Q223.75 218.038 221.343 217.297 L221.343 212.598 Q223.426 213.732 225.648 214.288 Q227.871 214.844 230.347 214.844 Q234.352 214.844 236.69 212.737 Q239.028 210.631 239.028 207.019 Q239.028 203.408 236.69 201.302 Q234.352 199.195 230.347 199.195 Q228.473 199.195 226.598 199.612 Q224.746 200.029 222.801 200.908 L222.801 183.547 Z" fill="#000000" fill-rule="nonzero" fill-opacity="1" /><path clip-path="url(#clip700)" d="M29.4065 993.309 L34.9447 993.309 Q33.6716 995.792 33.035 998.465 Q32.3984 1001.14 32.3984 1004 Q32.3984 1008.36 33.7352 1010.56 Q35.072 1012.72 37.7456 1012.72 Q39.7826 1012.72 40.9603 1011.16 Q42.1061 1009.61 43.1565 1004.89 L43.6021 1002.89 Q44.9389 996.651 47.3897 994.041 Q49.8086 991.399 54.1691 991.399 Q59.1344 991.399 62.0308 995.346 Q64.9272 999.261 64.9272 1006.14 Q64.9272 1009 64.3543 1012.12 Q63.8132 1015.21 62.6992 1018.64 L56.6518 1018.64 Q58.3387 1015.4 59.198 1012.25 Q60.0256 1009.1 60.0256 1006.01 Q60.0256 1001.87 58.6251 999.643 Q57.1929 997.415 54.6147 997.415 Q52.2276 997.415 50.9545 999.038 Q49.6813 1000.63 48.5037 1006.07 L48.0262 1008.11 Q46.8804 1013.55 44.5251 1015.97 Q42.138 1018.39 38.0002 1018.39 Q32.9713 1018.39 30.2341 1014.82 Q27.4968 1011.26 27.4968 1004.7 Q27.4968 1001.46 27.9743 998.592 Q28.4517 995.728 29.4065 993.309 Z" fill="#000000" fill-rule="nonzero" fill-opacity="1" /><path clip-path="url(#clip700)" d="M28.3562 982.073 L28.3562 976.217 L64.0042 976.217 L64.0042 982.073 L28.3562 982.073 M14.479 982.073 L14.479 976.217 L21.895 976.217 L21.895 982.073 L14.479 982.073 Z" fill="#000000" fill-rule="nonzero" fill-opacity="1" /><path clip-path="url(#clip700)" d="M45.7664 940.505 Q39.4007 940.505 35.8996 943.147 Q32.3984 945.757 32.3984 950.5 Q32.3984 955.21 35.8996 957.852 Q39.4007 960.462 45.7664 960.462 Q52.1003 960.462 55.6014 957.852 Q59.1026 955.21 59.1026 950.5 Q59.1026 945.757 55.6014 943.147 Q52.1003 940.505 45.7664 940.505 M59.58 934.649 Q68.683 934.649 73.1071 938.691 Q77.5631 942.733 77.5631 951.072 Q77.5631 954.16 77.0857 956.897 Q76.6401 959.634 75.6852 962.212 L69.9879 962.212 Q71.3884 959.634 72.0568 957.12 Q72.7252 954.605 72.7252 951.995 Q72.7252 946.234 69.7015 943.37 Q66.7096 940.505 60.6303 940.505 L57.7339 940.505 Q60.885 942.32 62.4446 945.152 Q64.0042 947.985 64.0042 951.932 Q64.0042 958.488 59.0071 962.499 Q54.01 966.509 45.7664 966.509 Q37.491 966.509 32.4939 962.499 Q27.4968 958.488 27.4968 951.932 Q27.4968 947.985 29.0564 945.152 Q30.616 942.32 33.7671 940.505 L28.3562 940.505 L28.3562 934.649 L59.58 934.649 Z" fill="#000000" fill-rule="nonzero" fill-opacity="1" /><path clip-path="url(#clip700)" d="M35.1993 894.831 Q31.2526 892.635 29.3747 889.58 Q27.4968 886.524 27.4968 882.386 Q27.4968 876.816 31.4117 873.793 Q35.2948 870.769 42.4881 870.769 L64.0042 870.769 L64.0042 876.657 L42.679 876.657 Q37.5546 876.657 35.072 878.472 Q32.5894 880.286 32.5894 884.01 Q32.5894 888.561 35.6131 891.203 Q38.6368 893.845 43.8567 893.845 L64.0042 893.845 L64.0042 899.733 L42.679 899.733 Q37.5228 899.733 35.072 901.547 Q32.5894 903.361 32.5894 907.149 Q32.5894 911.637 35.6449 914.279 Q38.6686 916.92 43.8567 916.92 L64.0042 916.92 L64.0042 922.809 L28.3562 922.809 L28.3562 916.92 L33.8944 916.92 Q30.616 914.915 29.0564 912.114 Q27.4968 909.313 27.4968 905.462 Q27.4968 901.579 29.4702 898.874 Q31.4436 896.136 35.1993 894.831 Z" fill="#000000" fill-rule="nonzero" fill-opacity="1" /><path clip-path="url(#clip700)" d="M46.0847 842.887 Q46.0847 849.985 47.7079 852.722 Q49.3312 855.46 53.2461 855.46 Q56.3653 855.46 58.2114 853.422 Q60.0256 851.354 60.0256 847.821 Q60.0256 842.951 56.5881 840.023 Q53.1188 837.063 47.3897 837.063 L46.0847 837.063 L46.0847 842.887 M43.6657 831.206 L64.0042 831.206 L64.0042 837.063 L58.5933 837.063 Q61.8398 839.068 63.3994 842.06 Q64.9272 845.052 64.9272 849.38 Q64.9272 854.855 61.8716 858.101 Q58.7843 861.316 53.6281 861.316 Q47.6125 861.316 44.5569 857.306 Q41.5014 853.263 41.5014 845.274 L41.5014 837.063 L40.9285 837.063 Q36.8862 837.063 34.6901 839.736 Q32.4621 842.378 32.4621 847.184 Q32.4621 850.24 33.1941 853.136 Q33.9262 856.032 35.3903 858.706 L29.9795 858.706 Q28.7381 855.491 28.1334 852.468 Q27.4968 849.444 27.4968 846.579 Q27.4968 838.845 31.5072 835.026 Q35.5176 831.206 43.6657 831.206 Z" fill="#000000" fill-rule="nonzero" fill-opacity="1" /><path clip-path="url(#clip700)" d="M14.479 798.964 L14.479 785.469 L19.0304 785.469 L19.0304 793.107 L68.0464 793.107 L68.0464 785.469 L72.5979 785.469 L72.5979 798.964 L14.479 798.964 Z" fill="#000000" fill-rule="nonzero" fill-opacity="1" /><path clip-path="url(#clip700)" d="M57.2247 740.336 L44.4614 740.336 L44.4614 750.839 L39.1779 750.839 L39.1779 733.97 L59.58 733.97 Q62.2218 737.694 63.5904 742.182 Q64.9272 746.67 64.9272 751.762 Q64.9272 762.902 58.4342 769.204 Q51.9093 775.474 40.2919 775.474 Q28.6427 775.474 22.1496 769.204 Q15.6248 762.902 15.6248 751.762 Q15.6248 747.115 16.7706 742.946 Q17.9164 738.744 20.1444 735.211 L26.9876 735.211 Q23.9639 738.776 22.4361 742.787 Q20.9083 746.797 20.9083 751.221 Q20.9083 759.942 25.7781 764.334 Q30.6479 768.695 40.2919 768.695 Q49.9041 768.695 54.7739 764.334 Q59.6436 759.942 59.6436 751.221 Q59.6436 747.815 59.0707 745.142 Q58.466 742.468 57.2247 740.336 Z" fill="#000000" fill-rule="nonzero" fill-opacity="1" /><path clip-path="url(#clip700)" d="M44.7161 691.988 L47.5806 691.988 L47.5806 718.915 Q53.6281 718.533 56.8109 715.287 Q59.9619 712.008 59.9619 706.184 Q59.9619 702.81 59.1344 699.659 Q58.3069 696.476 56.6518 693.357 L62.1899 693.357 Q63.5267 696.508 64.227 699.818 Q64.9272 703.128 64.9272 706.534 Q64.9272 715.064 59.9619 720.061 Q54.9967 725.026 46.5303 725.026 Q37.7774 725.026 32.6531 720.316 Q27.4968 715.573 27.4968 707.552 Q27.4968 700.359 32.1438 696.19 Q36.7589 691.988 44.7161 691.988 M42.9973 697.845 Q38.1912 697.908 35.3266 700.55 Q32.4621 703.16 32.4621 707.489 Q32.4621 712.39 35.2312 715.35 Q38.0002 718.279 43.0292 718.724 L42.9973 697.845 Z" fill="#000000" fill-rule="nonzero" fill-opacity="1" /><path clip-path="url(#clip700)" d="M64.0042 669.867 L16.4842 688.01 L16.4842 681.294 L56.4926 666.239 L16.4842 651.152 L16.4842 644.468 L64.0042 662.579 L64.0042 669.867 Z" fill="#000000" fill-rule="nonzero" fill-opacity="1" /><path clip-path="url(#clip700)" d="M16.4842 613.499 L34.2127 596.216 L34.2127 602.614 L21.6404 616.618 L34.2127 630.623 L34.2127 637.02 L16.4842 619.737 L16.4842 613.499 Z" fill="#000000" fill-rule="nonzero" fill-opacity="1" /><path clip-path="url(#clip700)" d="M38.3822 562.86 Q39.3689 558.245 42.4881 555.667 Q45.6073 553.057 50.1906 553.057 Q57.2247 553.057 61.0759 557.895 Q64.9272 562.732 64.9272 571.644 Q64.9272 574.636 64.3224 577.819 Q63.7495 580.97 62.5719 584.344 L56.3653 584.344 Q57.9249 581.67 58.7206 578.488 Q59.5163 575.305 59.5163 571.835 Q59.5163 565.788 57.1292 562.637 Q54.7421 559.454 50.1906 559.454 Q45.9892 559.454 43.6339 562.414 Q41.2468 565.342 41.2468 570.594 L41.2468 576.132 L35.9632 576.132 L35.9632 570.34 Q35.9632 565.597 34.0853 563.083 Q32.1756 560.568 28.6108 560.568 Q24.9505 560.568 23.009 563.178 Q21.0356 565.756 21.0356 570.594 Q21.0356 573.236 21.6086 576.26 Q22.1815 579.283 23.3909 582.912 L17.6618 582.912 Q16.6433 579.252 16.134 576.069 Q15.6248 572.854 15.6248 570.021 Q15.6248 562.701 18.9668 558.436 Q22.277 554.171 27.9424 554.171 Q31.8892 554.171 34.6264 556.43 Q37.3318 558.69 38.3822 562.86 Z" fill="#000000" fill-rule="nonzero" fill-opacity="1" /><path clip-path="url(#clip700)" d="M14.479 528.008 L72.5979 528.008 L72.5979 541.503 L68.0464 541.503 L68.0464 533.896 L19.0304 533.896 L19.0304 541.503 L14.479 541.503 L14.479 528.008 Z" fill="#000000" fill-rule="nonzero" fill-opacity="1" /><path clip-path="url(#clip700)" d="M598.855 28.5427 L598.855 35.5912 Q595.696 33.9709 592.293 33.1607 Q588.89 32.3505 585.244 32.3505 Q579.695 32.3505 576.899 34.0519 Q574.145 35.7533 574.145 39.156 Q574.145 41.7486 576.13 43.2475 Q578.115 44.7058 584.11 46.0426 L586.662 46.6097 Q594.602 48.3111 597.924 51.4303 Q601.286 54.509 601.286 60.0587 Q601.286 66.3781 596.263 70.0644 Q591.28 73.7508 582.53 73.7508 Q578.884 73.7508 574.914 73.0216 Q570.985 72.3329 566.61 70.9151 L566.61 63.2184 Q570.742 65.3654 574.752 66.4591 Q578.763 67.5124 582.692 67.5124 Q587.958 67.5124 590.794 65.73 Q593.63 63.9071 593.63 60.6258 Q593.63 57.5877 591.564 55.9673 Q589.538 54.3469 582.611 52.8481 L580.019 52.2405 Q573.092 50.7821 570.013 47.7845 Q566.934 44.7463 566.934 39.4801 Q566.934 33.0797 571.471 29.5959 Q576.008 26.1121 584.353 26.1121 Q588.485 26.1121 592.131 26.7198 Q595.777 27.3274 598.855 28.5427 Z" fill="#000000" fill-rule="nonzero" fill-opacity="1" /><path clip-path="url(#clip700)" d="M613.155 27.2059 L620.609 27.2059 L620.609 72.576 L613.155 72.576 L613.155 27.2059 M613.155 9.54393 L620.609 9.54393 L620.609 18.9825 L613.155 18.9825 L613.155 9.54393 Z" fill="#000000" fill-rule="nonzero" fill-opacity="1" /><path clip-path="url(#clip700)" d="M666.06 49.3643 Q666.06 41.2625 662.698 36.8065 Q659.376 32.3505 653.34 32.3505 Q647.345 32.3505 643.982 36.8065 Q640.661 41.2625 640.661 49.3643 Q640.661 57.4256 643.982 61.8816 Q647.345 66.3376 653.34 66.3376 Q659.376 66.3376 662.698 61.8816 Q666.06 57.4256 666.06 49.3643 M673.513 66.9452 Q673.513 78.5308 668.369 84.1616 Q663.224 89.8329 652.611 89.8329 Q648.681 89.8329 645.198 89.2252 Q641.714 88.6581 638.433 87.4428 L638.433 80.1917 Q641.714 81.9741 644.914 82.8248 Q648.114 83.6755 651.436 83.6755 Q658.768 83.6755 662.414 79.8271 Q666.06 76.0193 666.06 68.282 L666.06 64.5957 Q663.751 68.6061 660.145 70.5911 Q656.54 72.576 651.517 72.576 Q643.172 72.576 638.068 66.2161 Q632.964 59.8562 632.964 49.3643 Q632.964 38.832 638.068 32.472 Q643.172 26.1121 651.517 26.1121 Q656.54 26.1121 660.145 28.0971 Q663.751 30.082 666.06 34.0924 L666.06 27.2059 L673.513 27.2059 L673.513 66.9452 Z" fill="#000000" fill-rule="nonzero" fill-opacity="1" /><path clip-path="url(#clip700)" d="M724.19 35.9153 Q726.985 30.8922 730.874 28.5022 Q734.763 26.1121 740.029 26.1121 Q747.118 26.1121 750.967 31.0947 Q754.815 36.0368 754.815 45.1919 L754.815 72.576 L747.321 72.576 L747.321 45.4349 Q747.321 38.913 745.012 35.7533 Q742.703 32.5936 737.963 32.5936 Q732.171 32.5936 728.808 36.4419 Q725.446 40.2903 725.446 46.9338 L725.446 72.576 L717.952 72.576 L717.952 45.4349 Q717.952 38.8725 715.643 35.7533 Q713.334 32.5936 708.513 32.5936 Q702.801 32.5936 699.439 36.4824 Q696.077 40.3308 696.077 46.9338 L696.077 72.576 L688.583 72.576 L688.583 27.2059 L696.077 27.2059 L696.077 34.2544 Q698.629 30.082 702.194 28.0971 Q705.759 26.1121 710.66 26.1121 Q715.602 26.1121 719.046 28.6237 Q722.529 31.1352 724.19 35.9153 Z" fill="#000000" fill-rule="nonzero" fill-opacity="1" /><path clip-path="url(#clip700)" d="M790.301 49.7694 Q781.267 49.7694 777.784 51.8354 Q774.3 53.9013 774.3 58.8839 Q774.3 62.8538 776.893 65.2034 Q779.526 67.5124 784.022 67.5124 Q790.22 67.5124 793.947 63.1374 Q797.714 58.7219 797.714 51.4303 L797.714 49.7694 L790.301 49.7694 M805.168 46.6907 L805.168 72.576 L797.714 72.576 L797.714 65.6895 Q795.162 69.8214 791.354 71.8063 Q787.546 73.7508 782.037 73.7508 Q775.07 73.7508 770.938 69.8619 Q766.846 65.9325 766.846 59.3701 Q766.846 51.7138 771.95 47.825 Q777.095 43.9361 787.263 43.9361 L797.714 43.9361 L797.714 43.2069 Q797.714 38.0623 794.311 35.2672 Q790.949 32.4315 784.832 32.4315 Q780.943 32.4315 777.257 33.3632 Q773.571 34.295 770.168 36.1584 L770.168 29.2718 Q774.259 27.692 778.108 26.9223 Q781.956 26.1121 785.602 26.1121 Q795.446 26.1121 800.307 31.2163 Q805.168 36.3204 805.168 46.6907 Z" fill="#000000" fill-rule="nonzero" fill-opacity="1" /><path clip-path="url(#clip700)" d="M838.426 9.62495 Q832.998 18.942 830.364 28.0566 Q827.731 37.1711 827.731 46.5287 Q827.731 55.8863 830.364 65.0818 Q833.038 74.2369 838.426 83.5134 L831.944 83.5134 Q825.868 73.9938 822.83 64.7983 Q819.832 55.6027 819.832 46.5287 Q819.832 37.4952 822.83 28.3401 Q825.827 19.1851 831.944 9.62495 L838.426 9.62495 Z" fill="#000000" fill-rule="nonzero" fill-opacity="1" /><path clip-path="url(#clip700)" d="M844.826 12.096 L895.989 12.096 L895.989 18.9825 L874.519 18.9825 L874.519 72.576 L866.296 72.576 L866.296 18.9825 L844.826 18.9825 L844.826 12.096 Z" fill="#000000" fill-rule="nonzero" fill-opacity="1" /><path clip-path="url(#clip700)" d="M902.39 9.62495 L908.871 9.62495 Q914.947 19.1851 917.945 28.3401 Q920.983 37.4952 920.983 46.5287 Q920.983 55.6027 917.945 64.7983 Q914.947 73.9938 908.871 83.5134 L902.39 83.5134 Q907.777 74.2369 910.41 65.0818 Q913.084 55.8863 913.084 46.5287 Q913.084 37.1711 910.41 28.0566 Q907.777 18.942 902.39 9.62495 Z" fill="#000000" fill-rule="nonzero" fill-opacity="1" /><path clip-path="url(#clip700)" d="M957.968 27.2059 L965.422 27.2059 L974.739 62.6108 L984.015 27.2059 L992.806 27.2059 L1002.12 62.6108 L1011.4 27.2059 L1018.85 27.2059 L1006.98 72.576 L998.193 72.576 L988.431 35.3887 L978.628 72.576 L969.837 72.576 L957.968 27.2059 Z" fill="#000000" fill-rule="nonzero" fill-opacity="1" /><path clip-path="url(#clip700)" d="M1030.16 27.2059 L1037.61 27.2059 L1037.61 72.576 L1030.16 72.576 L1030.16 27.2059 M1030.16 9.54393 L1037.61 9.54393 L1037.61 18.9825 L1030.16 18.9825 L1030.16 9.54393 Z" fill="#000000" fill-rule="nonzero" fill-opacity="1" /><path clip-path="url(#clip700)" d="M1060.58 14.324 L1060.58 27.2059 L1075.93 27.2059 L1075.93 32.9987 L1060.58 32.9987 L1060.58 57.6282 Q1060.58 63.1779 1062.08 64.7578 Q1063.62 66.3376 1068.27 66.3376 L1075.93 66.3376 L1075.93 72.576 L1068.27 72.576 Q1059.65 72.576 1056.36 69.3758 Q1053.08 66.1351 1053.08 57.6282 L1053.08 32.9987 L1047.61 32.9987 L1047.61 27.2059 L1053.08 27.2059 L1053.08 14.324 L1060.58 14.324 Z" fill="#000000" fill-rule="nonzero" fill-opacity="1" /><path clip-path="url(#clip700)" d="M1123.45 45.1919 L1123.45 72.576 L1115.99 72.576 L1115.99 45.4349 Q1115.99 38.994 1113.48 35.7938 Q1110.97 32.5936 1105.95 32.5936 Q1099.91 32.5936 1096.43 36.4419 Q1092.94 40.2903 1092.94 46.9338 L1092.94 72.576 L1085.45 72.576 L1085.45 9.54393 L1092.94 9.54393 L1092.94 34.2544 Q1095.62 30.163 1099.22 28.1376 Q1102.87 26.1121 1107.61 26.1121 Q1115.43 26.1121 1119.44 30.9732 Q1123.45 35.7938 1123.45 45.1919 Z" fill="#000000" fill-rule="nonzero" fill-opacity="1" /><path clip-path="url(#clip700)" d="M1165.01 12.096 L1176.03 12.096 L1202.85 62.6918 L1202.85 12.096 L1210.78 12.096 L1210.78 72.576 L1199.77 72.576 L1172.95 21.9802 L1172.95 72.576 L1165.01 72.576 L1165.01 12.096 Z" fill="#000000" fill-rule="nonzero" fill-opacity="1" /><path clip-path="url(#clip700)" d="M1254.09 34.9026 L1306.02 34.9026 L1306.02 41.7081 L1254.09 41.7081 L1254.09 34.9026 M1254.09 51.4303 L1306.02 51.4303 L1306.02 58.3168 L1254.09 58.3168 L1254.09 51.4303 Z" fill="#000000" fill-rule="nonzero" fill-opacity="1" /><path clip-path="url(#clip700)" d="M1351.47 65.6895 L1364.84 65.6895 L1364.84 19.5497 L1350.3 22.4663 L1350.3 15.0127 L1364.76 12.096 L1372.94 12.096 L1372.94 65.6895 L1386.31 65.6895 L1386.31 72.576 L1351.47 72.576 L1351.47 65.6895 Z" fill="#000000" fill-rule="nonzero" fill-opacity="1" /><path clip-path="url(#clip700)" d="M1409.89 65.6895 L1438.45 65.6895 L1438.45 72.576 L1400.04 72.576 L1400.04 65.6895 Q1404.7 60.8689 1412.72 52.7671 Q1420.78 44.6248 1422.85 42.2752 Q1426.78 37.8598 1428.32 34.8216 Q1429.9 31.7429 1429.9 28.7857 Q1429.9 23.9651 1426.5 20.927 Q1423.13 17.8888 1417.71 17.8888 Q1413.86 17.8888 1409.56 19.2256 Q1405.31 20.5624 1400.45 23.2765 L1400.45 15.0127 Q1405.39 13.0277 1409.68 12.015 Q1413.98 11.0023 1417.54 11.0023 Q1426.94 11.0023 1432.53 15.7013 Q1438.12 20.4004 1438.12 28.2591 Q1438.12 31.9859 1436.7 35.3482 Q1435.33 38.6699 1431.64 43.2069 Q1430.63 44.3817 1425.2 50.0125 Q1419.77 55.6027 1409.89 65.6895 Z" fill="#000000" fill-rule="nonzero" fill-opacity="1" /><path clip-path="url(#clip700)" d="M1473.12 43.8551 Q1467.29 43.8551 1463.93 46.9743 Q1460.6 50.0935 1460.6 55.5622 Q1460.6 61.0309 1463.93 64.1501 Q1467.29 67.2693 1473.12 67.2693 Q1478.95 67.2693 1482.32 64.1501 Q1485.68 60.9904 1485.68 55.5622 Q1485.68 50.0935 1482.32 46.9743 Q1479 43.8551 1473.12 43.8551 M1464.94 40.3713 Q1459.67 39.075 1456.72 35.4697 Q1453.8 31.8644 1453.8 26.6793 Q1453.8 19.4281 1458.94 15.2152 Q1464.13 11.0023 1473.12 11.0023 Q1482.15 11.0023 1487.3 15.2152 Q1492.44 19.4281 1492.44 26.6793 Q1492.44 31.8644 1489.49 35.4697 Q1486.57 39.075 1481.34 40.3713 Q1487.26 41.7486 1490.54 45.759 Q1493.86 49.7694 1493.86 55.5622 Q1493.86 64.3527 1488.47 69.0517 Q1483.13 73.7508 1473.12 73.7508 Q1463.12 73.7508 1457.73 69.0517 Q1452.38 64.3527 1452.38 55.5622 Q1452.38 49.7694 1455.7 45.759 Q1459.02 41.7486 1464.94 40.3713 M1461.94 27.4489 Q1461.94 32.148 1464.86 34.7811 Q1467.81 37.4142 1473.12 37.4142 Q1478.39 37.4142 1481.34 34.7811 Q1484.34 32.148 1484.34 27.4489 Q1484.34 22.7499 1481.34 20.1168 Q1478.39 17.4837 1473.12 17.4837 Q1467.81 17.4837 1464.86 20.1168 Q1461.94 22.7499 1461.94 27.4489 Z" fill="#000000" fill-rule="nonzero" fill-opacity="1" /><path clip-path="url(#clip700)" d="M1509.26 62.2867 L1517.8 62.2867 L1517.8 69.2543 L1511.16 82.2172 L1505.93 82.2172 L1509.26 69.2543 L1509.26 62.2867 Z" fill="#000000" fill-rule="nonzero" fill-opacity="1" /><path clip-path="url(#clip700)" d="M1595.42 35.9153 Q1598.21 30.8922 1602.1 28.5022 Q1605.99 26.1121 1611.26 26.1121 Q1618.35 26.1121 1622.19 31.0947 Q1626.04 36.0368 1626.04 45.1919 L1626.04 72.576 L1618.55 72.576 L1618.55 45.4349 Q1618.55 38.913 1616.24 35.7533 Q1613.93 32.5936 1609.19 32.5936 Q1603.4 32.5936 1600.04 36.4419 Q1596.67 40.2903 1596.67 46.9338 L1596.67 72.576 L1589.18 72.576 L1589.18 45.4349 Q1589.18 38.8725 1586.87 35.7533 Q1584.56 32.5936 1579.74 32.5936 Q1574.03 32.5936 1570.67 36.4824 Q1567.3 40.3308 1567.3 46.9338 L1567.3 72.576 L1559.81 72.576 L1559.81 27.2059 L1567.3 27.2059 L1567.3 34.2544 Q1569.86 30.082 1573.42 28.0971 Q1576.99 26.1121 1581.89 26.1121 Q1586.83 26.1121 1590.27 28.6237 Q1593.76 31.1352 1595.42 35.9153 Z" fill="#000000" fill-rule="nonzero" fill-opacity="1" /><path clip-path="url(#clip700)" d="M1645.37 49.9314 Q1645.37 58.1548 1648.73 62.8538 Q1652.13 67.5124 1658.05 67.5124 Q1663.96 67.5124 1667.36 62.8538 Q1670.77 58.1548 1670.77 49.9314 Q1670.77 41.7081 1667.36 37.0496 Q1663.96 32.3505 1658.05 32.3505 Q1652.13 32.3505 1648.73 37.0496 Q1645.37 41.7081 1645.37 49.9314 M1670.77 65.7705 Q1668.42 69.8214 1664.81 71.8063 Q1661.25 73.7508 1656.22 73.7508 Q1648 73.7508 1642.81 67.1883 Q1637.67 60.6258 1637.67 49.9314 Q1637.67 39.2371 1642.81 32.6746 Q1648 26.1121 1656.22 26.1121 Q1661.25 26.1121 1664.81 28.0971 Q1668.42 30.0415 1670.77 34.0924 L1670.77 27.2059 L1678.22 27.2059 L1678.22 89.8329 L1670.77 89.8329 L1670.77 65.7705 Z" fill="#000000" fill-rule="nonzero" fill-opacity="1" /><path clip-path="url(#clip700)" d="M1720.92 34.9026 L1772.85 34.9026 L1772.85 41.7081 L1720.92 41.7081 L1720.92 34.9026 M1720.92 51.4303 L1772.85 51.4303 L1772.85 58.3168 L1720.92 58.3168 L1720.92 51.4303 Z" fill="#000000" fill-rule="nonzero" fill-opacity="1" /><path clip-path="url(#clip700)" d="M1814.82 12.096 L1853.7 12.096 L1853.7 15.5798 L1831.75 72.576 L1823.2 72.576 L1843.86 18.9825 L1814.82 18.9825 L1814.82 12.096 Z" fill="#000000" fill-rule="nonzero" fill-opacity="1" /><path clip-path="url(#clip700)" d="M1895.31 12.096 L1907.5 12.096 L1922.93 53.2532 L1938.45 12.096 L1950.64 12.096 L1950.64 72.576 L1942.66 72.576 L1942.66 19.4686 L1927.07 60.9499 L1918.84 60.9499 L1903.25 19.4686 L1903.25 72.576 L1895.31 72.576 L1895.31 12.096 Z" fill="#000000" fill-rule="nonzero" fill-opacity="1" /><path clip-path="url(#clip700)" d="M2005.37 48.0275 L2005.37 51.6733 L1971.1 51.6733 Q1971.59 59.3701 1975.72 63.421 Q1979.89 67.4314 1987.3 67.4314 Q1991.6 67.4314 1995.61 66.3781 Q1999.66 65.3249 2003.63 63.2184 L2003.63 70.267 Q1999.62 71.9684 1995.4 72.8596 Q1991.19 73.7508 1986.86 73.7508 Q1976 73.7508 1969.64 67.4314 Q1963.32 61.1119 1963.32 50.3365 Q1963.32 39.1965 1969.32 32.6746 Q1975.35 26.1121 1985.56 26.1121 Q1994.72 26.1121 2000.02 32.0264 Q2005.37 37.9003 2005.37 48.0275 M1997.92 45.84 Q1997.84 39.7232 1994.47 36.0774 Q1991.15 32.4315 1985.64 32.4315 Q1979.4 32.4315 1975.64 35.9558 Q1971.91 39.4801 1971.34 45.8805 L1997.92 45.84 Z" fill="#000000" fill-rule="nonzero" fill-opacity="1" /><path clip-path="url(#clip700)" d="M2033.52 72.576 L2010.43 12.096 L2018.98 12.096 L2038.14 63.0159 L2057.34 12.096 L2065.85 12.096 L2042.8 72.576 L2033.52 72.576 Z" fill="#000000" fill-rule="nonzero" fill-opacity="1" /><polyline clip-path="url(#clip702)" style="stroke:#009af9; stroke-linecap:round; stroke-linejoin:round; stroke-width:10; stroke-opacity:1; fill:none" points="338.375,176.701 387.268,170.805 436.161,166.923 485.053,164.199 533.946,162.276 582.839,161 631.732,160.322 680.624,160.256 729.517,160.903 778.41,162.513 827.303,165.535 876.195,170.525 925.088,178.027 973.981,188.522 1022.87,202.46 1071.77,220.295 1120.66,242.529 1169.55,269.744 1218.44,302.64 1267.34,342.092 1316.23,389.218 1365.12,445.503 1414.02,512.987 1462.91,594.601 1511.8,694.748 1560.69,820.176 1609.59,978.815 1658.48,1152.4 1707.37,1261.55 1756.26,1310.33 1805.16,1335.07 1854.05,1349.72 1902.94,1359.36 1951.84,1366.17 2000.73,1371.24 2049.62,1375.17 2098.51,1378.31 2147.41,1380.88 2196.3,1383.02 2245.19,1384.83 2294.08,1386.4 "/>
<path clip-path="url(#clip700)" d="M1918.57 270.476 L2283.65 270.476 L2283.65 166.796 L1918.57 166.796  Z" fill="#ffffff" fill-rule="evenodd" fill-opacity="1"/>
<polyline clip-path="url(#clip700)" style="stroke:#000000; stroke-linecap:round; stroke-linejoin:round; stroke-width:4; stroke-opacity:1; fill:none" points="1918.57,270.476 2283.65,270.476 2283.65,166.796 1918.57,166.796 1918.57,270.476 "/>
<polyline clip-path="url(#clip700)" style="stroke:#009af9; stroke-linecap:round; stroke-linejoin:round; stroke-width:10; stroke-opacity:1; fill:none" points="1941.61,218.636 2079.81,218.636 "/>
<path clip-path="url(#clip700)" d="M2102.84 201.356 L2109.14 201.356 L2124.46 230.268 L2124.46 201.356 L2129 201.356 L2129 235.916 L2122.7 235.916 L2107.38 207.004 L2107.38 235.916 L2102.84 235.916 L2102.84 201.356 Z" fill="#000000" fill-rule="nonzero" fill-opacity="1" /><path clip-path="url(#clip700)" d="M2138.68 214.388 L2168.35 214.388 L2168.35 218.277 L2138.68 218.277 L2138.68 214.388 M2138.68 223.832 L2168.35 223.832 L2168.35 227.768 L2138.68 227.768 L2138.68 223.832 Z" fill="#000000" fill-rule="nonzero" fill-opacity="1" /><path clip-path="url(#clip700)" d="M2179.25 231.981 L2186.89 231.981 L2186.89 205.615 L2178.58 207.282 L2178.58 203.022 L2186.85 201.356 L2191.52 201.356 L2191.52 231.981 L2199.16 231.981 L2199.16 235.916 L2179.25 235.916 L2179.25 231.981 Z" fill="#000000" fill-rule="nonzero" fill-opacity="1" /><path clip-path="url(#clip700)" d="M2212.63 231.981 L2228.95 231.981 L2228.95 235.916 L2207.01 235.916 L2207.01 231.981 Q2209.67 229.226 2214.25 224.596 Q2218.86 219.944 2220.04 218.601 Q2222.29 216.078 2223.17 214.342 Q2224.07 212.583 2224.07 210.893 Q2224.07 208.138 2222.13 206.402 Q2220.2 204.666 2217.1 204.666 Q2214.9 204.666 2212.45 205.43 Q2210.02 206.194 2207.24 207.745 L2207.24 203.022 Q2210.06 201.888 2212.52 201.309 Q2214.97 200.731 2217.01 200.731 Q2222.38 200.731 2225.57 203.416 Q2228.77 206.101 2228.77 210.592 Q2228.77 212.721 2227.96 214.643 Q2227.17 216.541 2225.06 219.133 Q2224.49 219.805 2221.38 223.022 Q2218.28 226.217 2212.63 231.981 Z" fill="#000000" fill-rule="nonzero" fill-opacity="1" /><path clip-path="url(#clip700)" d="M2248.77 219.504 Q2245.44 219.504 2243.51 221.286 Q2241.62 223.069 2241.62 226.194 Q2241.62 229.319 2243.51 231.101 Q2245.44 232.883 2248.77 232.883 Q2252.1 232.883 2254.02 231.101 Q2255.94 229.295 2255.94 226.194 Q2255.94 223.069 2254.02 221.286 Q2252.12 219.504 2248.77 219.504 M2244.09 217.513 Q2241.08 216.772 2239.39 214.712 Q2237.73 212.652 2237.73 209.689 Q2237.73 205.546 2240.67 203.138 Q2243.63 200.731 2248.77 200.731 Q2253.93 200.731 2256.87 203.138 Q2259.81 205.546 2259.81 209.689 Q2259.81 212.652 2258.12 214.712 Q2256.45 216.772 2253.47 217.513 Q2256.85 218.3 2258.72 220.592 Q2260.62 222.883 2260.62 226.194 Q2260.62 231.217 2257.54 233.902 Q2254.49 236.587 2248.77 236.587 Q2243.05 236.587 2239.97 233.902 Q2236.92 231.217 2236.92 226.194 Q2236.92 222.883 2238.81 220.592 Q2240.71 218.3 2244.09 217.513 M2242.38 210.129 Q2242.38 212.814 2244.05 214.319 Q2245.74 215.823 2248.77 215.823 Q2251.78 215.823 2253.47 214.319 Q2255.18 212.814 2255.18 210.129 Q2255.18 207.444 2253.47 205.939 Q2251.78 204.434 2248.77 204.434 Q2245.74 204.434 2244.05 205.939 Q2242.38 207.444 2242.38 210.129 Z" fill="#000000" fill-rule="nonzero" fill-opacity="1" /></svg>
