<?xml version="1.0" encoding="utf-8"?>
<svg xmlns="http://www.w3.org/2000/svg" xmlns:xlink="http://www.w3.org/1999/xlink" width="600" height="400" viewBox="0 0 2400 1600">
<defs>
  <clipPath id="clip010">
    <rect x="0" y="0" width="2400" height="1600"/>
  </clipPath>
</defs>
<path clip-path="url(#clip010)" d="M0 1600 L2400 1600 L2400 0 L0 0  Z" fill="#ffffff" fill-rule="evenodd" fill-opacity="1"/>
<defs>
  <clipPath id="clip011">
    <rect x="480" y="0" width="1681" height="1600"/>
  </clipPath>
</defs>
<path clip-path="url(#clip010)" d="M249.542 1423.18 L2352.76 1423.18 L2352.76 123.472 L249.542 123.472  Z" fill="#ffffff" fill-rule="evenodd" fill-opacity="1"/>
<defs>
  <clipPath id="clip012">
    <rect x="249" y="123" width="2104" height="1301"/>
  </clipPath>
</defs>
<polyline clip-path="url(#clip012)" style="stroke:#000000; stroke-linecap:round; stroke-linejoin:round; stroke-width:2; stroke-opacity:0.1; fill:none" points="309.067,1423.18 309.067,123.472 "/>
<polyline clip-path="url(#clip012)" style="stroke:#000000; stroke-linecap:round; stroke-linejoin:round; stroke-width:2; stroke-opacity:0.1; fill:none" points="805.108,1423.18 805.108,123.472 "/>
<polyline clip-path="url(#clip012)" style="stroke:#000000; stroke-linecap:round; stroke-linejoin:round; stroke-width:2; stroke-opacity:0.1; fill:none" points="1301.15,1423.18 1301.15,123.472 "/>
<polyline clip-path="url(#clip012)" style="stroke:#000000; stroke-linecap:round; stroke-linejoin:round; stroke-width:2; stroke-opacity:0.1; fill:none" points="1797.19,1423.18 1797.19,123.472 "/>
<polyline clip-path="url(#clip012)" style="stroke:#000000; stroke-linecap:round; stroke-linejoin:round; stroke-width:2; stroke-opacity:0.1; fill:none" points="2293.23,1423.18 2293.23,123.472 "/>
<polyline clip-path="url(#clip012)" style="stroke:#000000; stroke-linecap:round; stroke-linejoin:round; stroke-width:2; stroke-opacity:0.1; fill:none" points="249.542,1399.8 2352.76,1399.8 "/>
<polyline clip-path="url(#clip012)" style="stroke:#000000; stroke-linecap:round; stroke-linejoin:round; stroke-width:2; stroke-opacity:0.1; fill:none" points="249.542,1005.17 2352.76,1005.17 "/>
<polyline clip-path="url(#clip012)" style="stroke:#000000; stroke-linecap:round; stroke-linejoin:round; stroke-width:2; stroke-opacity:0.1; fill:none" points="249.542,610.541 2352.76,610.541 "/>
<polyline clip-path="url(#clip012)" style="stroke:#000000; stroke-linecap:round; stroke-linejoin:round; stroke-width:2; stroke-opacity:0.1; fill:none" points="249.542,215.912 2352.76,215.912 "/>
<polyline clip-path="url(#clip010)" style="stroke:#000000; stroke-linecap:round; stroke-linejoin:round; stroke-width:4; stroke-opacity:1; fill:none" points="249.542,1423.18 2352.76,1423.18 "/>
<polyline clip-path="url(#clip010)" style="stroke:#000000; stroke-linecap:round; stroke-linejoin:round; stroke-width:4; stroke-opacity:1; fill:none" points="309.067,1423.18 309.067,1404.28 "/>
<polyline clip-path="url(#clip010)" style="stroke:#000000; stroke-linecap:round; stroke-linejoin:round; stroke-width:4; stroke-opacity:1; fill:none" points="805.108,1423.18 805.108,1404.28 "/>
<polyline clip-path="url(#clip010)" style="stroke:#000000; stroke-linecap:round; stroke-linejoin:round; stroke-width:4; stroke-opacity:1; fill:none" points="1301.15,1423.18 1301.15,1404.28 "/>
<polyline clip-path="url(#clip010)" style="stroke:#000000; stroke-linecap:round; stroke-linejoin:round; stroke-width:4; stroke-opacity:1; fill:none" points="1797.19,1423.18 1797.19,1404.28 "/>
<polyline clip-path="url(#clip010)" style="stroke:#000000; stroke-linecap:round; stroke-linejoin:round; stroke-width:4; stroke-opacity:1; fill:none" points="2293.23,1423.18 2293.23,1404.28 "/>
<path clip-path="url(#clip010)" d="M268.674 1481.64 L276.312 1481.64 L276.312 1455.28 L268.002 1456.95 L268.002 1452.69 L276.266 1451.02 L280.942 1451.02 L280.942 1481.64 L288.581 1481.64 L288.581 1485.58 L268.674 1485.58 L268.674 1481.64 Z" fill="#000000" fill-rule="nonzero" fill-opacity="1" /><path clip-path="url(#clip010)" d="M308.025 1454.1 Q304.414 1454.1 302.586 1457.66 Q300.78 1461.2 300.78 1468.33 Q300.78 1475.44 302.586 1479.01 Q304.414 1482.55 308.025 1482.55 Q311.66 1482.55 313.465 1479.01 Q315.294 1475.44 315.294 1468.33 Q315.294 1461.2 313.465 1457.66 Q311.66 1454.1 308.025 1454.1 M308.025 1450.39 Q313.835 1450.39 316.891 1455 Q319.97 1459.58 319.97 1468.33 Q319.97 1477.06 316.891 1481.67 Q313.835 1486.25 308.025 1486.25 Q302.215 1486.25 299.136 1481.67 Q296.081 1477.06 296.081 1468.33 Q296.081 1459.58 299.136 1455 Q302.215 1450.39 308.025 1450.39 Z" fill="#000000" fill-rule="nonzero" fill-opacity="1" /><path clip-path="url(#clip010)" d="M338.187 1454.1 Q334.576 1454.1 332.747 1457.66 Q330.942 1461.2 330.942 1468.33 Q330.942 1475.44 332.747 1479.01 Q334.576 1482.55 338.187 1482.55 Q341.821 1482.55 343.627 1479.01 Q345.456 1475.44 345.456 1468.33 Q345.456 1461.2 343.627 1457.66 Q341.821 1454.1 338.187 1454.1 M338.187 1450.39 Q343.997 1450.39 347.053 1455 Q350.132 1459.58 350.132 1468.33 Q350.132 1477.06 347.053 1481.67 Q343.997 1486.25 338.187 1486.25 Q332.377 1486.25 329.298 1481.67 Q326.243 1477.06 326.243 1468.33 Q326.243 1459.58 329.298 1455 Q332.377 1450.39 338.187 1450.39 Z" fill="#000000" fill-rule="nonzero" fill-opacity="1" /><path clip-path="url(#clip010)" d="M765.212 1481.64 L772.851 1481.64 L772.851 1455.28 L764.541 1456.95 L764.541 1452.69 L772.805 1451.02 L777.481 1451.02 L777.481 1481.64 L785.12 1481.64 L785.12 1485.58 L765.212 1485.58 L765.212 1481.64 Z" fill="#000000" fill-rule="nonzero" fill-opacity="1" /><path clip-path="url(#clip010)" d="M798.592 1481.64 L814.911 1481.64 L814.911 1485.58 L792.967 1485.58 L792.967 1481.64 Q795.629 1478.89 800.212 1474.26 Q804.819 1469.61 805.999 1468.27 Q808.245 1465.74 809.124 1464.01 Q810.027 1462.25 810.027 1460.56 Q810.027 1457.8 808.082 1456.07 Q806.161 1454.33 803.059 1454.33 Q800.86 1454.33 798.407 1455.09 Q795.976 1455.86 793.198 1457.41 L793.198 1452.69 Q796.022 1451.55 798.476 1450.97 Q800.93 1450.39 802.967 1450.39 Q808.337 1450.39 811.532 1453.08 Q814.726 1455.77 814.726 1460.26 Q814.726 1462.39 813.916 1464.31 Q813.129 1466.2 811.022 1468.8 Q810.444 1469.47 807.342 1472.69 Q804.24 1475.88 798.592 1481.64 Z" fill="#000000" fill-rule="nonzero" fill-opacity="1" /><path clip-path="url(#clip010)" d="M824.772 1451.02 L843.129 1451.02 L843.129 1454.96 L829.055 1454.96 L829.055 1463.43 Q830.073 1463.08 831.092 1462.92 Q832.11 1462.73 833.129 1462.73 Q838.916 1462.73 842.295 1465.9 Q845.675 1469.08 845.675 1474.49 Q845.675 1480.07 842.203 1483.17 Q838.73 1486.25 832.411 1486.25 Q830.235 1486.25 827.967 1485.88 Q825.721 1485.51 823.314 1484.77 L823.314 1480.07 Q825.397 1481.2 827.619 1481.76 Q829.842 1482.32 832.318 1482.32 Q836.323 1482.32 838.661 1480.21 Q840.999 1478.1 840.999 1474.49 Q840.999 1470.88 838.661 1468.77 Q836.323 1466.67 832.318 1466.67 Q830.443 1466.67 828.568 1467.08 Q826.717 1467.5 824.772 1468.38 L824.772 1451.02 Z" fill="#000000" fill-rule="nonzero" fill-opacity="1" /><path clip-path="url(#clip010)" d="M1260.76 1481.64 L1268.39 1481.64 L1268.39 1455.28 L1260.08 1456.95 L1260.08 1452.69 L1268.35 1451.02 L1273.02 1451.02 L1273.02 1481.64 L1280.66 1481.64 L1280.66 1485.58 L1260.76 1485.58 L1260.76 1481.64 Z" fill="#000000" fill-rule="nonzero" fill-opacity="1" /><path clip-path="url(#clip010)" d="M1290.15 1451.02 L1308.51 1451.02 L1308.51 1454.96 L1294.44 1454.96 L1294.44 1463.43 Q1295.45 1463.08 1296.47 1462.92 Q1297.49 1462.73 1298.51 1462.73 Q1304.3 1462.73 1307.68 1465.9 Q1311.06 1469.08 1311.06 1474.49 Q1311.06 1480.07 1307.58 1483.17 Q1304.11 1486.25 1297.79 1486.25 Q1295.62 1486.25 1293.35 1485.88 Q1291.1 1485.51 1288.7 1484.77 L1288.7 1480.07 Q1290.78 1481.2 1293 1481.76 Q1295.22 1482.32 1297.7 1482.32 Q1301.7 1482.32 1304.04 1480.21 Q1306.38 1478.1 1306.38 1474.49 Q1306.38 1470.88 1304.04 1468.77 Q1301.7 1466.67 1297.7 1466.67 Q1295.82 1466.67 1293.95 1467.08 Q1292.1 1467.5 1290.15 1468.38 L1290.15 1451.02 Z" fill="#000000" fill-rule="nonzero" fill-opacity="1" /><path clip-path="url(#clip010)" d="M1330.27 1454.1 Q1326.66 1454.1 1324.83 1457.66 Q1323.02 1461.2 1323.02 1468.33 Q1323.02 1475.44 1324.83 1479.01 Q1326.66 1482.55 1330.27 1482.55 Q1333.9 1482.55 1335.71 1479.01 Q1337.54 1475.44 1337.54 1468.33 Q1337.54 1461.2 1335.71 1457.66 Q1333.9 1454.1 1330.27 1454.1 M1330.27 1450.39 Q1336.08 1450.39 1339.13 1455 Q1342.21 1459.58 1342.21 1468.33 Q1342.21 1477.06 1339.13 1481.67 Q1336.08 1486.25 1330.27 1486.25 Q1324.46 1486.25 1321.38 1481.67 Q1318.32 1477.06 1318.32 1468.33 Q1318.32 1459.58 1321.38 1455 Q1324.46 1450.39 1330.27 1450.39 Z" fill="#000000" fill-rule="nonzero" fill-opacity="1" /><path clip-path="url(#clip010)" d="M1757.29 1481.64 L1764.93 1481.64 L1764.93 1455.28 L1756.62 1456.95 L1756.62 1452.69 L1764.89 1451.02 L1769.56 1451.02 L1769.56 1481.64 L1777.2 1481.64 L1777.2 1485.58 L1757.29 1485.58 L1757.29 1481.64 Z" fill="#000000" fill-rule="nonzero" fill-opacity="1" /><path clip-path="url(#clip010)" d="M1785.47 1451.02 L1807.69 1451.02 L1807.69 1453.01 L1795.14 1485.58 L1790.26 1485.58 L1802.06 1454.96 L1785.47 1454.96 L1785.47 1451.02 Z" fill="#000000" fill-rule="nonzero" fill-opacity="1" /><path clip-path="url(#clip010)" d="M1816.85 1451.02 L1835.21 1451.02 L1835.21 1454.96 L1821.14 1454.96 L1821.14 1463.43 Q1822.16 1463.08 1823.17 1462.92 Q1824.19 1462.73 1825.21 1462.73 Q1831 1462.73 1834.38 1465.9 Q1837.76 1469.08 1837.76 1474.49 Q1837.76 1480.07 1834.28 1483.17 Q1830.81 1486.25 1824.49 1486.25 Q1822.32 1486.25 1820.05 1485.88 Q1817.8 1485.51 1815.4 1484.77 L1815.4 1480.07 Q1817.48 1481.2 1819.7 1481.76 Q1821.92 1482.32 1824.4 1482.32 Q1828.41 1482.32 1830.74 1480.21 Q1833.08 1478.1 1833.08 1474.49 Q1833.08 1470.88 1830.74 1468.77 Q1828.41 1466.67 1824.4 1466.67 Q1822.53 1466.67 1820.65 1467.08 Q1818.8 1467.5 1816.85 1468.38 L1816.85 1451.02 Z" fill="#000000" fill-rule="nonzero" fill-opacity="1" /><path clip-path="url(#clip010)" d="M2256.92 1481.64 L2273.24 1481.64 L2273.24 1485.58 L2251.3 1485.58 L2251.3 1481.64 Q2253.96 1478.89 2258.54 1474.26 Q2263.15 1469.61 2264.33 1468.27 Q2266.58 1465.74 2267.46 1464.01 Q2268.36 1462.25 2268.36 1460.56 Q2268.36 1457.8 2266.41 1456.07 Q2264.49 1454.33 2261.39 1454.33 Q2259.19 1454.33 2256.74 1455.09 Q2254.31 1455.86 2251.53 1457.41 L2251.53 1452.69 Q2254.35 1451.55 2256.81 1450.97 Q2259.26 1450.39 2261.3 1450.39 Q2266.67 1450.39 2269.86 1453.08 Q2273.06 1455.77 2273.06 1460.26 Q2273.06 1462.39 2272.25 1464.31 Q2271.46 1466.2 2269.35 1468.8 Q2268.78 1469.47 2265.67 1472.69 Q2262.57 1475.88 2256.92 1481.64 Z" fill="#000000" fill-rule="nonzero" fill-opacity="1" /><path clip-path="url(#clip010)" d="M2293.06 1454.1 Q2289.45 1454.1 2287.62 1457.66 Q2285.81 1461.2 2285.81 1468.33 Q2285.81 1475.44 2287.62 1479.01 Q2289.45 1482.55 2293.06 1482.55 Q2296.69 1482.55 2298.5 1479.01 Q2300.33 1475.44 2300.33 1468.33 Q2300.33 1461.2 2298.5 1457.66 Q2296.69 1454.1 2293.06 1454.1 M2293.06 1450.39 Q2298.87 1450.39 2301.92 1455 Q2305 1459.58 2305 1468.33 Q2305 1477.06 2301.92 1481.67 Q2298.87 1486.25 2293.06 1486.25 Q2287.25 1486.25 2284.17 1481.67 Q2281.11 1477.06 2281.11 1468.33 Q2281.11 1459.58 2284.17 1455 Q2287.25 1450.39 2293.06 1450.39 Z" fill="#000000" fill-rule="nonzero" fill-opacity="1" /><path clip-path="url(#clip010)" d="M2323.22 1454.1 Q2319.61 1454.1 2317.78 1457.66 Q2315.97 1461.2 2315.97 1468.33 Q2315.97 1475.44 2317.78 1479.01 Q2319.61 1482.55 2323.22 1482.55 Q2326.85 1482.55 2328.66 1479.01 Q2330.49 1475.44 2330.49 1468.33 Q2330.49 1461.2 2328.66 1457.66 Q2326.85 1454.1 2323.22 1454.1 M2323.22 1450.39 Q2329.03 1450.39 2332.08 1455 Q2335.16 1459.58 2335.16 1468.33 Q2335.16 1477.06 2332.08 1481.67 Q2329.03 1486.25 2323.22 1486.25 Q2317.41 1486.25 2314.33 1481.67 Q2311.27 1477.06 2311.27 1468.33 Q2311.27 1459.58 2314.33 1455 Q2317.41 1450.39 2323.22 1450.39 Z" fill="#000000" fill-rule="nonzero" fill-opacity="1" /><path clip-path="url(#clip010)" d="M1177.69 1520.52 L1217.89 1520.52 L1217.89 1525.93 L1201.02 1525.93 L1201.02 1568.04 L1194.56 1568.04 L1194.56 1525.93 L1177.69 1525.93 L1177.69 1520.52 Z" fill="#000000" fill-rule="nonzero" fill-opacity="1" /><path clip-path="url(#clip010)" d="M1244.02 1518.52 L1257.51 1518.52 L1257.51 1523.07 L1249.87 1523.07 L1249.87 1572.09 L1257.51 1572.09 L1257.51 1576.64 L1244.02 1576.64 L1244.02 1518.52 Z" fill="#000000" fill-rule="nonzero" fill-opacity="1" /><path clip-path="url(#clip010)" d="M1270.24 1520.52 L1279.82 1520.52 L1291.95 1552.86 L1304.14 1520.52 L1313.72 1520.52 L1313.72 1568.04 L1307.45 1568.04 L1307.45 1526.32 L1295.2 1558.91 L1288.74 1558.91 L1276.48 1526.32 L1276.48 1568.04 L1270.24 1568.04 L1270.24 1520.52 Z" fill="#000000" fill-rule="nonzero" fill-opacity="1" /><path clip-path="url(#clip010)" d="M1356.72 1548.76 L1356.72 1551.62 L1329.79 1551.62 Q1330.18 1557.67 1333.42 1560.85 Q1336.7 1564 1342.53 1564 Q1345.9 1564 1349.05 1563.17 Q1352.23 1562.35 1355.35 1560.69 L1355.35 1566.23 Q1352.2 1567.57 1348.89 1568.27 Q1345.58 1568.97 1342.18 1568.97 Q1333.65 1568.97 1328.65 1564 Q1323.68 1559.04 1323.68 1550.57 Q1323.68 1541.82 1328.39 1536.69 Q1333.14 1531.54 1341.16 1531.54 Q1348.35 1531.54 1352.52 1536.18 Q1356.72 1540.8 1356.72 1548.76 M1350.87 1547.04 Q1350.8 1542.23 1348.16 1539.37 Q1345.55 1536.5 1341.22 1536.5 Q1336.32 1536.5 1333.36 1539.27 Q1330.43 1542.04 1329.99 1547.07 L1350.87 1547.04 Z" fill="#000000" fill-rule="nonzero" fill-opacity="1" /><path clip-path="url(#clip010)" d="M1378.84 1568.04 L1360.7 1520.52 L1367.42 1520.52 L1382.47 1560.53 L1397.56 1520.52 L1404.24 1520.52 L1386.13 1568.04 L1378.84 1568.04 Z" fill="#000000" fill-rule="nonzero" fill-opacity="1" /><path clip-path="url(#clip010)" d="M1424.61 1518.52 L1424.61 1576.64 L1411.12 1576.64 L1411.12 1572.09 L1418.72 1572.09 L1418.72 1523.07 L1411.12 1523.07 L1411.12 1518.52 L1424.61 1518.52 Z" fill="#000000" fill-rule="nonzero" fill-opacity="1" /><polyline clip-path="url(#clip010)" style="stroke:#000000; stroke-linecap:round; stroke-linejoin:round; stroke-width:4; stroke-opacity:1; fill:none" points="249.542,1423.18 249.542,123.472 "/>
<polyline clip-path="url(#clip010)" style="stroke:#000000; stroke-linecap:round; stroke-linejoin:round; stroke-width:4; stroke-opacity:1; fill:none" points="249.542,1399.8 268.44,1399.8 "/>
<polyline clip-path="url(#clip010)" style="stroke:#000000; stroke-linecap:round; stroke-linejoin:round; stroke-width:4; stroke-opacity:1; fill:none" points="249.542,1005.17 268.44,1005.17 "/>
<polyline clip-path="url(#clip010)" style="stroke:#000000; stroke-linecap:round; stroke-linejoin:round; stroke-width:4; stroke-opacity:1; fill:none" points="249.542,610.541 268.44,610.541 "/>
<polyline clip-path="url(#clip010)" style="stroke:#000000; stroke-linecap:round; stroke-linejoin:round; stroke-width:4; stroke-opacity:1; fill:none" points="249.542,215.912 268.44,215.912 "/>
<path clip-path="url(#clip010)" d="M126.205 1385.6 Q122.593 1385.6 120.765 1389.16 Q118.959 1392.7 118.959 1399.83 Q118.959 1406.94 120.765 1410.51 Q122.593 1414.05 126.205 1414.05 Q129.839 1414.05 131.644 1410.51 Q133.473 1406.94 133.473 1399.83 Q133.473 1392.7 131.644 1389.16 Q129.839 1385.6 126.205 1385.6 M126.205 1381.89 Q132.015 1381.89 135.07 1386.5 Q138.149 1391.08 138.149 1399.83 Q138.149 1408.56 135.07 1413.17 Q132.015 1417.75 126.205 1417.75 Q120.394 1417.75 117.316 1413.17 Q114.26 1408.56 114.26 1399.83 Q114.26 1391.08 117.316 1386.5 Q120.394 1381.89 126.205 1381.89 Z" fill="#000000" fill-rule="nonzero" fill-opacity="1" /><path clip-path="url(#clip010)" d="M146.366 1411.2 L151.251 1411.2 L151.251 1417.08 L146.366 1417.08 L146.366 1411.2 Z" fill="#000000" fill-rule="nonzero" fill-opacity="1" /><path clip-path="url(#clip010)" d="M171.436 1385.6 Q167.825 1385.6 165.996 1389.16 Q164.19 1392.7 164.19 1399.83 Q164.19 1406.94 165.996 1410.51 Q167.825 1414.05 171.436 1414.05 Q175.07 1414.05 176.876 1410.51 Q178.704 1406.94 178.704 1399.83 Q178.704 1392.7 176.876 1389.16 Q175.07 1385.6 171.436 1385.6 M171.436 1381.89 Q177.246 1381.89 180.301 1386.5 Q183.38 1391.08 183.38 1399.83 Q183.38 1408.56 180.301 1413.17 Q177.246 1417.75 171.436 1417.75 Q165.626 1417.75 162.547 1413.17 Q159.491 1408.56 159.491 1399.83 Q159.491 1391.08 162.547 1386.5 Q165.626 1381.89 171.436 1381.89 Z" fill="#000000" fill-rule="nonzero" fill-opacity="1" /><path clip-path="url(#clip010)" d="M201.598 1385.6 Q197.987 1385.6 196.158 1389.16 Q194.352 1392.7 194.352 1399.83 Q194.352 1406.94 196.158 1410.51 Q197.987 1414.05 201.598 1414.05 Q205.232 1414.05 207.037 1410.51 Q208.866 1406.94 208.866 1399.83 Q208.866 1392.7 207.037 1389.16 Q205.232 1385.6 201.598 1385.6 M201.598 1381.89 Q207.408 1381.89 210.463 1386.5 Q213.542 1391.08 213.542 1399.83 Q213.542 1408.56 210.463 1413.17 Q207.408 1417.75 201.598 1417.75 Q195.787 1417.75 192.709 1413.17 Q189.653 1408.56 189.653 1399.83 Q189.653 1391.08 192.709 1386.5 Q195.787 1381.89 201.598 1381.89 Z" fill="#000000" fill-rule="nonzero" fill-opacity="1" /><path clip-path="url(#clip010)" d="M127.431 990.969 Q123.82 990.969 121.992 994.534 Q120.186 998.075 120.186 1005.2 Q120.186 1012.31 121.992 1015.88 Q123.82 1019.42 127.431 1019.42 Q131.066 1019.42 132.871 1015.88 Q134.7 1012.31 134.7 1005.2 Q134.7 998.075 132.871 994.534 Q131.066 990.969 127.431 990.969 M127.431 987.265 Q133.242 987.265 136.297 991.872 Q139.376 996.455 139.376 1005.2 Q139.376 1013.93 136.297 1018.54 Q133.242 1023.12 127.431 1023.12 Q121.621 1023.12 118.543 1018.54 Q115.487 1013.93 115.487 1005.2 Q115.487 996.455 118.543 991.872 Q121.621 987.265 127.431 987.265 Z" fill="#000000" fill-rule="nonzero" fill-opacity="1" /><path clip-path="url(#clip010)" d="M147.593 1016.57 L152.478 1016.57 L152.478 1022.45 L147.593 1022.45 L147.593 1016.57 Z" fill="#000000" fill-rule="nonzero" fill-opacity="1" /><path clip-path="url(#clip010)" d="M172.663 990.969 Q169.052 990.969 167.223 994.534 Q165.417 998.075 165.417 1005.2 Q165.417 1012.31 167.223 1015.88 Q169.052 1019.42 172.663 1019.42 Q176.297 1019.42 178.102 1015.88 Q179.931 1012.31 179.931 1005.2 Q179.931 998.075 178.102 994.534 Q176.297 990.969 172.663 990.969 M172.663 987.265 Q178.473 987.265 181.528 991.872 Q184.607 996.455 184.607 1005.2 Q184.607 1013.93 181.528 1018.54 Q178.473 1023.12 172.663 1023.12 Q166.852 1023.12 163.774 1018.54 Q160.718 1013.93 160.718 1005.2 Q160.718 996.455 163.774 991.872 Q166.852 987.265 172.663 987.265 Z" fill="#000000" fill-rule="nonzero" fill-opacity="1" /><path clip-path="url(#clip010)" d="M193.635 1018.51 L201.274 1018.51 L201.274 992.149 L192.963 993.816 L192.963 989.557 L201.227 987.89 L205.903 987.89 L205.903 1018.51 L213.542 1018.51 L213.542 1022.45 L193.635 1022.45 L193.635 1018.51 Z" fill="#000000" fill-rule="nonzero" fill-opacity="1" /><path clip-path="url(#clip010)" d="M127.802 596.34 Q124.191 596.34 122.362 599.904 Q120.556 603.446 120.556 610.576 Q120.556 617.682 122.362 621.247 Q124.191 624.788 127.802 624.788 Q131.436 624.788 133.242 621.247 Q135.07 617.682 135.07 610.576 Q135.07 603.446 133.242 599.904 Q131.436 596.34 127.802 596.34 M127.802 592.636 Q133.612 592.636 136.667 597.242 Q139.746 601.826 139.746 610.576 Q139.746 619.302 136.667 623.909 Q133.612 628.492 127.802 628.492 Q121.992 628.492 118.913 623.909 Q115.857 619.302 115.857 610.576 Q115.857 601.826 118.913 597.242 Q121.992 592.636 127.802 592.636 Z" fill="#000000" fill-rule="nonzero" fill-opacity="1" /><path clip-path="url(#clip010)" d="M147.964 621.941 L152.848 621.941 L152.848 627.821 L147.964 627.821 L147.964 621.941 Z" fill="#000000" fill-rule="nonzero" fill-opacity="1" /><path clip-path="url(#clip010)" d="M173.033 596.34 Q169.422 596.34 167.593 599.904 Q165.788 603.446 165.788 610.576 Q165.788 617.682 167.593 621.247 Q169.422 624.788 173.033 624.788 Q176.667 624.788 178.473 621.247 Q180.301 617.682 180.301 610.576 Q180.301 603.446 178.473 599.904 Q176.667 596.34 173.033 596.34 M173.033 592.636 Q178.843 592.636 181.899 597.242 Q184.977 601.826 184.977 610.576 Q184.977 619.302 181.899 623.909 Q178.843 628.492 173.033 628.492 Q167.223 628.492 164.144 623.909 Q161.089 619.302 161.089 610.576 Q161.089 601.826 164.144 597.242 Q167.223 592.636 173.033 592.636 Z" fill="#000000" fill-rule="nonzero" fill-opacity="1" /><path clip-path="url(#clip010)" d="M197.223 623.886 L213.542 623.886 L213.542 627.821 L191.598 627.821 L191.598 623.886 Q194.26 621.131 198.843 616.501 Q203.449 611.849 204.63 610.506 Q206.875 607.983 207.755 606.247 Q208.658 604.488 208.658 602.798 Q208.658 600.043 206.713 598.307 Q204.792 596.571 201.69 596.571 Q199.491 596.571 197.037 597.335 Q194.607 598.099 191.829 599.65 L191.829 594.927 Q194.653 593.793 197.107 593.215 Q199.561 592.636 201.598 592.636 Q206.968 592.636 210.162 595.321 Q213.357 598.006 213.357 602.497 Q213.357 604.627 212.547 606.548 Q211.76 608.446 209.653 611.039 Q209.074 611.71 205.973 614.927 Q202.871 618.122 197.223 623.886 Z" fill="#000000" fill-rule="nonzero" fill-opacity="1" /><path clip-path="url(#clip010)" d="M126.853 201.71 Q123.242 201.71 121.413 205.275 Q119.607 208.817 119.607 215.946 Q119.607 223.053 121.413 226.618 Q123.242 230.159 126.853 230.159 Q130.487 230.159 132.292 226.618 Q134.121 223.053 134.121 215.946 Q134.121 208.817 132.292 205.275 Q130.487 201.71 126.853 201.71 M126.853 198.007 Q132.663 198.007 135.718 202.613 Q138.797 207.196 138.797 215.946 Q138.797 224.673 135.718 229.28 Q132.663 233.863 126.853 233.863 Q121.043 233.863 117.964 229.28 Q114.908 224.673 114.908 215.946 Q114.908 207.196 117.964 202.613 Q121.043 198.007 126.853 198.007 Z" fill="#000000" fill-rule="nonzero" fill-opacity="1" /><path clip-path="url(#clip010)" d="M147.015 227.312 L151.899 227.312 L151.899 233.192 L147.015 233.192 L147.015 227.312 Z" fill="#000000" fill-rule="nonzero" fill-opacity="1" /><path clip-path="url(#clip010)" d="M172.084 201.71 Q168.473 201.71 166.644 205.275 Q164.839 208.817 164.839 215.946 Q164.839 223.053 166.644 226.618 Q168.473 230.159 172.084 230.159 Q175.718 230.159 177.524 226.618 Q179.352 223.053 179.352 215.946 Q179.352 208.817 177.524 205.275 Q175.718 201.71 172.084 201.71 M172.084 198.007 Q177.894 198.007 180.95 202.613 Q184.028 207.196 184.028 215.946 Q184.028 224.673 180.95 229.28 Q177.894 233.863 172.084 233.863 Q166.274 233.863 163.195 229.28 Q160.14 224.673 160.14 215.946 Q160.14 207.196 163.195 202.613 Q166.274 198.007 172.084 198.007 Z" fill="#000000" fill-rule="nonzero" fill-opacity="1" /><path clip-path="url(#clip010)" d="M206.412 214.557 Q209.769 215.275 211.644 217.544 Q213.542 219.812 213.542 223.145 Q213.542 228.261 210.024 231.062 Q206.505 233.863 200.024 233.863 Q197.848 233.863 195.533 233.423 Q193.241 233.006 190.788 232.15 L190.788 227.636 Q192.732 228.77 195.047 229.349 Q197.362 229.928 199.885 229.928 Q204.283 229.928 206.574 228.192 Q208.889 226.456 208.889 223.145 Q208.889 220.09 206.737 218.377 Q204.607 216.641 200.787 216.641 L196.76 216.641 L196.76 212.798 L200.973 212.798 Q204.422 212.798 206.25 211.432 Q208.079 210.044 208.079 207.451 Q208.079 204.789 206.181 203.377 Q204.306 201.942 200.787 201.942 Q198.866 201.942 196.667 202.358 Q194.468 202.775 191.829 203.655 L191.829 199.488 Q194.491 198.747 196.806 198.377 Q199.144 198.007 201.204 198.007 Q206.528 198.007 209.63 200.437 Q212.732 202.845 212.732 206.965 Q212.732 209.835 211.088 211.826 Q209.445 213.794 206.412 214.557 Z" fill="#000000" fill-rule="nonzero" fill-opacity="1" /><path clip-path="url(#clip010)" d="M29.4065 993.309 L34.9447 993.309 Q33.6716 995.792 33.035 998.465 Q32.3984 1001.14 32.3984 1004 Q32.3984 1008.36 33.7352 1010.56 Q35.072 1012.72 37.7456 1012.72 Q39.7826 1012.72 40.9603 1011.16 Q42.1061 1009.61 43.1565 1004.89 L43.6021 1002.89 Q44.9389 996.651 47.3897 994.041 Q49.8086 991.399 54.1691 991.399 Q59.1344 991.399 62.0308 995.346 Q64.9272 999.261 64.9272 1006.14 Q64.9272 1009 64.3543 1012.12 Q63.8132 1015.21 62.6992 1018.64 L56.6518 1018.64 Q58.3387 1015.4 59.198 1012.25 Q60.0256 1009.1 60.0256 1006.01 Q60.0256 1001.87 58.6251 999.643 Q57.1929 997.415 54.6147 997.415 Q52.2276 997.415 50.9545 999.038 Q49.6813 1000.63 48.5037 1006.07 L48.0262 1008.11 Q46.8804 1013.55 44.5251 1015.97 Q42.138 1018.39 38.0002 1018.39 Q32.9713 1018.39 30.2341 1014.82 Q27.4968 1011.26 27.4968 1004.7 Q27.4968 1001.46 27.9743 998.592 Q28.4517 995.728 29.4065 993.309 Z" fill="#000000" fill-rule="nonzero" fill-opacity="1" /><path clip-path="url(#clip010)" d="M28.3562 982.073 L28.3562 976.217 L64.0042 976.217 L64.0042 982.073 L28.3562 982.073 M14.479 982.073 L14.479 976.217 L21.895 976.217 L21.895 982.073 L14.479 982.073 Z" fill="#000000" fill-rule="nonzero" fill-opacity="1" /><path clip-path="url(#clip010)" d="M45.7664 940.505 Q39.4007 940.505 35.8996 943.147 Q32.3984 945.757 32.3984 950.5 Q32.3984 955.21 35.8996 957.852 Q39.4007 960.462 45.7664 960.462 Q52.1003 960.462 55.6014 957.852 Q59.1026 955.21 59.1026 950.5 Q59.1026 945.757 55.6014 943.147 Q52.1003 940.505 45.7664 940.505 M59.58 934.649 Q68.683 934.649 73.1071 938.691 Q77.5631 942.733 77.5631 951.072 Q77.5631 954.16 77.0857 956.897 Q76.6401 959.634 75.6852 962.212 L69.9879 962.212 Q71.3884 959.634 72.0568 957.12 Q72.7252 954.605 72.7252 951.995 Q72.7252 946.234 69.7015 943.37 Q66.7096 940.505 60.6303 940.505 L57.7339 940.505 Q60.885 942.32 62.4446 945.152 Q64.0042 947.985 64.0042 951.932 Q64.0042 958.488 59.0071 962.499 Q54.01 966.509 45.7664 966.509 Q37.491 966.509 32.4939 962.499 Q27.4968 958.488 27.4968 951.932 Q27.4968 947.985 29.0564 945.152 Q30.616 942.32 33.7671 940.505 L28.3562 940.505 L28.3562 934.649 L59.58 934.649 Z" fill="#000000" fill-rule="nonzero" fill-opacity="1" /><path clip-path="url(#clip010)" d="M35.1993 894.831 Q31.2526 892.635 29.3747 889.58 Q27.4968 886.524 27.4968 882.386 Q27.4968 876.816 31.4117 873.793 Q35.2948 870.769 42.4881 870.769 L64.0042 870.769 L64.0042 876.657 L42.679 876.657 Q37.5546 876.657 35.072 878.472 Q32.5894 880.286 32.5894 884.01 Q32.5894 888.561 35.6131 891.203 Q38.6368 893.845 43.8567 893.845 L64.0042 893.845 L64.0042 899.733 L42.679 899.733 Q37.5228 899.733 35.072 901.547 Q32.5894 903.361 32.5894 907.149 Q32.5894 911.637 35.6449 914.279 Q38.6686 916.92 43.8567 916.92 L64.0042 916.92 L64.0042 922.809 L28.3562 922.809 L28.3562 916.92 L33.8944 916.92 Q30.616 914.915 29.0564 912.114 Q27.4968 909.313 27.4968 905.462 Q27.4968 901.579 29.4702 898.874 Q31.4436 896.136 35.1993 894.831 Z" fill="#000000" fill-rule="nonzero" fill-opacity="1" /><path clip-path="url(#clip010)" d="M46.0847 842.887 Q46.0847 849.985 47.7079 852.722 Q49.3312 855.46 53.2461 855.46 Q56.3653 855.46 58.2114 853.422 Q60.0256 851.354 60.0256 847.821 Q60.0256 842.951 56.5881 840.023 Q53.1188 837.063 47.3897 837.063 L46.0847 837.063 L46.0847 842.887 M43.6657 831.206 L64.0042 831.206 L64.0042 837.063 L58.5933 837.063 Q61.8398 839.068 63.3994 842.06 Q64.9272 845.052 64.9272 849.38 Q64.9272 854.855 61.8716 858.101 Q58.7843 861.316 53.6281 861.316 Q47.6125 861.316 44.5569 857.306 Q41.5014 853.263 41.5014 845.274 L41.5014 837.063 L40.9285 837.063 Q36.8862 837.063 34.6901 839.736 Q32.4621 842.378 32.4621 847.184 Q32.4621 850.24 33.1941 853.136 Q33.9262 856.032 35.3903 858.706 L29.9795 858.706 Q28.7381 855.491 28.1334 852.468 Q27.4968 849.444 27.4968 846.579 Q27.4968 838.845 31.5072 835.026 Q35.5176 831.206 43.6657 831.206 Z" fill="#000000" fill-rule="nonzero" fill-opacity="1" /><path clip-path="url(#clip010)" d="M14.479 798.964 L14.479 785.469 L19.0304 785.469 L19.0304 793.107 L68.0464 793.107 L68.0464 785.469 L72.5979 785.469 L72.5979 798.964 L14.479 798.964 Z" fill="#000000" fill-rule="nonzero" fill-opacity="1" /><path clip-path="url(#clip010)" d="M57.2247 740.336 L44.4614 740.336 L44.4614 750.839 L39.1779 750.839 L39.1779 733.97 L59.58 733.97 Q62.2218 737.694 63.5904 742.182 Q64.9272 746.67 64.9272 751.762 Q64.9272 762.902 58.4342 769.204 Q51.9093 775.474 40.2919 775.474 Q28.6427 775.474 22.1496 769.204 Q15.6248 762.902 15.6248 751.762 Q15.6248 747.115 16.7706 742.946 Q17.9164 738.744 20.1444 735.211 L26.9876 735.211 Q23.9639 738.776 22.4361 742.787 Q20.9083 746.797 20.9083 751.221 Q20.9083 759.942 25.7781 764.334 Q30.6479 768.695 40.2919 768.695 Q49.9041 768.695 54.7739 764.334 Q59.6436 759.942 59.6436 751.221 Q59.6436 747.815 59.0707 745.142 Q58.466 742.468 57.2247 740.336 Z" fill="#000000" fill-rule="nonzero" fill-opacity="1" /><path clip-path="url(#clip010)" d="M44.7161 691.988 L47.5806 691.988 L47.5806 718.915 Q53.6281 718.533 56.8109 715.287 Q59.9619 712.008 59.9619 706.184 Q59.9619 702.81 59.1344 699.659 Q58.3069 696.476 56.6518 693.357 L62.1899 693.357 Q63.5267 696.508 64.227 699.818 Q64.9272 703.128 64.9272 706.534 Q64.9272 715.064 59.9619 720.061 Q54.9967 725.026 46.5303 725.026 Q37.7774 725.026 32.6531 720.316 Q27.4968 715.573 27.4968 707.552 Q27.4968 700.359 32.1438 696.19 Q36.7589 691.988 44.7161 691.988 M42.9973 697.845 Q38.1912 697.908 35.3266 700.55 Q32.4621 703.16 32.4621 707.489 Q32.4621 712.39 35.2312 715.35 Q38.0002 718.279 43.0292 718.724 L42.9973 697.845 Z" fill="#000000" fill-rule="nonzero" fill-opacity="1" /><path clip-path="url(#clip010)" d="M64.0042 669.867 L16.4842 688.01 L16.4842 681.294 L56.4926 666.239 L16.4842 651.152 L16.4842 644.468 L64.0042 662.579 L64.0042 669.867 Z" fill="#000000" fill-rule="nonzero" fill-opacity="1" /><path clip-path="url(#clip010)" d="M16.4842 613.499 L34.2127 596.216 L34.2127 602.614 L21.6404 616.618 L34.2127 630.623 L34.2127 637.02 L16.4842 619.737 L16.4842 613.499 Z" fill="#000000" fill-rule="nonzero" fill-opacity="1" /><path clip-path="url(#clip010)" d="M38.3822 562.86 Q39.3689 558.245 42.4881 555.667 Q45.6073 553.057 50.1906 553.057 Q57.2247 553.057 61.0759 557.895 Q64.9272 562.732 64.9272 571.644 Q64.9272 574.636 64.3224 577.819 Q63.7495 580.97 62.5719 584.344 L56.3653 584.344 Q57.9249 581.67 58.7206 578.488 Q59.5163 575.305 59.5163 571.835 Q59.5163 565.788 57.1292 562.637 Q54.7421 559.454 50.1906 559.454 Q45.9892 559.454 43.6339 562.414 Q41.2468 565.342 41.2468 570.594 L41.2468 576.132 L35.9632 576.132 L35.9632 570.34 Q35.9632 565.597 34.0853 563.083 Q32.1756 560.568 28.6108 560.568 Q24.9505 560.568 23.009 563.178 Q21.0356 565.756 21.0356 570.594 Q21.0356 573.236 21.6086 576.26 Q22.1815 579.283 23.3909 582.912 L17.6618 582.912 Q16.6433 579.252 16.134 576.069 Q15.6248 572.854 15.6248 570.021 Q15.6248 562.701 18.9668 558.436 Q22.277 554.171 27.9424 554.171 Q31.8892 554.171 34.6264 556.43 Q37.3318 558.69 38.3822 562.86 Z" fill="#000000" fill-rule="nonzero" fill-opacity="1" /><path clip-path="url(#clip010)" d="M14.479 528.008 L72.5979 528.008 L72.5979 541.503 L68.0464 541.503 L68.0464 533.896 L19.0304 533.896 L19.0304 541.503 L14.479 541.503 L14.479 528.008 Z" fill="#000000" fill-rule="nonzero" fill-opacity="1" /><path clip-path="url(#clip010)" d="M568.239 18.8205 L568.239 41.5461 L578.528 41.5461 Q584.24 41.5461 587.359 38.5889 Q590.479 35.6318 590.479 30.163 Q590.479 24.7348 587.359 21.7777 Q584.24 18.8205 578.528 18.8205 L568.239 18.8205 M560.056 12.096 L578.528 12.096 Q588.696 12.096 593.881 16.714 Q599.107 21.2916 599.107 30.163 Q599.107 39.1155 593.881 43.6931 Q588.696 48.2706 578.528 48.2706 L568.239 48.2706 L568.239 72.576 L560.056 72.576 L560.056 12.096 Z" fill="#000000" fill-rule="nonzero" fill-opacity="1" /><path clip-path="url(#clip010)" d="M647.475 45.1919 L647.475 72.576 L640.021 72.576 L640.021 45.4349 Q640.021 38.994 637.51 35.7938 Q634.998 32.5936 629.975 32.5936 Q623.939 32.5936 620.455 36.4419 Q616.972 40.2903 616.972 46.9338 L616.972 72.576 L609.477 72.576 L609.477 9.54393 L616.972 9.54393 L616.972 34.2544 Q619.645 30.163 623.25 28.1376 Q626.896 26.1121 631.636 26.1121 Q639.454 26.1121 643.464 30.9732 Q647.475 35.7938 647.475 45.1919 Z" fill="#000000" fill-rule="nonzero" fill-opacity="1" /><path clip-path="url(#clip010)" d="M681.219 76.7889 Q678.059 84.8907 675.061 87.3618 Q672.064 89.8329 667.041 89.8329 L661.086 89.8329 L661.086 83.5945 L665.461 83.5945 Q668.54 83.5945 670.241 82.1361 Q671.942 80.6778 674.008 75.2496 L675.345 71.8468 L656.994 27.2059 L664.894 27.2059 L679.072 62.6918 L693.25 27.2059 L701.149 27.2059 L681.219 76.7889 Z" fill="#000000" fill-rule="nonzero" fill-opacity="1" /><path clip-path="url(#clip010)" d="M740.362 28.5427 L740.362 35.5912 Q737.202 33.9709 733.8 33.1607 Q730.397 32.3505 726.751 32.3505 Q721.201 32.3505 718.406 34.0519 Q715.652 35.7533 715.652 39.156 Q715.652 41.7486 717.636 43.2475 Q719.621 44.7058 725.617 46.0426 L728.169 46.6097 Q736.109 48.3111 739.43 51.4303 Q742.793 54.509 742.793 60.0587 Q742.793 66.3781 737.769 70.0644 Q732.787 73.7508 724.037 73.7508 Q720.391 73.7508 716.421 73.0216 Q712.492 72.3329 708.117 70.9151 L708.117 63.2184 Q712.249 65.3654 716.259 66.4591 Q720.27 67.5124 724.199 67.5124 Q729.465 67.5124 732.301 65.73 Q735.136 63.9071 735.136 60.6258 Q735.136 57.5877 733.07 55.9673 Q731.045 54.3469 724.118 52.8481 L721.525 52.2405 Q714.598 50.7821 711.52 47.7845 Q708.441 44.7463 708.441 39.4801 Q708.441 33.0797 712.978 29.5959 Q717.515 26.1121 725.86 26.1121 Q729.992 26.1121 733.638 26.7198 Q737.283 27.3274 740.362 28.5427 Z" fill="#000000" fill-rule="nonzero" fill-opacity="1" /><path clip-path="url(#clip010)" d="M783.666 44.2197 Q786.299 45.1109 788.77 48.0275 Q791.282 50.9442 793.793 56.0483 L802.098 72.576 L793.307 72.576 L785.57 57.061 Q782.572 50.9847 779.737 48.9997 Q776.942 47.0148 772.081 47.0148 L763.169 47.0148 L763.169 72.576 L754.986 72.576 L754.986 12.096 L773.458 12.096 Q783.828 12.096 788.932 16.4305 Q794.037 20.7649 794.037 29.5149 Q794.037 35.2267 791.363 38.994 Q788.73 42.7613 783.666 44.2197 M763.169 18.8205 L763.169 40.2903 L773.458 40.2903 Q779.372 40.2903 782.37 37.5762 Q785.408 34.8216 785.408 29.5149 Q785.408 24.2082 782.37 21.5346 Q779.372 18.8205 773.458 18.8205 L763.169 18.8205 Z" fill="#000000" fill-rule="nonzero" fill-opacity="1" /><path clip-path="url(#clip010)" d="M847.387 48.0275 L847.387 51.6733 L813.116 51.6733 Q813.602 59.3701 817.734 63.421 Q821.907 67.4314 829.32 67.4314 Q833.614 67.4314 837.624 66.3781 Q841.675 65.3249 845.645 63.2184 L845.645 70.267 Q841.635 71.9684 837.422 72.8596 Q833.209 73.7508 828.874 73.7508 Q818.018 73.7508 811.658 67.4314 Q805.339 61.1119 805.339 50.3365 Q805.339 39.1965 811.334 32.6746 Q817.37 26.1121 827.578 26.1121 Q836.733 26.1121 842.04 32.0264 Q847.387 37.9003 847.387 48.0275 M839.933 45.84 Q839.852 39.7232 836.49 36.0774 Q833.168 32.4315 827.659 32.4315 Q821.421 32.4315 817.653 35.9558 Q813.926 39.4801 813.359 45.8805 L839.933 45.84 Z" fill="#000000" fill-rule="nonzero" fill-opacity="1" /><path clip-path="url(#clip010)" d="M854.273 27.2059 L862.173 27.2059 L876.351 65.2844 L890.529 27.2059 L898.428 27.2059 L881.415 72.576 L871.287 72.576 L854.273 27.2059 Z" fill="#000000" fill-rule="nonzero" fill-opacity="1" /><path clip-path="url(#clip010)" d="M917.225 18.8205 L917.225 65.8515 L927.109 65.8515 Q939.626 65.8515 945.419 60.1802 Q951.252 54.509 951.252 42.2752 Q951.252 30.1225 945.419 24.4918 Q939.626 18.8205 927.109 18.8205 L917.225 18.8205 M909.042 12.096 L925.853 12.096 Q943.434 12.096 951.657 19.4281 Q959.881 26.7198 959.881 42.2752 Q959.881 57.9117 951.617 65.2439 Q943.353 72.576 925.853 72.576 L909.042 72.576 L909.042 12.096 Z" fill="#000000" fill-rule="nonzero" fill-opacity="1" /><path clip-path="url(#clip010)" d="M973.654 62.2867 L982.201 62.2867 L982.201 72.576 L973.654 72.576 L973.654 62.2867 Z" fill="#000000" fill-rule="nonzero" fill-opacity="1" /><path clip-path="url(#clip010)" d="M1000.27 71.3202 L1000.27 63.8666 Q1003.35 65.3249 1006.51 66.0946 Q1009.67 66.8642 1012.7 66.8642 Q1020.81 66.8642 1025.06 61.436 Q1029.35 55.9673 1029.96 44.8678 Q1027.61 48.3516 1024.01 50.215 Q1020.4 52.0784 1016.03 52.0784 Q1006.95 52.0784 1001.65 46.6097 Q996.379 41.1005 996.379 31.5808 Q996.379 22.2638 1001.89 16.633 Q1007.4 11.0023 1016.55 11.0023 Q1027.04 11.0023 1032.55 19.0636 Q1038.1 27.0843 1038.1 42.3968 Q1038.1 56.6965 1031.3 65.2439 Q1024.53 73.7508 1013.07 73.7508 Q1009.99 73.7508 1006.83 73.1431 Q1003.67 72.5355 1000.27 71.3202 M1016.55 45.678 Q1022.06 45.678 1025.26 41.9107 Q1028.5 38.1433 1028.5 31.5808 Q1028.5 25.0589 1025.26 21.2916 Q1022.06 17.4837 1016.55 17.4837 Q1011.04 17.4837 1007.8 21.2916 Q1004.6 25.0589 1004.6 31.5808 Q1004.6 38.1433 1007.8 41.9107 Q1011.04 45.678 1016.55 45.678 Z" fill="#000000" fill-rule="nonzero" fill-opacity="1" /><path clip-path="url(#clip010)" d="M1070.31 43.8551 Q1064.47 43.8551 1061.11 46.9743 Q1057.79 50.0935 1057.79 55.5622 Q1057.79 61.0309 1061.11 64.1501 Q1064.47 67.2693 1070.31 67.2693 Q1076.14 67.2693 1079.5 64.1501 Q1082.87 60.9904 1082.87 55.5622 Q1082.87 50.0935 1079.5 46.9743 Q1076.18 43.8551 1070.31 43.8551 M1062.13 40.3713 Q1056.86 39.075 1053.9 35.4697 Q1050.99 31.8644 1050.99 26.6793 Q1050.99 19.4281 1056.13 15.2152 Q1061.32 11.0023 1070.31 11.0023 Q1079.34 11.0023 1084.49 15.2152 Q1089.63 19.4281 1089.63 26.6793 Q1089.63 31.8644 1086.67 35.4697 Q1083.76 39.075 1078.53 40.3713 Q1084.45 41.7486 1087.73 45.759 Q1091.05 49.7694 1091.05 55.5622 Q1091.05 64.3527 1085.66 69.0517 Q1080.31 73.7508 1070.31 73.7508 Q1060.3 73.7508 1054.91 69.0517 Q1049.57 64.3527 1049.57 55.5622 Q1049.57 49.7694 1052.89 45.759 Q1056.21 41.7486 1062.13 40.3713 M1059.13 27.4489 Q1059.13 32.148 1062.04 34.7811 Q1065 37.4142 1070.31 37.4142 Q1075.57 37.4142 1078.53 34.7811 Q1081.53 32.148 1081.53 27.4489 Q1081.53 22.7499 1078.53 20.1168 Q1075.57 17.4837 1070.31 17.4837 Q1065 17.4837 1062.04 20.1168 Q1059.13 22.7499 1059.13 27.4489 Z" fill="#000000" fill-rule="nonzero" fill-opacity="1" /><path clip-path="url(#clip010)" d="M1105.59 62.2867 L1114.14 62.2867 L1114.14 72.576 L1105.59 72.576 L1105.59 62.2867 Z" fill="#000000" fill-rule="nonzero" fill-opacity="1" /><path clip-path="url(#clip010)" d="M1133.38 65.6895 L1146.75 65.6895 L1146.75 19.5497 L1132.21 22.4663 L1132.21 15.0127 L1146.67 12.096 L1154.85 12.096 L1154.85 65.6895 L1168.22 65.6895 L1168.22 72.576 L1133.38 72.576 L1133.38 65.6895 Z" fill="#000000" fill-rule="nonzero" fill-opacity="1" /><path clip-path="url(#clip010)" d="M1186.16 65.6895 L1199.53 65.6895 L1199.53 19.5497 L1184.99 22.4663 L1184.99 15.0127 L1199.45 12.096 L1207.63 12.096 L1207.63 65.6895 L1221 65.6895 L1221 72.576 L1186.16 72.576 L1186.16 65.6895 Z" fill="#000000" fill-rule="nonzero" fill-opacity="1" /><path clip-path="url(#clip010)" d="M1260.01 19.2256 L1239.35 51.5113 L1260.01 51.5113 L1260.01 19.2256 M1257.87 12.096 L1268.15 12.096 L1268.15 51.5113 L1276.78 51.5113 L1276.78 58.3168 L1268.15 58.3168 L1268.15 72.576 L1260.01 72.576 L1260.01 58.3168 L1232.71 58.3168 L1232.71 50.4176 L1257.87 12.096 Z" fill="#000000" fill-rule="nonzero" fill-opacity="1" /><path clip-path="url(#clip010)" d="M1307.81 17.4837 Q1301.49 17.4837 1298.29 23.7221 Q1295.13 29.92 1295.13 42.3968 Q1295.13 54.833 1298.29 61.0714 Q1301.49 67.2693 1307.81 67.2693 Q1314.17 67.2693 1317.33 61.0714 Q1320.53 54.833 1320.53 42.3968 Q1320.53 29.92 1317.33 23.7221 Q1314.17 17.4837 1307.81 17.4837 M1307.81 11.0023 Q1317.98 11.0023 1323.33 19.0636 Q1328.72 27.0843 1328.72 42.3968 Q1328.72 57.6687 1323.33 65.73 Q1317.98 73.7508 1307.81 73.7508 Q1297.64 73.7508 1292.26 65.73 Q1286.91 57.6687 1286.91 42.3968 Q1286.91 27.0843 1292.26 19.0636 Q1297.64 11.0023 1307.81 11.0023 Z" fill="#000000" fill-rule="nonzero" fill-opacity="1" /><path clip-path="url(#clip010)" d="M1360.6 17.4837 Q1354.28 17.4837 1351.08 23.7221 Q1347.92 29.92 1347.92 42.3968 Q1347.92 54.833 1351.08 61.0714 Q1354.28 67.2693 1360.6 67.2693 Q1366.96 67.2693 1370.12 61.0714 Q1373.32 54.833 1373.32 42.3968 Q1373.32 29.92 1370.12 23.7221 Q1366.96 17.4837 1360.6 17.4837 M1360.6 11.0023 Q1370.76 11.0023 1376.11 19.0636 Q1381.5 27.0843 1381.5 42.3968 Q1381.5 57.6687 1376.11 65.73 Q1370.76 73.7508 1360.6 73.7508 Q1350.43 73.7508 1345.04 65.73 Q1339.69 57.6687 1339.69 42.3968 Q1339.69 27.0843 1345.04 19.0636 Q1350.43 11.0023 1360.6 11.0023 Z" fill="#000000" fill-rule="nonzero" fill-opacity="1" /><path clip-path="url(#clip010)" d="M1420.67 39.9662 Q1426.54 41.222 1429.83 45.1919 Q1433.15 49.1618 1433.15 54.9951 Q1433.15 63.9476 1426.99 68.8492 Q1420.83 73.7508 1409.49 73.7508 Q1405.68 73.7508 1401.63 72.9811 Q1397.62 72.2519 1393.33 70.7531 L1393.33 62.8538 Q1396.73 64.8388 1400.78 65.8515 Q1404.83 66.8642 1409.25 66.8642 Q1416.94 66.8642 1420.95 63.826 Q1425.01 60.7879 1425.01 54.9951 Q1425.01 49.6479 1421.24 46.6502 Q1417.51 43.612 1410.83 43.612 L1403.78 43.612 L1403.78 36.8875 L1411.15 36.8875 Q1417.19 36.8875 1420.39 34.4975 Q1423.59 32.067 1423.59 27.5299 Q1423.59 22.8714 1420.27 20.4004 Q1416.98 17.8888 1410.83 17.8888 Q1407.46 17.8888 1403.62 18.618 Q1399.77 19.3471 1395.15 20.8865 L1395.15 13.5948 Q1399.81 12.2985 1403.86 11.6504 Q1407.95 11.0023 1411.56 11.0023 Q1420.87 11.0023 1426.3 15.2557 Q1431.73 19.4686 1431.73 26.6793 Q1431.73 31.7024 1428.85 35.1862 Q1425.98 38.6294 1420.67 39.9662 Z" fill="#000000" fill-rule="nonzero" fill-opacity="1" /><path clip-path="url(#clip010)" d="M1481.19 65.7705 L1481.19 89.8329 L1473.7 89.8329 L1473.7 27.2059 L1481.19 27.2059 L1481.19 34.0924 Q1483.54 30.0415 1487.11 28.0971 Q1490.71 26.1121 1495.69 26.1121 Q1503.96 26.1121 1509.1 32.6746 Q1514.29 39.2371 1514.29 49.9314 Q1514.29 60.6258 1509.1 67.1883 Q1503.96 73.7508 1495.69 73.7508 Q1490.71 73.7508 1487.11 71.8063 Q1483.54 69.8214 1481.19 65.7705 M1506.55 49.9314 Q1506.55 41.7081 1503.15 37.0496 Q1499.79 32.3505 1493.87 32.3505 Q1487.96 32.3505 1484.55 37.0496 Q1481.19 41.7081 1481.19 49.9314 Q1481.19 58.1548 1484.55 62.8538 Q1487.96 67.5124 1493.87 67.5124 Q1499.79 67.5124 1503.15 62.8538 Q1506.55 58.1548 1506.55 49.9314 Z" fill="#000000" fill-rule="nonzero" fill-opacity="1" /><path clip-path="url(#clip010)" d="M1564.36 45.1919 L1564.36 72.576 L1556.9 72.576 L1556.9 45.4349 Q1556.9 38.994 1554.39 35.7938 Q1551.88 32.5936 1546.86 32.5936 Q1540.82 32.5936 1537.34 36.4419 Q1533.85 40.2903 1533.85 46.9338 L1533.85 72.576 L1526.36 72.576 L1526.36 9.54393 L1533.85 9.54393 L1533.85 34.2544 Q1536.53 30.163 1540.13 28.1376 Q1543.78 26.1121 1548.52 26.1121 Q1556.34 26.1121 1560.35 30.9732 Q1564.36 35.7938 1564.36 45.1919 Z" fill="#000000" fill-rule="nonzero" fill-opacity="1" /><path clip-path="url(#clip010)" d="M1598.1 76.7889 Q1594.94 84.8907 1591.94 87.3618 Q1588.95 89.8329 1583.92 89.8329 L1577.97 89.8329 L1577.97 83.5945 L1582.34 83.5945 Q1585.42 83.5945 1587.12 82.1361 Q1588.82 80.6778 1590.89 75.2496 L1592.23 71.8468 L1573.88 27.2059 L1581.78 27.2059 L1595.95 62.6918 L1610.13 27.2059 L1618.03 27.2059 L1598.1 76.7889 Z" fill="#000000" fill-rule="nonzero" fill-opacity="1" /><path clip-path="url(#clip010)" d="M1657.24 28.5427 L1657.24 35.5912 Q1654.08 33.9709 1650.68 33.1607 Q1647.28 32.3505 1643.63 32.3505 Q1638.08 32.3505 1635.29 34.0519 Q1632.53 35.7533 1632.53 39.156 Q1632.53 41.7486 1634.52 43.2475 Q1636.5 44.7058 1642.5 46.0426 L1645.05 46.6097 Q1652.99 48.3111 1656.31 51.4303 Q1659.67 54.509 1659.67 60.0587 Q1659.67 66.3781 1654.65 70.0644 Q1649.67 73.7508 1640.92 73.7508 Q1637.27 73.7508 1633.3 73.0216 Q1629.37 72.3329 1625 70.9151 L1625 63.2184 Q1629.13 65.3654 1633.14 66.4591 Q1637.15 67.5124 1641.08 67.5124 Q1646.35 67.5124 1649.18 65.73 Q1652.02 63.9071 1652.02 60.6258 Q1652.02 57.5877 1649.95 55.9673 Q1647.93 54.3469 1641 52.8481 L1638.41 52.2405 Q1631.48 50.7821 1628.4 47.7845 Q1625.32 44.7463 1625.32 39.4801 Q1625.32 33.0797 1629.86 29.5959 Q1634.4 26.1121 1642.74 26.1121 Q1646.87 26.1121 1650.52 26.7198 Q1654.17 27.3274 1657.24 28.5427 Z" fill="#000000" fill-rule="nonzero" fill-opacity="1" /><path clip-path="url(#clip010)" d="M1671.54 27.2059 L1679 27.2059 L1679 72.576 L1671.54 72.576 L1671.54 27.2059 M1671.54 9.54393 L1679 9.54393 L1679 18.9825 L1671.54 18.9825 L1671.54 9.54393 Z" fill="#000000" fill-rule="nonzero" fill-opacity="1" /><path clip-path="url(#clip010)" d="M1727.24 28.9478 L1727.24 35.9153 Q1724.08 34.1734 1720.88 33.3227 Q1717.72 32.4315 1714.48 32.4315 Q1707.23 32.4315 1703.22 37.0496 Q1699.21 41.6271 1699.21 49.9314 Q1699.21 58.2358 1703.22 62.8538 Q1707.23 67.4314 1714.48 67.4314 Q1717.72 67.4314 1720.88 66.5807 Q1724.08 65.6895 1727.24 63.9476 L1727.24 70.8341 Q1724.12 72.2924 1720.76 73.0216 Q1717.44 73.7508 1713.67 73.7508 Q1703.42 73.7508 1697.39 67.3098 Q1691.35 60.8689 1691.35 49.9314 Q1691.35 38.832 1697.43 32.472 Q1703.55 26.1121 1714.16 26.1121 Q1717.6 26.1121 1720.88 26.8413 Q1724.16 27.5299 1727.24 28.9478 Z" fill="#000000" fill-rule="nonzero" fill-opacity="1" /><path clip-path="url(#clip010)" d="M1760.83 49.7694 Q1751.79 49.7694 1748.31 51.8354 Q1744.82 53.9013 1744.82 58.8839 Q1744.82 62.8538 1747.42 65.2034 Q1750.05 67.5124 1754.55 67.5124 Q1760.74 67.5124 1764.47 63.1374 Q1768.24 58.7219 1768.24 51.4303 L1768.24 49.7694 L1760.83 49.7694 M1775.69 46.6907 L1775.69 72.576 L1768.24 72.576 L1768.24 65.6895 Q1765.69 69.8214 1761.88 71.8063 Q1758.07 73.7508 1752.56 73.7508 Q1745.59 73.7508 1741.46 69.8619 Q1737.37 65.9325 1737.37 59.3701 Q1737.37 51.7138 1742.47 47.825 Q1747.62 43.9361 1757.79 43.9361 L1768.24 43.9361 L1768.24 43.2069 Q1768.24 38.0623 1764.84 35.2672 Q1761.47 32.4315 1755.36 32.4315 Q1751.47 32.4315 1747.78 33.3632 Q1744.1 34.295 1740.69 36.1584 L1740.69 29.2718 Q1744.78 27.692 1748.63 26.9223 Q1752.48 26.1121 1756.13 26.1121 Q1765.97 26.1121 1770.83 31.2163 Q1775.69 36.3204 1775.69 46.6907 Z" fill="#000000" fill-rule="nonzero" fill-opacity="1" /><path clip-path="url(#clip010)" d="M1791.05 9.54393 L1798.5 9.54393 L1798.5 72.576 L1791.05 72.576 L1791.05 9.54393 Z" fill="#000000" fill-rule="nonzero" fill-opacity="1" /><path clip-path="url(#clip010)" d="M1847.68 65.7705 L1847.68 89.8329 L1840.18 89.8329 L1840.18 27.2059 L1847.68 27.2059 L1847.68 34.0924 Q1850.03 30.0415 1853.59 28.0971 Q1857.2 26.1121 1862.18 26.1121 Q1870.44 26.1121 1875.59 32.6746 Q1880.77 39.2371 1880.77 49.9314 Q1880.77 60.6258 1875.59 67.1883 Q1870.44 73.7508 1862.18 73.7508 Q1857.2 73.7508 1853.59 71.8063 Q1850.03 69.8214 1847.68 65.7705 M1873.04 49.9314 Q1873.04 41.7081 1869.63 37.0496 Q1866.27 32.3505 1860.36 32.3505 Q1854.44 32.3505 1851.04 37.0496 Q1847.68 41.7081 1847.68 49.9314 Q1847.68 58.1548 1851.04 62.8538 Q1854.44 67.5124 1860.36 67.5124 Q1866.27 67.5124 1869.63 62.8538 Q1873.04 58.1548 1873.04 49.9314 Z" fill="#000000" fill-rule="nonzero" fill-opacity="1" /><path clip-path="url(#clip010)" d="M1910.71 32.4315 Q1904.71 32.4315 1901.23 37.1306 Q1897.75 41.7891 1897.75 49.9314 Q1897.75 58.0738 1901.19 62.7728 Q1904.67 67.4314 1910.71 67.4314 Q1916.66 67.4314 1920.15 62.7323 Q1923.63 58.0333 1923.63 49.9314 Q1923.63 41.8701 1920.15 37.1711 Q1916.66 32.4315 1910.71 32.4315 M1910.71 26.1121 Q1920.43 26.1121 1925.98 32.4315 Q1931.53 38.7509 1931.53 49.9314 Q1931.53 61.0714 1925.98 67.4314 Q1920.43 73.7508 1910.71 73.7508 Q1900.95 73.7508 1895.4 67.4314 Q1889.89 61.0714 1889.89 49.9314 Q1889.89 38.7509 1895.4 32.4315 Q1900.95 26.1121 1910.71 26.1121 Z" fill="#000000" fill-rule="nonzero" fill-opacity="1" /><path clip-path="url(#clip010)" d="M1943.89 27.2059 L1951.34 27.2059 L1951.34 72.576 L1943.89 72.576 L1943.89 27.2059 M1943.89 9.54393 L1951.34 9.54393 L1951.34 18.9825 L1943.89 18.9825 L1943.89 9.54393 Z" fill="#000000" fill-rule="nonzero" fill-opacity="1" /><path clip-path="url(#clip010)" d="M2004.65 45.1919 L2004.65 72.576 L1997.2 72.576 L1997.2 45.4349 Q1997.2 38.994 1994.68 35.7938 Q1992.17 32.5936 1987.15 32.5936 Q1981.11 32.5936 1977.63 36.4419 Q1974.15 40.2903 1974.15 46.9338 L1974.15 72.576 L1966.65 72.576 L1966.65 27.2059 L1974.15 27.2059 L1974.15 34.2544 Q1976.82 30.163 1980.42 28.1376 Q1984.07 26.1121 1988.81 26.1121 Q1996.63 26.1121 2000.64 30.9732 Q2004.65 35.7938 2004.65 45.1919 Z" fill="#000000" fill-rule="nonzero" fill-opacity="1" /><path clip-path="url(#clip010)" d="M2026.89 14.324 L2026.89 27.2059 L2042.24 27.2059 L2042.24 32.9987 L2026.89 32.9987 L2026.89 57.6282 Q2026.89 63.1779 2028.39 64.7578 Q2029.93 66.3376 2034.59 66.3376 L2042.24 66.3376 L2042.24 72.576 L2034.59 72.576 Q2025.96 72.576 2022.68 69.3758 Q2019.39 66.1351 2019.39 57.6282 L2019.39 32.9987 L2013.93 32.9987 L2013.93 27.2059 L2019.39 27.2059 L2019.39 14.324 L2026.89 14.324 Z" fill="#000000" fill-rule="nonzero" fill-opacity="1" /><polyline clip-path="url(#clip012)" style="stroke:#009af9; stroke-linecap:round; stroke-linejoin:round; stroke-width:10; stroke-opacity:1; fill:none" points="309.067,160.256 375.206,163.912 441.345,168.996 507.483,175.83 573.622,184.796 639.761,196.361 705.9,211.096 772.039,229.723 838.177,253.177 904.316,282.714 970.455,320.115 1036.59,368.088 1102.73,431.209 1168.87,518.668 1235.01,656.653 1301.15,1215.05 1367.29,1317.91 1433.43,1343.8 1499.57,1356.45 1565.7,1364.06 1631.84,1369.18 1697.98,1372.89 1764.12,1375.72 1830.26,1377.96 1896.4,1379.79 1962.54,1381.31 2028.68,1382.61 2094.81,1383.74 2160.95,1384.73 2227.09,1385.61 2293.23,1386.4 "/>
<polyline clip-path="url(#clip012)" style="stroke:#e26f46; stroke-linecap:round; stroke-linejoin:round; stroke-width:10; stroke-opacity:1; fill:none" points="309.067,296.368 375.206,299.469 441.345,303.764 507.483,309.52 573.622,317.051 639.761,326.74 705.9,339.054 772.039,354.577 838.177,374.058 904.316,398.497 970.455,429.288 1036.59,468.523 1102.73,519.668 1168.87,589.52 1235.01,696.785 1301.15,1048.69 1367.29,1089.04 1433.43,1104.16 1499.57,1116.42 1565.7,1127.6 1631.84,1138.09 1697.98,1148.04 1764.12,1157.51 1830.26,1166.53 1896.4,1175.14 1962.54,1183.37 2028.68,1191.25 2094.81,1198.79 2160.95,1206.02 2227.09,1212.97 2293.23,1219.65 "/>
<path clip-path="url(#clip010)" d="M1882.26 322.316 L2282.65 322.316 L2282.65 166.796 L1882.26 166.796  Z" fill="#ffffff" fill-rule="evenodd" fill-opacity="1"/>
<polyline clip-path="url(#clip010)" style="stroke:#000000; stroke-linecap:round; stroke-linejoin:round; stroke-width:4; stroke-opacity:1; fill:none" points="1882.26,322.316 2282.65,322.316 2282.65,166.796 1882.26,166.796 1882.26,322.316 "/>
<polyline clip-path="url(#clip010)" style="stroke:#009af9; stroke-linecap:round; stroke-linejoin:round; stroke-width:10; stroke-opacity:1; fill:none" points="1905.63,218.636 2045.84,218.636 "/>
<path clip-path="url(#clip010)" d="M2087.64 210.754 L2087.64 214.782 Q2085.83 213.856 2083.89 213.393 Q2081.94 212.93 2079.86 212.93 Q2076.69 212.93 2075.09 213.902 Q2073.52 214.874 2073.52 216.819 Q2073.52 218.3 2074.65 219.157 Q2075.79 219.99 2079.21 220.754 L2080.67 221.078 Q2085.21 222.05 2087.1 223.832 Q2089.03 225.592 2089.03 228.763 Q2089.03 232.374 2086.16 234.481 Q2083.31 236.587 2078.31 236.587 Q2076.23 236.587 2073.96 236.17 Q2071.71 235.777 2069.21 234.967 L2069.21 230.569 Q2071.57 231.795 2073.86 232.42 Q2076.16 233.022 2078.4 233.022 Q2081.41 233.022 2083.03 232.004 Q2084.65 230.962 2084.65 229.087 Q2084.65 227.351 2083.47 226.425 Q2082.31 225.499 2078.35 224.643 L2076.87 224.295 Q2072.91 223.462 2071.16 221.749 Q2069.4 220.013 2069.4 217.004 Q2069.4 213.346 2071.99 211.356 Q2074.58 209.365 2079.35 209.365 Q2081.71 209.365 2083.79 209.712 Q2085.88 210.059 2087.64 210.754 Z" fill="#000000" fill-rule="nonzero" fill-opacity="1" /><path clip-path="url(#clip010)" d="M2095.81 209.99 L2100.07 209.99 L2100.07 235.916 L2095.81 235.916 L2095.81 209.99 M2095.81 199.897 L2100.07 199.897 L2100.07 205.291 L2095.81 205.291 L2095.81 199.897 Z" fill="#000000" fill-rule="nonzero" fill-opacity="1" /><path clip-path="url(#clip010)" d="M2126.04 222.652 Q2126.04 218.022 2124.12 215.476 Q2122.22 212.93 2118.77 212.93 Q2115.35 212.93 2113.42 215.476 Q2111.53 218.022 2111.53 222.652 Q2111.53 227.258 2113.42 229.805 Q2115.35 232.351 2118.77 232.351 Q2122.22 232.351 2124.12 229.805 Q2126.04 227.258 2126.04 222.652 M2130.3 232.698 Q2130.3 239.318 2127.36 242.536 Q2124.42 245.777 2118.35 245.777 Q2116.11 245.777 2114.12 245.43 Q2112.13 245.105 2110.25 244.411 L2110.25 240.268 Q2112.13 241.286 2113.96 241.772 Q2115.79 242.258 2117.68 242.258 Q2121.87 242.258 2123.96 240.059 Q2126.04 237.883 2126.04 233.462 L2126.04 231.356 Q2124.72 233.647 2122.66 234.781 Q2120.6 235.916 2117.73 235.916 Q2112.96 235.916 2110.04 232.281 Q2107.13 228.647 2107.13 222.652 Q2107.13 216.633 2110.04 212.999 Q2112.96 209.365 2117.73 209.365 Q2120.6 209.365 2122.66 210.499 Q2124.72 211.633 2126.04 213.925 L2126.04 209.99 L2130.3 209.99 L2130.3 232.698 Z" fill="#000000" fill-rule="nonzero" fill-opacity="1" /><path clip-path="url(#clip010)" d="M2159.26 214.967 Q2160.85 212.096 2163.08 210.731 Q2165.3 209.365 2168.31 209.365 Q2172.36 209.365 2174.56 212.212 Q2176.76 215.036 2176.76 220.268 L2176.76 235.916 L2172.47 235.916 L2172.47 220.407 Q2172.47 216.68 2171.16 214.874 Q2169.84 213.069 2167.13 213.069 Q2163.82 213.069 2161.9 215.268 Q2159.97 217.467 2159.97 221.263 L2159.97 235.916 L2155.69 235.916 L2155.69 220.407 Q2155.69 216.657 2154.37 214.874 Q2153.05 213.069 2150.3 213.069 Q2147.03 213.069 2145.11 215.291 Q2143.19 217.49 2143.19 221.263 L2143.19 235.916 L2138.91 235.916 L2138.91 209.99 L2143.19 209.99 L2143.19 214.018 Q2144.65 211.633 2146.69 210.499 Q2148.72 209.365 2151.53 209.365 Q2154.35 209.365 2156.32 210.8 Q2158.31 212.235 2159.26 214.967 Z" fill="#000000" fill-rule="nonzero" fill-opacity="1" /><path clip-path="url(#clip010)" d="M2197.03 222.883 Q2191.87 222.883 2189.88 224.064 Q2187.89 225.244 2187.89 228.092 Q2187.89 230.36 2189.37 231.703 Q2190.88 233.022 2193.45 233.022 Q2196.99 233.022 2199.12 230.522 Q2201.27 227.999 2201.27 223.832 L2201.27 222.883 L2197.03 222.883 M2205.53 221.124 L2205.53 235.916 L2201.27 235.916 L2201.27 231.981 Q2199.81 234.342 2197.64 235.476 Q2195.46 236.587 2192.31 236.587 Q2188.33 236.587 2185.97 234.365 Q2183.63 232.119 2183.63 228.369 Q2183.63 223.994 2186.55 221.772 Q2189.49 219.55 2195.3 219.55 L2201.27 219.55 L2201.27 219.133 Q2201.27 216.194 2199.33 214.596 Q2197.41 212.976 2193.91 212.976 Q2191.69 212.976 2189.58 213.508 Q2187.47 214.041 2185.53 215.106 L2185.53 211.17 Q2187.87 210.268 2190.07 209.828 Q2192.27 209.365 2194.35 209.365 Q2199.97 209.365 2202.75 212.282 Q2205.53 215.198 2205.53 221.124 Z" fill="#000000" fill-rule="nonzero" fill-opacity="1" /><path clip-path="url(#clip010)" d="M2234 243.786 L2234 247.096 L2209.37 247.096 L2209.37 243.786 L2234 243.786 Z" fill="#000000" fill-rule="nonzero" fill-opacity="1" /><path clip-path="url(#clip010)" d="M2237.57 225.684 L2237.57 209.99 L2241.83 209.99 L2241.83 225.522 Q2241.83 229.203 2243.26 231.055 Q2244.7 232.883 2247.57 232.883 Q2251.02 232.883 2253.01 230.684 Q2255.02 228.485 2255.02 224.689 L2255.02 209.99 L2259.28 209.99 L2259.28 235.916 L2255.02 235.916 L2255.02 231.934 Q2253.47 234.295 2251.41 235.453 Q2249.37 236.587 2246.66 236.587 Q2242.2 236.587 2239.88 233.809 Q2237.57 231.031 2237.57 225.684 M2248.28 209.365 L2248.28 209.365 Z" fill="#000000" fill-rule="nonzero" fill-opacity="1" /><polyline clip-path="url(#clip010)" style="stroke:#e26f46; stroke-linecap:round; stroke-linejoin:round; stroke-width:10; stroke-opacity:1; fill:none" points="1905.63,270.476 2045.84,270.476 "/>
<path clip-path="url(#clip010)" d="M2087.64 262.594 L2087.64 266.622 Q2085.83 265.696 2083.89 265.233 Q2081.94 264.77 2079.86 264.77 Q2076.69 264.77 2075.09 265.742 Q2073.52 266.714 2073.52 268.659 Q2073.52 270.14 2074.65 270.997 Q2075.79 271.83 2079.21 272.594 L2080.67 272.918 Q2085.21 273.89 2087.1 275.672 Q2089.03 277.432 2089.03 280.603 Q2089.03 284.214 2086.16 286.321 Q2083.31 288.427 2078.31 288.427 Q2076.23 288.427 2073.96 288.01 Q2071.71 287.617 2069.21 286.807 L2069.21 282.409 Q2071.57 283.635 2073.86 284.26 Q2076.16 284.862 2078.4 284.862 Q2081.41 284.862 2083.03 283.844 Q2084.65 282.802 2084.65 280.927 Q2084.65 279.191 2083.47 278.265 Q2082.31 277.339 2078.35 276.483 L2076.87 276.135 Q2072.91 275.302 2071.16 273.589 Q2069.4 271.853 2069.4 268.844 Q2069.4 265.186 2071.99 263.196 Q2074.58 261.205 2079.35 261.205 Q2081.71 261.205 2083.79 261.552 Q2085.88 261.899 2087.64 262.594 Z" fill="#000000" fill-rule="nonzero" fill-opacity="1" /><path clip-path="url(#clip010)" d="M2095.81 261.83 L2100.07 261.83 L2100.07 287.756 L2095.81 287.756 L2095.81 261.83 M2095.81 251.737 L2100.07 251.737 L2100.07 257.131 L2095.81 257.131 L2095.81 251.737 Z" fill="#000000" fill-rule="nonzero" fill-opacity="1" /><path clip-path="url(#clip010)" d="M2126.04 274.492 Q2126.04 269.862 2124.12 267.316 Q2122.22 264.77 2118.77 264.77 Q2115.35 264.77 2113.42 267.316 Q2111.53 269.862 2111.53 274.492 Q2111.53 279.098 2113.42 281.645 Q2115.35 284.191 2118.77 284.191 Q2122.22 284.191 2124.12 281.645 Q2126.04 279.098 2126.04 274.492 M2130.3 284.538 Q2130.3 291.158 2127.36 294.376 Q2124.42 297.617 2118.35 297.617 Q2116.11 297.617 2114.12 297.27 Q2112.13 296.945 2110.25 296.251 L2110.25 292.108 Q2112.13 293.126 2113.96 293.612 Q2115.79 294.098 2117.68 294.098 Q2121.87 294.098 2123.96 291.899 Q2126.04 289.723 2126.04 285.302 L2126.04 283.196 Q2124.72 285.487 2122.66 286.621 Q2120.6 287.756 2117.73 287.756 Q2112.96 287.756 2110.04 284.121 Q2107.13 280.487 2107.13 274.492 Q2107.13 268.473 2110.04 264.839 Q2112.96 261.205 2117.73 261.205 Q2120.6 261.205 2122.66 262.339 Q2124.72 263.473 2126.04 265.765 L2126.04 261.83 L2130.3 261.83 L2130.3 284.538 Z" fill="#000000" fill-rule="nonzero" fill-opacity="1" /><path clip-path="url(#clip010)" d="M2159.26 266.807 Q2160.85 263.936 2163.08 262.571 Q2165.3 261.205 2168.31 261.205 Q2172.36 261.205 2174.56 264.052 Q2176.76 266.876 2176.76 272.108 L2176.76 287.756 L2172.47 287.756 L2172.47 272.247 Q2172.47 268.52 2171.16 266.714 Q2169.84 264.909 2167.13 264.909 Q2163.82 264.909 2161.9 267.108 Q2159.97 269.307 2159.97 273.103 L2159.97 287.756 L2155.69 287.756 L2155.69 272.247 Q2155.69 268.497 2154.37 266.714 Q2153.05 264.909 2150.3 264.909 Q2147.03 264.909 2145.11 267.131 Q2143.19 269.33 2143.19 273.103 L2143.19 287.756 L2138.91 287.756 L2138.91 261.83 L2143.19 261.83 L2143.19 265.858 Q2144.65 263.473 2146.69 262.339 Q2148.72 261.205 2151.53 261.205 Q2154.35 261.205 2156.32 262.64 Q2158.31 264.075 2159.26 266.807 Z" fill="#000000" fill-rule="nonzero" fill-opacity="1" /><path clip-path="url(#clip010)" d="M2197.03 274.723 Q2191.87 274.723 2189.88 275.904 Q2187.89 277.084 2187.89 279.932 Q2187.89 282.2 2189.37 283.543 Q2190.88 284.862 2193.45 284.862 Q2196.99 284.862 2199.12 282.362 Q2201.27 279.839 2201.27 275.672 L2201.27 274.723 L2197.03 274.723 M2205.53 272.964 L2205.53 287.756 L2201.27 287.756 L2201.27 283.821 Q2199.81 286.182 2197.64 287.316 Q2195.46 288.427 2192.31 288.427 Q2188.33 288.427 2185.97 286.205 Q2183.63 283.959 2183.63 280.209 Q2183.63 275.834 2186.55 273.612 Q2189.49 271.39 2195.3 271.39 L2201.27 271.39 L2201.27 270.973 Q2201.27 268.034 2199.33 266.436 Q2197.41 264.816 2193.91 264.816 Q2191.69 264.816 2189.58 265.348 Q2187.47 265.881 2185.53 266.946 L2185.53 263.01 Q2187.87 262.108 2190.07 261.668 Q2192.27 261.205 2194.35 261.205 Q2199.97 261.205 2202.75 264.122 Q2205.53 267.038 2205.53 272.964 Z" fill="#000000" fill-rule="nonzero" fill-opacity="1" /><path clip-path="url(#clip010)" d="M2234 295.626 L2234 298.936 L2209.37 298.936 L2209.37 295.626 L2234 295.626 Z" fill="#000000" fill-rule="nonzero" fill-opacity="1" /><path clip-path="url(#clip010)" d="M2254.53 262.594 L2254.53 266.622 Q2252.73 265.696 2250.78 265.233 Q2248.84 264.77 2246.76 264.77 Q2243.59 264.77 2241.99 265.742 Q2240.41 266.714 2240.41 268.659 Q2240.41 270.14 2241.55 270.997 Q2242.68 271.83 2246.11 272.594 L2247.57 272.918 Q2252.1 273.89 2254 275.672 Q2255.92 277.432 2255.92 280.603 Q2255.92 284.214 2253.05 286.321 Q2250.21 288.427 2245.21 288.427 Q2243.12 288.427 2240.85 288.01 Q2238.61 287.617 2236.11 286.807 L2236.11 282.409 Q2238.47 283.635 2240.76 284.26 Q2243.05 284.862 2245.3 284.862 Q2248.31 284.862 2249.93 283.844 Q2251.55 282.802 2251.55 280.927 Q2251.55 279.191 2250.37 278.265 Q2249.21 277.339 2245.25 276.483 L2243.77 276.135 Q2239.81 275.302 2238.05 273.589 Q2236.29 271.853 2236.29 268.844 Q2236.29 265.186 2238.89 263.196 Q2241.48 261.205 2246.25 261.205 Q2248.61 261.205 2250.69 261.552 Q2252.78 261.899 2254.53 262.594 Z" fill="#000000" fill-rule="nonzero" fill-opacity="1" /></svg>
