<?xml version="1.0" encoding="utf-8"?>
<svg xmlns="http://www.w3.org/2000/svg" xmlns:xlink="http://www.w3.org/1999/xlink" width="600" height="400" viewBox="0 0 2400 1600">
<defs>
  <clipPath id="clip320">
    <rect x="0" y="0" width="2400" height="1600"/>
  </clipPath>
</defs>
<path clip-path="url(#clip320)" d="M0 1600 L2400 1600 L2400 0 L0 0  Z" fill="#ffffff" fill-rule="evenodd" fill-opacity="1"/>
<defs>
  <clipPath id="clip321">
    <rect x="249" y="123" width="2104" height="1301"/>
  </clipPath>
</defs>
<path clip-path="url(#clip320)" d="M249.542 1423.18 L2352.76 1423.18 L2352.76 123.472 L249.542 123.472  Z" fill="#ffffff" fill-rule="evenodd" fill-opacity="1"/>
<polyline clip-path="url(#clip321)" style="stroke:#000000; stroke-linecap:round; stroke-linejoin:round; stroke-width:2; stroke-opacity:0.1; fill:none" points="309.067,1423.18 309.067,123.472 "/>
<polyline clip-path="url(#clip321)" style="stroke:#000000; stroke-linecap:round; stroke-linejoin:round; stroke-width:2; stroke-opacity:0.1; fill:none" points="705.9,1423.18 705.9,123.472 "/>
<polyline clip-path="url(#clip321)" style="stroke:#000000; stroke-linecap:round; stroke-linejoin:round; stroke-width:2; stroke-opacity:0.1; fill:none" points="1102.73,1423.18 1102.73,123.472 "/>
<polyline clip-path="url(#clip321)" style="stroke:#000000; stroke-linecap:round; stroke-linejoin:round; stroke-width:2; stroke-opacity:0.1; fill:none" points="1499.57,1423.18 1499.57,123.472 "/>
<polyline clip-path="url(#clip321)" style="stroke:#000000; stroke-linecap:round; stroke-linejoin:round; stroke-width:2; stroke-opacity:0.1; fill:none" points="1896.4,1423.18 1896.4,123.472 "/>
<polyline clip-path="url(#clip321)" style="stroke:#000000; stroke-linecap:round; stroke-linejoin:round; stroke-width:2; stroke-opacity:0.1; fill:none" points="2293.23,1423.18 2293.23,123.472 "/>
<polyline clip-path="url(#clip321)" style="stroke:#000000; stroke-linecap:round; stroke-linejoin:round; stroke-width:2; stroke-opacity:0.1; fill:none" points="249.542,1389.3 2352.76,1389.3 "/>
<polyline clip-path="url(#clip321)" style="stroke:#000000; stroke-linecap:round; stroke-linejoin:round; stroke-width:2; stroke-opacity:0.1; fill:none" points="249.542,999.625 2352.76,999.625 "/>
<polyline clip-path="url(#clip321)" style="stroke:#000000; stroke-linecap:round; stroke-linejoin:round; stroke-width:2; stroke-opacity:0.1; fill:none" points="249.542,609.955 2352.76,609.955 "/>
<polyline clip-path="url(#clip321)" style="stroke:#000000; stroke-linecap:round; stroke-linejoin:round; stroke-width:2; stroke-opacity:0.1; fill:none" points="249.542,220.285 2352.76,220.285 "/>
<polyline clip-path="url(#clip320)" style="stroke:#000000; stroke-linecap:round; stroke-linejoin:round; stroke-width:4; stroke-opacity:1; fill:none" points="249.542,1423.18 2352.76,1423.18 "/>
<polyline clip-path="url(#clip320)" style="stroke:#000000; stroke-linecap:round; stroke-linejoin:round; stroke-width:4; stroke-opacity:1; fill:none" points="309.067,1423.18 309.067,1404.28 "/>
<polyline clip-path="url(#clip320)" style="stroke:#000000; stroke-linecap:round; stroke-linejoin:round; stroke-width:4; stroke-opacity:1; fill:none" points="705.9,1423.18 705.9,1404.28 "/>
<polyline clip-path="url(#clip320)" style="stroke:#000000; stroke-linecap:round; stroke-linejoin:round; stroke-width:4; stroke-opacity:1; fill:none" points="1102.73,1423.18 1102.73,1404.28 "/>
<polyline clip-path="url(#clip320)" style="stroke:#000000; stroke-linecap:round; stroke-linejoin:round; stroke-width:4; stroke-opacity:1; fill:none" points="1499.57,1423.18 1499.57,1404.28 "/>
<polyline clip-path="url(#clip320)" style="stroke:#000000; stroke-linecap:round; stroke-linejoin:round; stroke-width:4; stroke-opacity:1; fill:none" points="1896.4,1423.18 1896.4,1404.28 "/>
<polyline clip-path="url(#clip320)" style="stroke:#000000; stroke-linecap:round; stroke-linejoin:round; stroke-width:4; stroke-opacity:1; fill:none" points="2293.23,1423.18 2293.23,1404.28 "/>
<path clip-path="url(#clip320)" d="M283.766 1451.02 L302.123 1451.02 L302.123 1454.96 L288.049 1454.96 L288.049 1463.43 Q289.067 1463.08 290.086 1462.92 Q291.104 1462.73 292.123 1462.73 Q297.91 1462.73 301.289 1465.9 Q304.669 1469.08 304.669 1474.49 Q304.669 1480.07 301.197 1483.17 Q297.724 1486.25 291.405 1486.25 Q289.229 1486.25 286.961 1485.88 Q284.715 1485.51 282.308 1484.77 L282.308 1480.07 Q284.391 1481.2 286.613 1481.76 Q288.836 1482.32 291.312 1482.32 Q295.317 1482.32 297.655 1480.21 Q299.993 1478.1 299.993 1474.49 Q299.993 1470.88 297.655 1468.77 Q295.317 1466.67 291.312 1466.67 Q289.437 1466.67 287.562 1467.08 Q285.711 1467.5 283.766 1468.38 L283.766 1451.02 Z" fill="#000000" fill-rule="nonzero" fill-opacity="1" /><path clip-path="url(#clip320)" d="M323.882 1454.1 Q320.271 1454.1 318.442 1457.66 Q316.636 1461.2 316.636 1468.33 Q316.636 1475.44 318.442 1479.01 Q320.271 1482.55 323.882 1482.55 Q327.516 1482.55 329.321 1479.01 Q331.15 1475.44 331.15 1468.33 Q331.15 1461.2 329.321 1457.66 Q327.516 1454.1 323.882 1454.1 M323.882 1450.39 Q329.692 1450.39 332.747 1455 Q335.826 1459.58 335.826 1468.33 Q335.826 1477.06 332.747 1481.67 Q329.692 1486.25 323.882 1486.25 Q318.072 1486.25 314.993 1481.67 Q311.937 1477.06 311.937 1468.33 Q311.937 1459.58 314.993 1455 Q318.072 1450.39 323.882 1450.39 Z" fill="#000000" fill-rule="nonzero" fill-opacity="1" /><path clip-path="url(#clip320)" d="M665.506 1481.64 L673.145 1481.64 L673.145 1455.28 L664.835 1456.95 L664.835 1452.69 L673.099 1451.02 L677.775 1451.02 L677.775 1481.64 L685.414 1481.64 L685.414 1485.58 L665.506 1485.58 L665.506 1481.64 Z" fill="#000000" fill-rule="nonzero" fill-opacity="1" /><path clip-path="url(#clip320)" d="M704.858 1454.1 Q701.247 1454.1 699.418 1457.66 Q697.613 1461.2 697.613 1468.33 Q697.613 1475.44 699.418 1479.01 Q701.247 1482.55 704.858 1482.55 Q708.492 1482.55 710.298 1479.01 Q712.127 1475.44 712.127 1468.33 Q712.127 1461.2 710.298 1457.66 Q708.492 1454.1 704.858 1454.1 M704.858 1450.39 Q710.668 1450.39 713.724 1455 Q716.802 1459.58 716.802 1468.33 Q716.802 1477.06 713.724 1481.67 Q710.668 1486.25 704.858 1486.25 Q699.048 1486.25 695.969 1481.67 Q692.914 1477.06 692.914 1468.33 Q692.914 1459.58 695.969 1455 Q699.048 1450.39 704.858 1450.39 Z" fill="#000000" fill-rule="nonzero" fill-opacity="1" /><path clip-path="url(#clip320)" d="M735.02 1454.1 Q731.409 1454.1 729.58 1457.66 Q727.775 1461.2 727.775 1468.33 Q727.775 1475.44 729.58 1479.01 Q731.409 1482.55 735.02 1482.55 Q738.654 1482.55 740.46 1479.01 Q742.288 1475.44 742.288 1468.33 Q742.288 1461.2 740.46 1457.66 Q738.654 1454.1 735.02 1454.1 M735.02 1450.39 Q740.83 1450.39 743.886 1455 Q746.964 1459.58 746.964 1468.33 Q746.964 1477.06 743.886 1481.67 Q740.83 1486.25 735.02 1486.25 Q729.21 1486.25 726.131 1481.67 Q723.076 1477.06 723.076 1468.33 Q723.076 1459.58 726.131 1455 Q729.21 1450.39 735.02 1450.39 Z" fill="#000000" fill-rule="nonzero" fill-opacity="1" /><path clip-path="url(#clip320)" d="M1062.34 1481.64 L1069.98 1481.64 L1069.98 1455.28 L1061.67 1456.95 L1061.67 1452.69 L1069.93 1451.02 L1074.61 1451.02 L1074.61 1481.64 L1082.25 1481.64 L1082.25 1485.58 L1062.34 1485.58 L1062.34 1481.64 Z" fill="#000000" fill-rule="nonzero" fill-opacity="1" /><path clip-path="url(#clip320)" d="M1091.74 1451.02 L1110.09 1451.02 L1110.09 1454.96 L1096.02 1454.96 L1096.02 1463.43 Q1097.04 1463.08 1098.06 1462.92 Q1099.08 1462.73 1100.09 1462.73 Q1105.88 1462.73 1109.26 1465.9 Q1112.64 1469.08 1112.64 1474.49 Q1112.64 1480.07 1109.17 1483.17 Q1105.7 1486.25 1099.38 1486.25 Q1097.2 1486.25 1094.93 1485.88 Q1092.69 1485.51 1090.28 1484.77 L1090.28 1480.07 Q1092.36 1481.2 1094.58 1481.76 Q1096.81 1482.32 1099.28 1482.32 Q1103.29 1482.32 1105.63 1480.21 Q1107.96 1478.1 1107.96 1474.49 Q1107.96 1470.88 1105.63 1468.77 Q1103.29 1466.67 1099.28 1466.67 Q1097.41 1466.67 1095.53 1467.08 Q1093.68 1467.5 1091.74 1468.38 L1091.74 1451.02 Z" fill="#000000" fill-rule="nonzero" fill-opacity="1" /><path clip-path="url(#clip320)" d="M1131.85 1454.1 Q1128.24 1454.1 1126.41 1457.66 Q1124.61 1461.2 1124.61 1468.33 Q1124.61 1475.44 1126.41 1479.01 Q1128.24 1482.55 1131.85 1482.55 Q1135.49 1482.55 1137.29 1479.01 Q1139.12 1475.44 1139.12 1468.33 Q1139.12 1461.2 1137.29 1457.66 Q1135.49 1454.1 1131.85 1454.1 M1131.85 1450.39 Q1137.66 1450.39 1140.72 1455 Q1143.8 1459.58 1143.8 1468.33 Q1143.8 1477.06 1140.72 1481.67 Q1137.66 1486.25 1131.85 1486.25 Q1126.04 1486.25 1122.96 1481.67 Q1119.91 1477.06 1119.91 1468.33 Q1119.91 1459.58 1122.96 1455 Q1126.04 1450.39 1131.85 1450.39 Z" fill="#000000" fill-rule="nonzero" fill-opacity="1" /><path clip-path="url(#clip320)" d="M1463.26 1481.64 L1479.58 1481.64 L1479.58 1485.58 L1457.63 1485.58 L1457.63 1481.64 Q1460.29 1478.89 1464.88 1474.26 Q1469.48 1469.61 1470.67 1468.27 Q1472.91 1465.74 1473.79 1464.01 Q1474.69 1462.25 1474.69 1460.56 Q1474.69 1457.8 1472.75 1456.07 Q1470.83 1454.33 1467.73 1454.33 Q1465.53 1454.33 1463.07 1455.09 Q1460.64 1455.86 1457.86 1457.41 L1457.86 1452.69 Q1460.69 1451.55 1463.14 1450.97 Q1465.6 1450.39 1467.63 1450.39 Q1473 1450.39 1476.2 1453.08 Q1479.39 1455.77 1479.39 1460.26 Q1479.39 1462.39 1478.58 1464.31 Q1477.79 1466.2 1475.69 1468.8 Q1475.11 1469.47 1472.01 1472.69 Q1468.91 1475.88 1463.26 1481.64 Z" fill="#000000" fill-rule="nonzero" fill-opacity="1" /><path clip-path="url(#clip320)" d="M1499.39 1454.1 Q1495.78 1454.1 1493.95 1457.66 Q1492.15 1461.2 1492.15 1468.33 Q1492.15 1475.44 1493.95 1479.01 Q1495.78 1482.55 1499.39 1482.55 Q1503.03 1482.55 1504.83 1479.01 Q1506.66 1475.44 1506.66 1468.33 Q1506.66 1461.2 1504.83 1457.66 Q1503.03 1454.1 1499.39 1454.1 M1499.39 1450.39 Q1505.2 1450.39 1508.26 1455 Q1511.34 1459.58 1511.34 1468.33 Q1511.34 1477.06 1508.26 1481.67 Q1505.2 1486.25 1499.39 1486.25 Q1493.58 1486.25 1490.5 1481.67 Q1487.45 1477.06 1487.45 1468.33 Q1487.45 1459.58 1490.5 1455 Q1493.58 1450.39 1499.39 1450.39 Z" fill="#000000" fill-rule="nonzero" fill-opacity="1" /><path clip-path="url(#clip320)" d="M1529.55 1454.1 Q1525.94 1454.1 1524.11 1457.66 Q1522.31 1461.2 1522.31 1468.33 Q1522.31 1475.44 1524.11 1479.01 Q1525.94 1482.55 1529.55 1482.55 Q1533.19 1482.55 1534.99 1479.01 Q1536.82 1475.44 1536.82 1468.33 Q1536.82 1461.2 1534.99 1457.66 Q1533.19 1454.1 1529.55 1454.1 M1529.55 1450.39 Q1535.36 1450.39 1538.42 1455 Q1541.5 1459.58 1541.5 1468.33 Q1541.5 1477.06 1538.42 1481.67 Q1535.36 1486.25 1529.55 1486.25 Q1523.74 1486.25 1520.66 1481.67 Q1517.61 1477.06 1517.61 1468.33 Q1517.61 1459.58 1520.66 1455 Q1523.74 1450.39 1529.55 1450.39 Z" fill="#000000" fill-rule="nonzero" fill-opacity="1" /><path clip-path="url(#clip320)" d="M1860.09 1481.64 L1876.41 1481.64 L1876.41 1485.58 L1854.47 1485.58 L1854.47 1481.64 Q1857.13 1478.89 1861.71 1474.26 Q1866.32 1469.61 1867.5 1468.27 Q1869.74 1465.74 1870.62 1464.01 Q1871.53 1462.25 1871.53 1460.56 Q1871.53 1457.8 1869.58 1456.07 Q1867.66 1454.33 1864.56 1454.33 Q1862.36 1454.33 1859.91 1455.09 Q1857.47 1455.86 1854.7 1457.41 L1854.7 1452.69 Q1857.52 1451.55 1859.97 1450.97 Q1862.43 1450.39 1864.47 1450.39 Q1869.84 1450.39 1873.03 1453.08 Q1876.22 1455.77 1876.22 1460.26 Q1876.22 1462.39 1875.41 1464.31 Q1874.63 1466.2 1872.52 1468.8 Q1871.94 1469.47 1868.84 1472.69 Q1865.74 1475.88 1860.09 1481.64 Z" fill="#000000" fill-rule="nonzero" fill-opacity="1" /><path clip-path="url(#clip320)" d="M1886.27 1451.02 L1904.63 1451.02 L1904.63 1454.96 L1890.55 1454.96 L1890.55 1463.43 Q1891.57 1463.08 1892.59 1462.92 Q1893.61 1462.73 1894.63 1462.73 Q1900.41 1462.73 1903.79 1465.9 Q1907.17 1469.08 1907.17 1474.49 Q1907.17 1480.07 1903.7 1483.17 Q1900.23 1486.25 1893.91 1486.25 Q1891.73 1486.25 1889.47 1485.88 Q1887.22 1485.51 1884.81 1484.77 L1884.81 1480.07 Q1886.9 1481.2 1889.12 1481.76 Q1891.34 1482.32 1893.82 1482.32 Q1897.82 1482.32 1900.16 1480.21 Q1902.5 1478.1 1902.5 1474.49 Q1902.5 1470.88 1900.16 1468.77 Q1897.82 1466.67 1893.82 1466.67 Q1891.94 1466.67 1890.07 1467.08 Q1888.22 1467.5 1886.27 1468.38 L1886.27 1451.02 Z" fill="#000000" fill-rule="nonzero" fill-opacity="1" /><path clip-path="url(#clip320)" d="M1926.39 1454.1 Q1922.78 1454.1 1920.95 1457.66 Q1919.14 1461.2 1919.14 1468.33 Q1919.14 1475.44 1920.95 1479.01 Q1922.78 1482.55 1926.39 1482.55 Q1930.02 1482.55 1931.83 1479.01 Q1933.65 1475.44 1933.65 1468.33 Q1933.65 1461.2 1931.83 1457.66 Q1930.02 1454.1 1926.39 1454.1 M1926.39 1450.39 Q1932.2 1450.39 1935.25 1455 Q1938.33 1459.58 1938.33 1468.33 Q1938.33 1477.06 1935.25 1481.67 Q1932.2 1486.25 1926.39 1486.25 Q1920.58 1486.25 1917.5 1481.67 Q1914.44 1477.06 1914.44 1468.33 Q1914.44 1459.58 1917.5 1455 Q1920.58 1450.39 1926.39 1450.39 Z" fill="#000000" fill-rule="nonzero" fill-opacity="1" /><path clip-path="url(#clip320)" d="M2266.99 1466.95 Q2270.35 1467.66 2272.22 1469.93 Q2274.12 1472.2 2274.12 1475.53 Q2274.12 1480.65 2270.6 1483.45 Q2267.09 1486.25 2260.6 1486.25 Q2258.43 1486.25 2256.11 1485.81 Q2253.82 1485.39 2251.37 1484.54 L2251.37 1480.02 Q2253.31 1481.16 2255.63 1481.74 Q2257.94 1482.32 2260.46 1482.32 Q2264.86 1482.32 2267.15 1480.58 Q2269.47 1478.84 2269.47 1475.53 Q2269.47 1472.48 2267.32 1470.77 Q2265.19 1469.03 2261.37 1469.03 L2257.34 1469.03 L2257.34 1465.19 L2261.55 1465.19 Q2265 1465.19 2266.83 1463.82 Q2268.66 1462.43 2268.66 1459.84 Q2268.66 1457.18 2266.76 1455.77 Q2264.89 1454.33 2261.37 1454.33 Q2259.45 1454.33 2257.25 1454.75 Q2255.05 1455.16 2252.41 1456.04 L2252.41 1451.88 Q2255.07 1451.14 2257.39 1450.77 Q2259.72 1450.39 2261.78 1450.39 Q2267.11 1450.39 2270.21 1452.83 Q2273.31 1455.23 2273.31 1459.35 Q2273.31 1462.22 2271.67 1464.21 Q2270.03 1466.18 2266.99 1466.95 Z" fill="#000000" fill-rule="nonzero" fill-opacity="1" /><path clip-path="url(#clip320)" d="M2292.99 1454.1 Q2289.38 1454.1 2287.55 1457.66 Q2285.74 1461.2 2285.74 1468.33 Q2285.74 1475.44 2287.55 1479.01 Q2289.38 1482.55 2292.99 1482.55 Q2296.62 1482.55 2298.43 1479.01 Q2300.26 1475.44 2300.26 1468.33 Q2300.26 1461.2 2298.43 1457.66 Q2296.62 1454.1 2292.99 1454.1 M2292.99 1450.39 Q2298.8 1450.39 2301.85 1455 Q2304.93 1459.58 2304.93 1468.33 Q2304.93 1477.06 2301.85 1481.67 Q2298.8 1486.25 2292.99 1486.25 Q2287.18 1486.25 2284.1 1481.67 Q2281.04 1477.06 2281.04 1468.33 Q2281.04 1459.58 2284.1 1455 Q2287.18 1450.39 2292.99 1450.39 Z" fill="#000000" fill-rule="nonzero" fill-opacity="1" /><path clip-path="url(#clip320)" d="M2323.15 1454.1 Q2319.54 1454.1 2317.71 1457.66 Q2315.9 1461.2 2315.9 1468.33 Q2315.9 1475.44 2317.71 1479.01 Q2319.54 1482.55 2323.15 1482.55 Q2326.78 1482.55 2328.59 1479.01 Q2330.42 1475.44 2330.42 1468.33 Q2330.42 1461.2 2328.59 1457.66 Q2326.78 1454.1 2323.15 1454.1 M2323.15 1450.39 Q2328.96 1450.39 2332.02 1455 Q2335.09 1459.58 2335.09 1468.33 Q2335.09 1477.06 2332.02 1481.67 Q2328.96 1486.25 2323.15 1486.25 Q2317.34 1486.25 2314.26 1481.67 Q2311.21 1477.06 2311.21 1468.33 Q2311.21 1459.58 2314.26 1455 Q2317.34 1450.39 2323.15 1450.39 Z" fill="#000000" fill-rule="nonzero" fill-opacity="1" /><path clip-path="url(#clip320)" d="M1177.69 1520.52 L1217.89 1520.52 L1217.89 1525.93 L1201.02 1525.93 L1201.02 1568.04 L1194.56 1568.04 L1194.56 1525.93 L1177.69 1525.93 L1177.69 1520.52 Z" fill="#000000" fill-rule="nonzero" fill-opacity="1" /><path clip-path="url(#clip320)" d="M1244.02 1518.52 L1257.51 1518.52 L1257.51 1523.07 L1249.87 1523.07 L1249.87 1572.09 L1257.51 1572.09 L1257.51 1576.64 L1244.02 1576.64 L1244.02 1518.52 Z" fill="#000000" fill-rule="nonzero" fill-opacity="1" /><path clip-path="url(#clip320)" d="M1270.24 1520.52 L1279.82 1520.52 L1291.95 1552.86 L1304.14 1520.52 L1313.72 1520.52 L1313.72 1568.04 L1307.45 1568.04 L1307.45 1526.32 L1295.2 1558.91 L1288.74 1558.91 L1276.48 1526.32 L1276.48 1568.04 L1270.24 1568.04 L1270.24 1520.52 Z" fill="#000000" fill-rule="nonzero" fill-opacity="1" /><path clip-path="url(#clip320)" d="M1356.72 1548.76 L1356.72 1551.62 L1329.79 1551.62 Q1330.18 1557.67 1333.42 1560.85 Q1336.7 1564 1342.53 1564 Q1345.9 1564 1349.05 1563.17 Q1352.23 1562.35 1355.35 1560.69 L1355.35 1566.23 Q1352.2 1567.57 1348.89 1568.27 Q1345.58 1568.97 1342.18 1568.97 Q1333.65 1568.97 1328.65 1564 Q1323.68 1559.04 1323.68 1550.57 Q1323.68 1541.82 1328.39 1536.69 Q1333.14 1531.54 1341.16 1531.54 Q1348.35 1531.54 1352.52 1536.18 Q1356.72 1540.8 1356.72 1548.76 M1350.87 1547.04 Q1350.8 1542.23 1348.16 1539.37 Q1345.55 1536.5 1341.22 1536.5 Q1336.32 1536.5 1333.36 1539.27 Q1330.43 1542.04 1329.99 1547.07 L1350.87 1547.04 Z" fill="#000000" fill-rule="nonzero" fill-opacity="1" /><path clip-path="url(#clip320)" d="M1378.84 1568.04 L1360.7 1520.52 L1367.42 1520.52 L1382.47 1560.53 L1397.56 1520.52 L1404.24 1520.52 L1386.13 1568.04 L1378.84 1568.04 Z" fill="#000000" fill-rule="nonzero" fill-opacity="1" /><path clip-path="url(#clip320)" d="M1424.61 1518.52 L1424.61 1576.64 L1411.12 1576.64 L1411.12 1572.09 L1418.72 1572.09 L1418.72 1523.07 L1411.12 1523.07 L1411.12 1518.52 L1424.61 1518.52 Z" fill="#000000" fill-rule="nonzero" fill-opacity="1" /><polyline clip-path="url(#clip320)" style="stroke:#000000; stroke-linecap:round; stroke-linejoin:round; stroke-width:4; stroke-opacity:1; fill:none" points="249.542,1423.18 249.542,123.472 "/>
<polyline clip-path="url(#clip320)" style="stroke:#000000; stroke-linecap:round; stroke-linejoin:round; stroke-width:4; stroke-opacity:1; fill:none" points="249.542,1389.3 268.44,1389.3 "/>
<polyline clip-path="url(#clip320)" style="stroke:#000000; stroke-linecap:round; stroke-linejoin:round; stroke-width:4; stroke-opacity:1; fill:none" points="249.542,999.625 268.44,999.625 "/>
<polyline clip-path="url(#clip320)" style="stroke:#000000; stroke-linecap:round; stroke-linejoin:round; stroke-width:4; stroke-opacity:1; fill:none" points="249.542,609.955 268.44,609.955 "/>
<polyline clip-path="url(#clip320)" style="stroke:#000000; stroke-linecap:round; stroke-linejoin:round; stroke-width:4; stroke-opacity:1; fill:none" points="249.542,220.285 268.44,220.285 "/>
<path clip-path="url(#clip320)" d="M126.205 1375.09 Q122.593 1375.09 120.765 1378.66 Q118.959 1382.2 118.959 1389.33 Q118.959 1396.44 120.765 1400 Q122.593 1403.54 126.205 1403.54 Q129.839 1403.54 131.644 1400 Q133.473 1396.44 133.473 1389.33 Q133.473 1382.2 131.644 1378.66 Q129.839 1375.09 126.205 1375.09 M126.205 1371.39 Q132.015 1371.39 135.07 1376 Q138.149 1380.58 138.149 1389.33 Q138.149 1398.06 135.07 1402.66 Q132.015 1407.25 126.205 1407.25 Q120.394 1407.25 117.316 1402.66 Q114.26 1398.06 114.26 1389.33 Q114.26 1380.58 117.316 1376 Q120.394 1371.39 126.205 1371.39 Z" fill="#000000" fill-rule="nonzero" fill-opacity="1" /><path clip-path="url(#clip320)" d="M146.366 1400.7 L151.251 1400.7 L151.251 1406.58 L146.366 1406.58 L146.366 1400.7 Z" fill="#000000" fill-rule="nonzero" fill-opacity="1" /><path clip-path="url(#clip320)" d="M171.436 1375.09 Q167.825 1375.09 165.996 1378.66 Q164.19 1382.2 164.19 1389.33 Q164.19 1396.44 165.996 1400 Q167.825 1403.54 171.436 1403.54 Q175.07 1403.54 176.876 1400 Q178.704 1396.44 178.704 1389.33 Q178.704 1382.2 176.876 1378.66 Q175.07 1375.09 171.436 1375.09 M171.436 1371.39 Q177.246 1371.39 180.301 1376 Q183.38 1380.58 183.38 1389.33 Q183.38 1398.06 180.301 1402.66 Q177.246 1407.25 171.436 1407.25 Q165.626 1407.25 162.547 1402.66 Q159.491 1398.06 159.491 1389.33 Q159.491 1380.58 162.547 1376 Q165.626 1371.39 171.436 1371.39 Z" fill="#000000" fill-rule="nonzero" fill-opacity="1" /><path clip-path="url(#clip320)" d="M201.598 1375.09 Q197.987 1375.09 196.158 1378.66 Q194.352 1382.2 194.352 1389.33 Q194.352 1396.44 196.158 1400 Q197.987 1403.54 201.598 1403.54 Q205.232 1403.54 207.037 1400 Q208.866 1396.44 208.866 1389.33 Q208.866 1382.2 207.037 1378.66 Q205.232 1375.09 201.598 1375.09 M201.598 1371.39 Q207.408 1371.39 210.463 1376 Q213.542 1380.58 213.542 1389.33 Q213.542 1398.06 210.463 1402.66 Q207.408 1407.25 201.598 1407.25 Q195.787 1407.25 192.709 1402.66 Q189.653 1398.06 189.653 1389.33 Q189.653 1380.58 192.709 1376 Q195.787 1371.39 201.598 1371.39 Z" fill="#000000" fill-rule="nonzero" fill-opacity="1" /><path clip-path="url(#clip320)" d="M127.431 985.424 Q123.82 985.424 121.992 988.989 Q120.186 992.531 120.186 999.66 Q120.186 1006.77 121.992 1010.33 Q123.82 1013.87 127.431 1013.87 Q131.066 1013.87 132.871 1010.33 Q134.7 1006.77 134.7 999.66 Q134.7 992.531 132.871 988.989 Q131.066 985.424 127.431 985.424 M127.431 981.72 Q133.242 981.72 136.297 986.327 Q139.376 990.91 139.376 999.66 Q139.376 1008.39 136.297 1012.99 Q133.242 1017.58 127.431 1017.58 Q121.621 1017.58 118.543 1012.99 Q115.487 1008.39 115.487 999.66 Q115.487 990.91 118.543 986.327 Q121.621 981.72 127.431 981.72 Z" fill="#000000" fill-rule="nonzero" fill-opacity="1" /><path clip-path="url(#clip320)" d="M147.593 1011.03 L152.478 1011.03 L152.478 1016.91 L147.593 1016.91 L147.593 1011.03 Z" fill="#000000" fill-rule="nonzero" fill-opacity="1" /><path clip-path="url(#clip320)" d="M172.663 985.424 Q169.052 985.424 167.223 988.989 Q165.417 992.531 165.417 999.66 Q165.417 1006.77 167.223 1010.33 Q169.052 1013.87 172.663 1013.87 Q176.297 1013.87 178.102 1010.33 Q179.931 1006.77 179.931 999.66 Q179.931 992.531 178.102 988.989 Q176.297 985.424 172.663 985.424 M172.663 981.72 Q178.473 981.72 181.528 986.327 Q184.607 990.91 184.607 999.66 Q184.607 1008.39 181.528 1012.99 Q178.473 1017.58 172.663 1017.58 Q166.852 1017.58 163.774 1012.99 Q160.718 1008.39 160.718 999.66 Q160.718 990.91 163.774 986.327 Q166.852 981.72 172.663 981.72 Z" fill="#000000" fill-rule="nonzero" fill-opacity="1" /><path clip-path="url(#clip320)" d="M193.635 1012.97 L201.274 1012.97 L201.274 986.605 L192.963 988.271 L192.963 984.012 L201.227 982.345 L205.903 982.345 L205.903 1012.97 L213.542 1012.97 L213.542 1016.91 L193.635 1016.91 L193.635 1012.97 Z" fill="#000000" fill-rule="nonzero" fill-opacity="1" /><path clip-path="url(#clip320)" d="M127.802 595.754 Q124.191 595.754 122.362 599.319 Q120.556 602.86 120.556 609.99 Q120.556 617.096 122.362 620.661 Q124.191 624.203 127.802 624.203 Q131.436 624.203 133.242 620.661 Q135.07 617.096 135.07 609.99 Q135.07 602.86 133.242 599.319 Q131.436 595.754 127.802 595.754 M127.802 592.05 Q133.612 592.05 136.667 596.656 Q139.746 601.24 139.746 609.99 Q139.746 618.717 136.667 623.323 Q133.612 627.906 127.802 627.906 Q121.992 627.906 118.913 623.323 Q115.857 618.717 115.857 609.99 Q115.857 601.24 118.913 596.656 Q121.992 592.05 127.802 592.05 Z" fill="#000000" fill-rule="nonzero" fill-opacity="1" /><path clip-path="url(#clip320)" d="M147.964 621.355 L152.848 621.355 L152.848 627.235 L147.964 627.235 L147.964 621.355 Z" fill="#000000" fill-rule="nonzero" fill-opacity="1" /><path clip-path="url(#clip320)" d="M173.033 595.754 Q169.422 595.754 167.593 599.319 Q165.788 602.86 165.788 609.99 Q165.788 617.096 167.593 620.661 Q169.422 624.203 173.033 624.203 Q176.667 624.203 178.473 620.661 Q180.301 617.096 180.301 609.99 Q180.301 602.86 178.473 599.319 Q176.667 595.754 173.033 595.754 M173.033 592.05 Q178.843 592.05 181.899 596.656 Q184.977 601.24 184.977 609.99 Q184.977 618.717 181.899 623.323 Q178.843 627.906 173.033 627.906 Q167.223 627.906 164.144 623.323 Q161.089 618.717 161.089 609.99 Q161.089 601.24 164.144 596.656 Q167.223 592.05 173.033 592.05 Z" fill="#000000" fill-rule="nonzero" fill-opacity="1" /><path clip-path="url(#clip320)" d="M197.223 623.3 L213.542 623.3 L213.542 627.235 L191.598 627.235 L191.598 623.3 Q194.26 620.545 198.843 615.916 Q203.449 611.263 204.63 609.92 Q206.875 607.397 207.755 605.661 Q208.658 603.902 208.658 602.212 Q208.658 599.457 206.713 597.721 Q204.792 595.985 201.69 595.985 Q199.491 595.985 197.037 596.749 Q194.607 597.513 191.829 599.064 L191.829 594.342 Q194.653 593.207 197.107 592.629 Q199.561 592.05 201.598 592.05 Q206.968 592.05 210.162 594.735 Q213.357 597.42 213.357 601.911 Q213.357 604.041 212.547 605.962 Q211.76 607.86 209.653 610.453 Q209.074 611.124 205.973 614.342 Q202.871 617.536 197.223 623.3 Z" fill="#000000" fill-rule="nonzero" fill-opacity="1" /><path clip-path="url(#clip320)" d="M126.853 206.083 Q123.242 206.083 121.413 209.648 Q119.607 213.19 119.607 220.319 Q119.607 227.426 121.413 230.991 Q123.242 234.532 126.853 234.532 Q130.487 234.532 132.292 230.991 Q134.121 227.426 134.121 220.319 Q134.121 213.19 132.292 209.648 Q130.487 206.083 126.853 206.083 M126.853 202.38 Q132.663 202.38 135.718 206.986 Q138.797 211.569 138.797 220.319 Q138.797 229.046 135.718 233.653 Q132.663 238.236 126.853 238.236 Q121.043 238.236 117.964 233.653 Q114.908 229.046 114.908 220.319 Q114.908 211.569 117.964 206.986 Q121.043 202.38 126.853 202.38 Z" fill="#000000" fill-rule="nonzero" fill-opacity="1" /><path clip-path="url(#clip320)" d="M147.015 231.685 L151.899 231.685 L151.899 237.565 L147.015 237.565 L147.015 231.685 Z" fill="#000000" fill-rule="nonzero" fill-opacity="1" /><path clip-path="url(#clip320)" d="M172.084 206.083 Q168.473 206.083 166.644 209.648 Q164.839 213.19 164.839 220.319 Q164.839 227.426 166.644 230.991 Q168.473 234.532 172.084 234.532 Q175.718 234.532 177.524 230.991 Q179.352 227.426 179.352 220.319 Q179.352 213.19 177.524 209.648 Q175.718 206.083 172.084 206.083 M172.084 202.38 Q177.894 202.38 180.95 206.986 Q184.028 211.569 184.028 220.319 Q184.028 229.046 180.95 233.653 Q177.894 238.236 172.084 238.236 Q166.274 238.236 163.195 233.653 Q160.14 229.046 160.14 220.319 Q160.14 211.569 163.195 206.986 Q166.274 202.38 172.084 202.38 Z" fill="#000000" fill-rule="nonzero" fill-opacity="1" /><path clip-path="url(#clip320)" d="M206.412 218.93 Q209.769 219.648 211.644 221.917 Q213.542 224.185 213.542 227.518 Q213.542 232.634 210.024 235.435 Q206.505 238.236 200.024 238.236 Q197.848 238.236 195.533 237.796 Q193.241 237.379 190.788 236.523 L190.788 232.009 Q192.732 233.143 195.047 233.722 Q197.362 234.301 199.885 234.301 Q204.283 234.301 206.574 232.565 Q208.889 230.829 208.889 227.518 Q208.889 224.463 206.737 222.75 Q204.607 221.014 200.787 221.014 L196.76 221.014 L196.76 217.171 L200.973 217.171 Q204.422 217.171 206.25 215.806 Q208.079 214.417 208.079 211.824 Q208.079 209.162 206.181 207.75 Q204.306 206.315 200.787 206.315 Q198.866 206.315 196.667 206.731 Q194.468 207.148 191.829 208.028 L191.829 203.861 Q194.491 203.12 196.806 202.75 Q199.144 202.38 201.204 202.38 Q206.528 202.38 209.63 204.81 Q212.732 207.218 212.732 211.338 Q212.732 214.208 211.088 216.199 Q209.445 218.167 206.412 218.93 Z" fill="#000000" fill-rule="nonzero" fill-opacity="1" /><path clip-path="url(#clip320)" d="M29.4065 993.309 L34.9447 993.309 Q33.6716 995.792 33.035 998.465 Q32.3984 1001.14 32.3984 1004 Q32.3984 1008.36 33.7352 1010.56 Q35.072 1012.72 37.7456 1012.72 Q39.7826 1012.72 40.9603 1011.16 Q42.1061 1009.61 43.1565 1004.89 L43.6021 1002.89 Q44.9389 996.651 47.3897 994.041 Q49.8086 991.399 54.1691 991.399 Q59.1344 991.399 62.0308 995.346 Q64.9272 999.261 64.9272 1006.14 Q64.9272 1009 64.3543 1012.12 Q63.8132 1015.21 62.6992 1018.64 L56.6518 1018.64 Q58.3387 1015.4 59.198 1012.25 Q60.0256 1009.1 60.0256 1006.01 Q60.0256 1001.87 58.6251 999.643 Q57.1929 997.415 54.6147 997.415 Q52.2276 997.415 50.9545 999.038 Q49.6813 1000.63 48.5037 1006.07 L48.0262 1008.11 Q46.8804 1013.55 44.5251 1015.97 Q42.138 1018.39 38.0002 1018.39 Q32.9713 1018.39 30.2341 1014.82 Q27.4968 1011.26 27.4968 1004.7 Q27.4968 1001.46 27.9743 998.592 Q28.4517 995.728 29.4065 993.309 Z" fill="#000000" fill-rule="nonzero" fill-opacity="1" /><path clip-path="url(#clip320)" d="M28.3562 982.073 L28.3562 976.217 L64.0042 976.217 L64.0042 982.073 L28.3562 982.073 M14.479 982.073 L14.479 976.217 L21.895 976.217 L21.895 982.073 L14.479 982.073 Z" fill="#000000" fill-rule="nonzero" fill-opacity="1" /><path clip-path="url(#clip320)" d="M45.7664 940.505 Q39.4007 940.505 35.8996 943.147 Q32.3984 945.757 32.3984 950.5 Q32.3984 955.21 35.8996 957.852 Q39.4007 960.462 45.7664 960.462 Q52.1003 960.462 55.6014 957.852 Q59.1026 955.21 59.1026 950.5 Q59.1026 945.757 55.6014 943.147 Q52.1003 940.505 45.7664 940.505 M59.58 934.649 Q68.683 934.649 73.1071 938.691 Q77.5631 942.733 77.5631 951.072 Q77.5631 954.16 77.0857 956.897 Q76.6401 959.634 75.6852 962.212 L69.9879 962.212 Q71.3884 959.634 72.0568 957.12 Q72.7252 954.605 72.7252 951.995 Q72.7252 946.234 69.7015 943.37 Q66.7096 940.505 60.6303 940.505 L57.7339 940.505 Q60.885 942.32 62.4446 945.152 Q64.0042 947.985 64.0042 951.932 Q64.0042 958.488 59.0071 962.499 Q54.01 966.509 45.7664 966.509 Q37.491 966.509 32.4939 962.499 Q27.4968 958.488 27.4968 951.932 Q27.4968 947.985 29.0564 945.152 Q30.616 942.32 33.7671 940.505 L28.3562 940.505 L28.3562 934.649 L59.58 934.649 Z" fill="#000000" fill-rule="nonzero" fill-opacity="1" /><path clip-path="url(#clip320)" d="M35.1993 894.831 Q31.2526 892.635 29.3747 889.58 Q27.4968 886.524 27.4968 882.386 Q27.4968 876.816 31.4117 873.793 Q35.2948 870.769 42.4881 870.769 L64.0042 870.769 L64.0042 876.657 L42.679 876.657 Q37.5546 876.657 35.072 878.472 Q32.5894 880.286 32.5894 884.01 Q32.5894 888.561 35.6131 891.203 Q38.6368 893.845 43.8567 893.845 L64.0042 893.845 L64.0042 899.733 L42.679 899.733 Q37.5228 899.733 35.072 901.547 Q32.5894 903.361 32.5894 907.149 Q32.5894 911.637 35.6449 914.279 Q38.6686 916.92 43.8567 916.92 L64.0042 916.92 L64.0042 922.809 L28.3562 922.809 L28.3562 916.92 L33.8944 916.92 Q30.616 914.915 29.0564 912.114 Q27.4968 909.313 27.4968 905.462 Q27.4968 901.579 29.4702 898.874 Q31.4436 896.136 35.1993 894.831 Z" fill="#000000" fill-rule="nonzero" fill-opacity="1" /><path clip-path="url(#clip320)" d="M46.0847 842.887 Q46.0847 849.985 47.7079 852.722 Q49.3312 855.46 53.2461 855.46 Q56.3653 855.46 58.2114 853.422 Q60.0256 851.354 60.0256 847.821 Q60.0256 842.951 56.5881 840.023 Q53.1188 837.063 47.3897 837.063 L46.0847 837.063 L46.0847 842.887 M43.6657 831.206 L64.0042 831.206 L64.0042 837.063 L58.5933 837.063 Q61.8398 839.068 63.3994 842.06 Q64.9272 845.052 64.9272 849.38 Q64.9272 854.855 61.8716 858.101 Q58.7843 861.316 53.6281 861.316 Q47.6125 861.316 44.5569 857.306 Q41.5014 853.263 41.5014 845.274 L41.5014 837.063 L40.9285 837.063 Q36.8862 837.063 34.6901 839.736 Q32.4621 842.378 32.4621 847.184 Q32.4621 850.24 33.1941 853.136 Q33.9262 856.032 35.3903 858.706 L29.9795 858.706 Q28.7381 855.491 28.1334 852.468 Q27.4968 849.444 27.4968 846.579 Q27.4968 838.845 31.5072 835.026 Q35.5176 831.206 43.6657 831.206 Z" fill="#000000" fill-rule="nonzero" fill-opacity="1" /><path clip-path="url(#clip320)" d="M14.479 798.964 L14.479 785.469 L19.0304 785.469 L19.0304 793.107 L68.0464 793.107 L68.0464 785.469 L72.5979 785.469 L72.5979 798.964 L14.479 798.964 Z" fill="#000000" fill-rule="nonzero" fill-opacity="1" /><path clip-path="url(#clip320)" d="M57.2247 740.336 L44.4614 740.336 L44.4614 750.839 L39.1779 750.839 L39.1779 733.97 L59.58 733.97 Q62.2218 737.694 63.5904 742.182 Q64.9272 746.67 64.9272 751.762 Q64.9272 762.902 58.4342 769.204 Q51.9093 775.474 40.2919 775.474 Q28.6427 775.474 22.1496 769.204 Q15.6248 762.902 15.6248 751.762 Q15.6248 747.115 16.7706 742.946 Q17.9164 738.744 20.1444 735.211 L26.9876 735.211 Q23.9639 738.776 22.4361 742.787 Q20.9083 746.797 20.9083 751.221 Q20.9083 759.942 25.7781 764.334 Q30.6479 768.695 40.2919 768.695 Q49.9041 768.695 54.7739 764.334 Q59.6436 759.942 59.6436 751.221 Q59.6436 747.815 59.0707 745.142 Q58.466 742.468 57.2247 740.336 Z" fill="#000000" fill-rule="nonzero" fill-opacity="1" /><path clip-path="url(#clip320)" d="M44.7161 691.988 L47.5806 691.988 L47.5806 718.915 Q53.6281 718.533 56.8109 715.287 Q59.9619 712.008 59.9619 706.184 Q59.9619 702.81 59.1344 699.659 Q58.3069 696.476 56.6518 693.357 L62.1899 693.357 Q63.5267 696.508 64.227 699.818 Q64.9272 703.128 64.9272 706.534 Q64.9272 715.064 59.9619 720.061 Q54.9967 725.026 46.5303 725.026 Q37.7774 725.026 32.6531 720.316 Q27.4968 715.573 27.4968 707.552 Q27.4968 700.359 32.1438 696.19 Q36.7589 691.988 44.7161 691.988 M42.9973 697.845 Q38.1912 697.908 35.3266 700.55 Q32.4621 703.16 32.4621 707.489 Q32.4621 712.39 35.2312 715.35 Q38.0002 718.279 43.0292 718.724 L42.9973 697.845 Z" fill="#000000" fill-rule="nonzero" fill-opacity="1" /><path clip-path="url(#clip320)" d="M64.0042 669.867 L16.4842 688.01 L16.4842 681.294 L56.4926 666.239 L16.4842 651.152 L16.4842 644.468 L64.0042 662.579 L64.0042 669.867 Z" fill="#000000" fill-rule="nonzero" fill-opacity="1" /><path clip-path="url(#clip320)" d="M16.4842 613.499 L34.2127 596.216 L34.2127 602.614 L21.6404 616.618 L34.2127 630.623 L34.2127 637.02 L16.4842 619.737 L16.4842 613.499 Z" fill="#000000" fill-rule="nonzero" fill-opacity="1" /><path clip-path="url(#clip320)" d="M38.3822 562.86 Q39.3689 558.245 42.4881 555.667 Q45.6073 553.057 50.1906 553.057 Q57.2247 553.057 61.0759 557.895 Q64.9272 562.732 64.9272 571.644 Q64.9272 574.636 64.3224 577.819 Q63.7495 580.97 62.5719 584.344 L56.3653 584.344 Q57.9249 581.67 58.7206 578.488 Q59.5163 575.305 59.5163 571.835 Q59.5163 565.788 57.1292 562.637 Q54.7421 559.454 50.1906 559.454 Q45.9892 559.454 43.6339 562.414 Q41.2468 565.342 41.2468 570.594 L41.2468 576.132 L35.9632 576.132 L35.9632 570.34 Q35.9632 565.597 34.0853 563.083 Q32.1756 560.568 28.6108 560.568 Q24.9505 560.568 23.009 563.178 Q21.0356 565.756 21.0356 570.594 Q21.0356 573.236 21.6086 576.26 Q22.1815 579.283 23.3909 582.912 L17.6618 582.912 Q16.6433 579.252 16.134 576.069 Q15.6248 572.854 15.6248 570.021 Q15.6248 562.701 18.9668 558.436 Q22.277 554.171 27.9424 554.171 Q31.8892 554.171 34.6264 556.43 Q37.3318 558.69 38.3822 562.86 Z" fill="#000000" fill-rule="nonzero" fill-opacity="1" /><path clip-path="url(#clip320)" d="M14.479 528.008 L72.5979 528.008 L72.5979 541.503 L68.0464 541.503 L68.0464 533.896 L19.0304 533.896 L19.0304 541.503 L14.479 541.503 L14.479 528.008 Z" fill="#000000" fill-rule="nonzero" fill-opacity="1" /><path clip-path="url(#clip320)" d="M568.239 18.8205 L568.239 41.5461 L578.528 41.5461 Q584.24 41.5461 587.359 38.5889 Q590.479 35.6318 590.479 30.163 Q590.479 24.7348 587.359 21.7777 Q584.24 18.8205 578.528 18.8205 L568.239 18.8205 M560.056 12.096 L578.528 12.096 Q588.696 12.096 593.881 16.714 Q599.107 21.2916 599.107 30.163 Q599.107 39.1155 593.881 43.6931 Q588.696 48.2706 578.528 48.2706 L568.239 48.2706 L568.239 72.576 L560.056 72.576 L560.056 12.096 Z" fill="#000000" fill-rule="nonzero" fill-opacity="1" /><path clip-path="url(#clip320)" d="M647.475 45.1919 L647.475 72.576 L640.021 72.576 L640.021 45.4349 Q640.021 38.994 637.51 35.7938 Q634.998 32.5936 629.975 32.5936 Q623.939 32.5936 620.455 36.4419 Q616.972 40.2903 616.972 46.9338 L616.972 72.576 L609.477 72.576 L609.477 9.54393 L616.972 9.54393 L616.972 34.2544 Q619.645 30.163 623.25 28.1376 Q626.896 26.1121 631.636 26.1121 Q639.454 26.1121 643.464 30.9732 Q647.475 35.7938 647.475 45.1919 Z" fill="#000000" fill-rule="nonzero" fill-opacity="1" /><path clip-path="url(#clip320)" d="M681.219 76.7889 Q678.059 84.8907 675.061 87.3618 Q672.064 89.8329 667.041 89.8329 L661.086 89.8329 L661.086 83.5945 L665.461 83.5945 Q668.54 83.5945 670.241 82.1361 Q671.942 80.6778 674.008 75.2496 L675.345 71.8468 L656.994 27.2059 L664.894 27.2059 L679.072 62.6918 L693.25 27.2059 L701.149 27.2059 L681.219 76.7889 Z" fill="#000000" fill-rule="nonzero" fill-opacity="1" /><path clip-path="url(#clip320)" d="M740.362 28.5427 L740.362 35.5912 Q737.202 33.9709 733.8 33.1607 Q730.397 32.3505 726.751 32.3505 Q721.201 32.3505 718.406 34.0519 Q715.652 35.7533 715.652 39.156 Q715.652 41.7486 717.636 43.2475 Q719.621 44.7058 725.617 46.0426 L728.169 46.6097 Q736.109 48.3111 739.43 51.4303 Q742.793 54.509 742.793 60.0587 Q742.793 66.3781 737.769 70.0644 Q732.787 73.7508 724.037 73.7508 Q720.391 73.7508 716.421 73.0216 Q712.492 72.3329 708.117 70.9151 L708.117 63.2184 Q712.249 65.3654 716.259 66.4591 Q720.27 67.5124 724.199 67.5124 Q729.465 67.5124 732.301 65.73 Q735.136 63.9071 735.136 60.6258 Q735.136 57.5877 733.07 55.9673 Q731.045 54.3469 724.118 52.8481 L721.525 52.2405 Q714.598 50.7821 711.52 47.7845 Q708.441 44.7463 708.441 39.4801 Q708.441 33.0797 712.978 29.5959 Q717.515 26.1121 725.86 26.1121 Q729.992 26.1121 733.638 26.7198 Q737.283 27.3274 740.362 28.5427 Z" fill="#000000" fill-rule="nonzero" fill-opacity="1" /><path clip-path="url(#clip320)" d="M783.666 44.2197 Q786.299 45.1109 788.77 48.0275 Q791.282 50.9442 793.793 56.0483 L802.098 72.576 L793.307 72.576 L785.57 57.061 Q782.572 50.9847 779.737 48.9997 Q776.942 47.0148 772.081 47.0148 L763.169 47.0148 L763.169 72.576 L754.986 72.576 L754.986 12.096 L773.458 12.096 Q783.828 12.096 788.932 16.4305 Q794.037 20.7649 794.037 29.5149 Q794.037 35.2267 791.363 38.994 Q788.73 42.7613 783.666 44.2197 M763.169 18.8205 L763.169 40.2903 L773.458 40.2903 Q779.372 40.2903 782.37 37.5762 Q785.408 34.8216 785.408 29.5149 Q785.408 24.2082 782.37 21.5346 Q779.372 18.8205 773.458 18.8205 L763.169 18.8205 Z" fill="#000000" fill-rule="nonzero" fill-opacity="1" /><path clip-path="url(#clip320)" d="M847.387 48.0275 L847.387 51.6733 L813.116 51.6733 Q813.602 59.3701 817.734 63.421 Q821.907 67.4314 829.32 67.4314 Q833.614 67.4314 837.624 66.3781 Q841.675 65.3249 845.645 63.2184 L845.645 70.267 Q841.635 71.9684 837.422 72.8596 Q833.209 73.7508 828.874 73.7508 Q818.018 73.7508 811.658 67.4314 Q805.339 61.1119 805.339 50.3365 Q805.339 39.1965 811.334 32.6746 Q817.37 26.1121 827.578 26.1121 Q836.733 26.1121 842.04 32.0264 Q847.387 37.9003 847.387 48.0275 M839.933 45.84 Q839.852 39.7232 836.49 36.0774 Q833.168 32.4315 827.659 32.4315 Q821.421 32.4315 817.653 35.9558 Q813.926 39.4801 813.359 45.8805 L839.933 45.84 Z" fill="#000000" fill-rule="nonzero" fill-opacity="1" /><path clip-path="url(#clip320)" d="M854.273 27.2059 L862.173 27.2059 L876.351 65.2844 L890.529 27.2059 L898.428 27.2059 L881.415 72.576 L871.287 72.576 L854.273 27.2059 Z" fill="#000000" fill-rule="nonzero" fill-opacity="1" /><path clip-path="url(#clip320)" d="M917.225 18.8205 L917.225 65.8515 L927.109 65.8515 Q939.626 65.8515 945.419 60.1802 Q951.252 54.509 951.252 42.2752 Q951.252 30.1225 945.419 24.4918 Q939.626 18.8205 927.109 18.8205 L917.225 18.8205 M909.042 12.096 L925.853 12.096 Q943.434 12.096 951.657 19.4281 Q959.881 26.7198 959.881 42.2752 Q959.881 57.9117 951.617 65.2439 Q943.353 72.576 925.853 72.576 L909.042 72.576 L909.042 12.096 Z" fill="#000000" fill-rule="nonzero" fill-opacity="1" /><path clip-path="url(#clip320)" d="M973.654 62.2867 L982.201 62.2867 L982.201 72.576 L973.654 72.576 L973.654 62.2867 Z" fill="#000000" fill-rule="nonzero" fill-opacity="1" /><path clip-path="url(#clip320)" d="M1000.27 71.3202 L1000.27 63.8666 Q1003.35 65.3249 1006.51 66.0946 Q1009.67 66.8642 1012.7 66.8642 Q1020.81 66.8642 1025.06 61.436 Q1029.35 55.9673 1029.96 44.8678 Q1027.61 48.3516 1024.01 50.215 Q1020.4 52.0784 1016.03 52.0784 Q1006.95 52.0784 1001.65 46.6097 Q996.379 41.1005 996.379 31.5808 Q996.379 22.2638 1001.89 16.633 Q1007.4 11.0023 1016.55 11.0023 Q1027.04 11.0023 1032.55 19.0636 Q1038.1 27.0843 1038.1 42.3968 Q1038.1 56.6965 1031.3 65.2439 Q1024.53 73.7508 1013.07 73.7508 Q1009.99 73.7508 1006.83 73.1431 Q1003.67 72.5355 1000.27 71.3202 M1016.55 45.678 Q1022.06 45.678 1025.26 41.9107 Q1028.5 38.1433 1028.5 31.5808 Q1028.5 25.0589 1025.26 21.2916 Q1022.06 17.4837 1016.55 17.4837 Q1011.04 17.4837 1007.8 21.2916 Q1004.6 25.0589 1004.6 31.5808 Q1004.6 38.1433 1007.8 41.9107 Q1011.04 45.678 1016.55 45.678 Z" fill="#000000" fill-rule="nonzero" fill-opacity="1" /><path clip-path="url(#clip320)" d="M1070.31 43.8551 Q1064.47 43.8551 1061.11 46.9743 Q1057.79 50.0935 1057.79 55.5622 Q1057.79 61.0309 1061.11 64.1501 Q1064.47 67.2693 1070.31 67.2693 Q1076.14 67.2693 1079.5 64.1501 Q1082.87 60.9904 1082.87 55.5622 Q1082.87 50.0935 1079.5 46.9743 Q1076.18 43.8551 1070.31 43.8551 M1062.13 40.3713 Q1056.86 39.075 1053.9 35.4697 Q1050.99 31.8644 1050.99 26.6793 Q1050.99 19.4281 1056.13 15.2152 Q1061.32 11.0023 1070.31 11.0023 Q1079.34 11.0023 1084.49 15.2152 Q1089.63 19.4281 1089.63 26.6793 Q1089.63 31.8644 1086.67 35.4697 Q1083.76 39.075 1078.53 40.3713 Q1084.45 41.7486 1087.73 45.759 Q1091.05 49.7694 1091.05 55.5622 Q1091.05 64.3527 1085.66 69.0517 Q1080.31 73.7508 1070.31 73.7508 Q1060.3 73.7508 1054.91 69.0517 Q1049.57 64.3527 1049.57 55.5622 Q1049.57 49.7694 1052.89 45.759 Q1056.21 41.7486 1062.13 40.3713 M1059.13 27.4489 Q1059.13 32.148 1062.04 34.7811 Q1065 37.4142 1070.31 37.4142 Q1075.57 37.4142 1078.53 34.7811 Q1081.53 32.148 1081.53 27.4489 Q1081.53 22.7499 1078.53 20.1168 Q1075.57 17.4837 1070.31 17.4837 Q1065 17.4837 1062.04 20.1168 Q1059.13 22.7499 1059.13 27.4489 Z" fill="#000000" fill-rule="nonzero" fill-opacity="1" /><path clip-path="url(#clip320)" d="M1105.59 62.2867 L1114.14 62.2867 L1114.14 72.576 L1105.59 72.576 L1105.59 62.2867 Z" fill="#000000" fill-rule="nonzero" fill-opacity="1" /><path clip-path="url(#clip320)" d="M1133.38 65.6895 L1146.75 65.6895 L1146.75 19.5497 L1132.21 22.4663 L1132.21 15.0127 L1146.67 12.096 L1154.85 12.096 L1154.85 65.6895 L1168.22 65.6895 L1168.22 72.576 L1133.38 72.576 L1133.38 65.6895 Z" fill="#000000" fill-rule="nonzero" fill-opacity="1" /><path clip-path="url(#clip320)" d="M1186.16 65.6895 L1199.53 65.6895 L1199.53 19.5497 L1184.99 22.4663 L1184.99 15.0127 L1199.45 12.096 L1207.63 12.096 L1207.63 65.6895 L1221 65.6895 L1221 72.576 L1186.16 72.576 L1186.16 65.6895 Z" fill="#000000" fill-rule="nonzero" fill-opacity="1" /><path clip-path="url(#clip320)" d="M1260.01 19.2256 L1239.35 51.5113 L1260.01 51.5113 L1260.01 19.2256 M1257.87 12.096 L1268.15 12.096 L1268.15 51.5113 L1276.78 51.5113 L1276.78 58.3168 L1268.15 58.3168 L1268.15 72.576 L1260.01 72.576 L1260.01 58.3168 L1232.71 58.3168 L1232.71 50.4176 L1257.87 12.096 Z" fill="#000000" fill-rule="nonzero" fill-opacity="1" /><path clip-path="url(#clip320)" d="M1307.81 17.4837 Q1301.49 17.4837 1298.29 23.7221 Q1295.13 29.92 1295.13 42.3968 Q1295.13 54.833 1298.29 61.0714 Q1301.49 67.2693 1307.81 67.2693 Q1314.17 67.2693 1317.33 61.0714 Q1320.53 54.833 1320.53 42.3968 Q1320.53 29.92 1317.33 23.7221 Q1314.17 17.4837 1307.81 17.4837 M1307.81 11.0023 Q1317.98 11.0023 1323.33 19.0636 Q1328.72 27.0843 1328.72 42.3968 Q1328.72 57.6687 1323.33 65.73 Q1317.98 73.7508 1307.81 73.7508 Q1297.64 73.7508 1292.26 65.73 Q1286.91 57.6687 1286.91 42.3968 Q1286.91 27.0843 1292.26 19.0636 Q1297.64 11.0023 1307.81 11.0023 Z" fill="#000000" fill-rule="nonzero" fill-opacity="1" /><path clip-path="url(#clip320)" d="M1360.6 17.4837 Q1354.28 17.4837 1351.08 23.7221 Q1347.92 29.92 1347.92 42.3968 Q1347.92 54.833 1351.08 61.0714 Q1354.28 67.2693 1360.6 67.2693 Q1366.96 67.2693 1370.12 61.0714 Q1373.32 54.833 1373.32 42.3968 Q1373.32 29.92 1370.12 23.7221 Q1366.96 17.4837 1360.6 17.4837 M1360.6 11.0023 Q1370.76 11.0023 1376.11 19.0636 Q1381.5 27.0843 1381.5 42.3968 Q1381.5 57.6687 1376.11 65.73 Q1370.76 73.7508 1360.6 73.7508 Q1350.43 73.7508 1345.04 65.73 Q1339.69 57.6687 1339.69 42.3968 Q1339.69 27.0843 1345.04 19.0636 Q1350.43 11.0023 1360.6 11.0023 Z" fill="#000000" fill-rule="nonzero" fill-opacity="1" /><path clip-path="url(#clip320)" d="M1420.67 39.9662 Q1426.54 41.222 1429.83 45.1919 Q1433.15 49.1618 1433.15 54.9951 Q1433.15 63.9476 1426.99 68.8492 Q1420.83 73.7508 1409.49 73.7508 Q1405.68 73.7508 1401.63 72.9811 Q1397.62 72.2519 1393.33 70.7531 L1393.33 62.8538 Q1396.73 64.8388 1400.78 65.8515 Q1404.83 66.8642 1409.25 66.8642 Q1416.94 66.8642 1420.95 63.826 Q1425.01 60.7879 1425.01 54.9951 Q1425.01 49.6479 1421.24 46.6502 Q1417.51 43.612 1410.83 43.612 L1403.78 43.612 L1403.78 36.8875 L1411.15 36.8875 Q1417.19 36.8875 1420.39 34.4975 Q1423.59 32.067 1423.59 27.5299 Q1423.59 22.8714 1420.27 20.4004 Q1416.98 17.8888 1410.83 17.8888 Q1407.46 17.8888 1403.62 18.618 Q1399.77 19.3471 1395.15 20.8865 L1395.15 13.5948 Q1399.81 12.2985 1403.86 11.6504 Q1407.95 11.0023 1411.56 11.0023 Q1420.87 11.0023 1426.3 15.2557 Q1431.73 19.4686 1431.73 26.6793 Q1431.73 31.7024 1428.85 35.1862 Q1425.98 38.6294 1420.67 39.9662 Z" fill="#000000" fill-rule="nonzero" fill-opacity="1" /><path clip-path="url(#clip320)" d="M1481.19 65.7705 L1481.19 89.8329 L1473.7 89.8329 L1473.7 27.2059 L1481.19 27.2059 L1481.19 34.0924 Q1483.54 30.0415 1487.11 28.0971 Q1490.71 26.1121 1495.69 26.1121 Q1503.96 26.1121 1509.1 32.6746 Q1514.29 39.2371 1514.29 49.9314 Q1514.29 60.6258 1509.1 67.1883 Q1503.96 73.7508 1495.69 73.7508 Q1490.71 73.7508 1487.11 71.8063 Q1483.54 69.8214 1481.19 65.7705 M1506.55 49.9314 Q1506.55 41.7081 1503.15 37.0496 Q1499.79 32.3505 1493.87 32.3505 Q1487.96 32.3505 1484.55 37.0496 Q1481.19 41.7081 1481.19 49.9314 Q1481.19 58.1548 1484.55 62.8538 Q1487.96 67.5124 1493.87 67.5124 Q1499.79 67.5124 1503.15 62.8538 Q1506.55 58.1548 1506.55 49.9314 Z" fill="#000000" fill-rule="nonzero" fill-opacity="1" /><path clip-path="url(#clip320)" d="M1564.36 45.1919 L1564.36 72.576 L1556.9 72.576 L1556.9 45.4349 Q1556.9 38.994 1554.39 35.7938 Q1551.88 32.5936 1546.86 32.5936 Q1540.82 32.5936 1537.34 36.4419 Q1533.85 40.2903 1533.85 46.9338 L1533.85 72.576 L1526.36 72.576 L1526.36 9.54393 L1533.85 9.54393 L1533.85 34.2544 Q1536.53 30.163 1540.13 28.1376 Q1543.78 26.1121 1548.52 26.1121 Q1556.34 26.1121 1560.35 30.9732 Q1564.36 35.7938 1564.36 45.1919 Z" fill="#000000" fill-rule="nonzero" fill-opacity="1" /><path clip-path="url(#clip320)" d="M1598.1 76.7889 Q1594.94 84.8907 1591.94 87.3618 Q1588.95 89.8329 1583.92 89.8329 L1577.97 89.8329 L1577.97 83.5945 L1582.34 83.5945 Q1585.42 83.5945 1587.12 82.1361 Q1588.82 80.6778 1590.89 75.2496 L1592.23 71.8468 L1573.88 27.2059 L1581.78 27.2059 L1595.95 62.6918 L1610.13 27.2059 L1618.03 27.2059 L1598.1 76.7889 Z" fill="#000000" fill-rule="nonzero" fill-opacity="1" /><path clip-path="url(#clip320)" d="M1657.24 28.5427 L1657.24 35.5912 Q1654.08 33.9709 1650.68 33.1607 Q1647.28 32.3505 1643.63 32.3505 Q1638.08 32.3505 1635.29 34.0519 Q1632.53 35.7533 1632.53 39.156 Q1632.53 41.7486 1634.52 43.2475 Q1636.5 44.7058 1642.5 46.0426 L1645.05 46.6097 Q1652.99 48.3111 1656.31 51.4303 Q1659.67 54.509 1659.67 60.0587 Q1659.67 66.3781 1654.65 70.0644 Q1649.67 73.7508 1640.92 73.7508 Q1637.27 73.7508 1633.3 73.0216 Q1629.37 72.3329 1625 70.9151 L1625 63.2184 Q1629.13 65.3654 1633.14 66.4591 Q1637.15 67.5124 1641.08 67.5124 Q1646.35 67.5124 1649.18 65.73 Q1652.02 63.9071 1652.02 60.6258 Q1652.02 57.5877 1649.95 55.9673 Q1647.93 54.3469 1641 52.8481 L1638.41 52.2405 Q1631.48 50.7821 1628.4 47.7845 Q1625.32 44.7463 1625.32 39.4801 Q1625.32 33.0797 1629.86 29.5959 Q1634.4 26.1121 1642.74 26.1121 Q1646.87 26.1121 1650.52 26.7198 Q1654.17 27.3274 1657.24 28.5427 Z" fill="#000000" fill-rule="nonzero" fill-opacity="1" /><path clip-path="url(#clip320)" d="M1671.54 27.2059 L1679 27.2059 L1679 72.576 L1671.54 72.576 L1671.54 27.2059 M1671.54 9.54393 L1679 9.54393 L1679 18.9825 L1671.54 18.9825 L1671.54 9.54393 Z" fill="#000000" fill-rule="nonzero" fill-opacity="1" /><path clip-path="url(#clip320)" d="M1727.24 28.9478 L1727.24 35.9153 Q1724.08 34.1734 1720.88 33.3227 Q1717.72 32.4315 1714.48 32.4315 Q1707.23 32.4315 1703.22 37.0496 Q1699.21 41.6271 1699.21 49.9314 Q1699.21 58.2358 1703.22 62.8538 Q1707.23 67.4314 1714.48 67.4314 Q1717.72 67.4314 1720.88 66.5807 Q1724.08 65.6895 1727.24 63.9476 L1727.24 70.8341 Q1724.12 72.2924 1720.76 73.0216 Q1717.44 73.7508 1713.67 73.7508 Q1703.42 73.7508 1697.39 67.3098 Q1691.35 60.8689 1691.35 49.9314 Q1691.35 38.832 1697.43 32.472 Q1703.55 26.1121 1714.16 26.1121 Q1717.6 26.1121 1720.88 26.8413 Q1724.16 27.5299 1727.24 28.9478 Z" fill="#000000" fill-rule="nonzero" fill-opacity="1" /><path clip-path="url(#clip320)" d="M1760.83 49.7694 Q1751.79 49.7694 1748.31 51.8354 Q1744.82 53.9013 1744.82 58.8839 Q1744.82 62.8538 1747.42 65.2034 Q1750.05 67.5124 1754.55 67.5124 Q1760.74 67.5124 1764.47 63.1374 Q1768.24 58.7219 1768.24 51.4303 L1768.24 49.7694 L1760.83 49.7694 M1775.69 46.6907 L1775.69 72.576 L1768.24 72.576 L1768.24 65.6895 Q1765.69 69.8214 1761.88 71.8063 Q1758.07 73.7508 1752.56 73.7508 Q1745.59 73.7508 1741.46 69.8619 Q1737.37 65.9325 1737.37 59.3701 Q1737.37 51.7138 1742.47 47.825 Q1747.62 43.9361 1757.79 43.9361 L1768.24 43.9361 L1768.24 43.2069 Q1768.24 38.0623 1764.84 35.2672 Q1761.47 32.4315 1755.36 32.4315 Q1751.47 32.4315 1747.78 33.3632 Q1744.1 34.295 1740.69 36.1584 L1740.69 29.2718 Q1744.78 27.692 1748.63 26.9223 Q1752.48 26.1121 1756.13 26.1121 Q1765.97 26.1121 1770.83 31.2163 Q1775.69 36.3204 1775.69 46.6907 Z" fill="#000000" fill-rule="nonzero" fill-opacity="1" /><path clip-path="url(#clip320)" d="M1791.05 9.54393 L1798.5 9.54393 L1798.5 72.576 L1791.05 72.576 L1791.05 9.54393 Z" fill="#000000" fill-rule="nonzero" fill-opacity="1" /><path clip-path="url(#clip320)" d="M1847.68 65.7705 L1847.68 89.8329 L1840.18 89.8329 L1840.18 27.2059 L1847.68 27.2059 L1847.68 34.0924 Q1850.03 30.0415 1853.59 28.0971 Q1857.2 26.1121 1862.18 26.1121 Q1870.44 26.1121 1875.59 32.6746 Q1880.77 39.2371 1880.77 49.9314 Q1880.77 60.6258 1875.59 67.1883 Q1870.44 73.7508 1862.18 73.7508 Q1857.2 73.7508 1853.59 71.8063 Q1850.03 69.8214 1847.68 65.7705 M1873.04 49.9314 Q1873.04 41.7081 1869.63 37.0496 Q1866.27 32.3505 1860.36 32.3505 Q1854.44 32.3505 1851.04 37.0496 Q1847.68 41.7081 1847.68 49.9314 Q1847.68 58.1548 1851.04 62.8538 Q1854.44 67.5124 1860.36 67.5124 Q1866.27 67.5124 1869.63 62.8538 Q1873.04 58.1548 1873.04 49.9314 Z" fill="#000000" fill-rule="nonzero" fill-opacity="1" /><path clip-path="url(#clip320)" d="M1910.71 32.4315 Q1904.71 32.4315 1901.23 37.1306 Q1897.75 41.7891 1897.75 49.9314 Q1897.75 58.0738 1901.19 62.7728 Q1904.67 67.4314 1910.71 67.4314 Q1916.66 67.4314 1920.15 62.7323 Q1923.63 58.0333 1923.63 49.9314 Q1923.63 41.8701 1920.15 37.1711 Q1916.66 32.4315 1910.71 32.4315 M1910.71 26.1121 Q1920.43 26.1121 1925.98 32.4315 Q1931.53 38.7509 1931.53 49.9314 Q1931.53 61.0714 1925.98 67.4314 Q1920.43 73.7508 1910.71 73.7508 Q1900.95 73.7508 1895.4 67.4314 Q1889.89 61.0714 1889.89 49.9314 Q1889.89 38.7509 1895.4 32.4315 Q1900.95 26.1121 1910.71 26.1121 Z" fill="#000000" fill-rule="nonzero" fill-opacity="1" /><path clip-path="url(#clip320)" d="M1943.89 27.2059 L1951.34 27.2059 L1951.34 72.576 L1943.89 72.576 L1943.89 27.2059 M1943.89 9.54393 L1951.34 9.54393 L1951.34 18.9825 L1943.89 18.9825 L1943.89 9.54393 Z" fill="#000000" fill-rule="nonzero" fill-opacity="1" /><path clip-path="url(#clip320)" d="M2004.65 45.1919 L2004.65 72.576 L1997.2 72.576 L1997.2 45.4349 Q1997.2 38.994 1994.68 35.7938 Q1992.17 32.5936 1987.15 32.5936 Q1981.11 32.5936 1977.63 36.4419 Q1974.15 40.2903 1974.15 46.9338 L1974.15 72.576 L1966.65 72.576 L1966.65 27.2059 L1974.15 27.2059 L1974.15 34.2544 Q1976.82 30.163 1980.42 28.1376 Q1984.07 26.1121 1988.81 26.1121 Q1996.63 26.1121 2000.64 30.9732 Q2004.65 35.7938 2004.65 45.1919 Z" fill="#000000" fill-rule="nonzero" fill-opacity="1" /><path clip-path="url(#clip320)" d="M2026.89 14.324 L2026.89 27.2059 L2042.24 27.2059 L2042.24 32.9987 L2026.89 32.9987 L2026.89 57.6282 Q2026.89 63.1779 2028.39 64.7578 Q2029.93 66.3376 2034.59 66.3376 L2042.24 66.3376 L2042.24 72.576 L2034.59 72.576 Q2025.96 72.576 2022.68 69.3758 Q2019.39 66.1351 2019.39 57.6282 L2019.39 32.9987 L2013.93 32.9987 L2013.93 27.2059 L2019.39 27.2059 L2019.39 14.324 L2026.89 14.324 Z" fill="#000000" fill-rule="nonzero" fill-opacity="1" /><polyline clip-path="url(#clip321)" style="stroke:#009af9; stroke-linecap:round; stroke-linejoin:round; stroke-width:10; stroke-opacity:1; fill:none" points="309.067,167.879 329.109,167.442 349.151,166.955 369.193,166.42 389.235,165.839 409.277,165.218 429.319,164.564 449.361,163.889 469.403,163.207 489.446,162.535 509.488,161.895 529.53,161.314 549.572,160.822 569.614,160.455 589.656,160.256 609.698,160.273 629.74,160.56 649.782,161.181 669.824,162.205 689.866,163.713 709.908,165.796 729.95,168.556 749.992,172.11 770.034,176.59 790.076,182.147 810.118,188.956 830.161,197.217 850.203,207.166 870.245,219.083 890.287,233.301 910.329,250.229 930.371,270.379 950.413,294.405 970.455,323.178 990.497,357.909 1010.54,400.381 1030.58,453.463 1050.62,522.41 1070.67,619.317 1090.71,794.07 1110.75,1262.42 1130.79,1310.75 1150.83,1330.76 1170.88,1342.05 1190.92,1349.38 1210.96,1354.55 1231,1358.41 1251.04,1361.41 1271.09,1363.83 1291.13,1365.81 1311.17,1367.49 1331.21,1368.92 1351.25,1370.16 1371.3,1371.25 1391.34,1372.22 1411.38,1373.09 1431.42,1373.87 1451.46,1374.58 1471.51,1375.23 1491.55,1375.83 1511.59,1376.39 1531.63,1376.91 1551.67,1377.39 1571.72,1377.84 1591.76,1378.27 1611.8,1378.67 1631.84,1379.05 1651.89,1379.41 1671.93,1379.76 1691.97,1380.09 1712.01,1380.4 1732.05,1380.7 1752.1,1380.99 1772.14,1381.27 1792.18,1381.54 1812.22,1381.8 1832.26,1382.05 1852.31,1382.29 1872.35,1382.53 1892.39,1382.76 1912.43,1382.98 1932.47,1383.19 1952.52,1383.41 1972.56,1383.61 1992.6,1383.81 2012.64,1384.01 2032.68,1384.2 2052.73,1384.39 2072.77,1384.57 2092.81,1384.75 2112.85,1384.93 2132.89,1385.1 2152.94,1385.27 2172.98,1385.44 2193.02,1385.61 2213.06,1385.77 2233.1,1385.93 2253.15,1386.09 2273.19,1386.24 2293.23,1386.4 "/>
<polyline clip-path="url(#clip321)" style="stroke:#e26f46; stroke-linecap:round; stroke-linejoin:round; stroke-width:10; stroke-opacity:1; fill:none" points="309.067,301.475 329.109,301.118 349.151,300.72 369.193,300.283 389.235,299.808 409.277,299.301 429.319,298.768 449.361,298.218 469.403,297.663 489.446,297.118 509.488,296.602 529.53,296.135 549.572,295.745 569.614,295.461 589.656,295.319 609.698,295.358 629.74,295.626 649.782,296.173 669.824,297.06 689.866,298.353 709.908,300.127 729.95,302.468 749.992,305.473 770.034,309.252 790.076,313.928 810.118,319.646 830.161,326.571 850.203,334.895 870.245,344.844 890.287,356.69 910.329,370.759 930.371,387.459 950.413,407.306 970.455,430.98 990.497,459.413 1010.54,493.963 1030.58,536.777 1050.62,591.708 1070.67,667.397 1090.71,797.906 1110.75,1064.1 1130.79,1083.52 1150.83,1094.97 1170.88,1104.52 1190.92,1113.25 1210.96,1121.48 1231,1129.34 1251.04,1136.89 1271.09,1144.15 1291.13,1151.15 1311.17,1157.9 1331.21,1164.41 1351.25,1170.71 1371.3,1176.79 1391.34,1182.67 1411.38,1188.36 1431.42,1193.88 1451.46,1199.22 1471.51,1204.4 1491.55,1209.44 1511.59,1214.33 1531.63,1219.09 1551.67,1223.73 1571.72,1228.24 1591.76,1232.64 1611.8,1236.94 1631.84,1241.14 1651.89,1245.25 1671.93,1249.26 1691.97,1253.19 1712.01,1257.05 1732.05,1260.82 1752.1,1264.53 1772.14,1268.17 1792.18,1271.75 1812.22,1275.26 1832.26,1278.72 1852.31,1282.13 1872.35,1285.48 1892.39,1288.78 1912.43,1292.04 1932.47,1295.26 1952.52,1298.43 1972.56,1301.56 1992.6,1304.65 2012.64,1307.71 2032.68,1310.73 2052.73,1313.72 2072.77,1316.68 2092.81,1319.61 2112.85,1322.51 2132.89,1325.38 2152.94,1328.23 2172.98,1331.05 2193.02,1333.85 2213.06,1336.62 2233.1,1339.38 2253.15,1342.11 2273.19,1344.82 2293.23,1347.52 "/>
<path clip-path="url(#clip320)" d="M1882.26 322.316 L2282.65 322.316 L2282.65 166.796 L1882.26 166.796  Z" fill="#ffffff" fill-rule="evenodd" fill-opacity="1"/>
<polyline clip-path="url(#clip320)" style="stroke:#000000; stroke-linecap:round; stroke-linejoin:round; stroke-width:4; stroke-opacity:1; fill:none" points="1882.26,322.316 2282.65,322.316 2282.65,166.796 1882.26,166.796 1882.26,322.316 "/>
<polyline clip-path="url(#clip320)" style="stroke:#009af9; stroke-linecap:round; stroke-linejoin:round; stroke-width:10; stroke-opacity:1; fill:none" points="1905.63,218.636 2045.84,218.636 "/>
<path clip-path="url(#clip320)" d="M2087.64 210.754 L2087.64 214.782 Q2085.83 213.856 2083.89 213.393 Q2081.94 212.93 2079.86 212.93 Q2076.69 212.93 2075.09 213.902 Q2073.52 214.874 2073.52 216.819 Q2073.52 218.3 2074.65 219.157 Q2075.79 219.99 2079.21 220.754 L2080.67 221.078 Q2085.21 222.05 2087.1 223.832 Q2089.03 225.592 2089.03 228.763 Q2089.03 232.374 2086.16 234.481 Q2083.31 236.587 2078.31 236.587 Q2076.23 236.587 2073.96 236.17 Q2071.71 235.777 2069.21 234.967 L2069.21 230.569 Q2071.57 231.795 2073.86 232.42 Q2076.16 233.022 2078.4 233.022 Q2081.41 233.022 2083.03 232.004 Q2084.65 230.962 2084.65 229.087 Q2084.65 227.351 2083.47 226.425 Q2082.31 225.499 2078.35 224.643 L2076.87 224.295 Q2072.91 223.462 2071.16 221.749 Q2069.4 220.013 2069.4 217.004 Q2069.4 213.346 2071.99 211.356 Q2074.58 209.365 2079.35 209.365 Q2081.71 209.365 2083.79 209.712 Q2085.88 210.059 2087.64 210.754 Z" fill="#000000" fill-rule="nonzero" fill-opacity="1" /><path clip-path="url(#clip320)" d="M2095.81 209.99 L2100.07 209.99 L2100.07 235.916 L2095.81 235.916 L2095.81 209.99 M2095.81 199.897 L2100.07 199.897 L2100.07 205.291 L2095.81 205.291 L2095.81 199.897 Z" fill="#000000" fill-rule="nonzero" fill-opacity="1" /><path clip-path="url(#clip320)" d="M2126.04 222.652 Q2126.04 218.022 2124.12 215.476 Q2122.22 212.93 2118.77 212.93 Q2115.35 212.93 2113.42 215.476 Q2111.53 218.022 2111.53 222.652 Q2111.53 227.258 2113.42 229.805 Q2115.35 232.351 2118.77 232.351 Q2122.22 232.351 2124.12 229.805 Q2126.04 227.258 2126.04 222.652 M2130.3 232.698 Q2130.3 239.318 2127.36 242.536 Q2124.42 245.777 2118.35 245.777 Q2116.11 245.777 2114.12 245.43 Q2112.13 245.105 2110.25 244.411 L2110.25 240.268 Q2112.13 241.286 2113.96 241.772 Q2115.79 242.258 2117.68 242.258 Q2121.87 242.258 2123.96 240.059 Q2126.04 237.883 2126.04 233.462 L2126.04 231.356 Q2124.72 233.647 2122.66 234.781 Q2120.6 235.916 2117.73 235.916 Q2112.96 235.916 2110.04 232.281 Q2107.13 228.647 2107.13 222.652 Q2107.13 216.633 2110.04 212.999 Q2112.96 209.365 2117.73 209.365 Q2120.6 209.365 2122.66 210.499 Q2124.72 211.633 2126.04 213.925 L2126.04 209.99 L2130.3 209.99 L2130.3 232.698 Z" fill="#000000" fill-rule="nonzero" fill-opacity="1" /><path clip-path="url(#clip320)" d="M2159.26 214.967 Q2160.85 212.096 2163.08 210.731 Q2165.3 209.365 2168.31 209.365 Q2172.36 209.365 2174.56 212.212 Q2176.76 215.036 2176.76 220.268 L2176.76 235.916 L2172.47 235.916 L2172.47 220.407 Q2172.47 216.68 2171.16 214.874 Q2169.84 213.069 2167.13 213.069 Q2163.82 213.069 2161.9 215.268 Q2159.97 217.467 2159.97 221.263 L2159.97 235.916 L2155.69 235.916 L2155.69 220.407 Q2155.69 216.657 2154.37 214.874 Q2153.05 213.069 2150.3 213.069 Q2147.03 213.069 2145.11 215.291 Q2143.19 217.49 2143.19 221.263 L2143.19 235.916 L2138.91 235.916 L2138.91 209.99 L2143.19 209.99 L2143.19 214.018 Q2144.65 211.633 2146.69 210.499 Q2148.72 209.365 2151.53 209.365 Q2154.35 209.365 2156.32 210.8 Q2158.31 212.235 2159.26 214.967 Z" fill="#000000" fill-rule="nonzero" fill-opacity="1" /><path clip-path="url(#clip320)" d="M2197.03 222.883 Q2191.87 222.883 2189.88 224.064 Q2187.89 225.244 2187.89 228.092 Q2187.89 230.36 2189.37 231.703 Q2190.88 233.022 2193.45 233.022 Q2196.99 233.022 2199.12 230.522 Q2201.27 227.999 2201.27 223.832 L2201.27 222.883 L2197.03 222.883 M2205.53 221.124 L2205.53 235.916 L2201.27 235.916 L2201.27 231.981 Q2199.81 234.342 2197.64 235.476 Q2195.46 236.587 2192.31 236.587 Q2188.33 236.587 2185.97 234.365 Q2183.63 232.119 2183.63 228.369 Q2183.63 223.994 2186.55 221.772 Q2189.49 219.55 2195.3 219.55 L2201.27 219.55 L2201.27 219.133 Q2201.27 216.194 2199.33 214.596 Q2197.41 212.976 2193.91 212.976 Q2191.69 212.976 2189.58 213.508 Q2187.47 214.041 2185.53 215.106 L2185.53 211.17 Q2187.87 210.268 2190.07 209.828 Q2192.27 209.365 2194.35 209.365 Q2199.97 209.365 2202.75 212.282 Q2205.53 215.198 2205.53 221.124 Z" fill="#000000" fill-rule="nonzero" fill-opacity="1" /><path clip-path="url(#clip320)" d="M2234 243.786 L2234 247.096 L2209.37 247.096 L2209.37 243.786 L2234 243.786 Z" fill="#000000" fill-rule="nonzero" fill-opacity="1" /><path clip-path="url(#clip320)" d="M2237.57 225.684 L2237.57 209.99 L2241.83 209.99 L2241.83 225.522 Q2241.83 229.203 2243.26 231.055 Q2244.7 232.883 2247.57 232.883 Q2251.02 232.883 2253.01 230.684 Q2255.02 228.485 2255.02 224.689 L2255.02 209.99 L2259.28 209.99 L2259.28 235.916 L2255.02 235.916 L2255.02 231.934 Q2253.47 234.295 2251.41 235.453 Q2249.37 236.587 2246.66 236.587 Q2242.2 236.587 2239.88 233.809 Q2237.57 231.031 2237.57 225.684 M2248.28 209.365 L2248.28 209.365 Z" fill="#000000" fill-rule="nonzero" fill-opacity="1" /><polyline clip-path="url(#clip320)" style="stroke:#e26f46; stroke-linecap:round; stroke-linejoin:round; stroke-width:10; stroke-opacity:1; fill:none" points="1905.63,270.476 2045.84,270.476 "/>
<path clip-path="url(#clip320)" d="M2087.64 262.594 L2087.64 266.622 Q2085.83 265.696 2083.89 265.233 Q2081.94 264.77 2079.86 264.77 Q2076.69 264.77 2075.09 265.742 Q2073.52 266.714 2073.52 268.659 Q2073.52 270.14 2074.65 270.997 Q2075.79 271.83 2079.21 272.594 L2080.67 272.918 Q2085.21 273.89 2087.1 275.672 Q2089.03 277.432 2089.03 280.603 Q2089.03 284.214 2086.16 286.321 Q2083.31 288.427 2078.31 288.427 Q2076.23 288.427 2073.96 288.01 Q2071.71 287.617 2069.21 286.807 L2069.21 282.409 Q2071.57 283.635 2073.86 284.26 Q2076.16 284.862 2078.4 284.862 Q2081.41 284.862 2083.03 283.844 Q2084.65 282.802 2084.65 280.927 Q2084.65 279.191 2083.47 278.265 Q2082.31 277.339 2078.35 276.483 L2076.87 276.135 Q2072.91 275.302 2071.16 273.589 Q2069.4 271.853 2069.4 268.844 Q2069.4 265.186 2071.99 263.196 Q2074.58 261.205 2079.35 261.205 Q2081.71 261.205 2083.79 261.552 Q2085.88 261.899 2087.64 262.594 Z" fill="#000000" fill-rule="nonzero" fill-opacity="1" /><path clip-path="url(#clip320)" d="M2095.81 261.83 L2100.07 261.83 L2100.07 287.756 L2095.81 287.756 L2095.81 261.83 M2095.81 251.737 L2100.07 251.737 L2100.07 257.131 L2095.81 257.131 L2095.81 251.737 Z" fill="#000000" fill-rule="nonzero" fill-opacity="1" /><path clip-path="url(#clip320)" d="M2126.04 274.492 Q2126.04 269.862 2124.12 267.316 Q2122.22 264.77 2118.77 264.77 Q2115.35 264.77 2113.42 267.316 Q2111.53 269.862 2111.53 274.492 Q2111.53 279.098 2113.42 281.645 Q2115.35 284.191 2118.77 284.191 Q2122.22 284.191 2124.12 281.645 Q2126.04 279.098 2126.04 274.492 M2130.3 284.538 Q2130.3 291.158 2127.36 294.376 Q2124.42 297.617 2118.35 297.617 Q2116.11 297.617 2114.12 297.27 Q2112.13 296.945 2110.25 296.251 L2110.25 292.108 Q2112.13 293.126 2113.96 293.612 Q2115.79 294.098 2117.68 294.098 Q2121.87 294.098 2123.96 291.899 Q2126.04 289.723 2126.04 285.302 L2126.04 283.196 Q2124.72 285.487 2122.66 286.621 Q2120.6 287.756 2117.73 287.756 Q2112.96 287.756 2110.04 284.121 Q2107.13 280.487 2107.13 274.492 Q2107.13 268.473 2110.04 264.839 Q2112.96 261.205 2117.73 261.205 Q2120.6 261.205 2122.66 262.339 Q2124.72 263.473 2126.04 265.765 L2126.04 261.83 L2130.3 261.83 L2130.3 284.538 Z" fill="#000000" fill-rule="nonzero" fill-opacity="1" /><path clip-path="url(#clip320)" d="M2159.26 266.807 Q2160.85 263.936 2163.08 262.571 Q2165.3 261.205 2168.31 261.205 Q2172.36 261.205 2174.56 264.052 Q2176.76 266.876 2176.76 272.108 L2176.76 287.756 L2172.47 287.756 L2172.47 272.247 Q2172.47 268.52 2171.16 266.714 Q2169.84 264.909 2167.13 264.909 Q2163.82 264.909 2161.9 267.108 Q2159.97 269.307 2159.97 273.103 L2159.97 287.756 L2155.69 287.756 L2155.69 272.247 Q2155.69 268.497 2154.37 266.714 Q2153.05 264.909 2150.3 264.909 Q2147.03 264.909 2145.11 267.131 Q2143.19 269.33 2143.19 273.103 L2143.19 287.756 L2138.91 287.756 L2138.91 261.83 L2143.19 261.83 L2143.19 265.858 Q2144.65 263.473 2146.69 262.339 Q2148.72 261.205 2151.53 261.205 Q2154.35 261.205 2156.32 262.64 Q2158.31 264.075 2159.26 266.807 Z" fill="#000000" fill-rule="nonzero" fill-opacity="1" /><path clip-path="url(#clip320)" d="M2197.03 274.723 Q2191.87 274.723 2189.88 275.904 Q2187.89 277.084 2187.89 279.932 Q2187.89 282.2 2189.37 283.543 Q2190.88 284.862 2193.45 284.862 Q2196.99 284.862 2199.12 282.362 Q2201.27 279.839 2201.27 275.672 L2201.27 274.723 L2197.03 274.723 M2205.53 272.964 L2205.53 287.756 L2201.27 287.756 L2201.27 283.821 Q2199.81 286.182 2197.64 287.316 Q2195.46 288.427 2192.31 288.427 Q2188.33 288.427 2185.97 286.205 Q2183.63 283.959 2183.63 280.209 Q2183.63 275.834 2186.55 273.612 Q2189.49 271.39 2195.3 271.39 L2201.27 271.39 L2201.27 270.973 Q2201.27 268.034 2199.33 266.436 Q2197.41 264.816 2193.91 264.816 Q2191.69 264.816 2189.58 265.348 Q2187.47 265.881 2185.53 266.946 L2185.53 263.01 Q2187.87 262.108 2190.07 261.668 Q2192.27 261.205 2194.35 261.205 Q2199.97 261.205 2202.75 264.122 Q2205.53 267.038 2205.53 272.964 Z" fill="#000000" fill-rule="nonzero" fill-opacity="1" /><path clip-path="url(#clip320)" d="M2234 295.626 L2234 298.936 L2209.37 298.936 L2209.37 295.626 L2234 295.626 Z" fill="#000000" fill-rule="nonzero" fill-opacity="1" /><path clip-path="url(#clip320)" d="M2254.53 262.594 L2254.53 266.622 Q2252.73 265.696 2250.78 265.233 Q2248.84 264.77 2246.76 264.77 Q2243.59 264.77 2241.99 265.742 Q2240.41 266.714 2240.41 268.659 Q2240.41 270.14 2241.55 270.997 Q2242.68 271.83 2246.11 272.594 L2247.57 272.918 Q2252.1 273.89 2254 275.672 Q2255.92 277.432 2255.92 280.603 Q2255.92 284.214 2253.05 286.321 Q2250.21 288.427 2245.21 288.427 Q2243.12 288.427 2240.85 288.01 Q2238.61 287.617 2236.11 286.807 L2236.11 282.409 Q2238.47 283.635 2240.76 284.26 Q2243.05 284.862 2245.3 284.862 Q2248.31 284.862 2249.93 283.844 Q2251.55 282.802 2251.55 280.927 Q2251.55 279.191 2250.37 278.265 Q2249.21 277.339 2245.25 276.483 L2243.77 276.135 Q2239.81 275.302 2238.05 273.589 Q2236.29 271.853 2236.29 268.844 Q2236.29 265.186 2238.89 263.196 Q2241.48 261.205 2246.25 261.205 Q2248.61 261.205 2250.69 261.552 Q2252.78 261.899 2254.53 262.594 Z" fill="#000000" fill-rule="nonzero" fill-opacity="1" /></svg>
